<svg width="100" height="77" viewBox="0 0 100 77" fill="none" xmlns="http://www.w3.org/2000/svg">
<path opacity="0.972" fill-rule="evenodd" clip-rule="evenodd" d="M14.5513 3.80173C17.4159 3.80173 20.2805 3.80173 23.1451 3.80173C40.9836 3.80173 58.8222 3.80173 76.6607 3.80173C79.5254 3.80173 82.3898 3.80173 85.2545 3.80173C88.8357 3.76925 92.4166 3.80175 95.9967 3.89921C96.3779 4.17446 96.6383 4.5319 96.7779 4.97147C96.5639 5.28402 96.3033 5.57646 95.9967 5.84877C65.2676 5.97875 34.5383 5.97875 3.80916 5.84877C3.44779 5.71431 3.18736 5.48685 3.02791 5.16642C2.94602 4.61577 3.14133 4.19336 3.61385 3.89921C7.2591 3.80175 10.9049 3.76925 14.5513 3.80173Z" fill="#63744C"/>
<path fill-rule="evenodd" clip-rule="evenodd" d="M96.7778 4.97119C96.8102 6.53219 96.7778 8.09184 96.6801 9.65015C96.3602 10.0857 95.937 10.3456 95.4106 10.43C65.0721 10.1701 34.7335 10.1701 4.39499 10.43C3.81407 10.4017 3.39089 10.1418 3.12546 9.65015C3.02786 8.1569 2.9953 6.66223 3.0278 5.16615C3.18725 5.48658 3.44768 5.71403 3.80905 5.8485C34.5381 5.97847 65.2674 5.97847 95.9965 5.8485C96.3032 5.57618 96.5637 5.28375 96.7778 4.97119Z" fill="#63744C"/>
<path fill-rule="evenodd" clip-rule="evenodd" d="M95.4102 10.4303C67.0898 10.4303 38.7695 10.4303 10.4492 10.4303C10.4492 28.7562 10.4492 47.0821 10.4492 65.408C8.431 65.408 6.41275 65.408 4.39453 65.408C4.39453 47.0821 4.39453 28.7562 4.39453 10.4303C34.733 10.1704 65.0717 10.1704 95.4102 10.4303Z" fill="#6D8C44"/>
<path opacity="0.998" fill-rule="evenodd" clip-rule="evenodd" d="M95.4102 10.4302C95.4102 28.7561 95.4102 47.082 95.4102 65.4079C67.0898 65.4079 38.7695 65.4079 10.4492 65.4079C10.4492 47.082 10.4492 28.7561 10.4492 10.4302C38.7695 10.4302 67.0898 10.4302 95.4102 10.4302Z" fill="#DFEDD4"/>
<path fill-rule="evenodd" clip-rule="evenodd" d="M31.3485 17.0586C31.3485 17.4485 31.3485 17.8384 31.3485 18.2283C25.2612 20.6355 21.5178 25.0545 20.118 31.4854C19.1905 40.8156 22.9991 47.3467 31.5438 51.0785C32.26 51.2735 32.976 51.4684 33.6923 51.6634C33.5837 51.7381 33.5186 51.8355 33.4969 51.9558C26.2083 52.4931 20.5116 49.7637 16.4071 43.7677C12.3528 36.2955 13.0039 29.2771 18.3602 22.7123C21.8967 19.0473 26.226 17.1627 31.3485 17.0586Z" fill="#6D8C44"/>
<path fill-rule="evenodd" clip-rule="evenodd" d="M31.3477 17.0586C39.0377 17.3694 44.4738 21.0086 47.6562 27.9762C48.1918 29.3674 48.5498 30.7972 48.7305 32.2652C48.7305 32.9801 48.7305 33.6948 48.7305 34.4097C45.9311 34.4097 43.1314 34.4097 40.332 34.4097C39.7865 28.9915 36.7918 26.0671 31.3477 25.6367C31.3477 23.1672 31.3477 20.6978 31.3477 18.2283C31.3477 17.8384 31.3477 17.4485 31.3477 17.0586Z" fill="#88B367"/>
<path fill-rule="evenodd" clip-rule="evenodd" d="M31.3472 18.2285C31.3472 20.698 31.3472 23.1674 31.3472 25.6369C26.8833 25.8991 23.986 28.1736 22.6558 32.4603C21.9575 37.9269 24.2036 41.5336 29.3941 43.2804C32.5851 43.7452 35.3845 42.9328 37.7925 40.8435C39.7456 42.858 41.6987 44.8726 43.6519 46.8871C40.8616 49.7093 37.4763 51.399 33.4956 51.956C33.5173 51.8357 33.5823 51.7382 33.6909 51.6636C32.9747 51.4686 32.2587 51.2737 31.5425 51.0787C22.9978 47.3468 19.1892 40.8158 20.1167 31.4856C21.5165 25.0547 25.2599 20.6356 31.3472 18.2285Z" fill="#6D8C44"/>
<path fill-rule="evenodd" clip-rule="evenodd" d="M60.4488 21.1528C68.522 21.1203 76.5949 21.1528 84.6676 21.2503C85.7381 21.5381 86.1613 22.2204 85.9371 23.2974C85.7092 23.6547 85.4162 23.9471 85.0582 24.1747C76.9201 24.3047 68.7822 24.3047 60.6441 24.1747C59.539 23.8181 59.1808 23.0706 59.5699 21.9327C59.8428 21.6266 60.1357 21.3665 60.4488 21.1528Z" fill="#6D8C44"/>
<path fill-rule="evenodd" clip-rule="evenodd" d="M60.2537 29.146C68.5222 29.1134 76.7904 29.146 85.0584 29.2435C86.0693 29.7342 86.2972 30.4816 85.7419 31.4855C85.5656 31.7196 85.3378 31.8822 85.0584 31.9729C76.7902 32.1029 68.5218 32.1029 60.2537 31.9729C59.2253 31.0129 59.2253 30.0705 60.2537 29.146Z" fill="#6D8C44"/>
<path fill-rule="evenodd" clip-rule="evenodd" d="M40.332 34.605C43.1967 34.605 46.0611 34.605 48.9258 34.605C48.7938 39.4266 47.0359 43.5207 43.6523 46.8872C41.6992 44.8728 39.7461 42.8581 37.793 40.8436C39.391 39.0812 40.2373 37.0018 40.332 34.605Z" fill="#63744C"/>
<path fill-rule="evenodd" clip-rule="evenodd" d="M60.2542 36.9443C68.5228 36.9118 76.7909 36.9443 85.0589 37.0418C86.4566 38.2242 86.3263 39.199 84.6683 39.9662C76.5954 40.0962 68.5224 40.0962 60.4495 39.9662C59.5571 39.4708 59.2642 38.7233 59.5706 37.7242C59.8394 37.4892 60.0671 37.2294 60.2542 36.9443Z" fill="#6D8C44"/>
<path fill-rule="evenodd" clip-rule="evenodd" d="M60.2537 44.9375C68.5873 44.9049 76.9207 44.9375 85.2537 45.035C86.2945 46.0164 86.2294 46.9263 85.0583 47.7644C76.7902 47.8944 68.5218 47.8944 60.2537 47.7644C59.2253 46.8044 59.2253 45.862 60.2537 44.9375Z" fill="#6D8C44"/>
<path fill-rule="evenodd" clip-rule="evenodd" d="M60.2539 52.7358C68.5224 52.7033 76.7906 52.7358 85.0585 52.8333C86.2931 53.6381 86.3582 54.548 85.2539 55.5627C76.9205 55.6927 68.5873 55.6927 60.2539 55.5627C59.5289 55.0728 59.3011 54.3904 59.5703 53.5157C59.839 53.2807 60.0668 53.0209 60.2539 52.7358Z" fill="#6D8C44"/>
<path fill-rule="evenodd" clip-rule="evenodd" d="M21.9726 56.44C23.1034 56.3612 24.2101 56.4587 25.2929 56.7324C25.7337 57.3637 25.7988 58.046 25.4882 58.7794C25.2929 58.9418 25.0976 59.1044 24.9023 59.2668C23.9907 59.3969 23.0794 59.3969 22.1679 59.2668C20.979 58.3788 20.914 57.4366 21.9726 56.44Z" fill="#6D8C44"/>
<path fill-rule="evenodd" clip-rule="evenodd" d="M29.9802 56.4398C30.9589 56.4075 31.9355 56.44 32.9099 56.5373C33.9507 57.5187 33.8857 58.4286 32.7146 59.2667C31.8031 59.3967 30.8917 59.3967 29.9802 59.2667C28.9519 58.3067 28.9519 57.3643 29.9802 56.4398Z" fill="#88B367"/>
<path fill-rule="evenodd" clip-rule="evenodd" d="M37.7927 56.4398C38.7714 56.4075 39.748 56.44 40.7224 56.5373C41.5441 57.1358 41.7068 57.8831 41.2107 58.7793C40.982 59.0509 40.689 59.2135 40.3318 59.2667C39.4855 59.3967 38.639 59.3967 37.7927 59.2667C36.7644 58.3067 36.7644 57.3643 37.7927 56.4398Z" fill="#63744C"/>
<path opacity="0.998" fill-rule="evenodd" clip-rule="evenodd" d="M4.39453 65.4079C6.41275 65.4079 8.431 65.4079 10.4492 65.4079C38.7695 65.4079 67.0898 65.4079 95.4102 65.4079C96.2219 65.3728 96.6777 65.7628 96.7773 66.5777C96.5164 66.93 96.1908 67.2224 95.8008 67.455C65.1367 67.585 34.4727 67.585 3.80859 67.455C3.50189 67.1826 3.24148 66.8902 3.02734 66.5777C3.11977 65.7709 3.57549 65.381 4.39453 65.4079Z" fill="#63744C"/>
<path fill-rule="evenodd" clip-rule="evenodd" d="M3.0278 66.5776C3.24194 66.8902 3.50235 67.1826 3.80905 67.4549C34.4731 67.585 65.1372 67.585 95.8012 67.4549C96.1913 67.2224 96.5169 66.9299 96.7778 66.5776C96.8102 68.0737 96.7778 69.5685 96.6801 71.0616C96.5893 71.3406 96.4264 71.5679 96.1919 71.744C81.2831 71.8415 66.3743 71.874 51.4653 71.8415C50.4237 71.8415 49.3819 71.8415 48.3403 71.8415C33.4313 71.874 18.5224 71.8415 3.61374 71.744C3.38587 71.6465 3.22311 71.4841 3.12546 71.2566C3.02786 69.6983 2.9953 68.1387 3.0278 66.5776Z" fill="#63744C"/>
</svg>
