<svg width="100" height="100" viewBox="0 0 100 100" fill="none" xmlns="http://www.w3.org/2000/svg">
<g clip-path="url(#clip0_2588_361)">
<path opacity="0.986" fill-rule="evenodd" clip-rule="evenodd" d="M73.5352 -0.0976562C75.4883 -0.0976562 77.4414 -0.0976562 79.3945 -0.0976562C90.8529 2.11588 97.6889 8.95182 99.9023 20.4102C99.9023 22.3633 99.9023 24.3164 99.9023 26.2695C99.151 31.0279 97.2303 35.2596 94.1406 38.9648C87.0768 46.0287 80.0131 53.0924 72.9492 60.1562C70.5717 62.2559 67.9023 63.8508 64.9414 64.9414C62.0861 65.6143 59.1889 66.0049 56.25 66.1133C53.8787 65.9406 51.5674 65.485 49.3164 64.7461C42.2852 62.2721 37.5326 57.5195 35.0586 50.4883C36.9783 48.1459 39.485 46.974 42.5781 46.9727C44.91 46.9904 47.0258 47.674 48.9258 49.0234C52.2768 52.6932 56.3131 53.735 61.0352 52.1484C62.1088 51.71 63.0854 51.124 63.9648 50.3906C64.3484 50.1072 64.6088 49.7492 64.7461 49.3164C71.7166 42.5738 78.5201 35.6727 85.1562 28.6133C87.3225 24.4303 86.9969 20.459 84.1797 16.6992C79.6854 12.4705 74.9002 12.1124 69.8242 15.625C63.3396 22.0771 56.8943 28.5549 50.4883 35.0586C45.3631 33.3242 40.2199 33.259 35.0586 34.8633C35.9822 31.8438 37.5123 29.1744 39.6484 26.8555C46.7123 19.7916 53.776 12.7279 60.8398 5.66406C64.5451 2.57434 68.7768 0.653762 73.5352 -0.0976562Z" fill="#4E9A5F"/>
<path opacity="0.986" fill-rule="evenodd" clip-rule="evenodd" d="M50.4883 35.0586C57.5195 37.5326 62.2721 42.2852 64.7461 49.3164C64.6088 49.7492 64.3484 50.1072 63.9648 50.3906C63.0854 51.124 62.1088 51.71 61.0352 52.1484C56.3131 53.735 52.2768 52.6932 48.9258 49.0234C47.0258 47.674 44.91 46.9904 42.5781 46.9727C39.485 46.974 36.9783 48.1459 35.0586 50.4883C28.0881 57.2309 21.2846 64.132 14.6484 71.1914C12.4822 75.3744 12.8077 79.3457 15.625 83.1055C19.4611 86.8426 23.7906 87.5262 28.6133 85.1562C35.6727 78.5201 42.5738 71.7166 49.3164 64.7461C51.5674 65.485 53.8787 65.9406 56.25 66.1133C59.1889 66.0049 62.0861 65.6143 64.9414 64.9414C63.8453 67.9158 62.2502 70.5852 60.1562 72.9492C53.0924 80.0131 46.0287 87.0768 38.9648 94.1406C35.2596 97.2303 31.0279 99.151 26.2695 99.9023C24.3164 99.9023 22.3633 99.9023 20.4102 99.9023C8.95182 97.6889 2.11588 90.8529 -0.0976562 79.3945C-0.0976562 77.4414 -0.0976562 75.4883 -0.0976562 73.5352C0.653762 68.7768 2.57434 64.5451 5.66406 60.8398C12.7279 53.776 19.7916 46.7123 26.8555 39.6484C29.2607 37.5014 31.9951 35.9063 35.0586 34.8633C40.2199 33.259 45.3631 33.3242 50.4883 35.0586Z" fill="#3D8244"/>
</g>
<defs>
<clipPath id="clip0_2588_361">
<rect width="100" height="100" fill="white"/>
</clipPath>
</defs>
</svg>
