<svg width="100" height="101" viewBox="0 0 100 101" fill="none" xmlns="http://www.w3.org/2000/svg">
<g clip-path="url(#clip0_2588_4090)">
<path opacity="0.999" fill-rule="evenodd" clip-rule="evenodd" d="M5.17578 7.71338C34.9936 7.71338 64.8111 7.71338 94.6289 7.71338C97.3633 7.97062 99.1211 8.5494 99.9023 9.44973C99.9023 10.7574 99.9023 12.065 99.9023 13.3726C82.8449 13.3833 65.7877 13.3726 48.7305 13.3405C47.7865 13.2011 47.1029 12.976 46.6797 12.6652C46.4896 11.9783 46.2943 11.2923 46.0938 10.6073C45.5391 10.2533 44.6602 10.0497 43.457 9.99636C28.9389 9.96421 14.4207 9.95349 -0.0976562 9.96421C-0.0976562 9.79271 -0.0976562 9.62123 -0.0976562 9.44973C0.683594 8.5494 2.44141 7.97062 5.17578 7.71338Z" fill="#6D8C44"/>
<path fill-rule="evenodd" clip-rule="evenodd" d="M-0.0976562 9.96398C14.4207 9.95326 28.9389 9.96398 43.457 9.99614C44.6602 10.0495 45.5391 10.2531 46.0938 10.6071C46.2943 11.2921 46.4896 11.9781 46.6797 12.665C47.1029 12.9758 47.7865 13.2009 48.7305 13.3402C65.7877 13.3724 82.8449 13.3831 99.9023 13.3724C99.9023 14.1441 99.9023 14.9158 99.9023 15.6875C66.5689 15.6875 33.2357 15.6875 -0.0976562 15.6875C-0.0976562 13.7797 -0.0976562 11.8718 -0.0976562 9.96398Z" fill="#6D8C44"/>
<path fill-rule="evenodd" clip-rule="evenodd" d="M-0.0976562 15.5901C33.2357 15.5901 66.5689 15.5901 99.9023 15.5901C99.9023 39.0926 99.9023 62.5954 99.9023 86.0979C99.1211 88.8323 97.3633 90.5901 94.6289 91.3713C64.8111 91.3713 34.9936 91.3713 5.17578 91.3713C2.44141 90.5901 0.683594 88.8323 -0.0976562 86.0979C-0.0976562 62.5954 -0.0976562 39.0926 -0.0976562 15.5901Z" fill="#DFEDD4"/>
<path fill-rule="evenodd" clip-rule="evenodd" d="M41.3086 24.1836C41.3086 32.1914 41.3086 40.1992 41.3086 48.2071C33.9516 48.2397 26.5947 48.2071 19.2383 48.1094C16.8283 47.2311 15.5262 45.5057 15.332 42.9336C15.3645 41.5649 15.332 40.1977 15.2344 38.8321C14.1927 37.5299 13.151 37.5299 12.1094 38.8321C12.0741 39.4561 11.9765 40.042 11.8164 40.5899C10.4603 39.7151 9.09309 38.8362 7.71485 37.9532C6.41276 36.7813 6.41276 35.6094 7.71485 34.4375C9.08756 33.5565 10.4548 32.6776 11.8164 31.8008C11.976 32.283 12.0737 32.8037 12.1094 33.3633C13.0518 34.8401 14.0935 34.9051 15.2344 33.5586C15.332 32.193 15.3645 30.8258 15.332 29.4571C15.524 26.8914 16.8261 25.166 19.2383 24.2813C26.5947 24.1836 33.9516 24.151 41.3086 24.1836Z" fill="#6D8C44"/>
<path fill-rule="evenodd" clip-rule="evenodd" d="M41.3086 24.1836C54.3947 24.151 67.4807 24.1836 80.5664 24.2813C82.3385 24.8162 83.543 25.9557 84.1797 27.6992C84.4008 30.4885 84.4984 33.2881 84.4726 36.0977C84.44 38.6367 84.4076 41.1758 84.375 43.7149C84.0086 45.969 82.7391 47.4338 80.5664 48.1094C67.4807 48.2071 54.3947 48.2397 41.3086 48.2071C41.3086 40.1992 41.3086 32.1914 41.3086 24.1836Z" fill="#88B367"/>
<path fill-rule="evenodd" clip-rule="evenodd" d="M15.332 29.4573C15.3645 30.826 15.332 32.1932 15.2344 33.5588C14.0935 34.9053 13.0518 34.8403 12.1094 33.3635C12.0737 32.804 11.976 32.2833 11.8164 31.801C12.9195 30.9235 14.0913 30.1422 15.332 29.4573Z" fill="#6D8C44"/>
<path fill-rule="evenodd" clip-rule="evenodd" d="M25.488 29.2618C29.1285 29.0778 31.5048 30.7054 32.617 34.1446C32.7123 35.7132 32.7123 37.2757 32.617 38.8321C33.2103 39.3601 33.7312 39.946 34.1795 40.5899C34.4783 42.2434 33.7947 43.0571 32.1287 43.0313C31.5732 42.6054 31.0197 42.1823 30.4685 41.7618C27.2005 43.8854 24.2709 43.4948 21.6795 40.5899C21.2461 39.8534 20.9207 39.0722 20.7029 38.2462C19.9113 35.0882 20.7252 32.4515 23.1443 30.336C23.9218 29.9138 24.7031 29.5558 25.488 29.2618Z" fill="#DFEDD4"/>
<path fill-rule="evenodd" clip-rule="evenodd" d="M47.5579 31.0196C51.9204 30.9869 56.2823 31.0196 60.6438 31.1172C62.0626 31.6955 62.3556 32.6395 61.5227 33.9492C61.2456 34.1367 60.9526 34.2994 60.6438 34.4375C56.347 34.5678 52.0501 34.5678 47.7532 34.4375C46.0249 33.3838 45.9598 32.2444 47.5579 31.0196Z" fill="#6D8C44"/>
<path fill-rule="evenodd" clip-rule="evenodd" d="M25.6836 32.7774C28.2268 32.5862 29.3987 33.7581 29.1993 36.2931C27.8989 36.4163 27.3456 37.1325 27.5391 38.4415C27.6299 38.721 27.7928 38.9487 28.0274 39.1251C26.2895 40.0847 25.02 39.6614 24.2188 37.8556C24.0885 36.6837 24.0885 35.5118 24.2188 34.3399C24.6149 33.7165 25.1032 33.1956 25.6836 32.7774Z" fill="#6D8C44"/>
<path fill-rule="evenodd" clip-rule="evenodd" d="M15.332 42.9339C14.0913 42.2489 12.9195 41.4677 11.8164 40.5901C11.9765 40.0423 12.0741 39.4564 12.1094 38.8323C13.151 37.5302 14.1927 37.5302 15.2344 38.8323C15.332 40.198 15.3645 41.5651 15.332 42.9339Z" fill="#6D8C44"/>
<path fill-rule="evenodd" clip-rule="evenodd" d="M47.7537 37.8555C57.1939 37.8229 66.6341 37.8555 76.074 37.9532C77.4888 38.494 77.8144 39.4379 77.0505 40.7852C76.823 40.9969 76.5626 41.1596 76.2693 41.2735C66.699 41.4037 57.1287 41.4037 47.5583 41.2735C45.9857 40.0508 46.0509 38.9114 47.7537 37.8555Z" fill="#6D8C44"/>
<path fill-rule="evenodd" clip-rule="evenodd" d="M19.8242 56.9963C26.3998 56.9963 32.9752 56.9963 39.5508 56.9963C39.5508 65.0042 39.5508 73.012 39.5508 81.0198C32.8447 81.0524 26.1391 81.0198 19.4336 80.9221C17.272 80.2129 15.9373 78.7481 15.4297 76.5276C15.2995 71.3844 15.2995 66.2411 15.4297 61.0979C16.0565 58.8104 17.5213 57.4432 19.8242 56.9963Z" fill="#6D8C44"/>
<path fill-rule="evenodd" clip-rule="evenodd" d="M19.8242 56.9962C39.8436 56.7685 59.8957 56.7358 79.9805 56.8985C82.7768 57.6423 84.3393 59.4325 84.668 62.2696C84.4426 63.5366 84.41 64.8388 84.5703 66.1759C85.0459 67.0985 85.7947 67.3915 86.8164 67.0548C87.0959 66.964 87.3236 66.8011 87.5 66.5665C87.7611 65.8778 87.8588 65.1618 87.793 64.4181C89.533 65.4681 91.1932 66.6399 92.7734 67.9337C93.2664 69.0409 93.0387 69.9849 92.0899 70.7657C90.6275 71.6765 89.1953 72.6204 87.793 73.5978C88.159 71.6554 87.3777 70.7112 85.4492 70.7657C85.0449 70.9509 84.752 71.2438 84.5703 71.6446C84.4727 73.0103 84.4402 74.3774 84.4727 75.7462C84.2334 78.3622 82.8662 80.0874 80.3711 80.922C66.7645 81.0196 53.1576 81.0522 39.5508 81.0196C39.5508 73.0118 39.5508 65.004 39.5508 56.9962C32.9752 56.9962 26.3998 56.9962 19.8242 56.9962Z" fill="#88B367"/>
<path fill-rule="evenodd" clip-rule="evenodd" d="M25.2922 62.0744C29.069 61.731 31.5104 63.3588 32.6164 66.9572C32.7467 69.4963 32.7467 72.0353 32.6164 74.5744C32.4826 75.0738 32.1897 75.432 31.7375 75.6486C31.061 75.8082 30.4098 75.743 29.7844 75.4533C29.5123 75.2246 29.3494 74.9316 29.2961 74.5744C29.1987 73.8611 29.1662 73.1451 29.1985 72.426C27.5057 72.426 25.8131 72.426 24.1203 72.426C24.367 73.6986 24.0414 74.7728 23.1438 75.6486C22.2983 75.8734 21.5496 75.7107 20.8977 75.1603C20.5823 72.3742 20.5172 69.5748 20.7024 66.7619C21.4352 64.3982 22.9651 62.8357 25.2922 62.0744Z" fill="#DFEDD4"/>
<path fill-rule="evenodd" clip-rule="evenodd" d="M84.6683 62.2698C85.7851 62.892 86.8269 63.6081 87.7933 64.4182C87.8591 65.162 87.7615 65.878 87.5003 66.5667C87.324 66.8012 87.0962 66.9641 86.8167 67.0549C85.7951 67.3917 85.0462 67.0987 84.5707 66.176C84.4103 64.8389 84.4429 63.5368 84.6683 62.2698Z" fill="#88B367"/>
<path fill-rule="evenodd" clip-rule="evenodd" d="M47.3634 63.8321C51.856 63.7994 56.3482 63.8321 60.84 63.9297C62.3167 64.8721 62.3818 65.9139 61.0353 67.0547C56.4781 67.185 51.9207 67.185 47.3634 67.0547C46.0742 65.9813 46.0742 64.9071 47.3634 63.8321Z" fill="#6D8C44"/>
<path fill-rule="evenodd" clip-rule="evenodd" d="M25.6833 65.5899C28.1206 65.3581 29.2924 66.4647 29.1989 68.9102C27.5061 68.9102 25.8135 68.9102 24.1208 68.9102C23.8627 67.4091 24.3834 66.3024 25.6833 65.5899Z" fill="#6D8C44"/>
<path fill-rule="evenodd" clip-rule="evenodd" d="M47.5579 70.668C57.1284 70.6354 66.6987 70.668 76.2688 70.7657C77.4493 71.3383 77.7423 72.2172 77.1477 73.4024C76.8901 73.7905 76.5321 74.0184 76.0735 74.086C66.6335 74.2162 57.1932 74.2162 47.7532 74.086C46.0249 73.0322 45.9598 71.8928 47.5579 70.668Z" fill="#6D8C44"/>
<path fill-rule="evenodd" clip-rule="evenodd" d="M87.7934 73.5977C86.72 74.3625 85.6131 75.0785 84.4731 75.7461C84.4407 74.3774 84.4731 73.0102 84.5707 71.6446C84.7524 71.2438 85.0454 70.9508 85.4497 70.7657C87.3782 70.7112 88.1594 71.6553 87.7934 73.5977Z" fill="#88B367"/>
</g>
<defs>
<clipPath id="clip0_2588_4090">
<rect width="100" height="100" fill="white" transform="translate(0 0.521484)"/>
</clipPath>
</defs>
</svg>
