<svg width="100" height="100" viewBox="0 0 100 100" fill="none" xmlns="http://www.w3.org/2000/svg">
<g clip-path="url(#clip0_2588_577)">
<path opacity="0.999" fill-rule="evenodd" clip-rule="evenodd" d="M52.832 49.9023C41.8295 49.9023 30.8268 49.9023 19.8242 49.9023C19.8889 55.7951 19.8238 61.6545 19.6289 67.4805C13.639 67.5131 7.64939 67.4805 1.66016 67.3828C0.842736 67.0531 0.256799 66.4998 -0.0976562 65.7226C-0.0976562 60.4492 -0.0976562 55.1758 -0.0976562 49.9023C6.47787 49.9023 13.0534 49.9023 19.6289 49.9023C19.6289 44.043 19.6289 38.1836 19.6289 32.3242C29.1641 25.5592 38.7344 18.8209 48.3398 12.1094C50.2633 11.3331 51.7281 11.8213 52.7344 13.5742C52.832 25.6834 52.8646 37.7928 52.832 49.9023Z" fill="#3D8244"/>
<path opacity="0.996" fill-rule="evenodd" clip-rule="evenodd" d="M76.2691 49.9024C74.3159 49.9024 72.3628 49.9024 70.4097 49.9024C70.3771 42.6754 70.4097 35.4489 70.5074 28.2227C71.5136 26.4698 72.9784 25.9815 74.9019 26.7578C75.4825 27.1026 75.9058 27.5909 76.1714 28.2227C76.2691 35.4489 76.3017 42.6754 76.2691 49.9024Z" fill="#4E9A5F"/>
<path fill-rule="evenodd" clip-rule="evenodd" d="M19.6289 32.3242C19.6289 38.1836 19.6289 44.043 19.6289 49.9024C13.0534 49.9024 6.47787 49.9024 -0.0976562 49.9024C-0.0976562 44.6289 -0.0976562 39.3555 -0.0976562 34.0821C0.256799 33.3049 0.842736 32.7516 1.66016 32.4219C7.64939 32.3242 13.639 32.2916 19.6289 32.3242Z" fill="#4E9A5F"/>
<path opacity="0.995" fill-rule="evenodd" clip-rule="evenodd" d="M99.9019 34.0821C99.9019 39.3555 99.9019 44.6289 99.9019 49.9024C97.9488 49.9024 95.9956 49.9024 94.0425 49.9024C94.0099 44.6286 94.0425 39.3551 94.1402 34.0821C95.1464 32.3291 96.6113 31.8409 98.5347 32.6172C99.1034 33.0108 99.5591 33.4991 99.9019 34.0821Z" fill="#4E9A5F"/>
<path opacity="0.993" fill-rule="evenodd" clip-rule="evenodd" d="M87.9878 49.9024C86.0347 49.9024 84.0816 49.9024 82.1284 49.9024C82.0958 46.5815 82.1284 43.2612 82.2261 39.9414C83.2324 38.1885 84.6972 37.7002 86.6206 38.4766C87.2013 38.8213 87.6245 39.3096 87.8902 39.9414C87.9878 43.2612 88.0204 46.5815 87.9878 49.9024Z" fill="#4E9A5F"/>
<path opacity="0.99" fill-rule="evenodd" clip-rule="evenodd" d="M64.5503 49.9024C62.5972 49.9024 60.6441 49.9024 58.6909 49.9024C58.6583 47.5577 58.6909 45.2139 58.7886 42.8711C59.7949 41.1182 61.2597 40.6299 63.1831 41.4063C63.7638 41.751 64.187 42.2393 64.4527 42.8711C64.5503 45.2139 64.5829 47.5577 64.5503 49.9024Z" fill="#4E9A5F"/>
<path fill-rule="evenodd" clip-rule="evenodd" d="M52.832 49.9023C52.8647 62.0119 52.832 74.1213 52.7344 86.2305C51.7281 87.9834 50.2633 88.4717 48.3399 87.6953C38.7344 80.9838 29.1641 74.2455 19.6289 67.4805C19.8238 61.6545 19.8889 55.7951 19.8242 49.9023C30.8268 49.9023 41.8295 49.9023 52.832 49.9023Z" fill="#1F612D"/>
<path fill-rule="evenodd" clip-rule="evenodd" d="M58.6909 49.9023C60.6441 49.9023 62.5972 49.9023 64.5503 49.9023C64.5829 52.2471 64.5503 54.5908 64.4527 56.9336C63.4464 58.6865 61.9816 59.1748 60.0581 58.3984C59.4775 58.0537 59.0542 57.5654 58.7886 56.9336C58.6909 54.5908 58.6583 52.2471 58.6909 49.9023Z" fill="#3D8244"/>
<path fill-rule="evenodd" clip-rule="evenodd" d="M70.4097 49.9023C72.3628 49.9023 74.3159 49.9023 76.2691 49.9023C76.3017 57.1293 76.2691 64.3559 76.1714 71.582C75.1652 73.335 73.7003 73.8232 71.7769 73.0469C71.1962 72.7021 70.773 72.2139 70.5074 71.582C70.4097 64.3559 70.3771 57.1293 70.4097 49.9023Z" fill="#3D8244"/>
<path fill-rule="evenodd" clip-rule="evenodd" d="M82.1284 49.9023C84.0816 49.9023 86.0347 49.9023 87.9878 49.9023C88.0204 53.2232 87.9878 56.5436 87.8902 59.8633C86.8839 61.6162 85.4191 62.1045 83.4956 61.3281C82.915 60.9834 82.4917 60.4951 82.2261 59.8633C82.1284 56.5436 82.0958 53.2232 82.1284 49.9023Z" fill="#3D8244"/>
<path fill-rule="evenodd" clip-rule="evenodd" d="M94.0425 49.9023C95.9956 49.9023 97.9488 49.9023 99.9019 49.9023C99.9019 55.1758 99.9019 60.4492 99.9019 65.7227C98.8585 67.4715 97.3613 67.9598 95.4097 67.1875C94.829 66.8428 94.4058 66.3545 94.1402 65.7227C94.0425 60.4496 94.0099 55.1762 94.0425 49.9023Z" fill="#3D8244"/>
</g>
<defs>
<clipPath id="clip0_2588_577">
<rect width="100" height="100" fill="white"/>
</clipPath>
</defs>
</svg>
