<svg width="81" height="137" viewBox="0 0 81 137" fill="none" xmlns="http://www.w3.org/2000/svg">
<g filter="url(#filter0_d_877:564)">
<path d="M18.3171 32.9743L56.2788 9.6463L79.3369 24.6672V91.408L18.3171 128.164V32.9743Z" fill="#FDECC9"/>
<path d="M18.3181 33.0884L15 31.3246V67.9666L18.3181 69.7304V33.0884Z" fill="#D1993F"/>
<path d="M15 66.373V126.514L18.3181 128.164V68.08L15 66.373Z" fill="#FCCF7E"/>
<path d="M26.5286 73.9976L67.9208 49.7023V88.3926L26.5286 112.859V73.9976Z" fill="#FDECC9" stroke="#754F17" stroke-width="0.25" stroke-miterlimit="10"/>
<path d="M26.5286 80.7681L67.9208 56.416V63.4143L26.5286 87.5958" fill="#FCCF7E"/>
<path d="M26.5286 80.7681L67.9208 56.416V63.4143L26.5286 87.5958" stroke="#754F17" stroke-width="0.15" stroke-miterlimit="10"/>
<path d="M26.5286 92.887L67.9208 68.5917V75.5332L26.5286 99.7147" fill="#FCCF7E"/>
<path d="M26.5286 92.887L67.9208 68.5917V75.5332L26.5286 99.7147" stroke="#754F17" stroke-width="0.15" stroke-miterlimit="10"/>
<path d="M26.5286 106.429L67.9208 82.0768V89.0752L26.5286 113.257" fill="#FCCF7E"/>
<path d="M26.5286 106.429L67.9208 82.0768V89.0752L26.5286 113.257" stroke="#754F17" stroke-width="0.15" stroke-miterlimit="10"/>
<path d="M34.178 83.1014V88.3929L54.5367 76.4444V71.2098L34.178 83.1014Z" fill="#D1993F" stroke="#754F17" stroke-width="0.15" stroke-miterlimit="10"/>
<path d="M34.178 95.2769V101.934L54.5367 89.9855V83.3854L34.178 95.2769Z" fill="#D1993F" stroke="#754F17" stroke-width="0.15" stroke-miterlimit="10"/>
<path d="M18.3171 31.9501V68.08L79.3369 31.7225V25.0655L56.2788 9.6463L18.3171 31.9501Z" fill="#FCCF7E"/>
<path d="M56.2793 9.6463V36.3312L79.3375 24.6672L56.2793 9.6463Z" fill="#D1993F"/>
<path d="M54.3674 34.6812L56.0546 36.3312V9.6463C56.0546 9.6463 54.3674 8.16697 54.3674 8.67904V34.6812Z" fill="#754F17"/>
<path d="M15 31.3238L54.5926 8.90619L56.2798 11.2959L18.3181 32.9738" fill="#D1993F"/>
</g>
<defs>
<filter id="filter0_d_877:564" x="0" y="0.571289" width="80.3374" height="135.592" filterUnits="userSpaceOnUse" color-interpolation-filters="sRGB">
<feFlood flood-opacity="0" result="BackgroundImageFix"/>
<feColorMatrix in="SourceAlpha" type="matrix" values="0 0 0 0 0 0 0 0 0 0 0 0 0 0 0 0 0 0 127 0" result="hardAlpha"/>
<feOffset dx="-7"/>
<feGaussianBlur stdDeviation="4"/>
<feComposite in2="hardAlpha" operator="out"/>
<feColorMatrix type="matrix" values="0 0 0 0 0 0 0 0 0 0 0 0 0 0 0 0 0 0 0.25 0"/>
<feBlend mode="normal" in2="BackgroundImageFix" result="effect1_dropShadow_877:564"/>
<feBlend mode="normal" in="SourceGraphic" in2="effect1_dropShadow_877:564" result="shape"/>
</filter>
</defs>
</svg>
