<svg width="100" height="100" viewBox="0 0 100 100" fill="none" xmlns="http://www.w3.org/2000/svg">
<g clip-path="url(#clip0_2588_156)">
<path opacity="0.999" fill-rule="evenodd" clip-rule="evenodd" d="M5.17578 7.19189C34.9936 7.19189 64.8111 7.19189 94.6289 7.19189C97.3633 7.44913 99.1211 8.02792 99.9023 8.92825C99.9023 10.2359 99.9023 11.5435 99.9023 12.8511C82.8449 12.8618 65.7877 12.8511 48.7305 12.819C47.7865 12.6796 47.1029 12.4545 46.6797 12.1437C46.4896 11.4568 46.2943 10.7708 46.0938 10.0858C45.5391 9.73186 44.6602 9.52821 43.457 9.47488C28.9389 9.44272 14.4207 9.432 -0.0976562 9.44272C-0.0976562 9.27123 -0.0976562 9.09974 -0.0976562 8.92825C0.683594 8.02792 2.44141 7.44913 5.17578 7.19189Z" fill="#3D8244"/>
<path fill-rule="evenodd" clip-rule="evenodd" d="M-0.0976562 9.4425C14.4207 9.43178 28.9389 9.4425 43.457 9.47465C44.6602 9.52798 45.5391 9.73163 46.0938 10.0856C46.2943 10.7706 46.4896 11.4566 46.6797 12.1435C47.1029 12.4543 47.7865 12.6794 48.7305 12.8187C65.7877 12.8509 82.8449 12.8616 99.9023 12.8509C99.9023 13.6226 99.9023 14.3943 99.9023 15.166C66.5689 15.166 33.2357 15.166 -0.0976562 15.166C-0.0976562 13.2582 -0.0976562 11.3503 -0.0976562 9.4425Z" fill="#3D8244"/>
<path fill-rule="evenodd" clip-rule="evenodd" d="M-0.0976562 15.0686C33.2357 15.0686 66.5689 15.0686 99.9023 15.0686C99.9023 38.5711 99.9023 62.0739 99.9023 85.5764C99.1211 88.3108 97.3633 90.0686 94.6289 90.8499C64.8111 90.8499 34.9936 90.8499 5.17578 90.8499C2.44141 90.0686 0.683594 88.3108 -0.0976562 85.5764C-0.0976562 62.0739 -0.0976562 38.5711 -0.0976562 15.0686Z" fill="#CEE4BD"/>
<path fill-rule="evenodd" clip-rule="evenodd" d="M41.3086 23.6621C41.3086 31.6699 41.3086 39.6778 41.3086 47.6856C33.9516 47.7182 26.5947 47.6856 19.2383 47.5879C16.8283 46.7096 15.5262 44.9842 15.332 42.4121C15.3645 41.0434 15.332 39.6762 15.2344 38.3106C14.1927 37.0084 13.151 37.0084 12.1094 38.3106C12.0741 38.9346 11.9765 39.5205 11.8164 40.0684C10.4603 39.1936 9.09309 38.3147 7.71485 37.4317C6.41276 36.2598 6.41276 35.0879 7.71485 33.916C9.08756 33.035 10.4548 32.1561 11.8164 31.2793C11.976 31.7615 12.0737 32.2823 12.1094 32.8418C13.0518 34.3186 14.0935 34.3836 15.2344 33.0371C15.332 31.6715 15.3645 30.3043 15.332 28.9356C15.524 26.3699 16.8261 24.6446 19.2383 23.7598C26.5947 23.6621 33.9516 23.6295 41.3086 23.6621Z" fill="#3D8244"/>
<path fill-rule="evenodd" clip-rule="evenodd" d="M41.3086 23.6621C54.3947 23.6295 67.4807 23.6621 80.5664 23.7598C82.3385 24.2948 83.543 25.4342 84.1797 27.1778C84.4008 29.967 84.4984 32.7666 84.4726 35.5762C84.44 38.1153 84.4076 40.6543 84.375 43.1934C84.0086 45.4475 82.7391 46.9123 80.5664 47.5879C67.4807 47.6856 54.3947 47.7182 41.3086 47.6856C41.3086 39.6778 41.3086 31.6699 41.3086 23.6621Z" fill="#4E9A5F"/>
<path fill-rule="evenodd" clip-rule="evenodd" d="M15.332 28.9358C15.3645 30.3045 15.332 31.6717 15.2344 33.0374C14.0935 34.3838 13.0518 34.3188 12.1094 32.842C12.0737 32.2825 11.976 31.7618 11.8164 31.2795C12.9195 30.402 14.0913 29.6208 15.332 28.9358Z" fill="#3D8244"/>
<path fill-rule="evenodd" clip-rule="evenodd" d="M25.488 28.7403C29.1285 28.5563 31.5048 30.1839 32.617 33.6231C32.7123 35.1917 32.7123 36.7542 32.617 38.3106C33.2103 38.8386 33.7312 39.4245 34.1795 40.0684C34.4783 41.722 33.7947 42.5356 32.1287 42.5099C31.5732 42.0839 31.0197 41.6608 30.4685 41.2403C27.2005 43.364 24.2709 42.9733 21.6795 40.0684C21.2461 39.3319 20.9207 38.5507 20.7029 37.7247C19.9113 34.5667 20.7252 31.93 23.1443 29.8146C23.9218 29.3923 24.7031 29.0343 25.488 28.7403Z" fill="#CEE4BD"/>
<path fill-rule="evenodd" clip-rule="evenodd" d="M47.5589 30.4981C51.9214 30.4655 56.2833 30.4981 60.6448 30.5957C62.0636 31.1741 62.3565 32.118 61.5237 33.4278C61.2466 33.6153 60.9536 33.778 60.6448 33.916C56.3479 34.0463 52.0511 34.0463 47.7542 33.916C46.0259 32.8623 45.9608 31.7229 47.5589 30.4981Z" fill="#3D8244"/>
<path fill-rule="evenodd" clip-rule="evenodd" d="M25.6836 32.256C28.2268 32.0647 29.3987 33.2366 29.1993 35.7716C27.8989 35.8948 27.3456 36.611 27.5391 37.92C27.6299 38.1995 27.7928 38.4273 28.0274 38.6036C26.2895 39.5632 25.02 39.14 24.2188 37.3341C24.0885 36.1622 24.0885 34.9903 24.2188 33.8185C24.6149 33.195 25.1032 32.6741 25.6836 32.256Z" fill="#3D8244"/>
<path fill-rule="evenodd" clip-rule="evenodd" d="M15.332 42.4124C14.0913 41.7274 12.9195 40.9462 11.8164 40.0687C11.9765 39.5208 12.0741 38.9349 12.1094 38.3108C13.151 37.0087 14.1927 37.0087 15.2344 38.3108C15.332 39.6765 15.3645 41.0437 15.332 42.4124Z" fill="#3D8244"/>
<path fill-rule="evenodd" clip-rule="evenodd" d="M47.7537 37.334C57.1939 37.3014 66.6341 37.334 76.074 37.4317C77.4888 37.9725 77.8144 38.9164 77.0505 40.2637C76.823 40.4754 76.5626 40.6381 76.2693 40.752C66.699 40.8823 57.1287 40.8823 47.5583 40.752C45.9857 39.5293 46.0509 38.3899 47.7537 37.334Z" fill="#3D8244"/>
<path fill-rule="evenodd" clip-rule="evenodd" d="M19.8242 56.4749C26.3998 56.4749 32.9752 56.4749 39.5508 56.4749C39.5508 64.4827 39.5508 72.4905 39.5508 80.4983C32.8447 80.5309 26.1391 80.4983 19.4336 80.4006C17.272 79.6915 15.9373 78.2266 15.4297 76.0061C15.2995 70.8629 15.2995 65.7196 15.4297 60.5764C16.0565 58.2889 17.5213 56.9217 19.8242 56.4749Z" fill="#3D8244"/>
<path fill-rule="evenodd" clip-rule="evenodd" d="M19.8242 56.4747C39.8436 56.247 59.8957 56.2144 79.9805 56.377C82.7768 57.1208 84.3393 58.911 84.668 61.7481C84.4426 63.0151 84.41 64.3173 84.5703 65.6544C85.0459 66.577 85.7947 66.87 86.8164 66.5333C87.0959 66.4425 87.3236 66.2796 87.5 66.045C87.7611 65.3563 87.8588 64.6403 87.793 63.8966C89.533 64.9466 91.1932 66.1185 92.7734 67.4122C93.2664 68.5194 93.0387 69.4634 92.0899 70.2442C90.6275 71.155 89.1953 72.0989 87.793 73.0763C88.159 71.1339 87.3777 70.1897 85.4492 70.2442C85.0449 70.4294 84.752 70.7224 84.5703 71.1231C84.4727 72.4888 84.4402 73.856 84.4727 75.2247C84.2334 77.8407 82.8662 79.5659 80.3711 80.4005C66.7645 80.4981 53.1576 80.5308 39.5508 80.4981C39.5508 72.4903 39.5508 64.4825 39.5508 56.4747C32.9752 56.4747 26.3998 56.4747 19.8242 56.4747Z" fill="#4E9A5F"/>
<path fill-rule="evenodd" clip-rule="evenodd" d="M25.2932 61.5529C29.0699 61.2096 31.5114 62.8373 32.6174 66.4357C32.7477 68.9748 32.7477 71.5139 32.6174 74.0529C32.4836 74.5523 32.1907 74.9105 31.7385 75.1271C31.0619 75.2867 30.4108 75.2215 29.7854 74.9318C29.5133 74.7031 29.3504 74.4101 29.2971 74.0529C29.1996 73.3396 29.1672 72.6236 29.1994 71.9045C27.5067 71.9045 25.8141 71.9045 24.1213 71.9045C24.368 73.1771 24.0424 74.2514 23.1448 75.1271C22.2992 75.3519 21.5506 75.1892 20.8987 74.6389C20.5832 71.8527 20.5182 69.0533 20.7033 66.2404C21.4362 63.8767 22.966 62.3142 25.2932 61.5529Z" fill="#CEE4BD"/>
<path fill-rule="evenodd" clip-rule="evenodd" d="M84.6683 61.7483C85.7851 62.3706 86.8269 63.0866 87.7933 63.8967C87.8591 64.6405 87.7615 65.3565 87.5003 66.0452C87.324 66.2797 87.0962 66.4426 86.8167 66.5335C85.7951 66.8702 85.0462 66.5772 84.5707 65.6545C84.4103 64.3174 84.4429 63.0153 84.6683 61.7483Z" fill="#4E9A5F"/>
<path fill-rule="evenodd" clip-rule="evenodd" d="M47.3634 63.3106C51.856 63.278 56.3482 63.3106 60.84 63.4082C62.3167 64.3506 62.3818 65.3924 61.0353 66.5332C56.4781 66.6635 51.9207 66.6635 47.3634 66.5332C46.0742 65.4598 46.0742 64.3856 47.3634 63.3106Z" fill="#3D8244"/>
<path fill-rule="evenodd" clip-rule="evenodd" d="M25.6833 65.0684C28.1206 64.8366 29.2924 65.9433 29.1989 68.3888C27.5061 68.3888 25.8135 68.3888 24.1208 68.3888C23.8627 66.8876 24.3834 65.7809 25.6833 65.0684Z" fill="#3D8244"/>
<path fill-rule="evenodd" clip-rule="evenodd" d="M47.5589 70.1465C57.1294 70.1139 66.6997 70.1465 76.2698 70.2442C77.4503 70.8168 77.7433 71.6957 77.1487 72.8809C76.8911 73.269 76.5331 73.4969 76.0745 73.5645C66.6345 73.6947 57.1942 73.6947 47.7542 73.5645C46.0259 72.5108 45.9608 71.3713 47.5589 70.1465Z" fill="#3D8244"/>
<path fill-rule="evenodd" clip-rule="evenodd" d="M87.7934 73.0762C86.72 73.841 85.6131 74.5571 84.4731 75.2246C84.4407 73.8559 84.4731 72.4887 84.5707 71.1231C84.7524 70.7223 85.0454 70.4293 85.4497 70.2442C87.3782 70.1897 88.1594 71.1338 87.7934 73.0762Z" fill="#4E9A5F"/>
</g>
<defs>
<clipPath id="clip0_2588_156">
<rect width="100" height="100" fill="white"/>
</clipPath>
</defs>
</svg>
