<svg width="100" height="101" viewBox="0 0 100 101" fill="none" xmlns="http://www.w3.org/2000/svg">
<g clip-path="url(#clip0_2588_4181)">
<path opacity="0.998" fill-rule="evenodd" clip-rule="evenodd" d="M89.1602 17.0249C92.0477 18.0236 93.6102 20.0419 93.8477 23.0796C91.8295 23.0796 89.8111 23.0796 87.793 23.0796C60.5143 23.0796 33.2357 23.0796 5.95703 23.0796C5.95703 25.0978 5.95703 27.1161 5.95703 29.1343C5.95703 33.1708 5.95703 37.2071 5.95703 41.2437C2.87217 41.4491 0.853934 43.0116 -0.0976562 45.9312C-0.0976562 33.7567 -0.0976562 21.5821 -0.0976562 9.40772C0.663793 7.11708 2.22629 5.65223 4.58984 5.01319C15.332 4.88297 26.0742 4.88297 36.8164 5.01319C37.6051 5.18883 38.3213 5.51436 38.9648 5.98975C42.6107 9.63559 46.2564 13.2814 49.9023 16.9273C62.9881 17.0249 76.074 17.0575 89.1602 17.0249Z" fill="#6D8C44"/>
<path opacity="0.993" fill-rule="evenodd" clip-rule="evenodd" d="M89.1602 17.0249C91.2445 16.9924 93.3279 17.0249 95.4102 17.1225C97.6594 17.8421 99.1568 19.3069 99.9023 21.5171C99.9023 25.6186 99.9023 29.7202 99.9023 33.8218C98.9189 30.953 96.9008 29.3905 93.8477 29.1343C93.8477 29.0692 93.8477 29.004 93.8477 28.9389C93.8477 26.9858 93.8477 25.0327 93.8477 23.0796C93.6102 20.0418 92.0477 18.0236 89.1602 17.0249Z" fill="#6D8C44"/>
<path fill-rule="evenodd" clip-rule="evenodd" d="M87.793 23.0796C87.793 25.0327 87.793 26.9858 87.793 28.939C89.8111 28.939 91.8295 28.939 93.8477 28.939C93.8477 29.004 93.8477 29.0692 93.8477 29.1343C83.5611 29.1343 73.2748 29.1343 62.9883 29.1343C43.9779 29.1343 24.9674 29.1343 5.95703 29.1343C5.95703 27.1161 5.95703 25.0978 5.95703 23.0796C33.2357 23.0796 60.5143 23.0796 87.793 23.0796Z" fill="#DFEDD4"/>
<path fill-rule="evenodd" clip-rule="evenodd" d="M87.793 23.0796C89.8111 23.0796 91.8295 23.0796 93.8477 23.0796C93.8477 25.0327 93.8477 26.9858 93.8477 28.939C91.8295 28.939 89.8111 28.939 87.793 28.939C87.793 26.9858 87.793 25.0327 87.793 23.0796Z" fill="#DFEDD4"/>
<path fill-rule="evenodd" clip-rule="evenodd" d="M5.95703 29.1343C24.9674 29.1343 43.9779 29.1343 62.9883 29.1343C62.1941 29.4993 61.4129 29.9226 60.6445 30.4038C57.0639 33.9845 53.483 37.5653 49.9023 41.146C35.2541 41.2437 20.6057 41.2763 5.95703 41.2437C5.95703 37.2071 5.95703 33.1708 5.95703 29.1343Z" fill="#DFEDD4"/>
<path opacity="0.999" fill-rule="evenodd" clip-rule="evenodd" d="M62.9883 29.1343C73.2748 29.1343 83.5611 29.1343 93.8477 29.1343C93.8803 49.8376 93.8477 70.5407 93.75 91.2437C92.9453 93.6437 91.3504 95.2062 88.9649 95.9312C60.8398 95.9638 32.7148 95.9312 4.58984 95.8335C2.22629 95.1944 0.663793 93.7296 -0.0976562 91.439C-0.0976562 76.2696 -0.0976562 61.1005 -0.0976562 45.9312C0.853934 43.0116 2.87217 41.4491 5.95703 41.2437C20.6057 41.2763 35.2541 41.2437 49.9023 41.146C53.483 37.5653 57.0639 33.9845 60.6445 30.4038C61.4129 29.9226 62.1941 29.4993 62.9883 29.1343Z" fill="#88B367"/>
<path opacity="0.999" fill-rule="evenodd" clip-rule="evenodd" d="M93.8477 29.1343C96.9008 29.3905 98.9189 30.953 99.9023 33.8218C99.9023 53.0274 99.9023 72.2333 99.9023 91.439C99.2582 93.4188 97.9561 94.8187 95.9961 95.6382C93.6645 95.9146 91.3207 96.0122 88.9648 95.9312C91.3504 95.2062 92.9453 93.6437 93.75 91.2437C93.8477 70.5407 93.8803 49.8376 93.8477 29.1343Z" fill="#88B367"/>
</g>
<defs>
<clipPath id="clip0_2588_4181">
<rect width="100" height="100" fill="white" transform="translate(0 0.520996)"/>
</clipPath>
</defs>
</svg>
