<svg width="100" height="100" viewBox="0 0 100 100" fill="none" xmlns="http://www.w3.org/2000/svg">
<rect x="23" y="13" width="65" height="66" rx="5" fill="#DFEDD4"/>
<rect x="16" y="18" width="65" height="66" rx="5" fill="#6D8C44"/>
<path d="M24.376 62C24.2 62 24.056 61.944 23.944 61.832C23.832 61.72 23.776 61.576 23.776 61.4V45.8C23.776 45.624 23.832 45.48 23.944 45.368C24.056 45.256 24.2 45.2 24.376 45.2H26.992C27.168 45.2 27.312 45.256 27.424 45.368C27.536 45.48 27.592 45.624 27.592 45.8V51.8H34.096V45.8C34.096 45.624 34.152 45.48 34.264 45.368C34.376 45.256 34.52 45.2 34.696 45.2H37.312C37.488 45.2 37.632 45.256 37.744 45.368C37.856 45.48 37.912 45.624 37.912 45.8V61.4C37.912 61.576 37.856 61.72 37.744 61.832C37.632 61.944 37.488 62 37.312 62H34.696C34.52 62 34.376 61.944 34.264 61.832C34.152 61.72 34.096 61.576 34.096 61.4V55.208H27.592V61.4C27.592 61.576 27.536 61.72 27.424 61.832C27.312 61.944 27.168 62 26.992 62H24.376ZM49.7113 62.352C47.7913 62.352 46.1806 62.0427 44.8793 61.424C43.578 60.8053 42.586 59.9947 41.9033 58.992C41.242 57.9893 40.89 56.9227 40.8473 55.792C40.8473 55.6 40.9113 55.44 41.0393 55.312C41.1673 55.184 41.3273 55.12 41.5193 55.12H45.1353C45.3913 55.12 45.594 55.184 45.7433 55.312C45.914 55.4187 46.042 55.568 46.1273 55.76C46.3406 56.336 46.618 56.8053 46.9593 57.168C47.322 57.5307 47.738 57.7973 48.2073 57.968C48.6766 58.1387 49.178 58.224 49.7113 58.224C50.394 58.224 51.0233 58.0853 51.5993 57.808C52.1753 57.5093 52.634 57.0827 52.9753 56.528C53.3166 55.9733 53.4873 55.2907 53.4873 54.48C53.4873 53.776 53.3273 53.1573 53.0073 52.624C52.6873 52.0907 52.2393 51.6747 51.6633 51.376C51.0873 51.0773 50.4366 50.928 49.7113 50.928C49.1566 50.928 48.698 50.992 48.3353 51.12C47.994 51.248 47.706 51.408 47.4713 51.6C47.2366 51.7707 47.0233 51.9307 46.8313 52.08C46.6393 52.208 46.426 52.272 46.1913 52.272H42.6393C42.4473 52.272 42.2766 52.208 42.1273 52.08C41.9993 51.9307 41.9353 51.76 41.9353 51.568L43.0553 40.528C43.098 40.2293 43.2046 40.0053 43.3753 39.856C43.5673 39.6853 43.7913 39.6 44.0473 39.6H56.4633C56.698 39.6 56.89 39.6747 57.0393 39.824C57.1886 39.9733 57.2633 40.1653 57.2633 40.4V42.96C57.2633 43.1733 57.1886 43.3547 57.0393 43.504C56.89 43.6533 56.698 43.728 56.4633 43.728H47.2153L46.7353 48.432C47.162 48.1547 47.6846 47.9093 48.3033 47.696C48.9433 47.4613 49.8286 47.344 50.9593 47.344C51.9833 47.344 52.954 47.5147 53.8713 47.856C54.81 48.176 55.642 48.656 56.3673 49.296C57.0926 49.936 57.658 50.704 58.0633 51.6C58.49 52.4747 58.7033 53.4773 58.7033 54.608C58.7033 56.144 58.3406 57.4987 57.6153 58.672C56.89 59.824 55.8553 60.7307 54.5113 61.392C53.1673 62.032 51.5673 62.352 49.7113 62.352ZM62.2901 62C62.1141 62 61.9701 61.944 61.8581 61.832C61.7461 61.72 61.6901 61.576 61.6901 61.4V45.8C61.6901 45.624 61.7461 45.48 61.8581 45.368C61.9701 45.256 62.1141 45.2 62.2901 45.2H68.8421C70.1381 45.2 71.2581 45.4 72.2021 45.8C73.1621 46.2 73.9061 46.808 74.4341 47.624C74.9781 48.424 75.2501 49.424 75.2501 50.624C75.2501 51.84 74.9781 52.848 74.4341 53.648C73.9061 54.432 73.1621 55.016 72.2021 55.4C71.2581 55.784 70.1381 55.976 68.8421 55.976H65.6261V61.4C65.6261 61.576 65.5701 61.72 65.4581 61.832C65.3461 61.944 65.2021 62 65.0261 62H62.2901ZM65.5541 53H68.7221C69.5381 53 70.1701 52.8 70.6181 52.4C71.0821 52 71.3141 51.4 71.3141 50.6C71.3141 49.896 71.1061 49.32 70.6901 48.872C70.2901 48.424 69.6341 48.2 68.7221 48.2H65.5541V53Z" fill="#DFEDD4"/>
</svg>
