<svg width="100" height="100" viewBox="0 0 100 100" fill="none" xmlns="http://www.w3.org/2000/svg">
<rect x="9.72266" width="90.2778" height="92.9577" rx="5" fill="#CEE4BD"/>
<rect y="7.04248" width="90.2778" height="92.9577" rx="5" fill="#3D8244"/>
<path d="M19.376 65C19.2 65 19.056 64.944 18.944 64.832C18.832 64.72 18.776 64.576 18.776 64.4V48.8C18.776 48.624 18.832 48.48 18.944 48.368C19.056 48.256 19.2 48.2 19.376 48.2H21.992C22.168 48.2 22.312 48.256 22.424 48.368C22.536 48.48 22.592 48.624 22.592 48.8V54.8H29.096V48.8C29.096 48.624 29.152 48.48 29.264 48.368C29.376 48.256 29.52 48.2 29.696 48.2H32.312C32.488 48.2 32.632 48.256 32.744 48.368C32.856 48.48 32.912 48.624 32.912 48.8V64.4C32.912 64.576 32.856 64.72 32.744 64.832C32.632 64.944 32.488 65 32.312 65H29.696C29.52 65 29.376 64.944 29.264 64.832C29.152 64.72 29.096 64.576 29.096 64.4V58.208H22.592V64.4C22.592 64.576 22.536 64.72 22.424 64.832C22.312 64.944 22.168 65 21.992 65H19.376ZM44.7113 65.352C42.7913 65.352 41.1806 65.0427 39.8793 64.424C38.578 63.8053 37.586 62.9947 36.9033 61.992C36.242 60.9893 35.89 59.9227 35.8473 58.792C35.8473 58.6 35.9113 58.44 36.0393 58.312C36.1673 58.184 36.3273 58.12 36.5193 58.12H40.1353C40.3913 58.12 40.594 58.184 40.7433 58.312C40.914 58.4187 41.042 58.568 41.1273 58.76C41.3406 59.336 41.618 59.8053 41.9593 60.168C42.322 60.5307 42.738 60.7973 43.2073 60.968C43.6766 61.1387 44.178 61.224 44.7113 61.224C45.394 61.224 46.0233 61.0853 46.5993 60.808C47.1753 60.5093 47.634 60.0827 47.9753 59.528C48.3166 58.9733 48.4873 58.2907 48.4873 57.48C48.4873 56.776 48.3273 56.1573 48.0073 55.624C47.6873 55.0907 47.2393 54.6747 46.6633 54.376C46.0873 54.0773 45.4366 53.928 44.7113 53.928C44.1566 53.928 43.698 53.992 43.3353 54.12C42.994 54.248 42.706 54.408 42.4713 54.6C42.2366 54.7707 42.0233 54.9307 41.8313 55.08C41.6393 55.208 41.426 55.272 41.1913 55.272H37.6393C37.4473 55.272 37.2766 55.208 37.1273 55.08C36.9993 54.9307 36.9353 54.76 36.9353 54.568L38.0553 43.528C38.098 43.2293 38.2046 43.0053 38.3753 42.856C38.5673 42.6853 38.7913 42.6 39.0473 42.6H51.4633C51.698 42.6 51.89 42.6747 52.0393 42.824C52.1886 42.9733 52.2633 43.1653 52.2633 43.4V45.96C52.2633 46.1733 52.1886 46.3547 52.0393 46.504C51.89 46.6533 51.698 46.728 51.4633 46.728H42.2153L41.7353 51.432C42.162 51.1547 42.6846 50.9093 43.3033 50.696C43.9433 50.4613 44.8286 50.344 45.9593 50.344C46.9833 50.344 47.954 50.5147 48.8713 50.856C49.81 51.176 50.642 51.656 51.3673 52.296C52.0926 52.936 52.658 53.704 53.0633 54.6C53.49 55.4747 53.7033 56.4773 53.7033 57.608C53.7033 59.144 53.3406 60.4987 52.6153 61.672C51.89 62.824 50.8553 63.7307 49.5113 64.392C48.1673 65.032 46.5673 65.352 44.7113 65.352ZM57.2901 65C57.1141 65 56.9701 64.944 56.8581 64.832C56.7461 64.72 56.6901 64.576 56.6901 64.4V48.8C56.6901 48.624 56.7461 48.48 56.8581 48.368C56.9701 48.256 57.1141 48.2 57.2901 48.2H63.8421C65.1381 48.2 66.2581 48.4 67.2021 48.8C68.1621 49.2 68.9061 49.808 69.4341 50.624C69.9781 51.424 70.2501 52.424 70.2501 53.624C70.2501 54.84 69.9781 55.848 69.4341 56.648C68.9061 57.432 68.1621 58.016 67.2021 58.4C66.2581 58.784 65.1381 58.976 63.8421 58.976H60.6261V64.4C60.6261 64.576 60.5701 64.72 60.4581 64.832C60.3461 64.944 60.2021 65 60.0261 65H57.2901ZM60.5541 56H63.7221C64.5381 56 65.1701 55.8 65.6181 55.4C66.0821 55 66.3141 54.4 66.3141 53.6C66.3141 52.896 66.1061 52.32 65.6901 51.872C65.2901 51.424 64.6341 51.2 63.7221 51.2H60.5541V56Z" fill="#CEE4BD"/>
</svg>
