<svg width="82" height="111" viewBox="0 0 82 111" fill="none" xmlns="http://www.w3.org/2000/svg">
<path d="M6.296 110.14L76.2137 69.8922C77.6851 68.8337 78.89 67.4489 79.7335 65.8469C80.577 64.2449 81.0361 62.4695 81.0747 60.6604V5.93394C81.0747 2.28108 78.8773 0.620693 76.2137 2.21467L6.296 42.4625C4.80679 43.5344 3.59097 44.9404 2.74662 46.567C1.90226 48.1937 1.453 49.9955 1.43506 51.8271V106.487C1.43506 110.074 3.63247 111.734 6.296 110.14Z" fill="#FDECC9"/>
<path d="M5.69701 107.152L74.8157 67.3023C75.8941 66.5579 76.7775 65.5661 77.3916 64.4104C78.0058 63.2546 78.3327 61.9687 78.3449 60.6607V5.66856C78.3582 5.5079 78.3262 5.34671 78.2524 5.20326C78.1787 5.0598 78.0661 4.93981 77.9275 4.85687C77.7889 4.77392 77.6298 4.73134 77.4682 4.73394C77.3066 4.73654 77.1489 4.78422 77.0131 4.87158V4.87158L7.82784 44.721C6.70128 45.4157 5.78054 46.3971 5.16028 47.5644C4.54002 48.7317 4.24262 50.0426 4.29866 51.3625V106.155C4.2756 106.317 4.29536 106.481 4.35594 106.632C4.41652 106.783 4.51581 106.916 4.64389 107.017C4.77196 107.117 4.92433 107.183 5.08577 107.207C5.24721 107.23 5.41206 107.211 5.56383 107.152H5.69701Z" fill="#D1993F"/>
<path d="M4.16547 51.8274V106.62C4.20499 106.76 4.27669 106.888 4.37484 106.995C4.47299 107.102 4.59488 107.185 4.73076 107.237C4.86663 107.288 5.01274 107.307 5.15739 107.293C5.30204 107.278 5.44123 107.23 5.56383 107.152V107.152L74.6825 67.3023C75.7609 66.5579 76.6443 65.5661 77.2584 64.4104C77.8726 63.2546 78.1995 61.9687 78.2117 60.6607V5.66856C78.225 5.5079 78.193 5.34671 78.1193 5.20326C78.0455 5.0598 77.933 4.93981 77.7944 4.85687C77.6558 4.77392 77.4966 4.73134 77.335 4.73394C77.1734 4.73654 77.0158 4.78422 76.8799 4.87158V4.87158L7.69465 44.721C6.49423 45.4528 5.52586 46.5085 4.90137 47.766C4.27689 49.0235 4.02177 50.4315 4.16547 51.8274V51.8274ZM4.69818 51.8274C4.58591 50.5292 4.83033 49.225 5.40518 48.0549C5.98004 46.8847 6.86361 45.8929 7.96101 45.1859L77.2794 5.33649V60.6607C77.3257 61.9501 77.0521 63.2309 76.4829 64.3895C75.9137 65.5481 75.0666 66.5486 74.0166 67.3023L5.29747 107.152C5.19151 107.152 5.08989 107.11 5.01496 107.035C4.94004 106.96 4.89794 106.859 4.89794 106.753L4.69818 51.8274Z" fill="#754F17"/>
<path d="M4.96385 41.7326L74.815 1.48469C75.2127 1.16968 75.6786 0.951603 76.1757 0.847832C76.6728 0.74406 77.1873 0.757456 77.6783 0.886953L79.2098 1.68394C78.7227 1.48316 78.1927 1.40832 77.6688 1.46637C77.145 1.52442 76.6443 1.71349 76.2133 2.01602L6.29561 42.4631C4.8064 43.535 3.59058 44.941 2.74623 46.5676C1.90187 48.1943 1.45261 49.9961 1.43467 51.8277V106.488C1.43467 108.68 2.30032 110.207 3.56549 110.606C3.43546 110.646 3.296 110.646 3.16596 110.606L1.56785 109.676C1.00369 109.203 0.567755 108.596 0.300133 107.912C0.0325103 107.227 -0.0582101 106.486 0.0363143 105.757V51.0972C0.0511294 49.2578 0.505968 47.4484 1.36301 45.8197C2.22006 44.1909 3.45455 42.7897 4.96385 41.7326V41.7326Z" fill="#754F17"/>
<path d="M6.09599 42.331L75.9471 2.08309C76.3757 1.80504 76.8607 1.62511 77.3673 1.55621C77.8738 1.48731 78.3894 1.53115 78.877 1.68459C78.0553 1.62148 77.2357 1.83167 76.5464 2.28233L6.69529 42.5302C5.19506 43.5808 3.96617 44.9714 3.10956 46.5878C2.25296 48.2042 1.79309 50.0003 1.76775 51.8284V106.555C1.67085 107.343 1.80099 108.143 2.14294 108.86C2.4849 109.578 3.02456 110.183 3.69881 110.606C2.23387 110.606 1.16846 108.813 1.16846 106.356V51.6956C1.19927 49.8592 1.66105 48.0556 2.51676 46.4294C3.37247 44.8031 4.59831 43.3995 6.09599 42.331Z" fill="#754F17"/>
<path d="M30.0691 35.4234L75.4157 9.25568V49.5036L30.0691 75.4721V35.4234Z" fill="#FDECC9"/>
<path d="M72.8176 59.9305L71.6856 60.5946V63.052L72.8176 62.4543V59.9305ZM71.0863 59.2663L69.9543 59.8641V64.0483L71.0863 63.4505V59.2663ZM74.5488 60.329L73.2837 60.6611V61.7901L74.4157 61.126L74.5488 60.329ZM68.2896 59.1335V65.0445L69.355 64.4468V58.5358L68.2896 59.1335Z" fill="#754F17"/>
<path d="M60.6323 67.3031V64.5137C60.649 64.0823 60.7734 63.662 60.9944 63.2908C61.2153 62.9196 61.5258 62.6094 61.8975 62.3884C62.5634 61.9899 63.1627 62.3884 63.1627 63.0525V65.9748C63.142 66.3412 63.049 66.7 62.889 67.0305C62.729 67.361 62.5052 67.6568 62.2304 67.9009V69.4284L62.8963 69.0963V69.5613L60.8987 70.7567V70.2254L61.5646 69.8269V68.2994C61.0318 68.4322 60.6323 68.1001 60.6323 67.3031Z" fill="#754F17"/>
<path d="M51.0442 70.7559H53.1084V70.0917L56.7042 68.0328V71.088L53.3082 73.4125V72.6819L51.244 75.3386H50.7778V71.1544C50.7778 71.1544 50.8444 70.6895 51.0442 70.7559Z" fill="#754F17"/>
<path d="M44.5174 73.9438C46.1155 73.014 47.4472 73.3461 47.4472 74.7408C47.5318 75.1796 47.5318 75.6304 47.4472 76.0691L48.0465 77.331L46.1821 77.7959C45.7856 78.2056 45.3381 78.5628 44.8503 78.8586C43.2522 79.7884 41.9204 79.4563 41.9204 78.128C42.0178 77.2829 42.3011 76.4697 42.75 75.7464C43.1989 75.0231 43.8024 74.4076 44.5174 73.9438V73.9438Z" fill="#754F17"/>
<path d="M32.8652 83.5744C32.8652 85.434 34.197 86.1646 35.7951 85.2347C36.5876 84.713 37.259 84.0282 37.7644 83.2264C38.2697 82.4245 38.5972 81.5241 38.725 80.5857C38.725 78.726 37.3932 77.9954 35.7951 78.9253C35.0026 79.447 34.3312 80.1318 33.8259 80.9337C33.3206 81.7355 32.993 82.6359 32.8652 83.5744ZM35.2624 82.246L34.1304 81.5819L34.5965 80.5857L35.7951 81.2498L36.9937 79.2573H37.5264L36.3278 81.3162L37.5264 81.9804L36.9937 82.8438L35.7951 82.1796L34.5965 84.2385H34.1304L35.2624 82.246Z" fill="#754F17"/>
<path style="mix-blend-mode:screen" d="M4.16586 104.23V51.8281C4.10982 50.5082 4.40722 49.1972 5.02748 48.03C5.64774 46.8627 6.56848 45.8813 7.69504 45.1865L58.0358 15.8308L4.16586 104.23Z" fill="url(#paint0_linear_877:524)"/>
<path d="M44.2528 55.2819C45.4773 54.1932 46.5722 52.9675 47.5156 51.629C50.3123 53.1566 54.7738 50.6328 57.5705 45.8509C58.6569 46.1719 59.8134 46.1719 60.8999 45.8509C63.0307 45.2531 64.6288 46.515 64.6288 49.1716V54.02C64.5959 54.5081 64.4531 54.9825 64.211 55.4079C63.9689 55.8334 63.6337 56.1989 63.2305 56.4774L41.8556 68.8307C41.1232 69.2956 40.4573 68.8307 40.4573 68.0337V62.9197C40.5349 61.4558 40.9116 60.0233 41.5643 58.7099C42.217 57.3965 43.1319 56.2299 44.2528 55.2819V55.2819Z" fill="#FDECC9"/>
<path d="M40.4573 68.0337V62.9197C40.5349 61.4559 40.9116 60.0233 41.5643 58.7099C42.217 57.3965 43.1319 56.23 44.2528 55.2819C45.4753 54.1911 46.5699 52.9657 47.5156 51.629L52.5763 60.6616L57.5705 45.718C58.6564 46.043 59.814 46.043 60.8999 45.718C63.0307 45.1203 64.6288 46.3822 64.6288 49.0388V54.02C64.5959 54.5081 64.4531 54.9825 64.211 55.408C63.9689 55.8334 63.6337 56.1989 63.2305 56.4774L41.8556 68.8307C41.1232 69.2956 40.4573 68.8971 40.4573 68.0337Z" fill="#754F17"/>
<path d="M47.5141 51.6288C47.5141 51.1639 48.18 50.699 48.4463 50.2341C48.7127 49.7692 49.1788 47.7767 48.4463 47.3782C47.6048 46.7661 46.9762 45.9069 46.6484 44.9208C45.916 44.9208 45.3167 44.9208 45.2501 43.6589C45.1379 43.1954 45.153 42.7103 45.2936 42.2546C45.4342 41.7988 45.6951 41.3892 46.0491 41.0687C45.9679 38.6611 46.5446 36.2767 47.7175 34.1709C48.8905 32.0651 50.6155 30.317 52.708 29.1139C57.8353 26.1252 59.3668 29.1139 59.3668 33.2317C60.0327 33.2317 60.4322 33.2317 60.2324 34.8921C60.0781 35.9806 59.5623 36.9862 58.7675 37.7479C58.2612 39.4778 57.522 41.1311 56.5701 42.6627C55.9042 43.8582 55.9042 45.1201 56.5701 45.4521C56.8775 45.6415 57.2154 45.7763 57.5689 45.8506V45.8506C54.7722 50.6326 50.3108 53.1564 47.5141 51.6288V51.6288Z" fill="#FCCF7E"/>
<path d="M59.3678 33.2312C58.7269 33.7462 58.2999 34.4796 58.1692 35.2901C58.1692 35.2901 58.1692 33.9618 58.1692 32.9655C58.1692 31.9693 57.8363 28.3829 54.9064 31.2387C51.9765 34.0946 51.0443 36.0207 49.5793 36.552C48.1144 37.0833 47.1156 37.2826 47.1156 38.5445C47.1156 39.8064 47.1156 41.2011 47.1156 41.2011C47.1156 41.2011 46.3831 40.8026 45.917 41.2011V36.7512C46.2048 34.5765 47.1289 32.5346 48.5738 30.8809C50.0187 29.2271 51.9202 28.0348 54.0408 27.4531C59.9671 25.9919 59.3678 27.4531 59.3678 33.2312Z" fill="#754F17"/>
<path d="M58.7685 37.7471C57.7627 41.7506 55.4127 45.2898 52.1097 47.7759C47.4485 50.4989 46.1833 44.92 46.1833 44.92C47.0531 45.4913 48.0718 45.7958 49.1132 45.7958C50.1547 45.7958 51.1733 45.4913 52.0431 44.92C54.7263 42.9824 57.0098 40.547 58.7685 37.7471Z" fill="#754F17"/>
<path d="M56.437 42.2643L54.5059 41.2017C54.1967 41.0442 53.8544 40.9622 53.5071 40.9622C53.1599 40.9622 52.8176 41.0442 52.5083 41.2017C51.7002 41.7348 51.0184 42.4375 50.5106 43.2605L48.5796 46.4485L51.909 43.4598C52.3382 43.2216 52.8167 43.0852 53.3074 43.0613L56.437 42.2643Z" fill="#754F17"/>
<path d="M52.0416 53.1566L51.2425 52.6917L52.308 50.8984L53.3734 51.4962L52.5743 52.8909L53.7729 57.8721L52.308 61.9234L50.843 59.5325L52.0416 53.1566Z" fill="#754F17"/>
<path d="M55.7709 51.8948L52.3749 51.297L49.445 55.0827L47.5139 51.6291L52.2417 50.965L57.5688 45.851L55.7709 51.8948Z" fill="#FDECC9"/>
<path d="M52.5742 62.5874L44.7168 54.5511L47.5135 51.3631L47.8464 52.1601L52.5742 60.7277L57.2354 46.7805L57.5683 45.585L60.365 45.5186L52.5742 62.5874Z" fill="#D1993F"/>
<path d="M27.8708 56.0115V72.2833L7.36157 84.0389V67.767L27.8708 56.0115Z" fill="#FDECC9"/>
<path d="M7.36157 85.7665L27.8708 73.9445V88.091C27.8088 88.7509 27.6041 89.3895 27.2707 89.9628C26.9373 90.5361 26.4832 91.0305 25.9397 91.4118L7.7611 101.972C7.7611 101.972 7.7611 101.972 7.7611 101.573L7.36157 85.7665Z" fill="#FDECC9"/>
<path d="M7.36157 50.6988C7.41453 50.0366 7.61545 49.3946 7.9496 48.82C8.28375 48.2454 8.74265 47.7527 9.29263 47.378L27.4712 36.8843C27.4712 36.8843 27.4712 36.8843 27.4712 37.2828V54.0196L7.36157 66.0408V50.6988Z" fill="#FDECC9"/>
<path d="M13.8882 75.671C14.471 75.1436 15.0058 74.5658 15.4863 73.9442V73.9442C16.7515 74.6748 18.8157 73.4793 20.1475 71.2212H20.0143C20.5118 71.3834 21.0483 71.3834 21.5458 71.2212C22.5446 70.8891 23.3437 71.2211 23.3437 72.7487V73.9442C23.3236 74.1699 23.2534 74.3882 23.1382 74.5835C23.0231 74.7788 22.8658 74.9461 22.6778 75.0733L12.6896 80.8514C12.29 80.8514 12.0237 80.8514 12.0237 80.4529V79.0582C12.0926 78.3982 12.293 77.7586 12.6132 77.1769C12.9334 76.5953 13.3668 76.0833 13.8882 75.671V75.671Z" fill="#D1993F"/>
<path d="M15.4842 73.9448L15.8837 73.2806C16.2167 72.7493 16.2167 72.1515 15.8837 71.9523C15.451 71.6771 15.1048 71.2857 14.8849 70.8232C14.8849 70.8232 14.2856 70.8232 14.219 70.2255C14.1524 69.6277 14.219 69.2957 14.6186 69.03C14.6233 67.895 14.9196 66.7802 15.4791 65.7919C16.0387 64.8036 16.8428 63.9749 17.8148 63.3847C20.212 61.9899 20.9444 63.3847 21.011 65.3107C21.011 65.3107 21.4772 65.3107 21.4106 66.1077C21.299 66.5975 21.0705 67.0531 20.7447 67.436C20.4858 68.2513 20.128 69.0319 19.6793 69.7606C19.3463 70.2919 19.3463 70.8896 19.6793 71.0889H20.1454H20.0122C18.6804 73.347 16.6162 74.5425 15.351 73.8119L15.4842 73.9448Z" fill="#FCCF7E"/>
<path d="M21.0131 65.3102C20.6948 65.5553 20.4808 65.911 20.4139 66.3064C20.4139 66.3064 20.4139 66.3064 20.4139 66.9706C19.1487 68.631 17.3508 66.0408 16.6183 66.24C15.8858 66.4393 15.4863 66.5721 15.4863 67.2363C15.4863 67.9004 15.4863 69.0295 15.4863 69.0295C15.4023 68.9929 15.3116 68.974 15.22 68.974C15.1283 68.974 15.0376 68.9929 14.9536 69.0295V67.3027C14.9923 66.2804 15.3189 65.2897 15.8959 64.4439C16.473 63.5982 17.2772 62.9317 18.2164 62.5207C20.6802 60.6611 21.0131 62.4543 21.0131 65.3102Z" fill="#754F17"/>
<path d="M21.6114 50.1007C20.8789 53.6207 14.4198 58.137 12.2224 54.5505C13.8871 54.5505 13.7539 46.5806 17.0168 44.8538C20.2796 43.127 20.6125 50.4992 21.6114 50.1007Z" fill="#754F17"/>
<path d="M11.623 60.6614C12.4523 59.0192 13.5055 57.4993 14.7527 56.1451L17.0167 55.0825L19.2141 54.0198C20.6124 54.0198 21.7444 54.0198 22.3437 54.8832C22.696 55.4844 22.8366 56.1857 22.7433 56.8757C22.7308 57.0261 22.6819 57.1711 22.6007 57.2984C22.5195 57.4257 22.4084 57.5314 22.2771 57.6063L11.6896 63.7165H11.2901C11.0708 62.6888 11.1875 61.6181 11.623 60.6614V60.6614Z" fill="#754F17"/>
<path d="M13.9539 51.4954C13.9539 51.4954 13.9539 50.964 13.9539 50.8312C13.9486 49.7261 14.2198 48.637 14.7431 47.6629C15.2663 46.6887 16.025 45.8601 16.9504 45.2523C18.6151 44.3225 20.0135 44.6546 20.0135 47.3776C20.0135 47.3776 20.4796 47.3776 20.413 48.1746C20.4958 48.4942 20.5028 48.8287 20.4334 49.1515C20.3641 49.4743 20.2203 49.7765 20.0135 50.0342C19.8292 51.0103 19.4438 51.9375 18.8815 52.7573C18.8815 53.1558 18.8815 53.4878 18.8815 53.6207H19.281C19.281 57.1407 14.8196 59.7309 14.8196 56.1445L15.2191 55.5467C15.307 55.3714 15.3528 55.1782 15.3528 54.9822C15.3528 54.7862 15.307 54.5929 15.2191 54.4177C14.7422 54.1648 14.3836 53.7357 14.2203 53.2222C14.2203 53.2222 14.2203 53.2222 14.2203 53.2222C14.2203 53.2222 13.3547 53.0893 13.3547 52.6908C13.3139 52.4539 13.3501 52.2102 13.4579 51.9952C13.5657 51.7801 13.7395 51.605 13.9539 51.4954V51.4954Z" fill="#FCCF7E"/>
<path d="M16.6841 46.7135C16.6841 48.1082 17.2834 48.9052 15.5521 50.4991C13.8208 52.0931 13.954 52.4916 14.4867 53.9528C15.0194 55.4139 13.8208 54.6833 13.7542 54.4177C13.7542 52.4252 12.4225 52.4916 13.7542 48.7059C15.086 44.9202 17.35 44.8538 17.35 44.8538L16.6841 46.7135Z" fill="#754F17"/>
<path d="M16.4837 46.9793C16.4837 48.7061 18.2816 46.9793 18.8809 48.3076C19.1619 48.8638 19.3083 49.478 19.3083 50.1008C19.3083 50.7236 19.1619 51.3378 18.8809 51.894C18.8809 51.894 22.2103 48.9717 20.2793 45.7838C20.1203 45.2818 19.768 44.8633 19.2997 44.6204C18.8314 44.3775 18.2855 44.3302 17.7822 44.4887C17.2789 44.6472 16.8593 44.9987 16.6158 45.4658C16.3723 45.9328 16.3248 46.4773 16.4837 46.9793V46.9793Z" fill="#754F17"/>
<path d="M13.3537 93.8689C13.969 93.3753 14.5076 92.7933 14.9518 92.1421V92.1421C16.2836 92.8727 18.3478 91.6772 19.6796 89.4191H20.0125C20.5373 89.5485 21.0858 89.5485 21.6106 89.4191C22.6094 89.087 23.3419 89.4191 23.3419 90.9467V92.4742C23.3321 92.7024 23.2662 92.9247 23.1501 93.1216C23.034 93.3184 22.8712 93.4838 22.676 93.6033L12.6212 99.4479C12.2217 99.4479 11.9553 99.4479 11.9553 99.0494V97.5218C11.9179 96.1675 12.4208 94.8537 13.3537 93.8689V93.8689Z" fill="url(#paint1_radial_877:524)"/>
<path d="M11.6245 99.0493V97.5217C11.6492 96.8275 11.8155 96.1456 12.1131 95.5175C12.4108 94.8895 12.8336 94.3285 13.3558 93.8689C13.9711 93.3752 14.5097 92.7933 14.9539 92.1421L17.3511 95.5957L20.0146 89.4854C20.5394 89.6148 21.0879 89.6148 21.6128 89.4854C22.6116 89.1534 23.3441 89.4854 23.3441 91.013V92.5406C23.3342 92.7687 23.2684 92.991 23.1523 93.1879C23.0362 93.3848 22.8734 93.5502 22.6782 93.6696L12.6233 99.5142C11.8909 99.647 11.6245 99.5142 11.6245 99.0493Z" fill="#754F17"/>
<path d="M14.9517 92.2089L15.3512 91.5447C15.6842 91.0134 15.7507 90.3492 15.3512 90.2164C14.8814 89.9365 14.5094 89.5191 14.2858 89.0209C14.2858 89.0209 13.6865 89.0209 13.6199 88.4232C13.5901 88.2009 13.6172 87.9746 13.6987 87.7656C13.7802 87.5566 13.9135 87.3715 14.086 87.2277C14.0559 86.0783 14.3447 84.9429 14.9204 83.9468C15.4962 82.9506 16.3365 82.1324 17.3489 81.5824C19.746 80.1876 20.4785 81.5824 20.5451 83.5084C20.8558 83.5084 20.989 83.7741 20.9446 84.3054C20.8613 84.8048 20.6292 85.2676 20.2787 85.6337C20.0199 86.449 19.6621 87.2296 19.2133 87.9583C19.2133 88.556 19.2133 89.1538 19.2133 89.2866H19.6794H20.0124C18.6806 91.5447 16.6164 92.7402 15.2846 92.0096L14.9517 92.2089Z" fill="#FCCF7E"/>
<path d="M20.5448 83.5076C20.2533 83.7754 20.0452 84.1213 19.9455 84.5038V83.3748C19.9455 82.9099 19.9455 81.2495 18.4139 82.5778C16.8824 83.9061 16.5495 84.8359 15.8836 85.0352C15.2177 85.2344 14.685 85.4337 14.685 86.0314V87.2269C14.5907 87.1847 14.4886 87.163 14.3853 87.163C14.2821 87.163 14.1799 87.1847 14.0857 87.2269V85.168C14.2067 84.1001 14.6456 83.0929 15.3459 82.2761C16.0461 81.4593 16.9755 80.8704 18.0144 80.5853C20.6779 80.054 20.5448 80.5853 20.5448 83.5076Z" fill="#754F17"/>
<path d="M17.3496 96.525L13.6206 93.6027L14.9524 92.0752L15.0855 92.4736L17.3496 95.5952L19.547 89.8834L19.6801 89.3521H21.0119L17.3496 96.525Z" fill="#D1993F"/>
<defs>
<linearGradient id="paint0_linear_877:524" x1="72.6186" y1="-4.02746" x2="-31.2782" y2="118.444" gradientUnits="userSpaceOnUse">
<stop/>
<stop offset="1"/>
</linearGradient>
<radialGradient id="paint1_radial_877:524" cx="0" cy="0" r="1" gradientUnits="userSpaceOnUse" gradientTransform="translate(1.77396 34.5996) rotate(150.178) scale(9.08136 9.01183)">
<stop offset="0.01" stop-color="white"/>
<stop offset="0.16" stop-color="#E6D7F0"/>
<stop offset="0.28" stop-color="#D7BDE7"/>
<stop offset="0.36" stop-color="#D1B4E3"/>
<stop offset="0.48" stop-color="#C4A4DC"/>
<stop offset="0.71" stop-color="#A17BC9"/>
<stop offset="0.72" stop-color="#9F79C8"/>
<stop offset="0.99" stop-color="#9F79C8"/>
<stop offset="1" stop-color="#9F79C8"/>
</radialGradient>
</defs>
</svg>
