<svg width="100" height="100" viewBox="0 0 100 100" fill="none" xmlns="http://www.w3.org/2000/svg">
<g clip-path="url(#clip0_2588_366)">
<path opacity="0.991" fill-rule="evenodd" clip-rule="evenodd" d="M61.6211 -0.0976562C62.9232 -0.0976562 64.2252 -0.0976562 65.5273 -0.0976562C71.5635 1.54948 74.3955 5.52084 74.0234 11.8164C73.5494 14.7605 72.1172 17.1042 69.7266 18.8477C68.4174 21.1422 68.9709 22.8023 71.3867 23.8281C79.4596 23.8932 87.5326 23.9584 95.6055 24.0234C97.749 24.5076 99.1813 25.7771 99.9023 27.832C99.9023 37.4023 99.9023 46.9727 99.9023 56.543C98.7676 58.4967 97.14 59.0502 95.0195 58.2031C90.7529 53.0543 85.7398 52.143 79.9805 55.4688C75.4588 59.585 74.71 64.3051 77.7344 69.6289C81.9385 74.4404 86.7887 75.1893 92.2852 71.875C93.276 70.7531 94.3828 69.7766 95.6055 68.9453C97.6482 68.4604 99.0807 69.1439 99.9023 70.9961C99.9023 79.3945 99.9023 87.793 99.9023 96.1914C99.2514 98.0143 98.0143 99.2514 96.1914 99.9023C87.793 99.9023 79.3945 99.9023 70.9961 99.9023C68.8344 98.7881 68.2809 97.0953 69.3359 94.8242C74.2916 90.6844 75.2031 85.8016 72.0703 80.1758C67.8596 75.3627 63.0094 74.6141 57.5195 77.9297C52.8812 82.2729 52.2627 87.123 55.6641 92.4805C56.5104 93.3268 57.3568 94.1732 58.2031 95.0195C59.0502 97.14 58.4967 98.7676 56.543 99.9023C46.9727 99.9023 37.4023 99.9023 27.832 99.9023C25.7771 99.1813 24.5076 97.749 24.0234 95.6055C23.9584 87.5326 23.8932 79.4596 23.8281 71.3867C22.8023 68.9709 21.1422 68.4174 18.8477 69.7266C15.3923 73.9156 11.0954 75.0875 5.95703 73.2422C2.81521 71.6312 0.796994 69.1248 -0.0976562 65.7227C-0.0976562 64.4205 -0.0976562 63.1186 -0.0976562 61.8164C1.33215 56.5172 4.81522 53.6525 10.3516 53.2227C13.9484 53.4422 16.8455 54.9721 19.043 57.8125C21.2041 58.916 22.7992 58.3627 23.8281 56.1523C23.8932 46.9076 23.9584 37.6627 24.0234 28.418C24.4467 25.9115 25.9115 24.4467 28.418 24.0234C37.6627 23.9584 46.9076 23.8932 56.1523 23.8281C58.3627 22.7992 58.916 21.2041 57.8125 19.043C53.3738 15.4164 52.202 10.9243 54.2969 5.56641C55.9189 2.60875 58.3604 0.720734 61.6211 -0.0976562Z" fill="#4E9A5F"/>
<path fill-rule="evenodd" clip-rule="evenodd" d="M35.4493 37.4023C37.4687 37.3699 39.4868 37.4023 41.504 37.4999C43.353 38.0415 43.8413 39.181 42.9688 40.9179C42.3753 41.4263 41.6917 41.7517 40.9181 41.8945C42.7544 46.98 44.6099 52.0582 46.4845 57.1289C47.7481 53.6961 48.9524 50.2455 50.0978 46.7773C49.5753 45.0824 49.0546 43.3896 48.5353 41.6992C46.7282 41.6822 45.9144 40.7707 46.0938 38.9648C46.3401 38.4353 46.6981 38.0121 47.1681 37.6953C49.5743 37.3087 51.9831 37.3087 54.3946 37.6953C55.3272 38.4091 55.6202 39.3531 55.2735 40.5273C54.7144 41.2796 53.9657 41.7353 53.0274 41.8945C54.8511 46.9736 56.6739 52.0517 58.4962 57.1289C60.3978 52.0101 62.2206 46.8669 63.9649 41.6992C62.1583 41.5511 61.4097 40.5746 61.7189 38.7695C62.0118 38.2162 62.4351 37.7929 62.9884 37.4999C65.2784 37.3218 67.5571 37.3869 69.8243 37.6953C71.2483 38.6929 71.3786 39.8648 70.2149 41.2109C69.6864 41.5132 69.1329 41.741 68.5548 41.8945C66.0542 48.9406 63.5151 55.9718 60.9376 62.9882C59.237 64.6064 57.6095 64.5414 56.0548 62.7929C54.8286 59.624 53.6567 56.4339 52.5392 53.2226C51.3405 56.4931 50.1036 59.7482 48.8282 62.9882C47.1423 64.5953 45.5146 64.5302 43.9454 62.7929C41.3405 55.7918 38.8341 48.7605 36.4259 41.6992C34.4841 41.529 33.7355 40.4874 34.1798 38.5742C34.5536 38.114 34.9769 37.7234 35.4493 37.4023Z" fill="#1F612D"/>
</g>
<defs>
<clipPath id="clip0_2588_366">
<rect width="100" height="100" fill="white"/>
</clipPath>
</defs>
</svg>
