<svg width="101" height="110" viewBox="0 0 101 110" fill="none" xmlns="http://www.w3.org/2000/svg">
<g filter="url(#filter0_d_1083_113)">
<path d="M11.6716 28.1294V104.249L55.3224 80.1236V4.4046L11.6716 28.1294Z" fill="#FFC2B6"/>
<path d="M97.3006 104.249V28.9314L55.321 4.4046V80.1236L97.3006 104.249Z" fill="#BA503A"/>
<path d="M100.042 102.645V27.6615L97.3013 28.9312V104.249L100.042 102.645Z" fill="#6D2F22"/>
<path d="M94.2927 95.7626V31.2711L57.5271 10.2863V75.1119L94.2927 95.7626Z" fill="#FFC2B6"/>
<path d="M100.041 27.6634L57.527 3.47076L55.321 4.40639L97.3006 28.9332L100.041 27.6634Z" fill="#FFC2B6"/>
<path d="M61.1367 21.3798L77.113 30.6024V32.1395L61.1367 22.9169V21.3798Z" fill="#BA503A"/>
<path d="M61.1367 25.9908L77.113 35.2134V36.7505L61.1367 27.5279V25.9908Z" fill="#BA503A"/>
<path d="M61.1367 30.5362L77.113 39.7588V41.2959L61.1367 32.0733V30.5362Z" fill="#BA503A"/>
<path d="M75.3748 48.9146L90.4152 57.6025V59.0728L75.3748 50.3849V48.9146Z" fill="#BA503A"/>
<path d="M74.9077 53.5255L90.884 62.7481V64.2852L74.9077 55.0626V53.5255Z" fill="#BA503A"/>
<path d="M74.9077 58.0696L90.884 67.2922V68.8293L74.9077 59.6067V58.0696Z" fill="#BA503A"/>
<path d="M61.1367 61.5449L77.113 70.7675V72.3046L61.1367 63.082V61.5449Z" fill="#BA503A"/>
<path d="M61.1367 66.156L77.113 75.3787V76.8489L61.1367 67.6931V66.156Z" fill="#BA503A"/>
<path d="M61.1367 70.7012L77.113 79.9238V81.461L61.1367 72.2383V70.7012Z" fill="#BA503A"/>
<path d="M89.814 95.0271V98.9033L93.1563 100.775V96.9652L89.814 95.0271Z" fill="#FFC2B6" stroke="#6D2F22" stroke-width="0.25"/>
<path d="M84.0659 91.5518V95.428L87.4082 97.3661V93.4899L84.0659 91.5518Z" fill="#FFC2B6" stroke="#6D2F22" stroke-width="0.25"/>
<path d="M55.3892 4.33822L53.317 3.40259L10.0005 27.6621L11.7385 28.063L55.3892 4.33822Z" fill="#FFC2B6"/>
<path d="M11.738 104.182L10 103.113V27.6615L11.738 28.0625V104.182Z" fill="#6D2F22"/>
</g>
<path d="M29.8668 34.3544C28.8987 34.826 28.4899 35.6835 28.3393 37.6342C28.1887 39.7564 28.5329 43.0147 29.3935 46.9804C29.7377 48.6309 29.9743 50.2601 29.9098 50.5816C29.501 52.6395 24.3162 65.2868 21.5194 70.9889C19.1529 75.812 17.4103 78.7059 15.9044 80.2493C14.7211 81.4712 13.9466 81.7713 14.1833 80.8924C14.7426 78.9846 16.894 75.4047 18.9808 72.8753C21.1322 70.2815 20.4222 70.603 17.6039 73.4969C14.3984 76.7766 13.0215 78.9417 13 80.678C13 81.4712 13.0645 81.5783 13.6669 81.7927C16.4422 82.7573 18.6151 80.4851 22.7242 72.2322C24.8541 67.9449 24.4883 68.3737 27.6293 66.6373C30.0174 65.3297 36.1703 62.3501 37.9344 61.6641L39.7416 60.9567L41.4842 61.5141C42.4308 61.8142 43.8507 62.1786 44.6252 62.3072C46.3463 62.6288 49.5088 62.6073 50.6921 62.3072C51.6387 62.05 52.5853 61.2354 52.5853 60.6995C52.5853 60.3994 52.5207 60.3994 51.9184 60.6995C50.9287 61.214 47.9168 61.1497 45.2706 60.5709C44.0874 60.3137 43.1407 59.9921 43.1838 59.8849C43.3559 59.3705 48.4546 58.0414 50.2618 58.02C50.8212 58.02 51.6172 58.1915 52.0474 58.3844C52.4562 58.5773 52.865 58.6631 52.951 58.5773C53.1877 58.3415 52.5207 57.3126 51.9399 57.0125C50.7136 56.3908 47.1638 56.9267 42.9471 58.3415C40.8603 59.0489 40.7097 59.0704 39.9997 58.7917C37.2675 57.6556 34.6643 54.8046 32.8357 50.9889C31.9321 49.1025 31.8891 48.7167 32.3193 44.4294C32.4699 42.9075 32.5345 41.6213 32.4914 41.5784C32.4484 41.5141 32.1903 42.393 31.9536 43.4863C31.4158 45.8014 31.3082 46.1229 31.1791 45.9729C31.1146 45.9085 30.8564 44.9225 30.5982 43.7435C30.1249 41.5141 29.9313 36.841 30.2755 35.2548C30.6198 33.6042 31.7385 34.2473 32.556 36.5838L32.9647 37.7628L32.9863 36.7553C33.0293 34.3973 31.76 33.4112 29.8668 34.3544ZM31.5879 53.2183C32.6205 55.3833 35.7615 58.8346 37.5257 59.7349L38.2786 60.1207L35.3097 61.5355C31.9536 63.1218 29.1138 64.6866 26.8118 66.23C25.9298 66.8088 25.1768 67.2375 25.1337 67.1732C25.0907 67.1304 25.3489 66.423 25.7146 65.6084C26.8979 62.9503 28.662 58.5988 29.5226 56.0907C30.9855 51.8892 30.964 51.9321 31.5879 53.2183Z" fill="#BA503A"/>
<defs>
<filter id="filter0_d_1083_113" x="0" y="0.402588" width="100.042" height="108.847" filterUnits="userSpaceOnUse" color-interpolation-filters="sRGB">
<feFlood flood-opacity="0" result="BackgroundImageFix"/>
<feColorMatrix in="SourceAlpha" type="matrix" values="0 0 0 0 0 0 0 0 0 0 0 0 0 0 0 0 0 0 127 0" result="hardAlpha"/>
<feOffset dx="-6" dy="1"/>
<feGaussianBlur stdDeviation="2"/>
<feComposite in2="hardAlpha" operator="out"/>
<feColorMatrix type="matrix" values="0 0 0 0 0 0 0 0 0 0 0 0 0 0 0 0 0 0 0.25 0"/>
<feBlend mode="normal" in2="BackgroundImageFix" result="effect1_dropShadow_1083_113"/>
<feBlend mode="normal" in="SourceGraphic" in2="effect1_dropShadow_1083_113" result="shape"/>
</filter>
</defs>
</svg>
