<svg width="91" height="102" viewBox="0 0 91 102" fill="none" xmlns="http://www.w3.org/2000/svg">
<path d="M1.67163 25.1294V101.249L45.3224 77.1236V1.4046L1.67163 25.1294Z" fill="#FFC2B6"/>
<path d="M87.3006 101.249V25.9314L45.321 1.4046V77.1236L87.3006 101.249Z" fill="#BA503A"/>
<path d="M90.042 99.6453V24.6615L87.3013 25.9312V101.249L90.042 99.6453Z" fill="#6D2F22"/>
<path d="M84.2927 92.7626V28.2711L47.5271 7.28635V72.1119L84.2927 92.7626Z" fill="#FFC2B6"/>
<path d="M90.0413 24.6634L47.527 0.470764L45.321 1.40639L87.3006 25.9332L90.0413 24.6634Z" fill="#FFC2B6"/>
<path d="M51.1367 18.3798L67.113 27.6024V29.1395L51.1367 19.9169V18.3798Z" fill="#BA503A"/>
<path d="M51.1367 22.9908L67.113 32.2134V33.7505L51.1367 24.5279V22.9908Z" fill="#BA503A"/>
<path d="M51.1367 27.5362L67.113 36.7588V38.2959L51.1367 29.0733V27.5362Z" fill="#BA503A"/>
<path d="M65.3748 45.9146L80.4152 54.6025V56.0728L65.3748 47.3849V45.9146Z" fill="#BA503A"/>
<path d="M64.9077 50.5255L80.884 59.7481V61.2852L64.9077 52.0626V50.5255Z" fill="#BA503A"/>
<path d="M64.9077 55.0696L80.884 64.2922V65.8293L64.9077 56.6067V55.0696Z" fill="#BA503A"/>
<path d="M51.1367 58.5449L67.113 67.7675V69.3046L51.1367 60.082V58.5449Z" fill="#BA503A"/>
<path d="M51.1367 63.156L67.113 72.3787V73.8489L51.1367 64.6931V63.156Z" fill="#BA503A"/>
<path d="M51.1367 67.7012L67.113 76.9238V78.461L51.1367 69.2383V67.7012Z" fill="#BA503A"/>
<path d="M79.814 92.0271V95.9033L83.1563 97.7746V93.9652L79.814 92.0271Z" fill="#FFC2B6" stroke="#6D2F22" stroke-width="0.25"/>
<path d="M74.0659 88.5518V92.428L77.4082 94.3661V90.4899L74.0659 88.5518Z" fill="#FFC2B6" stroke="#6D2F22" stroke-width="0.25"/>
<path d="M45.3892 1.33822L43.317 0.402588L0.000488281 24.6621L1.7385 25.063L45.3892 1.33822Z" fill="#FFC2B6"/>
<path d="M1.73801 101.182L0 100.113V24.6615L1.73801 25.0625V101.182Z" fill="#6D2F22"/>
</svg>
