<svg width="100" height="101" viewBox="0 0 100 101" fill="none" xmlns="http://www.w3.org/2000/svg">
<g clip-path="url(#clip0_2588_3647)">
<path opacity="0.991" fill-rule="evenodd" clip-rule="evenodd" d="M61.6211 0.287109C62.9232 0.287109 64.2252 0.287109 65.5273 0.287109C71.5635 1.93425 74.3955 5.90561 74.0234 12.2012C73.5494 15.1453 72.1172 17.489 69.7266 19.2324C68.4174 21.527 68.9709 23.1871 71.3867 24.2129C79.4596 24.2779 87.5326 24.3432 95.6055 24.4082C97.749 24.8924 99.1813 26.1619 99.9023 28.2168C99.9023 37.7871 99.9023 47.3574 99.9023 56.9277C98.7676 58.8814 97.14 59.435 95.0195 58.5879C90.7529 53.4391 85.7398 52.5277 79.9805 55.8535C75.4588 59.9697 74.71 64.6898 77.7344 70.0137C81.9385 74.8252 86.7887 75.574 92.2852 72.2598C93.276 71.1379 94.3828 70.1613 95.6055 69.3301C97.6482 68.8451 99.0807 69.5287 99.9023 71.3809C99.9023 79.7793 99.9023 88.1777 99.9023 96.5762C99.2514 98.399 98.0143 99.6361 96.1914 100.287C87.793 100.287 79.3945 100.287 70.9961 100.287C68.8344 99.1729 68.2809 97.4801 69.3359 95.209C74.2916 91.0691 75.2031 86.1863 72.0703 80.5605C67.8596 75.7475 63.0094 74.9988 57.5195 78.3145C52.8812 82.6576 52.2627 87.5078 55.6641 92.8652C56.5104 93.7115 57.3568 94.558 58.2031 95.4043C59.0502 97.5248 58.4967 99.1523 56.543 100.287C46.9727 100.287 37.4023 100.287 27.832 100.287C25.7771 99.566 24.5076 98.1338 24.0234 95.9902C23.9584 87.9174 23.8932 79.8443 23.8281 71.7715C22.8023 69.3557 21.1422 68.8021 18.8477 70.1113C15.3923 74.3004 11.0954 75.4723 5.95703 73.627C2.81521 72.016 0.796994 69.5096 -0.0976562 66.1074C-0.0976562 64.8053 -0.0976562 63.5033 -0.0976562 62.2012C1.33215 56.902 4.81522 54.0373 10.3516 53.6074C13.9484 53.827 16.8455 55.3568 19.043 58.1973C21.2041 59.3008 22.7992 58.7475 23.8281 56.5371C23.8932 47.2924 23.9584 38.0475 24.0234 28.8027C24.4467 26.2963 25.9115 24.8314 28.418 24.4082C37.6627 24.3432 46.9076 24.2779 56.1523 24.2129C58.3627 23.184 58.916 21.5889 57.8125 19.4277C53.3738 15.8012 52.202 11.309 54.2969 5.95117C55.9189 2.99352 58.3604 1.1055 61.6211 0.287109Z" fill="#4B7DBE"/>
<path fill-rule="evenodd" clip-rule="evenodd" d="M35.4493 37.7871C37.4687 37.7546 39.4868 37.7871 41.504 37.8847C43.353 38.4263 43.8413 39.5658 42.9688 41.3027C42.3753 41.8111 41.6917 42.1365 40.9181 42.2792C42.7544 47.3648 44.6099 52.4429 46.4845 57.5136C47.7481 54.0808 48.9524 50.6302 50.0978 47.1621C49.5753 45.4671 49.0546 43.7744 48.5353 42.0839C46.7282 42.0669 45.9144 41.1554 46.0938 39.3496C46.3401 38.8201 46.6981 38.3968 47.1681 38.08C49.5743 37.6935 51.9831 37.6935 54.3946 38.08C55.3272 38.7939 55.6202 39.7378 55.2735 40.9121C54.7144 41.6644 53.9657 42.1201 53.0274 42.2792C54.8511 47.3584 56.6739 52.4365 58.4962 57.5136C60.3978 52.3949 62.2206 47.2517 63.9649 42.0839C62.1583 41.9359 61.4097 40.9593 61.7189 39.1542C62.0118 38.6009 62.4351 38.1777 62.9884 37.8847C65.2784 37.7066 67.5571 37.7716 69.8243 38.08C71.2483 39.0777 71.3786 40.2496 70.2149 41.5957C69.6864 41.898 69.1329 42.1257 68.5548 42.2792C66.0542 49.3253 63.5151 56.3566 60.9376 63.373C59.237 64.9912 57.6095 64.9261 56.0548 63.1777C54.8286 60.0088 53.6567 56.8187 52.5392 53.6074C51.3405 56.8779 50.1036 60.133 48.8282 63.373C47.1423 64.98 45.5146 64.915 43.9454 63.1777C41.3405 56.1765 38.8341 49.1453 36.4259 42.0839C34.4841 41.9138 33.7355 40.8722 34.1798 38.9589C34.5536 38.4988 34.9769 38.1081 35.4493 37.7871Z" fill="#363F92"/>
</g>
<defs>
<clipPath id="clip0_2588_3647">
<rect width="100" height="100" fill="white" transform="translate(0 0.384766)"/>
</clipPath>
</defs>
</svg>
