<svg width="100" height="100" viewBox="0 0 100 100" fill="none" xmlns="http://www.w3.org/2000/svg">
<g clip-path="url(#clip0_2588_4511)">
<path opacity="0.999" fill-rule="evenodd" clip-rule="evenodd" d="M52.832 49.9023C41.8295 49.9023 30.8268 49.9023 19.8242 49.9023C19.8889 55.7951 19.8238 61.6545 19.6289 67.4805C13.639 67.5131 7.64939 67.4805 1.66016 67.3828C0.842736 67.0531 0.256799 66.4998 -0.0976562 65.7226C-0.0976562 60.4492 -0.0976562 55.1758 -0.0976562 49.9023C6.47787 49.9023 13.0534 49.9023 19.6289 49.9023C19.6289 44.043 19.6289 38.1836 19.6289 32.3242C29.1641 25.5592 38.7344 18.8209 48.3398 12.1094C50.2633 11.3331 51.7281 11.8213 52.7344 13.5742C52.832 25.6834 52.8646 37.7928 52.832 49.9023Z" fill="#88B367"/>
<path opacity="0.996" fill-rule="evenodd" clip-rule="evenodd" d="M76.27 49.9024C74.3169 49.9024 72.3638 49.9024 70.4107 49.9024C70.3781 42.6754 70.4107 35.4489 70.5083 28.2227C71.5146 26.4698 72.9794 25.9815 74.9029 26.7578C75.4835 27.1026 75.9068 27.5909 76.1724 28.2227C76.27 35.4489 76.3027 42.6754 76.27 49.9024Z" fill="#6D8C44"/>
<path fill-rule="evenodd" clip-rule="evenodd" d="M19.6289 32.3238C19.6289 38.1831 19.6289 44.0425 19.6289 49.9019C13.0534 49.9019 6.47787 49.9019 -0.0976562 49.9019C-0.0976562 44.6284 -0.0976562 39.355 -0.0976562 34.0816C0.256799 33.3044 0.842736 32.7511 1.66016 32.4214C7.64939 32.3238 13.639 32.2911 19.6289 32.3238Z" fill="#6D8C44"/>
<path fill-rule="evenodd" clip-rule="evenodd" d="M19.7266 67.5786C19.7266 61.7192 19.7266 55.8598 19.7266 50.0005C13.151 50.0005 6.57553 50.0005 0 50.0005C0 55.2739 0 60.5473 0 65.8208C0.354455 66.5979 0.940393 67.1512 1.75781 67.4809C7.74705 67.5786 13.7366 67.6112 19.7266 67.5786Z" fill="#63744C"/>
<path opacity="0.995" fill-rule="evenodd" clip-rule="evenodd" d="M99.9029 34.0821C99.9029 39.3555 99.9029 44.6289 99.9029 49.9024C97.9497 49.9024 95.9966 49.9024 94.0435 49.9024C94.0109 44.6286 94.0435 39.3551 94.1411 34.0821C95.1474 32.3291 96.6122 31.8409 98.5357 32.6172C99.1044 33.0108 99.5601 33.4991 99.9029 34.0821Z" fill="#6D8C44"/>
<path opacity="0.993" fill-rule="evenodd" clip-rule="evenodd" d="M87.9888 49.9024C86.0357 49.9024 84.0825 49.9024 82.1294 49.9024C82.0968 46.5815 82.1294 43.2612 82.2271 39.9414C83.2333 38.1885 84.6982 37.7002 86.6216 38.4766C87.2023 38.8213 87.6255 39.3096 87.8911 39.9414C87.9888 43.2612 88.0214 46.5815 87.9888 49.9024Z" fill="#6D8C44"/>
<path opacity="0.99" fill-rule="evenodd" clip-rule="evenodd" d="M64.5513 49.9024C62.5982 49.9024 60.645 49.9024 58.6919 49.9024C58.6593 47.5577 58.6919 45.2139 58.7896 42.8711C59.7958 41.1182 61.2607 40.6299 63.1841 41.4063C63.7648 41.751 64.188 42.2393 64.4536 42.8711C64.5513 45.2139 64.5839 47.5577 64.5513 49.9024Z" fill="#6D8C44"/>
<path fill-rule="evenodd" clip-rule="evenodd" d="M52.832 49.9023C52.8647 62.0119 52.832 74.1213 52.7344 86.2305C51.7281 87.9834 50.2633 88.4717 48.3399 87.6953C38.7344 80.9838 29.1641 74.2455 19.6289 67.4805C19.8238 61.6545 19.8889 55.7951 19.8242 49.9023C30.8268 49.9023 41.8295 49.9023 52.832 49.9023Z" fill="#63744C"/>
<path fill-rule="evenodd" clip-rule="evenodd" d="M58.6919 49.9023C60.645 49.9023 62.5982 49.9023 64.5513 49.9023C64.5839 52.2471 64.5513 54.5908 64.4536 56.9336C63.4474 58.6865 61.9825 59.1748 60.0591 58.3984C59.4784 58.0537 59.0552 57.5654 58.7896 56.9336C58.6919 54.5908 58.6593 52.2471 58.6919 49.9023Z" fill="#88B367"/>
<path fill-rule="evenodd" clip-rule="evenodd" d="M70.4107 49.9023C72.3638 49.9023 74.3169 49.9023 76.27 49.9023C76.3027 57.1293 76.27 64.3559 76.1724 71.582C75.1661 73.335 73.7013 73.8232 71.7779 73.0469C71.1972 72.7021 70.774 72.2139 70.5083 71.582C70.4107 64.3559 70.3781 57.1293 70.4107 49.9023Z" fill="#88B367"/>
<path fill-rule="evenodd" clip-rule="evenodd" d="M82.1294 49.9023C84.0825 49.9023 86.0357 49.9023 87.9888 49.9023C88.0214 53.2232 87.9888 56.5436 87.8911 59.8633C86.8849 61.6162 85.42 62.1045 83.4966 61.3281C82.9159 60.9834 82.4927 60.4951 82.2271 59.8633C82.1294 56.5436 82.0968 53.2232 82.1294 49.9023Z" fill="#88B367"/>
<path fill-rule="evenodd" clip-rule="evenodd" d="M94.0435 49.9023C95.9966 49.9023 97.9497 49.9023 99.9029 49.9023C99.9029 55.1758 99.9029 60.4492 99.9029 65.7227C98.8595 67.4715 97.3622 67.9598 95.4107 67.1875C94.83 66.8428 94.4068 66.3545 94.1411 65.7227C94.0435 60.4496 94.0109 55.1762 94.0435 49.9023Z" fill="#88B367"/>
</g>
<defs>
<clipPath id="clip0_2588_4511">
<rect width="100" height="100" fill="white"/>
</clipPath>
</defs>
</svg>
