<svg width="100" height="100" viewBox="0 0 100 100" fill="none" xmlns="http://www.w3.org/2000/svg">
<g clip-path="url(#clip0_2588_4727)">
<path opacity="0.993" fill-rule="evenodd" clip-rule="evenodd" d="M99.9029 11.0181C99.9029 24.383 99.9029 37.7478 99.9029 51.1127C98.9601 54.55 96.7464 56.7235 93.2622 57.633C91.5117 57.8597 89.7538 57.957 87.9888 57.9249C88.0214 64.2184 87.9888 70.5115 87.8911 76.8045C83.9134 72.4195 79.9095 68.0726 75.8794 63.764C75.7175 52.4888 75.6199 41.2 75.5865 29.8976C74.4415 26.0308 71.8701 23.8573 67.8716 23.3773C53.2234 23.28 38.5749 23.2475 23.9263 23.28C23.8937 19.5165 23.9263 15.7536 24.024 11.9912C24.6019 8.10633 26.7829 5.60853 30.5669 4.49781C34.988 4.27818 39.4152 4.18087 43.8482 4.20586C60.1242 4.32618 76.4001 4.4235 92.6763 4.49781C96.4062 5.24805 98.815 7.42145 99.9029 11.0181Z" fill="#9A8E4E"/>
<path opacity="0.995" fill-rule="evenodd" clip-rule="evenodd" d="M23.9258 23.28C38.5744 23.2475 53.2229 23.28 67.8711 23.3773C71.8695 23.8573 74.441 26.0307 75.5859 29.8975C75.6193 41.1999 75.717 52.4887 75.8789 63.7639C75.9412 65.9134 75.8436 68.0544 75.5859 70.1868C74.4709 73.8096 72.0295 75.918 68.2617 76.5125C58.1037 76.542 47.9475 76.6719 37.793 76.9017C32.0277 83.1333 26.2986 89.3941 20.6055 95.6839C20.4102 89.3922 20.3451 83.0989 20.4102 76.8044C16.3081 76.8369 12.2065 76.8044 8.10547 76.7071C3.80146 76.341 1.06709 74.1027 -0.0976562 69.9922C-0.0976562 56.6272 -0.0976562 43.2625 -0.0976562 29.8975C0.894727 26.7351 2.97807 24.6264 6.15234 23.5719C12.0697 23.2891 17.9942 23.1918 23.9258 23.28Z" fill="#C1B262"/>
<path fill-rule="evenodd" clip-rule="evenodd" d="M14.9408 38.6561C22.6234 38.6236 30.3057 38.6561 37.9877 38.7534C39.3795 39.1666 39.8027 40.0425 39.2572 41.381C39.0201 41.6825 38.7272 41.9094 38.3783 42.0622C30.6309 42.192 22.8836 42.192 15.1361 42.0622C13.8755 41.7086 13.4523 40.8975 13.8666 39.6293C14.2044 39.2591 14.5625 38.9346 14.9408 38.6561Z" fill="#F0ECC3"/>
<path fill-rule="evenodd" clip-rule="evenodd" d="M14.9417 48.9717C30.111 48.9392 45.2804 48.9717 60.4495 49.069C61.9292 49.5853 62.2872 50.526 61.5237 51.8912C61.2019 52.1281 60.8439 52.2902 60.4495 52.3778C45.2151 52.5076 29.9808 52.5076 14.7464 52.3778C13.4 51.1461 13.4651 50.0106 14.9417 48.9717Z" fill="#F0ECC3"/>
<path fill-rule="evenodd" clip-rule="evenodd" d="M14.9414 59.2873C30.1107 59.2548 45.28 59.2873 60.4492 59.3847C61.9289 59.901 62.2869 60.8417 61.5234 62.2069C61.2015 62.4437 60.8435 62.6059 60.4492 62.6934C45.3451 62.8233 30.2408 62.8233 15.1367 62.6934C13.8681 62.3341 13.4449 61.5233 13.8672 60.2605C14.205 59.8903 14.563 59.5659 14.9414 59.2873Z" fill="#F0ECC3"/>
</g>
<defs>
<clipPath id="clip0_2588_4727">
<rect width="100" height="99.6528" fill="white" transform="translate(0 0.21582)"/>
</clipPath>
</defs>
</svg>
