<svg width="130" height="80" viewBox="0 0 130 80" fill="none" xmlns="http://www.w3.org/2000/svg">
<path d="M42.8193 20.3825L76.5392 3.70807L76.4723 4.90863L42.7524 21.5831L42.8193 20.3825Z" fill="#C84030"/>
<path d="M33.7199 25.585L0.00012207 47.7287L0.0670265 48.8626L33.7869 26.7189L33.7199 25.585Z" fill="#C84030"/>
<path d="M41.0793 20.4494L39.3398 20.5828L36.9981 21.9835L35.2586 23.7843L34.7234 24.9849L37.065 22.4503L39.2729 21.1831L41.8153 20.9163L41.0793 20.4494Z" fill="#E3BD5E"/>
<path d="M41.8156 20.9162V21.9833L39.8085 24.8513L36.7978 26.5855L34.7238 25.9852V24.9847L33.7202 25.585V27.1858L36.4633 27.9194L40.143 25.8518L42.8192 21.9833V20.3826L41.8156 20.9162Z" fill="#C84030"/>
<path d="M94.9362 52.5305L92.0593 50.863V49.8625L94.9362 51.53L95.2707 51.7968L94.9362 52.5305Z" fill="#6D63CE"/>
<path d="M90.12 55.3987H87.5776V57.4664H90.12V55.3987Z" fill="#24227A"/>
<path d="M89.9194 57.1331L83.4966 53.4648L88.7151 50.33L92.9301 55.399L92.0603 56.4662L89.9194 57.1331Z" fill="#6D63CE"/>
<path d="M92.9311 55.3988L86.5083 51.7304L88.5823 48.8624L94.9383 52.5308L94.2692 54.2649L92.9311 55.3988Z" fill="#24227A"/>
<path d="M94.2023 50.33L92.4628 50.4634L90.1212 51.864L88.3817 53.6648L87.9133 55.5991L90.1881 53.0646L92.3959 51.7306L94.9383 51.5305L94.2023 50.33Z" fill="#24227A"/>
<path d="M53.1891 79.4771L0.0670265 48.8627L0.00012207 47.7289L45.2944 61.8021L53.3229 78.1431L53.1891 79.4771Z" fill="#24227A"/>
<path d="M53.1222 78.3428L0.00012207 47.7284L33.7199 25.5847L34.7235 24.9844L87.9125 55.5988L86.842 56.1324L53.1222 78.3428Z" fill="#855453"/>
<path d="M86.8427 57.7996L85.8391 57.1993L86.3743 56.599L87.4448 56.7991L86.8427 57.7996Z" fill="#673237"/>
<path d="M123.705 37.7234L115.476 32.9878L121.43 29.5195L129.726 34.2551L123.705 37.7234Z" fill="#855453"/>
<path d="M129.728 34.256L96.008 50.9305L94.9376 51.5307V52.5312L92.9304 55.3992L89.9197 57.1334L87.9126 56.5998V55.5993L86.8421 56.1329L53.1223 78.3433L53.1892 79.4772L86.8421 57.3335V57.8003L89.5852 58.534L93.265 56.3997L96.008 52.5312V52.131L129.594 35.4565L129.728 34.256Z" fill="#24227A"/>
<path d="M38.2705 21.1827V18.7816L38.4043 18.7149L38.4712 18.6482L44.0243 12.9789L60.0813 4.64163L73.7968 0.239563L126.919 30.7872L91.3926 51.797L38.2705 21.1827Z" fill="#F1F0FF"/>
<path d="M80.6214 8.97736L72.2584 11.712L56.2682 19.9825L53.4583 22.7838L78.5474 37.2573L81.3574 34.456L97.4145 26.1187L105.711 23.4508L80.6214 8.97736Z" fill="#BBB1EF"/>
<path d="M91.3921 51.7974V49.3296L97.1459 43.5268L113.203 35.2563L126.918 30.7875L128.925 34.656L96.0085 50.9303L94.938 51.5306L94.2021 50.997L92.4626 51.1304L91.3921 51.7974Z" fill="#BBB1EF"/>
<path d="M53.6576 78.0088L0.535522 47.3945L2.54265 41.1916L56.869 71.0723L53.6576 78.0088Z" fill="#BBB1EF"/>
<path d="M38.2691 18.7817L38.2022 18.8484H38.0015L32.2477 19.7155L16.1906 29.9203L2.54211 41.1922L55.6642 71.8066L91.3912 49.3294L38.2691 18.7817Z" fill="#F1F0FF"/>
<path d="M40.4766 24.5175L41.614 24.3174L40.1421 23.3837L39.0047 23.5838L23.0146 33.7885L12.8451 42.1925L14.317 43.0596L24.4865 34.6556L40.4766 24.5175Z" fill="#BBB1EF"/>
<path d="M44.7581 26.9191L45.8955 26.719L44.3567 25.8519L43.2862 26.052L27.2292 36.1901L17.0597 44.6607L18.5316 45.4611L28.7011 37.0572L44.7581 26.9191Z" fill="#BBB1EF"/>
<path d="M48.9753 29.3197L50.1127 29.1863L48.5739 28.3193L47.4365 28.4527L31.4463 38.6575L21.2769 47.0614L22.7488 47.9285L32.9182 39.5245L48.9753 29.3197Z" fill="#BBB1EF"/>
<path d="M53.1891 31.7879L54.3265 31.5878L52.7877 30.7207L51.7173 30.9208L35.6602 41.0589L25.4907 49.4628L26.9626 50.3299L37.1321 41.926L53.1891 31.7879Z" fill="#BBB1EF"/>
<path d="M57.4035 34.1885L58.5409 33.9884L57.0021 33.188L55.9316 33.3214L39.8745 43.5262L29.7051 51.9302L31.2439 52.7972L41.3464 44.3933L57.4035 34.1885Z" fill="#BBB1EF"/>
<path d="M61.6181 36.5904L62.7555 36.457L61.2167 35.5899L60.1462 35.79L44.0891 45.9281L33.9197 54.3987L35.4585 55.1991L45.561 46.7952L61.6181 36.5904Z" fill="#BBB1EF"/>
<path d="M65.9013 39.0572L66.9718 38.8571L65.4999 37.99L64.3625 38.1901L48.3055 48.3282L38.136 56.7988L39.6748 57.6659L49.8443 49.1952L65.9013 39.0572Z" fill="#BBB1EF"/>
<path d="M70.048 41.4591L71.1854 41.3257L69.7135 40.4587L68.5761 40.5921L52.5191 50.7969L42.4165 59.2008L43.8884 60.0679L54.0579 51.6639L70.048 41.4591Z" fill="#BBB1EF"/>
<path d="M74.3322 43.926L75.4027 43.7259L73.9308 42.8588L72.7934 43.0589L56.8033 53.2637L46.6338 61.6009L48.1057 62.468L58.2752 54.0641L74.3322 43.926Z" fill="#BBB1EF"/>
<path d="M78.1444 45.3275L77.007 45.4609L61.0169 55.6657L50.8474 64.0696L52.3193 64.9367L62.4888 56.5328L78.5458 46.328L79.6163 46.1946L78.1444 45.3275Z" fill="#BBB1EF"/>
<path d="M91.3918 51.7975V49.3297L85.4373 50.2635L69.3802 60.4683L55.6648 71.8069L53.6577 78.0098L86.8423 56.1329L87.9128 55.5993L88.3811 54.3988L90.1206 52.5312L91.3918 51.7975Z" fill="#BBB1EF"/>
<path d="M91.1245 49.3958L38.0024 18.8482L38.2701 18.7815L38.4708 18.6481L91.526 49.1957L91.4591 49.4625L91.1245 49.3958Z" fill="#BBB1EF"/>
</svg>
