<svg width="107" height="68" viewBox="0 0 107 68" fill="none" xmlns="http://www.w3.org/2000/svg">
<path d="M46.1291 60.9802L0.000488281 34.7495L60.1217 0.610107L106.25 26.8408L46.1291 60.9802Z" fill="#D4FCDC"/>
<path d="M34.2107 21.1734L43.182 26.2482L52.2203 21.1734L43.182 16.0327L34.2107 21.1734ZM43.182 17.6144L49.4084 21.1734L43.182 24.6664L36.9556 21.1734L43.182 17.6144Z" fill="#6BB579"/>
<path d="M51.6852 23.0178L46.4631 25.9836L72.172 40.6148L77.461 37.5831L51.6852 23.0178Z" fill="#6BB579"/>
<path d="M10.9124 34.3546L20.0845 39.4953L29.1228 34.3546L20.0845 29.2139L10.9124 34.3546ZM20.0845 30.7956L26.3109 34.3546L20.0845 37.9135L13.8582 34.3546L20.0845 30.7956Z" fill="#6BB579"/>
<path d="M23.1648 39.2307L48.9406 53.7959L54.2296 50.8302L28.4539 36.199L23.1648 39.2307Z" fill="#6BB579"/>
<path d="M22.5625 27.7639L31.6008 32.8387L40.5721 27.7639L31.6008 22.6232L22.5625 27.7639ZM31.6008 24.2049L37.7602 27.7639L31.6008 31.2569L25.3744 27.7639L31.6008 24.2049Z" fill="#6BB579"/>
<path d="M34.8149 32.5743L60.5238 47.2055L65.8128 44.2397L40.104 29.6085L34.8149 32.5743Z" fill="#6BB579"/>
<path d="M25.373 27.3019L32.0011 28.1587L32.068 24.7316L26.779 24.9952L29.7248 19.9863H23.6993L23.6323 25.127L12.1838 25.7202L23.6323 27.1042L23.5654 30.2677L25.373 27.3019Z" fill="#08300D"/>
<path d="M73.6453 14.2529L64.5401 16.1642H64.1384L66.9503 10.7599L67.8876 11.2871L65.4105 15.1756L72.1055 13.7257L73.6453 14.2529Z" fill="#6BB579"/>
<path d="M73.9788 20.7113H72.2381L68.6897 18.6682V17.6796L73.1084 15.1752H74.8491L78.3975 17.2182V18.2068L73.9788 20.7113ZM73.644 20.3817L77.3932 18.2727V17.4819L74.5144 15.8342H73.644L69.9617 17.9432V18.4046L72.8406 20.0522L73.644 20.3817Z" fill="#6BB579"/>
<path d="M83.0839 20.8431L81.678 19.9863L76.322 23.0839L75.5186 22.5567L80.8746 19.525L79.4686 18.7341L80.339 18.2728L84.0212 20.3159L83.0839 20.8431Z" fill="#6BB579"/>
<path d="M81.9471 26.248L78.6665 24.4026L84.8929 20.8437L88.1065 22.689L87.0353 23.2163L84.6251 21.8323L82.8844 22.8209L84.692 23.8754L83.8886 24.3367L82.014 23.2822L80.3403 24.4026L82.6835 25.7207L81.9471 26.248Z" fill="#6BB579"/>
<path d="M87.4368 27.5L96.2072 32.5089L99.3539 30.7295L90.5834 25.7206L87.4368 27.5Z" fill="#6BB579"/>
<path d="M62.0629 9.50778L53.2255 4.4989L50.0789 6.27837L58.9163 11.2872L62.0629 9.50778Z" fill="#6BB579"/>
<path d="M0 36.0023V35.6069L46.1286 61.8376L106.25 27.6322V28.0277L46.1286 62.233L0 36.0023Z" fill="#98E5AA"/>
<path d="M0 37.2542V36.8588L46.1286 63.0895L106.25 28.8842V29.2796L46.1286 63.4849L0 37.2542Z" fill="#98E5AA"/>
<path d="M0 38.5062V38.1108L46.1286 64.3415L106.25 30.202V30.5316L46.1286 64.7369L0 38.5062Z" fill="#98E5AA"/>
<path d="M0 39.7582V39.3627L46.1286 65.5934L106.25 31.454V31.8494L46.1286 65.9889L0 39.7582Z" fill="#98E5AA"/>
<path d="M0 41.0112V40.6817L46.1286 66.8464L106.25 32.707V33.1024L46.1286 67.2419L0 41.0112Z" fill="#98E5AA"/>
</svg>
