<svg width="101" height="110" viewBox="0 0 101 110" fill="none" xmlns="http://www.w3.org/2000/svg">
<path d="M14.8305 51.8676C14.9596 50.6051 15.3737 49.3885 16.0417 48.3095C16.7096 47.2304 17.614 46.3172 18.6864 45.6388L85.7943 6.63461C86.1888 6.40682 86.6364 6.2869 87.092 6.2869C87.5476 6.2869 87.9951 6.40682 88.3896 6.63461L79.8621 1.14734C79.454 0.920067 78.9945 0.800781 78.5274 0.800781C78.0602 0.800781 77.6008 0.920067 77.1926 1.14734L10.4555 39.8549C9.36864 40.5752 8.46665 41.5412 7.82253 42.6749C7.17841 43.8085 6.81025 45.0779 6.74787 46.3803V76.0412L0 98.287L8.60168 103.255L14.8305 81.6768V51.8676Z" fill="#6BB579"/>
<path d="M14.8293 51.8675C14.8873 50.4106 15.3495 48.9985 16.1641 47.7891C16.8315 46.8913 17.6934 46.1562 18.6853 45.6387L22.2446 43.1917L83.8652 7.74684L85.7932 6.63455C86.1877 6.40676 86.6353 6.28684 87.0908 6.28684C87.5464 6.28684 87.994 6.40676 88.3885 6.63455L79.861 1.14727C79.4528 0.920006 78.9934 0.80072 78.5262 0.80072C78.0591 0.80072 77.5996 0.920006 77.1915 1.14727L75.2635 2.25956L13.8653 38.2235L10.0836 40.3739C8.98955 40.9342 8.06722 41.7796 7.41409 42.8209C6.59951 44.0303 6.13737 45.4423 6.07935 46.8993V76.5603L14.8293 81.6768V51.8675Z" fill="#98E5AA"/>
<path d="M83.8658 7.74684L85.7938 6.63455C86.1883 6.40676 86.6359 6.28684 87.0915 6.28684C87.547 6.28684 87.9946 6.40676 88.3891 6.63455L79.8616 1.14727C79.4535 0.920006 78.994 0.80072 78.5269 0.80072C78.0597 0.80072 77.6003 0.920006 77.1921 1.14727L75.2642 2.25956L83.8658 7.74684Z" fill="#6BB579"/>
<path d="M88.3887 6.33794C87.9942 6.11015 87.5466 5.99023 87.0911 5.99023C86.6355 5.99023 86.1879 6.11015 85.7934 6.33794L82.1599 8.56251L18.6855 45.6387C17.613 46.3172 16.7087 47.2304 16.0408 48.3094C15.3728 49.3884 14.9587 50.6051 14.8296 51.8675V81.5285L8.52661 103.107L26.1749 87.164L31.4397 84.1238L85.7934 53.0539C86.8762 52.3294 87.775 51.3623 88.4186 50.2296C89.0623 49.0968 89.4329 47.8296 89.501 46.5285V8.56251C89.5167 8.12824 89.423 7.69699 89.2287 7.30831C89.0344 6.91964 88.7456 6.58598 88.3887 6.33794V6.33794Z" fill="#D4FCDC"/>
<path d="M89.5008 8.56251C89.5164 8.12824 89.4228 7.69699 89.2285 7.30831C89.0341 6.91964 88.7453 6.58598 88.3885 6.33794V6.33794C87.9939 6.11015 87.5464 5.99023 87.0908 5.99023C86.6352 5.99023 86.1877 6.11015 85.7931 6.33794L18.6852 45.6387C17.1344 46.6379 15.9603 48.125 15.3484 49.8654C15.8197 49.3387 16.3701 48.8884 16.9797 48.5306L84.0876 9.74895C84.4935 9.51466 84.9538 9.39131 85.4224 9.39131C85.891 9.39131 86.3513 9.51466 86.7571 9.74895V9.74895C87.1288 10.0306 87.4203 10.4047 87.6024 10.8341C87.7846 11.2634 87.8511 11.733 87.7953 12.196V49.1239C87.7858 49.88 87.6608 50.6302 87.4245 51.3484C88.6698 49.9234 89.4009 48.1218 89.5008 46.2319V8.56251Z" fill="#6BB579"/>
<path d="M81.5675 22.4293L24.7667 55.353C24.7667 55.353 24.0994 55.353 24.0994 54.8339V53.0542C24.1022 52.7957 24.1637 52.5412 24.2793 52.31C24.3949 52.0788 24.5616 51.8768 24.7667 51.7195L81.5675 18.9441C81.9382 18.9441 82.2348 18.9441 82.2348 19.4632V21.1687C82.2458 21.4192 82.1898 21.6681 82.0725 21.8897C81.9551 22.1113 81.7808 22.2976 81.5675 22.4293V22.4293Z" fill="#6BB579"/>
<path d="M62.6586 42.5243L24.8409 64.3251C24.396 64.3251 24.0994 64.3251 24.0994 63.8061V62.2489C24.099 61.9714 24.1664 61.6981 24.2956 61.4526C24.4249 61.2071 24.612 60.9968 24.8409 60.84L62.6586 39.0392C63.0294 39.0392 63.4001 39.0392 63.4001 39.5582V41.1154C63.384 41.3895 63.3095 41.657 63.1816 41.9C63.0537 42.143 62.8754 42.3559 62.6586 42.5243V42.5243Z" fill="#6BB579"/>
<path d="M52.4256 57.5032L24.915 73.3718C24.4701 73.3718 24.0994 73.3718 24.0994 72.7786V71.3697C24.1015 71.0742 24.1772 70.7839 24.3196 70.525C24.462 70.266 24.6666 70.0467 24.915 69.8866L52.4256 53.9438C52.8705 53.9438 53.2413 53.9438 53.2413 54.6112V55.946C53.2327 56.2505 53.1548 56.549 53.0135 56.8189C52.8721 57.0887 52.671 57.3228 52.4256 57.5032V57.5032Z" fill="#6BB579"/>
<path d="M82.7551 23.3929L25.806 55.9458C25.806 55.9458 25.1387 55.9458 25.1387 55.4268V53.7213C25.1414 53.4732 25.2035 53.2293 25.3195 53.0101C25.4356 52.7908 25.6024 52.6024 25.806 52.4607L82.7551 19.537C83.1258 19.537 83.4224 19.537 83.4224 20.0561V21.7616C83.4703 22.0685 83.4334 22.3827 83.3158 22.6702C83.1982 22.9577 83.0043 23.2076 82.7551 23.3929Z" fill="white"/>
<path d="M25.6565 53.7211C25.6732 53.5828 25.7222 53.4503 25.7995 53.3344C25.8768 53.2185 25.9802 53.1223 26.1014 53.0537L82.9021 20.2042V21.9097C82.9572 22.0386 82.9856 22.1773 82.9856 22.3175C82.9856 22.4577 82.9572 22.5965 82.9021 22.7254L25.6565 55.4266V53.7211Z" fill="#2E6B38"/>
<path d="M63.6979 43.1172L25.8802 64.9922C25.5094 64.9922 25.1387 64.9922 25.1387 64.399V62.8418C25.1548 62.5677 25.2293 62.3002 25.3572 62.0572C25.4851 61.8142 25.6634 61.6014 25.8802 61.4329L63.6979 39.6321C64.1428 39.6321 64.4394 39.6321 64.4394 40.1511V41.7083C64.4397 41.9858 64.3724 42.2591 64.2432 42.5046C64.1139 42.7501 63.9268 42.9604 63.6979 43.1172Z" fill="white"/>
<path d="M25.6565 62.8422C25.6743 62.655 25.7294 62.4733 25.8186 62.3078C25.9077 62.1422 26.0291 61.9962 26.1756 61.8783L63.9191 40.0775V41.7088C63.9149 41.8914 63.8732 42.0711 63.7966 42.2369C63.7201 42.4027 63.6104 42.5511 63.4742 42.6728L25.6565 64.4736V62.8422Z" fill="#2E6B38"/>
<path d="M53.4649 58.0962L25.9543 73.9648C25.5094 73.9648 25.1387 73.9648 25.1387 73.3716V72.0368C25.1415 71.7312 25.2169 71.4306 25.3587 71.1599C25.5005 70.8891 25.7047 70.656 25.9543 70.4796L53.4649 54.611C53.9098 54.611 54.2806 54.611 54.2806 55.2042V56.539C54.2778 56.8446 54.2023 57.1452 54.0605 57.416C53.9187 57.6867 53.7145 57.9199 53.4649 58.0962V58.0962Z" fill="white"/>
<path d="M25.6565 73.5203V72.0373C25.6631 71.8264 25.7126 71.6191 25.8018 71.4278C25.891 71.2366 26.0182 71.0656 26.1756 70.925L53.7602 55.0564V56.5394C53.7536 56.7503 53.7042 56.9577 53.6149 57.1489C53.5257 57.3401 53.3985 57.5112 53.2412 57.6517L25.6565 73.5203Z" fill="#2E6B38"/>
<path d="M85.3503 4.55827L84.238 5.00319L16.4627 44.1556C15.3564 44.8794 14.4371 45.8546 13.7798 47.0016C13.1226 48.1486 12.746 49.4348 12.6809 50.7552V80.8611L6.45215 101.995L8.60257 103.255L14.8314 81.6767V52.0158C14.9386 50.7274 15.3424 49.4813 16.0114 48.375C16.6803 47.2687 17.5962 46.3321 18.6873 45.6387L85.7952 6.63454C86.1897 6.40675 86.6373 6.28683 87.0929 6.28683C87.5484 6.28683 87.996 6.40675 88.3905 6.63454L85.3503 4.55827Z" fill="#2E6B38"/>
<path d="M91.1316 76.1154C91.1121 75.2949 90.9087 74.4893 90.5366 73.7578C90.1644 73.0263 89.6329 72.3876 88.9812 71.8887L44.8605 46.6028C44.6039 46.4454 44.3088 46.3621 44.0078 46.3621C43.7068 46.3621 43.4116 46.4454 43.155 46.6028L48.7165 43.3401C48.987 43.1839 49.2939 43.1016 49.6063 43.1016C49.9187 43.1016 50.2256 43.1839 50.4961 43.3401L94.246 68.5519C94.9542 69.0354 95.5428 69.6741 95.9668 70.4194C96.3909 71.1647 96.6392 71.9969 96.693 72.8527V92.3548L100.846 106.444L95.2842 109.706L91.1316 95.6175V76.1154Z" fill="#6BB579"/>
<path d="M91.1316 76.1154C91.0624 75.1653 90.7565 74.2476 90.2418 73.4459C89.9084 72.8622 89.4827 72.3364 88.9812 71.8887L86.46 70.4798L46.1211 47.3443L44.8605 46.6028C44.6039 46.4454 44.3088 46.3621 44.0078 46.3621C43.7068 46.3621 43.4116 46.4454 43.155 46.6028L48.7165 43.3401C48.987 43.1839 49.2939 43.1016 49.6063 43.1016C49.9187 43.1016 50.2256 43.1839 50.4961 43.3401L51.905 44.0816L91.9473 67.2171L94.3943 68.626C95.0434 69.0531 95.5986 69.6083 96.0257 70.2574C96.5397 71.0544 96.8221 71.9786 96.8414 72.9269V92.3548L91.2799 95.6175L91.1316 76.1154Z" fill="#98E5AA"/>
<path d="M46.1211 47.3443L44.8605 46.6028C44.6039 46.4454 44.3088 46.3621 44.0078 46.3621C43.7068 46.3621 43.4116 46.4454 43.155 46.6028L48.7165 43.3401C48.987 43.1839 49.2939 43.1016 49.6063 43.1016C49.9187 43.1016 50.2256 43.1839 50.4961 43.3401L51.905 44.0816L46.1211 47.3443Z" fill="#6BB579"/>
<path d="M43.1572 46.4544C43.4138 46.2971 43.709 46.2138 44.01 46.2138C44.311 46.2138 44.6061 46.2971 44.8627 46.4544L47.2356 47.8633L88.9834 71.8887C89.6899 72.3564 90.2785 72.9814 90.7031 73.7148C91.1276 74.4481 91.3766 75.2697 91.4304 76.1154V95.6174L95.5829 109.706L83.7927 99.1767L80.3076 97.5454L44.8627 76.7086C44.1522 76.2451 43.5605 75.6211 43.1354 74.8869C42.7104 74.1527 42.4638 73.3289 42.4157 72.4819V48.0116C42.3897 47.7096 42.4448 47.4061 42.5751 47.1324C42.7054 46.8587 42.9064 46.6246 43.1572 46.4544Z" fill="#D4FCDC"/>
<path d="M42.415 48.0116C42.389 47.7096 42.444 47.4061 42.5744 47.1324C42.7047 46.8587 42.9057 46.6246 43.1565 46.4544V46.4544C43.4131 46.2971 43.7082 46.2138 44.0092 46.2138C44.3103 46.2138 44.6054 46.2971 44.862 46.4544L88.9827 71.8887C89.9666 72.5902 90.7161 73.5723 91.1331 74.7065C90.8437 74.329 90.4928 74.0031 90.095 73.7425L45.9743 48.4565C45.7127 48.3137 45.4195 48.2389 45.1215 48.2389C44.8235 48.2389 44.5303 48.3137 44.2688 48.4565H44.4912C44.2398 48.6436 44.0399 48.8914 43.9103 49.1766C43.7806 49.4619 43.7254 49.7754 43.7497 50.0879V74.3357C43.6385 74.8238 43.6385 75.3307 43.7497 75.8187C42.9056 74.9046 42.4073 73.7244 42.3408 72.4819L42.415 48.0116Z" fill="#6BB579"/>
<path d="M47.5323 56.9842L84.6085 78.4143H85.0534V77.2278C85.054 77.0654 85.0135 76.9055 84.9357 76.7629C84.8579 76.6203 84.7454 76.4996 84.6085 76.4122L47.5323 54.9821H47.0874V56.0944C47.0927 56.2661 47.1353 56.4346 47.2121 56.5882C47.2889 56.7418 47.3982 56.877 47.5323 56.9842V56.9842Z" fill="#6BB579"/>
<path d="M59.9875 70.035L84.6803 84.2723H85.1252V82.7151C85.1199 82.5434 85.0773 82.3749 85.0005 82.2213C84.9237 82.0676 84.8144 81.9325 84.6803 81.8252L59.9875 67.8846H59.3202V68.9227C59.2886 69.1563 59.3374 69.3938 59.4587 69.5959C59.58 69.7981 59.7665 69.9529 59.9875 70.035Z" fill="#6BB579"/>
<path d="M66.7384 79.8226L84.6092 90.1298H85.1282V89.1658C85.1255 88.9752 85.0769 88.7881 84.9865 88.6203C84.8962 88.4525 84.7667 88.309 84.6092 88.2018L66.7384 77.5239H66.2194V78.4137C66.1302 78.6724 66.1331 78.9539 66.2277 79.2107C66.3223 79.4675 66.5027 79.6836 66.7384 79.8226V79.8226Z" fill="#6BB579"/>
<path d="M46.8622 57.3544L83.9383 78.7845H84.3833V77.6722C84.3914 77.5084 84.3542 77.3456 84.2757 77.2016C84.1972 77.0577 84.0804 76.9383 83.9383 76.8565L46.8622 55.3523C46.8622 55.3523 46.4172 55.3523 46.4172 55.7231V56.8353C46.4971 57.0569 46.6554 57.2416 46.8622 57.3544V57.3544Z" fill="white"/>
<path d="M84.0896 77.3757C84.1461 77.2073 84.1461 77.025 84.0896 76.8566L47.0134 55.4266V56.5389C46.9741 56.6197 46.9536 56.7085 46.9536 56.7984C46.9536 56.8883 46.9741 56.9771 47.0134 57.058L84.0896 78.488V77.3757Z" fill="#2E6B38"/>
<path d="M59.322 70.4799L84.0147 84.7172H84.5338V83.679C84.5254 83.4999 84.4739 83.3254 84.3835 83.1704C84.2931 83.0155 84.1666 82.8847 84.0147 82.7892L59.322 67.8846C59.322 67.8846 58.8771 67.8846 58.8771 68.2553V69.2193C58.8339 69.45 58.8522 69.688 58.9303 69.9093C59.0085 70.1307 59.1435 70.3275 59.322 70.4799V70.4799Z" fill="white"/>
<path d="M84.0907 83.3079C84.1315 83.2144 84.1526 83.1134 84.1526 83.0113C84.1526 82.9092 84.1315 82.8083 84.0907 82.7147L59.3238 68.4774V69.5156C59.2443 69.7309 59.2443 69.9676 59.3238 70.183L83.9423 84.3461L84.0907 83.3079Z" fill="#2E6B38"/>
<path d="M65.92 80.1937L83.939 90.575C83.939 90.575 84.458 90.575 84.458 90.2043V89.3144C84.4502 89.1144 84.3999 88.9184 84.3104 88.7394C84.2209 88.5604 84.0943 88.4025 83.939 88.2763L65.92 77.895C65.92 77.895 65.4009 77.895 65.4009 78.3399V79.2297C65.4036 79.4203 65.4522 79.6073 65.5426 79.7751C65.6329 79.9429 65.7624 80.0865 65.92 80.1937V80.1937Z" fill="white"/>
<path d="M84.0894 90.1303V89.2405C84.0924 89.0961 84.0602 88.9531 83.9956 88.8239C83.931 88.6947 83.8359 88.5832 83.7186 88.4989L65.7737 78.1176V79.1558C65.7598 79.2916 65.7879 79.4284 65.8542 79.5477C65.9205 79.667 66.0218 79.7632 66.1445 79.8231L84.0894 90.1303Z" fill="#2E6B38"/>
<path d="M45.1571 45.6389H45.8245L90.3159 71.2215C91.0588 71.6743 91.6779 72.3041 92.1179 73.0546C92.5578 73.8051 92.8049 74.6529 92.8371 75.5223V95.1727L96.3964 108.891L95.0617 109.707L90.9092 95.6176V76.1155C90.9165 75.3129 90.7477 74.5184 90.4145 73.7881C90.0814 73.0578 89.5921 72.4095 88.9812 71.8889L44.8605 46.6029C44.599 46.4601 44.3058 46.3853 44.0078 46.3853C43.7098 46.3853 43.4166 46.4601 43.155 46.6029L45.1571 45.6389Z" fill="#2E6B38"/>
</svg>
