<svg width="80" height="119" viewBox="0 0 80 119" fill="none" xmlns="http://www.w3.org/2000/svg">
<path d="M3.19404 89.1266L2.6582 45.9908L75.6662 3.25323V59.5952L3.19404 89.1266Z" fill="#FDECC9"/>
<path d="M73.8572 3.98242V72.4688L3.66235 112.685L5.20289 115.87L73.8572 76.6496L76.9383 76.9151V4.31424L73.8572 3.98242Z" fill="#D1993F"/>
<path d="M59.7914 41.6766L60.3273 40.8803L56.7104 38.823C56.4317 38.6694 56.1049 38.6251 55.7948 38.6989C55.4847 38.7726 55.2139 38.959 55.0359 39.2212L45.0559 54.4846L34.674 45.592L35.1429 44.9284L31.526 42.8711C31.3953 42.7882 31.2489 42.7326 31.0958 42.7077C30.9427 42.6829 30.786 42.6893 30.6355 42.7266C30.4849 42.7638 30.3437 42.8312 30.2204 42.9246C30.0971 43.0179 29.9943 43.1352 29.9184 43.2693L3.66235 82.2906V110.229L7.27926 112.287L72.0487 73.1989V53.2901L59.7914 41.6766Z" fill="#27DEBF"/>
<path d="M59.7914 41.6766L60.3273 40.8803L56.7104 38.823C56.4317 38.6694 56.1049 38.6251 55.7948 38.6989C55.4847 38.7726 55.2139 38.959 55.0359 39.2212L45.0559 54.4846L34.674 45.592L35.1429 44.9284L31.526 42.8711C31.3953 42.7882 31.2489 42.7326 31.0958 42.7077C30.9427 42.6829 30.786 42.6893 30.6355 42.7266C30.4849 42.7638 30.3437 42.8312 30.2204 42.9246C30.0971 43.0179 29.9943 43.1352 29.9184 43.2693L3.66235 82.2906V110.229L7.27926 112.287L72.0487 73.1989V53.2901L59.7914 41.6766Z" fill="#D1993F"/>
<path d="M7.27979 112.287V84.3483L33.5359 45.327C33.649 45.1999 33.7882 45.0981 33.9441 45.0284C34.1 44.9587 34.2691 44.9226 34.4401 44.9226C34.6112 44.9226 34.7802 44.9587 34.9361 45.0284C35.092 45.0981 35.2312 45.1999 35.3443 45.327L48.7403 56.8078L58.7203 41.5444C58.8333 41.4058 58.9762 41.294 59.1384 41.2173C59.3007 41.1405 59.4782 41.1006 59.658 41.1006C59.8378 41.1006 60.0153 41.1405 60.1776 41.2173C60.3398 41.294 60.4827 41.4058 60.5957 41.5444L75.7332 55.9451V72.403C75.7319 72.7614 75.6391 73.1137 75.4634 73.427C75.2878 73.7403 75.0349 74.0044 74.7285 74.1948L7.27979 112.287Z" fill="#FCCF7E"/>
<path opacity="0.15" d="M48.6721 56.542L54.0305 61.1874L49.3419 55.4802L48.6721 56.542Z" fill="black"/>
<path d="M79.2827 2.85467C79.2417 2.57566 79.1433 2.30797 78.9935 2.06823C78.8437 1.8285 78.6458 1.62183 78.412 1.46105L76.6035 0.200159C76.3089 0.0682331 75.9892 0 75.6658 0C75.3424 0 75.0228 0.0682331 74.7281 0.200159L0.983325 42.606C0.7129 42.7749 0.484046 43.0016 0.313526 43.2696C0.253239 43.5987 0.253239 43.9359 0.313526 44.265V116.202C0.328943 116.532 0.42172 116.854 0.584495 117.142C0.74727 117.43 0.97556 117.676 1.25124 117.861L2.92574 118.79C3.20089 118.907 3.49712 118.967 3.79648 118.967C4.09583 118.967 4.39207 118.907 4.66721 118.79V118.79L25.9668 106.381L78.345 76.3846C78.6106 76.1892 78.8315 75.9404 78.9931 75.6545C79.1547 75.3685 79.2534 75.052 79.2827 74.7255V2.85467V2.85467ZM76.9384 73.7301C76.923 74.0598 76.8302 74.3814 76.6675 74.6694C76.5047 74.9574 76.2764 75.2038 76.0007 75.3891L25.364 104.191L6.74359 115.207C6.20775 115.207 5.80587 115.207 5.80587 114.676V47.3177C5.74182 47.1026 5.7191 46.8775 5.73889 46.6541C5.96179 46.2273 6.31282 45.8795 6.74359 45.6586L76.3356 5.84099C76.8715 5.84099 77.2733 5.84099 77.2733 6.37189L76.9384 73.7301Z" fill="#FDECC9"/>
<path d="M4.59984 118.791C4.3247 118.908 4.02846 118.968 3.72911 118.968C3.42975 118.968 3.13352 118.908 2.85837 118.791L1.18387 117.862C0.870775 117.7 0.602985 117.463 0.404328 117.174C0.205671 116.885 0.0823082 116.551 0.0452159 116.203V44.2656C-0.015072 43.9365 -0.015072 43.5993 0.0452159 43.2701L3.66213 45.3938L5.7385 46.6546C5.65605 46.9589 5.65605 47.2794 5.7385 47.5837V114.676C5.7385 115.274 6.14038 115.473 6.67622 115.207L4.59984 118.791Z" fill="#D1993F"/>
<path d="M79.2839 2.85493C79.2839 2.45675 78.8151 2.32402 78.4132 2.85493L4.60146 44.6635C4.31365 44.8399 4.08158 45.0928 3.93166 45.3934C3.79691 45.5716 3.70311 45.7767 3.65682 45.9945C3.61054 46.2123 3.6129 46.4375 3.66374 46.6543V118.26C3.66374 118.791 3.66374 119.056 4.40052 118.923L78.0783 76.783C78.3439 76.5877 78.5648 76.3389 78.7264 76.0529C78.888 75.767 78.9867 75.4504 79.016 75.124V2.85493H79.2839ZM76.9397 73.7303C76.9242 74.0601 76.8315 74.3817 76.6687 74.6697C76.5059 74.9577 76.2776 75.2041 76.0019 75.3894L6.74481 115.207C6.20897 115.207 5.80709 115.207 5.80709 114.676V47.318C5.74305 47.1029 5.72033 46.8778 5.74011 46.6543C5.96302 46.2275 6.31404 45.8797 6.74481 45.6589L76.3368 5.84125C76.8727 5.84125 77.2746 5.84125 77.2746 6.37215L76.9397 73.7303Z" fill="#754F17"/>
<path d="M66.4234 24.2894L68.2318 21.2367L65.0838 19.4449C64.4874 19.2233 63.8411 19.168 63.2152 19.2851C62.5893 19.4021 62.0078 19.6869 61.5339 20.1085C60.0626 21.0611 58.8403 22.3456 57.9671 23.8568C57.0939 25.368 56.5946 27.0627 56.5104 28.802C56.4461 29.4082 56.542 30.0206 56.7886 30.579C57.0352 31.1374 57.424 31.6228 57.9169 31.9875V31.9875L60.998 33.3811L62.7395 30.4611C64.5764 28.8262 65.8623 26.6718 66.4234 24.2894V24.2894Z" fill="#D1993F"/>
<path opacity="0.15" d="M66.4234 24.2894L68.2318 21.2367L65.0838 19.4449C64.4874 19.2233 63.8411 19.168 63.2152 19.2851C62.5893 19.4021 62.0078 19.6869 61.5339 20.1085C60.0626 21.0611 58.8403 22.3456 57.9671 23.8568C57.0939 25.368 56.5946 27.0627 56.5104 28.802C56.4461 29.4082 56.542 30.0206 56.7886 30.579C57.0352 31.1374 57.424 31.6228 57.9169 31.9875V31.9875L60.998 33.3811L62.7395 30.4611C64.5764 28.8262 65.8623 26.6718 66.4234 24.2894V24.2894Z" fill="#D1993F"/>
<path d="M68.223 29.3771C70.202 25.9808 70.1962 22.3066 68.21 21.1704C66.2238 20.0342 63.0093 21.8664 61.0302 25.2626C59.0511 28.6589 59.0569 32.3332 61.0432 33.4694C63.0294 34.6055 66.2439 32.7734 68.223 29.3771Z" fill="#FCCF7E"/>
</svg>
