<svg width="60" height="127" viewBox="0 0 60 127" fill="none" xmlns="http://www.w3.org/2000/svg">
<path d="M0.81406 126.757C0.588745 126.608 0.402184 126.407 0.269985 126.172C0.137786 125.936 0.0637937 125.671 0.0541992 125.401L0.0541992 35.1542C0.0666484 34.863 0.150147 34.5794 0.29736 34.3282C0.444573 34.077 0.650995 33.866 0.898488 33.7136L57.297 0.83495C57.5763 0.662558 57.8978 0.571289 58.2257 0.571289C58.5536 0.571289 58.8751 0.662558 59.1544 0.83495C59.3798 0.983631 59.5663 1.18431 59.6985 1.42019C59.8307 1.65607 59.9047 1.9203 59.9143 2.19077V92.6071C59.9111 92.8906 59.8405 93.1692 59.7084 93.4198C59.5762 93.6704 59.3863 93.8856 59.1544 94.0476L2.41821 126.757C2.16964 126.883 1.89485 126.949 1.61613 126.949C1.33742 126.949 1.06263 126.883 0.81406 126.757V126.757Z" fill="#F1F0FF"/>
<path d="M1.57319 36.8487L24.5379 21.8499L22.9337 20.9178L0.897756 33.7133C0.650262 33.8657 0.443841 34.0768 0.296628 34.328C0.149415 34.5791 0.0659159 34.8628 0.0534668 35.1539L0.0534668 36.0013L1.57319 36.8487Z" fill="#BBB1EF"/>
<path d="M9.25728 39.56L0.0545282 34.7299C-0.0181761 34.9789 -0.0181761 35.2436 0.0545282 35.4926V125.4C0.0641227 125.671 0.138115 125.935 0.270314 126.171C0.402513 126.407 0.589074 126.608 0.814389 126.756C1.06296 126.883 1.33775 126.949 1.61646 126.949C1.89518 126.949 2.16997 126.883 2.41854 126.756L9.25728 122.774V39.56Z" fill="#24227A"/>
<path d="M2.41964 126.757L59.1559 94.0478C59.4034 93.8955 59.6098 93.6844 59.757 93.4332C59.9042 93.1821 59.9877 92.8984 60.0002 92.6073V2.36046C60.0002 1.85202 60.0002 1.68255 59.1559 2.36046L2.41964 34.7307C2.16103 34.8702 1.94555 35.0784 1.79667 35.3324C1.6478 35.5864 1.57124 35.8766 1.57535 36.1712V126.249C1.57535 126.757 1.91307 127.011 2.41964 126.757Z" fill="#6D63CE"/>
<path d="M6.30162 56.8476L19.8102 49.0516C20.739 48.5432 21.4144 49.0516 21.4144 49.8142C21.3854 50.3742 21.225 50.9194 20.9462 51.4054C20.6674 51.8913 20.2782 52.3043 19.8102 52.6106L6.30162 60.1524C5.3729 60.6608 4.61304 60.1524 4.61304 59.305C4.71065 58.8007 4.91102 58.3221 5.2016 57.8993C5.49217 57.4764 5.86667 57.1183 6.30162 56.8476V56.8476Z" fill="#F1F0FF"/>
<path d="M5.2899 71.2536L7.06291 70.2368H7.65391V72.2705C7.64501 72.499 7.58769 72.723 7.48579 72.9276C7.38388 73.1321 7.23972 73.3126 7.06291 73.4568L5.2899 74.4737C5.2216 74.5285 5.13804 74.5606 5.05077 74.5657C4.96349 74.5707 4.87679 74.5485 4.80266 74.502C4.72852 74.4555 4.6706 74.387 4.63689 74.3061C4.60318 74.2251 4.59535 74.1356 4.61447 74.05V72.3552C4.63371 72.1315 4.7048 71.9153 4.82207 71.7241C4.93935 71.5328 5.09956 71.3717 5.2899 71.2536V71.2536Z" fill="#F1F0FF"/>
<path d="M10.0186 69.3886L20.6567 63.2026C21.0788 63.2026 21.4166 63.2026 21.4166 63.2026C21.407 63.4731 21.333 63.7373 21.2008 63.9732C21.0686 64.2091 20.882 64.4098 20.6567 64.5585L10.0186 71.1681C9.5965 71.1681 9.25879 71.1681 9.25879 70.7444C9.26838 70.4739 9.34238 70.2097 9.47457 69.9738C9.60677 69.7379 9.79333 69.5373 10.0186 69.3886V69.3886Z" fill="#F1F0FF"/>
<path d="M5.28847 78.2857L7.06148 77.0993C7.06148 77.0993 7.65248 77.0993 7.65248 77.6925V79.7262C7.64936 79.944 7.59402 80.1578 7.49115 80.3495C7.38828 80.5413 7.24089 80.7053 7.06148 80.8278L5.28847 81.8447H4.61304V79.472C4.63742 79.238 4.71007 79.0117 4.82635 78.8075C4.94264 78.6032 5.10002 78.4255 5.28847 78.2857V78.2857Z" fill="#F1F0FF"/>
<path d="M10.0186 76.4225L20.6567 70.3213C21.0788 70.3213 21.4166 70.3213 21.4166 70.745C21.407 71.0155 21.333 71.2797 21.2008 71.5156C21.0686 71.7514 20.882 71.9521 20.6567 72.1008L10.0186 78.202C9.5965 78.202 9.25879 78.202 9.25879 77.7783C9.2807 77.5107 9.35994 77.251 9.49109 77.017C9.62223 76.783 9.80219 76.5802 10.0186 76.4225Z" fill="#F1F0FF"/>
<path d="M5.2899 85.5736L7.06291 84.5568H7.65391V86.5905C7.64501 86.819 7.58769 87.043 7.48579 87.2476C7.38388 87.4521 7.23972 87.6326 7.06291 87.7768L5.2899 88.7937C5.2216 88.8485 5.13804 88.8806 5.05077 88.8857C4.96349 88.8907 4.87679 88.8685 4.80266 88.822C4.72852 88.7755 4.6706 88.707 4.63689 88.6261C4.60318 88.5451 4.59535 88.4556 4.61447 88.37V86.3363C4.73937 86.0079 4.97959 85.7366 5.2899 85.5736V85.5736Z" fill="#F1F0FF"/>
<path d="M10.0166 83.5395L20.6546 77.0993C21.0768 77.0993 21.4145 77.0993 21.4145 77.0993C21.4049 77.3698 21.3309 77.634 21.1987 77.8699C21.0665 78.1058 20.88 78.3064 20.6546 78.4551L10.0166 85.5732C9.59445 85.5732 9.25674 85.5732 9.25674 85.1495C9.222 84.8368 9.27468 84.5205 9.40888 84.2362C9.54309 83.9518 9.75351 83.7106 10.0166 83.5395V83.5395Z" fill="#F1F0FF"/>
<path d="M5.2877 92.5229L7.0607 91.506H7.65171V94.0482C7.6428 94.2767 7.58548 94.5007 7.48358 94.7053C7.38167 94.9099 7.23752 95.0903 7.0607 95.2345L5.2877 96.2514C5.2194 96.3062 5.13584 96.3383 5.04856 96.3434C4.96128 96.3485 4.87459 96.3262 4.80045 96.2797C4.72631 96.2332 4.66839 96.1647 4.63468 96.0838C4.60097 96.0028 4.59314 95.9133 4.61227 95.8277V94.0482C4.55315 93.755 4.58641 93.4507 4.70745 93.1774C4.82848 92.904 5.03128 92.6753 5.2877 92.5229V92.5229Z" fill="#F1F0FF"/>
<path d="M10.0186 90.6582L20.6567 84.4722C21.0788 84.4722 21.4166 84.4722 21.4166 84.8959C21.407 85.1664 21.333 85.4306 21.2008 85.6665C21.0686 85.9024 20.882 86.1031 20.6567 86.2517L10.0186 92.4377C9.5965 92.4377 9.25879 92.4377 9.25879 92.014C9.26838 91.7435 9.34238 91.4793 9.47457 91.2434C9.60677 91.0075 9.79333 90.8068 10.0186 90.6582V90.6582Z" fill="#F1F0FF"/>
<path d="M5.45733 107.351L12.9715 102.945C13.4781 102.945 13.8158 102.945 13.8158 102.945C13.8049 103.225 13.7213 103.498 13.5732 103.735C13.4251 103.973 13.2177 104.168 12.9715 104.301L5.45733 108.707C5.41112 108.777 5.34839 108.834 5.27473 108.874C5.20107 108.914 5.11878 108.935 5.03518 108.935C4.95159 108.935 4.86929 108.914 4.79563 108.874C4.72198 108.834 4.65925 108.777 4.61304 108.707C4.63864 108.431 4.72833 108.164 4.87493 107.929C5.02153 107.693 5.22098 107.496 5.45733 107.351V107.351Z" fill="#F1F0FF"/>
<path d="M5.45774 110.995L20.6549 102.521C21.0771 102.521 21.4148 102.521 21.4148 102.944C21.3505 103.479 21.0772 103.967 20.6549 104.3L5.45774 112.774C5.03559 112.774 4.61345 112.774 4.61345 112.774C4.60686 112.432 4.67973 112.093 4.82627 111.784C4.97282 111.475 5.18901 111.205 5.45774 110.995V110.995Z" fill="#F0F0F0"/>
<path d="M5.45774 110.995L16.0114 104.894C16.5179 104.894 16.8556 104.894 16.8556 105.318C16.8447 105.598 16.7611 105.87 16.613 106.108C16.4649 106.346 16.2575 106.541 16.0114 106.673L5.45774 112.775C5.03559 112.775 4.61345 112.775 4.61345 112.775C4.60686 112.433 4.67973 112.094 4.82627 111.785C4.97282 111.476 5.18901 111.206 5.45774 110.995V110.995Z" fill="#F1F0FF"/>
<path d="M5.45733 114.385L12.9715 110.063C13.4781 110.063 13.8158 110.063 13.8158 110.063C13.7841 110.338 13.6918 110.602 13.5458 110.837C13.3998 111.071 13.2036 111.27 12.9715 111.419L5.45733 115.741C5.03518 115.741 4.61304 115.741 4.61304 115.741C4.63864 115.464 4.72833 115.198 4.87493 114.962C5.02153 114.727 5.22098 114.529 5.45733 114.385V114.385Z" fill="#F1F0FF"/>
<path d="M5.45733 100.235L12.9715 95.9129C13.4781 95.9129 13.8158 95.9129 13.8158 95.9129C13.8049 96.1931 13.7213 96.4656 13.5732 96.7034C13.4251 96.9412 13.2177 97.1361 12.9715 97.2687L5.45733 101.675C5.03518 101.675 4.61304 101.675 4.61304 101.675C4.62549 101.384 4.70899 101.1 4.8562 100.849C5.00341 100.598 5.20983 100.387 5.45733 100.235V100.235Z" fill="#F1F0FF"/>
<path d="M5.45845 103.793L20.6557 95.319C21.0778 95.319 21.4155 95.319 21.4155 95.7427C21.4059 96.0131 21.3319 96.2774 21.1997 96.5132C21.0675 96.7491 20.881 96.9498 20.6557 97.0985L5.45845 105.572C5.03631 105.572 4.61416 105.572 4.61416 105.572C4.56455 105.225 4.61821 104.871 4.76842 104.555C4.91863 104.238 5.15869 103.973 5.45845 103.793V103.793Z" fill="#6D63CE"/>
<path d="M5.45845 103.792L10.8619 100.657C11.284 100.657 11.6218 100.657 11.6218 101.08C11.6122 101.351 11.5382 101.615 11.406 101.851C11.2738 102.087 11.0872 102.288 10.8619 102.436L5.45845 105.572C5.03631 105.572 4.61416 105.572 4.61416 105.572C4.56455 105.224 4.61821 104.87 4.76842 104.554C4.91863 104.237 5.15869 103.972 5.45845 103.792V103.792Z" fill="#F1F0FF"/>
<path d="M5.45735 117.944L20.6546 109.47C21.0767 109.47 21.4144 109.47 21.4144 109.894C21.4048 110.164 21.3308 110.429 21.1986 110.664C21.0664 110.9 20.8799 111.101 20.6546 111.25L5.45735 119.469C5.03521 119.469 4.61306 119.469 4.61306 119.469C4.61145 119.164 4.68828 118.863 4.83616 118.596C4.98403 118.329 5.19797 118.104 5.45735 117.944V117.944Z" fill="#F0F0F0"/>
<path d="M5.45735 117.944L19.1348 110.063C19.557 110.063 19.8947 110.063 19.8947 110.063C19.8304 110.598 19.5571 111.086 19.1348 111.419L5.45735 119.469C5.03521 119.469 4.61306 119.469 4.61306 119.469C4.61145 119.164 4.68828 118.863 4.83616 118.596C4.98403 118.328 5.19797 118.104 5.45735 117.944V117.944Z" fill="#F1F0FF"/>
<path d="M59.1532 1.93564L24.5374 21.8493V113.876L59.1532 94.0467C59.4007 93.8944 59.6071 93.6833 59.7543 93.4321C59.9016 93.1809 59.9851 92.8973 59.9975 92.6062V2.35934C59.6598 1.8509 59.1532 1.68143 59.1532 1.93564Z" fill="#F1F0FF"/>
<path d="M24.5394 25.325V32.443L21.4155 36.002H24.5394V43.0354L56.6224 24.4776V6.76715L24.5394 25.325Z" fill="#BBB1EF"/>
<path d="M28.6764 25.5777L41.6785 17.7817C42.3539 17.7817 42.8605 17.7817 42.8605 18.4596C42.8415 18.8692 42.724 19.268 42.5182 19.6221C42.3124 19.9763 42.0243 20.2752 41.6785 20.4934L28.6764 28.0351C28.0854 28.0351 27.5789 28.0351 27.5789 27.3572C27.6352 27.0024 27.7613 26.6624 27.9497 26.3569C28.1381 26.0514 28.3851 25.7866 28.6764 25.5777Z" fill="#6D63CE"/>
<path d="M28.001 31.3411L53.3297 16.7661C53.3762 16.873 53.4002 16.9884 53.4002 17.105C53.4002 17.2217 53.3762 17.3371 53.3297 17.444L28.001 32.019H27.5789C27.5798 31.8779 27.6198 31.7398 27.6943 31.6201C27.7689 31.5004 27.875 31.4039 28.001 31.3411V31.3411Z" fill="#6D63CE"/>
<path d="M28.0015 33.9683L53.3302 19.3932C53.3913 19.6151 53.3913 19.8494 53.3302 20.0712L28.0015 34.731H27.5793C27.5742 34.5774 27.6107 34.4253 27.6851 34.2909C27.7595 34.1566 27.8688 34.0451 28.0015 33.9683V33.9683Z" fill="#6D63CE"/>
<path d="M28.001 36.6787L53.3297 22.0189C53.4069 22.2382 53.4069 22.4775 53.3297 22.6968L28.001 37.2719H27.5789C27.5943 37.1455 27.641 37.025 27.7147 36.9214C27.7885 36.8178 27.8869 36.7344 28.001 36.6787V36.6787Z" fill="#6D63CE"/>
<path d="M28.9306 44.0511L30.7036 43.2037H31.2946V45.2374C31.2915 45.4552 31.2361 45.669 31.1332 45.8607C31.0304 46.0525 30.883 46.2165 30.7036 46.339L28.9306 47.3559H28.2551V45.2374C28.2795 45.0034 28.3522 44.7771 28.4684 44.5729C28.5847 44.3686 28.7421 44.1909 28.9306 44.0511V44.0511Z" fill="#6D63CE"/>
<path d="M33.8254 42.1877L44.4634 36.0865H45.2233C45.2014 36.3541 45.1221 36.6138 44.991 36.8478C44.8599 37.0818 44.6799 37.2846 44.4634 37.4424L33.8254 43.9673H32.9811C32.9315 43.6202 32.9852 43.2661 33.1354 42.9495C33.2856 42.6329 33.5256 42.3679 33.8254 42.1877V42.1877Z" fill="#6D63CE"/>
<path d="M28.676 50.4066L55.3555 34.7299C55.402 34.8368 55.426 34.9522 55.426 35.0689C55.426 35.1855 55.402 35.3009 55.3555 35.4078L28.676 51.6777H28.2538C28.1821 51.5702 28.1359 51.4477 28.1187 51.3195C28.1014 51.1914 28.1137 51.061 28.1544 50.9383C28.1952 50.8156 28.2633 50.7039 28.3537 50.6117C28.4441 50.5196 28.5544 50.4494 28.676 50.4066Z" fill="#6D63CE"/>
<path d="M28.677 53.0342L55.3566 37.6117C55.4086 37.717 55.4357 37.833 55.4357 37.9506C55.4357 38.0682 55.4086 38.1843 55.3566 38.2896L28.677 53.9663H28.2549C28.2143 53.786 28.2336 53.5973 28.3098 53.429C28.386 53.2607 28.515 53.122 28.677 53.0342V53.0342Z" fill="#6D63CE"/>
<path d="M28.6768 55.7458L55.3564 40.2386C55.4336 40.4579 55.4336 40.6972 55.3564 40.9165L28.6768 56.5932H28.2547C28.2195 56.4248 28.2421 56.2495 28.3187 56.0957C28.3954 55.9419 28.5216 55.8186 28.6768 55.7458V55.7458Z" fill="#6D63CE"/>
<path d="M28.677 58.3719L55.3566 43.2037C55.4086 43.309 55.4357 43.425 55.4357 43.5426C55.4357 43.6602 55.4086 43.7762 55.3566 43.8816L28.677 59.304H28.2549C28.2143 59.1237 28.2336 58.935 28.3098 58.7668C28.386 58.5985 28.515 58.4598 28.677 58.3719V58.3719Z" fill="#6D63CE"/>
<path d="M28.9283 63.5413L30.7013 62.5245H31.2923V64.5582C31.2721 64.7721 31.2093 64.9798 31.1078 65.169C31.0063 65.3582 30.8681 65.5251 30.7013 65.6598L28.9283 66.6767C28.86 66.7314 28.7765 66.7636 28.6892 66.7686C28.6019 66.7737 28.5152 66.7515 28.4411 66.705C28.3669 66.6584 28.309 66.59 28.2753 66.509C28.2416 66.4281 28.2338 66.3386 28.2529 66.253V64.6429C28.3241 64.2006 28.5669 63.8045 28.9283 63.5413V63.5413Z" fill="#6D63CE"/>
<path d="M33.8254 61.678L44.4634 55.5768H45.2233C45.2137 55.8473 45.1397 56.1115 45.0075 56.3474C44.8753 56.5832 44.6888 56.7839 44.4634 56.9326L33.8254 63.4575H32.9811C32.9315 63.1104 32.9852 62.7563 33.1354 62.4397C33.2856 62.1231 33.5256 61.8581 33.8254 61.678V61.678Z" fill="#6D63CE"/>
<path d="M28.6768 69.8967L55.3564 54.3895C55.4029 54.4964 55.4268 54.6118 55.4268 54.7285C55.4268 54.8451 55.4029 54.9605 55.3564 55.0674L28.6768 70.7441H28.2547C28.2195 70.5758 28.2421 70.4005 28.3187 70.2467C28.3954 70.0928 28.5216 69.9695 28.6768 69.8967Z" fill="#6D63CE"/>
<path d="M28.677 72.5243L55.3566 57.1019C55.4086 57.2072 55.4357 57.3232 55.4357 57.4408C55.4357 57.5584 55.4086 57.6744 55.3566 57.7798L28.677 73.4565H28.2549C28.2143 73.2761 28.2336 73.0875 28.3098 72.9192C28.386 72.7509 28.515 72.6122 28.677 72.5243Z" fill="#6D63CE"/>
<path d="M28.6768 75.2347L55.3564 60.1512C55.4336 60.3705 55.4336 60.6098 55.3564 60.8291L28.6768 76.0821H28.2547C28.2195 75.9138 28.2421 75.7385 28.3187 75.5846C28.3954 75.4308 28.5216 75.3075 28.6768 75.2347V75.2347Z" fill="#6D63CE"/>
<path d="M28.677 77.8618L55.3566 62.4393C55.403 62.5462 55.427 62.6616 55.427 62.7783C55.427 62.8949 55.403 63.0103 55.3566 63.1172L28.677 78.7939H28.2549C28.2143 78.6136 28.2336 78.4249 28.3098 78.2566C28.386 78.0883 28.515 77.9497 28.677 77.8618Z" fill="#6D63CE"/>
<path d="M31.3774 81.761L33.1504 80.7441H33.8258V82.7779C33.8014 83.0118 33.7288 83.2381 33.6125 83.4424C33.4962 83.6466 33.3388 83.8244 33.1504 83.9642L31.3774 85.5743C31.3774 85.5743 30.7864 85.5743 30.7864 85.1506V82.8626C30.7895 82.6449 30.8448 82.431 30.9477 82.2393C31.0506 82.0475 31.198 81.8835 31.3774 81.761Z" fill="#6D63CE"/>
<path d="M28.6748 88.6244L35.9357 84.4722C35.9822 84.5791 36.0062 84.6945 36.0062 84.8112C36.0062 84.9278 35.9822 85.0432 35.9357 85.1501L28.6748 89.3871H28.2527C28.2475 89.2335 28.2841 89.0814 28.3584 88.947C28.4328 88.8127 28.5422 88.7012 28.6748 88.6244V88.6244Z" fill="#6D63CE"/>
<path d="M41.1713 76.082L42.8599 75.0651C42.8599 75.0651 43.5353 75.0651 43.5353 75.4888V77.5226C43.541 77.7521 43.4802 77.9783 43.3603 78.1739C43.2404 78.3694 43.0666 78.5258 42.8599 78.6242L41.1713 79.641H40.4958V77.0989C40.5273 76.89 40.6041 76.6907 40.7208 76.515C40.8375 76.3392 40.9913 76.1914 41.1713 76.082V76.082Z" fill="#6D63CE"/>
<path d="M38.384 83.032L45.6448 78.795C45.6913 78.902 45.7153 79.0173 45.7153 79.134C45.7153 79.2506 45.6913 79.366 45.6448 79.473L38.384 83.6252C38.3196 83.4327 38.3196 83.2244 38.384 83.032V83.032Z" fill="#6D63CE"/>
<path d="M50.7128 70.49L52.4858 69.4731H53.0768V71.5069C53.0679 71.7354 53.0105 71.9594 52.9086 72.164C52.8067 72.3685 52.6626 72.5489 52.4858 72.6932L50.7128 74.049C50.6445 74.1038 50.5609 74.1359 50.4736 74.141C50.3863 74.1461 50.2996 74.1238 50.2255 74.0773C50.1514 74.0308 50.0934 73.9623 50.0597 73.8814C50.026 73.8004 50.0182 73.711 50.0373 73.6253V71.5916C50.0566 71.3679 50.1276 71.1517 50.2449 70.9604C50.3622 70.7692 50.5224 70.6081 50.7128 70.49V70.49Z" fill="#6D63CE"/>
<path d="M48.0937 77.0995L55.3546 72.9473C55.4067 73.0526 55.4338 73.1686 55.4338 73.2862C55.4338 73.4038 55.4067 73.5198 55.3546 73.6252L48.0937 77.8621C47.9951 77.6175 47.9951 77.3441 48.0937 77.0995Z" fill="#6D63CE"/>
<path d="M28.6773 90.4033L35.9382 86.1664C36.0154 86.3857 36.0154 86.625 35.9382 86.8443L28.6773 90.9965H28.2551C28.2706 90.8701 28.3173 90.7496 28.391 90.646C28.4648 90.5424 28.5632 90.459 28.6773 90.4033V90.4033Z" fill="#6D63CE"/>
<path d="M38.3849 84.7266L45.6458 80.5744C45.6978 80.6797 45.7249 80.7958 45.7249 80.9134C45.7249 81.031 45.6978 81.147 45.6458 81.2523L38.3849 85.4893C38.3849 85.4893 38.216 84.8961 38.3849 84.7266Z" fill="#6D63CE"/>
<path d="M48.0932 79.1327L55.3541 74.8958C55.4313 75.1151 55.4313 75.3543 55.3541 75.5737L48.0932 79.7259C48.022 79.5346 48.022 79.324 48.0932 79.1327Z" fill="#6D63CE"/>
<path d="M28.6748 92.098L35.9357 87.9458C35.9822 88.0527 36.0062 88.1681 36.0062 88.2848C36.0062 88.4014 35.9822 88.5168 35.9357 88.6237L28.6748 92.8607H28.2527C28.2475 92.7071 28.2841 92.555 28.3584 92.4206C28.4328 92.2863 28.5422 92.1748 28.6748 92.098V92.098Z" fill="#6D63CE"/>
<path d="M38.384 86.5056L45.6448 82.2686C45.7221 82.4879 45.7221 82.7272 45.6448 82.9465L38.384 87.0987C38.3196 86.9063 38.3196 86.698 38.384 86.5056V86.5056Z" fill="#6D63CE"/>
<path d="M48.0936 80.8278L55.3545 77.0993C55.401 77.2062 55.425 77.3216 55.425 77.4383C55.425 77.5549 55.401 77.6703 55.3545 77.7772L48.0936 81.9294C47.9882 81.7652 47.9321 81.574 47.9321 81.3786C47.9321 81.1833 47.9882 80.992 48.0936 80.8278V80.8278Z" fill="#6D63CE"/>
<path d="M31.3774 96.3358L33.1504 95.319H33.8258V97.3527C33.8066 97.5765 33.7355 97.7926 33.6182 97.9839C33.5009 98.1751 33.3407 98.3362 33.1504 98.4543L31.3774 99.4712H30.7864V97.4374C30.7895 97.2197 30.8448 97.0059 30.9477 96.8141C31.0506 96.6224 31.198 96.4583 31.3774 96.3358V96.3358Z" fill="#6D63CE"/>
<path d="M28.6773 103.199L35.9382 99.0471C36.0154 99.2664 36.0154 99.5056 35.9382 99.725L28.6773 103.877H28.2551C28.2645 103.738 28.3079 103.603 28.3815 103.485C28.4552 103.367 28.5568 103.269 28.6773 103.199V103.199Z" fill="#6D63CE"/>
<path d="M41.1722 90.6587L42.8607 89.6418H43.5362V91.6756C43.5302 91.914 43.4654 92.1472 43.3475 92.3542C43.2296 92.5613 43.0624 92.7357 42.8607 92.8619L41.1722 93.8788H40.4967V91.8451C40.4737 91.6015 40.5263 91.3569 40.6472 91.1445C40.7681 90.9321 40.9515 90.7625 41.1722 90.6587Z" fill="#6D63CE"/>
<path d="M38.384 97.5221L45.6448 93.3699C45.6969 93.4753 45.724 93.5913 45.724 93.7089C45.724 93.8265 45.6969 93.9425 45.6448 94.0478L38.384 98.2848C38.3196 98.0347 38.3196 97.7722 38.384 97.5221V97.5221Z" fill="#6D63CE"/>
<path d="M50.7104 84.9803L52.4834 83.9634H53.0744V85.9972C53.0713 86.2149 53.016 86.4287 52.9131 86.6205C52.8102 86.8122 52.6628 86.9763 52.4834 87.0988L50.7104 88.5393H50.035V86.5056C50.0069 86.2145 50.0543 85.921 50.1726 85.6537C50.291 85.3864 50.4763 85.1544 50.7104 84.9803Z" fill="#6D63CE"/>
<path d="M48.0932 91.9288L55.3541 87.6918C55.4006 87.7987 55.4246 87.9141 55.4246 88.0308C55.4246 88.1474 55.4006 88.2628 55.3541 88.3697L48.0932 92.5219C48.022 92.3307 48.022 92.12 48.0932 91.9288Z" fill="#6D63CE"/>
<path d="M28.6773 104.893L35.9382 100.741C35.9846 100.848 36.0086 100.964 36.0086 101.08C36.0086 101.197 35.9846 101.312 35.9382 101.419L28.6773 105.656H28.2551C28.2647 105.506 28.3076 105.359 28.3806 105.227C28.4536 105.095 28.5549 104.981 28.6773 104.893Z" fill="#6D63CE"/>
<path d="M38.384 99.3017L45.6448 95.0648C45.6913 95.1717 45.7153 95.2871 45.7153 95.4037C45.7153 95.5204 45.6913 95.6358 45.6448 95.7427L38.384 99.8949C38.3196 99.7024 38.3196 99.4941 38.384 99.3017V99.3017Z" fill="#6D63CE"/>
<path d="M48.0937 94.047L55.3546 89.8948C55.4067 90.0002 55.4338 90.1162 55.4338 90.2338C55.4338 90.3514 55.4067 90.4674 55.3546 90.5727L48.0937 94.8097C47.9951 94.5651 47.9951 94.2916 48.0937 94.047Z" fill="#6D63CE"/>
<path d="M28.6773 106.673L35.9382 102.436C36.0154 102.655 36.0154 102.895 35.9382 103.114L28.6773 107.266H28.2551C28.2706 107.14 28.3173 107.019 28.391 106.916C28.4648 106.812 28.5632 106.729 28.6773 106.673V106.673Z" fill="#6D63CE"/>
<path d="M38.3849 100.996L45.6458 96.8434C45.6978 96.9488 45.7249 97.0648 45.7249 97.1824C45.7249 97.3 45.6978 97.416 45.6458 97.5214L38.3849 101.758C38.3849 101.758 38.216 101.165 38.3849 100.996Z" fill="#6D63CE"/>
<path d="M48.0932 95.4039L55.3541 91.1669C55.4313 91.3862 55.4313 91.6255 55.3541 91.8448L48.0932 95.997C48.022 95.8058 48.022 95.5951 48.0932 95.4039Z" fill="#6D63CE"/>
<path d="M12.2961 32.4429C16.5175 29.9855 19.9791 32.4429 19.9791 36.9341C19.8343 39.6025 19.0627 42.1988 17.7275 44.511C16.3922 46.8231 14.5311 48.7855 12.2961 50.238C8.07462 52.6955 4.61304 50.238 4.61304 45.7469C4.75788 43.0784 5.52942 40.4821 6.86467 38.17C8.19992 35.8579 10.061 33.8954 12.2961 32.4429V32.4429Z" fill="#F1F0FF"/>
<path d="M7.73921 62.8635L18.3773 56.6776C18.7994 56.6776 19.1371 56.6776 19.1371 56.6776C19.1275 56.9481 19.0535 57.2123 18.9213 57.4482C18.7891 57.6841 18.6026 57.8848 18.3773 58.0334L7.73921 64.6431C7.31707 64.6431 6.89492 64.6431 6.89492 64.6431C6.84531 64.296 6.89897 63.9419 7.04918 63.6253C7.19939 63.3087 7.43945 63.0437 7.73921 62.8635V62.8635Z" fill="#F1F0FF"/>
</svg>
