<svg width="60" height="125" viewBox="0 0 60 125" fill="none" xmlns="http://www.w3.org/2000/svg">
<path d="M0.812685 124.064C0.584196 123.917 0.394797 123.719 0.260085 123.487C0.125373 123.255 0.0492013 122.995 0.0378418 122.728L0.0378418 34.658C0.0512764 34.3775 0.134178 34.1042 0.279477 33.8616C0.424776 33.619 0.628162 33.4142 0.872289 33.2647L57.6147 1.15999C57.8667 1.04576 58.1413 0.986572 58.4193 0.986572C58.6973 0.986572 58.9719 1.04576 59.224 1.15999C59.4525 1.30688 59.6419 1.50454 59.7766 1.73669C59.9113 1.96884 59.9875 2.22883 59.9988 2.49527V90.7397C59.9906 91.0214 59.9098 91.2966 59.7641 91.54C59.6183 91.7835 59.4121 91.9874 59.1644 92.133L2.42198 124.064C2.17385 124.191 1.89769 124.257 1.61733 124.257C1.33697 124.257 1.06082 124.191 0.812685 124.064V124.064Z" fill="#FCCF7E"/>
<path d="M1.58753 36.3419L24.654 21.6539L23.1043 20.783L0.872289 33.265C0.628162 33.4145 0.424776 33.6192 0.279477 33.8619C0.134178 34.1045 0.0512764 34.3777 0.0378418 34.6583L0.0378418 35.4711L1.58753 36.3419Z" fill="#754F17"/>
<path d="M9.27705 38.9543L0.0385326 33.9035C-0.0128442 34.1526 -0.0128442 34.4091 0.0385326 34.6582L0.0385326 122.729C0.0498921 122.995 0.126064 123.255 0.260776 123.487C0.395488 123.719 0.584886 123.917 0.813376 124.064C1.06151 124.191 1.33766 124.257 1.61802 124.257C1.89838 124.257 2.17454 124.191 2.42267 124.064L9.27705 120.174V38.9543Z" fill="#FCCF7E"/>
<path d="M2.42331 124.063L59.1657 92.1325C59.4134 91.9869 59.6196 91.783 59.7654 91.5395C59.9112 91.2961 59.9919 91.0209 60.0002 90.7392V2.66894C60.0002 2.14644 59.6425 1.97228 59.1657 2.2045L2.42331 34.135C2.17919 34.2845 1.9758 34.4893 1.8305 34.732C1.6852 34.9746 1.6023 35.2478 1.58887 35.5284V123.599C1.58887 124.121 1.94649 124.295 2.42331 124.063Z" fill="#754F17"/>
<path d="M6.29634 55.9066L19.9455 48.1852C20.8396 47.7208 21.5548 48.1852 21.5548 48.998C21.5207 49.535 21.3573 50.0566 21.0777 50.5205C20.7981 50.9845 20.4102 51.3778 19.9455 51.6686L6.29634 59.2158C5.40228 59.7383 4.62744 59.2158 4.62744 58.403C4.69039 57.8901 4.87365 57.3982 5.16304 56.9653C5.45244 56.5324 5.8402 56.1702 6.29634 55.9066V55.9066Z" fill="#FDECC9"/>
<path d="M5.28308 69.8981L7.07118 68.9111C7.4288 68.9111 7.72682 68.9111 7.72682 69.2595V71.2333C7.7155 71.4548 7.65011 71.6703 7.53608 71.8622C7.42205 72.054 7.26267 72.2166 7.07118 72.3364L5.28308 73.3233C4.92546 73.3233 4.62744 73.3233 4.62744 72.975V70.827C4.66427 70.6362 4.74161 70.455 4.85451 70.2951C4.96742 70.1351 5.11339 69.9999 5.28308 69.8981V69.8981Z" fill="#FCCF7E"/>
<path d="M10.0529 68.0977L20.7219 62.2922C21.1987 62.2922 21.5564 62.2922 21.5564 62.6986C21.5385 62.9703 21.4532 63.2337 21.3079 63.4663C21.1626 63.6988 20.9615 63.8936 20.7219 64.0338L10.0529 69.8394C9.6357 69.8394 9.27808 69.8394 9.27808 69.433C9.28944 69.1666 9.36561 68.9066 9.50032 68.6744C9.63503 68.4423 9.82443 68.2446 10.0529 68.0977V68.0977Z" fill="#FCCF7E"/>
<path d="M5.28308 76.6321L7.07118 75.6451C7.4288 75.6451 7.72682 75.6451 7.72682 75.9935V77.9674C7.71541 78.1967 7.65042 78.4205 7.53681 78.6217C7.42319 78.8229 7.26394 78.9963 7.07118 79.1285L5.28308 80.1154C4.92546 80.1154 4.62744 80.1154 4.62744 79.709V77.7351C4.64335 77.5148 4.71068 77.3009 4.8243 77.1098C4.93792 76.9186 5.09483 76.7552 5.28308 76.6321V76.6321Z" fill="#FCCF7E"/>
<path d="M10.0529 75.0061L20.7219 69.2006C21.1987 69.2006 21.5564 69.2006 21.5564 69.6069C21.5494 69.8812 21.4687 70.1488 21.3222 70.3831C21.1758 70.6174 20.9688 70.8102 20.7219 70.9422L10.0529 76.6317C9.6357 76.922 9.27808 76.6317 9.27808 76.2833C9.29851 76.0269 9.37897 75.7785 9.51328 75.5571C9.6476 75.3357 9.8322 75.1472 10.0529 75.0061V75.0061Z" fill="#FCCF7E"/>
<path d="M5.28308 83.7148L7.07118 82.7279C7.4288 82.7279 7.72682 82.7279 7.72682 83.0762V85.1082C7.71091 85.3285 7.64358 85.5424 7.52996 85.7336C7.41634 85.9247 7.25943 86.0881 7.07118 86.2112L5.28308 87.1982C4.92546 87.1982 4.62744 87.1982 4.62744 86.7918V84.8179C4.64335 84.5976 4.71068 84.3837 4.8243 84.1925C4.93792 84.0014 5.09483 83.838 5.28308 83.7148V83.7148Z" fill="#FCCF7E"/>
<path d="M10.0529 81.9155L20.7219 76.1099C21.1987 75.8196 21.5564 76.1099 21.5564 76.5163C21.5393 76.7805 21.4539 77.0362 21.3079 77.2595C21.162 77.4829 20.9604 77.6666 20.7219 77.7935L10.0529 83.5991C9.6357 83.5991 9.27808 83.5991 9.27808 83.1927C9.29851 82.9363 9.37897 82.6879 9.51328 82.4665C9.6476 82.2451 9.8322 82.0566 10.0529 81.9155V81.9155Z" fill="#FCCF7E"/>
<path d="M5.28308 90.6812L7.07118 89.6943C7.4288 89.6943 7.72682 89.6943 7.72682 90.0426V92.0165C7.7155 92.2379 7.65011 92.4535 7.53608 92.6453C7.42205 92.8372 7.26267 92.9997 7.07118 93.1195L5.28308 94.0484C4.92546 94.0484 4.62744 94.0484 4.62744 93.7001V91.7262C4.64779 91.5149 4.71744 91.3109 4.83107 91.1298C4.94469 90.9487 5.0993 90.7953 5.28308 90.6812V90.6812Z" fill="#FCCF7E"/>
<path d="M10.0529 88.8239L20.7219 83.0184C21.1987 83.0184 21.5564 83.0184 21.5564 83.4248C21.5337 83.6953 21.4465 83.9569 21.3016 84.1887C21.1567 84.4205 20.9582 84.6162 20.7219 84.76L10.0529 90.5656C9.6357 90.5656 9.27808 90.5656 9.27808 90.1592C9.30219 89.8957 9.38379 89.6403 9.51742 89.41C9.65104 89.1798 9.83362 88.9799 10.0529 88.8239Z" fill="#FCCF7E"/>
<path d="M5.46189 105.138L13.0315 100.842C13.5083 100.842 13.866 100.842 13.866 101.248C13.8481 101.52 13.7628 101.783 13.6175 102.016C13.4721 102.248 13.2711 102.443 13.0315 102.583L5.46189 106.821C5.04467 107.112 4.62744 106.821 4.62744 106.473C4.6501 106.202 4.73735 105.941 4.88223 105.709C5.02711 105.477 5.22561 105.282 5.46189 105.138Z" fill="#FCCF7E"/>
<path d="M5.46189 108.562L20.7203 99.8541C21.1972 99.8541 21.5548 99.8541 21.5548 100.261C21.5478 100.535 21.4671 100.802 21.3207 101.037C21.1742 101.271 20.9672 101.464 20.7203 101.596L5.46189 110.304C5.04467 110.304 4.62744 110.304 4.62744 109.898C4.66235 109.631 4.75471 109.374 4.89849 109.143C5.04227 108.913 5.23425 108.715 5.46189 108.562V108.562Z" fill="#FCCF7E"/>
<path d="M5.46189 108.562L16.1309 102.757C16.6077 102.757 16.9653 102.757 16.9653 103.163C16.9427 103.434 16.8554 103.695 16.7105 103.927C16.5657 104.159 16.3672 104.355 16.1309 104.498L5.46189 110.304C5.04467 110.304 4.62744 110.304 4.62744 109.898C4.66235 109.63 4.75471 109.373 4.89849 109.143C5.04227 108.913 5.23425 108.715 5.46189 108.562V108.562Z" fill="#FCCF7E"/>
<path d="M5.46189 112.046L13.0315 107.75C13.5083 107.75 13.866 107.75 13.866 108.156C13.8481 108.428 13.7628 108.692 13.6175 108.924C13.4721 109.157 13.2711 109.351 13.0315 109.492L5.46189 113.788C5.04467 113.788 4.62744 113.788 4.62744 113.381C4.6501 113.111 4.73735 112.849 4.88223 112.618C5.02711 112.386 5.22561 112.19 5.46189 112.046V112.046Z" fill="#FCCF7E"/>
<path d="M5.46189 98.2284L13.0315 94.0484C13.5083 94.0484 13.866 94.0484 13.866 94.4548C13.8481 94.7265 13.7628 94.9899 13.6175 95.2225C13.4721 95.455 13.2711 95.6498 13.0315 95.7901L5.46189 99.854C5.04467 99.854 4.62744 99.854 4.62744 99.4476C4.66725 99.1975 4.76253 98.9589 4.90663 98.7484C5.05074 98.5378 5.24022 98.3604 5.46189 98.2284V98.2284Z" fill="#FCCF7E"/>
<path d="M5.46189 101.654L20.7203 93.0618C21.1972 93.0618 21.5548 93.0618 21.5548 93.4682C21.5369 93.7399 21.4516 94.0033 21.3063 94.2358C21.161 94.4684 20.9599 94.6632 20.7203 94.8034L5.46189 103.396C5.04467 103.396 4.62744 103.396 4.62744 102.989C4.66235 102.722 4.75471 102.465 4.89849 102.235C5.04227 102.005 5.23425 101.807 5.46189 101.654V101.654Z" fill="#FCCF7E"/>
<path d="M5.46189 101.654L10.8858 98.6349C11.3626 98.3447 11.7202 98.6349 11.7202 99.0413C11.6976 99.3118 11.6103 99.5734 11.4655 99.8053C11.3206 100.037 11.1221 100.233 10.8858 100.377L5.46189 103.395C5.04467 103.395 4.62744 103.396 4.62744 102.989C4.66235 102.722 4.75471 102.465 4.89849 102.235C5.04227 102.005 5.23425 101.807 5.46189 101.654V101.654Z" fill="#FCCF7E"/>
<path d="M5.46189 115.472L20.7203 106.88C21.1972 106.88 21.5548 106.88 21.5548 107.286C21.5478 107.56 21.4671 107.828 21.3207 108.062C21.1742 108.297 20.9672 108.489 20.7203 108.621L5.46189 117.272C5.04467 117.272 4.62744 117.272 4.62744 116.865C4.65416 116.588 4.74266 116.319 4.88678 116.079C5.03089 115.838 5.22716 115.631 5.46189 115.472V115.472Z" fill="#FCCF7E"/>
<path d="M5.46189 115.471L19.2303 107.75C19.6475 107.75 20.0051 107.75 20.0051 108.156C19.9891 108.422 19.911 108.68 19.7767 108.912C19.6424 109.143 19.4555 109.342 19.2303 109.492L5.46189 117.271C5.04467 117.271 4.62744 117.271 4.62744 116.865C4.65416 116.587 4.74266 116.319 4.88678 116.078C5.03089 115.838 5.22716 115.631 5.46189 115.471V115.471Z" fill="#FCCF7E"/>
<path d="M59.1639 2.2045L24.6536 21.6531V111.465L59.1639 92.0164C59.4116 91.8708 59.6178 91.6669 59.7636 91.4234C59.9094 91.18 59.9901 90.9048 59.9984 90.6231V2.66894C59.9984 2.14644 59.6407 1.97228 59.1639 2.2045Z" fill="#FDECC9"/>
<path d="M24.6555 25.0785V32.0452L21.5562 35.4704H24.6555V42.379L56.9009 24.2657V6.96515L24.6555 25.0785Z" fill="#D1993F"/>
<path d="M28.8281 25.3697L41.762 17.9966C42.4177 17.6483 42.8945 17.9966 42.8945 18.6352C42.8785 19.0278 42.7677 19.4112 42.5709 19.7542C42.3741 20.0972 42.097 20.3901 41.762 20.6091L28.8281 27.9241C28.7161 28.0037 28.5828 28.0498 28.4443 28.057C28.3059 28.0641 28.1683 28.0318 28.0483 27.9642C27.9283 27.8965 27.8311 27.7963 27.7685 27.6759C27.7059 27.5554 27.6806 27.4197 27.6956 27.2855V27.2855C27.725 26.9039 27.8421 26.5337 28.0381 26.2021C28.2341 25.8705 28.5041 25.586 28.8281 25.3697Z" fill="#FDECC9"/>
<path d="M28.1109 30.943L53.6807 16.7194H54.098C54.1194 16.8799 54.0912 17.043 54.0169 17.1878C53.9425 17.3327 53.8255 17.4525 53.6807 17.5321L28.1109 31.8138H27.6937C27.6592 31.6443 27.681 31.4685 27.756 31.3119C27.831 31.1553 27.9554 31.0261 28.1109 30.943Z" fill="#FDECC9"/>
<path d="M28.1112 33.4971L53.6811 19.2734H54.0983C54.1328 19.4429 54.111 19.6188 54.036 19.7753C53.961 19.9319 53.8366 20.0612 53.6811 20.1443L28.1112 34.3679H27.694C27.6816 34.2001 27.7134 34.0321 27.7865 33.8797C27.8595 33.7273 27.9713 33.5956 28.1112 33.4971V33.4971Z" fill="#FDECC9"/>
<path d="M28.1117 35.9932L53.6816 21.8857H54.0988C54.1246 22.0547 54.0989 22.2274 54.0247 22.3822C53.9505 22.5371 53.8312 22.6672 53.6816 22.7565L28.1117 36.9801H27.6945C27.6301 36.7943 27.6368 36.592 27.7135 36.4106C27.7902 36.2292 27.9316 36.081 28.1117 35.9932Z" fill="#FDECC9"/>
<path d="M29.066 43.3663L30.8541 42.3794C31.2118 42.3794 31.5098 42.3794 31.5098 42.7277V44.7016C31.4985 44.923 31.4331 45.1386 31.319 45.3304C31.205 45.5223 31.0456 45.6849 30.8541 45.8047L29.066 46.8497C28.7084 46.8497 28.4104 46.8497 28.4104 46.4433V44.4694C28.4217 44.248 28.4871 44.0324 28.6011 43.8406C28.7152 43.6487 28.8745 43.4861 29.066 43.3663Z" fill="#D1993F"/>
<path d="M33.8334 41.7985L44.5024 35.993C44.9793 35.993 45.3369 35.993 45.3369 36.3994C45.3299 36.6736 45.2492 36.9412 45.1027 37.1756C44.9563 37.4099 44.7493 37.6027 44.5024 37.7346L33.8334 43.5402C33.4162 43.5402 33.0586 43.5402 33.0586 43.1338C33.07 42.8674 33.1461 42.6074 33.2808 42.3752C33.4156 42.1431 33.6049 41.9454 33.8334 41.7985Z" fill="#D1993F"/>
<path d="M28.8267 49.5779L55.7079 34.4835H56.0655C56.0567 34.6087 56.0201 34.7307 55.9584 34.8409C55.8967 34.9511 55.8112 35.047 55.7079 35.1221L28.8267 50.4487H28.4095C28.375 50.2792 28.3968 50.1034 28.4718 49.9468C28.5469 49.7902 28.6712 49.661 28.8267 49.5779V49.5779Z" fill="#D1993F"/>
<path d="M28.8271 52.1331L55.7082 37.0387H56.0658C56.057 37.164 56.0205 37.2859 55.9587 37.3961C55.897 37.5063 55.8115 37.6023 55.7082 37.6773L28.8271 53.004H28.4098C28.3974 52.8362 28.4293 52.6682 28.5023 52.5158C28.5753 52.3633 28.6871 52.2316 28.8271 52.1331V52.1331Z" fill="#D1993F"/>
<path d="M28.8267 54.7454L55.7079 39.6509H56.0655C56.0575 39.7846 56.0217 39.9153 55.9602 40.0351C55.8987 40.1549 55.8129 40.2612 55.7079 40.3476L28.8267 55.6162H28.4095C28.375 55.4467 28.3968 55.2709 28.4718 55.1143C28.5469 54.9577 28.6712 54.8285 28.8267 54.7454V54.7454Z" fill="#D1993F"/>
<path d="M28.8267 57.3577L55.7079 42.2632H56.0655C56.0322 42.5286 55.9059 42.7747 55.7079 42.9599L28.8267 58.2285H28.4095C28.375 58.059 28.3968 57.8832 28.4718 57.7266C28.5469 57.57 28.6712 57.4408 28.8267 57.3577V57.3577Z" fill="#D1993F"/>
<path d="M29.066 62.4087L30.8541 61.4218C31.2118 61.4218 31.5098 61.4217 31.5098 61.7701V63.744C31.4985 63.9654 31.4331 64.181 31.319 64.3728C31.205 64.5647 31.0456 64.7272 30.8541 64.847L29.066 65.834C28.7084 65.834 28.4104 65.834 28.4104 65.4856V63.5118C28.4217 63.2903 28.4871 63.0748 28.6011 62.8829C28.7152 62.6911 28.8745 62.5285 29.066 62.4087V62.4087Z" fill="#D1993F"/>
<path d="M33.8334 60.5504L44.5024 54.7449C44.9793 54.7449 45.3369 54.7449 45.3369 55.1513C45.3142 55.4218 45.227 55.6834 45.0821 55.9152C44.9372 56.147 44.7387 56.3427 44.5024 56.4865L33.8334 62.2921C33.4162 62.2921 33.0586 62.2921 33.0586 61.8857C33.0827 61.6222 33.1643 61.3668 33.2979 61.1365C33.4316 60.9063 33.6141 60.7064 33.8334 60.5504V60.5504Z" fill="#D1993F"/>
<path d="M28.8276 68.5622L55.7087 53.4097H56.0664C56.0575 53.5349 56.021 53.6569 55.9593 53.7671C55.8976 53.8773 55.8121 53.9732 55.7087 54.0483L28.8276 69.1427H28.4104C28.4343 69.0229 28.4838 68.9092 28.5556 68.8092C28.6275 68.7092 28.7202 68.625 28.8276 68.5622V68.5622Z" fill="#D1993F"/>
<path d="M28.8276 71.1755L55.7087 56.0811H56.0664C56.0331 56.3465 55.9067 56.5925 55.7087 56.7777L28.8276 71.8722H28.4104C28.4117 71.7307 28.4509 71.5921 28.524 71.4699C28.5972 71.3477 28.7019 71.2462 28.8276 71.1755V71.1755Z" fill="#D1993F"/>
<path d="M28.8267 73.7876L55.7079 58.6351H56.0655C56.0567 58.7604 56.0201 58.8823 55.9584 58.9926C55.8967 59.1028 55.8112 59.1987 55.7079 59.2737L28.8267 74.6585H28.4095C28.375 74.489 28.3968 74.3132 28.4718 74.1566C28.5469 74 28.6712 73.8707 28.8267 73.7876Z" fill="#D1993F"/>
<path d="M28.8276 76.6325L55.7087 61.5381H56.0664C56.0575 61.6634 56.021 61.7853 55.9593 61.8955C55.8976 62.0057 55.8121 62.1017 55.7087 62.1767L28.8276 77.2131H28.4104C28.4709 76.9759 28.6196 76.7691 28.8276 76.6325V76.6325Z" fill="#D1993F"/>
<path d="M31.5692 80.174L33.3573 79.187C33.7149 79.187 34.013 79.187 34.013 79.5353V81.5092C34.0016 81.7306 33.9362 81.9462 33.8222 82.1381C33.7082 82.3299 33.5488 82.4925 33.3573 82.6123L31.5692 83.5992C31.2116 83.5992 30.9136 83.5992 30.9136 83.2509V81.277C30.9249 81.0556 30.9903 80.84 31.1043 80.6482C31.2183 80.4563 31.3777 80.2938 31.5692 80.174Z" fill="#D1993F"/>
<path d="M28.8276 86.9078L36.0992 82.7859H36.5165C36.5053 82.9173 36.4615 83.0441 36.3888 83.1554C36.3161 83.2666 36.2167 83.359 36.0992 83.4245L28.8276 87.5464H28.4104C28.4215 87.415 28.4653 87.2882 28.538 87.1769C28.6107 87.0657 28.7101 86.9733 28.8276 86.9078V86.9078Z" fill="#D1993F"/>
<path d="M41.3448 74.658L43.1329 73.671C43.4906 73.671 43.7886 73.671 43.7886 74.0194V75.9932C43.7773 76.2147 43.7119 76.4302 43.5978 76.6221C43.4838 76.8139 43.3244 76.9765 43.1329 77.0963L41.3448 78.0832C40.9872 78.0832 40.6892 78.0832 40.6892 77.7349V75.761C40.7005 75.5396 40.7659 75.324 40.8799 75.1322C40.994 74.9403 41.1534 74.7778 41.3448 74.658V74.658Z" fill="#D1993F"/>
<path d="M38.602 81.3928L45.8736 77.2709H46.2909C46.2797 77.4023 46.2359 77.5291 46.1632 77.6404C46.0906 77.7516 45.9912 77.844 45.8736 77.9095L38.602 82.4378H38.1848C38.1033 82.2448 38.1011 82.0286 38.1788 81.834C38.2565 81.6395 38.408 81.4815 38.602 81.3928V81.3928Z" fill="#D1993F"/>
<path d="M51.1783 69.1428L52.9068 68.1558C53.2645 68.1558 53.5625 68.1558 53.5625 68.5042V70.478C53.5512 70.6994 53.4858 70.915 53.3717 71.1069C53.2577 71.2987 53.0983 71.4613 52.9068 71.5811L51.1783 72.6261C50.8207 72.6261 50.5227 72.6261 50.5227 72.2197V70.2458C50.534 70.0244 50.5994 69.8088 50.7134 69.617C50.8275 69.4251 50.9868 69.2626 51.1783 69.1428Z" fill="#D1993F"/>
<path d="M48.3768 75.8777L55.7081 71.8138H56.0657C56.0569 71.9391 56.0203 72.061 55.9586 72.1713C55.8969 72.2815 55.8114 72.3774 55.7081 72.4525L48.3768 76.6324H48.0192C48.0095 76.4876 48.0372 76.3426 48.0996 76.2108C48.1621 76.079 48.2574 75.9645 48.3768 75.8777V75.8777Z" fill="#D1993F"/>
<path d="M28.8276 88.5917L36.0992 84.4697H36.5165C36.5053 84.6012 36.4615 84.728 36.3888 84.8392C36.3161 84.9505 36.2167 85.0428 36.0992 85.1083L28.8276 89.2303H28.4104C28.4215 89.0989 28.4653 88.972 28.538 88.8608C28.6107 88.7495 28.7101 88.6572 28.8276 88.5917V88.5917Z" fill="#D1993F"/>
<path d="M38.6008 83.0766L45.8724 79.0127H46.2896C46.2785 79.1441 46.2347 79.2709 46.162 79.3822C46.0893 79.4935 45.9899 79.5858 45.8724 79.6513L38.6008 83.7733H38.1836C38.1849 83.6318 38.2241 83.4931 38.2972 83.371C38.3704 83.2488 38.475 83.1473 38.6008 83.0766V83.0766Z" fill="#D1993F"/>
<path d="M48.3779 77.5616L55.7091 73.4977H56.0667C56.0334 73.7631 55.9071 74.0092 55.7091 74.1943L48.3779 78.2582H48.0203C48.0245 78.1238 48.0587 77.9919 48.1205 77.8716C48.1822 77.7514 48.27 77.6456 48.3779 77.5616V77.5616Z" fill="#D1993F"/>
<path d="M28.8276 90.2756L36.0992 86.1536H36.5165C36.5053 86.2851 36.4615 86.4119 36.3888 86.5231C36.3161 86.6344 36.2167 86.7267 36.0992 86.7922L28.8276 90.9142H28.4104C28.4215 90.7827 28.4653 90.6559 28.538 90.5447C28.6107 90.4334 28.7101 90.3411 28.8276 90.2756Z" fill="#D1993F"/>
<path d="M38.6008 84.7604L45.8724 80.6965H46.2896C46.2785 80.828 46.2347 80.9548 46.162 81.066C46.0893 81.1773 45.9899 81.2697 45.8724 81.3351L38.6008 85.4571H38.1836C38.1849 85.3157 38.2241 85.177 38.2972 85.0548C38.3704 84.9326 38.475 84.8311 38.6008 84.7604Z" fill="#D1993F"/>
<path d="M48.3779 79.2442L55.7091 75.1804H56.0667C56.0334 75.4458 55.9071 75.6918 55.7091 75.877L48.3779 79.9409H48.0203C48.0245 79.8065 48.0587 79.6746 48.1205 79.5543C48.1822 79.434 48.27 79.3282 48.3779 79.2442V79.2442Z" fill="#D1993F"/>
<path d="M31.5692 94.3392L33.3573 93.3523C33.7149 93.3523 34.013 93.3523 34.013 93.7587V95.7326C33.997 95.9529 33.9297 96.1668 33.8161 96.3579C33.7025 96.5491 33.5456 96.7125 33.3573 96.8356L31.5692 97.8226C31.2116 97.8226 30.9136 97.8226 30.9136 97.4742V95.4423C30.9295 95.222 30.9968 95.0081 31.1104 94.8169C31.224 94.6258 31.381 94.4624 31.5692 94.3392V94.3392Z" fill="#D1993F"/>
<path d="M28.8276 101.073L36.0992 97.0093H36.5165C36.5097 97.1496 36.4683 97.2862 36.3956 97.4075C36.323 97.5288 36.2213 97.6312 36.0992 97.7059L28.8276 101.77H28.4104C28.4257 101.632 28.4707 101.498 28.5426 101.378C28.6145 101.258 28.7116 101.154 28.8276 101.073V101.073Z" fill="#D1993F"/>
<path d="M41.3448 88.8242L43.1329 87.8373C43.4906 87.8373 43.7886 87.8373 43.7886 88.2437V90.2176C43.7727 90.4379 43.7053 90.6518 43.5917 90.8429C43.4781 91.0341 43.3212 91.1975 43.1329 91.3206L41.3448 92.3076C40.9872 92.3076 40.6892 92.3076 40.6892 91.9592V89.9273C40.7051 89.7069 40.7724 89.4931 40.8861 89.3019C40.9997 89.1107 41.1566 88.9474 41.3448 88.8242V88.8242Z" fill="#D1993F"/>
<path d="M38.6008 95.5582L45.8724 91.4943H46.2896C46.2884 91.6358 46.2492 91.7744 46.176 91.8966C46.1028 92.0188 45.9982 92.1203 45.8724 92.191L38.6008 96.2549H38.1836C38.1989 96.1167 38.2439 95.9832 38.3158 95.8631C38.3877 95.7431 38.4848 95.6392 38.6008 95.5582V95.5582Z" fill="#D1993F"/>
<path d="M51.1792 83.3663L52.9077 82.4374C53.2653 82.4374 53.5633 82.4374 53.5633 82.8438V84.8177C53.552 85.0391 53.4866 85.2546 53.3726 85.4465C53.2585 85.6383 53.0992 85.8009 52.9077 85.9207L51.1792 86.9077C50.8215 86.9077 50.5235 86.9077 50.5235 86.5593V84.5854C50.5151 84.3443 50.5711 84.1052 50.686 83.8915C50.8009 83.6778 50.9709 83.4968 51.1792 83.3663V83.3663Z" fill="#D1993F"/>
<path d="M48.3779 90.1012L55.7091 85.9792H56.0667C56.0579 86.1045 56.0214 86.2264 55.9596 86.3367C55.8979 86.4469 55.8124 86.5428 55.7091 86.6179L48.3779 90.6817H48.0203C48.0371 90.5666 48.0774 90.4559 48.1388 90.3562C48.2002 90.2565 48.2815 90.1698 48.3779 90.1012V90.1012Z" fill="#D1993F"/>
<path d="M28.8276 102.757L36.0992 98.6932H36.5165C36.5152 98.8346 36.476 98.9733 36.4028 99.0955C36.3296 99.2177 36.225 99.3191 36.0992 99.3898L28.8276 103.454H28.4104C28.4257 103.316 28.4707 103.182 28.5426 103.062C28.6145 102.942 28.7116 102.838 28.8276 102.757Z" fill="#D1993F"/>
<path d="M38.6008 97.3001L45.8724 93.1782H46.2896C46.2785 93.3096 46.2347 93.4364 46.162 93.5477C46.0893 93.6589 45.9899 93.7513 45.8724 93.8168L38.6008 97.8807H38.1836C38.2036 97.7595 38.2516 97.6443 38.3238 97.5438C38.3961 97.4432 38.4908 97.3599 38.6008 97.3001Z" fill="#D1993F"/>
<path d="M48.3779 91.7849L55.7091 87.663H56.0667C56.0579 87.7882 56.0214 87.9102 55.9596 88.0204C55.8979 88.1306 55.8124 88.2265 55.7091 88.3016L48.3779 92.4235H48.0203C48.0291 92.2983 48.0656 92.1763 48.1273 92.0661C48.1891 91.9559 48.2745 91.86 48.3779 91.7849V91.7849Z" fill="#D1993F"/>
<path d="M28.8276 104.499L36.0992 100.377H36.5165C36.5053 100.508 36.4615 100.635 36.3888 100.746C36.3161 100.858 36.2167 100.95 36.0992 101.015L28.8276 105.079H28.4104C28.4304 104.958 28.4784 104.843 28.5506 104.742C28.6229 104.642 28.7176 104.559 28.8276 104.499V104.499Z" fill="#D1993F"/>
<path d="M38.6024 98.9838L45.874 94.8618H46.2912C46.2801 94.9932 46.2363 95.1201 46.1636 95.2313C46.0909 95.3426 45.9915 95.4349 45.874 95.5004L38.6024 99.8546H38.1851C38.1506 99.6851 38.1724 99.5093 38.2475 99.3527C38.3225 99.1961 38.4468 99.0669 38.6024 98.9838V98.9838Z" fill="#D1993F"/>
<path d="M48.3779 93.4688L55.7091 89.3468H56.0667C56.0579 89.4721 56.0214 89.594 55.9596 89.7042C55.8979 89.8145 55.8124 89.9104 55.7091 89.9854L48.3779 94.1074H48.0203C48.0291 93.9821 48.0656 93.8602 48.1273 93.7499C48.1891 93.6397 48.2745 93.5438 48.3779 93.4688V93.4688Z" fill="#D1993F"/>
<path d="M12.3163 32.0457C16.6077 29.6654 20.0647 31.5813 20.0647 36.3999C19.9149 39.0006 19.1346 41.5297 17.7878 43.78C16.441 46.0304 14.5659 47.9379 12.3163 49.3463C8.08444 51.7846 4.62744 49.8107 4.62744 45.0501C4.76615 42.4457 5.53496 39.91 6.87117 37.65C8.20738 35.39 10.0731 33.4697 12.3163 32.0457V32.0457Z" fill="#FDECC9"/>
<path d="M7.78733 61.712L18.4563 55.9065C18.8736 55.6162 19.2312 55.9065 19.2312 56.2548C19.2198 56.5212 19.1436 56.7812 19.0089 57.0134C18.8742 57.2455 18.6848 57.4432 18.4563 57.5901L7.78733 63.3956C7.3105 63.3956 6.95288 63.3956 6.95288 62.9893C6.96993 62.7251 7.05539 62.4694 7.20131 62.246C7.34722 62.0227 7.54883 61.839 7.78733 61.712V61.712Z" fill="#FCCF7E"/>
</svg>
