<svg width="65" height="121" viewBox="0 0 65 121" fill="none" xmlns="http://www.w3.org/2000/svg">
<path d="M3.31714 24.9743L41.2788 1.6463L64.3369 16.6672V83.408L3.31714 120.164V24.9743Z" fill="#FDECC9"/>
<path d="M3.31813 25.0884L0 23.3246V59.9666L3.31813 61.7304V25.0884Z" fill="#D1993F"/>
<path d="M0 58.373V118.514L3.31813 120.164V60.08L0 58.373Z" fill="#FCCF7E"/>
<path d="M11.5286 65.9976L52.9208 41.7023V80.3926L11.5286 104.859V65.9976Z" fill="#FDECC9" stroke="#754F17" stroke-width="0.25" stroke-miterlimit="10"/>
<path d="M11.5286 72.7681L52.9208 48.416V55.4143L11.5286 79.5958" fill="#FCCF7E"/>
<path d="M11.5286 72.7681L52.9208 48.416V55.4143L11.5286 79.5958" stroke="#754F17" stroke-width="0.15" stroke-miterlimit="10"/>
<path d="M11.5286 84.887L52.9208 60.5917V67.5332L11.5286 91.7147" fill="#FCCF7E"/>
<path d="M11.5286 84.887L52.9208 60.5917V67.5332L11.5286 91.7147" stroke="#754F17" stroke-width="0.15" stroke-miterlimit="10"/>
<path d="M11.5286 98.4289L52.9208 74.0768V81.0752L11.5286 105.257" fill="#FCCF7E"/>
<path d="M11.5286 98.4289L52.9208 74.0768V81.0752L11.5286 105.257" stroke="#754F17" stroke-width="0.15" stroke-miterlimit="10"/>
<path d="M19.178 75.1014V80.3929L39.5367 68.4444V63.2098L19.178 75.1014Z" fill="#D1993F" stroke="#754F17" stroke-width="0.15" stroke-miterlimit="10"/>
<path d="M19.178 87.2769V93.9339L39.5367 81.9855V75.3854L19.178 87.2769Z" fill="#D1993F" stroke="#754F17" stroke-width="0.15" stroke-miterlimit="10"/>
<path d="M3.31714 23.9501V60.08L64.3369 23.7225V17.0655L41.2788 1.6463L3.31714 23.9501Z" fill="#FCCF7E"/>
<path d="M41.2793 1.6463V28.3312L64.3375 16.6672L41.2793 1.6463Z" fill="#D1993F"/>
<path d="M39.3674 26.6812L41.0546 28.3312V1.6463C41.0546 1.6463 39.3674 0.166967 39.3674 0.679044V26.6812Z" fill="#754F17"/>
<path d="M0 23.3238L39.5926 0.906189L41.2798 3.29588L3.31813 24.9738" fill="#D1993F"/>
</svg>
