<svg width="76" height="100" viewBox="0 0 76 100" fill="none" xmlns="http://www.w3.org/2000/svg">
<path d="M66.188 88.4284L72.4199 84.7551V85.7569L66.188 89.3635V88.4284Z" fill="white"/>
<path d="M66.188 89.364L72.4199 85.7575V90.2323L66.188 93.8388V89.364Z" fill="#A81D05"/>
<path d="M3.27988 9.68658L9.44617 6.01324L9.31497 53.1655L3.14868 56.772L3.27988 9.68658Z" fill="#0F303F"/>
<path d="M3.14868 51.3621L9.31497 47.6888V48.6906L3.14868 52.2971V51.3621Z" fill="#C12106"/>
<path d="M54.315 75.1378C54.4354 75.8667 54.7012 76.5628 55.0961 77.1831C55.491 77.8034 56.0065 78.3347 56.6109 78.7443L50.4446 82.3508C49.8395 81.9578 49.3223 81.4395 48.9268 80.8297C48.5312 80.2198 48.2661 79.5321 48.1487 78.8111L54.315 75.1378Z" fill="#A81D05"/>
<path d="M54.315 74.6045V75.1388L48.1487 78.8121C48.1487 78.8121 48.1487 78.4114 48.1487 78.2778L50.4446 76.942H50.8382L54.315 74.6045Z" fill="white"/>
<path d="M54.3164 73.8691V74.3367L48.8061 77.5425L48.0845 78.01C48.0845 78.01 48.0845 77.6761 48.0845 77.5425L54.3164 73.8691Z" fill="white"/>
<path d="M56.6127 78.7445C56.874 78.8907 57.1673 78.9673 57.4655 78.9673C57.7636 78.9673 58.0569 78.8907 58.3183 78.7445L51.7584 82.4178C51.5114 82.5713 51.2277 82.6524 50.9384 82.6524C50.6491 82.6524 50.3654 82.5713 50.1184 82.4178L56.6127 78.7445Z" fill="#A81D05"/>
<path d="M48.1495 77.809C48.1495 77.809 48.1495 77.809 48.1495 78.2765C48.1495 78.744 48.1495 78.6104 48.1495 78.8108L35.0297 70.863L3.14868 52.296V51.361L34.7017 69.8612L48.1495 77.809Z" fill="white"/>
<path d="M34.7021 69.8625L40.8684 66.256L54.3162 74.137L48.1499 77.8103L34.7021 69.8625Z" fill="#6BB579"/>
<path d="M48.8057 76.7409L54.972 73.0676C55.2289 72.9083 55.5239 72.8241 55.8247 72.8241C56.1256 72.8241 56.4206 72.9083 56.6775 73.0676L50.1176 76.6741C49.9062 76.5926 49.6806 76.5564 49.4548 76.5679C49.229 76.5794 49.008 76.6383 48.8057 76.7409Z" fill="white"/>
<path d="M52.4795 80.548L65.9273 88.4957V89.4976L52.4795 81.483C52.4795 81.483 52.4795 81.1491 52.4795 81.0155C52.4795 80.8819 52.4795 80.548 52.4795 80.548Z" fill="#6BB579"/>
<path d="M52.7415 80.481L58.9077 76.8744L72.4211 84.7554L66.1892 88.4287L52.7415 80.481Z" fill="white"/>
<path d="M66.3192 46.7527L72.5511 43.0793L72.4199 84.755L66.188 88.4283L66.3192 46.7527Z" fill="#A81D05"/>
<path d="M66.1892 88.4292L53.5942 81.0158L52.7415 81.4833L66.1892 89.3643L72.4211 85.7577L71.5683 85.2234L66.1892 88.4292Z" fill="#6BB579"/>
<path d="M52.4786 81.4826C52.4587 81.7005 52.389 81.9106 52.2751 82.0961C52.1612 82.2817 52.0062 82.4375 51.8226 82.5512L53.069 81.8165L52.4786 81.4826ZM53.9218 81.4826L58.0545 79.0114C58.3218 78.9419 58.5608 78.7882 58.7375 78.5724C58.9141 78.3566 59.0195 78.0895 59.0385 77.8092C59.0747 77.6556 59.0747 77.4954 59.0385 77.3417V76.8742C58.9181 76.1453 58.6522 75.4491 58.2573 74.8288C57.8625 74.2085 57.3469 73.6772 56.7425 73.2677L50.1826 76.8742C50.7917 77.2941 51.3096 77.8368 51.7046 78.4686C52.0995 79.1004 52.3629 79.808 52.4786 80.5476L53.9218 81.4826Z" fill="white"/>
<path d="M50.4446 76.8744H50.051L48.1487 78.0098C48.1487 78.0098 48.1487 78.0098 48.1487 78.4773C48.1487 78.9448 48.1487 78.8113 48.1487 79.0116C48.2661 79.7326 48.5312 80.4204 48.9268 81.0302C49.3223 81.6401 49.8395 82.1583 50.4446 82.5514C51.5598 83.2861 52.5438 82.5514 52.7406 81.6832C52.9374 80.8149 52.7406 81.3492 52.7406 81.2156C52.7406 81.0821 52.4782 80.5478 52.4782 80.5478C52.3945 79.829 52.1716 79.1343 51.8226 78.5038C51.4735 77.8733 51.0052 77.3195 50.4446 76.8744V76.8744Z" fill="#6BB579"/>
<path d="M50.4459 76.8745H50.0523L48.1499 78.0099L35.4893 70.3961L34.7021 70.8636L48.1499 78.8113L50.8395 77.2084L50.4459 76.8745Z" fill="#6BB579"/>
<path d="M53.7922 73.8689L54.4482 73.4681L53.7922 73.8689Z" fill="#A81D05"/>
<path d="M50.4459 82.3516C51.561 83.0863 52.545 82.3516 52.7418 81.4834L66.1896 89.4311V93.9059L34.7021 75.4057V70.9309L48.1499 78.8786C48.2759 79.5877 48.545 80.2625 48.9402 80.8603C49.3353 81.458 49.8481 81.9659 50.4459 82.3516V82.3516Z" fill="#A8B58A"/>
<path d="M65.9924 90.2318L52.8726 82.6179L51.6262 83.3526C51.3792 83.506 51.0955 83.5872 50.8062 83.5872C50.5169 83.5872 50.2332 83.506 49.9862 83.3526C49.3811 82.9596 48.8639 82.4413 48.4684 81.8314C48.0728 81.2216 47.8077 80.5338 47.6903 79.8128L34.5705 71.8651L6.95341 54.567L3.14868 56.771L66.1891 93.9051L72.421 90.2985L68.6163 88.0278L65.9924 90.2318ZM34.7017 69.8615L36.2761 68.9932L9.31497 53.1645L7.7406 53.8324L34.7017 69.8615Z" fill="#D4FCDC"/>
<path d="M3.14868 52.2966L9.31497 48.6901L40.868 67.1903L34.7017 70.8636L3.14868 52.2966Z" fill="#6BB579"/>
<path d="M3.14868 51.3621L9.31497 47.6888L40.868 66.2558L34.7017 69.8623L3.14868 51.3621Z" fill="white"/>
<path d="M27.8145 57.039L33.9807 53.3657L40.9342 52.7646L34.7023 56.438L27.8145 57.039Z" fill="#C12106"/>
<path d="M34.7021 56.438L40.934 52.7646L40.8684 66.2558L34.7021 69.8623V56.438Z" fill="#EAF9B7"/>
<path d="M27.8801 38.4042L34.0463 34.7309L33.9807 53.3647L27.8145 57.038L27.8801 38.4042Z" fill="#C12106"/>
<path d="M27.8796 38.4042L34.0459 34.7309L40.9338 43.4801L34.7675 47.0866L27.8796 38.4042Z" fill="white"/>
<path d="M34.7021 56.4376L40.934 52.7642L47.8219 52.1631L41.6556 55.8365L34.7021 56.4376Z" fill="#A81D05"/>
<path d="M27.8801 38.4045L34.7679 47.0869L41.6558 55.8361L34.7023 56.4372L27.8145 57.0383L27.8801 38.4045Z" fill="#6BB579"/>
<path d="M34.7664 47.0871L40.9326 43.4806L47.8205 52.163L41.6542 55.8363L34.7664 47.0871Z" fill="white"/>
<path d="M3.27979 9.68658L9.44607 6.01324L40.9991 24.5803L34.8328 28.1868L3.27979 9.68658Z" fill="#C12106"/>
<path d="M34.8329 28.1857L34.7673 47.0867L27.8794 38.4043L27.8138 57.0381L34.7017 56.437V69.8613L3.14868 51.3611V52.2961L34.7017 70.8632V75.3379L3.14868 56.7709L3.27988 9.68549L34.8329 28.1857Z" fill="#D4FCDC"/>
<path d="M34.832 28.1868L40.9982 24.5803L40.9326 43.4812L34.7664 47.0878L34.832 28.1868Z" fill="#EAF9B7"/>
<path d="M34.832 28.1859L66.3194 46.7529V88.4286L52.478 80.5476C52.354 79.8199 52.0866 79.1252 51.6921 78.5054C51.2975 77.8856 50.7839 77.3535 50.1821 76.9411C49.0669 76.2732 48.0829 76.9411 47.8861 77.8761L34.7664 69.9283V56.5708L41.6542 55.8361L34.7664 47.1537L34.832 28.1859Z" fill="#D4FCDC"/>
<path d="M34.8333 28.1868L40.9995 24.5803L72.5526 43.0805L66.3207 46.7538L34.8333 28.1868Z" fill="#A81D05"/>
<path d="M0.131836 4.07594L6.36372 0.402603L75.7017 41.1432L69.4698 44.8165L0.131836 4.07594Z" fill="#D4FCDC"/>
<path d="M0 4.0761L69.338 44.8167V99.4492L0 58.7086V4.0761ZM66.1892 88.4292V46.7535L34.833 28.1865L3.27994 9.68628V56.7717L66.1892 93.9058V88.496V88.4292Z" fill="#6BB579"/>
<path d="M69.4679 44.8169L75.6998 41.1436L75.503 95.8428L69.3367 99.4494L69.4679 44.8169Z" fill="#2E6B38"/>
</svg>
