<svg width="100" height="101" viewBox="0 0 100 101" fill="none" xmlns="http://www.w3.org/2000/svg">
<g clip-path="url(#clip0_2588_3543)">
<path opacity="0.999" fill-rule="evenodd" clip-rule="evenodd" d="M10.8399 -0.0244141C29.1342 -0.0244141 47.4283 -0.0244141 65.7227 -0.0244141C65.7227 0.04069 65.7227 0.105794 65.7227 0.170898C65.4953 7.55979 65.4627 14.9817 65.625 22.4365C66.0155 25.3361 67.6106 27.1916 70.4102 28.0029C78.0922 28.1006 85.7745 28.1332 93.4571 28.1006C93.5221 28.1006 93.5873 28.1006 93.6524 28.1006C93.685 50.4965 93.6524 72.8924 93.5547 95.2881C93.2829 96.4041 92.762 97.3807 91.9922 98.2178C91.0938 99.0236 90.0848 99.6096 88.9649 99.9756C62.9233 99.9756 36.8815 99.9756 10.8399 99.9756C9.13987 99.4164 7.80524 98.3748 6.83594 96.8506C6.60225 96.3449 6.40694 95.824 6.25 95.2881C6.11979 65.0797 6.11979 34.8715 6.25 4.66309C6.52194 3.54713 7.04278 2.57057 7.81251 1.7334C8.71085 0.927498 9.71997 0.341561 10.8399 -0.0244141Z" fill="#C2C1EF"/>
<path fill-rule="evenodd" clip-rule="evenodd" d="M65.7225 0.170898C69.2381 3.55631 72.6887 7.00684 76.074 10.5225C81.8684 16.3818 87.6625 22.2412 93.4568 28.1006C85.7742 28.1332 78.092 28.1006 70.41 28.0029C67.6104 27.1916 66.0152 25.3361 65.6248 22.4365C65.4625 14.9817 65.4951 7.55979 65.7225 0.170898Z" fill="#4B7DBE"/>
<path fill-rule="evenodd" clip-rule="evenodd" d="M18.6523 15.6006C30.1107 15.6006 41.5689 15.6006 53.0273 15.6006C53.0273 17.6839 53.0273 19.7672 53.0273 21.8506C41.5689 21.8506 30.1107 21.8506 18.6523 21.8506C18.6523 19.7672 18.6523 17.6839 18.6523 15.6006Z" fill="#4B7DBE"/>
<path fill-rule="evenodd" clip-rule="evenodd" d="M18.6523 28.1006C30.1107 28.1006 41.5689 28.1006 53.0273 28.1006C53.0273 30.184 53.0273 32.2672 53.0273 34.3506C41.5689 34.3506 30.1107 34.3506 18.6523 34.3506C18.6523 32.2672 18.6523 30.184 18.6523 28.1006Z" fill="#4B7DBE"/>
<path fill-rule="evenodd" clip-rule="evenodd" d="M18.6523 40.6006C39.4857 40.6006 60.3189 40.6006 81.1523 40.6006C81.1523 42.684 81.1523 44.7672 81.1523 46.8506C60.3189 46.8506 39.4857 46.8506 18.6523 46.8506C18.6523 44.7672 18.6523 42.684 18.6523 40.6006Z" fill="#4B7DBE"/>
<path fill-rule="evenodd" clip-rule="evenodd" d="M18.6523 53.1006C39.4857 53.1006 60.3189 53.1006 81.1523 53.1006C81.1523 55.184 81.1523 57.2672 81.1523 59.3506C60.3189 59.3506 39.4857 59.3506 18.6523 59.3506C18.6523 57.2672 18.6523 55.184 18.6523 53.1006Z" fill="#4B7DBE"/>
<path fill-rule="evenodd" clip-rule="evenodd" d="M18.6523 65.6006C39.4857 65.6006 60.3189 65.6006 81.1523 65.6006C81.1523 67.684 81.1523 69.7672 81.1523 71.8506C60.3189 71.8506 39.4857 71.8506 18.6523 71.8506C18.6523 69.7672 18.6523 67.684 18.6523 65.6006Z" fill="#4B7DBE"/>
<path fill-rule="evenodd" clip-rule="evenodd" d="M18.6523 78.1006C39.4857 78.1006 60.3189 78.1006 81.1523 78.1006C81.1523 80.184 81.1523 82.2672 81.1523 84.3506C60.3189 84.3506 39.4857 84.3506 18.6523 84.3506C18.6523 82.2672 18.6523 80.184 18.6523 78.1006Z" fill="#4B7DBE"/>
</g>
<defs>
<clipPath id="clip0_2588_3543">
<rect width="100" height="100" fill="white" transform="translate(0 0.0732422)"/>
</clipPath>
</defs>
</svg>
