<svg width="76" height="92" viewBox="0 0 76 92" fill="none" xmlns="http://www.w3.org/2000/svg">
<path d="M75.6975 69.6734V58.3168H50.2667L41.5269 53.1667C40.2973 52.5702 38.9495 52.2604 37.5841 52.2604C36.2187 52.2604 34.8709 52.5702 33.6413 53.1667L25.4929 57.9206H0.0620944V69.6073C0.0544235 70.058 0.18195 70.5006 0.428075 70.8774C0.6742 71.2542 1.02753 71.5479 1.44206 71.7202L34.2985 90.7358C35.5061 91.3666 36.8473 91.696 38.2084 91.696C39.5695 91.696 40.9106 91.3666 42.1183 90.7358L73.7261 72.6446C75.1061 71.5881 75.7632 70.5977 75.6975 69.6734Z" fill="#BA503A"/>
<path d="M37.847 52.4396C36.3817 52.4526 34.9403 52.8147 33.6413 53.496L25.4929 58.2499H0.0620944V69.9366C0.0544235 70.3873 0.18195 70.8299 0.428075 71.2067C0.674201 71.5835 1.02753 71.8772 1.44206 72.0495L34.2985 91.0651C35.4028 91.6716 36.6573 91.9466 37.9127 91.8575L37.847 52.4396Z" fill="#BA503A"/>
<path d="M2.95346 58.2505H0.0620944V69.9373C0.0544235 70.3879 0.18195 70.8305 0.428075 71.2073C0.674201 71.5842 1.02753 71.8778 1.44206 72.0501L2.95346 72.9745V58.2505Z" fill="#FD896E"/>
<path d="M34.7595 91.33C36.8692 92.1752 39.2211 92.1752 41.3308 91.33V78.1247H34.7595V91.33Z" fill="#FD896E"/>
<path d="M34.2331 79.2466L1.37672 60.2309C-0.594662 59.4386 -0.33181 57.1937 1.96814 55.8732L33.6417 37.4518C34.8713 36.8553 36.2191 36.5455 37.5845 36.5455C38.9499 36.5455 40.2977 36.8553 41.5272 37.4518L74.3836 56.5335C76.4207 57.6559 76.1579 59.7027 73.7922 61.0893L42.0529 79.2466C40.8405 79.8618 39.5013 80.1822 38.143 80.1822C36.7848 80.1822 35.4455 79.8618 34.2331 79.2466V79.2466Z" fill="#FFC2B6"/>
<path d="M34.8247 76.0116L7.35676 60.0992C5.64823 59.1088 5.84537 57.3921 7.81675 56.2696L34.1019 40.8194C35.1208 40.3028 36.2462 40.0337 37.3875 40.0337C38.5288 40.0337 39.6542 40.3028 40.6732 40.8194L68.404 56.5337C70.1125 57.5241 69.9153 59.2408 67.944 60.3633L41.6588 75.7475C40.6279 76.3494 39.4659 76.6881 38.2745 76.7342C37.0831 76.7802 35.8986 76.5321 34.8247 76.0116V76.0116Z" fill="#FD896E"/>
<path d="M63.6085 72.6448C63.5885 73.1074 63.4589 73.5584 63.2302 73.9604C63.0016 74.3624 62.6807 74.7037 62.2942 74.9558C61.5714 75.4179 60.98 74.9558 60.98 74.2295C60.9999 73.7669 61.1296 73.3159 61.3582 72.9139C61.5868 72.5119 61.9078 72.1706 62.2942 71.9185C63.0171 71.4563 63.6085 71.8525 63.6085 72.6448Z" fill="#FFC2B6"/>
<path d="M67.8781 70.2013C67.848 70.6615 67.714 71.1087 67.4863 71.5091C67.2586 71.9095 66.9431 72.2526 66.5638 72.5123C65.7753 72.9084 65.1838 72.5123 65.1838 71.7199C65.211 71.2514 65.3507 70.7964 65.591 70.394C65.8313 69.9915 66.1651 69.6535 66.5638 69.409C67.2866 69.0128 67.8781 69.343 67.8781 70.2013Z" fill="#FFC2B6"/>
<path d="M72.3468 67.693C72.3253 68.1629 72.188 68.62 71.9471 69.0234C71.7062 69.4268 71.3694 69.7637 70.9668 70.0039C70.244 70.4661 69.6526 70.0039 69.6526 69.2776C69.6725 68.815 69.8022 68.364 70.0308 67.962C70.2594 67.56 70.5804 67.2188 70.9668 66.9667C71.5583 66.5045 72.3468 66.9006 72.3468 67.693Z" fill="#FFC2B6"/>
<path d="M75.6996 51.5157V40.0931H50.2688L41.529 35.0091C40.305 34.3933 38.9551 34.0726 37.5862 34.0726C36.2174 34.0726 34.8674 34.3933 33.6435 35.0091L25.4951 39.763H0.064209V51.7798C0.0652052 52.2286 0.19623 52.6674 0.441285 53.0426C0.686339 53.4178 1.03482 53.7132 1.44418 53.8927L34.2349 72.6443C35.4426 73.2751 36.7837 73.6044 38.1448 73.6044C39.5059 73.6044 40.847 73.2751 42.0547 72.6443L73.7283 54.2889C75.1082 53.4305 75.7654 52.4401 75.6996 51.5157Z" fill="#BA503A"/>
<path d="M37.8491 34.2162C36.3787 34.2521 34.9377 34.6367 33.6435 35.3386L25.4951 40.0925H0.064209V51.7792C0.0652052 52.228 0.19623 52.6668 0.441285 53.042C0.686339 53.4172 1.03482 53.7126 1.44418 53.8921L34.2349 72.6436C35.3392 73.25 36.5937 73.5251 37.8491 73.436V34.2162Z" fill="#BA503A"/>
<path d="M2.95557 40.0933H0.064209V51.78C0.0652052 52.2288 0.19623 52.6676 0.441285 53.0428C0.686339 53.418 1.03482 53.7133 1.44418 53.8929L2.95557 54.7512V40.0933Z" fill="#FD896E"/>
<path d="M34.7595 73.1727C36.8692 74.0179 39.2211 74.0179 41.3308 73.1727V59.9674H34.7595V73.1727Z" fill="#FD896E"/>
<path d="M34.2334 61.2874L1.37696 42.2057C-0.66014 41.0833 -0.397288 39.0364 1.90266 37.6499L33.6419 19.2945C34.8715 18.698 36.2193 18.3882 37.5847 18.3882C38.9501 18.3882 40.2979 18.698 41.5275 19.2945L74.3839 38.3101C76.421 39.4986 76.1581 41.5454 73.7925 42.866L42.0532 60.9573C40.8617 61.6095 39.5371 61.9784 38.1815 62.0357C36.8258 62.0929 35.4751 61.8369 34.2334 61.2874Z" fill="#FFC2B6"/>
<path d="M34.8247 57.8543L7.35676 41.8759C5.64823 40.8855 5.84537 39.2348 7.81675 38.0463L34.1019 22.6621C35.1208 22.1456 36.2462 21.8765 37.3875 21.8765C38.5288 21.8765 39.6542 22.1456 40.6732 22.6621L68.404 38.3764C70.1125 39.3008 69.9153 41.0175 67.944 42.14L41.6588 57.5902C40.6279 58.1921 39.4659 58.5309 38.2745 58.5769C37.0831 58.623 35.8986 58.3749 34.8247 57.8543Z" fill="#FD896E"/>
<path d="M63.6085 54.4875C63.5885 54.95 63.4589 55.4011 63.2302 55.8031C63.0016 56.2051 62.6807 56.5463 62.2942 56.7984C61.5714 57.1946 60.98 56.7984 60.98 56.0061C61.0147 55.5471 61.1507 55.1016 61.378 54.7019C61.6053 54.3022 61.9183 53.9583 62.2942 53.6952C63.0171 53.299 63.6085 53.6291 63.6085 54.4875Z" fill="#FFC2B6"/>
<path d="M67.8781 52.0441C67.848 52.5042 67.714 52.9515 67.4863 53.3519C67.2586 53.7523 66.9431 54.0953 66.5638 54.355C65.7753 54.7511 65.1838 54.355 65.1838 53.5627C65.2053 53.0928 65.3427 52.6356 65.5835 52.2322C65.8244 51.8288 66.1613 51.4919 66.5638 51.2517C67.2866 50.8556 67.8781 51.1857 67.8781 52.0441Z" fill="#FFC2B6"/>
<path d="M72.3468 49.5352C72.3253 50.0051 72.188 50.4623 71.9471 50.8657C71.7062 51.269 71.3694 51.6059 70.9668 51.8461C70.244 52.3083 69.6526 51.8461 69.6526 51.0538C69.6827 50.6027 69.8172 50.1648 70.0453 49.7751C70.2735 49.3854 70.589 49.0545 70.9668 48.8089C71.5583 48.3467 72.3468 48.6768 72.3468 49.5352Z" fill="#FFC2B6"/>
<path d="M75.6996 33.0279V21.9355H50.2688L41.529 16.8514C40.2836 16.2706 38.9181 15.9975 37.5463 16.055C36.1746 16.1124 34.8364 16.4987 33.6435 17.1815L25.4951 21.9355H0.064209V33.6222C0.0652052 34.0709 0.19623 34.5097 0.441285 34.8849C0.686339 35.2601 1.03482 35.5555 1.44418 35.735L34.3006 54.7507C35.513 55.3658 36.8523 55.6863 38.2105 55.6863C39.5687 55.6863 40.908 55.3658 42.1204 54.7507L73.794 36.3953C75.1082 35.2728 75.7654 34.2824 75.6996 33.0279Z" fill="#BA503A"/>
<path d="M37.8491 16.0589C36.3787 16.0948 34.9377 16.4794 33.6435 17.1814L25.4951 21.9353H0.064209V33.622C0.0652052 34.0708 0.19623 34.5095 0.441285 34.8847C0.686339 35.2599 1.03482 35.5553 1.44418 35.7348L34.3006 54.7505C35.4257 55.2988 36.6646 55.5704 37.9148 55.5428L37.8491 16.0589Z" fill="#BA503A"/>
<path d="M2.95557 21.936H0.064209V33.6227C0.0652052 34.0715 0.19623 34.5103 0.441285 34.8855C0.686339 35.2607 1.03482 35.5561 1.44418 35.7356L2.95557 36.5939V21.936Z" fill="#FD896E"/>
<path d="M34.7595 55.0153C36.8764 55.8219 39.2139 55.8219 41.3308 55.0153V41.8099H34.7595V55.0153Z" fill="#FD896E"/>
<path d="M34.2341 43.0653L1.3777 24.0496C-0.593685 22.9272 -0.330834 20.8804 1.96911 19.8239L33.6427 1.13841C34.8356 0.455535 36.1738 0.0692626 37.5456 0.0118328C38.9173 -0.0455969 40.2829 0.227482 41.5282 0.808279L74.3189 19.8239C76.356 21.0124 76.0932 23.0592 73.7275 24.3798L42.0539 42.7352C40.8728 43.4176 39.5454 43.8039 38.1842 43.8613C36.823 43.9188 35.468 43.6457 34.2341 43.0653Z" fill="#FFC2B6"/>
<path d="M73.727 22.1344L42.0534 40.5558C40.8619 41.2081 39.5374 41.577 38.1817 41.6342C36.8261 41.6915 35.4754 41.4355 34.2336 40.886L1.44293 21.8043C1.03993 21.5901 0.682704 21.2984 0.391529 20.9459C0.2256 21.212 0.120766 21.5118 0.0846501 21.8237C0.0485339 22.1355 0.0820434 22.4516 0.182742 22.7488C0.283441 23.046 0.448797 23.3169 0.666786 23.5419C0.884776 23.7668 1.14992 23.9401 1.44293 24.0492L34.2993 43.0648C35.507 43.6956 36.8481 44.025 38.2092 44.025C39.5704 44.025 40.9115 43.6956 42.1192 43.0648L73.7927 24.7094C75.6327 23.653 76.1584 22.2004 75.3698 21.078C74.9012 21.5409 74.3417 21.9007 73.727 22.1344Z" fill="white"/>
<path d="M63.6085 36.3302C63.5784 36.7904 63.4444 37.2376 63.2167 37.638C62.989 38.0384 62.6735 38.3815 62.2942 38.6412C61.5714 39.0373 60.98 38.6412 60.98 37.8488C61.0101 37.3887 61.144 36.9414 61.3718 36.541C61.5995 36.1406 61.9149 35.7976 62.2942 35.5379C63.0171 35.1417 63.6085 35.4719 63.6085 36.3302Z" fill="#FFC2B6"/>
<path d="M67.8781 33.8209C67.8581 34.2835 67.7284 34.7345 67.4998 35.1365C67.2712 35.5385 66.9503 35.8798 66.5638 36.1319C65.7753 36.5941 65.1838 36.1319 65.1838 35.4056C65.1944 34.9243 65.3267 34.4537 65.5681 34.0379C65.8095 33.6221 66.1521 33.2748 66.5638 33.0286C67.2866 32.6325 67.8781 33.0286 67.8781 33.8209Z" fill="#FFC2B6"/>
<path d="M72.3468 31.3783C72.3197 31.8469 72.18 32.3018 71.9397 32.7043C71.6993 33.1068 71.3655 33.4447 70.9668 33.6893C70.244 34.0854 69.6526 33.6893 69.6526 32.8969C69.6827 32.4368 69.8166 31.9895 70.0444 31.5891C70.2721 31.1887 70.5875 30.8457 70.9668 30.586C71.5583 30.1898 72.3468 30.52 72.3468 31.3783Z" fill="#FFC2B6"/>
<path d="M36.1391 31.311L20.828 22.3974C19.7766 21.8692 19.7766 20.8788 21.0909 20.2846L35.8762 11.6351C36.4508 11.3595 37.0795 11.2165 37.7162 11.2165C38.3529 11.2165 38.9816 11.3595 39.5562 11.6351L54.933 20.4166C55.8529 20.9448 55.7215 21.9353 54.933 22.5295L39.819 31.1129C39.2643 31.4342 38.642 31.6195 38.0026 31.6539C37.3633 31.6884 36.7248 31.5709 36.1391 31.311V31.311Z" fill="#FD896E"/>
<path d="M37.65 23.8503L35.4814 22.5958L37.5185 21.4073C37.5985 21.361 37.6891 21.3365 37.7814 21.3365C37.8737 21.3365 37.9643 21.361 38.0442 21.4073L40.1471 22.6618L38.0442 23.8503C37.9843 23.8851 37.9163 23.9034 37.8471 23.9034C37.7779 23.9034 37.7099 23.8851 37.65 23.8503Z" fill="#FD896E"/>
<path d="M20.828 22.3984L35.6134 13.815C36.1577 13.3962 36.7984 13.1222 37.4761 13.0183C38.1538 12.9144 38.8466 12.984 39.4905 13.2207L54.8672 22.3984C55.7215 21.7382 55.7872 20.9459 54.8672 20.4176L39.4905 11.5041C38.9159 11.2285 38.2872 11.0854 37.6505 11.0854C37.0138 11.0854 36.3851 11.2285 35.8105 11.5041L21.0909 20.2856C19.7766 20.8798 19.7766 21.8702 20.828 22.3984Z" fill="#BA503A"/>
<path d="M32.1309 46.2337C32.1309 46.7619 31.7367 47.026 31.211 46.7619C30.9611 46.5774 30.7549 46.3397 30.6072 46.0657C30.4596 45.7918 30.374 45.4884 30.3567 45.1773C30.3567 44.5831 30.751 44.385 31.211 44.6491C31.4801 44.8191 31.7043 45.052 31.8645 45.3279C32.0247 45.6039 32.1161 45.9146 32.1309 46.2337V46.2337Z" fill="#FFC2B6"/>
<path d="M29.3708 44.8465C29.3708 45.3747 28.9765 45.6388 28.4508 45.3087C28.1903 45.1451 27.9714 44.9226 27.8117 44.6589C27.652 44.3952 27.5558 44.0977 27.5308 43.79C27.5244 43.6796 27.5487 43.5695 27.6012 43.4722C27.6537 43.3749 27.7321 43.2942 27.8278 43.2393C27.9234 43.1844 28.0324 43.1574 28.1425 43.1614C28.2525 43.1654 28.3593 43.2002 28.4508 43.2618C28.7239 43.4275 28.9512 43.6594 29.1119 43.9362C29.2727 44.2131 29.3617 44.5261 29.3708 44.8465Z" fill="#FFC2B6"/>
<path d="M32.1309 49.7993C32.1309 50.3275 31.7367 50.5917 31.211 50.2615C30.959 50.0945 30.7502 49.8697 30.6017 49.6056C30.4532 49.3416 30.3692 49.0459 30.3567 48.7429C30.3567 48.1487 30.751 47.9506 31.211 48.2147C31.484 48.3804 31.7114 48.6122 31.8721 48.8891C32.0329 49.166 32.1218 49.4789 32.1309 49.7993Z" fill="#FFC2B6"/>
<path d="M29.3708 48.148C29.3708 48.7422 28.9765 49.0063 28.4508 48.6762C28.1937 48.5089 27.9774 48.2854 27.8181 48.0225C27.6588 47.7596 27.5606 47.4639 27.5308 47.1576C27.5244 47.0471 27.5487 46.937 27.6012 46.8397C27.6537 46.7424 27.7321 46.6618 27.8278 46.6069C27.9234 46.552 28.0324 46.525 28.1425 46.5289C28.2525 46.5329 28.3593 46.5677 28.4508 46.6294C28.7149 46.7889 28.9366 47.0104 29.0968 47.2749C29.257 47.5394 29.351 47.839 29.3708 48.148Z" fill="#FFC2B6"/>
<path d="M32.1309 64.5231C32.1309 65.0513 31.7367 65.3154 31.211 64.9853C30.959 64.8182 30.7502 64.5934 30.6017 64.3294C30.4532 64.0654 30.3692 63.7697 30.3567 63.4667C30.3567 62.8724 30.751 62.6743 31.211 62.9384C31.484 63.1041 31.7114 63.336 31.8721 63.6129C32.0329 63.8897 32.1218 64.2027 32.1309 64.5231V64.5231Z" fill="#FFC2B6"/>
<path d="M29.3708 62.8729C29.3708 63.4671 28.9765 63.7312 28.4508 63.4011C28.1937 63.2337 27.9774 63.0103 27.8181 62.7474C27.6588 62.4844 27.5606 62.1888 27.5308 61.8825C27.5244 61.772 27.5487 61.6619 27.6012 61.5646C27.6537 61.4673 27.7321 61.3866 27.8278 61.3317C27.9234 61.2768 28.0324 61.2498 28.1425 61.2538C28.2525 61.2578 28.3593 61.2926 28.4508 61.3542C28.7149 61.5138 28.9366 61.7353 29.0968 61.9998C29.257 62.2643 29.351 62.5639 29.3708 62.8729V62.8729Z" fill="#FFC2B6"/>
<path d="M32.1309 67.8246C32.1309 68.4189 31.7367 68.683 31.211 68.3528C30.9626 68.182 30.7566 67.9563 30.6085 67.6931C30.4604 67.4299 30.3743 67.1361 30.3567 66.8342C30.3567 66.24 30.751 66.0419 31.211 66.306C31.4751 66.4655 31.6968 66.687 31.857 66.9515C32.0172 67.216 32.1112 67.5156 32.1309 67.8246V67.8246Z" fill="#FFC2B6"/>
<path d="M29.3707 66.0418C29.3707 66.6361 28.9764 66.8341 28.4507 66.57C28.1936 66.4027 27.9774 66.1793 27.8181 65.9163C27.6588 65.6534 27.5606 65.3578 27.5308 65.0514C27.5308 64.4572 27.9908 64.1931 28.4507 64.5232C28.7149 64.6827 28.9365 64.9042 29.0968 65.1687C29.257 65.4332 29.351 65.7328 29.3707 66.0418Z" fill="#FFC2B6"/>
<path d="M32.1309 82.6144C32.1309 83.1426 31.7367 83.4067 31.211 83.0766C30.9626 82.9057 30.7566 82.6801 30.6085 82.4168C30.4604 82.1536 30.3743 81.8598 30.3567 81.558C30.3567 80.9637 30.751 80.7656 31.211 81.0298C31.484 81.1954 31.7114 81.4273 31.8721 81.7042C32.0329 81.981 32.1218 82.294 32.1309 82.6144V82.6144Z" fill="#FFC2B6"/>
<path d="M29.371 80.9631C29.371 81.5574 28.9768 81.8215 28.4511 81.4913C28.1939 81.324 27.9777 81.1006 27.8184 80.8376C27.6591 80.5747 27.5609 80.2791 27.5311 79.9727C27.4608 79.849 27.4372 79.704 27.4644 79.5642C27.4916 79.4244 27.5679 79.299 27.6794 79.211C27.7909 79.123 27.9301 79.0781 28.0718 79.0846C28.2134 79.0911 28.348 79.1486 28.4511 79.2464C28.7434 79.4236 28.983 79.6763 29.1448 79.9783C29.3066 80.2803 29.3848 80.6204 29.371 80.9631V80.9631Z" fill="#FFC2B6"/>
<path d="M32.1309 85.8498C32.1309 86.444 31.7367 86.6421 31.211 86.378C30.9626 86.2072 30.7566 85.9815 30.6085 85.7183C30.4604 85.455 30.3743 85.1612 30.3567 84.8594C30.3567 84.2651 30.751 84.001 31.211 84.3312C31.4751 84.4907 31.6968 84.7122 31.857 84.9767C32.0172 85.2412 32.1112 85.5408 32.1309 85.8498V85.8498Z" fill="#FFC2B6"/>
<path d="M29.3709 84.3305C29.3709 84.9248 28.9766 85.1229 28.4509 84.8587C28.1889 84.6811 27.9701 84.4463 27.8108 84.172C27.6515 83.8976 27.5558 83.5907 27.5309 83.2741C27.5005 83.1569 27.5111 83.0328 27.5609 82.9226C27.6107 82.8123 27.6967 82.7226 27.8045 82.6685C27.9123 82.6143 28.0353 82.5991 28.153 82.6252C28.2706 82.6513 28.3758 82.7172 28.4509 82.8119C28.715 82.9714 28.9367 83.1929 29.0969 83.4574C29.2571 83.7219 29.3511 84.0215 29.3709 84.3305Z" fill="#FFC2B6"/>
</svg>
