<svg width="100" height="100" viewBox="0 0 100 100" fill="none" xmlns="http://www.w3.org/2000/svg">
<g clip-path="url(#clip0_2588_5184)">
<path opacity="0.999" fill-rule="evenodd" clip-rule="evenodd" d="M23.3403 -0.0976562C38.4444 -0.0976562 53.5487 -0.0976562 68.6528 -0.0976562C68.6202 6.6084 68.6528 13.3141 68.7505 20.0195C69.7722 23.0943 71.8882 24.7219 75.0981 24.9023C81.2179 31.1523 87.4028 37.3373 93.6528 43.457C93.6854 60.7098 93.6528 77.9623 93.5552 95.2148C93.2833 96.3309 92.7624 97.3074 91.9927 98.1445C91.0942 98.9504 90.0853 99.5363 88.9653 99.9023C67.0903 99.9023 45.2153 99.9023 23.3403 99.9023C21.5007 99.268 20.1009 98.0961 19.1411 96.3867C19.0109 95.9961 18.8807 95.6055 18.7505 95.2148C18.6529 92.6115 18.6203 90.0072 18.6528 87.4023C38.705 87.435 58.7571 87.4023 78.8091 87.3047C79.7241 87.041 80.4077 86.4877 80.8599 85.6445C81.1288 84.3602 81.2265 83.058 81.1528 81.7383C81.1854 70.8656 81.1528 59.9934 81.0552 49.1211C80.7915 48.2061 80.2382 47.5225 79.395 47.0703C59.1587 46.7787 38.9112 46.6811 18.6528 46.7773C18.6203 32.7146 18.6528 18.6522 18.7505 4.58984C19.0224 3.47389 19.5433 2.49732 20.313 1.66016C21.2114 0.854256 22.2204 0.268318 23.3403 -0.0976562Z" fill="#F0ECC3"/>
<path fill-rule="evenodd" clip-rule="evenodd" d="M68.6529 -0.0976562C68.7179 -0.0976562 68.7831 -0.0976562 68.8482 -0.0976562C77.0513 8.17057 85.2544 16.4388 93.4575 24.707C87.3712 24.902 81.2513 24.9672 75.0982 24.9023C71.8882 24.7219 69.7722 23.0943 68.7505 20.0195C68.6529 13.3141 68.6202 6.6084 68.6529 -0.0976562Z" fill="#9A8E4E"/>
<path fill-rule="evenodd" clip-rule="evenodd" d="M93.457 24.707C93.652 30.9236 93.7172 37.1736 93.6523 43.457C87.4023 37.3373 81.2174 31.1523 75.0977 24.9023C81.2508 24.9672 87.3707 24.902 93.457 24.707Z" fill="#F0ECC3"/>
<path fill-rule="evenodd" clip-rule="evenodd" d="M18.6523 46.7776C38.9107 46.6813 59.1582 46.7789 79.3945 47.0705C80.2377 47.5227 80.791 48.2063 81.0547 49.1213C81.1523 59.9936 81.185 70.8658 81.1523 81.7385C80.7969 83.0375 79.9506 83.8514 78.6133 84.1799C58.6264 84.2776 38.6395 84.3102 18.6523 84.2776C15.1361 84.3102 11.6205 84.2776 8.10547 84.1799C7.22657 83.8219 6.60807 83.2033 6.25 82.3244C6.11979 71.1266 6.11979 59.9285 6.25 48.7307C6.60807 47.8518 7.22657 47.2332 8.10547 46.8752C11.6205 46.7776 15.1361 46.7449 18.6523 46.7776Z" fill="#C1B262"/>
<path fill-rule="evenodd" clip-rule="evenodd" d="M20.9961 57.3242C23.2756 57.2916 25.5543 57.3242 27.8321 57.4219C32.1501 58.2963 33.9405 60.933 33.2032 65.3321C32.6292 67.7942 31.0993 69.259 28.6133 69.7266C26.7917 69.8242 24.9686 69.8567 23.1446 69.8242C23.2125 71.2707 23.1149 72.703 22.8516 74.1211C21.8047 75.1994 20.8282 75.1344 19.9219 73.9258C19.7917 68.7826 19.7917 63.6393 19.9219 58.4961C20.1875 58.0033 20.5456 57.6127 20.9961 57.3242Z" fill="#F0ECC3"/>
<path fill-rule="evenodd" clip-rule="evenodd" d="M37.9883 57.5196C40.7327 57.4398 43.467 57.5374 46.1915 57.8126C51.0555 59.4966 53.1063 62.9146 52.3438 68.0665C51.5024 71.8378 49.1911 74.0839 45.4102 74.8048C42.8061 74.9351 40.2018 74.9351 37.5977 74.8048C37.2489 74.6515 36.9559 74.4237 36.7188 74.1212C36.5885 68.9128 36.5885 63.7046 36.7188 58.4962C37.1026 58.0958 37.5258 57.7702 37.9883 57.5196Z" fill="#F0ECC3"/>
<path fill-rule="evenodd" clip-rule="evenodd" d="M57.3243 57.5196C60.4499 57.4869 63.5749 57.5196 66.6993 57.6172C67.9786 57.8541 68.4668 58.603 68.1641 59.8633C67.8444 60.3145 67.4211 60.6074 66.8946 60.7422C64.3563 60.8399 61.8172 60.8725 59.2774 60.8399C59.2774 62.142 59.2774 63.444 59.2774 64.7461C61.4918 64.7135 63.7055 64.7461 65.918 64.8438C67.1063 65.3004 67.5295 66.1143 67.1875 67.2852C66.9504 67.5877 66.6575 67.8155 66.3086 67.9688C63.9659 68.0664 61.6221 68.099 59.2774 68.0664C59.3659 70.1699 59.2682 72.2533 58.9844 74.3164C57.8684 75.1893 56.8918 75.0592 56.0547 73.9258C55.9245 68.7826 55.9245 63.6393 56.0547 58.4961C56.4385 58.0957 56.8618 57.7701 57.3243 57.5196Z" fill="#F0ECC3"/>
<path fill-rule="evenodd" clip-rule="evenodd" d="M27.8324 60.6447C26.2699 60.6447 24.7074 60.6447 23.1449 60.6447C23.1449 62.6629 23.1449 64.6812 23.1449 66.6994C22.9508 64.6512 22.8855 62.5678 22.9496 60.4494C24.6131 60.3857 26.2406 60.4508 27.8324 60.6447Z" fill="#9A8E4E"/>
<path fill-rule="evenodd" clip-rule="evenodd" d="M27.832 60.6445C29.7369 61.2625 30.4855 62.5646 30.0781 64.5508C29.7852 65.625 29.1016 66.3086 28.0273 66.6016C26.401 66.6992 24.7734 66.7316 23.1445 66.6992C23.1445 64.6811 23.1445 62.6627 23.1445 60.6445C24.707 60.6445 26.2695 60.6445 27.832 60.6445Z" fill="#C1B262"/>
<path fill-rule="evenodd" clip-rule="evenodd" d="M39.9414 60.6445C41.5053 60.6121 43.0678 60.6445 44.6289 60.7421C47.5318 61.3013 49.0293 63.0591 49.1211 66.0156C49.265 68.9218 47.9631 70.8099 45.2148 71.6796C43.4582 71.7773 41.7004 71.8097 39.9414 71.7773C39.9414 68.0663 39.9414 64.3554 39.9414 60.6445Z" fill="#C1B262"/>
<path fill-rule="evenodd" clip-rule="evenodd" d="M81.1523 81.7383C81.226 83.058 81.1283 84.3602 80.8594 85.6445C80.4072 86.4877 79.7236 87.041 78.8086 87.3047C58.7566 87.4023 38.7045 87.435 18.6523 87.4023C18.6523 86.3607 18.6523 85.3189 18.6523 84.2773C38.6395 84.31 58.6264 84.2773 78.6133 84.1797C79.9506 83.8512 80.7969 83.0373 81.1523 81.7383Z" fill="#9A8E4E"/>
</g>
<defs>
<clipPath id="clip0_2588_5184">
<rect width="100" height="100" fill="white"/>
</clipPath>
</defs>
</svg>
