<svg width="96" height="108" viewBox="0 0 96 108" fill="none" xmlns="http://www.w3.org/2000/svg">
<g filter="url(#filter0_d_877:3)">
<path d="M54.4195 98.6525C52.4012 98.64 50.3862 98.4835 48.3897 98.1843C45.9317 98.0233 43.5984 97.034 41.7635 95.375C40.6119 94.0974 39.9946 92.4196 40.0407 90.6928C40.0385 88.9249 40.5701 87.1982 41.5648 85.7431C43.6669 83.0302 46.6871 81.1962 50.0463 80.5927C52.2259 80.1098 54.4429 79.8189 56.6724 79.7231H59.7867C63.652 79.2687 67.4535 78.371 71.1174 77.0476C72.7892 76.574 74.3013 75.6489 75.4907 74.372C76.2232 73.3167 76.6539 72.0782 76.7357 70.7923C76.8175 69.5063 76.5472 68.2225 75.9545 67.0812C74.73 64.7282 73.0908 62.6202 71.1174 60.8606L71.6475 60.3923C73.6993 62.2928 75.3844 64.5607 76.6172 67.0812C77.2498 68.3442 77.5344 69.7556 77.4411 71.1678C77.3479 72.5799 76.8802 73.9408 76.0871 75.1078C74.8114 76.4858 73.1833 77.4812 71.3825 77.984C67.6573 79.3318 63.7872 80.2299 59.853 80.6595H56.7387C54.5089 80.7516 52.2915 81.0425 50.1125 81.5291C46.95 82.1003 44.1008 83.8118 42.0949 86.3451C41.1642 87.6126 40.6618 89.1485 40.6618 90.7263C40.6618 92.304 41.1642 93.8399 42.0949 95.1075C43.943 96.7165 46.2817 97.6373 48.721 97.7161C56.3051 99.1289 64.1379 97.6001 70.6536 93.4352C73.6914 90.8379 76.1267 87.5984 77.787 83.9458C79.4472 80.2933 80.292 76.3171 80.2616 72.2985V71.8972C80.0333 69.5594 80.5685 67.2105 81.7856 65.2083C82.3436 64.5065 83.0361 63.9257 83.8217 63.5004C84.6073 63.0752 85.4698 62.8143 86.3576 62.7334C88.2024 62.5448 90.0569 62.9815 91.6286 63.9747C93.2003 64.9678 94.3998 66.4608 95.0379 68.2183H94.3753C93.7744 66.6203 92.6719 65.2648 91.2361 64.3589C89.8002 63.4531 88.1101 63.0466 86.4239 63.2017C84.8429 63.377 83.3924 64.1691 82.3819 65.409C81.3722 67.1728 80.889 69.1937 80.9904 71.2283V71.8303C80.8039 75.9606 79.8603 80.0203 78.2074 83.8033C76.6132 87.5781 74.0796 90.873 70.8524 93.3684C66.0715 96.8503 60.3147 98.7014 54.4195 98.6525Z" fill="#6D63CE"/>
<path d="M76.8818 60.3252V64.2716C76.8851 64.4697 76.8303 64.6643 76.7241 64.831C76.618 64.9976 76.4654 65.1288 76.2855 65.2081C75.8736 65.4143 75.42 65.5217 74.9603 65.5217C74.5005 65.5217 74.0469 65.4143 73.635 65.2081C73.448 65.1519 73.2833 65.0376 73.1644 64.8815C73.0454 64.7254 72.9782 64.5354 72.9724 64.3385V60.3252C73.0115 60.5109 73.0913 60.6854 73.206 60.8359C73.3207 60.9863 73.4673 61.109 73.635 61.1947C74.0989 61.425 74.609 61.5447 75.1259 61.5447C75.6429 61.5447 76.1529 61.425 76.6168 61.1947C76.6831 60.9272 76.8818 60.6596 76.8818 60.3252Z" fill="#24227A"/>
<path d="M76.8811 60.3249V64.2713C76.9394 64.4678 76.9394 64.6768 76.8811 64.8733V60.86C76.9491 60.6879 76.9491 60.4969 76.8811 60.3249Z" fill="#24227A"/>
<path d="M76.6824 60.8604V65.2082H76.2848C75.9379 65.3051 75.5715 65.3051 75.2246 65.2082V61.5293H76.2848L76.6824 61.1949V60.8604Z" fill="#24227A"/>
<path d="M75.2253 61.5292V65.2081C74.7071 65.3682 74.1533 65.3682 73.635 65.2081C73.448 65.1519 73.2833 65.0376 73.1644 64.8815C73.0454 64.7254 72.9782 64.5354 72.9724 64.3385V60.3252C73.0115 60.5109 73.0913 60.6854 73.206 60.8359C73.3207 60.9863 73.4673 61.109 73.635 61.1947C74.2644 61.3651 74.9272 61.3651 75.5566 61.1947L75.2253 61.5292Z" fill="#24227A"/>
<path d="M76.2846 59.4551C76.4568 59.5246 76.6044 59.6446 76.7084 59.7996C76.8123 59.9546 76.8679 60.1375 76.8679 60.3247C76.8679 60.5118 76.8123 60.6947 76.7084 60.8497C76.6044 61.0047 76.4568 61.1247 76.2846 61.1942C75.8656 61.3745 75.4148 61.4675 74.9593 61.4675C74.5038 61.4675 74.0531 61.3745 73.6341 61.1942C72.7727 60.726 72.7727 59.9233 73.6341 59.4551C74.046 59.2488 74.4995 59.1415 74.9593 59.1415C75.4191 59.1415 75.8727 59.2488 76.2846 59.4551Z" fill="#24227A"/>
<path d="M75.8229 59.7231C76.4193 60.0575 76.4193 60.5926 75.8229 60.927C75.505 61.0914 75.153 61.1771 74.7959 61.1771C74.4387 61.1771 74.0867 61.0914 73.7688 60.927C73.1724 60.927 73.1724 60.0575 73.7688 59.7231C74.0811 59.5411 74.4353 59.4453 74.7959 59.4453C75.1564 59.4453 75.5106 59.5411 75.8229 59.7231Z" fill="#24227A"/>
<path d="M68.0044 21.262C68.0395 18.7893 67.5892 16.334 66.6793 14.038C65.7695 11.7419 64.4182 9.65042 62.7035 7.88428L61.9746 8.3525C63.7334 10.0859 65.1136 12.1716 66.0266 14.4755C66.9395 16.7793 67.3649 19.2505 67.2755 21.7302V29.623L68.0044 29.2217V21.262Z" fill="#E7E7E7"/>
<path d="M49.9794 15.1084L42.0942 10.4262C44.6146 8.88123 47.4438 7.92162 50.3769 7.61688C52.6756 7.39671 54.9863 7.88655 57.0031 9.02153L64.9545 13.6368C62.9253 12.5359 60.6249 12.0483 58.3283 12.2322C55.3671 12.5476 52.5138 13.5305 49.9794 15.1084Z" fill="#BBB1EF"/>
<path d="M49.9794 15.1084L42.0942 10.4262C44.6146 8.88123 47.4438 7.92162 50.3769 7.61688C52.6756 7.39671 54.9863 7.88655 57.0031 9.02153L64.9545 13.6368C62.9253 12.5359 60.6249 12.0483 58.3283 12.2322C55.3671 12.5476 52.5138 13.5305 49.9794 15.1084Z" fill="#BBB1EF"/>
<path d="M30.6318 42.4663L22.6804 37.7841C22.3491 37.7841 22.2828 37.1153 22.6804 36.5133C24.057 32.517 25.8565 28.6822 28.0476 25.0753C30.2373 21.4225 32.8879 18.0724 35.9327 15.109C37.7876 13.2975 39.8574 11.7249 42.095 10.4268L49.9802 15.109C47.7658 16.4165 45.6995 17.9641 43.8178 19.7243C40.8097 22.6225 38.1619 25.8794 35.9327 29.4231C33.65 33.0931 31.804 37.0221 30.433 41.1286C30.2949 41.3364 30.2387 41.5889 30.2755 41.8364C30.3122 42.0839 30.4393 42.3086 30.6318 42.4663Z" fill="#BBB1EF"/>
<path d="M30.6315 42.466L22.6801 37.7838C22.3488 37.7838 22.2826 37.1149 22.6801 36.5129C23.6848 33.3157 24.994 30.2244 26.5896 27.2823L34.4747 31.7638C32.8489 34.7551 31.496 37.8895 30.4328 41.1282C30.2698 41.3122 30.1797 41.5503 30.1797 41.7971C30.1797 42.0439 30.2698 42.282 30.4328 42.466H30.6315Z" fill="#BBB1EF"/>
<path d="M34.4752 31.7634L26.5901 27.2819C27.2527 26.4792 27.2527 25.6097 28.0478 25.0746C29.8456 22.1697 31.9327 19.4578 34.2764 16.9811L42.1616 21.6633C39.837 24.1326 37.7514 26.8203 35.933 29.6899L34.4752 31.7634Z" fill="#BBB1EF"/>
<path d="M42.1622 21.3959L34.2771 16.7137L35.9336 15.1083C37.7885 13.2969 39.8584 11.7242 42.096 10.4261L49.9811 15.1083C47.7668 16.4158 45.7004 17.9634 43.8188 19.7236C43.2887 20.2588 42.6923 20.7939 42.1622 21.3959Z" fill="#BBB1EF"/>
<path d="M58.3297 12.2325C55.3685 12.5479 52.5152 13.5309 49.9808 15.1087C47.7664 16.4162 45.7001 17.9638 43.8184 19.724C40.8103 22.6223 38.1625 25.8792 35.9333 29.4229C33.6506 33.0929 31.8046 37.0218 30.4336 41.1284C30.4336 41.931 30.4336 42.533 30.8974 42.533H31.3613C31.8117 42.22 32.1581 41.7771 32.3552 41.2621C34.0127 36.2656 36.451 31.5687 39.5777 27.3493C41.0384 25.3495 42.6799 23.491 44.4811 21.7976C46.1441 20.1799 47.99 18.7655 49.9808 17.5836C52.2625 16.1939 54.8184 15.3262 57.4683 15.0418C58.2603 14.9404 59.0618 14.9404 59.8538 15.0418C59.8767 14.0347 59.6963 13.0333 59.3237 12.0988L58.3297 12.2325Z" fill="#BBB1EF"/>
<path d="M71.25 27.7511C71.3533 23.4654 69.9706 19.2778 67.3405 15.9118H67.0092H66.6779C65.1111 13.9318 62.8642 12.6187 60.3831 12.233C62.5016 15.4634 63.6097 19.2619 63.5636 23.1358V31.0286L71.515 35.7108L71.25 27.7511Z" fill="#24227A"/>
<path d="M72.5093 27.0152C72.7137 24.1889 72.2145 21.3558 71.0572 18.774C69.8999 16.1921 68.1212 13.9435 65.8831 12.2329C63.954 11.0403 61.7155 10.4579 59.4557 10.5607H58.8594L59.4557 11.2295C59.8085 11.5201 60.1205 11.8576 60.3834 12.2329C61.952 12.3424 63.473 12.8237 64.8229 13.6375H65.1542H67.0096C68.6428 15.5674 69.8627 17.8175 70.5925 20.2464C71.3223 22.6754 71.5463 25.2305 71.2503 27.751V35.7107C71.2876 35.7534 71.3335 35.7876 71.3849 35.8111C71.4363 35.8345 71.4921 35.8466 71.5485 35.8466C71.6049 35.8466 71.6606 35.8345 71.712 35.8111C71.7635 35.7876 71.8093 35.7534 71.8466 35.7107C72.0235 35.5934 72.1699 35.435 72.2737 35.2488C72.3774 35.0626 72.4355 34.854 72.443 34.6405L72.5093 27.0152Z" fill="#6D63CE"/>
<path d="M20.228 49.8904L25.2639 46.9473C26.8335 46.2095 28.5695 45.9073 30.2932 46.0719C32.0169 46.2365 33.666 46.8619 35.0706 47.8837L30.0347 50.8937C28.6423 49.848 26.9953 49.2025 25.2686 49.0258C23.5419 48.8492 21.8 49.1479 20.228 49.8904Z" fill="#6D63CE"/>
<path d="M20.228 49.8904L25.2639 46.9473C26.8335 46.2095 28.5695 45.9073 30.2932 46.0719C32.0169 46.2365 33.666 46.8619 35.0706 47.8837L30.0347 50.8937C28.6423 49.848 26.9953 49.2025 25.2686 49.0258C23.5419 48.8492 21.8 49.1479 20.228 49.8904Z" fill="#6D63CE"/>
<path d="M44.8105 80.9264L39.7746 83.8695C41.1695 82.8662 42.2777 81.5093 42.9873 79.9356C43.697 78.362 43.983 76.6273 43.8166 74.9065C43.5537 70.0914 42.1685 65.4069 39.7735 61.2342C37.3786 57.0615 34.0417 53.5186 30.0342 50.8935L35.0701 47.8835C39.0666 50.5204 42.3951 54.0662 44.7887 58.2364C47.1822 62.4066 48.574 67.0851 48.8525 71.8965C49.031 73.6281 48.7509 75.3765 48.0407 76.963C47.3306 78.5495 46.2159 79.9173 44.8105 80.9264Z" fill="#6D63CE"/>
<path d="M30.0342 50.8935L35.0701 47.8835L36.5941 48.8869L31.5582 51.83L30.0342 50.8935Z" fill="#6D63CE"/>
<path d="M31.5581 51.8296L36.594 48.8865C38.4977 50.2576 40.2133 51.8769 41.6961 53.7024L36.6602 56.7124C35.1773 54.8676 33.4621 53.2261 31.5581 51.8296Z" fill="#6D63CE"/>
<path d="M36.6609 56.7133L41.6968 53.7034C45.9055 58.7092 48.4136 64.9451 48.853 71.4957L43.8171 74.4388C43.3777 67.9082 40.8686 61.6936 36.6609 56.7133Z" fill="#6D63CE"/>
<path d="M43.8168 74.4386L48.8527 71.4955V71.8968C48.8825 73.6585 48.5672 75.4089 47.925 77.0472L42.8892 79.9903C43.5314 78.3519 43.8466 76.6016 43.8168 74.8399V74.3717V74.4386Z" fill="#6D63CE"/>
<path d="M42.8897 80.0574L47.9256 77.1143C47.3226 78.6914 46.23 80.029 44.8113 80.927L39.7754 83.8701C41.2108 82.9913 42.3086 81.6473 42.8897 80.0574Z" fill="#6D63CE"/>
<path d="M30.0354 50.8939C34.0429 53.519 37.3799 57.0619 39.7748 61.2346C42.1697 65.4073 43.555 70.0918 43.8179 74.9069C43.8179 83.7362 37.5893 87.3481 29.9692 82.8666C25.9617 80.2416 22.6248 76.6986 20.2298 72.5259C17.8349 68.3533 16.4496 63.6688 16.1868 58.8537C16.1868 49.9575 22.4154 46.4124 30.0354 50.8939Z" fill="#6D63CE"/>
<path d="M17.6431 53.503L19.8297 52.2321C21.2525 51.5665 22.8254 51.2962 24.3863 51.449C25.9471 51.6019 27.4392 52.1724 28.7088 53.1017L26.5221 54.3726C25.2526 53.4433 23.7605 52.8728 22.1996 52.7199C20.6388 52.5671 19.0659 52.8374 17.6431 53.503Z" fill="#FEC02F"/>
<path d="M37.5236 83.0002L35.337 84.2711C36.6064 83.3711 37.618 82.1487 38.2695 80.7276C38.9211 79.3065 39.1895 77.737 39.0476 76.1776C38.8075 71.8045 37.5482 67.5504 35.372 63.7613C33.1959 59.9722 30.1644 56.7552 26.5242 54.372L28.7108 53.1011C32.3278 55.5035 35.338 58.7265 37.501 62.5127C39.6639 66.2989 40.9197 70.5433 41.168 74.9067C41.3381 76.462 41.0893 78.0347 40.4479 79.4592C39.8065 80.8836 38.7962 82.107 37.5236 83.0002Z" fill="#BBB1EF"/>
<path d="M26.5242 54.372L28.7108 53.1011L30.1023 54.0375L27.9157 55.3084L26.5242 54.372Z" fill="#BBB1EF"/>
<path d="M27.9155 55.308L30.1022 54.0371C31.8062 55.3316 33.3423 56.8373 34.6742 58.5186L32.5538 59.7895C31.1906 58.1534 29.6327 56.6932 27.9155 55.4418V55.308Z" fill="#BBB1EF"/>
<path d="M32.5533 59.6565L34.6737 58.5194C38.5338 63.0389 40.8562 68.689 41.2999 74.6395L39.1132 75.9104C38.7072 69.9509 36.38 64.2893 32.4871 59.7903L32.5533 59.6565Z" fill="#BBB1EF"/>
<path d="M38.9802 75.7758L41.1668 74.5049V74.9063C41.2072 76.5044 40.9371 78.0951 40.3717 79.5885L38.1851 80.8593C38.7473 79.3632 39.039 77.7773 39.0465 76.1772C39.0465 76.1772 39.0465 76.1772 39.0465 75.7758H38.9802Z" fill="#BBB1EF"/>
<path d="M38.1872 80.8596L40.5063 79.5887C39.9714 81.0215 38.9656 82.2257 37.6571 83.0001L35.4705 84.2709C36.779 83.4966 37.7847 82.2924 38.3197 80.8596H38.1872Z" fill="#BBB1EF"/>
<path d="M26.5234 54.3723C30.1636 56.7555 33.1951 59.9725 35.3713 63.7616C37.5474 67.5507 38.8068 71.8048 39.0469 76.1779C39.0469 84.2045 33.3484 87.4152 26.4572 83.4019C22.8293 81.0112 19.8107 77.7909 17.6463 74.0023C15.482 70.2137 14.2327 65.9634 14 61.5962C14 53.6365 19.6322 50.359 26.5234 54.3723Z" fill="#F1F0FF"/>
<path d="M18.6389 60.9943L20.0967 60.1248C20.9468 59.7268 21.8872 59.5666 22.8196 59.6607C23.7521 59.7548 24.6424 60.0999 25.3976 60.6599L24.0061 61.5294C23.2378 60.9701 22.3366 60.6259 21.3939 60.5319C20.4513 60.4379 19.5007 60.5975 18.6389 60.9943Z" fill="#6D63CE"/>
<path d="M18.6389 60.9943L20.0967 60.1248C20.9468 59.7268 21.8872 59.5666 22.8196 59.6607C23.7521 59.7548 24.6424 60.0999 25.3976 60.6599L24.0061 61.5294C23.2378 60.9701 22.3366 60.6259 21.3939 60.5319C20.4513 60.4379 19.5007 60.5975 18.6389 60.9943Z" fill="#6D63CE"/>
<path d="M30.699 78.5861L29.2413 79.4557C29.9885 78.9136 30.583 78.1844 30.9664 77.34C31.3498 76.4956 31.5088 75.565 31.4279 74.6397C31.3429 71.9728 30.6244 69.3656 29.3329 67.0375C28.0414 64.7095 26.2147 62.7287 24.0066 61.262L25.3981 60.3925C27.5817 61.8111 29.3995 63.7338 30.7015 66.0018C32.0034 68.2697 32.7521 70.8179 32.8856 73.4357C33.0526 74.4157 32.9349 75.4234 32.5469 76.3374C32.1589 77.2513 31.5171 78.0323 30.699 78.5861Z" fill="#6D63CE"/>
<path d="M24.0061 61.5298L25.3976 60.6602L26.259 61.1953L24.8012 62.0649L24.0061 61.5298Z" fill="#6D63CE"/>
<path d="M24.8018 62.0652L26.2595 61.1957C27.2745 61.9412 28.1879 62.8183 28.9762 63.8043L27.5847 64.6739C26.7743 63.685 25.8386 62.808 24.8018 62.0652Z" fill="#6D63CE"/>
<path d="M27.5837 64.6733L28.9752 63.8037C31.2643 66.5103 32.6344 69.8858 32.8847 73.4357L31.4269 74.3052C31.2 70.7621 29.8529 67.386 27.5837 64.6733Z" fill="#6D63CE"/>
<path d="M31.426 74.3049L32.8837 73.4354C32.8943 74.3981 32.714 75.3533 32.3537 76.2447L30.9622 77.0473C31.2724 76.1671 31.4294 75.2392 31.426 74.3049Z" fill="#6D63CE"/>
<path d="M30.9633 77.316L32.3548 76.5134C32.0699 77.3674 31.4791 78.0832 30.6982 78.52L29.2405 79.3896C30.0283 78.9123 30.6349 78.1822 30.9633 77.316Z" fill="#6D63CE"/>
<path d="M24.006 61.5291C26.2141 62.9958 28.0408 64.9766 29.3323 67.3046C30.6238 69.6327 31.3423 72.2399 31.4273 74.9068C31.4273 79.6559 28.0479 81.5956 23.9397 79.1877C21.7232 77.7244 19.8865 75.746 18.5837 73.4183C17.2809 71.0907 16.5499 68.4816 16.4521 65.81C16.5184 61.0609 19.8315 59.1211 24.006 61.5291Z" fill="#6D63CE"/>
<path d="M71.5158 36.1125L63.5644 31.7647C63.5189 31.6349 63.5189 31.4932 63.5644 31.3634L71.5158 36.0456C71.5139 36.0679 71.5139 36.0902 71.5158 36.1125Z" fill="#6D63CE"/>
<path d="M27.9821 61.3962L20.097 56.7809C20.0621 56.7199 20.0437 56.6507 20.0437 56.5802C20.0437 56.5098 20.0621 56.4406 20.097 56.3796L28.0484 60.9949C27.9748 61.1146 27.951 61.2589 27.9821 61.3962Z" fill="#6D63CE"/>
<path d="M27.9821 61.3962L20.097 56.7809C20.0621 56.7199 20.0437 56.6507 20.0437 56.5802C20.0437 56.5098 20.0621 56.4406 20.097 56.3796L28.0484 60.9949C27.9968 61.1236 27.9968 61.2675 28.0484 61.3962H27.9821Z" fill="#6D63CE"/>
<path d="M27.7828 61.0618L19.8977 56.3796V49.4901L27.7828 54.1723V61.0618Z" fill="#6D63CE"/>
<path d="M57.6001 7.48378L65.4852 12.0991C63.4642 10.9714 61.1623 10.4602 58.8591 10.6275C55.8559 10.9412 52.9592 11.9235 50.3776 13.5037L42.1611 8.88844C44.7662 7.30698 47.6848 6.32492 50.7089 6.01224C53.1003 5.79125 55.5022 6.30414 57.6001 7.48378Z" fill="#6D63CE"/>
<path d="M50.1125 13.504L42.1611 8.88872C44.7662 7.30726 47.6848 6.32521 50.7089 6.01252C53.0121 5.84517 55.314 6.35637 57.335 7.48406L65.2202 12.0994C63.1992 10.9717 60.8973 10.4605 58.594 10.6278C55.5909 10.9415 52.6941 11.9238 50.1125 13.504Z" fill="#6D63CE"/>
<path d="M27.7828 54.172L19.8977 49.4898C20.0006 43.3893 21.2836 37.368 23.6746 31.7643C26.0399 26.023 29.3562 20.7301 33.4813 16.1124C36.0013 13.2805 38.9272 10.8455 42.1616 8.88849L50.113 13.5038C46.8294 15.4454 43.8762 17.907 41.3665 20.7946C37.238 25.4348 33.9218 30.7503 31.5598 36.5134C29.1771 42.0963 27.8943 48.0941 27.7828 54.172Z" fill="#6D63CE"/>
<path d="M27.7828 54.1723L19.8977 49.4901C20.0006 43.3896 21.2836 37.3683 23.6746 31.7647C24.4897 29.6958 25.4416 27.6847 26.5239 25.7447L34.4753 30.4269C33.3587 32.3356 32.3842 34.3254 31.5598 36.38C29.1771 41.9628 27.8943 47.9606 27.7828 54.0385V54.1723Z" fill="#6D63CE"/>
<path d="M34.4756 30.56L26.5242 25.8778C28.4825 22.3755 30.8157 19.1007 33.4816 16.1121L34.2768 15.2426L42.2282 19.8579L41.3668 20.7943C38.7996 23.7863 36.5767 27.0625 34.7406 30.56H34.4756Z" fill="#6D63CE"/>
<path d="M42.2278 19.8583L34.2764 15.243C36.6013 12.7673 39.2549 10.6289 42.1615 8.88861L50.1129 13.5039C47.1851 15.3469 44.5305 17.5989 42.2278 20.1928V19.8583Z" fill="#6D63CE"/>
<path d="M58.8592 10.6277C55.8561 10.9414 52.9593 11.9237 50.3777 13.504C46.9999 15.4217 43.9558 17.8845 41.3661 20.7948C37.2377 25.435 33.9215 30.7504 31.5594 36.5136C29.1768 42.0965 27.8939 48.0943 27.7825 54.1721V60.861C27.7825 61.2623 27.7825 61.463 28.3788 61.2623C28.5557 61.145 28.7021 60.9866 28.8058 60.8004C28.9096 60.6142 28.9677 60.4056 28.9752 60.1921V53.5033C29.1832 45.6923 31.3245 38.058 35.2038 31.2963C37.0291 27.8747 39.2537 24.6859 41.8299 21.7981C44.2048 19.1478 46.9774 16.8907 50.0464 15.1093C52.4837 13.6049 55.2228 12.668 58.064 12.3668C58.7471 12.2997 59.4351 12.2997 60.1181 12.3668C59.9422 11.9837 59.7196 11.6242 59.4555 11.2966L58.8592 10.6277Z" fill="#6D63CE"/>
<path d="M60.3831 6.07825L61.0457 6.54647C63.2732 8.23619 65.0464 10.4617 66.2037 13.0203C67.3611 15.5789 67.8658 18.3892 67.6718 21.195L67.0092 20.8606C67.2093 18.054 66.7073 15.2417 65.5495 12.682C64.3917 10.1224 62.6151 7.89757 60.3831 6.21202V6.07825Z" fill="#F1F0FF"/>
<path d="M23.807 54.9744L23.0781 54.5731L23.807 54.1049L24.5359 54.5731L23.807 54.9744Z" fill="#F1F0FF"/>
<path d="M24.535 54.5731L23.8062 54.1049V47.2822L24.4688 47.6836L24.535 54.5731Z" fill="#F1F0FF"/>
<path d="M59.8543 6.94806L60.3844 7.41628C58.0551 6.31514 55.4777 5.85874 52.9163 6.0938C50.3548 6.32887 47.9012 7.24696 45.8068 8.75405C39.4765 13.1005 34.2471 18.8884 30.5408 25.6507C26.8346 32.413 24.7552 39.9602 24.4706 47.6831L23.7417 47.2818C24.0106 39.5554 26.0832 32.0024 29.7909 25.2376C33.4985 18.4728 38.7364 12.6875 45.0779 8.35272C47.1936 6.81087 49.6789 5.86768 52.2768 5.62072C54.8746 5.37376 57.4907 5.83202 59.8543 6.94806Z" fill="#F1F0FF"/>
<path d="M24.4698 47.683L23.741 47.2816C24.0353 39.2616 26.3132 31.4434 30.3671 24.5396L30.8972 25.0747C26.8433 31.9785 24.5654 39.7967 24.2711 47.8167L24.4698 47.683Z" fill="#F1F0FF"/>
<path d="M30.8986 25.0745L30.1697 24.6731C32.1985 20.9717 34.6686 17.5348 37.5247 14.4392L38.2536 14.8405C35.3974 17.9361 32.9274 21.373 30.8986 25.0745Z" fill="#F1F0FF"/>
<path d="M38.2523 14.8408L37.5234 14.4395C39.7376 12.0536 42.2818 10.0034 45.0773 8.3526C47.1929 6.81075 49.6782 5.86756 52.2761 5.6206C54.874 5.37364 57.49 5.83189 59.8536 6.94794L60.3837 7.41616C58.0544 6.31502 55.4771 5.85861 52.9156 6.09368C50.3541 6.32874 47.9005 7.24683 45.8061 8.75393C43.0107 10.4047 40.4664 12.4549 38.2523 14.8408Z" fill="#F1F0FF"/>
<path d="M61.1781 6.61376C58.7445 5.39062 56.0258 4.86248 53.3163 5.08648C50.6068 5.31048 48.0095 6.27809 45.8054 7.88465C39.1945 12.1371 33.8028 18.064 30.1677 25.075C26.0946 32.0922 23.8173 40.0232 23.5415 48.1515V54.8404L24.2704 54.439V47.7502C24.5671 39.9981 26.672 32.4262 30.414 25.6502C34.156 18.8741 39.4294 13.0852 45.8054 8.7542C48.123 6.9952 50.927 6.01097 53.8256 5.93902C56.7243 5.86707 59.5728 6.71098 61.9732 8.35286L62.7021 7.68398L61.1781 6.61376Z" fill="#F1F0FF"/>
<path d="M25.6617 66.4119L24.9329 66.8132C25.1113 66.6863 25.254 66.5148 25.3469 66.3154C25.4398 66.1161 25.4798 65.8958 25.463 65.6761L26.1918 65.2079C26.2209 65.4383 26.1869 65.6724 26.0934 65.8846C26 66.0969 25.8507 66.2793 25.6617 66.4119Z" fill="#F1F0FF"/>
<path d="M25.4631 65.676L26.192 65.2078C26.2366 65.4285 26.2366 65.656 26.192 65.8767L25.4631 66.3449C25.5002 66.1235 25.5002 65.8974 25.4631 65.676Z" fill="#F1F0FF"/>
<path d="M25.3304 66.3452L26.0593 65.877C25.9829 66.0915 25.8444 66.278 25.6617 66.4121L24.9329 66.8134C25.0287 66.769 25.1139 66.7042 25.1826 66.6234C25.2512 66.5425 25.3017 66.4476 25.3304 66.3452Z" fill="#F1F0FF"/>
<path d="M21.5518 48.6196L22.2806 48.2182C22.472 48.1067 22.6891 48.048 22.9101 48.048C23.1311 48.048 23.3482 48.1067 23.5396 48.2182L22.877 48.6196C22.6735 48.5083 22.4458 48.4501 22.2144 48.4501C21.983 48.4501 21.7552 48.5083 21.5518 48.6196Z" fill="#F1F0FF"/>
<path d="M21.5518 48.6196L22.2806 48.2182C22.472 48.1067 22.6891 48.048 22.9101 48.048C23.1311 48.048 23.3482 48.1067 23.5396 48.2182L22.877 48.6196C22.6735 48.5083 22.4458 48.4501 22.2144 48.4501C21.983 48.4501 21.7552 48.5083 21.5518 48.6196Z" fill="#F1F0FF"/>
<path d="M25.5294 52.4322L26.192 52.0308V65.2079L25.4631 65.6761L25.5294 52.4322Z" fill="#F1F0FF"/>
<path d="M22.811 48.7531L23.5399 48.3518L24.4013 48.82L23.6724 49.2882L22.811 48.7531Z" fill="#F1F0FF"/>
<path d="M23.6736 49.2218L24.4025 48.8204C24.9038 49.1561 25.3245 49.6006 25.634 50.1213C25.9435 50.642 26.134 51.2259 26.1915 51.8304L25.4626 52.2317C25.4098 51.626 25.2213 51.0403 24.9114 50.5188C24.6015 49.9974 24.1782 49.5539 23.6736 49.2218Z" fill="#F1F0FF"/>
<path d="M23.6736 49.2218L24.4025 48.8204L23.6736 49.2218Z" fill="#F1F0FF"/>
<path d="M23.8723 49.3561L24.6012 48.9548C24.8542 49.1427 25.0776 49.3682 25.2638 49.6237L24.5349 50.025L23.8723 49.3561Z" fill="#F1F0FF"/>
<path d="M24.5344 50.025L25.2633 49.6237C25.7918 50.2445 26.116 51.0159 26.191 51.831L25.4621 52.2323C25.4415 51.3648 25.1122 50.5338 24.5344 49.8912V50.025Z" fill="#F1F0FF"/>
<path d="M25.5281 52.3653L26.1907 51.964V52.0309L25.5281 52.4322V52.3653Z" fill="#F1F0FF"/>
<path d="M23.6733 49.222C24.2038 49.5741 24.643 50.0493 24.9543 50.6078C25.2655 51.1664 25.4397 51.7921 25.4623 52.4326V65.8103C25.4623 66.9474 24.6009 67.4156 23.607 66.8136L22.8119 66.3454C22.285 65.9996 21.8438 65.5363 21.5221 64.9913C21.2005 64.4463 21.007 63.834 20.9565 63.2017V49.824C20.9565 48.6869 21.7517 48.2186 22.8119 48.7537L23.6733 49.222Z" fill="#F1F0FF"/>
<path d="M65.2191 13.6375C63.4057 12.658 61.3784 12.1521 59.3218 12.166C59.6944 13.1006 59.8748 14.1019 59.8519 15.1091C61.1837 15.2227 62.4738 15.634 63.6288 16.3131C63.7471 16.3908 63.8852 16.4322 64.0264 16.4322C64.1675 16.4322 64.3056 16.3908 64.4239 16.3131C64.737 16.0988 65.0068 15.8265 65.2191 15.5104C65.6166 14.7078 65.6166 13.9051 65.2191 13.6375Z" fill="#BBB1EF"/>
<path d="M57.3354 30.2927L59.4558 29.0218C60.8903 28.3573 62.4734 28.0877 64.0445 28.2404C65.6156 28.3931 67.1187 28.9627 68.4011 29.8914L66.2145 31.1623C64.945 30.233 63.4528 29.6625 61.892 29.5096C60.3312 29.3568 58.7582 29.6271 57.3354 30.2927Z" fill="#BBB1EF"/>
<path d="M57.3354 30.2927L59.4558 29.0218C60.8903 28.3573 62.4734 28.0877 64.0445 28.2404C65.6156 28.3931 67.1187 28.9627 68.4011 29.8914L66.2145 31.1623C64.945 30.233 63.4528 29.6625 61.892 29.5096C60.3312 29.3568 58.7582 29.6271 57.3354 30.2927Z" fill="#BBB1EF"/>
<path d="M77.2126 59.7898L75.0259 61.0607C76.2882 60.1575 77.2907 58.9326 77.9309 57.5107C78.5711 56.0889 78.8263 54.521 78.6703 52.9671C78.4534 48.5963 77.2109 44.34 75.045 40.5488C72.8792 36.7577 69.8522 33.5402 66.2131 31.1615L68.3998 29.8906C72.0452 32.2945 75.0746 35.5359 77.2399 39.3493C79.4052 43.1628 80.6447 47.4398 80.857 51.83C80.9889 53.3623 80.722 54.9028 80.0828 56.2989C79.4436 57.695 78.4542 58.8984 77.2126 59.7898Z" fill="#BBB1EF"/>
<path d="M66.2131 31.1615L68.3998 29.8906L69.7913 30.8271L67.6046 32.0979L66.2131 31.1615Z" fill="#BBB1EF"/>
<path d="M67.6042 32.0975L69.7909 30.8266C71.5026 32.0605 73.0407 33.5231 74.3629 35.1744L72.2426 36.4452C70.897 34.7922 69.3368 33.3298 67.6042 32.0975Z" fill="#BBB1EF"/>
<path d="M72.2423 36.4457L74.3627 35.1748C78.2227 39.6943 80.5452 45.3444 80.9888 51.2949L78.8022 52.5658C78.3359 46.6208 76.0162 40.9775 72.176 36.4457H72.2423Z" fill="#BBB1EF"/>
<path d="M78.6692 52.5654L80.8558 51.2945V51.8296C80.87 53.4318 80.5775 55.0216 79.9944 56.5118L77.874 57.7827C78.4345 56.288 78.7045 54.6983 78.6692 53.1005V52.5654Z" fill="#BBB1EF"/>
<path d="M77.8755 57.6492L80.2609 56.3783C79.7429 57.8008 78.7616 59.0036 77.4779 59.7896L75.2913 61.0605C76.5998 60.2861 77.6055 59.082 78.1405 57.6492H77.8755Z" fill="#BBB1EF"/>
<path d="M74.9978 61.0791C79.8705 58.2209 79.856 49.0163 74.9653 40.5201C70.0746 32.0239 62.1598 27.4535 57.287 30.3117C52.4143 33.1699 52.4288 42.3745 57.3195 50.8707C62.2102 59.3669 70.125 63.9374 74.9978 61.0791Z" fill="#BBB1EF"/>
<path d="M51.1724 31.7639L56.2082 28.8208C57.7895 28.084 59.5357 27.7826 61.2697 27.947C63.0036 28.1115 64.6636 28.736 66.0812 29.7573L61.0453 32.7004C59.6277 31.6791 57.9677 31.0546 56.2338 30.8901C54.4998 30.7257 52.7536 31.0271 51.1724 31.7639Z" fill="#6D63CE"/>
<path d="M51.1724 31.7639L56.2082 28.8208C57.7895 28.084 59.5357 27.7826 61.2697 27.947C63.0036 28.1115 64.6636 28.736 66.0812 29.7573L61.0453 32.7004C59.6277 31.6791 57.9677 31.0546 56.2338 30.8901C54.4998 30.7257 52.7536 31.0271 51.1724 31.7639Z" fill="#6D63CE"/>
<path d="M75.7562 62.3983L70.7866 65.2076C72.1694 64.1965 73.2645 62.8361 73.9623 61.263C74.6601 59.6899 74.936 57.9593 74.7623 56.2446C74.4916 51.4573 73.1091 46.8014 70.7263 42.6531C68.3436 38.5049 65.0276 34.9807 61.0461 32.3654L66.082 29.4223C70.0934 32.0534 73.4285 35.6083 75.8131 39.7946C78.1977 43.9809 79.5635 48.679 79.7982 53.5022C79.9805 55.215 79.7012 56.9458 78.9897 58.5116C78.2783 60.0775 77.1611 61.4203 75.7562 62.3983Z" fill="#6D63CE"/>
<path d="M61.0461 32.3654L66.082 29.4223L67.606 30.4256L62.5702 33.3687L61.0461 32.3654Z" fill="#6D63CE"/>
<path d="M62.5698 33.3682L67.6057 30.4251C69.4861 31.8008 71.1792 33.42 72.6416 35.2411L67.672 38.4517C66.1551 36.6587 64.4437 35.0433 62.5698 33.6358V33.3682Z" fill="#6D63CE"/>
<path d="M67.6724 38.4516L72.642 35.5085C76.7988 40.4419 79.3037 46.5759 79.7982 53.0333L74.7624 55.9764C74.2645 49.532 71.7859 43.4053 67.6724 38.4516Z" fill="#6D63CE"/>
<path d="M74.7615 55.9773L79.7973 53.0342V53.5024C79.7998 55.2123 79.5083 56.9097 78.9359 58.519L73.635 61.5959C74.2283 59.9458 74.5202 58.2008 74.4964 56.4455V55.9773H74.7615Z" fill="#6D63CE"/>
<path d="M73.6364 61.5962L78.9373 58.5193C78.3265 60.0946 77.2055 61.4148 75.7567 62.2651L70.7871 65.2082C72.0751 64.3209 73.0681 63.0621 73.6364 61.5962Z" fill="#6D63CE"/>
<path d="M61.0458 32.3664C65.0534 35.0015 68.3857 38.5574 70.7698 42.7429C73.1539 46.9283 74.522 51.6243 74.762 56.4463C74.762 65.2756 68.5334 68.8207 60.9133 64.406C56.8821 61.7905 53.5283 58.2408 51.1309 54.0523C48.7336 49.8638 47.3622 45.1579 47.1309 40.3262C47.1309 31.7644 53.757 27.9518 61.0458 32.3664Z" fill="#BBB1EF"/>
<path d="M60.9792 38.4532C63.4967 40.1017 65.5982 42.3207 67.1166 44.9334C68.6351 47.5461 69.5285 50.4805 69.7257 53.5031C69.7257 59.0548 65.75 61.3291 60.9792 58.5197C58.4408 56.8619 56.3258 54.6228 54.806 51.9845C53.2862 49.3462 52.4045 46.3831 52.2327 43.336C52.2989 37.7174 56.2084 35.4432 60.9792 38.4532Z" fill="#6D63CE"/>
</g>
<defs>
<filter id="filter0_d_877:3" x="0" y="0.0362549" width="95.0378" height="107.617" filterUnits="userSpaceOnUse" color-interpolation-filters="sRGB">
<feFlood flood-opacity="0" result="BackgroundImageFix"/>
<feColorMatrix in="SourceAlpha" type="matrix" values="0 0 0 0 0 0 0 0 0 0 0 0 0 0 0 0 0 0 127 0" result="hardAlpha"/>
<feOffset dx="-7" dy="2"/>
<feGaussianBlur stdDeviation="3.5"/>
<feComposite in2="hardAlpha" operator="out"/>
<feColorMatrix type="matrix" values="0 0 0 0 0 0 0 0 0 0 0 0 0 0 0 0 0 0 0.25 0"/>
<feBlend mode="normal" in2="BackgroundImageFix" result="effect1_dropShadow_877:3"/>
<feBlend mode="normal" in="SourceGraphic" in2="effect1_dropShadow_877:3" result="shape"/>
</filter>
</defs>
</svg>
