<svg width="68" height="121" viewBox="0 0 68 121" fill="none" xmlns="http://www.w3.org/2000/svg">
<path d="M66.2073 120.7L0 87.2545V1.04907L66.2073 34.4946V120.7Z" fill="#754F17"/>
<path d="M66.2073 34.4945L0 1.04903L1.79273 0L68 33.4455L66.2073 34.4945Z" fill="#D1993F"/>
<path d="M66.207 120.7V34.4329L67.9998 33.4456V119.651L66.207 120.7Z" fill="#784832"/>
<path d="M62.6841 114.282L3.58594 84.4159V7.46655L62.6841 37.2713V114.282Z" fill="#FDECC9"/>
<path d="M20.8943 38.5673L10.447 33.3221V22.8318L20.8943 28.077V38.5673ZM12.3634 32.3965L19.287 35.9139V29.0026L12.3634 25.4853V32.3965Z" fill="#D1993F"/>
<path d="M20.8943 51.279L10.447 46.0339V35.4819L20.8943 40.7887V51.279ZM12.3634 45.1083L19.287 48.6256V41.6526L12.3634 38.197V45.1083Z" fill="#D1993F"/>
<path d="M20.8943 63.9907L10.447 58.6839V48.1936L20.8943 53.5005V63.9907ZM12.3634 57.82L19.287 61.2756V54.3644L12.3634 50.9087V57.82Z" fill="#D1993F"/>
<path d="M20.8943 76.7025L10.447 71.3956V60.9053L20.8943 66.1505V76.7025ZM12.3634 70.5317L19.1016 74.049V67.0761L12.3634 63.5588V70.5317Z" fill="#D1993F"/>
<path d="M20.8943 89.3525L10.447 84.1074V73.6171L20.8943 78.8622V89.3525ZM12.3634 83.1817L19.287 86.6991V79.7878L12.3634 76.2705V83.1817Z" fill="#D1993F"/>
<path d="M54.895 52.76L25.3459 37.8267V32.9518L54.895 47.8851V52.76Z" fill="#D1993F"/>
<path d="M54.895 65.6568L25.3459 50.7236V45.8487L54.895 60.7819V65.6568Z" fill="#D1993F"/>
<path d="M54.895 78.6153L25.3459 63.6204V58.7455L54.895 73.6787V78.6153Z" fill="#D1993F"/>
<path d="M54.895 91.5123L25.3459 76.5791V71.6425L54.895 86.6374V91.5123Z" fill="#D1993F"/>
<path d="M54.895 104.409L25.3459 89.4759V84.601L54.895 99.5342V104.409Z" fill="#D1993F"/>
<path d="M10.1375 26.7811L11.6211 26.0406L14.4029 30.6687L17.6793 25.6703L19.2865 27.8918L15.0829 35.7287L10.1375 26.7811Z" fill="#754F17"/>
<path d="M50.1965 30.9771L18.051 14.748L17.1855 9.93481L49.331 26.1639L50.1965 30.9771Z" fill="#754F17"/>
<path d="M49.331 26.1639L17.1855 9.93483L20.2765 9.19434L52.1128 25.4234L49.331 26.1639Z" fill="#FDECC9"/>
<path d="M18.0505 14.7482V16.7846C18.1862 17.889 18.5966 18.9419 19.2445 19.8473C19.8924 20.7527 20.7571 21.4818 21.7596 21.968L43.2724 33.0137C44.4775 33.6433 45.8838 33.7695 47.1821 33.3645C48.4804 32.9595 49.5644 32.0565 50.196 30.8539L48.5887 30.2368L48.2796 30.8539C48.0788 31.2288 47.8054 31.5601 47.4753 31.8286C47.1452 32.0971 46.7649 32.2974 46.3565 32.418C45.9482 32.5386 45.5199 32.5769 45.0966 32.5309C44.6732 32.4848 44.2633 32.3553 43.8905 32.1498L21.8214 20.9807C21.2425 20.7222 20.7396 20.3199 20.3608 19.8122C19.982 19.3044 19.74 18.7082 19.6578 18.0804V15.4887L18.0505 14.7482Z" fill="#D1993F"/>
</svg>
