<svg width="83" height="128" viewBox="0 0 83 128" fill="none" xmlns="http://www.w3.org/2000/svg">
<g filter="url(#filter0_d_877:297)">
<path d="M18.5308 119.387C18.5308 119.387 18.5308 119.387 18.5308 118.988V45.9261C18.546 45.6477 18.6258 45.3766 18.7639 45.1345C18.902 44.8923 19.0945 44.6858 19.3262 44.5313L82.0354 8.39871C82.0354 8.39871 82.0354 8.39871 82.0354 8.79723V81.8594C82.0157 82.146 81.9345 82.425 81.7972 82.6773C81.6599 82.9295 81.4698 83.149 81.2399 83.3207L18.7959 119.32L18.5308 119.387Z" fill="#FFC2B6"/>
<path d="M82.2338 8.53136V81.5936C82.2219 81.8381 82.1489 82.0757 82.0215 82.2846C81.8941 82.4935 81.7164 82.667 81.5046 82.7891L18.6629 119.055V45.9923C18.6804 45.7492 18.7558 45.5138 18.8826 45.3059C19.0095 45.0979 19.1841 44.9233 19.3921 44.7968L82.1675 8.59778L82.2338 8.53136ZM82.3001 8H81.9023L18.928 44.5311C18.6552 44.7166 18.4293 44.9632 18.2682 45.2515C18.1071 45.5397 18.0153 45.8616 18 46.1916V119.254C18 119.652 18 119.918 18.5303 119.918C18.5925 119.948 18.6604 119.963 18.7292 119.963C18.798 119.963 18.8659 119.948 18.928 119.918L81.9023 83.5197C82.1873 83.3472 82.4226 83.1034 82.5853 82.8124C82.748 82.5213 82.8324 82.1928 82.8304 81.8592V8.6642C82.8304 8.26568 82.8304 8 82.3001 8Z" fill="#27DEBF"/>
<path d="M82.2338 8.53136V81.5936C82.2219 81.8381 82.1489 82.0757 82.0215 82.2846C81.8941 82.4935 81.7164 82.667 81.5046 82.7891L18.6629 119.055V45.9923C18.6804 45.7492 18.7558 45.5138 18.8826 45.3059C19.0095 45.0979 19.1841 44.9233 19.3921 44.7968L82.1675 8.59778L82.2338 8.53136ZM82.3001 8H81.9023L18.928 44.5311C18.6552 44.7166 18.4293 44.9632 18.2682 45.2515C18.1071 45.5397 18.0153 45.8616 18 46.1916V119.254C18 119.652 18 119.918 18.5303 119.918C18.5925 119.948 18.6604 119.963 18.7292 119.963C18.798 119.963 18.8659 119.948 18.928 119.918L81.9023 83.5197C82.1873 83.3472 82.4226 83.1034 82.5853 82.8124C82.748 82.5213 82.8324 82.1928 82.8304 81.8592V8.6642C82.8304 8.26568 82.8304 8 82.3001 8Z" fill="#BA503A"/>
<path d="M24.6941 48.981L47.0334 36.0291V61.8666L24.6941 74.8185V48.981Z" fill="#FD896E"/>
<path opacity="0.8" d="M24.6941 48.981L47.0334 36.0291V61.8666L24.6941 74.8185V48.981Z" fill="#FD896E"/>
<path d="M43.7203 42.4716V50.2428L42.9911 50.6413V48.2502C42.9911 46.9882 41.9305 46.5233 40.6047 47.2539L31.258 52.7668C30.5979 53.1569 30.0382 53.6965 29.6238 54.3425C29.2094 54.9884 28.9518 55.7226 28.8716 56.4863V58.8774L28.2087 59.276V51.5712L43.7203 42.4716Z" fill="#BA503A"/>
<path d="M39.4115 62.2656C38.2183 62.9298 37.2903 62.2656 37.2903 60.738V48.251L34.4399 49.8451V62.3985C34.4271 63.1672 34.2345 63.9222 33.8776 64.6028C33.5207 65.2834 33.0095 65.8706 32.3849 66.3173L30.2637 67.7785V68.642L41.4665 62V61.1365L39.4115 62.2656Z" fill="#BA503A"/>
<path d="M51.5422 34.5674C51.5422 35.2316 52.2051 35.4309 52.9343 35.0324L74.677 22.6118C75.0694 22.397 75.4059 22.0927 75.6593 21.7234C75.9126 21.3542 76.0757 20.9304 76.1354 20.4864C76.1354 19.8221 75.4725 19.5565 74.677 20.0214L52.9343 32.6412C52.5778 32.8432 52.2689 33.1199 52.0287 33.4523C51.7884 33.7846 51.6225 34.165 51.5422 34.5674Z" fill="#BA503A"/>
<path d="M51.5422 42.4722C51.5422 43.2028 52.2051 43.4021 52.9343 42.9372L74.677 30.3837C75.0694 30.1689 75.4059 29.8646 75.6593 29.4954C75.9126 29.1261 76.0757 28.7024 76.1354 28.2583C76.1354 27.5277 75.4725 27.3284 74.677 27.7934L52.9343 40.3468C52.5664 40.5834 52.2524 40.8949 52.0126 41.2611C51.7727 41.6273 51.6125 42.0399 51.5422 42.4722Z" fill="#BA503A"/>
<path d="M51.5422 50.243C51.5422 50.9736 52.2051 51.1728 52.9343 50.7079L74.677 38.1545C75.0694 37.9397 75.4059 37.6353 75.6593 37.2661C75.9126 36.8969 76.0757 36.4731 76.1354 36.029C76.1354 35.2984 75.4725 35.0992 74.677 35.5641L52.9343 47.8518C52.527 48.1084 52.1877 48.4598 51.9453 48.8762C51.703 49.2925 51.5646 49.7615 51.5422 50.243Z" fill="#BA503A"/>
<path d="M51.5422 58.0137C51.5422 58.7443 52.2051 58.9436 52.9343 58.4787L74.677 45.9252C75.0694 45.7104 75.4059 45.4061 75.6593 45.0369C75.9126 44.6676 76.0757 44.2439 76.1354 43.7998C76.1354 43.0692 75.4725 42.8699 74.677 43.3349L52.9343 55.8883C52.5606 56.1182 52.2421 56.4279 52.0015 56.7953C51.7609 57.1627 51.6041 57.5787 51.5422 58.0137Z" fill="#BA503A"/>
<path d="M24.6289 81.0624C24.6289 81.7266 25.2918 81.9259 26.0873 81.5274L74.6769 53.6973C75.0629 53.4746 75.3943 53.1681 75.6467 52.8003C75.899 52.4325 76.066 52.0128 76.1353 51.5719C76.1353 50.8412 75.4724 50.642 74.6769 51.1069L26.1535 79.2027C25.777 79.379 25.4446 79.6375 25.1808 79.9593C24.9169 80.2811 24.7284 80.6581 24.6289 81.0624Z" fill="#BA503A"/>
<path d="M24.6289 89.032C24.6289 89.7627 25.2918 89.9619 26.0873 89.497L74.6769 61.1356C75.0728 60.925 75.4121 60.6219 75.666 60.2519C75.9198 59.8818 76.0808 59.4558 76.1353 59.0101C76.1353 58.3459 75.4724 58.1467 74.6769 58.5452L26.1535 86.9066C25.7551 87.1218 25.4108 87.4249 25.1467 87.7932C24.8825 88.1614 24.7055 88.5851 24.6289 89.032Z" fill="#BA503A"/>
<path d="M24.6289 96.8031C24.6289 97.5338 25.2918 97.733 26.0873 97.2681L74.6769 69.1723C75.0693 68.9575 75.4058 68.6532 75.6592 68.284C75.9125 67.9147 76.0756 67.491 76.1353 67.0469C76.1353 66.3827 75.4724 66.117 74.6769 66.582L26.1535 94.6777C25.7487 94.8845 25.3991 95.1854 25.1339 95.5551C24.8687 95.9248 24.6956 96.3527 24.6289 96.8031Z" fill="#BA503A"/>
</g>
<defs>
<filter id="filter0_d_877:297" x="0" y="0" width="82.8303" height="127.963" filterUnits="userSpaceOnUse" color-interpolation-filters="sRGB">
<feFlood flood-opacity="0" result="BackgroundImageFix"/>
<feColorMatrix in="SourceAlpha" type="matrix" values="0 0 0 0 0 0 0 0 0 0 0 0 0 0 0 0 0 0 127 0" result="hardAlpha"/>
<feOffset dx="-10"/>
<feGaussianBlur stdDeviation="4"/>
<feComposite in2="hardAlpha" operator="out"/>
<feColorMatrix type="matrix" values="0 0 0 0 0 0 0 0 0 0 0 0 0 0 0 0 0 0 0.25 0"/>
<feBlend mode="normal" in2="BackgroundImageFix" result="effect1_dropShadow_877:297"/>
<feBlend mode="normal" in="SourceGraphic" in2="effect1_dropShadow_877:297" result="shape"/>
</filter>
</defs>
</svg>
