<svg width="96" height="94" viewBox="0 0 96 94" fill="none" xmlns="http://www.w3.org/2000/svg">
<path d="M62.4691 42.9831L55.4902 1.9556C55.4486 1.64068 55.3448 1.33719 55.1851 1.06279C55.0253 0.788376 54.8128 0.548513 54.5597 0.357131V0.0241162H53.7621C53.5859 -0.00234211 53.4067 -0.00234211 53.2304 0.0241162L1.78597 24.0012C1.15058 24.3527 0.641726 24.8956 0.33155 25.5531C0.0213737 26.2106 -0.0743804 26.9493 0.0578643 27.6644L7.10323 68.6252C7.10323 69.4911 7.76788 70.0239 8.36607 70.0239H9.0972L61.2063 45.7804C61.6724 45.4947 62.042 45.0752 62.2672 44.5764C62.4924 44.0776 62.5627 43.5225 62.4691 42.9831Z" fill="#FFC2B6"/>
<path d="M53.6975 0.357855L2.51893 24.1351C1.89575 24.4963 1.40066 25.0434 1.10276 25.7001C0.804873 26.3568 0.719055 27.0904 0.857292 27.7983L7.50386 68.7592C7.50386 69.8914 8.56731 70.4909 9.49783 70.0246L62.0057 45.7811C62.4718 45.4954 62.8414 45.076 63.0666 44.5771C63.2918 44.0783 63.3622 43.5232 63.2686 42.9838L56.2897 2.02293C56.2897 0.557664 54.8939 -0.241572 53.6975 0.357855V0.357855Z" fill="#BA503A"/>
<path d="M54.8931 1.55606L1.85352 26.1992L8.69948 66.2276L61.7391 41.5845L54.8931 1.55606Z" fill="#FFC2B6"/>
<path d="M11.2917 36.9225L9.49713 37.7883C9.49713 37.7883 9.49713 37.7883 9.1648 37.7883L7.56962 38.5209C7.52367 38.4371 7.45312 38.3695 7.36752 38.3272C7.28191 38.2849 7.18541 38.27 7.09108 38.2846C6.99676 38.2991 6.90918 38.3424 6.84021 38.4085C6.77125 38.4746 6.72424 38.5604 6.70557 38.6541V39.0538L7.10436 42.0509L11.8234 39.9862H12.0228L11.624 37.2555L11.2917 36.9225Z" fill="#BA503A"/>
<path d="M11.425 37.1895L7.10474 39.1876L7.43707 41.7185L11.8238 39.9869H12.0232L11.6909 37.3227C11.6909 37.3227 11.5579 37.1229 11.425 37.1895Z" fill="#BA503A"/>
<path d="M9.82983 29.7293L7.9688 30.5952H7.63647L5.97483 31.3278C5.94527 31.3902 5.92993 31.4585 5.92993 31.5276C5.92993 31.5967 5.94527 31.665 5.97483 31.7274V32.127L6.44009 35.1908L10.3616 33.3259L9.96277 30.5286C9.96277 30.5286 9.96277 29.6627 9.82983 29.7293Z" fill="#BA503A"/>
<path d="M9.89541 29.9961L5.6416 31.9942L6.0404 34.5917L10.3607 33.3262L9.96187 30.7287C9.96187 30.7287 10.0283 29.9295 9.89541 29.9961Z" fill="#BA503A"/>
<path d="M53.2325 8.08342L51.4379 8.94926H51.1056L49.444 9.68189C49.4144 9.74433 49.3991 9.81258 49.3991 9.8817C49.3991 9.95081 49.4144 10.0191 49.444 10.0815V10.4811L49.311 13.3451L53.5648 11.347C53.594 11.2963 53.6094 11.2389 53.6094 11.1805C53.6094 11.122 53.594 11.0646 53.5648 11.0139L53.0996 8.21662C53.0996 8.21662 53.2325 8.01681 53.2325 8.08342Z" fill="#BA503A"/>
<path d="M53.2305 8.35031L48.9767 10.3484C48.9475 10.399 48.9321 10.4565 48.9321 10.5149C48.9321 10.5734 48.9475 10.6308 48.9767 10.6814L49.309 13.3455L53.5628 11.3475C53.592 11.2968 53.6073 11.2394 53.6073 11.1809C53.6073 11.1225 53.592 11.0651 53.5628 11.0144L53.164 8.41692C53.164 8.41692 53.2305 8.28371 53.2305 8.35031Z" fill="#BA503A"/>
<path d="M95.3044 68.5595V66.6946H93.7757L65.2619 46.6471C64.7562 46.3143 64.1771 46.11 63.5749 46.052C62.9727 45.9939 62.3654 46.0839 61.8057 46.3141L12.9534 69.0923H9.76305V71.157C9.74569 71.3831 9.79267 71.6095 9.89856 71.8099C10.0044 72.0103 10.1649 72.1765 10.3612 72.2892L39.5397 92.803C40.2505 93.2376 41.0503 93.5053 41.8791 93.586C42.7079 93.6668 43.5441 93.5584 44.3252 93.2692L94.4403 69.7583C94.7073 69.6701 94.9462 69.5128 95.133 69.3022C95.3197 69.0917 95.4476 68.8355 95.5038 68.5595H95.3044Z" fill="#BA503A"/>
<path d="M94.6391 65.2285L65.4607 44.6482C64.9113 44.3827 64.3093 44.2448 63.6993 44.2448C63.0894 44.2448 62.4874 44.3827 61.938 44.6482L10.4936 68.4255C9.49658 68.9583 9.43012 69.8241 10.4936 70.4902L39.672 91.0039C40.3581 91.4682 41.1488 91.7539 41.9727 91.8353C42.7966 91.9167 43.6277 91.7912 44.3911 91.4701L94.5062 68.0259C95.902 67.3598 96.0349 66.0944 94.5062 65.2285H94.6391Z" fill="#FFC2B6"/>
<path d="M82.4094 58.0354L65.1947 45.9137C64.8491 45.7212 64.4602 45.6202 64.0648 45.6202C63.6694 45.6202 63.2805 45.7212 62.9349 45.9137L12.6204 69.2247C11.9557 69.2247 11.8893 70.1572 12.6204 70.5568L29.835 82.6786C30.1974 82.8552 30.5951 82.9471 30.9982 82.9471C31.4012 82.9471 31.7989 82.8552 32.1613 82.6786L82.4094 59.1011C82.9411 59.0345 83.0076 58.4351 82.4094 58.0354Z" fill="#FFC2B6"/>
<path d="M78.7542 73.2881L70.1801 66.6278C69.8801 66.4807 69.5504 66.4042 69.2164 66.4042C68.8823 66.4042 68.5527 66.4807 68.2526 66.6278L47.4489 76.5516C46.8507 76.5516 46.8507 77.2843 47.4489 77.6173L56.023 83.6782C56.323 83.8252 56.6527 83.9017 56.9867 83.9017C57.3208 83.9017 57.6504 83.8252 57.9505 83.6782L78.8207 73.9541C78.938 73.9132 79.0397 73.8367 79.1116 73.7353C79.1836 73.6338 79.2223 73.5124 79.2223 73.388C79.2223 73.2635 79.1836 73.1421 79.1116 73.0407C79.0397 72.9392 78.938 72.8628 78.8207 72.8219L78.7542 73.2881Z" fill="#FFC2B6"/>
<path d="M47.3828 76.818L68.253 67.0274C68.5481 66.8641 68.8797 66.7785 69.2168 66.7785C69.5539 66.7785 69.8855 66.8641 70.1805 67.0274L78.7546 73.0217L79.0869 73.4879C79.1321 73.3462 79.1231 73.1928 79.0617 73.0574C79.0003 72.922 78.8908 72.8143 78.7546 72.7553L70.1805 66.6278C69.8805 66.4807 69.5508 66.4042 69.2168 66.4042C68.8827 66.4042 68.5531 66.4807 68.253 66.6278L47.4493 76.5516C47.4493 76.5516 46.9176 76.9512 46.984 77.1511C47.0248 77.0716 47.0811 77.0011 47.1496 76.9439C47.2181 76.8867 47.2974 76.8439 47.3828 76.818V76.818Z" fill="#BA503A"/>
<path d="M20.5977 71.6892L18.5372 70.2239C18.2802 70.1267 17.9967 70.1267 17.7396 70.2239L15.4133 71.2895L17.5402 72.7548C17.6634 72.819 17.8002 72.8526 17.939 72.8526C18.0779 72.8526 18.2147 72.819 18.3378 72.7548L20.6641 71.6892C20.6641 71.6892 20.5977 71.8224 20.5977 71.6892Z" fill="#393842"/>
<path d="M33.8904 81.0801L31.8299 79.6148C31.7068 79.5506 31.57 79.5171 31.4311 79.5171C31.2923 79.5171 31.1555 79.5506 31.0324 79.6148L28.7061 80.6805L30.833 82.1457C30.948 82.2322 31.0879 82.279 31.2317 82.279C31.3756 82.279 31.5155 82.2322 31.6305 82.1457L33.9568 81.0801H33.8904Z" fill="#393842"/>
<path d="M37.4785 79.3492L35.418 77.8839C35.1622 77.7802 34.8762 77.7802 34.6204 77.8839L32.3606 78.9496L34.421 80.4148C34.5558 80.4798 34.7035 80.5135 34.8531 80.5135C35.0026 80.5135 35.1503 80.4798 35.2851 80.4148L37.2791 79.9486C37.2791 79.9486 37.4785 79.4824 37.4785 79.3492Z" fill="#393842"/>
<path d="M41.1343 77.6841L39.0738 76.2189C38.9552 76.1415 38.8166 76.1003 38.675 76.1003C38.5335 76.1003 38.3949 76.1415 38.2762 76.2189L35.95 77.2845L38.0769 78.7498C38.2 78.814 38.3368 78.8475 38.4756 78.8475C38.6145 78.8475 38.7513 78.814 38.8744 78.7498L41.2007 77.6841H41.1343Z" fill="#393842"/>
<path d="M44.7896 75.9515L42.7291 74.4862C42.6059 74.422 42.4692 74.3885 42.3303 74.3885C42.1915 74.3885 42.0547 74.422 41.9315 74.4862L39.6052 75.5518L41.7321 77.0837C41.9879 77.1874 42.2739 77.1874 42.5297 77.0837L44.856 75.9515H44.7896Z" fill="#393842"/>
<path d="M24.1873 70.0244L22.0604 68.5592C21.9372 68.4949 21.8004 68.4614 21.6616 68.4614C21.5227 68.4614 21.3859 68.4949 21.2628 68.5592L19.0029 69.6248L21.1298 71.0901C21.253 71.1543 21.3898 71.1878 21.5286 71.1878C21.6675 71.1878 21.8043 71.1543 21.9274 71.0901L24.2537 70.0244H24.1873Z" fill="#393842"/>
<path d="M29.5703 71.3562L27.5099 69.8909C27.3867 69.8267 27.2499 69.7932 27.1111 69.7932C26.9722 69.7932 26.8355 69.8267 26.7123 69.8909L24.386 70.9565L26.5129 72.4884C26.7699 72.5856 27.0535 72.5856 27.3105 72.4884L29.6368 71.3562H29.5703Z" fill="#393842"/>
<path d="M33.2908 69.6909L31.2303 68.2922C31.1117 68.2148 30.9731 68.1736 30.8315 68.1736C30.69 68.1736 30.5514 68.2148 30.4327 68.2922L28.1064 69.3579L30.2333 70.8231C30.3565 70.8873 30.4933 70.9209 30.6321 70.9209C30.771 70.9209 30.9078 70.8873 31.0309 70.8231L33.2908 69.8907V69.6909Z" fill="#393842"/>
<path d="M34.7539 72.8879L32.6935 71.4227C32.5703 71.3584 32.4335 71.3249 32.2947 71.3249C32.1558 71.3249 32.019 71.3584 31.8959 71.4227L29.5696 72.4883L31.6965 73.9536C31.8115 74.04 31.9515 74.0868 32.0953 74.0868C32.2391 74.0868 32.379 74.04 32.4941 73.9536L34.5545 73.2875C34.5545 73.2875 34.6874 73.2875 34.7539 72.8879Z" fill="#393842"/>
<path d="M38.0783 75.2192L35.8185 73.2877C35.6953 73.2235 35.5585 73.1899 35.4197 73.1899C35.2808 73.1899 35.144 73.2235 35.0209 73.2877L32.6946 74.3533L34.8215 75.8852C35.0785 75.9824 35.362 75.9824 35.6191 75.8852L37.9454 74.7529L38.0783 75.2192Z" fill="#393842"/>
<path d="M41.7322 73.2877L39.6717 71.8891C39.5531 71.8117 39.4145 71.7705 39.2729 71.7705C39.1314 71.7705 38.9928 71.8117 38.8742 71.8891L36.5479 72.9547L38.6748 74.42C38.7979 74.4842 38.9347 74.5177 39.0735 74.5177C39.2124 74.5177 39.3492 74.4842 39.4723 74.42L41.7986 73.3544C41.7986 73.3544 41.6657 73.6208 41.7322 73.2877Z" fill="#393842"/>
<path d="M45.3222 71.8228L43.2618 70.3576C43.1386 70.2934 43.0018 70.2598 42.863 70.2598C42.7241 70.2598 42.5873 70.2934 42.4642 70.3576L39.9385 71.0902L41.9989 72.6221C42.2789 72.7185 42.583 72.7185 42.863 72.6221L45.1893 71.4898L45.3222 71.8228Z" fill="#393842"/>
<path d="M48.978 70.0906L46.5853 68.3589C46.3295 68.2552 46.0435 68.2552 45.7877 68.3589L43.5278 69.4912L45.5883 70.9564C45.7114 71.0206 45.8482 71.0542 45.9871 71.0542C46.1259 71.0542 46.2627 71.0206 46.3859 70.9564L48.7122 69.8908C48.7122 69.8908 48.978 70.2238 48.978 70.0906Z" fill="#393842"/>
<path d="M52.6337 68.4258L50.3739 66.6275C50.2507 66.5633 50.1139 66.5298 49.9751 66.5298C49.8363 66.5298 49.6995 66.5633 49.5763 66.6275L47.25 67.6932L49.3769 69.1584C49.4956 69.2358 49.6341 69.277 49.7757 69.277C49.9173 69.277 50.0558 69.2358 50.1745 69.1584L52.5008 68.0928L52.6337 68.4258Z" fill="#393842"/>
<path d="M56.2224 66.6279L54.162 65.1626C53.882 65.0662 53.5779 65.0662 53.2979 65.1626L51.0381 66.2283L53.2315 67.96C53.3546 68.0242 53.4914 68.0577 53.6302 68.0577C53.7691 68.0577 53.9059 68.0242 54.029 67.96L56.3553 66.8943C56.3553 66.8426 56.3433 66.7916 56.3203 66.7454C56.2972 66.6992 56.2637 66.6589 56.2224 66.6279V66.6279Z" fill="#393842"/>
<path d="M59.8771 65.0289L57.6172 63.2972C57.5022 63.2107 57.3623 63.164 57.2184 63.164C57.0746 63.164 56.9347 63.2107 56.8196 63.2972L54.5598 64.3628L56.6203 65.8281C56.7434 65.8923 56.8802 65.9258 57.019 65.9258C57.1579 65.9258 57.2947 65.8923 57.4178 65.8281L59.8771 65.2287V65.0289Z" fill="#393842"/>
<path d="M63.5339 63.2974L61.4735 61.8321C61.3503 61.7679 61.2135 61.7344 61.0747 61.7344C60.9359 61.7344 60.7991 61.7679 60.6759 61.8321L58.3496 62.8978L60.4765 64.4297C60.7335 64.5268 61.0171 64.5268 61.2741 64.4297L63.6004 63.2974H63.5339Z" fill="#393842"/>
<path d="M67.1899 61.6319L64.93 59.9668C64.8114 59.8895 64.6728 59.8483 64.5312 59.8483C64.3897 59.8483 64.2511 59.8895 64.1325 59.9668L61.8062 61.0325L63.9331 62.4978C64.0562 62.562 64.193 62.5955 64.3318 62.5955C64.4707 62.5955 64.6075 62.562 64.7306 62.4978L67.0569 61.4321L67.1899 61.6319Z" fill="#393842"/>
<path d="M70.7126 63.8307L68.6522 62.3654C68.529 62.3012 68.3922 62.2677 68.2534 62.2677C68.1146 62.2677 67.9778 62.3012 67.8546 62.3654L65.5283 63.4311L67.6552 64.8964C67.7739 64.9737 67.9124 65.0149 68.054 65.0149C68.1956 65.0149 68.3341 64.9737 68.4528 64.8964L70.7791 63.8307H70.7126Z" fill="#393842"/>
<path d="M74.302 62.0981L72.2416 60.6328C71.9616 60.5364 71.6575 60.5364 71.3775 60.6328L69.1177 61.6985L71.2446 63.1637C71.3677 63.2279 71.5045 63.2615 71.6434 63.2615C71.7822 63.2615 71.919 63.2279 72.0422 63.1637L74.3685 62.0981C74.3464 62.0959 74.3241 62.0959 74.302 62.0981V62.0981Z" fill="#393842"/>
<path d="M81.6782 58.7021L79.6177 57.3034C79.4946 57.2392 79.3578 57.2057 79.2189 57.2057C79.0801 57.2057 78.9433 57.2392 78.8201 57.3034L76.5603 58.4357L78.6207 59.9009C78.7555 59.9659 78.9032 59.9996 79.0528 59.9996C79.2023 59.9996 79.35 59.9659 79.4848 59.9009L81.7446 58.8353L81.6782 58.7021Z" fill="#393842"/>
<path d="M78.2229 56.0371L76.1625 54.6384C76.0438 54.561 75.9053 54.5198 75.7637 54.5198C75.6221 54.5198 75.4835 54.561 75.3649 54.6384H75.0325L73.0386 55.5709L75.1655 57.0361C75.2805 57.1226 75.4205 57.1693 75.5643 57.1693C75.7081 57.1693 75.848 57.1226 75.9631 57.0361L78.6217 55.8373L78.2229 56.0371Z" fill="#393842"/>
<path d="M70.779 59.9672L68.7186 58.5019C68.5954 58.4377 68.4586 58.4042 68.3198 58.4042C68.1809 58.4042 68.0441 58.4377 67.921 58.5019L65.6611 59.5676L67.7216 61.0995C68.0016 61.1959 68.3056 61.1959 68.5856 61.0995L70.5796 59.9672H70.779Z" fill="#393842"/>
<path d="M74.4348 58.1686L72.3744 56.7033C72.1186 56.5997 71.8326 56.5997 71.5768 56.7033L69.2505 57.8356L71.3109 59.3009C71.4341 59.3651 71.5709 59.3986 71.7097 59.3986C71.8486 59.3986 71.9854 59.3651 72.1085 59.3009L74.4348 58.2352C74.4348 58.2352 74.4348 58.3018 74.4348 58.1686Z" fill="#393842"/>
<path d="M38.3431 71.1563L36.2827 69.6911C36.1595 69.6268 36.0227 69.5933 35.8839 69.5933C35.7451 69.5933 35.6083 69.6268 35.4851 69.6911L33.2917 70.4237L35.3522 71.9556C35.6322 72.052 35.9363 72.052 36.2162 71.9556L38.5425 70.8233C38.5425 70.8233 38.3431 71.2229 38.3431 71.1563Z" fill="#393842"/>
<path d="M41.9978 69.4921L39.9374 67.7604C39.8223 67.6739 39.6824 67.6272 39.5386 67.6272C39.3948 67.6272 39.2548 67.6739 39.1398 67.7604L36.8135 68.826L38.8739 70.2913C38.9971 70.3555 39.1339 70.389 39.2727 70.389C39.4115 70.389 39.5483 70.3555 39.6715 70.2913L41.9978 69.2256V69.4921Z" fill="#393842"/>
<path d="M45.6545 67.7595L43.5941 66.2942C43.4709 66.23 43.3341 66.1965 43.1953 66.1965C43.0565 66.1965 42.9197 66.23 42.7965 66.2942L40.4702 67.3599H39.9385L42.0654 68.8918C42.3224 68.9889 42.6059 68.9889 42.863 68.8918L45.1893 67.7595H45.6545Z" fill="#393842"/>
<path d="M49.2441 66.0282L47.1837 64.5629C46.9037 64.4665 46.5996 64.4665 46.3196 64.5629L44.0598 65.6952L46.1867 67.1605C46.3099 67.2247 46.4467 67.2582 46.5855 67.2582C46.7243 67.2582 46.8611 67.2247 46.9843 67.1605L49.1112 66.6276C49.1756 66.616 49.2351 66.5855 49.2823 66.54C49.3295 66.4946 49.3622 66.4362 49.3764 66.3722C49.3906 66.3082 49.3857 66.2414 49.3621 66.1802C49.3386 66.119 49.2975 66.0661 49.2441 66.0282Z" fill="#393842"/>
<path d="M53.2311 64.3625L50.639 62.6308C50.5158 62.5666 50.379 62.5331 50.2402 62.5331C50.1013 62.5331 49.9645 62.5666 49.8414 62.6308L47.5815 63.6964L49.642 65.1617C49.7651 65.2259 49.9019 65.2594 50.0408 65.2594C50.1796 65.2594 50.3164 65.2259 50.4396 65.1617L52.7659 64.0294L53.2311 64.3625Z" fill="#393842"/>
<path d="M56.554 62.6317L54.4935 61.1665C54.2365 61.0693 53.953 61.0693 53.6959 61.1665L51.3696 62.2321L53.2307 63.8972C53.3538 63.9614 53.4906 63.9949 53.6295 63.9949C53.7683 63.9949 53.9051 63.9614 54.0283 63.8972L56.3546 62.8315C56.3546 62.8315 56.554 62.7649 56.554 62.6317Z" fill="#393842"/>
<path d="M60.2092 60.9659H59.8768L57.8164 59.5006C57.6932 59.4364 57.5564 59.4029 57.4176 59.4029C57.2788 59.4029 57.142 59.4364 57.0188 59.5006L54.8254 59.9669L56.9523 61.4321C57.0674 61.5186 57.2073 61.5653 57.3511 61.5653C57.4949 61.5653 57.6349 61.5186 57.7499 61.4321L59.8768 61.1657L60.2092 60.9659Z" fill="#393842"/>
<path d="M63.799 59.235L61.7386 57.7697C61.4828 57.666 61.1968 57.666 60.941 57.7697L58.6812 58.8354L60.7416 60.3672C61.0216 60.4637 61.3257 60.4637 61.6056 60.3672L63.8655 59.3016C63.8466 59.2763 63.8242 59.2539 63.799 59.235V59.235Z" fill="#393842"/>
<path d="M67.4555 57.5699L65.1957 55.8383C65.077 55.7609 64.9385 55.7197 64.7969 55.7197C64.6553 55.7197 64.5167 55.7609 64.3981 55.8383L62.0718 56.9039L64.1987 58.3692C64.3218 58.4334 64.4586 58.4669 64.5975 58.4669C64.7363 58.4669 64.8731 58.4334 64.9963 58.3692L67.3226 57.3035L67.4555 57.5699Z" fill="#393842"/>
<path d="M36.8149 67.9593L34.688 66.4941C34.5649 66.4299 34.4281 66.3963 34.2892 66.3963C34.1504 66.3963 34.0136 66.4299 33.8904 66.4941L31.6306 67.5597L33.7575 69.0916C34.0133 69.1953 34.2993 69.1953 34.5551 69.0916L36.8814 67.9593C36.8814 67.9593 36.8149 68.0259 36.8149 67.9593Z" fill="#393842"/>
<path d="M40.4706 66.2284L38.4102 64.7632C38.1544 64.6595 37.8684 64.6595 37.6126 64.7632L35.3528 65.8954L37.4132 67.3607C37.5364 67.4249 37.6732 67.4584 37.812 67.4584C37.9509 67.4584 38.0876 67.4249 38.2108 67.3607L40.2712 66.628C40.2712 66.628 40.4706 66.628 40.4706 66.2284Z" fill="#393842"/>
<path d="M44.1265 64.5625L42.066 63.0972C41.9429 63.033 41.8061 62.9995 41.6672 62.9995C41.5284 62.9995 41.3916 63.033 41.2684 63.0972L38.9421 64.1629L41.069 65.6282C41.1922 65.6924 41.329 65.7259 41.4678 65.7259C41.6067 65.7259 41.7435 65.6924 41.8666 65.6282L44.1929 64.4959C44.1929 64.4959 44.1265 64.6291 44.1265 64.5625Z" fill="#393842"/>
<path d="M47.7158 62.8318L45.6554 61.3665C45.3984 61.2694 45.1148 61.2694 44.8578 61.3665L42.5315 62.4322L44.6584 63.8974C44.7816 63.9616 44.9184 63.9952 45.0572 63.9952C45.196 63.9952 45.3328 63.9616 45.456 63.8974L47.7823 62.8318C47.7602 62.8295 47.7379 62.8295 47.7158 62.8318V62.8318Z" fill="#393842"/>
<path d="M51.3691 61.1657L49.3086 59.7005C49.1855 59.6362 49.0487 59.6027 48.9098 59.6027C48.771 59.6027 48.6342 59.6362 48.5111 59.7005L46.2512 60.7661L48.3117 62.2314C48.4303 62.3088 48.5689 62.35 48.7105 62.35C48.852 62.35 48.9906 62.3088 49.1092 62.2314L51.4355 61.1657H51.3691Z" fill="#393842"/>
<path d="M55.0249 59.435L52.9645 57.9697C52.7074 57.8726 52.4239 57.8726 52.1669 57.9697L49.8406 59.0354L51.9675 60.5672C52.2245 60.6644 52.508 60.6644 52.7651 60.5672L54.8255 59.9678C54.8815 59.9571 54.9339 59.9322 54.9776 59.8954C55.0212 59.8586 55.0546 59.8111 55.0747 59.7576C55.0947 59.704 55.1007 59.6462 55.0919 59.5897C55.0832 59.5332 55.0601 59.48 55.0249 59.435Z" fill="#393842"/>
<path d="M58.6821 57.7689L56.6217 56.3702C56.503 56.2928 56.3645 56.2516 56.2229 56.2516C56.0813 56.2516 55.9428 56.2928 55.8241 56.3702L53.2319 57.0363L55.3588 58.5015C55.482 58.5657 55.6188 58.5993 55.7576 58.5993C55.8965 58.5993 56.0333 58.5657 56.1564 58.5015L58.4827 57.4359L58.6821 57.7689Z" fill="#393842"/>
<path d="M62.2715 56.0371L59.8787 54.3054C59.7556 54.2412 59.6188 54.2077 59.4799 54.2077C59.3411 54.2077 59.2043 54.2412 59.0811 54.3054L56.8213 55.3711L58.9482 56.9029C59.204 57.0066 59.49 57.0066 59.7458 56.9029L62.0721 55.7707C62.0721 55.7707 62.2715 56.1037 62.2715 56.0371Z" fill="#393842"/>
<path d="M65.9259 54.3721L63.6661 52.6404C63.5429 52.5762 63.4061 52.5427 63.2673 52.5427C63.1284 52.5427 62.9916 52.5762 62.8685 52.6404L60.6086 53.7726L62.6691 55.2379C62.7922 55.3021 62.929 55.3356 63.0679 55.3356C63.2067 55.3356 63.3435 55.3021 63.4667 55.2379L65.793 54.1723L65.9259 54.3721Z" fill="#393842"/>
<path d="M27.8417 68.2926L25.5818 66.6275C25.4587 66.5633 25.3219 66.5298 25.183 66.5298C25.0442 66.5298 24.9074 66.5633 24.7842 66.6275L22.5244 67.6932L24.5848 69.225C24.8419 69.3222 25.1254 69.3222 25.3824 69.225L27.7087 68.0928L27.8417 68.2926Z" fill="#393842"/>
<path d="M31.4961 66.6274L29.4357 65.2287C29.317 65.1513 29.1784 65.1101 29.0369 65.1101C28.8953 65.1101 28.7567 65.1513 28.6381 65.2287L26.3118 66.2943L28.4387 67.7596C28.5618 67.8238 28.6986 67.8573 28.8375 67.8573C28.9763 67.8573 29.1131 67.8238 29.2363 67.7596L31.2967 66.6274H31.4961Z" fill="#393842"/>
<path d="M35.1531 64.8958L33.0926 63.4305C32.9695 63.3663 32.8327 63.3328 32.6938 63.3328C32.555 63.3328 32.4182 63.3663 32.295 63.4305L29.9688 64.4962L32.0957 66.028C32.3514 66.1317 32.6374 66.1317 32.8932 66.028L35.2195 64.8958H35.1531Z" fill="#393842"/>
<path d="M38.7419 63.1638L36.6815 61.6985C36.4257 61.5948 36.1397 61.5948 35.8839 61.6985L33.2917 62.4978L35.3522 63.963C35.487 64.028 35.6346 64.0617 35.7842 64.0617C35.9338 64.0617 36.0814 64.028 36.2162 63.963L38.4761 62.8974C38.4761 62.8974 38.7419 63.297 38.7419 63.1638Z" fill="#393842"/>
<path d="M42.3966 61.499L39.9374 59.9671C39.8142 59.9029 39.6774 59.8694 39.5386 59.8694C39.3997 59.8694 39.2629 59.9029 39.1398 59.9671L36.8135 61.0328L38.9404 62.498C39.0635 62.5622 39.2003 62.5958 39.3392 62.5958C39.478 62.5958 39.6148 62.5622 39.738 62.498L42.0643 61.3658L42.3966 61.499Z" fill="#393842"/>
<path d="M46.054 59.967L43.9935 58.5017C43.7365 58.4045 43.4529 58.4045 43.1959 58.5017L40.8696 59.5673L42.9965 61.0326C43.1197 61.0968 43.2565 61.1303 43.3953 61.1303C43.5342 61.1303 43.671 61.0968 43.7941 61.0326L45.8546 59.967H46.054Z" fill="#393842"/>
<path d="M49.642 58.1022L47.5816 56.6369C47.4584 56.5727 47.3216 56.5392 47.1828 56.5392C47.044 56.5392 46.9072 56.5727 46.784 56.6369L44.5242 57.7026L46.5846 59.301C46.6997 59.3875 46.8396 59.4342 46.9834 59.4342C47.1272 59.4342 47.2671 59.3875 47.3822 59.301L49.7085 58.2354L49.642 58.1022Z" fill="#393842"/>
<path d="M53.2315 56.3703L51.0381 54.6387C50.915 54.5744 50.7782 54.5409 50.6393 54.5409C50.5005 54.5409 50.3637 54.5744 50.2405 54.6387L47.9807 55.7043L50.0412 57.2362C50.2982 57.3333 50.5817 57.3333 50.8387 57.2362L53.2315 56.5701V56.3703Z" fill="#393842"/>
<path d="M56.9538 54.7054L54.694 53.3067C54.5753 53.2293 54.4367 53.1881 54.2952 53.1881C54.1536 53.1881 54.015 53.2293 53.8964 53.3067L51.5701 54.3723L53.697 55.8376C53.8201 55.9018 53.9569 55.9353 54.0958 55.9353C54.2346 55.9353 54.3714 55.9018 54.4946 55.8376L56.8209 54.772L56.9538 54.7054Z" fill="#393842"/>
<path d="M60.5425 53.307L58.482 51.8418C58.3589 51.7775 58.2221 51.744 58.0832 51.744C57.9444 51.744 57.8076 51.7775 57.6845 51.8418L55.3582 52.9074L57.4851 54.4393C57.7409 54.543 58.0269 54.543 58.2826 54.4393L60.4095 53.307H60.5425Z" fill="#393842"/>
<path d="M64.1982 51.2416L62.1377 49.7763C61.882 49.6726 61.596 49.6726 61.3402 49.7763L59.0803 50.9085L61.1408 52.3738C61.2639 52.438 61.4007 52.4715 61.5396 52.4715C61.6784 52.4715 61.8152 52.438 61.9383 52.3738L64.2646 51.3082C64.2646 51.3082 64.1982 51.3748 64.1982 51.2416Z" fill="#393842"/>
<path d="M68.4521 49.045L66.3916 47.5797C66.2685 47.5155 66.1317 47.482 65.9928 47.482C65.854 47.482 65.7172 47.5155 65.5941 47.5797L62.8025 48.9118L64.9294 50.3771C65.0526 50.4413 65.1894 50.4748 65.3282 50.4748C65.467 50.4748 65.6038 50.4413 65.727 50.3771L68.6515 48.9784L68.4521 49.045Z" fill="#393842"/>
<path d="M67.0552 65.4955L64.9947 64.0302C64.8017 63.9588 64.5896 63.9588 64.3965 64.0302L62.1367 65.0959L45.3209 72.4222L43.061 73.288L45.1879 74.7533H45.9191L48.2454 73.6877L66.8558 64.9627C66.8558 64.9627 67.0552 65.6287 67.0552 65.4955Z" fill="#393842"/>
<path d="M21.4595 67.4266L20.7284 66.6273C20.6139 66.5738 20.4891 66.546 20.3628 66.546C20.2365 66.546 20.1117 66.5738 19.9973 66.6273L17.8704 67.6264L18.4021 68.026C18.5208 68.1034 18.6593 68.1446 18.8009 68.1446C18.9425 68.1446 19.081 68.1034 19.1997 68.026L21.526 66.9603L21.4595 67.4266Z" fill="#393842"/>
<path d="M25.1161 65.6952L24.5179 65.2955C24.3948 65.2313 24.258 65.1978 24.1191 65.1978C23.9803 65.1978 23.8435 65.2313 23.7203 65.2955L21.5934 66.3612H21.1282L21.6599 66.7608C21.7831 66.825 21.9199 66.8586 22.0587 66.8586C22.1975 66.8586 22.3343 66.825 22.4575 66.7608L24.7838 65.6952H25.1161Z" fill="#393842"/>
<path d="M28.7722 64.0302L28.2405 63.6306C28.1173 63.5664 27.9805 63.5328 27.8417 63.5328C27.7028 63.5328 27.566 63.5664 27.4429 63.6306L25.2495 64.6296L25.8477 65.0292C25.9709 65.0934 26.1077 65.127 26.2465 65.127C26.3853 65.127 26.5221 65.0934 26.6453 65.0292L28.9716 63.9636L28.7722 64.0302Z" fill="#393842"/>
<path d="M32.3615 62.2989L31.8298 61.8993C31.5498 61.8029 31.2458 61.8029 30.9658 61.8993L28.8389 62.8983L29.4371 63.2979C29.6929 63.4016 29.9789 63.4016 30.2346 63.2979L32.5609 62.1657L32.3615 62.2989Z" fill="#393842"/>
<path d="M36.0177 60.6331L35.2866 59.9671C35.1634 59.9029 35.0266 59.8694 34.8878 59.8694C34.749 59.8694 34.6122 59.9029 34.489 59.9671L32.3621 60.9662H32.0298L32.5615 61.3658C32.6847 61.43 32.8215 61.4635 32.9603 61.4635C33.0991 61.4635 33.2359 61.43 33.3591 61.3658L35.6854 60.3001L36.0177 60.6331Z" fill="#393842"/>
<path d="M39.9383 58.9013L39.3401 58.5017C39.083 58.4045 38.7995 58.4045 38.5425 58.5017L36.4156 59.5007L36.3491 59.967C36.6061 60.0641 36.8897 60.0641 37.1467 59.967L39.473 58.8347L39.9383 58.9013Z" fill="#393842"/>
<path d="M43.2618 57.2363L42.5971 56.5703C42.4739 56.5061 42.3371 56.4726 42.1983 56.4726C42.0595 56.4726 41.9227 56.5061 41.7995 56.5703L39.9385 57.5027V58.4352C40.0616 58.4994 40.1984 58.5329 40.3373 58.5329C40.4761 58.5329 40.6129 58.4994 40.7361 58.4352L43.0624 57.3695L43.2618 57.2363Z" fill="#393842"/>
<path d="M46.916 55.5048H46.5837L45.9855 55.1052C45.8624 55.0409 45.7256 55.0074 45.5867 55.0074C45.4479 55.0074 45.3111 55.0409 45.1879 55.1052L43.061 56.1042L43.5928 56.5038C43.7174 56.5631 43.8536 56.5938 43.9916 56.5938C44.1295 56.5938 44.2657 56.5631 44.3904 56.5038L46.5837 55.7046L46.916 55.5048Z" fill="#393842"/>
<path d="M50.5731 53.7728V53.3066H49.842C49.727 53.2201 49.587 53.1734 49.4432 53.1734C49.2994 53.1734 49.1595 53.2201 49.0444 53.3066L46.9175 54.3056H46.5852L47.1169 54.7052C47.2401 54.7695 47.3769 54.803 47.5157 54.803C47.6546 54.803 47.7914 54.7695 47.9145 54.7052L50.2408 53.6396L50.5731 53.7728Z" fill="#393842"/>
<path d="M54.2277 52.1079L53.2307 51.4419C53.1075 51.3777 52.9707 51.3442 52.8319 51.3442C52.6931 51.3442 52.5563 51.3777 52.4331 51.4419L50.2397 52.441L50.9044 53.3068C51.0195 53.3933 51.1594 53.44 51.3032 53.44C51.447 53.44 51.5869 53.3933 51.702 53.3068L54.0283 52.2411L54.2277 52.1079Z" fill="#393842"/>
<path d="M57.817 50.3767L57.2853 49.977C57.0053 49.8806 56.7012 49.8806 56.4213 49.977L54.2944 50.9761H53.8291L54.3608 51.3757C54.6408 51.4721 54.9449 51.4721 55.2249 51.3757L57.4847 50.2434L57.817 50.3767Z" fill="#393842"/>
<path d="M61.4721 48.711L60.8739 48.3114C60.7673 48.1538 60.6119 48.0357 60.4317 47.9755C60.2515 47.9153 60.0565 47.9163 59.8769 47.9784L57.75 48.9774L58.2817 49.377C58.4049 49.4412 58.5417 49.4748 58.6805 49.4748C58.8194 49.4748 58.9561 49.4412 59.0793 49.377L61.4056 48.3114L61.4721 48.711Z" fill="#393842"/>
<path d="M65.1274 46.9791V46.6461H64.3963C64.1393 46.5489 63.8557 46.5489 63.5987 46.6461L61.4718 47.6451H61.073L61.6712 48.0447C61.9282 48.1419 62.2118 48.1419 62.4688 48.0447L64.7951 46.9125L65.1274 46.9791Z" fill="#393842"/>
<path d="M25.9798 72.8213L23.9194 71.356C23.7962 71.2918 23.6594 71.2583 23.5206 71.2583C23.3817 71.2583 23.2449 71.2918 23.1218 71.356L18.8015 73.3541L20.9284 74.8194C21.0516 74.8836 21.1884 74.9171 21.3272 74.9171C21.466 74.9171 21.6028 74.8836 21.726 74.8194L25.7804 73.2875L25.9798 72.8213Z" fill="#393842"/>
<path d="M31.0981 74.2873L28.9712 72.7555C28.7142 72.6583 28.4306 72.6583 28.1736 72.7555L22.1252 75.6194L24.2521 77.0846C24.3753 77.1489 24.5121 77.1824 24.6509 77.1824C24.7898 77.1824 24.9266 77.1489 25.0497 77.0846L31.231 74.2207L31.0981 74.2873Z" fill="#393842"/>
<path d="M34.4887 76.6844L32.3618 75.2192C32.2468 75.1327 32.1069 75.086 31.963 75.086C31.8192 75.086 31.6793 75.1327 31.5642 75.2192L25.5159 78.0165L27.6428 79.4818C27.7659 79.546 27.9027 79.5795 28.0416 79.5795C28.1804 79.5795 28.3172 79.546 28.4404 79.4818L34.6217 76.5512L34.4887 76.6844Z" fill="#393842"/>
<path d="M71.7756 51.3754L69.6487 49.9101C69.5255 49.8459 69.3887 49.8124 69.2499 49.8124C69.111 49.8124 68.9743 49.8459 68.8511 49.9101L64.4644 51.9748L66.5248 53.5067C66.7818 53.6038 67.0654 53.6038 67.3224 53.5067L71.7756 51.3754V51.3754Z" fill="#393842"/>
<path d="M74.8993 53.7731L72.7724 52.2412C72.5166 52.1375 72.2306 52.1375 71.9748 52.2412L65.7271 55.1717C65.7271 55.1717 65.7271 55.5048 65.7271 55.638L67.854 57.1698C68.1097 57.2735 68.3957 57.2735 68.6515 57.1698L74.8993 54.2393C74.8993 54.2393 74.8993 53.9063 74.8993 53.7731Z" fill="#393842"/>
<path d="M76.4278 59.3679L75.8296 58.9683C75.7146 58.8818 75.5747 58.8351 75.4308 58.8351C75.287 58.8351 75.1471 58.8818 75.0321 58.9683L72.7722 59.9673L73.3039 60.367C73.4271 60.4312 73.5639 60.4647 73.7027 60.4647C73.8416 60.4647 73.9784 60.4312 74.1015 60.367L76.4278 59.3013V59.3679Z" fill="#393842"/>
<path d="M77.9579 60.4333V59.9671H77.2268C77.1036 59.9029 76.9668 59.8694 76.828 59.8694C76.6892 59.8694 76.5524 59.9029 76.4292 59.9671L74.3023 60.9662H73.97L74.5017 61.3658C74.6249 61.43 74.7617 61.4635 74.9005 61.4635C75.0393 61.4635 75.1761 61.43 75.2993 61.3658L77.6256 60.3001L77.9579 60.4333Z" fill="#393842"/>
<path d="M37.9454 74.9528L35.8185 73.2877C35.6953 73.2235 35.5585 73.1899 35.4197 73.1899C35.2808 73.1899 35.144 73.2235 35.0209 73.2877L32.6946 74.3533C32.6946 74.3533 32.6946 74.6863 32.6946 74.8195L34.8215 76.3514C35.0785 76.4486 35.362 76.4486 35.6191 76.3514L37.9454 75.2192C37.9454 75.2192 37.9454 75.2192 37.9454 74.7529V74.9528Z" fill="#393842"/>
<path d="M17.8046 69.0917L17.2728 68.6921C17.1542 68.6147 17.0156 68.5735 16.8741 68.5735C16.7325 68.5735 16.5939 68.6147 16.4753 68.6921L13.3514 69.6245H13.019H13.3514L13.8831 70.0242C14.0063 70.0884 14.1431 70.1219 14.2819 70.1219C14.4207 70.1219 14.5575 70.0884 14.6807 70.0242L17.6052 68.6921C17.6052 68.6921 17.8046 69.2249 17.8046 69.0917Z" fill="#393842"/>
<path d="M20.4629 71.2228L18.336 69.7575C18.221 69.6711 18.0811 69.6243 17.9373 69.6243C17.7934 69.6243 17.6535 69.6711 17.5385 69.7575L15.2122 70.8232V71.2894L17.2726 72.7547C17.3958 72.8189 17.5326 72.8524 17.6714 72.8524C17.8102 72.8524 17.947 72.8189 18.0702 72.7547L20.3965 71.689C20.3965 71.689 20.3965 71.689 20.3965 71.2228H20.4629Z" fill="#BA503A"/>
<path d="M24.0535 69.4911L21.993 68.0258C21.8699 67.9616 21.7331 67.9281 21.5942 67.9281C21.4554 67.9281 21.3186 67.9616 21.1954 68.0258L18.8691 69.0915C18.8691 69.0915 18.8691 69.4245 18.8691 69.5577L20.996 71.0896C21.2531 71.1867 21.5366 71.1867 21.7936 71.0896L24.1199 69.9573C24.1199 69.9573 24.1199 69.9573 24.1199 69.4911H24.0535Z" fill="#BA503A"/>
<path d="M27.7087 67.8267L25.6483 66.6278C25.3683 66.5314 25.0642 66.5314 24.7842 66.6278L22.5244 67.76C22.5244 67.76 22.5244 67.76 22.5244 68.2263L24.6513 69.6915C24.7745 69.7557 24.9113 69.7893 25.0501 69.7893C25.1889 69.7893 25.3257 69.7557 25.4489 69.6915L27.7752 68.6259V68.1597L27.7087 67.8267Z" fill="#BA503A"/>
<path d="M31.3638 66.0943L29.2369 64.629C29.1138 64.5648 28.977 64.5313 28.8381 64.5313C28.6993 64.5313 28.5625 64.5648 28.4393 64.629L26.113 65.6947C26.113 65.6947 26.113 66.0277 26.113 66.1609L28.1735 67.6262C28.2981 67.6854 28.4343 67.7162 28.5723 67.7162C28.7102 67.7162 28.8464 67.6854 28.9711 67.6262L31.2974 66.6271C31.2974 66.6271 31.2974 66.2941 31.2974 66.1609L31.3638 66.0943Z" fill="#BA503A"/>
<path d="M35.0191 64.4301L32.8922 62.8983C32.6352 62.8011 32.3516 62.8011 32.0946 62.8983L29.7683 64.0305C29.7683 64.0305 29.7683 64.0305 29.7683 64.4968L31.8952 65.962C32.0184 66.0262 32.1552 66.0598 32.294 66.0598C32.4328 66.0598 32.5696 66.0262 32.6928 65.962L35.0191 64.8964C35.0191 64.8964 35.0191 64.5634 35.0191 64.4301Z" fill="#BA503A"/>
<path d="M38.609 62.6975L36.5486 61.2322C36.4254 61.168 36.2886 61.1345 36.1498 61.1345C36.0109 61.1345 35.8741 61.168 35.751 61.2322L33.2917 62.2313C33.2917 62.2313 33.2917 62.5643 33.2917 62.6975L35.4187 64.1628C35.5337 64.2492 35.6736 64.296 35.8174 64.296C35.9613 64.296 36.1012 64.2492 36.2162 64.1628L38.5425 63.0971C38.5425 63.0971 38.5425 62.7641 38.5425 62.6309L38.609 62.6975Z" fill="#BA503A"/>
<path d="M42.2637 60.9659L39.9374 59.5006C39.8142 59.4364 39.6774 59.4029 39.5386 59.4029C39.3997 59.4029 39.2629 59.4364 39.1398 59.5006L36.8135 60.5663V61.0325L38.8739 62.5644C39.1539 62.6608 39.458 62.6608 39.738 62.5644L41.9978 61.4321C41.9978 61.4321 41.9978 61.4321 41.9978 60.9659H42.2637Z" fill="#BA503A"/>
<path d="M45.92 59.3017L43.7931 57.8365C43.6744 57.7591 43.5359 57.7179 43.3943 57.7179C43.2527 57.7179 43.1142 57.7591 42.9955 57.8365L40.6692 58.9021C40.6692 58.9021 40.6692 59.2351 40.6692 59.3683L42.7961 60.8336C42.9193 60.8978 43.056 60.9313 43.1949 60.9313C43.3337 60.9313 43.4705 60.8978 43.5937 60.8336L45.8535 59.9678C45.8535 59.9678 45.8535 59.6348 45.8535 59.5016L45.92 59.3017Z" fill="#BA503A"/>
<path d="M49.5105 57.5691L47.4501 56.1038C47.3269 56.0396 47.1901 56.0061 47.0513 56.0061C46.9124 56.0061 46.7756 56.0396 46.6525 56.1038L44.3262 57.1695C44.3262 57.1695 44.3262 57.1695 44.3262 57.6357L46.586 59.101C46.8418 59.2047 47.1278 59.2047 47.3836 59.101L49.7099 57.9687C49.7099 57.9687 49.7099 57.9687 49.7099 57.5025L49.5105 57.5691Z" fill="#BA503A"/>
<path d="M53.2315 55.9048L51.1046 54.3729C50.8488 54.2692 50.5628 54.2692 50.307 54.3729L47.9807 55.5052C47.9807 55.5052 47.9807 55.5052 47.9807 55.9714L50.1076 57.4367C50.2308 57.5009 50.3676 57.5344 50.5064 57.5344C50.6452 57.5344 50.782 57.5009 50.9052 57.4367L53.2315 56.371V55.9048Z" fill="#BA503A"/>
<path d="M56.8209 54.1723L54.694 52.707C54.5708 52.6428 54.434 52.6093 54.2952 52.6093C54.1563 52.6093 54.0195 52.6428 53.8964 52.707L51.5701 53.7727C51.5701 53.7727 51.5701 53.7727 51.5701 54.2389L53.6305 55.7042C53.7537 55.7684 53.8905 55.8019 54.0293 55.8019C54.1681 55.8019 54.3049 55.7684 54.4281 55.7042L56.7544 54.5719C56.7544 54.5719 56.7544 54.5719 56.7544 54.1057L56.8209 54.1723Z" fill="#BA503A"/>
<path d="M33.292 69.1579L31.1651 67.6926C31.042 67.6284 30.9052 67.5948 30.7664 67.5948C30.6275 67.5948 30.4907 67.6284 30.3676 67.6926L28.0413 68.7582C28.0413 68.7582 28.0413 68.7582 28.0413 69.2245L30.1682 70.6897C30.2913 70.7539 30.4281 70.7875 30.567 70.7875C30.7058 70.7875 30.8426 70.7539 30.9658 70.6897L33.292 69.6241C33.292 69.6241 33.292 69.6241 33.292 69.1579V69.1579Z" fill="#BA503A"/>
<path d="M36.6814 67.4937L34.621 65.9618C34.3639 65.8647 34.0804 65.8647 33.8234 65.9618L31.4971 67.0941C31.4971 67.0941 31.4971 67.0941 31.4971 67.5603L33.624 69.0256C33.7471 69.0898 33.8839 69.1233 34.0228 69.1233C34.1616 69.1233 34.2984 69.0898 34.4216 69.0256L36.7479 67.9599C36.7479 67.9599 36.7479 67.9599 36.7479 67.4937H36.6814Z" fill="#BA503A"/>
<path d="M40.3367 65.7618L38.2762 64.2965C38.1414 64.2315 37.9938 64.1978 37.8442 64.1978C37.6946 64.1978 37.547 64.2315 37.4122 64.2965L35.1523 65.3621C35.1523 65.3621 35.1523 65.3621 35.1523 65.8284L37.2792 67.2936C37.3943 67.3801 37.5342 67.4268 37.678 67.4268C37.8218 67.4268 37.9618 67.3801 38.0768 67.2936L40.4031 66.228V65.7618H40.3367Z" fill="#BA503A"/>
<path d="M43.9925 64.0302L41.8656 62.5649C41.6098 62.4612 41.3238 62.4612 41.068 62.5649L38.7417 63.6305C38.7417 63.6305 38.7417 63.9635 38.7417 64.0968L40.8021 65.6286C41.0592 65.7258 41.3427 65.7258 41.5997 65.6286L43.926 64.563C43.926 64.563 43.926 64.563 43.926 64.0302H43.9925Z" fill="#BA503A"/>
<path d="M47.6497 62.3653L45.5228 60.9C45.4041 60.8226 45.2656 60.7814 45.124 60.7814C44.9824 60.7814 44.8439 60.8226 44.7252 60.9L42.3989 61.9657C42.3989 61.9657 42.3989 62.2987 42.3989 62.4319L44.5258 63.8972C44.649 63.9614 44.7858 63.9949 44.9246 63.9949C45.0635 63.9949 45.2003 63.9614 45.3234 63.8972L47.6497 62.8315C47.6497 62.8315 47.6497 62.8315 47.6497 62.3653Z" fill="#BA503A"/>
<path d="M51.2375 60.6337L49.1771 59.1685C49.0539 59.1043 48.9172 59.0707 48.7783 59.0707C48.6395 59.0707 48.5027 59.1043 48.3795 59.1685L46.0532 59.9677C46.0532 59.9677 46.0532 60.3007 46.0532 60.4339L48.1801 61.9658C48.4359 62.0695 48.7219 62.0695 48.9777 61.9658L51.304 60.8336C51.304 60.8336 51.304 60.8336 51.304 60.3673L51.2375 60.6337Z" fill="#BA503A"/>
<path d="M54.8934 58.9687L52.7665 57.5035C52.6433 57.4393 52.5065 57.4057 52.3677 57.4057C52.2288 57.4057 52.092 57.4393 51.9689 57.5035L49.6426 58.6357C49.6426 58.6357 49.6426 58.9687 49.6426 59.1019L51.703 60.5672C51.8378 60.6321 51.9855 60.6659 52.135 60.6659C52.2846 60.6659 52.4323 60.6321 52.5671 60.5672L54.8269 59.5016C54.8269 59.5016 54.8269 59.1685 54.8269 59.0353L54.8934 58.9687Z" fill="#BA503A"/>
<path d="M58.5492 57.2369L56.4223 55.7717C56.2991 55.7074 56.1623 55.6739 56.0235 55.6739C55.8847 55.6739 55.7479 55.7074 55.6247 55.7717L53.2319 56.7707C53.2319 56.7707 53.2319 57.1037 53.2319 57.2369L55.3588 58.7022C55.482 58.7664 55.6188 58.7999 55.7576 58.7999C55.8965 58.7999 56.0333 58.7664 56.1564 58.7022L58.4827 57.5699C58.4827 57.5699 58.4827 57.2369 58.4827 57.1037L58.5492 57.2369Z" fill="#BA503A"/>
<path d="M62.1374 55.5715L59.8776 54.0396C59.6205 53.9424 59.337 53.9424 59.08 54.0396L56.7537 55.1719C56.7537 55.1719 56.7537 55.1719 56.7537 55.6381L58.8806 57.1033C59.0037 57.1676 59.1405 57.2011 59.2794 57.2011C59.4182 57.2011 59.555 57.1676 59.6782 57.1033L62.0045 56.0377C62.0045 56.0377 62.0045 55.7047 62.0045 55.5715H62.1374Z" fill="#BA503A"/>
<path d="M65.7942 53.8401L63.6673 52.3749C63.5442 52.3107 63.4074 52.2771 63.2685 52.2771C63.1297 52.2771 62.9929 52.3107 62.8698 52.3749L60.5435 53.3073V53.7735L62.6704 55.2388C62.7854 55.3253 62.9253 55.372 63.0691 55.372C63.213 55.372 63.3529 55.3253 63.4679 55.2388L65.7942 54.1732V53.7069V53.8401Z" fill="#BA503A"/>
<path d="M60.4754 52.5079L58.3485 50.9761C58.0915 50.8789 57.8079 50.8789 57.5509 50.9761L55.2246 52.1083C55.2246 52.1083 55.2246 52.1083 55.2246 52.5745L57.3515 54.0398C57.4747 54.104 57.6115 54.1375 57.7503 54.1375C57.8891 54.1375 58.0259 54.104 58.1491 54.0398L60.4089 53.3072C60.4089 53.3072 60.4089 53.3072 60.4089 52.8409L60.4754 52.5079Z" fill="#BA503A"/>
<path d="M64.0659 50.7755L62.0055 49.3102C61.8823 49.246 61.7455 49.2125 61.6067 49.2125C61.4678 49.2125 61.3311 49.246 61.2079 49.3102L58.8816 50.3758C58.8816 50.3758 58.8816 50.3758 58.8816 50.8421L61.0085 52.3073C61.1235 52.3938 61.2635 52.4405 61.4073 52.4405C61.5511 52.4405 61.691 52.3938 61.8061 52.3073L64.1324 51.2417V50.7755H64.0659Z" fill="#BA503A"/>
<path d="M33.7564 80.5481L31.6295 79.0828C31.5063 79.0186 31.3695 78.9851 31.2307 78.9851C31.0919 78.9851 30.9551 79.0186 30.8319 79.0828L28.5056 79.9487C28.5056 79.9487 28.5056 80.2817 28.5056 80.4149L30.6325 81.9468C30.8895 82.0439 31.1731 82.0439 31.4301 81.9468L33.7564 80.8145C33.7564 80.8145 33.7564 80.8145 33.7564 80.3483V80.5481Z" fill="#BA503A"/>
<path d="M37.3469 78.8829L35.2865 77.4176C35.1678 77.3402 35.0293 77.299 34.8877 77.299C34.7461 77.299 34.6076 77.3402 34.4889 77.4176L32.1626 78.4832C32.1626 78.4832 32.1626 78.8163 32.1626 78.9495L34.2895 80.4147C34.4127 80.4789 34.5495 80.5125 34.6883 80.5125C34.8271 80.5125 34.9639 80.4789 35.0871 80.4147L37.4134 79.3491C37.4134 79.3491 37.4134 79.0161 37.4134 78.8829H37.3469Z" fill="#BA503A"/>
<path d="M41.0027 77.1513L38.8758 75.686C38.7527 75.6218 38.6159 75.5883 38.477 75.5883C38.3382 75.5883 38.2014 75.6218 38.0783 75.686L35.752 76.7517V77.2179L37.8124 78.7498C38.0924 78.8462 38.3965 78.8462 38.6764 78.7498L41.0027 77.6175C41.0027 77.6175 41.0027 77.6175 41.0027 77.1513V77.1513Z" fill="#BA503A"/>
<path d="M44.6573 75.4859L42.5304 73.954C42.2746 73.8503 41.9886 73.8503 41.7328 73.954L39.4065 75.0863C39.4065 75.0863 39.4065 75.0863 39.4065 75.5525L41.4669 77.0178C41.5901 77.082 41.7269 77.1155 41.8657 77.1155C42.0046 77.1155 42.1414 77.082 42.2645 77.0178L44.5908 75.9521C44.5908 75.9521 44.5908 75.6191 44.5908 75.4859H44.6573Z" fill="#BA503A"/>
<path d="M29.4363 70.8903L27.3094 69.3585C27.0536 69.2548 26.7676 69.2548 26.5118 69.3585L24.1855 70.4907C24.1855 70.4907 24.1855 70.4907 24.1855 70.9569L26.246 72.4222C26.3808 72.4872 26.5284 72.5209 26.678 72.5209C26.8276 72.5209 26.9752 72.4872 27.11 72.4222L29.3699 71.3566C29.3699 71.3566 29.3699 71.0235 29.3699 70.8903H29.4363Z" fill="#BA503A"/>
<path d="M68.2527 48.8445L66.5246 47.3126C66.2675 47.2154 65.984 47.2154 65.727 47.3126L62.8025 48.6446V49.1109L64.8629 50.6427C65.1429 50.7391 65.447 50.7391 65.727 50.6427L68.585 49.3107C68.585 49.3107 68.585 48.9777 68.585 48.8445H68.2527Z" fill="#BA503A"/>
<path d="M66.9222 65.0289L64.7953 63.5636C64.6803 63.4771 64.5403 63.4304 64.3965 63.4304C64.2527 63.4304 64.1128 63.4771 63.9977 63.5636L43.061 73.2876C43.061 73.2876 43.061 73.6206 43.061 73.7539L45.1879 75.2191C45.3066 75.2965 45.4451 75.3377 45.5867 75.3377C45.7283 75.3377 45.8669 75.2965 45.9855 75.2191L66.9887 65.4285V64.9623L66.9222 65.0289Z" fill="#BA503A"/>
<path d="M21.328 66.627H20.7962C20.5392 66.5299 20.2557 66.5299 19.9987 66.627L17.6724 67.7593C17.6724 67.7593 17.6724 67.7593 17.6724 68.2255L18.2706 68.6251C18.5263 68.7288 18.8123 68.7288 19.0681 68.6251L21.3944 67.4929C21.3944 67.4929 21.3944 67.4929 21.3944 67.0267L21.328 66.627Z" fill="#BA503A"/>
<path d="M24.9838 65.2287L24.3856 64.8291C24.2624 64.7649 24.1256 64.7314 23.9868 64.7314C23.848 64.7314 23.7112 64.7649 23.588 64.8291L21.2617 65.8947V66.361L21.7934 66.7606C21.9282 66.8255 22.0759 66.8592 22.2255 66.8592C22.375 66.8592 22.5227 66.8255 22.6575 66.7606L24.9173 65.6949C24.9173 65.6949 24.9173 65.6949 24.9173 65.2287H24.9838Z" fill="#BA503A"/>
<path d="M28.6383 63.4978L28.0401 63.0982C27.7844 62.9945 27.4984 62.9945 27.2426 63.0982L24.9163 64.2304C24.9163 64.2304 24.9163 64.2304 24.9163 64.6966L25.448 65.0963C25.705 65.1934 25.9886 65.1934 26.2456 65.0963L28.5719 63.964C28.5719 63.964 28.5719 63.964 28.5719 63.4978H28.6383Z" fill="#BA503A"/>
<path d="M32.2289 61.8319L31.6971 61.4323C31.574 61.3681 31.4372 61.3345 31.2983 61.3345C31.1595 61.3345 31.0227 61.3681 30.8995 61.4323L28.5732 62.4979C28.5732 62.4979 28.5732 62.8309 28.5732 62.9641L29.1714 63.3638C29.2946 63.428 29.4314 63.4615 29.5702 63.4615C29.7091 63.4615 29.8459 63.428 29.969 63.3638L32.2953 62.2981C32.2953 62.2981 32.2953 62.2981 32.2953 61.8319H32.2289Z" fill="#BA503A"/>
<path d="M35.8834 59.9671H35.3517C35.2285 59.9029 35.0917 59.8694 34.9529 59.8694C34.814 59.8694 34.6772 59.9029 34.5541 59.9671L32.2278 61.0328C32.2278 61.0328 32.2278 61.3658 32.2278 61.499L32.826 61.8986C32.9491 61.9628 33.0859 61.9963 33.2248 61.9963C33.3636 61.9963 33.5004 61.9628 33.6236 61.8986L35.9499 60.7664C35.9499 60.7664 35.9499 60.4333 35.9499 60.3001L35.8834 59.9671Z" fill="#BA503A"/>
<path d="M39.5392 58.435L38.941 58.0353C38.826 57.9489 38.686 57.9021 38.5422 57.9021C38.3984 57.9021 38.2585 57.9489 38.1434 58.0353L35.8171 59.101C35.8171 59.101 35.8171 59.434 35.8171 59.5672L36.3489 59.9668C36.472 60.031 36.6088 60.0646 36.7477 60.0646C36.8865 60.0646 37.0233 60.031 37.1465 59.9668L39.4727 58.9012C39.4727 58.9012 39.4727 58.5682 39.4727 58.435H39.5392Z" fill="#BA503A"/>
<path d="M43.1938 56.7033L42.5956 56.3036C42.4724 56.2394 42.3356 56.2059 42.1968 56.2059C42.0579 56.2059 41.9211 56.2394 41.798 56.3036L39.4717 57.3693C39.4717 57.3693 39.4717 57.7023 39.4717 57.8355L39.9369 58.1685C40.0556 58.2459 40.1941 58.2871 40.3357 58.2871C40.4773 58.2871 40.6159 58.2459 40.7345 58.1685L43.0608 57.1029C43.0608 57.1029 43.0608 56.7699 43.0608 56.6367L43.1938 56.7033Z" fill="#BA503A"/>
<path d="M46.5841 54.9725V54.5729C46.3271 54.4757 46.0435 54.4757 45.7865 54.5729L43.4602 55.7051C43.4602 55.7051 43.4602 55.7051 43.4602 56.1714L44.0584 56.571C44.3142 56.6747 44.6002 56.6747 44.856 56.571L46.5841 55.4387C46.5841 55.4387 46.5841 55.4387 46.5841 54.9725Z" fill="#BA503A"/>
<path d="M50.4402 53.3065L49.842 52.9069C49.7189 52.8426 49.5821 52.8091 49.4432 52.8091C49.3044 52.8091 49.1676 52.8426 49.0444 52.9069L46.5852 53.9059V54.3721L47.1169 54.7717C47.2401 54.8359 47.3769 54.8695 47.5157 54.8695C47.6546 54.8695 47.7914 54.8359 47.9145 54.7717L50.2408 53.7061C50.2408 53.7061 50.2408 53.3731 50.2408 53.2399L50.4402 53.3065Z" fill="#BA503A"/>
<path d="M54.0949 51.5756L53.2308 51.1759C52.975 51.0723 52.689 51.0723 52.4332 51.1759L50.1069 52.3082C50.1069 52.3082 50.1069 52.3082 50.1069 52.7744L50.9045 53.3072C51.1615 53.4044 51.4451 53.4044 51.7021 53.3072L54.0284 52.175C54.0284 52.175 54.0284 52.175 54.0284 51.7088L54.0949 51.5756Z" fill="#BA503A"/>
<path d="M57.6851 49.9096L57.1534 49.51C57.0303 49.4458 56.8935 49.4123 56.7546 49.4123C56.6158 49.4123 56.479 49.4458 56.3558 49.51L54.0295 50.5757C54.0295 50.5757 54.0295 50.5757 54.0295 51.0419L54.6277 51.4415C54.7509 51.5057 54.8877 51.5393 55.0265 51.5393C55.1654 51.5393 55.3022 51.5057 55.4253 51.4415L57.7516 50.3759C57.7516 50.3759 57.7516 50.3759 57.7516 49.9096H57.6851Z" fill="#BA503A"/>
<path d="M61.3404 48.1788L60.8087 47.7792C60.6739 47.7142 60.5262 47.6805 60.3767 47.6805C60.2271 47.6805 60.0794 47.7142 59.9446 47.7792L57.6848 48.8448C57.6848 48.8448 57.6848 48.8448 57.6848 49.311L58.283 49.7106C58.4062 49.7749 58.543 49.8084 58.6818 49.8084C58.8206 49.8084 58.9574 49.7749 59.0806 49.7106L61.4069 48.5784C61.4069 48.5784 61.4069 48.5784 61.4069 48.1122L61.3404 48.1788Z" fill="#BA503A"/>
<path d="M64.9962 46.6472L64.3981 46.2476C64.283 46.1612 64.1431 46.1144 63.9993 46.1144C63.8554 46.1144 63.7155 46.1612 63.6005 46.2476L61.2742 47.3133C61.2742 47.3133 61.2742 47.3133 61.2742 47.7795L61.8059 48.1791C61.9291 48.2433 62.0659 48.2768 62.2047 48.2768C62.3435 48.2768 62.4803 48.2433 62.6035 48.1791L64.9298 47.1135C64.9298 47.1135 64.9298 47.1135 64.9298 46.6472H64.9962Z" fill="#BA503A"/>
<path d="M17.7389 68.6255L17.1407 68.2259C17.0176 68.1617 16.8808 68.1281 16.7419 68.1281C16.6031 68.1281 16.4663 68.1617 16.3431 68.2259L13.4851 69.5579C13.4851 69.5579 13.4851 69.891 13.4851 70.0242L14.0833 70.4238C14.2065 70.488 14.3433 70.5215 14.4821 70.5215C14.6209 70.5215 14.7577 70.488 14.8809 70.4238L17.7389 69.0917C17.7389 69.0917 17.7389 69.0917 17.7389 68.6255Z" fill="#BA503A"/>
<path d="M25.8471 72.6221L23.7202 71.0902C23.4632 70.9931 23.1796 70.9931 22.9226 71.0902L18.5359 73.2881C18.5359 73.2881 18.5359 73.2881 18.5359 73.7544L20.6628 75.2196C20.786 75.2838 20.9227 75.3174 21.0616 75.3174C21.2004 75.3174 21.3372 75.2838 21.4604 75.2196L25.8471 73.2215C25.8471 73.2215 25.8471 72.8885 25.8471 72.7553V72.6221Z" fill="#BA503A"/>
<path d="M30.9647 74.0874L28.8378 72.6221C28.7227 72.5356 28.5828 72.4889 28.439 72.4889C28.2952 72.4889 28.1552 72.5356 28.0402 72.6221L21.8589 75.486C21.8589 75.486 21.8589 75.486 21.8589 75.9522L23.9858 77.4175C24.1045 77.4949 24.243 77.5361 24.3846 77.5361C24.5262 77.5361 24.6647 77.4949 24.7834 77.4175L30.9647 74.5536C30.9647 74.5536 30.9647 74.5536 30.9647 74.0874V74.0874Z" fill="#BA503A"/>
<path d="M34.2884 76.4182L32.228 74.9529C32.1048 74.8887 31.968 74.8552 31.8292 74.8552C31.6903 74.8552 31.5536 74.8887 31.4304 74.9529L25.1826 77.8168V78.283L27.2431 79.8149C27.523 79.9113 27.8271 79.9113 28.1071 79.8149L34.2884 76.8844C34.2884 76.8844 34.2884 76.8844 34.2884 76.4182Z" fill="#BA503A"/>
<path d="M71.5769 51.1762L69.5164 49.6443C69.2594 49.5472 68.9758 49.5472 68.7188 49.6443L64.2656 51.7756C64.2656 51.7756 64.2656 51.7756 64.2656 52.2419L66.3925 53.7071C66.5157 53.7713 66.6525 53.8049 66.7913 53.8049C66.9302 53.8049 67.067 53.7713 67.1901 53.7071L71.6433 51.6424C71.6433 51.6424 71.6433 51.6424 71.6433 51.1762H71.5769Z" fill="#BA503A"/>
<path d="M74.8978 53.307L73.1697 52.0416C73.0465 51.9774 72.9097 51.9438 72.7709 51.9438C72.6321 51.9438 72.4953 51.9774 72.3721 52.0416L66.0579 55.0387C66.0579 55.0387 66.0579 55.0387 66.0579 55.5049L68.1183 56.9702C68.2415 57.0344 68.3783 57.0679 68.5171 57.0679C68.6559 57.0679 68.7927 57.0344 68.9159 56.9702L75.2301 54.0397C75.2301 54.0397 75.2301 54.0397 75.2301 53.5735L74.8978 53.307Z" fill="#BA503A"/>
<path d="M76.295 58.8349L75.7633 58.4353C75.6401 58.3711 75.5033 58.3376 75.3645 58.3376C75.2257 58.3376 75.0889 58.3711 74.9657 58.4353L72.6394 59.501C72.6394 59.501 72.6394 59.834 72.6394 59.9672L73.2376 60.3668C73.3608 60.431 73.4975 60.4645 73.6364 60.4645C73.7752 60.4645 73.912 60.431 74.0352 60.3668L76.3615 59.3012V58.8349H76.295Z" fill="#BA503A"/>
<path d="M77.8233 59.9677L77.2916 59.5681C77.0346 59.471 76.751 59.471 76.494 59.5681L74.1677 60.6338C74.1677 60.6338 74.1677 60.9668 74.1677 61.1666L74.7659 61.5662C75.0217 61.6699 75.3077 61.6699 75.5635 61.5662L77.8898 60.4339C77.8898 60.4339 77.8898 60.4339 77.8898 59.9677H77.8233Z" fill="#BA503A"/>
<path d="M63.6667 58.7687L61.6063 57.3034C61.4831 57.2392 61.3464 57.2057 61.2075 57.2057C61.0687 57.2057 60.9319 57.2392 60.8087 57.3034L58.4824 58.4357C58.4824 58.4357 58.4824 58.7687 58.4824 58.9019L60.5429 59.9675C60.666 60.0318 60.8028 60.0653 60.9417 60.0653C61.0805 60.0653 61.2173 60.0318 61.3404 59.9675L63.6667 58.9019C63.6667 58.9019 63.6667 58.5689 63.6667 58.4357V58.7687Z" fill="#BA503A"/>
<path d="M67.3226 57.0371L65.1957 55.5718C65.0725 55.5076 64.9357 55.4741 64.7969 55.4741C64.658 55.4741 64.5212 55.5076 64.3981 55.5718L62.0718 56.6375V57.1037L64.1987 58.569C64.3218 58.6332 64.4586 58.6667 64.5975 58.6667C64.7363 58.6667 64.8731 58.6332 64.9963 58.569L67.2561 57.4367C67.2561 57.4367 67.2561 57.1037 67.2561 56.9705L67.3226 57.0371Z" fill="#BA503A"/>
<path d="M67.0569 61.0994L64.93 59.9671C64.8069 59.9029 64.6701 59.8694 64.5312 59.8694C64.3924 59.8694 64.2556 59.9029 64.1325 59.9671L61.8062 61.0328C61.8062 61.0328 61.8062 61.3658 61.8062 61.499L63.9331 62.9642C64.0562 63.0285 64.193 63.062 64.3318 63.062C64.4707 63.062 64.6075 63.0285 64.7306 62.9642L67.0569 61.832C67.0569 61.832 67.0569 61.499 67.0569 61.3658V61.0994Z" fill="#BA503A"/>
<path d="M70.645 59.4348L68.5846 57.9029C68.3276 57.8057 68.044 57.8057 67.787 57.9029L65.4607 59.0351C65.4607 59.0351 65.4607 59.0351 65.4607 59.5014L67.5876 60.9666C67.7108 61.0308 67.8476 61.0644 67.9864 61.0644C68.1252 61.0644 68.262 61.0308 68.3852 60.9666L70.645 59.9676C70.645 59.9676 70.645 59.6346 70.645 59.5014V59.4348Z" fill="#BA503A"/>
<path d="M74.3008 57.7023L72.1739 56.237C72.0508 56.1728 71.914 56.1393 71.7751 56.1393C71.6363 56.1393 71.4995 56.1728 71.3763 56.237L69.05 57.3027V57.7689L71.1769 59.2342C71.292 59.3207 71.4319 59.3674 71.5757 59.3674C71.7196 59.3674 71.8595 59.3207 71.9745 59.2342L74.3008 58.1685V57.7023Z" fill="#BA503A"/>
<path d="M78.2877 55.8373L76.1608 54.372C76.0376 54.3078 75.9008 54.2743 75.762 54.2743C75.6232 54.2743 75.4864 54.3078 75.3632 54.372L72.7046 55.5709C72.7046 55.5709 72.7046 55.9039 72.7046 56.0371L74.765 57.5689C75.022 57.6661 75.3056 57.6661 75.5626 57.5689L78.2212 56.3035C78.2212 56.3035 78.2212 56.3035 78.2212 55.8373H78.2877Z" fill="#BA503A"/>
<path d="M56.4219 62.165L54.295 60.6997C54.2384 60.6129 54.1624 60.5405 54.073 60.4883C53.9836 60.4362 53.8832 60.4056 53.78 60.3992C53.6767 60.3927 53.5733 60.4105 53.4781 60.4511C53.3829 60.4917 53.2985 60.554 53.2316 60.6331L50.9053 61.6988V62.165L53.2316 63.6303C53.3547 63.6945 53.4915 63.728 53.6304 63.728C53.7692 63.728 53.906 63.6945 54.0292 63.6303L56.3555 62.5646C56.3555 62.5646 56.3555 62.2316 56.3555 62.0984L56.4219 62.165Z" fill="#BA503A"/>
<path d="M59.8768 60.4339L57.7499 58.9687C57.6268 58.9044 57.49 58.8709 57.3511 58.8709C57.2123 58.8709 57.0755 58.9044 56.9523 58.9687L54.8254 59.9677C54.8254 59.9677 54.8254 60.3007 54.8254 60.4339L56.9523 61.9658C57.2094 62.0629 57.4929 62.0629 57.7499 61.9658L59.8768 60.9001C59.8768 60.9001 59.8768 60.9001 59.8768 60.4339Z" fill="#BA503A"/>
<path d="M59.8769 64.4967L57.8165 63.0314C57.6817 62.9664 57.5341 62.9327 57.3845 62.9327C57.2349 62.9327 57.0873 62.9664 56.9525 63.0314L54.6926 64.097C54.6926 64.097 54.6926 64.43 54.6926 64.5633L56.8195 66.0951C57.0753 66.1988 57.3613 66.1988 57.6171 66.0951L59.8769 64.9629C59.8769 64.9629 59.8769 64.9629 59.8769 64.4967Z" fill="#BA503A"/>
<path d="M63.4 62.8316L61.2731 61.2998C61.0173 61.1961 60.7313 61.1961 60.4755 61.2998L58.1492 62.432C58.1492 62.432 58.1492 62.432 58.1492 62.8982L60.2096 64.3635C60.3328 64.4277 60.4696 64.4612 60.6084 64.4612C60.7472 64.4612 60.884 64.4277 61.0072 64.3635L63.3335 63.2978C63.3335 63.2978 63.3335 62.9648 63.3335 62.8316H63.4Z" fill="#BA503A"/>
<path d="M49.1778 65.5623L47.0509 64.0971C46.9277 64.0329 46.7909 63.9993 46.6521 63.9993C46.5133 63.9993 46.3765 64.0329 46.2533 64.0971L43.927 65.1627C43.927 65.1627 43.927 65.4957 43.927 65.6289L46.0539 67.0942C46.1726 67.1716 46.3111 67.2128 46.4527 67.2128C46.5943 67.2128 46.7328 67.1716 46.8515 67.0942L49.1778 66.0285C49.1778 66.0285 49.1778 65.6955 49.1778 65.5623Z" fill="#BA503A"/>
<path d="M52.7659 63.8965L50.7054 62.3646C50.4254 62.2682 50.1214 62.2682 49.8414 62.3646L47.5815 63.4303C47.5815 63.4303 47.5815 63.7633 47.5815 63.8965L49.7084 65.4284C49.9642 65.5321 50.2502 65.5321 50.506 65.4284L52.8323 64.3627V63.8965H52.7659Z" fill="#BA503A"/>
<path d="M52.5008 67.893L50.3739 66.6275C50.2507 66.5633 50.1139 66.5298 49.9751 66.5298C49.8363 66.5298 49.6995 66.5633 49.5763 66.6275L47.25 67.6932C47.25 67.6932 47.25 68.0262 47.25 68.1594L49.3104 69.6913C49.5675 69.7884 49.851 69.7884 50.108 69.6913L52.4343 68.559C52.4343 68.559 52.4343 68.559 52.4343 68.0928L52.5008 67.893Z" fill="#BA503A"/>
<path d="M56.1561 66.2275L54.0292 64.7622C53.9105 64.6848 53.772 64.6436 53.6304 64.6436C53.4888 64.6436 53.3502 64.6848 53.2316 64.7622L50.9053 65.8278C50.9053 65.8278 50.9053 66.1609 50.9053 66.2941L53.0322 67.7593C53.1553 67.8235 53.2921 67.8571 53.431 67.8571C53.5698 67.8571 53.7066 67.8235 53.8298 67.7593L56.0896 66.6271C56.0896 66.6271 56.0896 66.6271 56.0896 66.1609L56.1561 66.2275Z" fill="#BA503A"/>
<path d="M41.8649 68.9591L39.9374 67.4939C39.8142 67.4296 39.6774 67.3961 39.5386 67.3961C39.3997 67.3961 39.2629 67.4296 39.1398 67.4939L36.8135 68.5595V69.0257L38.9404 70.491C39.0635 70.5552 39.2003 70.5887 39.3392 70.5887C39.478 70.5887 39.6148 70.5552 39.738 70.491L42.0643 69.3587C42.0643 69.3587 42.0643 69.0257 42.0643 68.8925L41.8649 68.9591Z" fill="#BA503A"/>
<path d="M45.5208 67.2937L43.3939 65.7618C43.1381 65.6582 42.8521 65.6582 42.5963 65.7618L40.27 66.6277C40.27 66.6277 40.27 66.6277 40.27 67.0939L42.3305 68.5592C42.4536 68.6234 42.5904 68.6569 42.7292 68.6569C42.8681 68.6569 43.0049 68.6234 43.128 68.5592L45.4543 67.4935C45.4543 67.4935 45.4543 67.1605 45.4543 67.0273L45.5208 67.2937Z" fill="#BA503A"/>
<path d="M45.1893 71.3559L43.1288 69.824C42.8718 69.7269 42.5883 69.7269 42.3312 69.824L39.9385 70.8897C39.9385 70.8897 39.9385 70.8897 39.9385 71.3559L42.0654 72.8212C42.1885 72.8854 42.3253 72.9189 42.4642 72.9189C42.603 72.9189 42.7398 72.8854 42.863 72.8212L45.1893 71.7555C45.1893 71.7555 45.1893 71.7555 45.1893 71.2893V71.3559Z" fill="#BA503A"/>
<path d="M48.8439 69.6245L46.5841 68.1593C46.4609 68.095 46.3241 68.0615 46.1853 68.0615C46.0465 68.0615 45.9097 68.095 45.7865 68.1593L43.4602 69.2249V69.6911L45.5871 71.1564C45.7103 71.2206 45.8471 71.2541 45.9859 71.2541C46.1247 71.2541 46.2615 71.2206 46.3847 71.1564L48.711 70.0908V69.6245H48.8439Z" fill="#BA503A"/>
<path d="M34.6226 72.3559L32.4957 70.8906C32.3726 70.8264 32.2358 70.7929 32.0969 70.7929C31.9581 70.7929 31.8213 70.8264 31.6981 70.8906L29.3718 71.9563C29.3718 71.9563 29.3718 72.2893 29.3718 72.4225L31.4987 73.9544C31.7558 74.0515 32.0393 74.0515 32.2963 73.9544L34.6226 72.8221C34.6226 72.8221 34.6226 72.8221 34.6226 72.3559Z" fill="#BA503A"/>
<path d="M38.2102 70.6909L36.1498 69.2257C36.0266 69.1615 35.8898 69.1279 35.751 69.1279C35.6121 69.1279 35.4753 69.1615 35.3522 69.2257L33.2917 70.2247C33.2917 70.2247 33.2917 70.5577 33.2917 70.6909L35.4187 72.1562C35.5418 72.2204 35.6786 72.2539 35.8174 72.2539C35.9563 72.2539 36.0931 72.2204 36.2162 72.1562L38.5425 71.0906C38.5425 71.0906 38.5425 71.0906 38.5425 70.6243L38.2102 70.6909Z" fill="#BA503A"/>
<path d="M37.9454 74.7527L35.8185 73.2875C35.5627 73.1838 35.2767 73.1838 35.0209 73.2875L32.6946 74.4197C32.6946 74.4197 32.6946 74.4197 32.6946 74.886L34.755 76.3512C34.8898 76.4162 35.0375 76.4499 35.187 76.4499C35.3366 76.4499 35.4843 76.4162 35.6191 76.3512L37.8789 75.2856C37.8789 75.2856 37.8789 75.2856 37.8789 74.8193L37.9454 74.7527Z" fill="#BA503A"/>
<path d="M41.5999 73.2878L39.473 71.8225C39.3498 71.7583 39.213 71.7248 39.0742 71.7248C38.9354 71.7248 38.7986 71.7583 38.6754 71.8225L36.3491 72.8882C36.3491 72.8882 36.3491 72.8882 36.3491 73.3544L38.476 74.8197C38.5947 74.897 38.7332 74.9382 38.8748 74.9382C39.0164 74.9382 39.1549 74.897 39.2736 74.8197L41.5334 73.2878C41.5334 73.2878 41.5334 73.2878 41.5334 72.8216L41.5999 73.2878Z" fill="#BA503A"/>
<path d="M70.5787 63.2974L68.4518 61.8321C68.3286 61.7679 68.1918 61.7344 68.053 61.7344C67.9141 61.7344 67.7773 61.7679 67.6542 61.8321L65.3279 62.8978C65.3279 62.8978 65.3279 63.2308 65.3279 63.364L67.3883 64.8959C67.6453 64.993 67.9289 64.993 68.1859 64.8959L70.5122 63.7636C70.5122 63.7636 70.5122 63.7636 70.5122 63.2974H70.5787Z" fill="#BA503A"/>
<path d="M74.2359 61.6319L72.109 59.9668C71.9903 59.8895 71.8518 59.8483 71.7102 59.8483C71.5686 59.8483 71.4301 59.8895 71.3114 59.9668L68.9851 61.0325C68.9851 61.0325 68.9851 61.3655 68.9851 61.4987L71.112 62.964C71.2352 63.0282 71.372 63.0617 71.5108 63.0617C71.6496 63.0617 71.7864 63.0282 71.9096 62.964L74.2359 61.8983C74.2359 61.8983 74.2359 61.5653 74.2359 61.4321V61.6319Z" fill="#BA503A"/>
<path d="M81.5451 58.1688L79.817 56.7035C79.6938 56.6393 79.557 56.6058 79.4182 56.6058C79.2794 56.6058 79.1426 56.6393 79.0194 56.7035L76.6931 57.7692C76.6931 57.7692 76.6931 58.1022 76.6931 58.2354L78.82 59.7006C78.9351 59.7871 79.075 59.8339 79.2188 59.8339C79.3626 59.8339 79.5026 59.7871 79.6176 59.7006L81.9439 58.635C81.9439 58.635 81.9439 58.302 81.9439 58.1688H81.5451Z" fill="#BA503A"/>
<path d="M50.7731 40.0531L18.3379 53.9732L14.8152 28.5308L14.2834 24.6678L46.7187 10.7478L47.2504 14.6108L50.7731 40.0531Z" stroke="#BA503A" stroke-width="0.25" stroke-miterlimit="10"/>
<path d="M47.2504 14.6108L14.8152 28.5308L14.2834 24.6678L46.7187 10.7478L47.2504 14.6108Z" fill="#BA503A"/>
<path d="M16.8072 29.8629L18.8676 28.7972L18.5353 27.1987L16.4749 28.2644L16.8072 29.8629Z" fill="#FC797E"/>
</svg>
