<svg width="22" height="10" viewBox="0 0 22 10" fill="none" xmlns="http://www.w3.org/2000/svg">
<path d="M10.8879 2.51291e-06C11.1759 -0.000266784 11.4606 0.0458816 11.7232 0.135368C11.9857 0.224854 12.22 0.35562 12.4103 0.518938L21.0493 7.93706C21.1962 8.05748 21.3097 8.19888 21.3833 8.35294C21.4568 8.50701 21.4889 8.67062 21.4775 8.83417C21.4662 8.99772 21.4117 9.15791 21.3172 9.30532C21.2228 9.45273 21.0903 9.58439 20.9275 9.69255C20.7647 9.80071 20.575 9.8832 20.3694 9.93517C20.1639 9.98714 19.9467 10.0075 19.7305 9.99516C19.5144 9.98278 19.3037 9.93789 19.1108 9.86311C18.918 9.78834 18.7469 9.68519 18.6075 9.55973L11.0534 3.07303C11.0327 3.05522 11.0073 3.04095 10.9787 3.03118C10.9502 3.0214 10.9192 3.01634 10.8879 3.01634C10.8565 3.01634 10.8255 3.0214 10.797 3.03118C10.7684 3.04095 10.743 3.05522 10.7223 3.07303L3.16817 9.56106C3.02884 9.68652 2.85772 9.78966 2.66487 9.86444C2.47202 9.93922 2.26134 9.98411 2.0452 9.99649C1.82905 10.0089 1.61182 9.98847 1.40626 9.9365C1.2007 9.88453 1.01097 9.80204 0.848205 9.69388C0.685444 9.58571 0.552942 9.45406 0.458487 9.30665C0.364033 9.15924 0.309531 8.99905 0.298186 8.8355C0.286842 8.67195 0.318883 8.50833 0.392426 8.35427C0.465969 8.20021 0.57953 8.05881 0.726435 7.93838L9.36276 0.521599C9.55344 0.357877 9.78805 0.226692 10.051 0.13676C10.3139 0.0468279 10.5992 0.000209562 10.8879 2.51291e-06Z" fill="#222222"/>
</svg>
