<svg width="24" height="22" viewBox="0 0 24 22" fill="none" xmlns="http://www.w3.org/2000/svg">
<path d="M23.7913 4.38411C23.6045 4.14487 23.3179 4.00505 23.0143 4.00505H4.24893L3.96999 0.897557C3.92437 0.389381 3.49847 0 2.98828 0H0.985656C0.441292 0 0 0.441292 0 0.985656C0 1.53002 0.441292 1.97131 0.985656 1.97131H2.08715L3.16752 14.0075C3.16776 14.0217 3.16705 14.0357 3.16785 14.0499C3.17006 14.0878 3.17499 14.1247 3.18128 14.1612L3.2208 14.6012C3.22155 14.6095 3.22239 14.6178 3.22338 14.6261C3.34316 15.6638 3.87349 16.563 4.64038 17.1705C4.24302 17.6779 4.00524 18.316 4.00524 19.009C4.00524 20.6568 5.34578 21.9973 6.99347 21.9973C8.6412 21.9973 9.98174 20.6568 9.98174 19.009C9.98174 18.6521 9.91861 18.3097 9.80334 17.9921H15.198C15.0827 18.3097 15.0196 18.6521 15.0196 19.009C15.0196 20.6568 16.3601 21.9973 18.0078 21.9973C19.6556 21.9973 20.9961 20.6568 20.9961 19.009C20.9961 17.3613 19.6556 16.0208 18.0078 16.0208H7.00013C6.25141 16.0208 5.59895 15.5691 5.31733 14.9109L21.0694 13.9851C21.4995 13.9599 21.8633 13.6582 21.9678 13.2403L23.9706 5.2297C24.0441 4.93532 23.978 4.62339 23.7913 4.38411V4.38411Z" fill="#F5F5F5"/>
</svg>
