<svg width="24" height="18" viewBox="0 0 24 18" fill="none" xmlns="http://www.w3.org/2000/svg">
<path d="M20.2754 7.90903L7.63652 7.90903C7.03404 7.90903 6.54561 8.39747 6.54561 8.99994C6.54561 9.60241 7.03404 10.0908 7.63652 10.0908L20.2754 10.0908L18.865 11.5012C18.4389 11.9272 18.4389 12.618 18.865 13.044C19.2908 13.47 19.9816 13.47 20.4077 13.044L23.6802 9.7715C23.7055 9.74627 23.7294 9.71987 23.7521 9.69223C23.7576 9.68547 23.7623 9.67819 23.7677 9.67129C23.7844 9.65012 23.8007 9.62888 23.8157 9.60648C23.8201 9.59994 23.8236 9.59303 23.8279 9.58641C23.8429 9.56299 23.8576 9.53936 23.8708 9.5147C23.8734 9.50983 23.8755 9.50467 23.878 9.49979C23.8918 9.4731 23.905 9.44605 23.9166 9.41812C23.918 9.4147 23.9191 9.41107 23.9204 9.40758C23.9323 9.37819 23.9433 9.34845 23.9526 9.31783C23.9538 9.31398 23.9545 9.30998 23.9556 9.30605C23.9644 9.27601 23.9724 9.24568 23.9786 9.21463C23.9804 9.20539 23.9812 9.19587 23.9829 9.18656C23.9874 9.16081 23.9919 9.13507 23.9945 9.10881C23.9982 9.07281 24 9.03645 24 8.99994C24 8.96343 23.9982 8.92707 23.9945 8.89099C23.9919 8.86438 23.9873 8.83841 23.9828 8.81245C23.9812 8.80343 23.9804 8.7942 23.9786 8.78525C23.9724 8.7539 23.9644 8.72329 23.9555 8.69296C23.9544 8.68939 23.9538 8.68561 23.9527 8.68205C23.9433 8.65129 23.9323 8.62125 23.9203 8.59158C23.919 8.58838 23.918 8.58496 23.9167 8.58176C23.905 8.55361 23.8917 8.52641 23.8778 8.49958C23.8754 8.49485 23.8734 8.4899 23.8709 8.48518C23.8575 8.46038 23.8428 8.43652 23.8276 8.41288C23.8235 8.40648 23.82 8.39972 23.8158 8.39347C23.8007 8.37099 23.7842 8.34961 23.7676 8.32838C23.7623 8.32154 23.7576 8.31434 23.7522 8.30765C23.7294 8.28009 23.7055 8.25361 23.6803 8.22838L20.4078 4.95587C20.1948 4.74278 19.9156 4.6363 19.6364 4.6363C19.3572 4.6363 19.078 4.74278 18.865 4.95587C18.439 5.3819 18.439 6.07259 18.865 6.49863L20.2754 7.90903Z" fill="#353535"/>
<path d="M8.92371 17.9237C11.9015 17.9237 14.6719 16.4465 16.3348 13.9722C16.6708 13.4722 16.5379 12.7944 16.0379 12.4583C15.5378 12.1223 14.8601 12.2551 14.5239 12.7553C13.2671 14.6255 11.1736 15.742 8.92371 15.742C5.20625 15.7419 2.18182 12.7175 2.18182 9C2.18182 5.28247 5.20625 2.25811 8.92371 2.25811C11.167 2.25811 13.2571 3.3696 14.5148 5.23127C14.8522 5.73055 15.5302 5.86175 16.0295 5.52451C16.5287 5.1872 16.6601 4.50909 16.3228 4.00989C14.6587 1.54677 11.8927 0.0762942 8.92371 0.0762939C4.0032 0.0762935 4.30171e-07 4.07942 0 9C-4.30171e-07 13.9206 4.0032 17.9237 8.92371 17.9237Z" fill="#353535"/>
</svg>
