<svg width="96" height="107" viewBox="0 0 96 107" fill="none" xmlns="http://www.w3.org/2000/svg">
<g clip-path="url(#clip0_1082_62)">
<path d="M63.6842 9.29621L54.9741 4.30496L62.485 0L71.195 4.99125L63.6842 9.29621Z" fill="#D4FCDC"/>
<path d="M66.8399 25.393L58.1299 20.3393L71.0687 12.9772L79.7788 17.9685L66.8399 25.393Z" fill="#D4FCDC"/>
<path d="M34.2726 26.0793L25.5625 21.088L33.0733 16.7831L41.7834 21.7743L34.2726 26.0793Z" fill="#D4FCDC"/>
<path d="M60.402 55.6525L51.6919 50.6612L66.7136 42.1137L75.3605 47.105L60.402 55.6525Z" fill="#D4FCDC"/>
<path d="M46.4535 90.2169L37.7434 85.2257L42.1616 64.5744L50.8085 69.5656L46.4535 90.2169Z" fill="#98E5AA"/>
<path d="M52.8915 59.9574L44.1814 54.9661L48.5995 34.2524L57.3096 39.2437L52.8915 59.9574Z" fill="#98E5AA"/>
<path d="M30.9903 72.4355L22.2803 67.4443L44.1817 54.9662L52.8917 59.9574L30.9903 72.4355Z" fill="#D4FCDC"/>
<path d="M17.0416 107L8.33154 102.009L12.7497 81.3575L21.4597 86.3487L17.0416 107Z" fill="#98E5AA"/>
<path d="M59.3296 29.6355L50.6826 24.6443L54.9745 4.30493L63.6846 9.29618L59.3296 29.6355Z" fill="#98E5AA"/>
<path d="M37.4282 42.1137L28.7812 37.1225L50.6826 24.6444L59.3296 29.6356L37.4282 42.1137Z" fill="#D4FCDC"/>
<path d="M23.4796 76.7405L14.7695 71.7492L19.1877 51.0355L27.8977 56.0268L23.4796 76.7405Z" fill="#98E5AA"/>
<path d="M8.71006 85.1633L0 80.172L14.7692 71.7493L23.4793 76.7405L8.71006 85.1633Z" fill="#D4FCDC"/>
<path d="M8.71006 93.5861L0 88.5948V80.1721L8.71006 85.1633V93.5861Z" fill="#98E5AA"/>
<path d="M29.9179 46.4187L21.271 41.4275L25.5629 21.0881L34.273 26.0794L29.9179 46.4187Z" fill="#98E5AA"/>
<path d="M13.0647 56.0269L4.41772 51.0356L21.2698 41.4275L29.9167 46.4187L13.0647 56.0269Z" fill="#D4FCDC"/>
<path d="M13.1278 64.4495L4.41772 59.4583V51.0355L13.0647 56.0268L13.1278 64.4495Z" fill="#98E5AA"/>
<path d="M79.7785 26.3912L64.8199 35.0011L60.4018 55.6524L75.3604 47.1049V55.5277L58.3189 65.2606L53.9639 85.9119L46.4531 90.2169L50.8081 69.5656L28.9698 82.0437L24.5517 102.695L17.0408 107L21.459 86.3486L8.70947 93.586V85.1632L23.4787 76.7405L27.8968 56.1516L13.1276 64.4495V56.1516L29.9166 46.4186L34.2716 26.0793L41.7824 21.7743L37.4274 42.1137L59.3288 29.6355L63.6838 9.29617L71.1947 4.99121L66.8396 25.3306L79.7785 17.9685V26.3912ZM52.8909 59.9574L57.3091 39.2437L35.4077 51.7218L30.9895 72.3731L52.8909 59.895V59.9574Z" fill="#6BB579"/>
<path d="M62.3583 72.0612C60.8013 73.1413 59.5648 74.6132 58.7768 76.3245C57.9889 78.0358 57.6782 79.9243 57.877 81.7942V88.47L63.6206 85.1633V78.4875C63.4316 76.6006 63.7459 74.6977 64.5321 72.9682C65.3183 71.2387 66.5491 69.7429 68.1019 68.6298L62.3583 72.0612Z" fill="#98E5AA"/>
<path d="M93.9797 92.2134C93.1542 87.672 91.4022 83.3443 88.8306 79.4936C86.2589 75.643 82.9214 72.35 79.0211 69.8151C77.4694 68.6814 75.6414 67.9745 73.7233 67.7663C71.8053 67.558 69.8657 67.856 68.102 68.6297L62.3584 71.9364C64.1046 71.163 66.0249 70.854 67.929 71.0401C69.8332 71.2261 71.6552 71.9007 73.2144 72.997C77.1681 75.537 80.5525 78.8519 83.158 82.7368C85.7636 86.6216 87.5349 90.9937 88.3623 95.5825L86.3426 96.7055C88.4435 98.9837 90.3837 101.402 92.1493 103.943C92.1493 103.943 95.747 92.962 96.1888 91.0279L93.9797 92.2134Z" fill="#6BB579"/>
</g>
<defs>
<clipPath id="clip0_1082_62">
<rect width="96" height="107" fill="white"/>
</clipPath>
</defs>
</svg>
