<svg width="100" height="101" viewBox="0 0 100 101" fill="none" xmlns="http://www.w3.org/2000/svg">
<g clip-path="url(#clip0_2588_3767)">
<path opacity="0.994" fill-rule="evenodd" clip-rule="evenodd" d="M49.9023 6.47803C49.9023 14.6812 49.9023 22.8843 49.9023 31.0874C49.9023 31.1524 49.9023 31.2177 49.9023 31.2827C49.128 31.9591 48.3792 32.6753 47.6562 33.4312C45.57 31.3124 43.4542 29.2292 41.3085 27.1812C39.8763 28.4833 38.5091 29.8505 37.207 31.2827C40.5572 34.7306 43.9425 38.1485 47.3632 41.5366C47.4935 41.6669 47.6236 41.6669 47.7538 41.5366C48.4445 40.8132 49.1605 40.1296 49.9023 39.4858C49.9023 45.5405 49.9023 51.5952 49.9023 57.6499C39.3447 57.3397 31.6298 52.522 26.7577 43.1968C22.3449 32.4528 23.9724 22.7524 31.6406 14.0952C36.7204 9.17822 42.8077 6.63916 49.9023 6.47803Z" fill="#4B7DBE"/>
<path fill-rule="evenodd" clip-rule="evenodd" d="M49.9023 6.47803C60.5828 7.04197 68.3627 12.055 73.2422 21.5171C77.1164 31.1843 75.9445 40.1687 69.7266 48.4702C64.5109 54.5118 57.9029 57.5718 49.9023 57.6499C49.9023 51.5952 49.9023 45.5405 49.9023 39.4858C54.1951 35.3233 58.427 31.0915 62.5977 26.7905C61.2955 25.3583 59.9283 23.9911 58.4961 22.689C55.6275 25.4927 52.7629 28.2921 49.9023 31.0874C49.9023 22.8843 49.9023 14.6812 49.9023 6.47803Z" fill="#363F92"/>
<path fill-rule="evenodd" clip-rule="evenodd" d="M49.9023 39.4858C49.9023 36.7515 49.9023 34.0171 49.9023 31.2827C49.9023 31.2177 49.9023 31.1524 49.9023 31.0874C52.7629 28.2921 55.6275 25.4927 58.4961 22.689C59.9283 23.9911 61.2955 25.3583 62.5977 26.7905C58.427 31.0915 54.1951 35.3233 49.9023 39.4858Z" fill="#C2C1EF"/>
<path fill-rule="evenodd" clip-rule="evenodd" d="M49.9023 31.2827C49.9023 34.0171 49.9023 36.7515 49.9023 39.4858C49.1605 40.1296 48.4445 40.8132 47.7539 41.5366C47.6236 41.6669 47.4936 41.6669 47.3633 41.5366C43.9426 38.1485 40.5572 34.7306 37.207 31.2827C38.5092 29.8505 39.8764 28.4833 41.3086 27.1812C43.4543 29.2292 45.5701 31.3124 47.6562 33.4312C48.3793 32.6753 49.1281 31.9591 49.9023 31.2827Z" fill="#C2C1EF"/>
<path opacity="0.988" fill-rule="evenodd" clip-rule="evenodd" d="M-0.0976562 78.1577C-0.0976562 77.8973 -0.0976562 77.6368 -0.0976562 77.3764C0.416393 75.9002 0.937227 74.403 1.46484 72.8842C3.98789 72.3795 6.52695 71.9565 9.08203 71.6147C10.2463 69.3838 11.3856 67.1377 12.5 64.8764C14.4088 64.619 16.3293 64.619 18.2617 64.8764C19.3966 67.1135 20.5033 69.3596 21.582 71.6147C24.1242 71.9872 26.6633 72.3778 29.1992 72.7866C29.7693 74.5122 30.3553 76.2374 30.957 77.9624C29.1422 79.6795 27.3518 81.4374 25.5859 83.2358C25.7646 85.7594 26.1227 88.2659 26.6602 90.7553C25.368 92.1426 23.8707 93.2819 22.168 94.1733C19.8828 93.0795 17.6368 91.9077 15.4297 90.6577C13.2948 91.8717 11.1138 93.011 8.88672 94.0756C8.35703 94.2198 7.90131 94.0895 7.51953 93.685C6.30426 92.7858 5.13238 91.8418 4.00391 90.853C4.43859 88.4403 4.89432 86.0313 5.37109 83.6264C3.60918 81.7342 1.78626 79.9114 -0.0976562 78.1577Z" fill="#4B7DBE"/>
<path opacity="0.987" fill-rule="evenodd" clip-rule="evenodd" d="M49.9023 64.6812C49.8383 73.4192 49.9035 82.1431 50.0977 90.853C47.7611 91.9468 45.4174 93.0536 43.0664 94.1733C41.3996 93.2868 39.9023 92.18 38.5742 90.853C38.9785 88.394 39.4342 85.9526 39.9414 83.5288C38.0779 81.6327 36.1898 79.7772 34.2773 77.9624C34.8633 76.2696 35.4492 74.5771 36.0352 72.8843C38.6082 72.4007 41.1799 71.945 43.75 71.5171C44.9342 69.2792 46.0084 67.0007 46.9727 64.6812C47.9492 64.6812 48.9258 64.6812 49.9023 64.6812Z" fill="#4B7DBE"/>
<path opacity="0.984" fill-rule="evenodd" clip-rule="evenodd" d="M99.9023 77.3764C99.9023 77.6368 99.9023 77.8973 99.9023 78.1577C98.0184 79.9114 96.1955 81.7342 94.4336 83.6264C94.9104 86.0313 95.366 88.4403 95.8008 90.853C94.5121 92.0192 93.1449 93.0934 91.6992 94.0756C91.4389 94.2059 91.1783 94.2059 90.918 94.0756C88.7625 92.9979 86.6141 91.9237 84.4727 90.853C82.1641 91.9096 79.8854 93.0165 77.6367 94.1733C75.934 93.2819 74.4367 92.1426 73.1445 90.7553C73.682 88.2659 74.04 85.7594 74.2188 83.2358C72.4529 81.4374 70.6625 79.6795 68.8477 77.9624C69.4494 76.2374 70.0354 74.5122 70.6055 72.7866C73.1414 72.3778 75.6805 71.9872 78.2227 71.6147C79.3014 69.3596 80.4082 67.1135 81.543 64.8764C83.4754 64.619 85.3959 64.619 87.3047 64.8764C88.4191 67.1377 89.5584 69.3838 90.7227 71.6147C93.2795 71.9567 95.8186 72.3797 98.3398 72.8842C98.8674 74.403 99.3883 75.9002 99.9023 77.3764Z" fill="#4B7DBE"/>
<path fill-rule="evenodd" clip-rule="evenodd" d="M49.9027 64.6812C50.8879 64.6173 51.8644 64.6824 52.8324 64.8765C53.8611 67.1617 54.9678 69.4078 56.1527 71.6148C58.7096 71.9568 61.2486 72.3798 63.7699 72.8843C64.3558 74.5771 64.9418 76.2697 65.5277 77.9625C63.6152 79.7773 61.7271 81.6328 59.8637 83.5289C60.4797 86.0843 60.8703 88.656 61.0355 91.2437C59.6633 92.3195 58.231 93.296 56.7387 94.1734C54.5264 93.0687 52.3127 91.9619 50.098 90.8531C49.9039 82.1431 49.8387 73.4193 49.9027 64.6812Z" fill="#4B7DBE"/>
</g>
<defs>
<clipPath id="clip0_2588_3767">
<rect width="100" height="100" fill="white" transform="translate(0 0.520996)"/>
</clipPath>
</defs>
</svg>
