<svg width="100" height="100" viewBox="0 0 100 100" fill="none" xmlns="http://www.w3.org/2000/svg">
<path d="M0.0907127 49.123C0.0696413 49.709 0 50.2844 0 50.8774C7.14286e-07 78.0911 22.2994 99.9995 49.9986 99.9995C77.6978 99.9995 99.9972 78.0911 99.9972 50.8774C99.9972 50.285 99.9275 49.7103 99.9065 49.123C98.9637 75.5122 77.0929 96.4908 49.9972 96.4908C22.9008 96.4908 1.03072 75.5122 0.0878875 49.123H0.0907127Z" fill="#796F3B"/>
<path d="M99.9972 49.1221C99.9972 21.9085 77.6978 0 49.9986 0C22.2994 0 0 21.9085 0 49.1221C0 76.3358 22.2994 98.2442 49.9986 98.2442C77.6978 98.2442 99.9972 76.3358 99.9972 49.1221Z" fill="#C1B262"/>
<g opacity="0.2">
<g opacity="0.2">
<g opacity="0.2">
<path opacity="0.2" d="M68.0426 38.2242C66.5767 38.562 65.2017 39.2488 63.9949 40.1C62.0153 42.7471 59.2721 44.8829 55.622 45.7253C54.2379 44.7362 52.5492 43.5894 51.397 42.287C46.1151 42.8782 38.8445 44.0228 37.5922 48.9991C36.2876 54.1643 39.7491 60.9097 42.565 61.3009C45.2378 61.6654 53.8311 59.3295 57.9857 58.236C54.5061 55.5801 50.5015 54.4155 48.3174 54.2777C45.7423 54.0776 43.5241 54.5288 41.215 55.1111C44.5878 52.9841 47.6424 51.395 50.6606 50.8038C52.9242 50.386 56.4402 50.3704 60.6653 51.9151C65.904 53.8331 67.154 56.5691 70.8313 57.8004C73.2632 57.427 72.0291 54.7888 71.5245 52.9552C71.1881 51.9573 70.92 51.2016 70.8131 50.8705C70.6268 50.3148 67.9995 43.7428 67.6176 42.0492C67.3608 40.8935 67.5813 39.3932 68.0449 38.2197" fill="black"/>
<path opacity="0.2" d="M55.3588 27.8821C51.6928 29.3934 51.5678 32.2494 51.3633 35.3476C52.8997 33.9852 57.7293 32.985 59.0338 31.8826C62.8862 28.6177 64.3794 21.8723 63.5703 22.8702C60.9521 26.1085 56.7065 27.1508 55.3588 27.8798" fill="black"/>
<path opacity="0.2" d="M35.17 73.2074C35.17 73.2074 31.5291 70.8448 31.6018 70.0914C33.9905 57.4251 25.7517 66.4353 25.129 72.105C24.4722 77.5481 26.5222 83.8245 26.8245 84.2068C27.3131 79.7617 27.7472 77.2969 35.17 73.1985V73.2074Z" fill="black"/>
<path opacity="0.2" d="M74.969 45.2983C74.7826 40.5843 71.7553 37.3282 69.6962 38.0928C68.8166 38.4151 68.2393 40.6109 68.5416 41.9734C69.553 46.8185 73.7167 52.4171 72.6871 57.209C71.9144 59.5004 65.0779 60.9251 65.0779 60.9251C65.0779 60.9251 64.9438 62.8876 64.687 64.2233C64.3757 65.8458 63.7461 67.1326 63.7461 67.1326C63.7461 67.1326 65.3711 68.5573 65.4325 68.5573C65.5029 68.5573 75.6599 63.401 74.9667 45.2983" fill="black"/>
<path opacity="0.2" d="M70.4495 58.2777C68.7632 57.6087 68.1768 57.322 65.9745 55.7262C53.8039 46.836 42.5991 54.5372 42.8196 54.4594C44.8355 53.8349 47.1174 53.2703 50.072 53.4526C52.4607 53.6082 55.638 55.0839 59.563 58.2711C62.1994 60.5381 66.1949 60.8226 70.4382 58.28L70.4495 58.2777Z" fill="black"/>
<path opacity="0.2" d="M59.0258 32.874C54.5258 34.2898 52.0917 35.5055 51.3644 36.0701C49.8734 39.7862 52.8826 42.5821 55.6258 44.5446C59.2304 43.7112 62.2304 41.0975 63.5714 38.2237C62.8691 38.3193 62.1236 38.1881 61.2986 37.737C59.6918 36.8524 58.7145 34.7254 59.0258 32.874Z" fill="black"/>
<path opacity="0.2" d="M65.5764 32.1709C65.2832 31.0419 64.3422 29.5928 64.0854 29.5928C63.8536 29.5928 61.3513 31.4153 60.7036 32.042C59.2376 33.4756 59.949 36.0871 61.574 36.9739C64.3263 38.4852 66.3582 35.1669 65.5786 32.1732" fill="black"/>
<path opacity="0.2" d="M63.4357 28.3505C64.5357 27.317 66.0016 25.6235 66.3834 23.0453C66.6062 20.7361 66.0289 19.3114 65.3175 17.54C64.9721 20.9961 64.4561 24.8411 62.0493 28.9217C61.2947 30.2064 61.7038 29.973 63.4334 28.3483" fill="black"/>
<path opacity="0.2" d="M32.5595 64.1377C32.9413 65.0756 32.914 66.8559 32.3458 69.903C32.3367 69.9297 32.3458 69.9474 32.3458 69.9719C32.7458 70.5186 33.5709 71.1787 34.3959 71.7788C37.2368 70.4853 40.805 68.0627 40.5755 68.0272C39.0573 67.776 34.3618 66.6558 32.5595 64.1377Z" fill="black"/>
<path opacity="0.2" d="M58.5278 58.7109C58.4028 58.7109 58.3051 58.7109 58.0301 58.7798C54.4959 59.7444 45.4685 62.0003 44.0571 63.5028C43.5071 64.6496 42.9662 69.2236 35.0365 72.124C34.8138 72.2018 41.6957 76.5514 42.0685 76.5691C64.5301 77.4893 64.5029 61.7314 64.2097 61.0113C62.0256 61.0468 60.171 60.3001 58.7414 58.9265C58.671 58.8576 58.6073 58.7865 58.5278 58.7176" fill="black"/>
</g>
</g>
</g>
<path d="M50 0C22.3008 0 0 21.9064 0 49.1201C0 49.3191 0.0201445 49.5133 0.0313895 49.7095C0.660935 23.0417 22.6997 1.75441 50 1.75441C77.3003 1.75441 99.3391 23.0417 99.9686 49.7095C99.9798 49.5133 100 49.3191 100 49.1201C100 21.9064 77.6992 0 50 0Z" fill="#F0ECC3"/>
<path d="M68.0426 36.4703C66.5767 36.8081 65.2017 37.4949 63.9949 38.3461C62.0153 40.9932 59.2721 43.129 55.622 43.9714C54.2379 42.9823 52.5492 41.8355 51.397 40.5331C46.1151 41.1243 38.8445 42.2689 37.5922 47.2452C36.2876 52.4104 39.7491 59.1558 42.565 59.547C45.2378 59.9115 53.8311 57.5756 57.9857 56.4821C54.5061 53.8262 50.5015 52.6615 48.3174 52.5238C45.7423 52.3237 43.5241 52.7749 41.215 53.3572C44.5878 51.2302 47.6424 49.6411 50.6606 49.0499C52.9242 48.6321 56.4402 48.6165 60.6653 50.1612C65.904 52.0792 67.154 54.8152 70.8313 56.0465C73.2632 55.6731 72.0291 53.0349 71.5245 51.2013C71.1881 50.2034 70.92 49.4477 70.8131 49.1166C70.6268 48.5609 67.9995 41.9889 67.6176 40.2953C67.3608 39.1396 67.5813 37.6393 68.0449 36.4658" fill="#F0ECC3"/>
<path d="M55.3588 26.1281C51.6928 27.6395 51.5678 30.4955 51.3633 33.5937C52.8997 32.2313 57.7293 31.2311 59.0338 30.1287C62.8862 26.8638 64.3794 20.1184 63.5703 21.1163C60.9521 24.3545 56.7065 25.3969 55.3588 26.1259" fill="#F0ECC3"/>
<path d="M35.17 71.4535C35.17 71.4535 31.5291 69.0909 31.6018 68.3375C33.9905 55.6712 25.7517 64.6814 25.129 70.3511C24.4722 75.7941 26.5222 82.0706 26.8245 82.4529C27.3131 78.0078 27.7472 75.543 35.17 71.4446V71.4535Z" fill="#F0ECC3"/>
<path d="M74.969 43.5444C74.7826 38.8304 71.7553 35.5743 69.6962 36.3389C68.8166 36.6612 68.2393 38.857 68.5416 40.2195C69.553 45.0646 73.7167 50.6632 72.6871 55.455C71.9144 57.7465 65.0779 59.1712 65.0779 59.1712C65.0779 59.1712 64.9438 61.1337 64.687 62.4694C64.3757 64.0919 63.7461 65.3787 63.7461 65.3787C63.7461 65.3787 65.3711 66.8034 65.4325 66.8034C65.5029 66.8034 75.6599 61.6471 74.9667 43.5444" fill="#F0ECC3"/>
<path d="M70.4495 56.5238C68.7632 55.8548 68.1768 55.5681 65.9745 53.9723C53.8039 45.0821 42.5991 52.7833 42.8196 52.7055C44.8355 52.0809 47.1174 51.5164 50.072 51.6987C52.4607 51.8542 55.638 53.33 59.563 56.5172C62.1994 58.7842 66.1949 59.0686 70.4382 56.5261L70.4495 56.5238Z" fill="#F0ECC3"/>
<path d="M59.0258 31.1201C54.5258 32.5359 52.0917 33.7516 51.3644 34.3161C49.8734 38.0322 52.8826 40.8282 55.6258 42.7907C59.2304 41.9573 62.2304 39.3436 63.5714 36.4698C62.8691 36.5654 62.1236 36.4342 61.2986 35.9831C59.6918 35.0985 58.7145 32.9715 59.0258 31.1201Z" fill="#F0ECC3"/>
<path d="M65.5764 30.417C65.2832 29.288 64.3422 27.8389 64.0854 27.8389C63.8536 27.8389 61.3513 29.6614 60.7036 30.2881C59.2376 31.7217 59.949 34.3332 61.574 35.22C64.3263 36.7313 66.3582 33.413 65.5786 30.4192" fill="#F0ECC3"/>
<path d="M63.4357 26.5966C64.5357 25.5631 66.0016 23.8695 66.3834 21.2914C66.6062 18.9822 66.0289 17.5575 65.3175 15.7861C64.9721 19.2422 64.4561 23.0872 62.0493 27.1678C61.2947 28.4524 61.7038 28.2191 63.4334 26.5944" fill="#F0ECC3"/>
<path d="M32.5595 62.3848C32.9413 63.3227 32.914 65.1029 32.3458 68.1501C32.3367 68.1767 32.3458 68.1945 32.3458 68.219C32.7458 68.7657 33.5709 69.4258 34.3959 70.0259C37.2368 68.7324 40.805 66.3098 40.5755 66.2742C39.0573 66.0231 34.3618 64.9029 32.5595 62.3848Z" fill="#F0ECC3"/>
<path d="M58.5278 56.957C58.4028 56.957 58.3051 56.957 58.0301 57.0259C54.4959 57.9905 45.4685 60.2464 44.0571 61.7489C43.5071 62.8957 42.9662 67.4697 35.0365 70.3701C34.8138 70.4479 41.6957 74.7974 42.0685 74.8152C64.5301 75.7354 64.5029 59.9775 64.2097 59.2574C62.0256 59.2929 60.171 58.5462 58.7414 57.1726C58.671 57.1037 58.6073 57.0326 58.5278 56.9637" fill="#F0ECC3"/>
</svg>
