<svg width="100" height="101" viewBox="0 0 100 101" fill="none" xmlns="http://www.w3.org/2000/svg">
<g clip-path="url(#clip0_2588_4914)">
<path opacity="0.999" fill-rule="evenodd" clip-rule="evenodd" d="M4.39453 0.692627C34.733 0.692627 65.0717 0.692627 95.4102 0.692627C97.6236 1.20357 99.1211 2.18288 99.9023 3.63054C99.9023 7.16456 99.9023 10.6986 99.9023 14.2326C66.5689 14.2326 33.2357 14.2326 -0.0976562 14.2326C-0.0976562 10.6986 -0.0976562 7.16456 -0.0976562 3.63054C0.683594 2.18288 2.181 1.20357 4.39453 0.692627Z" fill="#9A8E4E"/>
<path fill-rule="evenodd" clip-rule="evenodd" d="M34.4727 7.50635C36.7514 7.50635 39.0299 7.50635 41.3086 7.50635C41.3086 9.77753 41.3086 12.0487 41.3086 14.3199C41.3086 12.0487 41.3086 9.77753 41.3086 7.50635C39.0299 7.50635 36.7514 7.50635 34.4727 7.50635Z" fill="#9A8E4E"/>
<path opacity="0.999" fill-rule="evenodd" clip-rule="evenodd" d="M-0.0976562 14.2327C33.2357 14.2327 66.5689 14.2327 99.9023 14.2327C99.9023 39.0859 99.9023 63.9389 99.9023 88.7921C99.1211 90.9983 97.6236 92.4909 95.4102 93.2696C65.0717 93.2696 34.733 93.2696 4.39453 93.2696C2.181 92.4909 0.683594 90.9983 -0.0976562 88.7921C-0.0976562 63.9389 -0.0976562 39.0859 -0.0976562 14.2327Z" fill="#F0ECC3"/>
<path fill-rule="evenodd" clip-rule="evenodd" d="M6.73828 21.0461C35.5143 21.0461 64.2904 21.0461 93.0664 21.0461C93.0664 42.8494 93.0664 64.6527 93.0664 86.456C64.2904 86.456 35.5143 86.456 6.73828 86.456C6.73828 64.6527 6.73828 42.8494 6.73828 21.0461Z" fill="#C1B262"/>
<path fill-rule="evenodd" clip-rule="evenodd" d="M6.93359 21.241C35.5795 21.241 64.2252 21.241 92.8711 21.241C92.8711 42.9144 92.8711 64.588 92.8711 86.2615C64.2252 86.2615 35.5795 86.2615 6.93359 86.2615C6.93359 64.588 6.93359 42.9144 6.93359 21.241Z" fill="#C1B262"/>
<path fill-rule="evenodd" clip-rule="evenodd" d="M85.6441 70.8822C86.5001 70.8526 87.1837 71.1772 87.6949 71.8556C87.8251 74.6458 87.8251 77.4363 87.6949 80.2265C87.4669 80.5833 87.174 80.8754 86.816 81.1025C84.0166 81.2324 81.2169 81.2324 78.4175 81.1025C77.1447 80.056 77.1447 79.0176 78.4175 77.9878C80.4347 77.8904 82.4529 77.8581 84.4722 77.8904C84.4398 75.8777 84.4722 73.8662 84.5699 71.8556C84.9078 71.4853 85.2658 71.1608 85.6441 70.8822Z" fill="#9A8E4E"/>
<path fill-rule="evenodd" clip-rule="evenodd" d="M29.2002 50.8311C35.6306 53.7761 42.0107 56.826 48.3408 59.9806C48.1144 61.9581 48.082 63.9699 48.2431 66.0155C48.7896 67.4206 49.7336 67.7451 51.0752 66.9888C51.3302 66.714 51.4931 66.3894 51.5634 66.0155C51.7246 63.9699 51.6922 61.9581 51.4658 59.9806C57.7798 56.8344 64.1599 53.7844 70.6064 50.8311C70.6714 55.8293 70.6064 60.8259 70.4111 65.8208C63.5982 69.2486 56.7623 72.6228 49.9033 75.9438C43.0443 72.6228 36.2084 69.2486 29.3955 65.8208C29.2002 60.8259 29.1351 55.8293 29.2002 50.8311Z" fill="#796F3B"/>
<path fill-rule="evenodd" clip-rule="evenodd" d="M48.3408 59.9807C48.8586 60.1734 49.3793 60.3681 49.9033 60.5647C50.4273 60.3681 50.948 60.1734 51.4658 59.9807C51.6922 61.9582 51.7246 63.9699 51.5635 66.0155C51.4932 66.3895 51.3303 66.714 51.0752 66.9889C49.7336 67.7452 48.7896 67.4207 48.2432 66.0155C48.082 63.9699 48.1144 61.9582 48.3408 59.9807Z" fill="#9A8E4E"/>
<path fill-rule="evenodd" clip-rule="evenodd" d="M75.4883 48.6895C75.4883 48.6247 75.4883 48.5597 75.4883 48.4949C76.2045 48.4949 76.9205 48.4949 77.6367 48.4949C77.7014 52.941 77.6361 57.3536 77.4414 61.7326C77.4414 57.385 77.4414 53.0372 77.4414 48.6895C76.7904 48.6895 76.1393 48.6895 75.4883 48.6895Z" fill="#F0ECC3"/>
<path fill-rule="evenodd" clip-rule="evenodd" d="M74.707 44.7961C74.8811 44.9149 75.0764 44.9797 75.293 44.9908C67.4154 45.2503 59.5377 45.2503 51.6602 44.9908C59.3758 45.0554 67.058 44.9906 74.707 44.7961Z" fill="#9A8E4E"/>
<path fill-rule="evenodd" clip-rule="evenodd" d="M51.6602 44.9908C59.5377 45.2503 67.4155 45.2503 75.293 44.9908C76.8403 45.1469 78.4028 45.2443 79.9805 45.2828C80.3385 45.51 80.6315 45.802 80.8594 46.1589C80.9244 51.415 80.9897 56.6711 81.0547 61.9273C81.9178 63.3235 82.8291 64.6862 83.7891 66.0154C84.8172 68.0914 84.1987 69.0973 81.9336 69.0328C81.6541 68.9423 81.4264 68.7799 81.25 68.5461C80.6602 67.4974 79.9766 66.5241 79.1993 65.6261C78.3965 66.6722 77.6153 67.7429 76.8555 68.8381C74.8879 69.5298 74.009 68.8485 74.2188 66.7941C75.3459 65.1289 76.4202 63.4416 77.4414 61.7326C77.6362 57.3537 77.7014 52.941 77.6368 48.4949C76.9205 48.4949 76.2045 48.4949 75.4883 48.4949C67.5123 48.4303 59.5698 48.4951 51.6602 48.6896C51.7319 49.5592 51.6342 50.4027 51.3672 51.2203C50.1438 52.3794 49.1022 52.2496 48.2422 50.831C48.112 48.1704 48.112 45.51 48.2422 42.8494C49.3491 41.2921 50.4557 41.2921 51.5625 42.8494C51.66 43.5604 51.6924 44.274 51.6602 44.9908Z" fill="#F0ECC3"/>
<path fill-rule="evenodd" clip-rule="evenodd" d="M51.6602 48.6896C59.5697 48.4951 67.5123 48.4303 75.4883 48.4949C75.4883 48.5597 75.4883 48.6247 75.4883 48.6896C75.2717 48.7007 75.0764 48.7655 74.9023 48.8842C67.1883 48.6898 59.4408 48.6249 51.6602 48.6896Z" fill="#9A8E4E"/>
<path fill-rule="evenodd" clip-rule="evenodd" d="M74.707 44.7963C67.058 44.9908 59.3757 45.0556 51.6601 44.991C51.6923 44.2742 51.6599 43.5605 51.5625 42.8496C50.4556 41.2922 49.349 41.2922 48.2421 42.8496C48.1119 45.5102 48.1119 48.1705 48.2421 50.8311C49.1021 52.2497 50.1437 52.3796 51.3671 51.2205C51.6341 50.4029 51.7318 49.5593 51.6601 48.6897C59.4408 48.6251 67.1882 48.6899 74.9023 48.8844C73.4709 49.5329 72.0386 50.1817 70.6054 50.8311C64.1589 53.7845 57.7789 56.8344 51.4648 59.9807C50.947 60.1734 50.4263 60.3681 49.9023 60.5647C49.3783 60.3681 48.8576 60.1734 48.3398 59.9807C42.0097 56.8261 35.6296 53.7761 29.1992 50.8311C26.4457 49.6212 23.7113 48.3559 20.996 47.035C20.7357 46.9052 20.7357 46.7755 20.996 46.6457C30.655 42.1891 40.2904 37.6791 49.9023 33.116C58.1763 37.0106 66.4445 40.904 74.707 44.7963Z" fill="#9A8E4E"/>
<path fill-rule="evenodd" clip-rule="evenodd" d="M12.9877 26.3025C15.7229 26.27 18.4572 26.3025 21.1908 26.3998C22.6856 27.3307 22.7506 28.3691 21.3862 29.5146C19.369 29.6119 17.3507 29.6442 15.3315 29.6119C15.364 31.6246 15.3314 33.6362 15.2338 35.6467C14.3128 36.5997 13.3362 36.6645 12.3041 35.8414C11.9885 32.9996 11.9234 30.1443 12.1088 27.2758C12.3755 26.9134 12.6685 26.589 12.9877 26.3025Z" fill="#9A8E4E"/>
</g>
<defs>
<clipPath id="clip0_2588_4914">
<rect width="100" height="99.6721" fill="white" transform="translate(0 0.790039)"/>
</clipPath>
</defs>
</svg>
