<svg width="100" height="102" viewBox="0 0 100 102" fill="none" xmlns="http://www.w3.org/2000/svg">
<g clip-path="url(#clip0_2588_4305)">
<path fill-rule="evenodd" clip-rule="evenodd" d="M46.5825 0.663818C48.0147 0.663818 49.4471 0.663818 50.8793 0.663818C50.1022 1.01938 49.5489 1.60714 49.2192 2.42711C49.1215 3.92774 49.0891 5.42981 49.1215 6.93329C47.7543 6.93329 46.3871 6.93329 45.02 6.93329C44.9875 5.36457 45.02 3.7972 45.1176 2.23119C45.4477 1.54137 45.936 1.01891 46.5825 0.663818Z" fill="#6D8C44"/>
<path opacity="0.983" fill-rule="evenodd" clip-rule="evenodd" d="M50.8793 0.663818C51.6606 0.663818 52.4418 0.663818 53.2231 0.663818C53.8696 1.01891 54.3578 1.54137 54.6879 2.23119C54.7856 3.7972 54.818 5.36457 54.7856 6.93329C52.8975 6.93329 51.0096 6.93329 49.1215 6.93329C49.0891 5.42981 49.1215 3.92774 49.2192 2.42711C49.5489 1.60714 50.1022 1.01938 50.8793 0.663818Z" fill="#DFEDD4"/>
<path opacity="0.989" fill-rule="evenodd" clip-rule="evenodd" d="M45.0201 6.93314C46.3873 6.93314 47.7545 6.93314 49.1217 6.93314C51.0098 6.93314 52.8977 6.93314 54.7858 6.93314C58.302 6.90049 61.8176 6.93315 65.3326 7.0311C66.7473 7.72017 67.3332 8.86306 67.0904 10.4597C66.8291 11.532 66.1781 12.283 65.1373 12.7128C54.9811 12.8434 44.8248 12.8434 34.6686 12.7128C33.6278 12.283 32.9768 11.532 32.7155 10.4597C32.4727 8.86306 33.0586 7.72017 34.4733 7.0311C37.9883 6.93315 41.5039 6.90049 45.0201 6.93314Z" fill="#DFEDD4"/>
<path fill-rule="evenodd" clip-rule="evenodd" d="M32.7141 10.4597C32.9754 11.532 33.6264 12.283 34.6672 12.7128C44.8235 12.8434 54.9797 12.8434 65.136 12.7128C66.1768 12.283 66.8278 11.532 67.0891 10.4597C67.0891 10.9169 67.0891 11.374 67.0891 11.8312C67.1485 13.0218 67.0508 14.1973 66.7961 15.3577C66.1557 16.4233 65.2116 16.9457 63.9641 16.9251C62.9225 16.9251 61.8807 16.9251 60.8391 16.9251C53.5475 16.9251 46.2557 16.9251 38.9641 16.9251C37.9225 16.9251 36.8807 16.9251 35.8391 16.9251C34.5916 16.9457 33.6475 16.4233 33.0071 15.3577C32.7524 14.1973 32.6547 13.0218 32.7141 11.8312C32.7141 11.374 32.7141 10.9169 32.7141 10.4597Z" fill="#DFEDD4"/>
<path opacity="0.996" fill-rule="evenodd" clip-rule="evenodd" d="M22.168 11.8313C25.6836 11.8313 29.1992 11.8313 32.7148 11.8313C32.6555 13.022 32.7531 14.1975 33.0078 15.3579C33.6482 16.4234 34.5924 16.9459 35.8398 16.9253C35.8398 18.7539 35.8398 20.5825 35.8398 22.4111C30.6963 22.3783 25.5529 22.4111 20.4102 22.509C20.1822 22.7377 19.9545 22.9661 19.7266 23.1947C19.5963 46.7705 19.5963 70.3464 19.7266 93.9222C19.8893 94.2161 20.1172 94.4447 20.4102 94.6079C21.7758 94.7059 23.143 94.7384 24.5117 94.7059C42.8061 94.7386 61.1004 94.7059 79.3945 94.6079C79.6225 94.3793 79.8502 94.1508 80.0781 93.9222C80.2084 70.3464 80.2084 46.7705 80.0781 23.1947C79.8205 22.8055 79.4625 22.5768 79.0039 22.509C73.9912 22.4111 68.9783 22.3783 63.9649 22.4111C63.9649 20.5825 63.9649 18.7539 63.9649 16.9253C65.2123 16.9459 66.1565 16.4234 66.7969 15.3579C67.0516 14.1975 67.1492 13.022 67.0899 11.8313C72.1033 11.7987 77.1162 11.8313 82.1289 11.9293C84.335 12.4439 85.7998 13.7827 86.5234 15.9457C86.6537 42.9175 86.6537 69.8892 86.5234 96.861C85.9344 98.9864 84.5998 100.358 82.5195 100.975C62.142 100.975 41.7643 100.975 21.3867 100.975C19.3539 100.209 18.0192 98.7724 17.3828 96.6651C17.2526 69.7587 17.2526 42.8521 17.3828 15.9457C18.2308 13.6787 19.8258 12.3072 22.168 11.8313Z" fill="#6D8C44"/>
<path fill-rule="evenodd" clip-rule="evenodd" d="M22.168 11.8313C19.8258 12.3072 18.2308 13.6787 17.3828 15.9456C17.2526 42.8521 17.2526 69.7587 17.3828 96.6651C18.0192 98.7724 19.3539 100.209 21.3867 100.975C20.0195 100.975 18.6524 100.975 17.2852 100.975C15.205 100.358 13.8703 98.9863 13.2813 96.861C13.151 69.8891 13.151 42.9175 13.2813 15.9456C14.0049 13.7827 15.4697 12.4439 17.6758 11.9293C19.1718 11.8314 20.6691 11.7987 22.168 11.8313Z" fill="#6D8C44"/>
<path fill-rule="evenodd" clip-rule="evenodd" d="M35.8403 16.9253C36.8819 16.9253 37.9237 16.9253 38.9653 16.9253C38.9653 18.7539 38.9653 20.5826 38.9653 22.4111C38.9041 23.8325 38.9692 25.2365 39.1606 26.6234C46.3221 26.7541 53.4835 26.7541 60.645 26.6234C60.8364 25.2365 60.9014 23.8325 60.8403 22.4111C60.8403 20.5826 60.8403 18.7539 60.8403 16.9253C61.8819 16.9253 62.9237 16.9253 63.9653 16.9253C63.9653 18.7539 63.9653 20.5826 63.9653 22.4111C63.9977 23.9798 63.9653 25.5472 63.8676 27.1132C63.5378 28.0977 62.9192 28.8489 62.0122 29.3663C57.9526 29.5904 53.8836 29.6884 49.8051 29.6602C45.9965 29.6274 42.1879 29.5949 38.3793 29.5622C37.1748 29.1376 36.3612 28.3214 35.9379 27.1132C35.8403 25.6126 35.8079 24.1105 35.8403 22.607C35.8403 22.5418 35.8403 22.4763 35.8403 22.4111C35.8403 20.5826 35.8403 18.7539 35.8403 16.9253Z" fill="#88B367"/>
<path fill-rule="evenodd" clip-rule="evenodd" d="M38.9648 16.9253C46.2564 16.9253 53.5482 16.9253 60.8398 16.9253C60.8398 18.7539 60.8398 20.5825 60.8398 22.4111C53.5482 22.4111 46.2564 22.4111 38.9648 22.4111C38.9648 20.5825 38.9648 18.7539 38.9648 16.9253Z" fill="#6D8C44"/>
<path fill-rule="evenodd" clip-rule="evenodd" d="M35.8399 22.411C35.8399 22.4762 35.8399 22.5416 35.8399 22.6069C32.0633 22.5742 28.2872 22.6069 24.5118 22.7048C24.2838 22.8028 24.1211 22.966 24.0235 23.1946C23.8932 46.8358 23.8932 70.4768 24.0235 94.118C24.2276 94.2891 24.3903 94.485 24.5118 94.7058C23.143 94.7383 21.7758 94.7058 20.4102 94.6078C20.1172 94.4446 19.8893 94.216 19.7266 93.9221C19.5963 70.3464 19.5963 46.7704 19.7266 23.1946C19.9545 22.966 20.1823 22.7376 20.4102 22.5089C25.553 22.411 30.6963 22.3782 35.8399 22.411Z" fill="#DFEDD4"/>
<path fill-rule="evenodd" clip-rule="evenodd" d="M63.9649 22.411C68.9784 22.3782 73.9912 22.411 79.0039 22.5089C79.4625 22.5767 79.8205 22.8053 80.0782 23.1946C80.2084 46.7704 80.2084 70.3464 80.0782 93.9221C79.8502 94.1508 79.6225 94.3792 79.3946 94.6078C61.1004 94.7058 42.8061 94.7385 24.5118 94.7058C24.3903 94.485 24.2276 94.2891 24.0235 94.118C23.8932 70.4768 23.8932 46.8358 24.0235 23.1946C24.1211 22.966 24.2838 22.8028 24.5118 22.7048C28.2872 22.6069 32.0633 22.5742 35.8399 22.6069C35.8075 24.1104 35.8399 25.6125 35.9375 27.1131C36.3608 28.3213 37.1745 29.1375 38.379 29.5621C42.1875 29.5948 45.9961 29.6273 49.8047 29.66C53.8832 29.6882 57.9522 29.5903 62.0118 29.3661C62.9188 28.8487 63.5373 28.0976 63.8672 27.1131C63.9649 25.5471 63.9973 23.9797 63.9649 22.411Z" fill="#DFEDD4"/>
<path fill-rule="evenodd" clip-rule="evenodd" d="M38.9656 22.4109C46.2572 22.4109 53.549 22.4109 60.8406 22.4109C60.9017 23.8323 60.8367 25.2363 60.6452 26.6232C53.4837 26.7539 46.3224 26.7539 39.1609 26.6232C38.9695 25.2363 38.9044 23.8323 38.9656 22.4109Z" fill="#DFEDD4"/>
<path fill-rule="evenodd" clip-rule="evenodd" d="M35.0576 46.9011C33.5672 45.3079 32.0373 43.7405 30.4678 42.199C29.8803 41.3143 29.6526 40.3347 29.7842 39.2602C30.9451 40.1626 32.0518 41.1422 33.1045 42.199C35.3535 39.9755 37.6323 37.7877 39.9405 35.6357C41.7233 35.3682 42.7649 36.1192 43.0655 37.8888C43.1055 38.4234 42.9428 38.8805 42.5772 39.2602C40.1672 41.9063 37.6606 44.4533 35.0576 46.9011Z" fill="#6D8C44"/>
<path fill-rule="evenodd" clip-rule="evenodd" d="M29.7844 39.2601C29.6527 40.3346 29.8804 41.3142 30.4679 42.1989C32.0375 43.7405 33.5674 45.3078 35.0578 46.9011C34.2418 47.968 33.2002 48.2619 31.9328 47.7827C30.4135 46.2586 28.8834 44.7238 27.3429 43.1786C26.122 41.0712 26.6756 39.6998 29.0031 39.0642C29.2814 39.0883 29.5418 39.1537 29.7844 39.2601Z" fill="#6D8C44"/>
<path fill-rule="evenodd" clip-rule="evenodd" d="M49.3162 40.2398C56.9988 40.2071 64.681 40.2398 72.3631 40.3378C73.5576 40.7925 73.8506 41.6089 73.242 42.7868C72.9648 42.9749 72.6719 43.1381 72.3631 43.2766C64.7459 43.4073 57.1287 43.4073 49.5115 43.2766C48.0408 42.3391 47.9758 41.3268 49.3162 40.2398Z" fill="#6D8C44"/>
<path fill-rule="evenodd" clip-rule="evenodd" d="M35.0591 64.7299C33.5142 63.082 31.9193 61.4492 30.274 59.8319C29.863 58.9655 29.7003 58.0514 29.7857 57.089C30.956 57.9695 32.0302 58.9491 33.0084 60.0278C35.1812 58.0443 37.2972 55.9871 39.356 53.8563C41.3667 52.9392 42.6037 53.5597 43.0669 55.7176C43.064 56.1357 42.9664 56.5275 42.774 56.8931C40.2988 59.6044 37.7273 62.2168 35.0591 64.7299Z" fill="#6D8C44"/>
<path fill-rule="evenodd" clip-rule="evenodd" d="M29.785 57.0889C29.6997 58.0513 29.8624 58.9655 30.2733 59.8318C31.9186 61.4491 33.5135 63.082 35.0584 64.7298C33.9844 66.0733 32.7475 66.2365 31.3475 65.2196C30.0842 63.7561 28.7495 62.3521 27.3436 61.0073C26.168 59.1545 26.5913 57.8158 28.6131 56.991C29.0126 56.895 29.4032 56.9277 29.785 57.0889Z" fill="#6D8C44"/>
<path fill-rule="evenodd" clip-rule="evenodd" d="M49.3161 58.6563C57.1288 58.6236 64.9413 58.6563 72.7536 58.7543C73.7952 59.6686 73.7952 60.5828 72.7536 61.4972C64.9411 61.6278 57.1286 61.6278 49.3161 61.4972C48.0274 60.5428 48.0274 59.5958 49.3161 58.6563Z" fill="#6D8C44"/>
<path fill-rule="evenodd" clip-rule="evenodd" d="M35.0585 82.7545C33.5902 80.9861 31.9951 79.2881 30.2734 77.6606C29.8421 76.8017 29.6794 75.8873 29.7851 74.9177C31.0162 75.8258 32.1228 76.8708 33.1054 78.0524C35.2191 75.769 37.4326 73.5811 39.746 71.4891C41.5923 70.9781 42.699 71.6638 43.0664 73.5462C43.0562 74.2196 42.8283 74.8074 42.3828 75.3095C39.8966 77.7707 37.4552 80.2522 35.0585 82.7545Z" fill="#6D8C44"/>
<path fill-rule="evenodd" clip-rule="evenodd" d="M29.7852 74.9178C29.6795 75.8874 29.8422 76.8018 30.2735 77.6607C31.9952 79.2882 33.5903 80.9863 35.0587 82.7547C34.2907 83.6604 33.3141 83.9543 32.129 83.6363C30.3385 82.1017 28.6784 80.4363 27.1485 78.6403C26.2001 76.1029 27.079 74.8622 29.7852 74.9178Z" fill="#6D8C44"/>
<path fill-rule="evenodd" clip-rule="evenodd" d="M49.3167 77.0728C57.1293 77.0401 64.9418 77.0728 72.7542 77.1708C73.7958 78.0851 73.7958 78.9993 72.7542 79.9137C64.9417 80.0443 57.1292 80.0443 49.3167 79.9137C48.0247 78.9505 48.0247 78.0036 49.3167 77.0728Z" fill="#6D8C44"/>
</g>
<defs>
<clipPath id="clip0_2588_4305">
<rect width="100" height="100.312" fill="white" transform="translate(0 0.761719)"/>
</clipPath>
</defs>
</svg>
