<svg width="100" height="101" viewBox="0 0 100 101" fill="none" xmlns="http://www.w3.org/2000/svg">
<path fill-rule="evenodd" clip-rule="evenodd" d="M95.2153 18.9742C65.0069 18.9742 34.7987 18.9742 4.59032 18.9742C4.55778 15.5127 4.59034 12.0519 4.68798 8.59164C5.0362 7.48341 5.78489 6.79777 6.93407 6.53472C35.58 6.40412 64.2257 6.40412 92.8716 6.53472C94.0208 6.79777 94.7694 7.48341 95.1177 8.59164C95.2153 12.0519 95.248 15.5127 95.2153 18.9742Z" fill="#363F92"/>
<path opacity="0.998" fill-rule="evenodd" clip-rule="evenodd" d="M4.58974 18.9741C34.7981 18.9741 65.0063 18.9741 95.2147 18.9741C95.2474 43.3961 95.2147 67.818 95.1171 92.2397C94.7399 93.3364 93.9913 94.022 92.871 94.2966C64.2251 94.4273 35.5794 94.4273 6.93349 94.2966C6.08632 94.0343 5.40273 93.5446 4.88271 92.8274C4.59079 68.2207 4.49314 43.6029 4.58974 18.9741Z" fill="#C2C1EF"/>
<path fill-rule="evenodd" clip-rule="evenodd" d="M66.504 27.0059C73.0797 26.9732 79.6553 27.0059 86.2305 27.1039C87.3923 27.5805 87.6852 28.3968 87.1094 29.5526C86.8807 29.8255 86.5878 29.9888 86.2305 30.0423C79.6549 30.173 73.0796 30.173 66.504 30.0423C65.5206 29.4521 65.2926 28.6358 65.8204 27.5936C66.044 27.3711 66.2719 27.1752 66.504 27.0059Z" fill="#4B7DBE"/>
<path fill-rule="evenodd" clip-rule="evenodd" d="M60.254 27.006C61.8474 26.8734 62.531 27.5917 62.3048 29.1608C61.87 30.0152 61.1864 30.309 60.254 30.0424C59.4023 29.6063 59.1093 28.9207 59.3751 27.9855C59.5753 27.557 59.8683 27.2305 60.254 27.006Z" fill="#4B7DBE"/>
<path fill-rule="evenodd" clip-rule="evenodd" d="M48.3398 59.9168C45.2617 55.7661 42.1367 51.6523 38.9648 47.5753C37.0682 49.8377 35.2779 52.1885 33.5938 54.6276C33.4344 54.8867 33.2064 55.0172 32.9102 55.0194C30.8592 51.4262 28.7107 47.9001 26.4648 44.4409C23.2914 49.5654 20.1664 54.724 17.0898 59.9168C16.0482 59.9168 15.0065 59.9168 13.9648 59.9168C13.9648 49.469 13.9648 39.021 13.9648 28.5732C26.4648 28.5732 38.9648 28.5732 51.4648 28.5732C51.4648 39.021 51.4648 49.469 51.4648 59.9168C50.4232 59.9168 49.3814 59.9168 48.3398 59.9168Z" fill="#4B7DBE"/>
<path fill-rule="evenodd" clip-rule="evenodd" d="M60.254 33.2747C66.8297 33.242 73.4053 33.2747 79.9805 33.3727C81.1423 33.8493 81.4352 34.6656 80.8594 35.8214C80.6307 36.0943 80.3378 36.2576 79.9805 36.3111C73.4049 36.4418 66.8296 36.4418 60.254 36.3111C59.2706 35.7209 59.0426 34.9046 59.5704 33.8624C59.794 33.6399 60.0219 33.444 60.254 33.2747Z" fill="#4B7DBE"/>
<path fill-rule="evenodd" clip-rule="evenodd" d="M33.6915 36.4091C35.2849 36.2764 35.9685 36.9948 35.7423 38.5639C35.3075 39.4182 34.6239 39.7121 33.6915 39.4455C32.8398 39.0094 32.5468 38.3238 32.8126 37.3885C33.0128 36.9601 33.3058 36.6336 33.6915 36.4091Z" fill="#4B7DBE"/>
<path fill-rule="evenodd" clip-rule="evenodd" d="M60.254 39.5435C63.7051 39.5108 67.1555 39.5435 70.6055 39.6415C71.7672 40.1181 72.0602 40.9344 71.4844 42.0902C71.2557 42.3631 70.9627 42.5264 70.6055 42.5799C67.1549 42.7106 63.7045 42.7106 60.254 42.5799C59.2706 41.9897 59.0426 41.1734 59.5704 40.1312C59.794 39.9087 60.0219 39.7128 60.254 39.5435Z" fill="#4B7DBE"/>
<path fill-rule="evenodd" clip-rule="evenodd" d="M79.004 39.5435C81.4137 39.5108 83.8225 39.5435 86.2305 39.6415C87.2264 39.9735 87.5844 40.6592 87.3048 41.6984C87.1221 42.2081 86.7641 42.502 86.2305 42.5799C83.8217 42.7106 81.4128 42.7106 79.004 42.5799C78.0206 41.9897 77.7926 41.1734 78.3204 40.1312C78.544 39.9087 78.7719 39.7128 79.004 39.5435Z" fill="#4B7DBE"/>
<path fill-rule="evenodd" clip-rule="evenodd" d="M32.9102 55.0194C33.9359 56.6195 34.9125 58.2519 35.8398 59.9168C29.5898 59.9168 23.3398 59.9168 17.0898 59.9168C20.1664 54.724 23.2914 49.5654 26.4648 44.4409C28.7107 47.9001 30.8592 51.4262 32.9102 55.0194Z" fill="#363F92"/>
<path fill-rule="evenodd" clip-rule="evenodd" d="M60.254 45.8121C62.6637 45.7794 65.0725 45.8121 67.4805 45.91C68.4764 46.2421 68.8344 46.9277 68.5547 47.9669C68.3721 48.4767 68.0141 48.7705 67.4805 48.8485C65.0717 48.9791 62.6628 48.9791 60.254 48.8485C59.2706 48.2582 59.0426 47.4419 59.5704 46.3998C59.794 46.1772 60.0219 45.9813 60.254 45.8121Z" fill="#4B7DBE"/>
<path fill-rule="evenodd" clip-rule="evenodd" d="M48.3398 59.9167C44.1732 59.9167 40.0064 59.9167 35.8398 59.9167C34.9125 58.2518 33.9359 56.6194 32.9102 55.0193C33.2064 55.0171 33.4344 54.8867 33.5938 54.6275C35.2779 52.1884 37.0682 49.8376 38.9648 47.5752C42.1367 51.6522 45.2617 55.7661 48.3398 59.9167Z" fill="#363F92"/>
<path fill-rule="evenodd" clip-rule="evenodd" d="M73.3398 53.6479C73.3398 55.7376 73.3398 57.827 73.3398 59.9167C69.1732 59.9167 65.0064 59.9167 60.8398 59.9167C60.8398 57.827 60.8398 55.7376 60.8398 53.6479C65.0064 53.6479 69.1732 53.6479 73.3398 53.6479Z" fill="#4B7DBE"/>
<path fill-rule="evenodd" clip-rule="evenodd" d="M73.3398 53.6479C75.4232 53.6479 77.5064 53.6479 79.5898 53.6479C79.5898 55.7376 79.5898 57.827 79.5898 59.9167C77.5064 59.9167 75.4232 59.9167 73.3398 59.9167C73.3398 57.827 73.3398 55.7376 73.3398 53.6479Z" fill="#4B7DBE"/>
<path fill-rule="evenodd" clip-rule="evenodd" d="M23.3398 66.1855C23.3398 69.3199 23.3398 72.4543 23.3398 75.5886C20.2148 75.5886 17.0898 75.5886 13.9648 75.5886C13.9648 72.4543 13.9648 69.3199 13.9648 66.1855C17.0898 66.1855 20.2148 66.1855 23.3398 66.1855Z" fill="#4B7DBE"/>
<path fill-rule="evenodd" clip-rule="evenodd" d="M23.3398 66.1855C26.4648 66.1855 29.5898 66.1855 32.7148 66.1855C32.7148 69.3199 32.7148 72.4543 32.7148 75.5886C29.5898 75.5886 26.4648 75.5886 23.3398 75.5886C23.3398 72.4543 23.3398 69.3199 23.3398 66.1855Z" fill="#363F92"/>
<path fill-rule="evenodd" clip-rule="evenodd" d="M32.7148 66.1855C35.8398 66.1855 38.9648 66.1855 42.0898 66.1855C42.0898 69.3199 42.0898 72.4543 42.0898 75.5886C38.9648 75.5886 35.8398 75.5886 32.7148 75.5886C32.7148 72.4543 32.7148 69.3199 32.7148 66.1855Z" fill="#4B7DBE"/>
<path fill-rule="evenodd" clip-rule="evenodd" d="M42.0898 66.1855C45.2148 66.1855 48.3398 66.1855 51.4648 66.1855C51.4648 69.3199 51.4648 72.4543 51.4648 75.5886C48.3398 75.5886 45.2148 75.5886 42.0898 75.5886C42.0898 72.4543 42.0898 69.3199 42.0898 66.1855Z" fill="#363F92"/>
<path fill-rule="evenodd" clip-rule="evenodd" d="M62.988 66.1855C64.5519 66.153 66.1144 66.1855 67.6755 66.2835C70.0911 67.1149 70.7747 68.7148 69.7263 71.083C69.2403 71.8323 68.5567 72.2568 67.6755 72.3563C66.113 72.487 64.5505 72.487 62.988 72.3563C60.9528 71.2781 60.3995 69.6782 61.3278 67.5568C61.8046 66.9781 62.3581 66.5211 62.988 66.1855Z" fill="#363F92"/>
<path fill-rule="evenodd" clip-rule="evenodd" d="M78.613 66.1855C80.2419 66.153 81.8694 66.1855 83.4958 66.2835C85.9151 67.318 86.4687 68.9831 85.156 71.2789C84.6792 71.7625 84.1259 72.1216 83.4958 72.3563C81.8683 72.487 80.2405 72.487 78.613 72.3563C76.5778 71.2781 76.0245 69.6782 76.9528 67.5568C77.4296 66.9781 77.9831 66.5211 78.613 66.1855Z" fill="#363F92"/>
<path fill-rule="evenodd" clip-rule="evenodd" d="M19.629 83.4244C24.1215 83.3917 28.6137 83.4244 33.1055 83.5223C34.2672 83.9989 34.5602 84.8152 33.9844 85.971C33.7557 86.2439 33.4628 86.4073 33.1055 86.4608C28.6133 86.5914 24.1212 86.5914 19.629 86.4608C18.6455 85.8705 18.4177 85.0542 18.9454 84.0121C19.169 83.7895 19.3969 83.5936 19.629 83.4244Z" fill="#363F92"/>
<path fill-rule="evenodd" clip-rule="evenodd" d="M46.1915 83.4244C50.684 83.3917 55.1762 83.4244 59.668 83.5223C60.8297 83.9989 61.1227 84.8152 60.5469 85.971C60.3182 86.2439 60.0252 86.4073 59.668 86.4608C55.1758 86.5914 50.6836 86.5914 46.1915 86.4608C45.2081 85.8705 44.9801 85.0542 45.5079 84.0121C45.7315 83.7895 45.9594 83.5936 46.1915 83.4244Z" fill="#363F92"/>
<path fill-rule="evenodd" clip-rule="evenodd" d="M72.754 83.4244C77.2465 83.3917 81.7387 83.4244 86.2305 83.5223C87.3922 83.9989 87.6852 84.8152 87.1094 85.971C86.8807 86.2439 86.5878 86.4073 86.2305 86.4608C81.7383 86.5914 77.2462 86.5914 72.754 86.4608C71.7706 85.8705 71.5426 85.0542 72.0704 84.0121C72.294 83.7895 72.5219 83.5936 72.754 83.4244Z" fill="#363F92"/>
<path fill-rule="evenodd" clip-rule="evenodd" d="M13.3789 83.4243C15.4622 83.5229 15.9831 84.4696 14.9414 86.2648C13.168 86.8946 12.3542 86.2742 12.5 84.4038C12.7002 83.9754 12.9932 83.6488 13.3789 83.4243Z" fill="#363F92"/>
<path fill-rule="evenodd" clip-rule="evenodd" d="M39.9414 83.4243C42.0248 83.5229 42.5455 84.4696 41.5039 86.2648C39.7305 86.8946 38.9166 86.2742 39.0625 84.4038C39.2627 83.9754 39.5557 83.6488 39.9414 83.4243Z" fill="#363F92"/>
<path fill-rule="evenodd" clip-rule="evenodd" d="M66.5039 83.4243C68.5873 83.5229 69.108 84.4696 68.0664 86.2648C66.293 86.8946 65.4791 86.2742 65.625 84.4038C65.8252 83.9754 66.1182 83.6488 66.5039 83.4243Z" fill="#363F92"/>
</svg>
