<svg width="100" height="100" viewBox="0 0 100 100" fill="none" xmlns="http://www.w3.org/2000/svg">
<path d="M0.0907127 49.123C0.0696413 49.709 0 50.2844 0 50.8774C7.14286e-07 78.0911 22.2994 99.9995 49.9986 99.9995C77.6978 99.9995 99.9972 78.0911 99.9972 50.8774C99.9972 50.285 99.9275 49.7103 99.9065 49.123C98.9637 75.5122 77.0929 96.4908 49.9972 96.4908C22.9008 96.4908 1.03072 75.5122 0.0878875 49.123H0.0907127Z" fill="#23538A"/>
<path d="M99.9972 49.1221C99.9972 21.9085 77.6978 0 49.9986 0C22.2994 0 0 21.9085 0 49.1221C0 76.3358 22.2994 98.2442 49.9986 98.2442C77.6978 98.2442 99.9972 76.3358 99.9972 49.1221Z" fill="#4B7DBE"/>
<g opacity="0.2">
<g opacity="0.2">
<g opacity="0.2">
<path opacity="0.2" d="M68.0436 38.2242C66.5777 38.562 65.2027 39.2488 63.9958 40.1C62.0163 42.7471 59.273 44.8829 55.623 45.7253C54.2389 44.7362 52.5502 43.5894 51.3979 42.287C46.116 42.8782 38.8455 44.0228 37.5932 48.9991C36.2886 54.1643 39.75 60.9097 42.566 61.3009C45.2388 61.6654 53.8321 59.3295 57.9867 58.236C54.5071 55.5801 50.5025 54.4155 48.3183 54.2777C45.7433 54.0776 43.5251 54.5288 41.216 55.1111C44.5887 52.9841 47.6433 51.395 50.6616 50.8038C52.9252 50.386 56.4412 50.3704 60.6662 51.9151C65.905 53.8331 67.155 56.5691 70.8323 57.8004C73.2641 57.427 72.03 54.7888 71.5255 52.9552C71.1891 51.9573 70.9209 51.2016 70.8141 50.8705C70.6277 50.3148 68.0004 43.7428 67.6186 42.0492C67.3618 40.8935 67.5822 39.3932 68.0459 38.2197" fill="#23538A"/>
<path opacity="0.2" d="M55.3578 27.8821C51.6919 29.3934 51.5669 32.2494 51.3623 35.3476C52.8987 33.9852 57.7283 32.985 59.0329 31.8826C62.8852 28.6177 64.3784 21.8723 63.5693 22.8702C60.9511 26.1085 56.7056 27.1508 55.3578 27.8798" fill="#23538A"/>
<path opacity="0.2" d="M35.17 73.2074C35.17 73.2074 31.5291 70.8448 31.6018 70.0914C33.9905 57.4251 25.7517 66.4353 25.129 72.105C24.4722 77.5481 26.5222 83.8245 26.8245 84.2068C27.3131 79.7617 27.7472 77.2969 35.17 73.1985V73.2074Z" fill="#23538A"/>
<path opacity="0.2" d="M74.968 45.2983C74.7816 40.5843 71.7543 37.3282 69.6952 38.0928C68.8156 38.4151 68.2384 40.6109 68.5406 41.9734C69.552 46.8185 73.7157 52.4171 72.6862 57.209C71.9134 59.5004 65.077 60.9251 65.077 60.9251C65.077 60.9251 64.9429 62.8876 64.686 64.2233C64.3747 65.8458 63.7451 67.1326 63.7451 67.1326C63.7451 67.1326 65.3701 68.5573 65.4315 68.5573C65.502 68.5573 75.6589 63.401 74.9657 45.2983" fill="#23538A"/>
<path opacity="0.2" d="M70.4505 58.2777C68.7641 57.6087 68.1778 57.322 65.9755 55.7262C53.8048 46.836 42.6001 54.5372 42.8206 54.4594C44.8365 53.8349 47.1184 53.2703 50.073 53.4526C52.4616 53.6082 55.6389 55.0839 59.564 58.2711C62.2004 60.5381 66.1959 60.8226 70.4392 58.28L70.4505 58.2777Z" fill="#23538A"/>
<path opacity="0.2" d="M59.0249 32.874C54.5248 34.2898 52.0907 35.5055 51.3634 36.0701C49.8725 39.7862 52.8816 42.5821 55.6248 44.5446C59.2294 43.7112 62.2295 41.0975 63.5704 38.2237C62.8681 38.3193 62.1226 38.1881 61.2976 37.737C59.6908 36.8524 58.7135 34.7254 59.0249 32.874Z" fill="#23538A"/>
<path opacity="0.2" d="M65.5754 32.1709C65.2822 31.0419 64.3413 29.5928 64.0844 29.5928C63.8526 29.5928 61.3503 31.4153 60.7026 32.042C59.2367 33.4756 59.948 36.0871 61.573 36.9739C64.3254 38.4852 66.3572 35.1669 65.5777 32.1732" fill="#23538A"/>
<path opacity="0.2" d="M63.4357 28.3505C64.5357 27.317 66.0016 25.6235 66.3834 23.0453C66.6062 20.7361 66.0289 19.3114 65.3175 17.54C64.9721 20.9961 64.4561 24.8411 62.0493 28.9217C61.2947 30.2064 61.7038 29.973 63.4334 28.3483" fill="#23538A"/>
<path opacity="0.2" d="M32.5595 64.1377C32.9413 65.0756 32.914 66.8559 32.3458 69.903C32.3367 69.9297 32.3458 69.9474 32.3458 69.9719C32.7458 70.5186 33.5709 71.1787 34.3959 71.7788C37.2368 70.4853 40.805 68.0627 40.5755 68.0272C39.0573 67.776 34.3618 66.6558 32.5595 64.1377Z" fill="#23538A"/>
<path opacity="0.2" d="M58.5268 58.7109C58.4018 58.7109 58.3041 58.7109 58.0291 58.7798C54.4949 59.7444 45.4675 62.0003 44.0561 63.5028C43.5061 64.6496 42.9652 69.2236 35.0356 72.124C34.8128 72.2018 41.6947 76.5514 42.0675 76.5691C64.5292 77.4893 64.5019 61.7314 64.2087 61.0113C62.0246 61.0468 60.17 60.3001 58.7404 58.9265C58.67 58.8576 58.6064 58.7865 58.5268 58.7176" fill="#23538A"/>
</g>
</g>
</g>
<path d="M50 0C22.3008 0 0 21.9064 0 49.1201C0 49.3191 0.0201445 49.5133 0.0313895 49.7095C0.660935 23.0417 22.6997 1.75441 50 1.75441C77.3003 1.75441 99.3391 23.0417 99.9686 49.7095C99.9798 49.5133 100 49.3191 100 49.1201C100 21.9064 77.6992 0 50 0Z" fill="#C2C1EF"/>
<path d="M68.0436 36.4703C66.5777 36.8081 65.2027 37.4949 63.9958 38.3461C62.0163 40.9932 59.273 43.129 55.623 43.9714C54.2389 42.9823 52.5502 41.8355 51.3979 40.5331C46.116 41.1243 38.8455 42.2689 37.5932 47.2452C36.2886 52.4104 39.75 59.1558 42.566 59.547C45.2388 59.9115 53.8321 57.5756 57.9867 56.4821C54.5071 53.8262 50.5025 52.6615 48.3183 52.5238C45.7433 52.3237 43.5251 52.7749 41.216 53.3572C44.5887 51.2302 47.6433 49.6411 50.6616 49.0499C52.9252 48.6321 56.4412 48.6165 60.6662 50.1612C65.905 52.0792 67.155 54.8152 70.8323 56.0465C73.2641 55.6731 72.03 53.0349 71.5255 51.2013C71.1891 50.2034 70.9209 49.4477 70.8141 49.1166C70.6277 48.5609 68.0004 41.9889 67.6186 40.2953C67.3618 39.1396 67.5822 37.6393 68.0459 36.4658" fill="#C2C1EF"/>
<path d="M55.3578 26.1281C51.6919 27.6395 51.5669 30.4955 51.3623 33.5937C52.8987 32.2313 57.7283 31.2311 59.0329 30.1287C62.8852 26.8638 64.3784 20.1184 63.5693 21.1163C60.9511 24.3545 56.7056 25.3969 55.3578 26.1259" fill="#C2C1EF"/>
<path d="M35.17 71.4535C35.17 71.4535 31.5291 69.0909 31.6018 68.3375C33.9905 55.6712 25.7517 64.6814 25.129 70.3511C24.4722 75.7941 26.5222 82.0706 26.8245 82.4529C27.3131 78.0078 27.7472 75.543 35.17 71.4446V71.4535Z" fill="#C2C1EF"/>
<path d="M74.968 43.5444C74.7816 38.8304 71.7543 35.5743 69.6952 36.3389C68.8156 36.6612 68.2384 38.857 68.5406 40.2195C69.552 45.0646 73.7157 50.6632 72.6862 55.455C71.9134 57.7465 65.077 59.1712 65.077 59.1712C65.077 59.1712 64.9429 61.1337 64.686 62.4694C64.3747 64.0919 63.7451 65.3787 63.7451 65.3787C63.7451 65.3787 65.3701 66.8034 65.4315 66.8034C65.502 66.8034 75.6589 61.6471 74.9657 43.5444" fill="#C2C1EF"/>
<path d="M70.4505 56.5238C68.7641 55.8548 68.1778 55.5681 65.9755 53.9723C53.8048 45.0821 42.6001 52.7833 42.8206 52.7055C44.8365 52.0809 47.1184 51.5164 50.073 51.6987C52.4616 51.8542 55.6389 53.33 59.564 56.5172C62.2004 58.7842 66.1959 59.0686 70.4392 56.5261L70.4505 56.5238Z" fill="#C2C1EF"/>
<path d="M59.0249 31.1201C54.5248 32.5359 52.0907 33.7516 51.3634 34.3161C49.8725 38.0322 52.8816 40.8282 55.6248 42.7907C59.2294 41.9573 62.2295 39.3436 63.5704 36.4698C62.8681 36.5654 62.1226 36.4342 61.2976 35.9831C59.6908 35.0985 58.7135 32.9715 59.0249 31.1201Z" fill="#C2C1EF"/>
<path d="M65.5754 30.417C65.2822 29.288 64.3413 27.8389 64.0844 27.8389C63.8526 27.8389 61.3503 29.6614 60.7026 30.2881C59.2367 31.7217 59.948 34.3332 61.573 35.22C64.3254 36.7313 66.3572 33.413 65.5777 30.4192" fill="#C2C1EF"/>
<path d="M63.4357 26.5966C64.5357 25.5631 66.0016 23.8695 66.3834 21.2914C66.6062 18.9822 66.0289 17.5575 65.3175 15.7861C64.9721 19.2422 64.4561 23.0872 62.0493 27.1678C61.2947 28.4524 61.7038 28.2191 63.4334 26.5944" fill="#C2C1EF"/>
<path d="M32.5595 62.3848C32.9413 63.3227 32.914 65.1029 32.3458 68.1501C32.3367 68.1767 32.3458 68.1945 32.3458 68.219C32.7458 68.7657 33.5709 69.4258 34.3959 70.0259C37.2368 68.7324 40.805 66.3098 40.5755 66.2742C39.0573 66.0231 34.3618 64.9029 32.5595 62.3848Z" fill="#C2C1EF"/>
<path d="M58.5268 56.957C58.4018 56.957 58.3041 56.957 58.0291 57.0259C54.4949 57.9905 45.4675 60.2464 44.0561 61.7489C43.5061 62.8957 42.9652 67.4697 35.0356 70.3701C34.8128 70.4479 41.6947 74.7974 42.0675 74.8152C64.5292 75.7354 64.5019 59.9775 64.2087 59.2574C62.0246 59.2929 60.17 58.5462 58.7404 57.1726C58.67 57.1037 58.6064 57.0326 58.5268 56.9637" fill="#C2C1EF"/>
</svg>
