<svg width="94" height="101" viewBox="0 0 94 101" fill="none" xmlns="http://www.w3.org/2000/svg">
<path d="M0 32H94V91C94 96.5228 89.5228 101 84 101H10C4.47715 101 0 96.5228 0 91V32Z" fill="#796F3B"/>
<path d="M94 28L0 28L1.57361e-06 9.99999C2.05643e-06 4.47714 4.47716 -7.82634e-06 10 -7.34351e-06L84 -8.74228e-07C89.5229 -3.91405e-07 94 4.47715 94 10L94 28Z" fill="#C1B262"/>
<path d="M33.5031 85.9C32.2148 85.9 30.9792 85.3838 30.0683 84.4648C29.1573 83.5459 28.6455 82.2996 28.6455 81C28.6455 79.7004 29.1573 78.4541 30.0683 77.5352C30.9792 76.6162 32.2148 76.1 33.5031 76.1C34.7914 76.1 36.0269 76.6162 36.9379 77.5352C37.8488 78.4541 38.3606 79.7004 38.3606 81C38.3606 82.2996 37.8488 83.5459 36.9379 84.4648C36.0269 85.3838 34.7914 85.9 33.5031 85.9V85.9ZM43.815 82.358C43.8705 81.91 43.9121 81.462 43.9121 81C43.9121 80.538 43.8705 80.076 43.815 79.6L46.7434 77.318C47.0071 77.108 47.0765 76.73 46.9099 76.422L44.1342 71.578C43.9676 71.27 43.5929 71.144 43.2876 71.27L39.8318 72.67C39.1101 72.124 38.3606 71.648 37.4863 71.298L36.9727 67.588C36.9172 67.252 36.6258 67 36.2788 67H30.7273C30.3804 67 30.0889 67.252 30.0334 67.588L29.5199 71.298C28.6455 71.648 27.8961 72.124 27.1744 72.67L23.7186 71.27C23.4132 71.144 23.0385 71.27 22.872 71.578L20.0962 76.422C19.9158 76.73 19.9991 77.108 20.2628 77.318L23.1912 79.6C23.1357 80.076 23.094 80.538 23.094 81C23.094 81.462 23.1357 81.91 23.1912 82.358L20.2628 84.682C19.9991 84.892 19.9158 85.27 20.0962 85.578L22.872 90.422C23.0385 90.73 23.4132 90.842 23.7186 90.73L27.1744 89.316C27.8961 89.876 28.6455 90.352 29.5199 90.702L30.0334 94.412C30.0889 94.748 30.3804 95 30.7273 95H36.2788C36.6258 95 36.9172 94.748 36.9727 94.412L37.4863 90.702C38.3606 90.338 39.1101 89.876 39.8318 89.316L43.2876 90.73C43.5929 90.842 43.9676 90.73 44.1342 90.422L46.9099 85.578C47.0765 85.27 47.0071 84.892 46.7434 84.682L43.815 82.358Z" fill="#F0ECC3"/>
<path d="M53.4317 63.1875C51.7686 63.1875 50.1736 62.5268 48.9976 61.3508C47.8216 60.1748 47.1609 58.5798 47.1609 56.9167C47.1609 55.2535 47.8216 53.6585 48.9976 52.4825C50.1736 51.3065 51.7686 50.6458 53.4317 50.6458C55.0948 50.6458 56.6899 51.3065 57.8659 52.4825C59.0419 53.6585 59.7026 55.2535 59.7026 56.9167C59.7026 58.5798 59.0419 60.1748 57.8659 61.3508C56.6899 62.5268 55.0948 63.1875 53.4317 63.1875V63.1875ZM66.7438 58.6546C66.8155 58.0813 66.8692 57.5079 66.8692 56.9167C66.8692 56.3254 66.8155 55.7342 66.7438 55.125L70.5242 52.2046C70.8646 51.9358 70.9542 51.4521 70.7392 51.0579L67.1559 44.8588C66.9409 44.4646 66.4571 44.3033 66.063 44.4646L61.6017 46.2563C60.6701 45.5575 59.7026 44.9483 58.5738 44.5004L57.9109 39.7525C57.8392 39.3225 57.463 39 57.0151 39H49.8484C49.4005 39 49.0242 39.3225 48.9526 39.7525L48.2896 44.5004C47.1609 44.9483 46.1934 45.5575 45.2617 46.2563L40.8005 44.4646C40.4063 44.3033 39.9226 44.4646 39.7076 44.8588L36.1242 51.0579C35.8913 51.4521 35.9988 51.9358 36.3392 52.2046L40.1196 55.125C40.048 55.7342 39.9942 56.3254 39.9942 56.9167C39.9942 57.5079 40.048 58.0813 40.1196 58.6546L36.3392 61.6288C35.9988 61.8975 35.8913 62.3813 36.1242 62.7754L39.7076 68.9746C39.9226 69.3688 40.4063 69.5121 40.8005 69.3688L45.2617 67.5592C46.1934 68.2758 47.1609 68.885 48.2896 69.3329L48.9526 74.0808C49.0242 74.5108 49.4005 74.8333 49.8484 74.8333H57.0151C57.463 74.8333 57.8392 74.5108 57.9109 74.0808L58.5738 69.3329C59.7026 68.8671 60.6701 68.2758 61.6017 67.5592L66.063 69.3688C66.4571 69.5121 66.9409 69.3688 67.1559 68.9746L70.7392 62.7754C70.9542 62.3813 70.8646 61.8975 70.5242 61.6288L66.7438 58.6546Z" fill="#F0ECC3"/>
</svg>
