<svg width="100" height="101" viewBox="0 0 100 101" fill="none" xmlns="http://www.w3.org/2000/svg">
<path fill-rule="evenodd" clip-rule="evenodd" d="M95.2153 18.5123C65.0069 18.5123 34.7987 18.5123 4.59032 18.5123C4.55778 15.0508 4.59034 11.59 4.68798 8.12973C5.0362 7.0215 5.78489 6.33586 6.93407 6.07281C35.58 5.9422 64.2257 5.9422 92.8716 6.07281C94.0208 6.33586 94.7694 7.0215 95.1177 8.12973C95.2153 11.59 95.248 15.0508 95.2153 18.5123Z" fill="#3D8244"/>
<path opacity="0.998" fill-rule="evenodd" clip-rule="evenodd" d="M4.58974 18.5122C34.7981 18.5122 65.0063 18.5122 95.2147 18.5122C95.2474 42.9341 95.2147 67.3561 95.1171 91.7778C94.7399 92.8744 93.9913 93.5601 92.871 93.8347C64.2251 93.9654 35.5794 93.9654 6.93349 93.8347C6.08632 93.5724 5.40273 93.0827 4.88271 92.3655C4.59079 67.7588 4.49314 43.141 4.58974 18.5122Z" fill="#CEE4BD"/>
<path fill-rule="evenodd" clip-rule="evenodd" d="M66.504 26.544C73.0797 26.5113 79.6553 26.544 86.2305 26.642C87.3923 27.1186 87.6852 27.9349 87.1094 29.0907C86.8807 29.3636 86.5878 29.5269 86.2305 29.5804C79.6549 29.7111 73.0796 29.7111 66.504 29.5804C65.5206 28.9902 65.2926 28.1739 65.8204 27.1317C66.044 26.9092 66.2719 26.7133 66.504 26.544Z" fill="#4E9A5F"/>
<path fill-rule="evenodd" clip-rule="evenodd" d="M60.254 26.5441C61.8474 26.4114 62.531 27.1298 62.3048 28.6989C61.87 29.5532 61.1864 29.8471 60.254 29.5805C59.4023 29.1444 59.1093 28.4588 59.3751 27.5236C59.5753 27.0951 59.8683 26.7686 60.254 26.5441Z" fill="#4E9A5F"/>
<path fill-rule="evenodd" clip-rule="evenodd" d="M48.3398 59.4549C45.2617 55.3042 42.1367 51.1904 38.9648 47.1134C37.0682 49.3758 35.2779 51.7265 33.5938 54.1657C33.4344 54.4248 33.2064 54.5553 32.9102 54.5575C30.8592 50.9643 28.7107 47.4382 26.4648 43.979C23.2914 49.1035 20.1664 54.262 17.0898 59.4549C16.0482 59.4549 15.0065 59.4549 13.9648 59.4549C13.9648 49.0071 13.9648 38.5591 13.9648 28.1113C26.4648 28.1113 38.9648 28.1113 51.4648 28.1113C51.4648 38.5591 51.4648 49.0071 51.4648 59.4549C50.4232 59.4549 49.3814 59.4549 48.3398 59.4549Z" fill="#4E9A5F"/>
<path fill-rule="evenodd" clip-rule="evenodd" d="M60.254 32.8128C66.8297 32.7801 73.4053 32.8128 79.9805 32.9108C81.1423 33.3874 81.4352 34.2037 80.8594 35.3595C80.6307 35.6324 80.3378 35.7957 79.9805 35.8492C73.4049 35.9799 66.8296 35.9799 60.254 35.8492C59.2706 35.259 59.0426 34.4427 59.5704 33.4005C59.794 33.178 60.0219 32.9821 60.254 32.8128Z" fill="#4E9A5F"/>
<path fill-rule="evenodd" clip-rule="evenodd" d="M33.6915 35.9471C35.2849 35.8145 35.9685 36.5329 35.7423 38.102C35.3075 38.9563 34.6239 39.2502 33.6915 38.9835C32.8398 38.5475 32.5468 37.8618 32.8126 36.9266C33.0128 36.4982 33.3058 36.1716 33.6915 35.9471Z" fill="#4E9A5F"/>
<path fill-rule="evenodd" clip-rule="evenodd" d="M60.254 39.0816C63.7051 39.0489 67.1555 39.0816 70.6055 39.1796C71.7672 39.6562 72.0602 40.4725 71.4844 41.6283C71.2557 41.9012 70.9627 42.0645 70.6055 42.118C67.1549 42.2487 63.7045 42.2487 60.254 42.118C59.2706 41.5278 59.0426 40.7115 59.5704 39.6693C59.794 39.4468 60.0219 39.2509 60.254 39.0816Z" fill="#4E9A5F"/>
<path fill-rule="evenodd" clip-rule="evenodd" d="M79.004 39.0816C81.4137 39.0489 83.8225 39.0816 86.2305 39.1796C87.2264 39.5116 87.5844 40.1972 87.3048 41.2365C87.1221 41.7462 86.7641 42.04 86.2305 42.118C83.8217 42.2487 81.4128 42.2487 79.004 42.118C78.0206 41.5278 77.7926 40.7115 78.3204 39.6693C78.544 39.4468 78.7719 39.2509 79.004 39.0816Z" fill="#4E9A5F"/>
<path fill-rule="evenodd" clip-rule="evenodd" d="M32.9102 54.5575C33.9359 56.1575 34.9125 57.79 35.8398 59.4549C29.5898 59.4549 23.3398 59.4549 17.0898 59.4549C20.1664 54.262 23.2914 49.1035 26.4648 43.979C28.7107 47.4382 30.8592 50.9643 32.9102 54.5575Z" fill="#3D8244"/>
<path fill-rule="evenodd" clip-rule="evenodd" d="M60.254 45.3502C62.6637 45.3174 65.0725 45.3502 67.4805 45.4481C68.4764 45.7802 68.8344 46.4658 68.5547 47.505C68.3721 48.0148 68.0141 48.3086 67.4805 48.3866C65.0717 48.5172 62.6628 48.5172 60.254 48.3866C59.2706 47.7963 59.0426 46.98 59.5704 45.9379C59.794 45.7153 60.0219 45.5194 60.254 45.3502Z" fill="#4E9A5F"/>
<path fill-rule="evenodd" clip-rule="evenodd" d="M48.3398 59.4548C44.1732 59.4548 40.0064 59.4548 35.8398 59.4548C34.9125 57.7899 33.9359 56.1575 32.9102 54.5574C33.2064 54.5552 33.4344 54.4248 33.5938 54.1656C35.2779 51.7265 37.0682 49.3757 38.9648 47.1133C42.1367 51.1903 45.2617 55.3041 48.3398 59.4548Z" fill="#3D8244"/>
<path fill-rule="evenodd" clip-rule="evenodd" d="M73.3398 53.186C73.3398 55.2757 73.3398 57.3651 73.3398 59.4547C69.1732 59.4547 65.0064 59.4547 60.8398 59.4547C60.8398 57.3651 60.8398 55.2757 60.8398 53.186C65.0064 53.186 69.1732 53.186 73.3398 53.186Z" fill="#4E9A5F"/>
<path fill-rule="evenodd" clip-rule="evenodd" d="M73.3398 53.186C75.4232 53.186 77.5064 53.186 79.5898 53.186C79.5898 55.2757 79.5898 57.3651 79.5898 59.4547C77.5064 59.4547 75.4232 59.4547 73.3398 59.4547C73.3398 57.3651 73.3398 55.2757 73.3398 53.186Z" fill="#4E9A5F"/>
<path fill-rule="evenodd" clip-rule="evenodd" d="M23.3398 65.7236C23.3398 68.858 23.3398 71.9923 23.3398 75.1267C20.2148 75.1267 17.0898 75.1267 13.9648 75.1267C13.9648 71.9923 13.9648 68.858 13.9648 65.7236C17.0898 65.7236 20.2148 65.7236 23.3398 65.7236Z" fill="#4E9A5F"/>
<path fill-rule="evenodd" clip-rule="evenodd" d="M23.3398 65.7236C26.4648 65.7236 29.5898 65.7236 32.7148 65.7236C32.7148 68.858 32.7148 71.9923 32.7148 75.1267C29.5898 75.1267 26.4648 75.1267 23.3398 75.1267C23.3398 71.9923 23.3398 68.858 23.3398 65.7236Z" fill="#3D8244"/>
<path fill-rule="evenodd" clip-rule="evenodd" d="M32.7148 65.7236C35.8398 65.7236 38.9648 65.7236 42.0898 65.7236C42.0898 68.858 42.0898 71.9923 42.0898 75.1267C38.9648 75.1267 35.8398 75.1267 32.7148 75.1267C32.7148 71.9923 32.7148 68.858 32.7148 65.7236Z" fill="#4E9A5F"/>
<path fill-rule="evenodd" clip-rule="evenodd" d="M42.0898 65.7236C45.2148 65.7236 48.3398 65.7236 51.4648 65.7236C51.4648 68.858 51.4648 71.9923 51.4648 75.1267C48.3398 75.1267 45.2148 75.1267 42.0898 75.1267C42.0898 71.9923 42.0898 68.858 42.0898 65.7236Z" fill="#3D8244"/>
<path fill-rule="evenodd" clip-rule="evenodd" d="M62.988 65.7236C64.5519 65.6911 66.1144 65.7236 67.6755 65.8216C70.0911 66.653 70.7747 68.2528 69.7263 70.621C69.2403 71.3704 68.5567 71.7949 67.6755 71.8944C66.113 72.025 64.5505 72.025 62.988 71.8944C60.9528 70.8162 60.3995 69.2163 61.3278 67.0949C61.8046 66.5162 62.3581 66.0592 62.988 65.7236Z" fill="#3D8244"/>
<path fill-rule="evenodd" clip-rule="evenodd" d="M78.613 65.7236C80.2419 65.6911 81.8694 65.7236 83.4958 65.8216C85.9151 66.8561 86.4687 68.5212 85.156 70.8169C84.6792 71.3006 84.1259 71.6597 83.4958 71.8944C81.8683 72.025 80.2405 72.025 78.613 71.8944C76.5778 70.8162 76.0245 69.2163 76.9528 67.0949C77.4296 66.5162 77.9831 66.0592 78.613 65.7236Z" fill="#3D8244"/>
<path fill-rule="evenodd" clip-rule="evenodd" d="M19.629 82.9625C24.1215 82.9298 28.6137 82.9625 33.1055 83.0604C34.2672 83.537 34.5602 84.3533 33.9844 85.5091C33.7557 85.782 33.4628 85.9454 33.1055 85.9989C28.6133 86.1295 24.1212 86.1295 19.629 85.9989C18.6455 85.4086 18.4177 84.5923 18.9454 83.5502C19.169 83.3276 19.3969 83.1317 19.629 82.9625Z" fill="#3D8244"/>
<path fill-rule="evenodd" clip-rule="evenodd" d="M46.1915 82.9625C50.684 82.9298 55.1762 82.9625 59.668 83.0604C60.8297 83.537 61.1227 84.3533 60.5469 85.5091C60.3182 85.782 60.0252 85.9454 59.668 85.9989C55.1758 86.1295 50.6836 86.1295 46.1915 85.9989C45.2081 85.4086 44.9801 84.5923 45.5079 83.5502C45.7315 83.3276 45.9594 83.1317 46.1915 82.9625Z" fill="#3D8244"/>
<path fill-rule="evenodd" clip-rule="evenodd" d="M72.754 82.9625C77.2465 82.9298 81.7387 82.9625 86.2305 83.0604C87.3922 83.537 87.6852 84.3533 87.1094 85.5091C86.8807 85.782 86.5878 85.9454 86.2305 85.9989C81.7383 86.1295 77.2462 86.1295 72.754 85.9989C71.7706 85.4086 71.5426 84.5923 72.0704 83.5502C72.294 83.3276 72.5219 83.1317 72.754 82.9625Z" fill="#3D8244"/>
<path fill-rule="evenodd" clip-rule="evenodd" d="M13.3789 82.9624C15.4622 83.0609 15.9831 84.0077 14.9414 85.8029C13.168 86.4327 12.3542 85.8123 12.5 83.9419C12.7002 83.5135 12.9932 83.1869 13.3789 82.9624Z" fill="#3D8244"/>
<path fill-rule="evenodd" clip-rule="evenodd" d="M39.9414 82.9624C42.0248 83.0609 42.5455 84.0077 41.5039 85.8029C39.7305 86.4327 38.9166 85.8123 39.0625 83.9419C39.2627 83.5135 39.5557 83.1869 39.9414 82.9624Z" fill="#3D8244"/>
<path fill-rule="evenodd" clip-rule="evenodd" d="M66.5039 82.9624C68.5873 83.0609 69.108 84.0077 68.0664 85.8029C66.293 86.4327 65.4791 85.8123 65.625 83.9419C65.8252 83.5135 66.1182 83.1869 66.5039 82.9624Z" fill="#3D8244"/>
</svg>
