<svg width="82" height="94" viewBox="0 0 82 94" fill="none" xmlns="http://www.w3.org/2000/svg">
<path d="M40.4195 93.6525C38.4012 93.64 36.3862 93.4835 34.3897 93.1843C31.9317 93.0233 29.5984 92.034 27.7635 90.375C26.6119 89.0974 25.9946 87.4196 26.0407 85.6928C26.0385 83.9249 26.5701 82.1982 27.5648 80.7431C29.6669 78.0302 32.6871 76.1962 36.0463 75.5927C38.2259 75.1098 40.4429 74.8189 42.6724 74.7231H45.7867C49.652 74.2687 53.4535 73.371 57.1174 72.0476C58.7892 71.574 60.3013 70.6489 61.4907 69.372C62.2232 68.3167 62.6539 67.0782 62.7357 65.7923C62.8175 64.5063 62.5472 63.2225 61.9545 62.0812C60.73 59.7282 59.0908 57.6202 57.1174 55.8606L57.6475 55.3923C59.6993 57.2928 61.3844 59.5607 62.6172 62.0812C63.2498 63.3442 63.5344 64.7556 63.4411 66.1678C63.3479 67.5799 62.8802 68.9408 62.0871 70.1078C60.8114 71.4858 59.1833 72.4812 57.3825 72.984C53.6573 74.3318 49.7872 75.2299 45.853 75.6595H42.7387C40.5089 75.7516 38.2915 76.0425 36.1125 76.5291C32.95 77.1003 30.1008 78.8118 28.0949 81.3451C27.1642 82.6126 26.6618 84.1485 26.6618 85.7263C26.6618 87.304 27.1642 88.8399 28.0949 90.1075C29.943 91.7165 32.2817 92.6373 34.721 92.7161C42.3051 94.1289 50.1379 92.6001 56.6536 88.4352C59.6914 85.8379 62.1267 82.5984 63.787 78.9458C65.4472 75.2933 66.292 71.3171 66.2616 67.2985V66.8972C66.0333 64.5594 66.5685 62.2105 67.7856 60.2083C68.3436 59.5065 69.0361 58.9257 69.8217 58.5004C70.6073 58.0752 71.4698 57.8143 72.3576 57.7334C74.2024 57.5448 76.0569 57.9815 77.6286 58.9747C79.2003 59.9678 80.3998 61.4608 81.0379 63.2183H80.3753C79.7744 61.6203 78.6719 60.2648 77.2361 59.3589C75.8002 58.4531 74.1101 58.0466 72.4239 58.2017C70.8429 58.377 69.3924 59.1691 68.3819 60.409C67.3722 62.1728 66.889 64.1937 66.9904 66.2283V66.8303C66.8039 70.9606 65.8603 75.0203 64.2074 78.8033C62.6132 82.5781 60.0796 85.873 56.8524 88.3684C52.0715 91.8503 46.3147 93.7014 40.4195 93.6525Z" fill="#6D63CE"/>
<path d="M62.8818 55.3252V59.2716C62.8851 59.4697 62.8303 59.6643 62.7241 59.831C62.618 59.9976 62.4654 60.1288 62.2855 60.2081C61.8736 60.4143 61.42 60.5217 60.9603 60.5217C60.5005 60.5217 60.0469 60.4143 59.635 60.2081C59.448 60.1519 59.2833 60.0376 59.1644 59.8815C59.0454 59.7254 58.9782 59.5354 58.9724 59.3385V55.3252C59.0115 55.5109 59.0913 55.6854 59.206 55.8359C59.3207 55.9863 59.4673 56.109 59.635 56.1947C60.0989 56.425 60.609 56.5447 61.1259 56.5447C61.6429 56.5447 62.1529 56.425 62.6168 56.1947C62.6831 55.9272 62.8818 55.6596 62.8818 55.3252Z" fill="#24227A"/>
<path d="M62.8811 55.3249V59.2713C62.9394 59.4678 62.9394 59.6768 62.8811 59.8733V55.86C62.9491 55.6879 62.9491 55.4969 62.8811 55.3249V55.3249Z" fill="#24227A"/>
<path d="M62.6824 55.8604V60.2082H62.2848C61.9379 60.3051 61.5715 60.3051 61.2246 60.2082V56.5293H62.2848L62.6824 56.1949V55.8604Z" fill="#24227A"/>
<path d="M61.2253 56.5292V60.2081C60.7071 60.3682 60.1533 60.3682 59.635 60.2081C59.448 60.1519 59.2833 60.0376 59.1644 59.8815C59.0454 59.7254 58.9782 59.5354 58.9724 59.3385V55.3252C59.0115 55.5109 59.0913 55.6854 59.206 55.8359C59.3207 55.9863 59.4673 56.109 59.635 56.1947C60.2644 56.3651 60.9272 56.3651 61.5566 56.1947L61.2253 56.5292Z" fill="#24227A"/>
<path d="M62.2846 54.4551C62.4568 54.5246 62.6044 54.6446 62.7084 54.7996C62.8123 54.9546 62.8679 55.1375 62.8679 55.3247C62.8679 55.5118 62.8123 55.6947 62.7084 55.8497C62.6044 56.0047 62.4568 56.1247 62.2846 56.1942C61.8656 56.3745 61.4148 56.4675 60.9593 56.4675C60.5038 56.4675 60.0531 56.3745 59.6341 56.1942C58.7727 55.726 58.7727 54.9233 59.6341 54.4551C60.046 54.2488 60.4995 54.1415 60.9593 54.1415C61.4191 54.1415 61.8727 54.2488 62.2846 54.4551Z" fill="#24227A"/>
<path d="M61.8229 54.7231C62.4193 55.0575 62.4193 55.5926 61.8229 55.927C61.505 56.0914 61.153 56.1771 60.7959 56.1771C60.4387 56.1771 60.0867 56.0914 59.7688 55.927C59.1724 55.927 59.1724 55.0575 59.7688 54.7231C60.0811 54.5411 60.4353 54.4453 60.7959 54.4453C61.1564 54.4453 61.5106 54.5411 61.8229 54.7231V54.7231Z" fill="#24227A"/>
<path d="M54.0044 16.262C54.0395 13.7893 53.5892 11.334 52.6793 9.03796C51.7695 6.74188 50.4182 4.65042 48.7035 2.88428L47.9746 3.3525C49.7334 5.08593 51.1136 7.17158 52.0266 9.47545C52.9395 11.7793 53.3649 14.2505 53.2755 16.7302V24.623L54.0044 24.2217V16.262Z" fill="#E7E7E7"/>
<path d="M35.9794 10.1084L28.0942 5.42619C30.6146 3.88123 33.4438 2.92162 36.3769 2.61688C38.6756 2.39671 40.9863 2.88655 43.0031 4.02153L50.9545 8.63684C48.9253 7.53592 46.6249 7.04827 44.3283 7.23218C41.3671 7.54758 38.5138 8.53052 35.9794 10.1084V10.1084Z" fill="#BBB1EF"/>
<path d="M35.9794 10.1084L28.0942 5.42619C30.6146 3.88123 33.4438 2.92162 36.3769 2.61688C38.6756 2.39671 40.9863 2.88655 43.0031 4.02153L50.9545 8.63684C48.9253 7.53592 46.6249 7.04827 44.3283 7.23218C41.3671 7.54758 38.5138 8.53052 35.9794 10.1084Z" fill="#BBB1EF"/>
<path d="M16.6318 37.4663L8.68039 32.7841C8.34908 32.7841 8.28282 32.1153 8.68039 31.5133C10.057 27.517 11.8565 23.6822 14.0476 20.0753C16.2373 16.4225 18.8879 13.0724 21.9327 10.109C23.7876 8.29754 25.8574 6.72485 28.095 5.42676L35.9802 10.109C33.7658 11.4165 31.6995 12.9641 29.8178 14.7243C26.8097 17.6225 24.1619 20.8794 21.9327 24.4231C19.65 28.0931 17.804 32.0221 16.433 36.1286C16.2949 36.3364 16.2387 36.5889 16.2755 36.8364C16.3122 37.0839 16.4393 37.3086 16.6318 37.4663V37.4663Z" fill="#BBB1EF"/>
<path d="M16.6315 37.466L8.68014 32.7838C8.34883 32.7838 8.28257 32.1149 8.68014 31.5129C9.68478 28.3157 10.994 25.2244 12.5896 22.2823L20.4747 26.7638C18.8489 29.7551 17.496 32.8895 16.4328 36.1282C16.2698 36.3122 16.1797 36.5503 16.1797 36.7971C16.1797 37.0439 16.2698 37.282 16.4328 37.466H16.6315Z" fill="#BBB1EF"/>
<path d="M20.4752 26.7634L12.5901 22.2819C13.2527 21.4792 13.2527 20.6097 14.0478 20.0746C15.8456 17.1697 17.9327 14.4578 20.2764 11.9811L28.1616 16.6633C25.837 19.1326 23.7514 21.8203 21.933 24.6899L20.4752 26.7634Z" fill="#BBB1EF"/>
<path d="M28.1622 16.3959L20.2771 11.7137L21.9336 10.1083C23.7885 8.29693 25.8584 6.72424 28.096 5.42615L35.9811 10.1083C33.7668 11.4158 31.7004 12.9634 29.8188 14.7236C29.2887 15.2588 28.6923 15.7939 28.1622 16.3959Z" fill="#BBB1EF"/>
<path d="M44.3297 7.23253C41.3685 7.54793 38.5152 8.53087 35.9808 10.1087C33.7664 11.4162 31.7001 12.9638 29.8184 14.724C26.8103 17.6223 24.1625 20.8792 21.9333 24.4229C19.6506 28.0929 17.8046 32.0218 16.4336 36.1284C16.4336 36.931 16.4336 37.533 16.8974 37.533H17.3613C17.8117 37.22 18.1581 36.7771 18.3552 36.2621C20.0127 31.2656 22.451 26.5687 25.5777 22.3493C27.0384 20.3495 28.6799 18.491 30.4811 16.7976C32.1441 15.1799 33.99 13.7655 35.9808 12.5836C38.2625 11.1939 40.8184 10.3262 43.4683 10.0418C44.2603 9.94041 45.0618 9.94041 45.8538 10.0418C45.8767 9.03467 45.6963 8.03332 45.3237 7.09875L44.3297 7.23253Z" fill="#BBB1EF"/>
<path d="M57.25 22.7511C57.3533 18.4654 55.9706 14.2778 53.3405 10.9118V10.9118H53.0092H52.6779C51.1111 8.9318 48.8642 7.61866 46.3831 7.23297C48.5016 10.4634 49.6097 14.2619 49.5636 18.1358V26.0286L57.515 30.7108L57.25 22.7511Z" fill="#24227A"/>
<path d="M58.5093 22.0152C58.7137 19.1889 58.2145 16.3558 57.0572 13.774C55.8999 11.1921 54.1212 8.94352 51.8831 7.23287C49.954 6.04031 47.7155 5.45792 45.4557 5.56066H44.8594L45.4557 6.22954C45.8085 6.52012 46.1205 6.85764 46.3834 7.23287C47.952 7.34245 49.473 7.82368 50.8229 8.63753H51.1542H53.0096C54.6428 10.5674 55.8627 12.8175 56.5925 15.2464C57.3223 17.6754 57.5463 20.2305 57.2503 22.751V30.7107C57.2876 30.7534 57.3335 30.7876 57.3849 30.8111C57.4363 30.8345 57.4921 30.8466 57.5485 30.8466C57.6049 30.8466 57.6606 30.8345 57.712 30.8111C57.7635 30.7876 57.8093 30.7534 57.8466 30.7107C58.0235 30.5934 58.1699 30.435 58.2737 30.2488C58.3774 30.0626 58.4355 29.854 58.443 29.6405L58.5093 22.0152Z" fill="#6D63CE"/>
<path d="M6.22803 44.8904L11.2639 41.9473C12.8335 41.2095 14.5695 40.9073 16.2932 41.0719C18.0169 41.2365 19.666 41.8619 21.0706 42.8837L16.0347 45.8937C14.6423 44.848 12.9953 44.2025 11.2686 44.0258C9.54187 43.8492 7.80001 44.1479 6.22803 44.8904V44.8904Z" fill="#6D63CE"/>
<path d="M6.22803 44.8904L11.2639 41.9473C12.8335 41.2095 14.5695 40.9073 16.2932 41.0719C18.0169 41.2365 19.666 41.8619 21.0706 42.8837L16.0347 45.8937C14.6423 44.848 12.9953 44.2025 11.2686 44.0258C9.54187 43.8492 7.80001 44.1479 6.22803 44.8904V44.8904Z" fill="#6D63CE"/>
<path d="M30.8105 75.9265L25.7746 78.8695C27.1695 77.8662 28.2777 76.5093 28.9873 74.9356C29.697 73.362 29.983 71.6273 29.8166 69.9065C29.5537 65.0914 28.1685 60.4069 25.7735 56.2342C23.3786 52.0615 20.0417 48.5186 16.0342 45.8935L21.0701 42.8835C25.0666 45.5204 28.3951 49.0662 30.7887 53.2364C33.1822 57.4066 34.574 62.0851 34.8525 66.8965C35.031 68.6281 34.7509 70.3765 34.0407 71.963C33.3306 73.5495 32.2159 74.9173 30.8105 75.9265V75.9265Z" fill="#6D63CE"/>
<path d="M16.0342 45.8935L21.0701 42.8835L22.5941 43.8869L17.5582 46.83L16.0342 45.8935Z" fill="#6D63CE"/>
<path d="M17.5581 46.8296L22.594 43.8865C24.4977 45.2576 26.2133 46.8769 27.6961 48.7024L22.6602 51.7124C21.1773 49.8676 19.4621 48.2261 17.5581 46.8296V46.8296Z" fill="#6D63CE"/>
<path d="M22.6609 51.7133L27.6968 48.7034C31.9055 53.7092 34.4136 59.9451 34.853 66.4957L29.8171 69.4388C29.3777 62.9082 26.8686 56.6936 22.6609 51.7133V51.7133Z" fill="#6D63CE"/>
<path d="M29.8168 69.4386L34.8527 66.4955V66.8968C34.8825 68.6585 34.5672 70.4089 33.925 72.0472L28.8892 74.9903C29.5314 73.3519 29.8466 71.6016 29.8168 69.8399V69.3717V69.4386Z" fill="#6D63CE"/>
<path d="M28.8897 75.0574L33.9256 72.1143C33.3226 73.6914 32.23 75.029 30.8113 75.927L25.7754 78.8701C27.2108 77.9913 28.3086 76.6473 28.8897 75.0574V75.0574Z" fill="#6D63CE"/>
<path d="M16.0354 45.8939C20.0429 48.519 23.3799 52.0619 25.7748 56.2346C28.1697 60.4073 29.555 65.0918 29.8179 69.9069C29.8179 78.7362 23.5893 82.3481 15.9692 77.8666C11.9617 75.2416 8.62476 71.6986 6.22982 67.5259C3.83489 63.3533 2.44963 58.6688 2.18677 53.8537C2.18677 44.9575 8.41536 41.4124 16.0354 45.8939Z" fill="#6D63CE"/>
<path d="M3.64307 48.503L5.8297 47.2321C7.25249 46.5665 8.82545 46.2962 10.3863 46.449C11.9471 46.6019 13.4392 47.1724 14.7088 48.1017L12.5221 49.3726C11.2526 48.4433 9.76046 47.8728 8.19964 47.7199C6.63881 47.5671 5.06585 47.8374 3.64307 48.503V48.503Z" fill="#FEC02F"/>
<path d="M23.5236 78.0002L21.337 79.2711C22.6064 78.3711 23.618 77.1487 24.2695 75.7276C24.9211 74.3065 25.1895 72.737 25.0476 71.1776C24.8075 66.8045 23.5482 62.5504 21.372 58.7613C19.1959 54.9722 16.1644 51.7552 12.5242 49.372L14.7108 48.1011C18.3278 50.5035 21.338 53.7265 23.501 57.5127C25.6639 61.2989 26.9197 65.5433 27.168 69.9067C27.3381 71.462 27.0893 73.0347 26.4479 74.4592C25.8065 75.8836 24.7962 77.107 23.5236 78.0002V78.0002Z" fill="#BBB1EF"/>
<path d="M12.5242 49.372L14.7108 48.1011L16.1023 49.0375L13.9157 50.3084L12.5242 49.372V49.372Z" fill="#BBB1EF"/>
<path d="M13.9155 50.308L16.1022 49.0371C17.8062 50.3316 19.3423 51.8373 20.6742 53.5186L18.5538 54.7895C17.1906 53.1534 15.6327 51.6932 13.9155 50.4418V50.308Z" fill="#BBB1EF"/>
<path d="M18.5533 54.6565L20.6737 53.5194C24.5338 58.0389 26.8562 63.689 27.2999 69.6395L25.1132 70.9104C24.7072 64.9509 22.38 59.2893 18.4871 54.7903L18.5533 54.6565Z" fill="#BBB1EF"/>
<path d="M24.9802 70.7758L27.1668 69.5049V69.9063C27.2072 71.5044 26.9371 73.0951 26.3717 74.5885L24.1851 75.8593C24.7473 74.3632 25.039 72.7773 25.0465 71.1772C25.0465 71.1772 25.0465 71.1772 25.0465 70.7758H24.9802Z" fill="#BBB1EF"/>
<path d="M24.1872 75.8596L26.5063 74.5887C25.9714 76.0215 24.9656 77.2257 23.6571 78.0001L21.4705 79.2709C22.779 78.4966 23.7847 77.2924 24.3197 75.8596H24.1872Z" fill="#BBB1EF"/>
<path d="M12.5234 49.3723C16.1636 51.7555 19.1951 54.9725 21.3713 58.7616C23.5474 62.5507 24.8068 66.8048 25.0469 71.1779C25.0469 79.2045 19.3484 82.4152 12.4572 78.4019C8.82928 76.0112 5.81071 72.7909 3.64633 69.0023C1.48196 65.2137 0.232734 60.9634 0 56.5962C0 48.6365 5.63224 45.359 12.5234 49.3723Z" fill="#F1F0FF"/>
<path d="M4.63892 55.9943L6.09667 55.1248C6.94681 54.7268 7.88718 54.5666 8.81961 54.6607C9.75205 54.7548 10.6424 55.0999 11.3976 55.6599L10.0061 56.5294C9.23784 55.9701 8.3366 55.6259 7.39393 55.5319C6.45126 55.4379 5.50074 55.5975 4.63892 55.9943V55.9943Z" fill="#6D63CE"/>
<path d="M4.63892 55.9943L6.09667 55.1248C6.94681 54.7268 7.88718 54.5666 8.81961 54.6607C9.75205 54.7548 10.6424 55.0999 11.3976 55.6599L10.0061 56.5294C9.23784 55.9701 8.3366 55.6259 7.39393 55.5319C6.45126 55.4379 5.50074 55.5975 4.63892 55.9943V55.9943Z" fill="#6D63CE"/>
<path d="M16.699 73.5861L15.2413 74.4557C15.9885 73.9136 16.583 73.1844 16.9664 72.34C17.3498 71.4956 17.5088 70.565 17.4279 69.6397C17.3429 66.9728 16.6244 64.3656 15.3329 62.0375C14.0414 59.7095 12.2147 57.7287 10.0066 56.262L11.3981 55.3925C13.5817 56.8111 15.3995 58.7338 16.7015 61.0018C18.0034 63.2697 18.7521 65.8179 18.8856 68.4357C19.0526 69.4157 18.9349 70.4234 18.5469 71.3374C18.1589 72.2513 17.5171 73.0323 16.699 73.5861V73.5861Z" fill="#6D63CE"/>
<path d="M10.0061 56.5298L11.3976 55.6602L12.259 56.1953L10.8012 57.0649L10.0061 56.5298V56.5298Z" fill="#6D63CE"/>
<path d="M10.8018 57.0652L12.2595 56.1957C13.2745 56.9412 14.1879 57.8183 14.9762 58.8043L13.5847 59.6739C12.7743 58.685 11.8386 57.808 10.8018 57.0652V57.0652Z" fill="#6D63CE"/>
<path d="M13.5837 59.6733L14.9752 58.8037C17.2643 61.5103 18.6344 64.8858 18.8847 68.4357L17.4269 69.3052C17.2 65.7621 15.8529 62.386 13.5837 59.6733Z" fill="#6D63CE"/>
<path d="M17.426 69.3049L18.8837 68.4354C18.8943 69.3981 18.714 70.3533 18.3537 71.2447L16.9622 72.0473C17.2724 71.1671 17.4294 70.2392 17.426 69.3049V69.3049V69.3049Z" fill="#6D63CE"/>
<path d="M16.9633 72.316L18.3548 71.5134C18.0699 72.3674 17.4791 73.0832 16.6982 73.52L15.2405 74.3896C16.0283 73.9123 16.6349 73.1822 16.9633 72.316V72.316Z" fill="#6D63CE"/>
<path d="M10.006 56.5291C12.2141 57.9958 14.0408 59.9766 15.3323 62.3046C16.6238 64.6327 17.3423 67.2399 17.4273 69.9068C17.4273 74.6559 14.0479 76.5956 9.93971 74.1877C7.72317 72.7244 5.88649 70.746 4.58369 68.4183C3.28089 66.0907 2.54994 63.4816 2.45215 60.81C2.51841 56.0609 5.83149 54.1211 10.006 56.5291Z" fill="#6D63CE"/>
<path d="M57.5158 31.1125L49.5644 26.7647C49.5189 26.6349 49.5189 26.4932 49.5644 26.3634L57.5158 31.0456C57.5139 31.0679 57.5139 31.0902 57.5158 31.1125V31.1125Z" fill="#6D63CE"/>
<path d="M13.9821 56.3962L6.09697 51.7809C6.06207 51.7199 6.0437 51.6507 6.0437 51.5802C6.0437 51.5098 6.06207 51.4406 6.09697 51.3796L14.0484 55.9949C13.9748 56.1146 13.951 56.2589 13.9821 56.3962V56.3962Z" fill="#6D63CE"/>
<path d="M13.9821 56.3962L6.09697 51.7809C6.06207 51.7199 6.0437 51.6507 6.0437 51.5802C6.0437 51.5098 6.06207 51.4406 6.09697 51.3796L14.0484 55.9949C13.9968 56.1236 13.9968 56.2675 14.0484 56.3962H13.9821Z" fill="#6D63CE"/>
<path d="M13.7828 56.0618L5.89771 51.3796V44.4901L13.7828 49.1723V56.0618Z" fill="#6D63CE"/>
<path d="M43.6001 2.48378L51.4852 7.09909C49.4642 5.97139 47.1623 5.46019 44.8591 5.62754C41.8559 5.94118 38.9592 6.92352 36.3776 8.50374L28.1611 3.88844C30.7662 2.30698 33.6848 1.32492 36.7089 1.01224C39.1003 0.791253 41.5022 1.30414 43.6001 2.48378V2.48378Z" fill="#6D63CE"/>
<path d="M36.1125 8.50403L28.1611 3.88872C30.7662 2.30726 33.6848 1.32521 36.7089 1.01252C39.0122 0.845169 41.314 1.35637 43.335 2.48406L51.2202 7.09937C49.1991 5.97167 46.8973 5.46047 44.594 5.62782C41.5909 5.94146 38.6941 6.9238 36.1125 8.50403V8.50403Z" fill="#6D63CE"/>
<path d="M13.7828 49.172L5.89771 44.4898C6.00058 38.3893 7.2836 32.368 9.67462 26.7643C12.0399 21.023 15.3562 15.7301 19.4813 11.1124C22.0013 8.28053 24.9272 5.84554 28.1616 3.88849L36.113 8.50379C32.8294 10.4454 29.8762 12.907 27.3665 15.7946C23.238 20.4348 19.9218 25.7503 17.5598 31.5134C15.1771 37.0963 13.8943 43.0941 13.7828 49.172V49.172Z" fill="#6D63CE"/>
<path d="M13.7828 49.1723L5.89771 44.4901C6.00058 38.3896 7.2836 32.3683 9.67462 26.7647C10.4897 24.6958 11.4416 22.6847 12.5239 20.7447L20.4753 25.4269C19.3587 27.3356 18.3842 29.3254 17.5598 31.38C15.1771 36.9628 13.8943 42.9606 13.7828 49.0385V49.1723Z" fill="#6D63CE"/>
<path d="M20.4756 25.56L12.5242 20.8778C14.4825 17.3755 16.8157 14.1007 19.4816 11.1121L20.2768 10.2426L28.2282 14.8579L27.3668 15.7943C24.7996 18.7863 22.5767 22.0625 20.7406 25.56H20.4756Z" fill="#6D63CE"/>
<path d="M28.2278 14.8583L20.2764 10.243C22.6013 7.76735 25.2549 5.62887 28.1615 3.88861L36.1129 8.50392C33.1851 10.3469 30.5305 12.5989 28.2278 15.1928V14.8583Z" fill="#6D63CE"/>
<path d="M44.8592 5.62775C41.8561 5.94139 38.9593 6.92373 36.3777 8.50395C32.9999 10.4217 29.9558 12.8845 27.3661 15.7948C23.2377 20.435 19.9215 25.7504 17.5594 31.5136C15.1768 37.0965 13.8939 43.0943 13.7825 49.1721V55.861C13.7825 56.2623 13.7825 56.463 14.3788 56.2623C14.5557 56.145 14.7021 55.9866 14.8058 55.8004C14.9096 55.6142 14.9677 55.4056 14.9752 55.1921V48.5033C15.1832 40.6923 17.3245 33.058 21.2038 26.2963C23.0291 22.8747 25.2537 19.6859 27.8299 16.7981C30.2048 14.1478 32.9774 11.8907 36.0464 10.1093C38.4837 8.60485 41.2228 7.66798 44.064 7.36685C44.7471 7.29973 45.4351 7.29973 46.1181 7.36685C45.9422 6.98371 45.7196 6.6242 45.4555 6.29663L44.8592 5.62775Z" fill="#6D63CE"/>
<path d="M46.3831 1.07825L47.0457 1.54647C49.2732 3.23619 51.0464 5.46174 52.2037 8.02032C53.3611 10.5789 53.8658 13.3892 53.6718 16.195L53.0092 15.8606C53.2093 13.054 52.7073 10.2417 51.5495 7.68202C50.3917 5.12238 48.6151 2.89757 46.3831 1.21202V1.07825Z" fill="#F1F0FF"/>
<path d="M9.807 49.9744L9.07812 49.5731L9.807 49.1049L10.5359 49.5731L9.807 49.9744Z" fill="#F1F0FF"/>
<path d="M10.535 49.5731L9.80615 49.1049V42.2822L10.4688 42.6836L10.535 49.5731Z" fill="#F1F0FF"/>
<path d="M45.8543 1.94806L46.3844 2.41628C44.0551 1.31514 41.4777 0.858736 38.9163 1.0938C36.3548 1.32887 33.9012 2.24696 31.8068 3.75405C25.4765 8.10046 20.2471 13.8884 16.5408 20.6507C12.8346 27.413 10.7552 34.9602 10.4706 42.6831L9.7417 42.2818C10.0106 34.5554 12.0832 27.0024 15.7909 20.2376C19.4985 13.4728 24.7364 7.6875 31.0779 3.35272C33.1936 1.81087 35.6789 0.867679 38.2768 0.620721C40.8746 0.373764 43.4907 0.832015 45.8543 1.94806V1.94806Z" fill="#F1F0FF"/>
<path d="M10.4698 42.683L9.74097 42.2816C10.0353 34.2616 12.3132 26.4434 16.3671 19.5396L16.8972 20.0747C12.8433 26.9785 10.5654 34.7967 10.2711 42.8167L10.4698 42.683Z" fill="#F1F0FF"/>
<path d="M16.8986 20.0745L16.1697 19.6731C18.1985 15.9717 20.6686 12.5348 23.5247 9.43921L24.2536 9.84054C21.3974 12.9361 18.9274 16.373 16.8986 20.0745V20.0745Z" fill="#F1F0FF"/>
<path d="M24.2523 9.84078L23.5234 9.43945C25.7376 7.05356 28.2818 5.00339 31.0773 3.3526C33.1929 1.81075 35.6782 0.867557 38.2761 0.620599C40.874 0.373642 43.49 0.831893 45.8536 1.94794L46.3837 2.41616C44.0544 1.31502 41.4771 0.858614 38.9156 1.09368C36.3541 1.32874 33.9005 2.24683 31.8061 3.75393C29.0107 5.40472 26.4664 7.45489 24.2523 9.84078V9.84078Z" fill="#F1F0FF"/>
<path d="M47.1781 1.61376C44.7445 0.390617 42.0258 -0.137522 39.3163 0.0864787C36.6068 0.310479 34.0095 1.27809 31.8054 2.88465C25.1945 7.13707 19.8028 13.064 16.1677 20.075C12.0946 27.0922 9.8173 35.0232 9.5415 43.1515V49.8404L10.2704 49.439V42.7502C10.5671 34.9981 12.672 27.4262 16.414 20.6502C20.156 13.8741 25.4294 8.08521 31.8054 3.7542C34.123 1.9952 36.927 1.01097 39.8256 0.939018C42.7243 0.867065 45.5728 1.71098 47.9732 3.35286L48.7021 2.68398L47.1781 1.61376Z" fill="#F1F0FF"/>
<path d="M11.6617 61.4119L10.9329 61.8132C11.1113 61.6863 11.254 61.5148 11.3469 61.3154C11.4398 61.1161 11.4798 60.8958 11.463 60.6761L12.1918 60.2079C12.2209 60.4383 12.1869 60.6724 12.0934 60.8846C12 61.0969 11.8507 61.2793 11.6617 61.4119Z" fill="#F1F0FF"/>
<path d="M11.4631 60.676L12.192 60.2078C12.2366 60.4285 12.2366 60.656 12.192 60.8767L11.4631 61.3449C11.5002 61.1235 11.5002 60.8974 11.4631 60.676V60.676Z" fill="#F1F0FF"/>
<path d="M11.3304 61.3452L12.0593 60.877C11.9829 61.0915 11.8444 61.278 11.6617 61.4121L10.9329 61.8134C11.0287 61.769 11.1139 61.7042 11.1826 61.6234C11.2512 61.5425 11.3017 61.4476 11.3304 61.3452V61.3452Z" fill="#F1F0FF"/>
<path d="M7.55176 43.6196L8.28064 43.2182C8.47202 43.1067 8.68913 43.048 8.91012 43.048C9.13112 43.048 9.34822 43.1067 9.53961 43.2182L8.87699 43.6196C8.67351 43.5083 8.44577 43.4501 8.21437 43.4501C7.98298 43.4501 7.75523 43.5083 7.55176 43.6196V43.6196Z" fill="#F1F0FF"/>
<path d="M7.55176 43.6196L8.28064 43.2182C8.47202 43.1067 8.68913 43.048 8.91012 43.048C9.13112 43.048 9.34822 43.1067 9.53961 43.2182L8.87699 43.6196C8.67351 43.5083 8.44577 43.4501 8.21437 43.4501C7.98298 43.4501 7.75523 43.5083 7.55176 43.6196V43.6196Z" fill="#F1F0FF"/>
<path d="M11.5294 47.4322L12.192 47.0308V60.2079L11.4631 60.6761L11.5294 47.4322Z" fill="#F1F0FF"/>
<path d="M8.81104 43.7531L9.53991 43.3518L10.4013 43.82L9.67244 44.2882L8.81104 43.7531Z" fill="#F1F0FF"/>
<path d="M9.67358 44.2218L10.4025 43.8204C10.9038 44.1561 11.3245 44.6006 11.634 45.1213C11.9435 45.642 12.134 46.2259 12.1915 46.8304L11.4626 47.2317C11.4098 46.626 11.2213 46.0403 10.9114 45.5188C10.6015 44.9974 10.1782 44.5539 9.67358 44.2218V44.2218Z" fill="#F1F0FF"/>
<path d="M9.67358 44.2218L10.4025 43.8204L9.67358 44.2218Z" fill="#F1F0FF"/>
<path d="M9.87231 44.3561L10.6012 43.9548C10.8542 44.1427 11.0776 44.3682 11.2638 44.6237L10.5349 45.025L9.87231 44.3561Z" fill="#F1F0FF"/>
<path d="M10.5344 45.025L11.2633 44.6237C11.7918 45.2445 12.116 46.0159 12.191 46.831L11.4621 47.2323C11.4415 46.3648 11.1122 45.5338 10.5344 44.8912V45.025Z" fill="#F1F0FF"/>
<path d="M11.5281 47.3653L12.1907 46.964V47.0309L11.5281 47.4322V47.3653Z" fill="#F1F0FF"/>
<path d="M9.67327 44.222C10.2038 44.5741 10.643 45.0493 10.9543 45.6078C11.2655 46.1664 11.4397 46.7921 11.4623 47.4326V60.8103C11.4623 61.9474 10.6009 62.4156 9.60701 61.8136L8.81187 61.3454C8.28501 60.9996 7.84378 60.5363 7.52213 59.9913C7.20048 59.4463 7.00699 58.834 6.95654 58.2017V44.824C6.95654 43.6869 7.75168 43.2186 8.81187 43.7537L9.67327 44.222Z" fill="#F1F0FF"/>
<path d="M51.2191 8.63753C49.4057 7.658 47.3784 7.15212 45.3218 7.16599C45.6944 8.10055 45.8748 9.10191 45.8519 10.1091C47.1837 10.2227 48.4738 10.634 49.6288 11.3131C49.7471 11.3908 49.8852 11.4322 50.0264 11.4322C50.1675 11.4322 50.3056 11.3908 50.4239 11.3131C50.737 11.0988 51.0068 10.8265 51.2191 10.5104C51.6166 9.70775 51.6166 8.90509 51.2191 8.63753Z" fill="#BBB1EF"/>
<path d="M43.3354 25.2927L45.4558 24.0218C46.8903 23.3573 48.4734 23.0877 50.0445 23.2404C51.6156 23.3931 53.1187 23.9627 54.4011 24.8914L52.2145 26.1623C50.945 25.233 49.4528 24.6625 47.892 24.5096C46.3312 24.3568 44.7582 24.6271 43.3354 25.2927V25.2927Z" fill="#BBB1EF"/>
<path d="M43.3354 25.2927L45.4558 24.0218C46.8903 23.3573 48.4734 23.0877 50.0445 23.2404C51.6156 23.3931 53.1187 23.9627 54.4011 24.8914L52.2145 26.1623C50.945 25.233 49.4528 24.6625 47.892 24.5096C46.3312 24.3568 44.7582 24.6271 43.3354 25.2927V25.2927Z" fill="#BBB1EF"/>
<path d="M63.2126 54.7898L61.0259 56.0607C62.2882 55.1575 63.2907 53.9326 63.9309 52.5107C64.5711 51.0889 64.8263 49.521 64.6703 47.9671C64.4534 43.5963 63.2109 39.34 61.045 35.5488C58.8792 31.7577 55.8522 28.5402 52.2131 26.1615L54.3998 24.8906C58.0452 27.2945 61.0746 30.5359 63.2399 34.3493C65.4052 38.1628 66.6447 42.4398 66.857 46.83C66.9889 48.3623 66.722 49.9028 66.0828 51.2989C65.4436 52.695 64.4542 53.8984 63.2126 54.7898V54.7898Z" fill="#BBB1EF"/>
<path d="M52.2131 26.1615L54.3998 24.8906L55.7913 25.8271L53.6046 27.0979L52.2131 26.1615V26.1615Z" fill="#BBB1EF"/>
<path d="M53.6042 27.0975L55.7909 25.8266C57.5026 27.0605 59.0407 28.5231 60.3629 30.1744L58.2426 31.4452C56.897 29.7922 55.3368 28.3298 53.6042 27.0975V27.0975Z" fill="#BBB1EF"/>
<path d="M58.2423 31.4457L60.3627 30.1748C64.2227 34.6943 66.5452 40.3444 66.9888 46.2949L64.8022 47.5658C64.3359 41.6208 62.0162 35.9775 58.176 31.4457H58.2423Z" fill="#BBB1EF"/>
<path d="M64.6692 47.5654L66.8558 46.2945V46.8296C66.87 48.4318 66.5775 50.0216 65.9944 51.5118L63.874 52.7827C64.4345 51.288 64.7045 49.6983 64.6692 48.1005V47.5654V47.5654Z" fill="#BBB1EF"/>
<path d="M63.8755 52.6492L66.2609 51.3783C65.7429 52.8008 64.7616 54.0036 63.4779 54.7896L61.2913 56.0605C62.5998 55.2861 63.6055 54.082 64.1405 52.6492H63.8755Z" fill="#BBB1EF"/>
<path d="M60.9978 56.0791C65.8705 53.2209 65.856 44.0163 60.9653 35.5201C56.0746 27.0239 48.1598 22.4535 43.287 25.3117C38.4143 28.1699 38.4288 37.3745 43.3195 45.8707C48.2102 54.3669 56.125 58.9374 60.9978 56.0791Z" fill="#BBB1EF"/>
<path d="M37.1724 26.7639L42.2082 23.8208C43.7895 23.084 45.5357 22.7826 47.2697 22.947C49.0036 23.1115 50.6636 23.736 52.0812 24.7573L47.0453 27.7004C45.6277 26.6791 43.9677 26.0546 42.2338 25.8901C40.4998 25.7257 38.7536 26.0271 37.1724 26.7639V26.7639Z" fill="#6D63CE"/>
<path d="M37.1724 26.7639L42.2082 23.8208C43.7895 23.084 45.5357 22.7826 47.2697 22.947C49.0036 23.1115 50.6636 23.736 52.0812 24.7573L47.0453 27.7004C45.6277 26.6791 43.9677 26.0546 42.2338 25.8901C40.4998 25.7257 38.7536 26.0271 37.1724 26.7639V26.7639Z" fill="#6D63CE"/>
<path d="M61.7562 57.3983L56.7866 60.2076C58.1694 59.1965 59.2645 57.8361 59.9623 56.263C60.6601 54.6899 60.936 52.9593 60.7623 51.2446C60.4916 46.4573 59.1091 41.8014 56.7263 37.6531C54.3436 33.5049 51.0276 29.9807 47.0461 27.3654L52.082 24.4223C56.0934 27.0534 59.4285 30.6083 61.8131 34.7946C64.1977 38.9809 65.5635 43.679 65.7982 48.5022C65.9805 50.215 65.7012 51.9458 64.9897 53.5116C64.2783 55.0775 63.1611 56.4203 61.7562 57.3983V57.3983Z" fill="#6D63CE"/>
<path d="M47.0461 27.3654L52.082 24.4223L53.606 25.4256L48.5702 28.3687L47.0461 27.3654Z" fill="#6D63CE"/>
<path d="M48.5698 28.3682L53.6057 25.4251C55.4861 26.8008 57.1792 28.42 58.6416 30.2411L53.672 33.4517C52.1551 31.6587 50.4437 30.0433 48.5698 28.6358V28.3682Z" fill="#6D63CE"/>
<path d="M53.6724 33.4516L58.642 30.5085C62.7988 35.4419 65.3037 41.5759 65.7982 48.0333L60.7624 50.9764C60.2645 44.532 57.7859 38.4053 53.6724 33.4516V33.4516Z" fill="#6D63CE"/>
<path d="M60.7615 50.9773L65.7973 48.0342V48.5024C65.7998 50.2123 65.5083 51.9097 64.9359 53.519L59.635 56.5959C60.2283 54.9458 60.5202 53.2008 60.4964 51.4455V50.9773H60.7615Z" fill="#6D63CE"/>
<path d="M59.6364 56.5962L64.9373 53.5193C64.3265 55.0946 63.2055 56.4148 61.7567 57.2651L56.7871 60.2082C58.0751 59.3209 59.0681 58.0621 59.6364 56.5962Z" fill="#6D63CE"/>
<path d="M47.0458 27.3664C51.0534 30.0015 54.3857 33.5574 56.7698 37.7429C59.1539 41.9283 60.522 46.6243 60.762 51.4463C60.762 60.2756 54.5334 63.8207 46.9133 59.406C42.8821 56.7905 39.5283 53.2408 37.1309 49.0523C34.7336 44.8638 33.3622 40.1579 33.1309 35.3262C33.1309 26.7644 39.757 22.9518 47.0458 27.3664Z" fill="#BBB1EF"/>
<path d="M46.9792 33.4532C49.4967 35.1017 51.5982 37.3207 53.1166 39.9334C54.6351 42.5461 55.5285 45.4805 55.7257 48.5031C55.7257 54.0548 51.75 56.329 46.9792 53.5197C44.4408 51.8619 42.3258 49.6228 40.806 46.9845C39.2862 44.3462 38.4045 41.3831 38.2327 38.336C38.2989 32.7174 42.2084 30.4432 46.9792 33.4532Z" fill="#6D63CE"/>
</svg>
