<svg width="100" height="101" viewBox="0 0 100 101" fill="none" xmlns="http://www.w3.org/2000/svg">
<path fill-rule="evenodd" clip-rule="evenodd" d="M95.2153 18.9742C65.0069 18.9742 34.7987 18.9742 4.59032 18.9742C4.55778 15.5127 4.59034 12.0519 4.68798 8.59164C5.0362 7.48341 5.78489 6.79777 6.93407 6.53472C35.58 6.40412 64.2257 6.40412 92.8716 6.53472C94.0208 6.79777 94.7694 7.48341 95.1177 8.59164C95.2153 12.0519 95.248 15.5127 95.2153 18.9742Z" fill="#9A8E4E"/>
<path opacity="0.998" fill-rule="evenodd" clip-rule="evenodd" d="M4.59072 18.9741C34.7991 18.9741 65.0073 18.9741 95.2157 18.9741C95.2483 43.3961 95.2157 67.818 95.1181 92.2397C94.7409 93.3364 93.9923 94.022 92.872 94.2966C64.2261 94.4273 35.5804 94.4273 6.93447 94.2966C6.0873 94.0343 5.4037 93.5446 4.88369 92.8274C4.59177 68.2207 4.49411 43.6029 4.59072 18.9741Z" fill="#F0ECC3"/>
<path fill-rule="evenodd" clip-rule="evenodd" d="M66.503 27.0059C73.0788 26.9732 79.6544 27.0059 86.2296 27.1039C87.3913 27.5805 87.6842 28.3968 87.1085 29.5526C86.8797 29.8255 86.5868 29.9888 86.2296 30.0423C79.654 30.173 73.0786 30.173 66.503 30.0423C65.5196 29.4521 65.2917 28.6358 65.8194 27.5936C66.043 27.3711 66.271 27.1752 66.503 27.0059Z" fill="#C1B262"/>
<path fill-rule="evenodd" clip-rule="evenodd" d="M60.253 27.006C61.8464 26.8734 62.53 27.5917 62.3038 29.1608C61.8691 30.0152 61.1855 30.309 60.253 30.0424C59.4013 29.6063 59.1083 28.9207 59.3741 27.9855C59.5743 27.557 59.8673 27.2305 60.253 27.006Z" fill="#C1B262"/>
<path fill-rule="evenodd" clip-rule="evenodd" d="M48.3398 59.9168C45.2617 55.7661 42.1367 51.6523 38.9648 47.5753C37.0682 49.8377 35.2779 52.1885 33.5938 54.6276C33.4344 54.8867 33.2064 55.0172 32.9102 55.0194C30.8592 51.4262 28.7107 47.9001 26.4648 44.4409C23.2914 49.5654 20.1664 54.724 17.0898 59.9168C16.0482 59.9168 15.0065 59.9168 13.9648 59.9168C13.9648 49.469 13.9648 39.021 13.9648 28.5732C26.4648 28.5732 38.9648 28.5732 51.4648 28.5732C51.4648 39.021 51.4648 49.469 51.4648 59.9168C50.4232 59.9168 49.3814 59.9168 48.3398 59.9168Z" fill="#C1B262"/>
<path fill-rule="evenodd" clip-rule="evenodd" d="M60.253 33.2747C66.8288 33.242 73.4044 33.2747 79.9796 33.3727C81.1413 33.8493 81.4342 34.6656 80.8585 35.8214C80.6297 36.0943 80.3368 36.2576 79.9796 36.3111C73.404 36.4418 66.8286 36.4418 60.253 36.3111C59.2696 35.7209 59.0417 34.9046 59.5694 33.8624C59.793 33.6399 60.021 33.444 60.253 33.2747Z" fill="#C1B262"/>
<path fill-rule="evenodd" clip-rule="evenodd" d="M33.6905 36.4091C35.2839 36.2764 35.9675 36.9948 35.7413 38.5639C35.3066 39.4182 34.623 39.7121 33.6905 39.4455C32.8388 39.0094 32.5458 38.3238 32.8116 37.3885C33.0118 36.9601 33.3048 36.6336 33.6905 36.4091Z" fill="#C1B262"/>
<path fill-rule="evenodd" clip-rule="evenodd" d="M60.253 39.5435C63.7042 39.5108 67.1545 39.5435 70.6045 39.6415C71.7663 40.1181 72.0592 40.9344 71.4835 42.0902C71.2547 42.3631 70.9618 42.5264 70.6045 42.5799C67.154 42.7106 63.7036 42.7106 60.253 42.5799C59.2696 41.9897 59.0417 41.1734 59.5694 40.1312C59.793 39.9087 60.021 39.7128 60.253 39.5435Z" fill="#C1B262"/>
<path fill-rule="evenodd" clip-rule="evenodd" d="M79.003 39.5435C81.4128 39.5108 83.8215 39.5435 86.2296 39.6415C87.2255 39.9735 87.5835 40.6592 87.3038 41.6984C87.1212 42.2081 86.7631 42.502 86.2296 42.5799C83.8208 42.7106 81.4118 42.7106 79.003 42.5799C78.0196 41.9897 77.7917 41.1734 78.3194 40.1312C78.543 39.9087 78.771 39.7128 79.003 39.5435Z" fill="#C1B262"/>
<path fill-rule="evenodd" clip-rule="evenodd" d="M32.9102 55.0194C33.9359 56.6195 34.9125 58.2519 35.8398 59.9168C29.5898 59.9168 23.3398 59.9168 17.0898 59.9168C20.1664 54.724 23.2914 49.5654 26.4648 44.4409C28.7107 47.9001 30.8592 51.4262 32.9102 55.0194Z" fill="#9A8E4E"/>
<path fill-rule="evenodd" clip-rule="evenodd" d="M60.253 45.8121C62.6628 45.7794 65.0715 45.8121 67.4795 45.91C68.4754 46.2421 68.8335 46.9277 68.5538 47.9669C68.3712 48.4767 68.0131 48.7705 67.4795 48.8485C65.0708 48.9791 62.6618 48.9791 60.253 48.8485C59.2696 48.2582 59.0417 47.4419 59.5694 46.3998C59.793 46.1772 60.021 45.9813 60.253 45.8121Z" fill="#C1B262"/>
<path fill-rule="evenodd" clip-rule="evenodd" d="M48.3398 59.9167C44.1732 59.9167 40.0064 59.9167 35.8398 59.9167C34.9125 58.2518 33.9359 56.6194 32.9102 55.0193C33.2064 55.0171 33.4344 54.8867 33.5938 54.6275C35.2779 52.1884 37.0682 49.8376 38.9648 47.5752C42.1367 51.6522 45.2617 55.7661 48.3398 59.9167Z" fill="#9A8E4E"/>
<path fill-rule="evenodd" clip-rule="evenodd" d="M73.3398 53.6479C73.3398 55.7376 73.3398 57.827 73.3398 59.9167C69.1732 59.9167 65.0064 59.9167 60.8398 59.9167C60.8398 57.827 60.8398 55.7376 60.8398 53.6479C65.0064 53.6479 69.1732 53.6479 73.3398 53.6479Z" fill="#C1B262"/>
<path fill-rule="evenodd" clip-rule="evenodd" d="M73.3398 53.6479C75.4232 53.6479 77.5064 53.6479 79.5898 53.6479C79.5898 55.7376 79.5898 57.827 79.5898 59.9167C77.5064 59.9167 75.4232 59.9167 73.3398 59.9167C73.3398 57.827 73.3398 55.7376 73.3398 53.6479Z" fill="#C1B262"/>
<path fill-rule="evenodd" clip-rule="evenodd" d="M23.3398 66.1855C23.3398 69.3199 23.3398 72.4543 23.3398 75.5886C20.2148 75.5886 17.0898 75.5886 13.9648 75.5886C13.9648 72.4543 13.9648 69.3199 13.9648 66.1855C17.0898 66.1855 20.2148 66.1855 23.3398 66.1855Z" fill="#C1B262"/>
<path fill-rule="evenodd" clip-rule="evenodd" d="M23.3398 66.1855C26.4648 66.1855 29.5898 66.1855 32.7148 66.1855C32.7148 69.3199 32.7148 72.4543 32.7148 75.5886C29.5898 75.5886 26.4648 75.5886 23.3398 75.5886C23.3398 72.4543 23.3398 69.3199 23.3398 66.1855Z" fill="#9A8E4E"/>
<path fill-rule="evenodd" clip-rule="evenodd" d="M32.7148 66.1855C35.8398 66.1855 38.9648 66.1855 42.0898 66.1855C42.0898 69.3199 42.0898 72.4543 42.0898 75.5886C38.9648 75.5886 35.8398 75.5886 32.7148 75.5886C32.7148 72.4543 32.7148 69.3199 32.7148 66.1855Z" fill="#C1B262"/>
<path fill-rule="evenodd" clip-rule="evenodd" d="M42.0898 66.1855C45.2148 66.1855 48.3398 66.1855 51.4648 66.1855C51.4648 69.3199 51.4648 72.4543 51.4648 75.5886C48.3398 75.5886 45.2148 75.5886 42.0898 75.5886C42.0898 72.4543 42.0898 69.3199 42.0898 66.1855Z" fill="#9A8E4E"/>
<path fill-rule="evenodd" clip-rule="evenodd" d="M62.989 66.1855C64.5528 66.153 66.1153 66.1855 67.6765 66.2835C70.0921 67.1149 70.7757 68.7148 69.7272 71.083C69.2413 71.8323 68.5577 72.2568 67.6765 72.3563C66.114 72.487 64.5515 72.487 62.989 72.3563C60.9538 71.2781 60.4005 69.6782 61.3288 67.5568C61.8056 66.9781 62.3591 66.5211 62.989 66.1855Z" fill="#9A8E4E"/>
<path fill-rule="evenodd" clip-rule="evenodd" d="M78.614 66.1855C80.2429 66.153 81.8704 66.1855 83.4968 66.2835C85.9161 67.318 86.4696 68.9831 85.1569 71.2789C84.6802 71.7625 84.1269 72.1216 83.4968 72.3563C81.8692 72.487 80.2415 72.487 78.614 72.3563C76.5788 71.2781 76.0255 69.6782 76.9538 67.5568C77.4306 66.9781 77.9841 66.5211 78.614 66.1855Z" fill="#9A8E4E"/>
<path fill-rule="evenodd" clip-rule="evenodd" d="M19.628 83.4244C24.1206 83.3917 28.6128 83.4244 33.1046 83.5223C34.2663 83.9989 34.5592 84.8152 33.9835 85.971C33.7547 86.2439 33.4618 86.4073 33.1046 86.4608C28.6124 86.5914 24.1202 86.5914 19.628 86.4608C18.6445 85.8705 18.4167 85.0542 18.9444 84.0121C19.168 83.7895 19.3959 83.5936 19.628 83.4244Z" fill="#9A8E4E"/>
<path fill-rule="evenodd" clip-rule="evenodd" d="M46.1905 83.4244C50.6831 83.3917 55.1752 83.4244 59.667 83.5223C60.8288 83.9989 61.1217 84.8152 60.5459 85.971C60.3172 86.2439 60.0243 86.4073 59.667 86.4608C55.1749 86.5914 50.6827 86.5914 46.1905 86.4608C45.2071 85.8705 44.9792 85.0542 45.5069 84.0121C45.7305 83.7895 45.9585 83.5936 46.1905 83.4244Z" fill="#9A8E4E"/>
<path fill-rule="evenodd" clip-rule="evenodd" d="M72.753 83.4244C77.2456 83.3917 81.7378 83.4244 86.2296 83.5223C87.3913 83.9989 87.6842 84.8152 87.1085 85.971C86.8797 86.2439 86.5868 86.4073 86.2296 86.4608C81.7374 86.5914 77.2452 86.5914 72.753 86.4608C71.7696 85.8705 71.5417 85.0542 72.0694 84.0121C72.293 83.7895 72.521 83.5936 72.753 83.4244Z" fill="#9A8E4E"/>
<path fill-rule="evenodd" clip-rule="evenodd" d="M13.3779 83.4243C15.4613 83.5229 15.9821 84.4696 14.9404 86.2648C13.167 86.8946 12.3532 86.2742 12.499 84.4038C12.6992 83.9754 12.9922 83.6488 13.3779 83.4243Z" fill="#9A8E4E"/>
<path fill-rule="evenodd" clip-rule="evenodd" d="M39.9405 83.4243C42.0239 83.5229 42.5446 84.4696 41.503 86.2648C39.7295 86.8946 38.9157 86.2742 39.0616 84.4038C39.2618 83.9754 39.5547 83.6488 39.9405 83.4243Z" fill="#9A8E4E"/>
<path fill-rule="evenodd" clip-rule="evenodd" d="M66.503 83.4243C68.5864 83.5229 69.1071 84.4696 68.0655 86.2648C66.292 86.8946 65.4782 86.2742 65.6241 84.4038C65.8243 83.9754 66.1172 83.6488 66.503 83.4243Z" fill="#9A8E4E"/>
</svg>
