<svg width="100" height="100" viewBox="0 0 100 100" fill="none" xmlns="http://www.w3.org/2000/svg">
<path opacity="0.998" fill-rule="evenodd" clip-rule="evenodd" d="M97.9487 81.3477C72.7534 81.3477 47.5581 81.3477 22.3628 81.3477C15.5269 81.3477 8.69092 81.3477 1.85498 81.3477C1.82243 56.0871 1.85498 30.8268 1.95264 5.56641C2.50602 3.71094 3.71045 2.5065 5.56592 1.95313C35.1231 1.82292 64.6806 1.82292 94.2378 1.95313C96.0933 2.5065 97.2978 3.71094 97.8511 5.56641C97.9487 30.8268 97.9813 56.0871 97.9487 81.3477Z" fill="#CEE4BD"/>
<path fill-rule="evenodd" clip-rule="evenodd" d="M45.1945 7.52947C62.6959 6.46722 74.984 13.8865 82.0586 29.7871C86.124 42.7541 83.8053 54.4393 75.1031 64.8428C63.71 75.8787 50.5872 78.5218 35.735 72.7721C22.8898 66.2904 16.2125 55.8107 15.7031 41.3332C16.2125 28.8089 21.6843 19.1638 32.1181 12.3983C36.2088 9.97892 40.5674 8.35597 45.1945 7.52947Z" fill="#3D8244"/>
<path fill-rule="evenodd" clip-rule="evenodd" d="M46.2461 13.2261C63.1743 12.7015 73.7624 20.6073 78.0103 36.9434C79.3331 49.7785 74.5804 59.6138 63.7517 66.4489C50.2173 72.8257 38.3115 70.6138 28.0346 59.8137C21.2777 51.0603 19.7719 41.4605 23.517 31.0141C28.008 21.1082 35.5843 15.1789 46.2461 13.2261Z" fill="#CEE4BD"/>
<path fill-rule="evenodd" clip-rule="evenodd" d="M40.3788 27.3567C41.5437 27.257 42.6701 27.3978 43.7579 27.7791C49.7651 31.252 55.7727 34.7251 61.7799 38.198C64.5387 40.143 64.7265 42.3017 62.3431 44.6747C56.148 48.2416 49.953 51.8083 43.7579 55.3752C40.9851 56.6869 39.1547 55.8888 38.2668 52.9817C38.079 45.1908 38.079 37.4003 38.2668 29.6094C38.6574 28.5332 39.3614 27.7822 40.3788 27.3567Z" fill="#3D8244"/>
<path opacity="0.994" fill-rule="evenodd" clip-rule="evenodd" d="M1.85595 81.3477C8.69189 81.3477 15.5278 81.3477 22.3638 81.3477C22.3638 86.8814 22.3638 92.4154 22.3638 97.9492C16.7644 97.9818 11.1655 97.9492 5.56689 97.8516C3.71142 97.2983 2.50699 96.0938 1.95361 94.2383C1.85596 89.942 1.82341 85.6451 1.85595 81.3477Z" fill="#1F612D"/>
<path opacity="0.996" fill-rule="evenodd" clip-rule="evenodd" d="M22.3633 81.3477C47.5586 81.3477 72.7539 81.3477 97.9492 81.3477C97.9818 85.6451 97.9492 89.942 97.8516 94.2383C97.2982 96.0938 96.0938 97.2983 94.2383 97.8516C70.2801 97.9492 46.3217 97.9818 22.3633 97.9492C22.3633 92.4154 22.3633 86.8814 22.3633 81.3477Z" fill="#3D8244"/>
<path fill-rule="evenodd" clip-rule="evenodd" d="M8.10547 85.0585C8.95432 85.0261 9.80067 85.0587 10.6445 85.1562C10.7422 85.2538 10.8398 85.3515 10.9375 85.4491C11.0677 88.1835 11.0677 90.9179 10.9375 93.6523C10.8398 93.7499 10.7422 93.8476 10.6445 93.9452C9.79819 94.0755 8.95182 94.0755 8.10547 93.9452C8.00782 93.8476 7.91016 93.7499 7.8125 93.6523C7.68229 90.9179 7.68229 88.1835 7.8125 85.4491C7.95258 85.3429 8.05024 85.2126 8.10547 85.0585Z" fill="#4E9A5F"/>
<path fill-rule="evenodd" clip-rule="evenodd" d="M13.5742 85.0585C14.3582 85.0261 15.1394 85.0587 15.918 85.1562C16.1458 85.2538 16.3086 85.4165 16.4063 85.6444C16.5365 88.3138 16.5365 90.9829 16.4063 93.6523C16.3086 93.7499 16.2109 93.8476 16.1133 93.9452C15.1525 94.1019 14.2085 94.0692 13.2813 93.8476C13.151 91.0482 13.151 88.2485 13.2813 85.4491C13.4213 85.3429 13.519 85.2126 13.5742 85.0585Z" fill="#4E9A5F"/>
<path fill-rule="evenodd" clip-rule="evenodd" d="M66.5039 87.5977C67.0139 88.8945 67.0139 90.1967 66.5039 91.5039C65.1502 93.5281 63.3271 94.0815 61.0352 93.1641C60.4117 92.768 59.8908 92.2797 59.4727 91.6992C59.4727 91.569 59.4076 91.5039 59.2773 91.5039C58.7098 90.1676 58.775 88.8656 59.4727 87.5977C60.8771 85.6 62.7002 85.1117 64.9414 86.1328C65.5648 86.5289 66.0857 87.0172 66.5039 87.5977Z" fill="#4E9A5F"/>
<path fill-rule="evenodd" clip-rule="evenodd" d="M30.1758 87.5977C39.9414 87.5977 49.707 87.5977 59.4727 87.5977C58.775 88.8656 58.7098 90.1676 59.2773 91.5039C49.5768 91.5039 39.8764 91.5039 30.1758 91.5039C30.1758 90.2018 30.1758 88.8998 30.1758 87.5977Z" fill="#CEE4BD"/>
<path fill-rule="evenodd" clip-rule="evenodd" d="M62.2068 87.5977C64.3891 87.5969 65.2027 88.6385 64.6482 90.7227C63.9172 91.4568 63.0383 91.6848 62.0115 91.4062C61.0897 90.7621 60.7967 89.8832 61.1326 88.7695C61.3983 88.2768 61.7563 87.8861 62.2068 87.5977Z" fill="#CEE4BD"/>
<path fill-rule="evenodd" clip-rule="evenodd" d="M66.5039 87.5977C74.3814 87.5977 82.2592 87.5977 90.1367 87.5977C90.1367 88.9648 90.1367 90.332 90.1367 91.6992C82.226 91.7641 74.3482 91.699 66.5039 91.5039C67.0139 90.1967 67.0139 88.8945 66.5039 87.5977Z" fill="#4E9A5F"/>
<path fill-rule="evenodd" clip-rule="evenodd" d="M30.1758 87.5977C30.1758 88.8998 30.1758 90.2018 30.1758 91.5039C39.8764 91.5039 49.5768 91.5039 59.2774 91.5039C59.4077 91.5039 59.4727 91.5689 59.4727 91.6992C49.642 91.6992 39.8112 91.6992 29.9805 91.6992C29.917 90.2955 29.9823 88.9283 30.1758 87.5977Z" fill="#4E9A5F"/>
</svg>
