<svg width="100" height="100" viewBox="0 0 100 100" fill="none" xmlns="http://www.w3.org/2000/svg">
<rect width="100" height="99" rx="5" fill="#3D8244"/>
<path opacity="0.999" fill-rule="evenodd" clip-rule="evenodd" d="M35.9831 23.451C31.7013 23.451 27.4194 23.451 23.1376 23.451C23.1628 25.5504 23.1375 27.638 23.0616 29.7137C20.7306 29.7253 18.3996 29.7137 16.0688 29.6789C15.7507 29.5614 15.5227 29.3643 15.3848 29.0874C15.3848 27.2086 15.3848 25.3298 15.3848 23.451C17.9437 23.451 20.5027 23.451 23.0616 23.451C23.0616 21.3634 23.0616 19.2759 23.0616 17.1883C26.7724 14.7781 30.4968 12.3774 34.2349 9.98623C34.9834 9.70965 35.5535 9.88361 35.9451 10.5081C35.9831 14.8223 35.9958 19.1366 35.9831 23.451Z" fill="#CEE4BD"/>
<path fill-rule="evenodd" clip-rule="evenodd" d="M23.0616 17.1884C23.0616 19.276 23.0616 21.3636 23.0616 23.4511C20.5027 23.4511 17.9437 23.4511 15.3848 23.4511C15.3848 21.5723 15.3848 19.6935 15.3848 17.8147C15.5227 17.5378 15.7507 17.3407 16.0688 17.2232C18.3996 17.1884 20.7306 17.1768 23.0616 17.1884Z" fill="#CEE4BD"/>
<path fill-rule="evenodd" clip-rule="evenodd" d="M35.984 23.4512C35.9967 27.7655 35.984 32.0798 35.946 36.394C35.5544 37.0186 34.9843 37.1925 34.2358 36.9159C30.4977 34.5248 26.7732 32.1241 23.0625 29.7138C23.1384 27.6382 23.1637 25.5506 23.1385 23.4512C27.4203 23.4512 31.7022 23.4512 35.984 23.4512Z" fill="#CEE4BD"/>
<path d="M61.485 77C61.375 77 61.285 76.965 61.215 76.895C61.145 76.825 61.11 76.735 61.11 76.625V66.875C61.11 66.765 61.145 66.675 61.215 66.605C61.285 66.535 61.375 66.5 61.485 66.5H63.12C63.23 66.5 63.32 66.535 63.39 66.605C63.46 66.675 63.495 66.765 63.495 66.875V70.625H67.56V66.875C67.56 66.765 67.595 66.675 67.665 66.605C67.735 66.535 67.825 66.5 67.935 66.5H69.57C69.68 66.5 69.77 66.535 69.84 66.605C69.91 66.675 69.945 66.765 69.945 66.875V76.625C69.945 76.735 69.91 76.825 69.84 76.895C69.77 76.965 69.68 77 69.57 77H67.935C67.825 77 67.735 76.965 67.665 76.895C67.595 76.825 67.56 76.735 67.56 76.625V72.755H63.495V76.625C63.495 76.735 63.46 76.825 63.39 76.895C63.32 76.965 63.23 77 63.12 77H61.485ZM75.7546 77.165C74.8546 77.165 74.0996 77.02 73.4896 76.73C72.8796 76.44 72.4146 76.06 72.0946 75.59C71.7846 75.12 71.6196 74.62 71.5996 74.09C71.5996 74 71.6296 73.925 71.6896 73.865C71.7496 73.805 71.8246 73.775 71.9146 73.775H73.6096C73.7296 73.775 73.8246 73.805 73.8946 73.865C73.9746 73.915 74.0346 73.985 74.0746 74.075C74.1746 74.345 74.3046 74.565 74.4646 74.735C74.6346 74.905 74.8296 75.03 75.0496 75.11C75.2696 75.19 75.5046 75.23 75.7546 75.23C76.0746 75.23 76.3696 75.165 76.6396 75.035C76.9096 74.895 77.1246 74.695 77.2846 74.435C77.4446 74.175 77.5246 73.855 77.5246 73.475C77.5246 73.145 77.4496 72.855 77.2996 72.605C77.1496 72.355 76.9396 72.16 76.6696 72.02C76.3996 71.88 76.0946 71.81 75.7546 71.81C75.4946 71.81 75.2796 71.84 75.1096 71.9C74.9496 71.96 74.8146 72.035 74.7046 72.125C74.5946 72.205 74.4946 72.28 74.4046 72.35C74.3146 72.41 74.2146 72.44 74.1046 72.44H72.4396C72.3496 72.44 72.2696 72.41 72.1996 72.35C72.1396 72.28 72.1096 72.2 72.1096 72.11L72.6346 66.935C72.6546 66.795 72.7046 66.69 72.7846 66.62C72.8746 66.54 72.9796 66.5 73.0996 66.5H78.9196C79.0296 66.5 79.1196 66.535 79.1896 66.605C79.2596 66.675 79.2946 66.765 79.2946 66.875V68.075C79.2946 68.175 79.2596 68.26 79.1896 68.33C79.1196 68.4 79.0296 68.435 78.9196 68.435H74.5846L74.3596 70.64C74.5596 70.51 74.8046 70.395 75.0946 70.295C75.3946 70.185 75.8096 70.13 76.3396 70.13C76.8196 70.13 77.2746 70.21 77.7046 70.37C78.1446 70.52 78.5346 70.745 78.8746 71.045C79.2146 71.345 79.4796 71.705 79.6696 72.125C79.8696 72.535 79.9696 73.005 79.9696 73.535C79.9696 74.255 79.7996 74.89 79.4596 75.44C79.1196 75.98 78.6346 76.405 78.0046 76.715C77.3746 77.015 76.6246 77.165 75.7546 77.165ZM82.0221 77C81.9121 77 81.8221 76.965 81.7521 76.895C81.6821 76.825 81.6471 76.735 81.6471 76.625V66.875C81.6471 66.765 81.6821 66.675 81.7521 66.605C81.8221 66.535 81.9121 66.5 82.0221 66.5H86.1171C86.9271 66.5 87.6271 66.625 88.2171 66.875C88.8171 67.125 89.2821 67.505 89.6121 68.015C89.9521 68.515 90.1221 69.14 90.1221 69.89C90.1221 70.65 89.9521 71.28 89.6121 71.78C89.2821 72.27 88.8171 72.635 88.2171 72.875C87.6271 73.115 86.9271 73.235 86.1171 73.235H84.1071V76.625C84.1071 76.735 84.0721 76.825 84.0021 76.895C83.9321 76.965 83.8421 77 83.7321 77H82.0221ZM84.0621 71.375H86.0421C86.5521 71.375 86.9471 71.25 87.2271 71C87.5171 70.75 87.6621 70.375 87.6621 69.875C87.6621 69.435 87.5321 69.075 87.2721 68.795C87.0221 68.515 86.6121 68.375 86.0421 68.375H84.0621V71.375Z" fill="#CEE4BD"/>
<path d="M50.7695 0H95.0003C97.7617 0 100 2.23858 100 5V46.4789H50.7695V0Z" fill="#CEE4BD"/>
<path d="M51 99L5 99C2.23858 99 3.60093e-06 96.7614 3.33723e-06 94L-1.24641e-06 46L51 46L51 99Z" fill="#CEE4BD"/>
<path fill-rule="evenodd" clip-rule="evenodd" d="M64.5796 9.87637C65.427 9.80691 66.2281 9.94445 66.9835 10.289C73.5439 14.0944 80.1046 17.8998 86.665 21.7052C87.3467 22.8644 87.1965 23.9188 86.2142 24.8687C80.2542 28.1926 74.3446 31.5852 68.4859 35.0469C67.5748 35.654 66.573 36.0667 65.4811 36.2848C64.3981 36.2713 63.6469 35.8128 63.2275 34.9094C63.027 27.0234 63.027 19.1377 63.2275 11.2518C63.5355 10.6502 63.9862 10.1917 64.5796 9.87637Z" fill="#3D8244"/>
<path d="M16.1535 71.8311L28.8108 91.9015H3.49618L16.1535 71.8311Z" fill="#3D8244"/>
<path d="M32.3072 59.1548L48.2954 89.7886H16.3191L32.3072 59.1548Z" fill="#3D8244"/>
<path d="M37.6925 71.8311L50.3498 91.9015H25.0352L37.6925 71.8311Z" fill="#3D8244"/>
</svg>
