<svg width="100" height="101" viewBox="0 0 100 101" fill="none" xmlns="http://www.w3.org/2000/svg">
<g clip-path="url(#clip0_2588_4943)">
<path opacity="0.986" fill-rule="evenodd" clip-rule="evenodd" d="M73.5352 0.287109C75.4883 0.287109 77.4414 0.287109 79.3945 0.287109C90.8529 2.50064 97.6889 9.33658 99.9023 20.7949C99.9023 22.748 99.9023 24.7012 99.9023 26.6543C99.151 31.4127 97.2303 35.6443 94.1406 39.3496C87.0768 46.4135 80.0131 53.4771 72.9492 60.541C70.5717 62.6406 67.9023 64.2355 64.9414 65.3262C62.0861 65.999 59.1889 66.3896 56.25 66.498C53.8787 66.3254 51.5674 65.8697 49.3164 65.1309C42.2852 62.6568 37.5326 57.9043 35.0586 50.873C36.9783 48.5307 39.485 47.3588 42.5781 47.3574C44.91 47.3752 47.0258 48.0588 48.9258 49.4082C52.2768 53.0779 56.3131 54.1197 61.0352 52.5332C62.1088 52.0947 63.0854 51.5088 63.9648 50.7754C64.3484 50.492 64.6088 50.134 64.7461 49.7012C71.7166 42.9586 78.5201 36.0574 85.1562 28.998C87.3225 24.815 86.9969 20.8438 84.1797 17.084C79.6854 12.8553 74.9002 12.4972 69.8242 16.0098C63.3396 22.4619 56.8943 28.9396 50.4883 35.4434C45.3631 33.709 40.2199 33.6438 35.0586 35.248C35.9822 32.2285 37.5123 29.5592 39.6484 27.2402C46.7123 20.1764 53.776 13.1126 60.8398 6.04883C64.5451 2.9591 68.7768 1.03853 73.5352 0.287109Z" fill="#C1B262"/>
<path opacity="0.986" fill-rule="evenodd" clip-rule="evenodd" d="M50.4883 35.4434C57.5195 37.9174 62.2721 42.6699 64.7461 49.7012C64.6088 50.134 64.3484 50.492 63.9648 50.7754C63.0854 51.5088 62.1088 52.0947 61.0352 52.5332C56.3131 54.1197 52.2768 53.0779 48.9258 49.4082C47.0258 48.0588 44.91 47.3752 42.5781 47.3574C39.485 47.3588 36.9783 48.5307 35.0586 50.873C28.0881 57.6156 21.2846 64.5168 14.6484 71.5762C12.4822 75.7592 12.8077 79.7305 15.625 83.4902C19.4611 87.2273 23.7906 87.9109 28.6133 85.541C35.6727 78.9049 42.5738 72.1014 49.3164 65.1309C51.5674 65.8697 53.8787 66.3254 56.25 66.498C59.1889 66.3896 62.0861 65.999 64.9414 65.3262C63.8453 68.3006 62.2502 70.9699 60.1562 73.334C53.0924 80.3979 46.0287 87.4615 38.9648 94.5254C35.2596 97.615 31.0279 99.5357 26.2695 100.287C24.3164 100.287 22.3633 100.287 20.4102 100.287C8.95182 98.0736 2.11588 91.2377 -0.0976562 79.7793C-0.0976562 77.8262 -0.0976562 75.873 -0.0976562 73.9199C0.653762 69.1615 2.57434 64.9299 5.66406 61.2246C12.7279 54.1607 19.7916 47.0971 26.8555 40.0332C29.2607 37.8861 31.9951 36.291 35.0586 35.248C40.2199 33.6438 45.3631 33.709 50.4883 35.4434Z" fill="#9A8E4E"/>
</g>
<defs>
<clipPath id="clip0_2588_4943">
<rect width="100" height="100" fill="white" transform="translate(0 0.384766)"/>
</clipPath>
</defs>
</svg>
