<svg width="118" height="116" viewBox="0 0 118 116" fill="none" xmlns="http://www.w3.org/2000/svg">
<g filter="url(#filter0_d_877:314)">
<path d="M78.4691 52.9831L71.4902 11.9556C71.4486 11.6407 71.3448 11.3372 71.1851 11.0628C71.0253 10.7884 70.8128 10.5485 70.5597 10.3571V10.0241H69.7621C69.5859 9.99766 69.4067 9.99766 69.2304 10.0241L17.786 34.0012C17.1506 34.3527 16.6417 34.8956 16.3315 35.5531C16.0214 36.2106 15.9256 36.9493 16.0579 37.6644L23.1032 78.6252C23.1032 79.4911 23.7679 80.0239 24.3661 80.0239H25.0972L77.2063 55.7804C77.6724 55.4947 78.042 55.0752 78.2672 54.5764C78.4924 54.0776 78.5627 53.5225 78.4691 52.9831Z" fill="#FFC2B6"/>
<path d="M69.6975 10.3579L18.5189 34.1351C17.8958 34.4963 17.4007 35.0434 17.1028 35.7001C16.8049 36.3568 16.7191 37.0904 16.8573 37.7983L23.5039 78.7592C23.5039 79.8914 24.5673 80.4909 25.4978 80.0246L78.0057 55.7811C78.4718 55.4954 78.8414 55.076 79.0666 54.5771C79.2918 54.0783 79.3622 53.5232 79.2686 52.9838L72.2897 12.0229C72.2897 10.5577 70.8939 9.75843 69.6975 10.3579Z" fill="#BA503A"/>
<path d="M70.8931 11.5561L17.8535 36.1992L24.6995 76.2276L77.7391 51.5845L70.8931 11.5561Z" fill="#FFC2B6"/>
<path d="M27.2917 46.9225L25.4971 47.7883C25.4971 47.7883 25.4971 47.7883 25.1648 47.7883L23.5696 48.5209C23.5237 48.4371 23.4531 48.3695 23.3675 48.3272C23.2819 48.2849 23.1854 48.27 23.0911 48.2846C22.9968 48.2991 22.9092 48.3424 22.8402 48.4085C22.7713 48.4746 22.7242 48.5604 22.7056 48.6541V49.0538L23.1044 52.0509L27.8234 49.9862H28.0228L27.624 47.2555L27.2917 46.9225Z" fill="#BA503A"/>
<path d="M27.425 47.1895L23.1047 49.1876L23.4371 51.7185L27.8238 49.9869H28.0232L27.6909 47.3227C27.6909 47.3227 27.5579 47.1229 27.425 47.1895Z" fill="#BA503A"/>
<path d="M25.8298 39.7293L23.9688 40.5952H23.6365L21.9748 41.3278C21.9453 41.3902 21.9299 41.4585 21.9299 41.5276C21.9299 41.5967 21.9453 41.665 21.9748 41.7274V42.127L22.4401 45.1908L26.3616 43.3259L25.9628 40.5286C25.9628 40.5286 25.9628 39.6627 25.8298 39.7293Z" fill="#BA503A"/>
<path d="M25.8954 39.9961L21.6416 41.9942L22.0404 44.5917L26.3607 43.3262L25.9619 40.7287C25.9619 40.7287 26.0283 39.9295 25.8954 39.9961Z" fill="#BA503A"/>
<path d="M69.2325 18.0834L67.4379 18.9493H67.1056L65.444 19.6819C65.4144 19.7443 65.3991 19.8126 65.3991 19.8817C65.3991 19.9508 65.4144 20.0191 65.444 20.0815V20.4811L65.311 23.3451L69.5648 21.347C69.594 21.2963 69.6094 21.2389 69.6094 21.1805C69.6094 21.122 69.594 21.0646 69.5648 21.0139L69.0996 18.2166C69.0996 18.2166 69.2325 18.0168 69.2325 18.0834Z" fill="#BA503A"/>
<path d="M69.2305 18.3503L64.9767 20.3484C64.9475 20.399 64.9321 20.4565 64.9321 20.5149C64.9321 20.5734 64.9475 20.6308 64.9767 20.6814L65.309 23.3455L69.5628 21.3475C69.592 21.2968 69.6073 21.2394 69.6073 21.1809C69.6073 21.1225 69.592 21.0651 69.5628 21.0144L69.164 18.4169C69.164 18.4169 69.2305 18.2837 69.2305 18.3503Z" fill="#BA503A"/>
<path d="M111.304 78.5595V76.6946H109.776L81.2619 56.6471C80.7562 56.3143 80.1771 56.11 79.5749 56.052C78.9727 55.9939 78.3654 56.0839 77.8057 56.3141L28.9534 79.0923H25.763V81.157C25.7457 81.3831 25.7927 81.6095 25.8986 81.8099C26.0044 82.0103 26.1649 82.1765 26.3612 82.2892L55.5397 102.803C56.2505 103.238 57.0503 103.505 57.8791 103.586C58.7079 103.667 59.5441 103.558 60.3252 103.269L110.44 79.7583C110.707 79.6701 110.946 79.5128 111.133 79.3022C111.32 79.0917 111.448 78.8355 111.504 78.5595H111.304Z" fill="#BA503A"/>
<path d="M110.639 75.2285L81.4607 54.6482C80.9113 54.3827 80.3093 54.2448 79.6993 54.2448C79.0894 54.2448 78.4874 54.3827 77.938 54.6482L26.4936 78.4255C25.4966 78.9583 25.4301 79.8241 26.4936 80.4902L55.672 101.004C56.3581 101.468 57.1488 101.754 57.9727 101.835C58.7966 101.917 59.6277 101.791 60.3911 101.47L110.506 78.0259C111.902 77.3598 112.035 76.0944 110.506 75.2285H110.639Z" fill="#FFC2B6"/>
<path d="M98.4094 68.0354L81.1948 55.9137C80.8491 55.7212 80.4602 55.6202 80.0648 55.6202C79.6694 55.6202 79.2805 55.7212 78.9349 55.9137L28.6204 79.2248C27.9557 79.2248 27.8893 80.1572 28.6204 80.5568L45.835 92.6786C46.1974 92.8552 46.5951 92.9471 46.9982 92.9471C47.4012 92.9471 47.7989 92.8552 48.1613 92.6786L98.4094 69.1011C98.9411 69.0345 99.0076 68.4351 98.4094 68.0354Z" fill="#FFC2B6"/>
<path d="M94.7542 83.2881L86.1801 76.6278C85.8801 76.4807 85.5504 76.4042 85.2164 76.4042C84.8823 76.4042 84.5527 76.4807 84.2526 76.6278L63.4489 86.5516C62.8507 86.5516 62.8507 87.2843 63.4489 87.6173L72.023 93.6782C72.323 93.8252 72.6527 93.9017 72.9867 93.9017C73.3208 93.9017 73.6504 93.8252 73.9505 93.6782L94.8207 83.9541C94.938 83.9132 95.0397 83.8367 95.1116 83.7353C95.1836 83.6338 95.2223 83.5124 95.2223 83.388C95.2223 83.2635 95.1836 83.1421 95.1116 83.0407C95.0397 82.9392 94.938 82.8628 94.8207 82.8219L94.7542 83.2881Z" fill="#FFC2B6"/>
<path d="M63.3828 86.818L84.253 77.0274C84.5481 76.8641 84.8797 76.7785 85.2168 76.7785C85.5539 76.7785 85.8855 76.8641 86.1805 77.0274L94.7546 83.0217L95.0869 83.4879C95.1321 83.3462 95.1231 83.1928 95.0617 83.0574C95.0003 82.922 94.8908 82.8143 94.7546 82.7553L86.1805 76.6278C85.8805 76.4807 85.5508 76.4042 85.2168 76.4042C84.8827 76.4042 84.5531 76.4807 84.253 76.6278L63.4493 86.5516C63.4493 86.5516 62.9176 86.9512 62.984 87.1511C63.0248 87.0716 63.0811 87.0011 63.1496 86.9439C63.2181 86.8867 63.2974 86.8439 63.3828 86.818Z" fill="#BA503A"/>
<path d="M36.5977 81.6892L34.5372 80.2239C34.2802 80.1267 33.9967 80.1267 33.7396 80.2239L31.4133 81.2895L33.5402 82.7548C33.6634 82.819 33.8002 82.8526 33.939 82.8526C34.0779 82.8526 34.2147 82.819 34.3378 82.7548L36.6641 81.6892C36.6641 81.6892 36.5977 81.8224 36.5977 81.6892Z" fill="#393842"/>
<path d="M49.8904 91.0801L47.8299 89.6148C47.7068 89.5506 47.57 89.5171 47.4311 89.5171C47.2923 89.5171 47.1555 89.5506 47.0324 89.6148L44.7061 90.6805L46.833 92.1457C46.948 92.2322 47.0879 92.279 47.2317 92.279C47.3756 92.279 47.5155 92.2322 47.6305 92.1457L49.9568 91.0801H49.8904Z" fill="#393842"/>
<path d="M53.4785 89.3492L51.418 87.8839C51.1622 87.7802 50.8762 87.7802 50.6204 87.8839L48.3606 88.9496L50.421 90.4148C50.5558 90.4798 50.7035 90.5135 50.8531 90.5135C51.0026 90.5135 51.1503 90.4798 51.2851 90.4148L53.2791 89.9486C53.2791 89.9486 53.4785 89.4824 53.4785 89.3492Z" fill="#393842"/>
<path d="M57.1343 87.6841L55.0738 86.2189C54.9552 86.1415 54.8166 86.1003 54.675 86.1003C54.5335 86.1003 54.3949 86.1415 54.2762 86.2189L51.95 87.2845L54.0769 88.7498C54.2 88.814 54.3368 88.8475 54.4756 88.8475C54.6145 88.8475 54.7513 88.814 54.8744 88.7498L57.2007 87.6841H57.1343Z" fill="#393842"/>
<path d="M60.7896 85.9515L58.7291 84.4862C58.6059 84.422 58.4692 84.3885 58.3303 84.3885C58.1915 84.3885 58.0547 84.422 57.9315 84.4862L55.6052 85.5518L57.7321 87.0837C57.9879 87.1874 58.2739 87.1874 58.5297 87.0837L60.856 85.9515H60.7896Z" fill="#393842"/>
<path d="M40.1873 80.0244L38.0604 78.5592C37.9372 78.4949 37.8004 78.4614 37.6616 78.4614C37.5227 78.4614 37.3859 78.4949 37.2628 78.5592L35.0029 79.6248L37.1298 81.0901C37.253 81.1543 37.3898 81.1878 37.5286 81.1878C37.6675 81.1878 37.8043 81.1543 37.9274 81.0901L40.2537 80.0244H40.1873Z" fill="#393842"/>
<path d="M45.5703 81.3562L43.5099 79.8909C43.3867 79.8267 43.2499 79.7932 43.1111 79.7932C42.9722 79.7932 42.8355 79.8267 42.7123 79.8909L40.386 80.9565L42.5129 82.4884C42.7699 82.5856 43.0535 82.5856 43.3105 82.4884L45.6368 81.3562H45.5703Z" fill="#393842"/>
<path d="M49.2908 79.6909L47.2303 78.2922C47.1117 78.2148 46.9731 78.1736 46.8315 78.1736C46.69 78.1736 46.5514 78.2148 46.4327 78.2922L44.1064 79.3579L46.2333 80.8231C46.3565 80.8873 46.4933 80.9209 46.6321 80.9209C46.771 80.9209 46.9078 80.8873 47.0309 80.8231L49.2908 79.8907V79.6909Z" fill="#393842"/>
<path d="M50.7539 82.8879L48.6935 81.4227C48.5703 81.3584 48.4335 81.3249 48.2947 81.3249C48.1558 81.3249 48.019 81.3584 47.8959 81.4227L45.5696 82.4883L47.6965 83.9536C47.8115 84.04 47.9515 84.0868 48.0953 84.0868C48.2391 84.0868 48.379 84.04 48.4941 83.9536L50.5545 83.2875C50.5545 83.2875 50.6874 83.2875 50.7539 82.8879Z" fill="#393842"/>
<path d="M54.0783 85.2192L51.8185 83.2877C51.6953 83.2235 51.5585 83.1899 51.4197 83.1899C51.2808 83.1899 51.144 83.2235 51.0209 83.2877L48.6946 84.3533L50.8215 85.8852C51.0785 85.9824 51.362 85.9824 51.6191 85.8852L53.9454 84.7529L54.0783 85.2192Z" fill="#393842"/>
<path d="M57.7322 83.2877L55.6717 81.8891C55.5531 81.8117 55.4145 81.7705 55.2729 81.7705C55.1314 81.7705 54.9928 81.8117 54.8742 81.8891L52.5479 82.9547L54.6748 84.42C54.7979 84.4842 54.9347 84.5177 55.0735 84.5177C55.2124 84.5177 55.3492 84.4842 55.4723 84.42L57.7986 83.3544C57.7986 83.3544 57.6657 83.6208 57.7322 83.2877Z" fill="#393842"/>
<path d="M61.3222 81.8228L59.2618 80.3576C59.1386 80.2934 59.0018 80.2598 58.863 80.2598C58.7241 80.2598 58.5873 80.2934 58.4642 80.3576L55.9385 81.0902L57.9989 82.6221C58.2789 82.7185 58.583 82.7185 58.863 82.6221L61.1893 81.4898L61.3222 81.8228Z" fill="#393842"/>
<path d="M64.978 80.0906L62.5853 78.3589C62.3295 78.2552 62.0435 78.2552 61.7877 78.3589L59.5278 79.4912L61.5883 80.9564C61.7114 81.0206 61.8482 81.0542 61.9871 81.0542C62.1259 81.0542 62.2627 81.0206 62.3859 80.9564L64.7122 79.8908C64.7122 79.8908 64.978 80.2238 64.978 80.0906Z" fill="#393842"/>
<path d="M68.6337 78.4258L66.3739 76.6275C66.2507 76.5633 66.1139 76.5298 65.9751 76.5298C65.8363 76.5298 65.6995 76.5633 65.5763 76.6275L63.25 77.6932L65.3769 79.1584C65.4956 79.2358 65.6341 79.277 65.7757 79.277C65.9173 79.277 66.0558 79.2358 66.1745 79.1584L68.5008 78.0928L68.6337 78.4258Z" fill="#393842"/>
<path d="M72.2224 76.6279L70.162 75.1626C69.882 75.0662 69.5779 75.0662 69.2979 75.1626L67.0381 76.2283L69.2315 77.96C69.3546 78.0242 69.4914 78.0577 69.6302 78.0577C69.7691 78.0577 69.9059 78.0242 70.029 77.96L72.3553 76.8943C72.3553 76.8426 72.3433 76.7916 72.3203 76.7454C72.2972 76.6992 72.2637 76.6589 72.2224 76.6279Z" fill="#393842"/>
<path d="M75.8771 75.0289L73.6172 73.2972C73.5022 73.2107 73.3623 73.164 73.2184 73.164C73.0746 73.164 72.9347 73.2107 72.8196 73.2972L70.5598 74.3628L72.6203 75.8281C72.7434 75.8923 72.8802 75.9258 73.019 75.9258C73.1579 75.9258 73.2947 75.8923 73.4178 75.8281L75.8771 75.2287V75.0289Z" fill="#393842"/>
<path d="M79.5339 73.2974L77.4735 71.8321C77.3503 71.7679 77.2135 71.7344 77.0747 71.7344C76.9359 71.7344 76.7991 71.7679 76.6759 71.8321L74.3496 72.8978L76.4765 74.4297C76.7335 74.5268 77.0171 74.5268 77.2741 74.4297L79.6004 73.2974H79.5339Z" fill="#393842"/>
<path d="M83.1899 71.6319L80.93 69.9668C80.8114 69.8895 80.6728 69.8483 80.5312 69.8483C80.3897 69.8483 80.2511 69.8895 80.1325 69.9668L77.8062 71.0325L79.9331 72.4978C80.0562 72.562 80.193 72.5955 80.3318 72.5955C80.4707 72.5955 80.6075 72.562 80.7306 72.4978L83.0569 71.4321L83.1899 71.6319Z" fill="#393842"/>
<path d="M86.7126 73.8307L84.6522 72.3654C84.529 72.3012 84.3922 72.2677 84.2534 72.2677C84.1146 72.2677 83.9778 72.3012 83.8546 72.3654L81.5283 73.4311L83.6552 74.8964C83.7739 74.9737 83.9124 75.0149 84.054 75.0149C84.1956 75.0149 84.3341 74.9737 84.4528 74.8964L86.7791 73.8307H86.7126Z" fill="#393842"/>
<path d="M90.302 72.0981L88.2416 70.6328C87.9616 70.5364 87.6575 70.5364 87.3775 70.6328L85.1177 71.6985L87.2446 73.1637C87.3677 73.2279 87.5045 73.2615 87.6434 73.2615C87.7822 73.2615 87.919 73.2279 88.0422 73.1637L90.3685 72.0981C90.3464 72.0959 90.3241 72.0959 90.302 72.0981Z" fill="#393842"/>
<path d="M97.6782 68.7021L95.6177 67.3034C95.4946 67.2392 95.3578 67.2057 95.2189 67.2057C95.0801 67.2057 94.9433 67.2392 94.8201 67.3034L92.5603 68.4357L94.6207 69.9009C94.7555 69.9659 94.9032 69.9996 95.0528 69.9996C95.2023 69.9996 95.35 69.9659 95.4848 69.9009L97.7446 68.8353L97.6782 68.7021Z" fill="#393842"/>
<path d="M94.2229 66.0371L92.1625 64.6384C92.0438 64.561 91.9053 64.5198 91.7637 64.5198C91.6221 64.5198 91.4835 64.561 91.3649 64.6384H91.0325L89.0386 65.5709L91.1655 67.0361C91.2805 67.1226 91.4205 67.1693 91.5643 67.1693C91.7081 67.1693 91.848 67.1226 91.9631 67.0361L94.6217 65.8373L94.2229 66.0371Z" fill="#393842"/>
<path d="M86.779 69.9672L84.7186 68.5019C84.5954 68.4377 84.4586 68.4042 84.3198 68.4042C84.1809 68.4042 84.0441 68.4377 83.921 68.5019L81.6611 69.5676L83.7216 71.0995C84.0016 71.1959 84.3056 71.1959 84.5856 71.0995L86.5796 69.9672H86.779Z" fill="#393842"/>
<path d="M90.4348 68.1686L88.3744 66.7033C88.1186 66.5997 87.8326 66.5997 87.5768 66.7033L85.2505 67.8356L87.3109 69.3009C87.4341 69.3651 87.5709 69.3986 87.7097 69.3986C87.8486 69.3986 87.9854 69.3651 88.1085 69.3009L90.4348 68.2352C90.4348 68.2352 90.4348 68.3018 90.4348 68.1686Z" fill="#393842"/>
<path d="M54.3431 81.1563L52.2827 79.6911C52.1595 79.6268 52.0227 79.5933 51.8839 79.5933C51.7451 79.5933 51.6083 79.6268 51.4851 79.6911L49.2917 80.4237L51.3522 81.9556C51.6322 82.052 51.9363 82.052 52.2162 81.9556L54.5425 80.8233C54.5425 80.8233 54.3431 81.2229 54.3431 81.1563Z" fill="#393842"/>
<path d="M57.9978 79.4921L55.9374 77.7604C55.8223 77.6739 55.6824 77.6272 55.5386 77.6272C55.3948 77.6272 55.2548 77.6739 55.1398 77.7604L52.8135 78.826L54.8739 80.2913C54.9971 80.3555 55.1339 80.389 55.2727 80.389C55.4115 80.389 55.5483 80.3555 55.6715 80.2913L57.9978 79.2256V79.4921Z" fill="#393842"/>
<path d="M61.6545 77.7595L59.5941 76.2942C59.4709 76.23 59.3341 76.1965 59.1953 76.1965C59.0565 76.1965 58.9197 76.23 58.7965 76.2942L56.4702 77.3599H55.9385L58.0654 78.8918C58.3224 78.9889 58.6059 78.9889 58.863 78.8918L61.1893 77.7595H61.6545Z" fill="#393842"/>
<path d="M65.2441 76.0282L63.1837 74.5629C62.9037 74.4665 62.5996 74.4665 62.3196 74.5629L60.0598 75.6952L62.1867 77.1605C62.3099 77.2247 62.4467 77.2582 62.5855 77.2582C62.7243 77.2582 62.8611 77.2247 62.9843 77.1605L65.1112 76.6276C65.1756 76.616 65.2351 76.5855 65.2823 76.54C65.3295 76.4946 65.3622 76.4362 65.3764 76.3722C65.3906 76.3082 65.3857 76.2414 65.3621 76.1802C65.3386 76.119 65.2975 76.0661 65.2441 76.0282Z" fill="#393842"/>
<path d="M69.2311 74.3625L66.639 72.6308C66.5158 72.5666 66.379 72.5331 66.2402 72.5331C66.1013 72.5331 65.9645 72.5666 65.8414 72.6308L63.5815 73.6964L65.642 75.1617C65.7651 75.2259 65.9019 75.2594 66.0408 75.2594C66.1796 75.2594 66.3164 75.2259 66.4396 75.1617L68.7659 74.0294L69.2311 74.3625Z" fill="#393842"/>
<path d="M72.554 72.6317L70.4935 71.1665C70.2365 71.0693 69.953 71.0693 69.6959 71.1665L67.3696 72.2321L69.2307 73.8972C69.3538 73.9614 69.4906 73.9949 69.6295 73.9949C69.7683 73.9949 69.9051 73.9614 70.0283 73.8972L72.3546 72.8315C72.3546 72.8315 72.554 72.7649 72.554 72.6317Z" fill="#393842"/>
<path d="M76.2092 70.9659H75.8768L73.8164 69.5006C73.6932 69.4364 73.5564 69.4029 73.4176 69.4029C73.2788 69.4029 73.142 69.4364 73.0188 69.5006L70.8254 69.9669L72.9523 71.4321C73.0674 71.5186 73.2073 71.5653 73.3511 71.5653C73.4949 71.5653 73.6349 71.5186 73.7499 71.4321L75.8768 71.1657L76.2092 70.9659Z" fill="#393842"/>
<path d="M79.799 69.235L77.7386 67.7697C77.4828 67.666 77.1968 67.666 76.941 67.7697L74.6812 68.8354L76.7416 70.3672C77.0216 70.4637 77.3257 70.4637 77.6056 70.3672L79.8655 69.3016C79.8466 69.2763 79.8242 69.2539 79.799 69.235Z" fill="#393842"/>
<path d="M83.4555 67.5699L81.1957 65.8383C81.077 65.7609 80.9385 65.7197 80.7969 65.7197C80.6553 65.7197 80.5167 65.7609 80.3981 65.8383L78.0718 66.9039L80.1987 68.3692C80.3218 68.4334 80.4586 68.4669 80.5975 68.4669C80.7363 68.4669 80.8731 68.4334 80.9963 68.3692L83.3226 67.3035L83.4555 67.5699Z" fill="#393842"/>
<path d="M52.8149 77.9593L50.688 76.4941C50.5649 76.4299 50.4281 76.3963 50.2892 76.3963C50.1504 76.3963 50.0136 76.4299 49.8904 76.4941L47.6306 77.5597L49.7575 79.0916C50.0133 79.1953 50.2993 79.1953 50.5551 79.0916L52.8814 77.9593C52.8814 77.9593 52.8149 78.0259 52.8149 77.9593Z" fill="#393842"/>
<path d="M56.4706 76.2284L54.4102 74.7632C54.1544 74.6595 53.8684 74.6595 53.6126 74.7632L51.3528 75.8954L53.4132 77.3607C53.5364 77.4249 53.6732 77.4584 53.812 77.4584C53.9509 77.4584 54.0876 77.4249 54.2108 77.3607L56.2712 76.628C56.2712 76.628 56.4706 76.628 56.4706 76.2284Z" fill="#393842"/>
<path d="M60.1265 74.5625L58.066 73.0972C57.9429 73.033 57.8061 72.9995 57.6672 72.9995C57.5284 72.9995 57.3916 73.033 57.2684 73.0972L54.9421 74.1629L57.069 75.6282C57.1922 75.6924 57.329 75.7259 57.4678 75.7259C57.6067 75.7259 57.7435 75.6924 57.8666 75.6282L60.1929 74.4959C60.1929 74.4959 60.1265 74.6291 60.1265 74.5625Z" fill="#393842"/>
<path d="M63.7158 72.8318L61.6554 71.3665C61.3984 71.2694 61.1148 71.2694 60.8578 71.3665L58.5315 72.4322L60.6584 73.8974C60.7816 73.9616 60.9184 73.9952 61.0572 73.9952C61.196 73.9952 61.3328 73.9616 61.456 73.8974L63.7823 72.8318C63.7602 72.8295 63.7379 72.8295 63.7158 72.8318Z" fill="#393842"/>
<path d="M67.3691 71.1657L65.3086 69.7005C65.1855 69.6362 65.0487 69.6027 64.9098 69.6027C64.771 69.6027 64.6342 69.6362 64.5111 69.7005L62.2512 70.7661L64.3117 72.2314C64.4303 72.3088 64.5689 72.35 64.7105 72.35C64.852 72.35 64.9906 72.3088 65.1092 72.2314L67.4355 71.1657H67.3691Z" fill="#393842"/>
<path d="M71.0249 69.435L68.9645 67.9697C68.7074 67.8726 68.4239 67.8726 68.1669 67.9697L65.8406 69.0354L67.9675 70.5672C68.2245 70.6644 68.508 70.6644 68.7651 70.5672L70.8255 69.9678C70.8815 69.9571 70.9339 69.9322 70.9776 69.8954C71.0212 69.8586 71.0546 69.8111 71.0747 69.7576C71.0947 69.704 71.1007 69.6462 71.0919 69.5897C71.0832 69.5332 71.0601 69.48 71.0249 69.435Z" fill="#393842"/>
<path d="M74.6821 67.7689L72.6217 66.3702C72.503 66.2928 72.3645 66.2516 72.2229 66.2516C72.0813 66.2516 71.9428 66.2928 71.8241 66.3702L69.2319 67.0363L71.3588 68.5015C71.482 68.5657 71.6188 68.5993 71.7576 68.5993C71.8965 68.5993 72.0333 68.5657 72.1564 68.5015L74.4827 67.4359L74.6821 67.7689Z" fill="#393842"/>
<path d="M78.2715 66.0371L75.8787 64.3054C75.7556 64.2412 75.6188 64.2077 75.4799 64.2077C75.3411 64.2077 75.2043 64.2412 75.0811 64.3054L72.8213 65.3711L74.9482 66.9029C75.204 67.0066 75.49 67.0066 75.7458 66.9029L78.0721 65.7707C78.0721 65.7707 78.2715 66.1037 78.2715 66.0371Z" fill="#393842"/>
<path d="M81.9259 64.3721L79.6661 62.6404C79.5429 62.5762 79.4061 62.5427 79.2673 62.5427C79.1284 62.5427 78.9916 62.5762 78.8685 62.6404L76.6086 63.7726L78.6691 65.2379C78.7922 65.3021 78.929 65.3356 79.0679 65.3356C79.2067 65.3356 79.3435 65.3021 79.4667 65.2379L81.793 64.1723L81.9259 64.3721Z" fill="#393842"/>
<path d="M43.8417 78.2926L41.5818 76.6275C41.4587 76.5633 41.3219 76.5298 41.183 76.5298C41.0442 76.5298 40.9074 76.5633 40.7842 76.6275L38.5244 77.6932L40.5848 79.225C40.8419 79.3222 41.1254 79.3222 41.3824 79.225L43.7087 78.0928L43.8417 78.2926Z" fill="#393842"/>
<path d="M47.4961 76.6274L45.4357 75.2287C45.317 75.1513 45.1784 75.1101 45.0369 75.1101C44.8953 75.1101 44.7567 75.1513 44.6381 75.2287L42.3118 76.2943L44.4387 77.7596C44.5618 77.8238 44.6986 77.8573 44.8375 77.8573C44.9763 77.8573 45.1131 77.8238 45.2363 77.7596L47.2967 76.6274H47.4961Z" fill="#393842"/>
<path d="M51.1531 74.8958L49.0926 73.4305C48.9695 73.3663 48.8327 73.3328 48.6938 73.3328C48.555 73.3328 48.4182 73.3663 48.295 73.4305L45.9688 74.4962L48.0957 76.028C48.3514 76.1317 48.6374 76.1317 48.8932 76.028L51.2195 74.8958H51.1531Z" fill="#393842"/>
<path d="M54.7419 73.1638L52.6815 71.6985C52.4257 71.5948 52.1397 71.5948 51.8839 71.6985L49.2917 72.4978L51.3522 73.963C51.487 74.028 51.6346 74.0617 51.7842 74.0617C51.9338 74.0617 52.0814 74.028 52.2162 73.963L54.4761 72.8974C54.4761 72.8974 54.7419 73.297 54.7419 73.1638Z" fill="#393842"/>
<path d="M58.3966 71.499L55.9374 69.9671C55.8142 69.9029 55.6774 69.8694 55.5386 69.8694C55.3997 69.8694 55.2629 69.9029 55.1398 69.9671L52.8135 71.0328L54.9404 72.498C55.0635 72.5622 55.2003 72.5958 55.3392 72.5958C55.478 72.5958 55.6148 72.5622 55.738 72.498L58.0643 71.3658L58.3966 71.499Z" fill="#393842"/>
<path d="M62.054 69.967L59.9935 68.5017C59.7365 68.4045 59.4529 68.4045 59.1959 68.5017L56.8696 69.5673L58.9965 71.0326C59.1197 71.0968 59.2565 71.1303 59.3953 71.1303C59.5342 71.1303 59.671 71.0968 59.7941 71.0326L61.8546 69.967H62.054Z" fill="#393842"/>
<path d="M65.642 68.1022L63.5816 66.6369C63.4584 66.5727 63.3216 66.5392 63.1828 66.5392C63.044 66.5392 62.9072 66.5727 62.784 66.6369L60.5242 67.7026L62.5846 69.301C62.6997 69.3875 62.8396 69.4342 62.9834 69.4342C63.1272 69.4342 63.2671 69.3875 63.3822 69.301L65.7085 68.2354L65.642 68.1022Z" fill="#393842"/>
<path d="M69.2315 66.3703L67.0381 64.6387C66.915 64.5744 66.7782 64.5409 66.6393 64.5409C66.5005 64.5409 66.3637 64.5744 66.2405 64.6387L63.9807 65.7043L66.0412 67.2362C66.2982 67.3333 66.5817 67.3333 66.8387 67.2362L69.2315 66.5701V66.3703Z" fill="#393842"/>
<path d="M72.9538 64.7054L70.694 63.3067C70.5753 63.2293 70.4367 63.1881 70.2952 63.1881C70.1536 63.1881 70.015 63.2293 69.8964 63.3067L67.5701 64.3723L69.697 65.8376C69.8201 65.9018 69.9569 65.9353 70.0958 65.9353C70.2346 65.9353 70.3714 65.9018 70.4946 65.8376L72.8209 64.772L72.9538 64.7054Z" fill="#393842"/>
<path d="M76.5425 63.307L74.482 61.8418C74.3589 61.7775 74.2221 61.744 74.0832 61.744C73.9444 61.744 73.8076 61.7775 73.6845 61.8418L71.3582 62.9074L73.4851 64.4393C73.7409 64.543 74.0269 64.543 74.2826 64.4393L76.4095 63.307H76.5425Z" fill="#393842"/>
<path d="M80.1982 61.2416L78.1377 59.7763C77.882 59.6726 77.596 59.6726 77.3402 59.7763L75.0803 60.9085L77.1408 62.3738C77.2639 62.438 77.4007 62.4715 77.5396 62.4715C77.6784 62.4715 77.8152 62.438 77.9383 62.3738L80.2646 61.3082C80.2646 61.3082 80.1982 61.3748 80.1982 61.2416Z" fill="#393842"/>
<path d="M84.4521 59.045L82.3916 57.5797C82.2685 57.5155 82.1317 57.482 81.9928 57.482C81.854 57.482 81.7172 57.5155 81.5941 57.5797L78.8025 58.9118L80.9294 60.3771C81.0526 60.4413 81.1894 60.4748 81.3282 60.4748C81.467 60.4748 81.6038 60.4413 81.727 60.3771L84.6515 58.9784L84.4521 59.045Z" fill="#393842"/>
<path d="M83.0552 75.4955L80.9947 74.0302C80.8017 73.9588 80.5896 73.9588 80.3965 74.0302L78.1367 75.0959L61.3209 82.4222L59.061 83.288L61.1879 84.7533H61.9191L64.2454 83.6877L82.8558 74.9627C82.8558 74.9627 83.0552 75.6287 83.0552 75.4955Z" fill="#393842"/>
<path d="M37.4595 77.4266L36.7284 76.6273C36.6139 76.5738 36.4891 76.546 36.3628 76.546C36.2365 76.546 36.1117 76.5738 35.9973 76.6273L33.8704 77.6264L34.4021 78.026C34.5208 78.1034 34.6593 78.1446 34.8009 78.1446C34.9425 78.1446 35.081 78.1034 35.1997 78.026L37.526 76.9603L37.4595 77.4266Z" fill="#393842"/>
<path d="M41.1161 75.6952L40.5179 75.2955C40.3948 75.2313 40.258 75.1978 40.1191 75.1978C39.9803 75.1978 39.8435 75.2313 39.7203 75.2955L37.5934 76.3612H37.1282L37.6599 76.7608C37.7831 76.825 37.9199 76.8586 38.0587 76.8586C38.1975 76.8586 38.3343 76.825 38.4575 76.7608L40.7838 75.6952H41.1161Z" fill="#393842"/>
<path d="M44.7722 74.0302L44.2405 73.6306C44.1173 73.5664 43.9805 73.5328 43.8417 73.5328C43.7028 73.5328 43.566 73.5664 43.4429 73.6306L41.2495 74.6296L41.8477 75.0292C41.9709 75.0934 42.1077 75.127 42.2465 75.127C42.3853 75.127 42.5221 75.0934 42.6453 75.0292L44.9716 73.9636L44.7722 74.0302Z" fill="#393842"/>
<path d="M48.3615 72.2989L47.8298 71.8993C47.5498 71.8029 47.2458 71.8029 46.9658 71.8993L44.8389 72.8983L45.4371 73.2979C45.6929 73.4016 45.9789 73.4016 46.2346 73.2979L48.5609 72.1657L48.3615 72.2989Z" fill="#393842"/>
<path d="M52.0177 70.6331L51.2866 69.9671C51.1634 69.9029 51.0266 69.8694 50.8878 69.8694C50.749 69.8694 50.6122 69.9029 50.489 69.9671L48.3621 70.9662H48.0298L48.5615 71.3658C48.6847 71.43 48.8215 71.4635 48.9603 71.4635C49.0991 71.4635 49.2359 71.43 49.3591 71.3658L51.6854 70.3001L52.0177 70.6331Z" fill="#393842"/>
<path d="M55.9383 68.9013L55.3401 68.5017C55.083 68.4045 54.7995 68.4045 54.5425 68.5017L52.4156 69.5007L52.3491 69.967C52.6061 70.0641 52.8897 70.0641 53.1467 69.967L55.473 68.8347L55.9383 68.9013Z" fill="#393842"/>
<path d="M59.2618 67.2363L58.5971 66.5703C58.4739 66.5061 58.3371 66.4726 58.1983 66.4726C58.0595 66.4726 57.9227 66.5061 57.7995 66.5703L55.9385 67.5027V68.4352C56.0616 68.4994 56.1984 68.5329 56.3373 68.5329C56.4761 68.5329 56.6129 68.4994 56.7361 68.4352L59.0624 67.3695L59.2618 67.2363Z" fill="#393842"/>
<path d="M62.916 65.5048H62.5837L61.9855 65.1052C61.8624 65.0409 61.7256 65.0074 61.5867 65.0074C61.4479 65.0074 61.3111 65.0409 61.1879 65.1052L59.061 66.1042L59.5928 66.5038C59.7174 66.5631 59.8536 66.5938 59.9916 66.5938C60.1295 66.5938 60.2657 66.5631 60.3904 66.5038L62.5837 65.7046L62.916 65.5048Z" fill="#393842"/>
<path d="M66.5731 63.7728V63.3066H65.842C65.727 63.2201 65.587 63.1734 65.4432 63.1734C65.2994 63.1734 65.1595 63.2201 65.0444 63.3066L62.9175 64.3056H62.5852L63.1169 64.7052C63.2401 64.7695 63.3769 64.803 63.5157 64.803C63.6546 64.803 63.7914 64.7695 63.9145 64.7052L66.2408 63.6396L66.5731 63.7728Z" fill="#393842"/>
<path d="M70.2277 62.1079L69.2307 61.4419C69.1075 61.3777 68.9707 61.3442 68.8319 61.3442C68.6931 61.3442 68.5563 61.3777 68.4331 61.4419L66.2397 62.441L66.9044 63.3068C67.0195 63.3933 67.1594 63.44 67.3032 63.44C67.447 63.44 67.5869 63.3933 67.702 63.3068L70.0283 62.2411L70.2277 62.1079Z" fill="#393842"/>
<path d="M73.817 60.3767L73.2853 59.977C73.0053 59.8806 72.7012 59.8806 72.4213 59.977L70.2944 60.9761H69.8291L70.3608 61.3757C70.6408 61.4721 70.9449 61.4721 71.2249 61.3757L73.4847 60.2434L73.817 60.3767Z" fill="#393842"/>
<path d="M77.4721 58.711L76.8739 58.3114C76.7673 58.1538 76.6119 58.0357 76.4317 57.9755C76.2515 57.9153 76.0565 57.9163 75.8769 57.9784L73.75 58.9774L74.2817 59.377C74.4049 59.4412 74.5417 59.4748 74.6805 59.4748C74.8194 59.4748 74.9561 59.4412 75.0793 59.377L77.4056 58.3114L77.4721 58.711Z" fill="#393842"/>
<path d="M81.1274 56.9791V56.6461H80.3963C80.1393 56.5489 79.8557 56.5489 79.5987 56.6461L77.4718 57.6451H77.073L77.6712 58.0447C77.9282 58.1419 78.2118 58.1419 78.4688 58.0447L80.7951 56.9125L81.1274 56.9791Z" fill="#393842"/>
<path d="M41.9798 82.8213L39.9194 81.356C39.7962 81.2918 39.6594 81.2583 39.5206 81.2583C39.3817 81.2583 39.2449 81.2918 39.1218 81.356L34.8015 83.3541L36.9284 84.8194C37.0516 84.8836 37.1884 84.9171 37.3272 84.9171C37.466 84.9171 37.6028 84.8836 37.726 84.8194L41.7804 83.2875L41.9798 82.8213Z" fill="#393842"/>
<path d="M47.0981 84.2873L44.9712 82.7555C44.7142 82.6583 44.4306 82.6583 44.1736 82.7555L38.1252 85.6194L40.2521 87.0846C40.3753 87.1489 40.5121 87.1824 40.6509 87.1824C40.7898 87.1824 40.9266 87.1489 41.0497 87.0846L47.231 84.2207L47.0981 84.2873Z" fill="#393842"/>
<path d="M50.4887 86.6844L48.3618 85.2192C48.2468 85.1327 48.1069 85.086 47.963 85.086C47.8192 85.086 47.6793 85.1327 47.5642 85.2192L41.5159 88.0165L43.6428 89.4818C43.7659 89.546 43.9027 89.5795 44.0416 89.5795C44.1804 89.5795 44.3172 89.546 44.4404 89.4818L50.6217 86.5512L50.4887 86.6844Z" fill="#393842"/>
<path d="M87.7756 61.3754L85.6487 59.9101C85.5255 59.8459 85.3887 59.8124 85.2499 59.8124C85.111 59.8124 84.9743 59.8459 84.8511 59.9101L80.4644 61.9748L82.5248 63.5067C82.7818 63.6038 83.0654 63.6038 83.3224 63.5067L87.7756 61.3754Z" fill="#393842"/>
<path d="M90.8993 63.7731L88.7724 62.2412C88.5166 62.1375 88.2306 62.1375 87.9748 62.2412L81.7271 65.1717C81.7271 65.1717 81.7271 65.5048 81.7271 65.638L83.854 67.1698C84.1097 67.2735 84.3957 67.2735 84.6515 67.1698L90.8993 64.2393C90.8993 64.2393 90.8993 63.9063 90.8993 63.7731Z" fill="#393842"/>
<path d="M92.4278 69.3679L91.8296 68.9683C91.7146 68.8818 91.5747 68.8351 91.4308 68.8351C91.287 68.8351 91.1471 68.8818 91.0321 68.9683L88.7722 69.9673L89.3039 70.367C89.4271 70.4312 89.5639 70.4647 89.7027 70.4647C89.8416 70.4647 89.9784 70.4312 90.1015 70.367L92.4278 69.3013V69.3679Z" fill="#393842"/>
<path d="M93.9579 70.4333V69.9671H93.2268C93.1036 69.9029 92.9668 69.8694 92.828 69.8694C92.6892 69.8694 92.5524 69.9029 92.4292 69.9671L90.3023 70.9662H89.97L90.5017 71.3658C90.6249 71.43 90.7617 71.4635 90.9005 71.4635C91.0393 71.4635 91.1761 71.43 91.2993 71.3658L93.6256 70.3001L93.9579 70.4333Z" fill="#393842"/>
<path d="M53.9454 84.9528L51.8185 83.2877C51.6953 83.2235 51.5585 83.1899 51.4197 83.1899C51.2808 83.1899 51.144 83.2235 51.0209 83.2877L48.6946 84.3533C48.6946 84.3533 48.6946 84.6863 48.6946 84.8195L50.8215 86.3514C51.0785 86.4486 51.362 86.4486 51.6191 86.3514L53.9454 85.2192C53.9454 85.2192 53.9454 85.2192 53.9454 84.7529V84.9528Z" fill="#393842"/>
<path d="M33.8046 79.0917L33.2728 78.6921C33.1542 78.6147 33.0156 78.5735 32.8741 78.5735C32.7325 78.5735 32.5939 78.6147 32.4753 78.6921L29.3514 79.6245H29.019H29.3514L29.8831 80.0242C30.0063 80.0884 30.1431 80.1219 30.2819 80.1219C30.4207 80.1219 30.5575 80.0884 30.6807 80.0242L33.6052 78.6921C33.6052 78.6921 33.8046 79.2249 33.8046 79.0917Z" fill="#393842"/>
<path d="M36.4629 81.2228L34.336 79.7575C34.221 79.6711 34.0811 79.6243 33.9373 79.6243C33.7934 79.6243 33.6535 79.6711 33.5385 79.7575L31.2122 80.8232V81.2894L33.2726 82.7547C33.3958 82.8189 33.5326 82.8524 33.6714 82.8524C33.8102 82.8524 33.947 82.8189 34.0702 82.7547L36.3965 81.689C36.3965 81.689 36.3965 81.689 36.3965 81.2228H36.4629Z" fill="#BA503A"/>
<path d="M40.0535 79.4911L37.993 78.0258C37.8699 77.9616 37.7331 77.9281 37.5942 77.9281C37.4554 77.9281 37.3186 77.9616 37.1954 78.0258L34.8691 79.0915C34.8691 79.0915 34.8691 79.4245 34.8691 79.5577L36.996 81.0896C37.2531 81.1867 37.5366 81.1867 37.7936 81.0896L40.1199 79.9573C40.1199 79.9573 40.1199 79.9573 40.1199 79.4911H40.0535Z" fill="#BA503A"/>
<path d="M43.7087 77.8267L41.6483 76.6278C41.3683 76.5314 41.0642 76.5314 40.7842 76.6278L38.5244 77.76C38.5244 77.76 38.5244 77.76 38.5244 78.2263L40.6513 79.6915C40.7745 79.7557 40.9113 79.7893 41.0501 79.7893C41.1889 79.7893 41.3257 79.7557 41.4489 79.6915L43.7752 78.6259V78.1597L43.7087 77.8267Z" fill="#BA503A"/>
<path d="M47.3638 76.0943L45.2369 74.629C45.1138 74.5648 44.977 74.5313 44.8381 74.5313C44.6993 74.5313 44.5625 74.5648 44.4393 74.629L42.113 75.6947C42.113 75.6947 42.113 76.0277 42.113 76.1609L44.1735 77.6262C44.2981 77.6854 44.4343 77.7162 44.5723 77.7162C44.7102 77.7162 44.8464 77.6854 44.9711 77.6262L47.2974 76.6271C47.2974 76.6271 47.2974 76.2941 47.2974 76.1609L47.3638 76.0943Z" fill="#BA503A"/>
<path d="M51.0191 74.4301L48.8922 72.8983C48.6352 72.8011 48.3516 72.8011 48.0946 72.8983L45.7683 74.0305C45.7683 74.0305 45.7683 74.0305 45.7683 74.4968L47.8952 75.962C48.0184 76.0262 48.1552 76.0598 48.294 76.0598C48.4328 76.0598 48.5696 76.0262 48.6928 75.962L51.0191 74.8964C51.0191 74.8964 51.0191 74.5634 51.0191 74.4301Z" fill="#BA503A"/>
<path d="M54.609 72.6975L52.5486 71.2322C52.4254 71.168 52.2886 71.1345 52.1498 71.1345C52.0109 71.1345 51.8741 71.168 51.751 71.2322L49.2917 72.2313C49.2917 72.2313 49.2917 72.5643 49.2917 72.6975L51.4187 74.1628C51.5337 74.2492 51.6736 74.296 51.8174 74.296C51.9613 74.296 52.1012 74.2492 52.2162 74.1628L54.5425 73.0971C54.5425 73.0971 54.5425 72.7641 54.5425 72.6309L54.609 72.6975Z" fill="#BA503A"/>
<path d="M58.2637 70.9659L55.9374 69.5006C55.8142 69.4364 55.6774 69.4029 55.5386 69.4029C55.3997 69.4029 55.2629 69.4364 55.1398 69.5006L52.8135 70.5663V71.0325L54.8739 72.5644C55.1539 72.6608 55.458 72.6608 55.738 72.5644L57.9978 71.4321C57.9978 71.4321 57.9978 71.4321 57.9978 70.9659H58.2637Z" fill="#BA503A"/>
<path d="M61.92 69.3017L59.7931 67.8365C59.6744 67.7591 59.5359 67.7179 59.3943 67.7179C59.2527 67.7179 59.1142 67.7591 58.9955 67.8365L56.6692 68.9021C56.6692 68.9021 56.6692 69.2351 56.6692 69.3683L58.7961 70.8336C58.9193 70.8978 59.056 70.9313 59.1949 70.9313C59.3337 70.9313 59.4705 70.8978 59.5937 70.8336L61.8535 69.9678C61.8535 69.9678 61.8535 69.6348 61.8535 69.5016L61.92 69.3017Z" fill="#BA503A"/>
<path d="M65.5105 67.5691L63.4501 66.1038C63.3269 66.0396 63.1901 66.0061 63.0513 66.0061C62.9124 66.0061 62.7756 66.0396 62.6525 66.1038L60.3262 67.1695C60.3262 67.1695 60.3262 67.1695 60.3262 67.6357L62.586 69.101C62.8418 69.2047 63.1278 69.2047 63.3836 69.101L65.7099 67.9687C65.7099 67.9687 65.7099 67.9687 65.7099 67.5025L65.5105 67.5691Z" fill="#BA503A"/>
<path d="M69.2315 65.9048L67.1046 64.3729C66.8488 64.2692 66.5628 64.2692 66.307 64.3729L63.9807 65.5052C63.9807 65.5052 63.9807 65.5052 63.9807 65.9714L66.1076 67.4367C66.2308 67.5009 66.3676 67.5344 66.5064 67.5344C66.6452 67.5344 66.782 67.5009 66.9052 67.4367L69.2315 66.371V65.9048Z" fill="#BA503A"/>
<path d="M72.8209 64.1723L70.694 62.707C70.5708 62.6428 70.434 62.6093 70.2952 62.6093C70.1563 62.6093 70.0195 62.6428 69.8964 62.707L67.5701 63.7727C67.5701 63.7727 67.5701 63.7727 67.5701 64.2389L69.6305 65.7042C69.7537 65.7684 69.8905 65.8019 70.0293 65.8019C70.1681 65.8019 70.3049 65.7684 70.4281 65.7042L72.7544 64.5719C72.7544 64.5719 72.7544 64.5719 72.7544 64.1057L72.8209 64.1723Z" fill="#BA503A"/>
<path d="M49.292 79.1579L47.1651 77.6926C47.042 77.6284 46.9052 77.5948 46.7664 77.5948C46.6275 77.5948 46.4907 77.6284 46.3676 77.6926L44.0413 78.7582C44.0413 78.7582 44.0413 78.7582 44.0413 79.2245L46.1682 80.6897C46.2913 80.7539 46.4281 80.7875 46.567 80.7875C46.7058 80.7875 46.8426 80.7539 46.9658 80.6897L49.292 79.6241C49.292 79.6241 49.292 79.6241 49.292 79.1579Z" fill="#BA503A"/>
<path d="M52.6814 77.4937L50.621 75.9618C50.3639 75.8647 50.0804 75.8647 49.8234 75.9618L47.4971 77.0941C47.4971 77.0941 47.4971 77.0941 47.4971 77.5603L49.624 79.0256C49.7471 79.0898 49.8839 79.1233 50.0228 79.1233C50.1616 79.1233 50.2984 79.0898 50.4216 79.0256L52.7479 77.9599C52.7479 77.9599 52.7479 77.9599 52.7479 77.4937H52.6814Z" fill="#BA503A"/>
<path d="M56.3367 75.7618L54.2762 74.2965C54.1414 74.2315 53.9938 74.1978 53.8442 74.1978C53.6946 74.1978 53.547 74.2315 53.4122 74.2965L51.1523 75.3621C51.1523 75.3621 51.1523 75.3621 51.1523 75.8284L53.2792 77.2936C53.3943 77.3801 53.5342 77.4268 53.678 77.4268C53.8218 77.4268 53.9618 77.3801 54.0768 77.2936L56.4031 76.228V75.7618H56.3367Z" fill="#BA503A"/>
<path d="M59.9925 74.0302L57.8656 72.5649C57.6098 72.4612 57.3238 72.4612 57.068 72.5649L54.7417 73.6305C54.7417 73.6305 54.7417 73.9635 54.7417 74.0968L56.8021 75.6286C57.0592 75.7258 57.3427 75.7258 57.5997 75.6286L59.926 74.563C59.926 74.563 59.926 74.563 59.926 74.0302H59.9925Z" fill="#BA503A"/>
<path d="M63.6497 72.3653L61.5228 70.9C61.4041 70.8226 61.2656 70.7814 61.124 70.7814C60.9824 70.7814 60.8439 70.8226 60.7252 70.9L58.3989 71.9657C58.3989 71.9657 58.3989 72.2987 58.3989 72.4319L60.5258 73.8972C60.649 73.9614 60.7858 73.9949 60.9246 73.9949C61.0635 73.9949 61.2003 73.9614 61.3234 73.8972L63.6497 72.8315C63.6497 72.8315 63.6497 72.8315 63.6497 72.3653Z" fill="#BA503A"/>
<path d="M67.2375 70.6337L65.1771 69.1685C65.0539 69.1043 64.9172 69.0707 64.7783 69.0707C64.6395 69.0707 64.5027 69.1043 64.3795 69.1685L62.0532 69.9677C62.0532 69.9677 62.0532 70.3007 62.0532 70.4339L64.1801 71.9658C64.4359 72.0695 64.7219 72.0695 64.9777 71.9658L67.304 70.8336C67.304 70.8336 67.304 70.8336 67.304 70.3673L67.2375 70.6337Z" fill="#BA503A"/>
<path d="M70.8934 68.9687L68.7665 67.5035C68.6433 67.4393 68.5065 67.4057 68.3677 67.4057C68.2288 67.4057 68.092 67.4393 67.9689 67.5035L65.6426 68.6357C65.6426 68.6357 65.6426 68.9687 65.6426 69.1019L67.703 70.5672C67.8378 70.6321 67.9855 70.6659 68.135 70.6659C68.2846 70.6659 68.4323 70.6321 68.5671 70.5672L70.8269 69.5016C70.8269 69.5016 70.8269 69.1685 70.8269 69.0353L70.8934 68.9687Z" fill="#BA503A"/>
<path d="M74.5492 67.2369L72.4223 65.7717C72.2991 65.7074 72.1623 65.6739 72.0235 65.6739C71.8847 65.6739 71.7479 65.7074 71.6247 65.7717L69.2319 66.7707C69.2319 66.7707 69.2319 67.1037 69.2319 67.2369L71.3588 68.7022C71.482 68.7664 71.6188 68.7999 71.7576 68.7999C71.8965 68.7999 72.0333 68.7664 72.1564 68.7022L74.4827 67.5699C74.4827 67.5699 74.4827 67.2369 74.4827 67.1037L74.5492 67.2369Z" fill="#BA503A"/>
<path d="M78.1374 65.5715L75.8776 64.0396C75.6205 63.9424 75.337 63.9424 75.08 64.0396L72.7537 65.1719C72.7537 65.1719 72.7537 65.1719 72.7537 65.6381L74.8806 67.1033C75.0037 67.1676 75.1405 67.2011 75.2794 67.2011C75.4182 67.2011 75.555 67.1676 75.6782 67.1033L78.0045 66.0377C78.0045 66.0377 78.0045 65.7047 78.0045 65.5715H78.1374Z" fill="#BA503A"/>
<path d="M81.7942 63.8401L79.6673 62.3749C79.5442 62.3107 79.4074 62.2771 79.2685 62.2771C79.1297 62.2771 78.9929 62.3107 78.8698 62.3749L76.5435 63.3073V63.7735L78.6704 65.2388C78.7854 65.3253 78.9253 65.372 79.0691 65.372C79.213 65.372 79.3529 65.3253 79.4679 65.2388L81.7942 64.1732V63.7069V63.8401Z" fill="#BA503A"/>
<path d="M76.4754 62.5079L74.3485 60.9761C74.0915 60.8789 73.8079 60.8789 73.5509 60.9761L71.2246 62.1083C71.2246 62.1083 71.2246 62.1083 71.2246 62.5745L73.3515 64.0398C73.4747 64.104 73.6115 64.1375 73.7503 64.1375C73.8891 64.1375 74.0259 64.104 74.1491 64.0398L76.4089 63.3072C76.4089 63.3072 76.4089 63.3072 76.4089 62.8409L76.4754 62.5079Z" fill="#BA503A"/>
<path d="M80.0659 60.7755L78.0055 59.3102C77.8823 59.246 77.7455 59.2125 77.6067 59.2125C77.4678 59.2125 77.3311 59.246 77.2079 59.3102L74.8816 60.3758C74.8816 60.3758 74.8816 60.3758 74.8816 60.8421L77.0085 62.3073C77.1235 62.3938 77.2635 62.4405 77.4073 62.4405C77.5511 62.4405 77.691 62.3938 77.8061 62.3073L80.1324 61.2417V60.7755H80.0659Z" fill="#BA503A"/>
<path d="M49.7564 90.5481L47.6295 89.0828C47.5063 89.0186 47.3695 88.9851 47.2307 88.9851C47.0919 88.9851 46.9551 89.0186 46.8319 89.0828L44.5056 89.9487C44.5056 89.9487 44.5056 90.2817 44.5056 90.4149L46.6325 91.9468C46.8895 92.0439 47.1731 92.0439 47.4301 91.9468L49.7564 90.8145C49.7564 90.8145 49.7564 90.8145 49.7564 90.3483V90.5481Z" fill="#BA503A"/>
<path d="M53.3469 88.8829L51.2865 87.4176C51.1678 87.3402 51.0293 87.299 50.8877 87.299C50.7461 87.299 50.6076 87.3402 50.4889 87.4176L48.1626 88.4832C48.1626 88.4832 48.1626 88.8163 48.1626 88.9495L50.2895 90.4147C50.4127 90.4789 50.5495 90.5125 50.6883 90.5125C50.8271 90.5125 50.9639 90.4789 51.0871 90.4147L53.4134 89.3491C53.4134 89.3491 53.4134 89.0161 53.4134 88.8829H53.3469Z" fill="#BA503A"/>
<path d="M57.0027 87.1513L54.8758 85.686C54.7527 85.6218 54.6159 85.5883 54.477 85.5883C54.3382 85.5883 54.2014 85.6218 54.0783 85.686L51.752 86.7517V87.2179L53.8124 88.7498C54.0924 88.8462 54.3965 88.8462 54.6764 88.7498L57.0027 87.6175C57.0027 87.6175 57.0027 87.6175 57.0027 87.1513Z" fill="#BA503A"/>
<path d="M60.6573 85.4859L58.5304 83.954C58.2746 83.8503 57.9886 83.8503 57.7328 83.954L55.4065 85.0863C55.4065 85.0863 55.4065 85.0863 55.4065 85.5525L57.4669 87.0178C57.5901 87.082 57.7269 87.1155 57.8657 87.1155C58.0046 87.1155 58.1414 87.082 58.2645 87.0178L60.5908 85.9521C60.5908 85.9521 60.5908 85.6191 60.5908 85.4859H60.6573Z" fill="#BA503A"/>
<path d="M45.4363 80.8903L43.3094 79.3585C43.0536 79.2548 42.7676 79.2548 42.5118 79.3585L40.1855 80.4907C40.1855 80.4907 40.1855 80.4907 40.1855 80.9569L42.246 82.4222C42.3808 82.4872 42.5284 82.5209 42.678 82.5209C42.8276 82.5209 42.9752 82.4872 43.11 82.4222L45.3699 81.3566C45.3699 81.3566 45.3699 81.0235 45.3699 80.8903H45.4363Z" fill="#BA503A"/>
<path d="M84.2527 58.8445L82.5246 57.3126C82.2675 57.2154 81.984 57.2154 81.727 57.3126L78.8025 58.6446V59.1109L80.8629 60.6427C81.1429 60.7391 81.447 60.7391 81.727 60.6427L84.585 59.3107C84.585 59.3107 84.585 58.9777 84.585 58.8445H84.2527Z" fill="#BA503A"/>
<path d="M82.9222 75.0289L80.7953 73.5636C80.6803 73.4771 80.5403 73.4304 80.3965 73.4304C80.2527 73.4304 80.1128 73.4771 79.9977 73.5636L59.061 83.2876C59.061 83.2876 59.061 83.6206 59.061 83.7539L61.1879 85.2191C61.3066 85.2965 61.4451 85.3377 61.5867 85.3377C61.7283 85.3377 61.8669 85.2965 61.9855 85.2191L82.9887 75.4285V74.9623L82.9222 75.0289Z" fill="#BA503A"/>
<path d="M37.328 76.627H36.7962C36.5392 76.5299 36.2557 76.5299 35.9987 76.627L33.6724 77.7593C33.6724 77.7593 33.6724 77.7593 33.6724 78.2255L34.2706 78.6251C34.5263 78.7288 34.8123 78.7288 35.0681 78.6251L37.3944 77.4929C37.3944 77.4929 37.3944 77.4929 37.3944 77.0267L37.328 76.627Z" fill="#BA503A"/>
<path d="M40.9838 75.2287L40.3856 74.8291C40.2624 74.7649 40.1256 74.7314 39.9868 74.7314C39.848 74.7314 39.7112 74.7649 39.588 74.8291L37.2617 75.8947V76.361L37.7934 76.7606C37.9282 76.8255 38.0759 76.8592 38.2255 76.8592C38.375 76.8592 38.5227 76.8255 38.6575 76.7606L40.9173 75.6949C40.9173 75.6949 40.9173 75.6949 40.9173 75.2287H40.9838Z" fill="#BA503A"/>
<path d="M44.6383 73.4978L44.0401 73.0982C43.7844 72.9945 43.4984 72.9945 43.2426 73.0982L40.9163 74.2304C40.9163 74.2304 40.9163 74.2304 40.9163 74.6966L41.448 75.0963C41.705 75.1934 41.9886 75.1934 42.2456 75.0963L44.5719 73.964C44.5719 73.964 44.5719 73.964 44.5719 73.4978H44.6383Z" fill="#BA503A"/>
<path d="M48.2289 71.8319L47.6971 71.4323C47.574 71.3681 47.4372 71.3345 47.2983 71.3345C47.1595 71.3345 47.0227 71.3681 46.8995 71.4323L44.5732 72.4979C44.5732 72.4979 44.5732 72.8309 44.5732 72.9641L45.1714 73.3638C45.2946 73.428 45.4314 73.4615 45.5702 73.4615C45.7091 73.4615 45.8459 73.428 45.969 73.3638L48.2953 72.2981C48.2953 72.2981 48.2953 72.2981 48.2953 71.8319H48.2289Z" fill="#BA503A"/>
<path d="M51.8834 69.9671H51.3517C51.2285 69.9029 51.0917 69.8694 50.9529 69.8694C50.814 69.8694 50.6772 69.9029 50.5541 69.9671L48.2278 71.0328C48.2278 71.0328 48.2278 71.3658 48.2278 71.499L48.826 71.8986C48.9491 71.9628 49.0859 71.9963 49.2248 71.9963C49.3636 71.9963 49.5004 71.9628 49.6236 71.8986L51.9499 70.7664C51.9499 70.7664 51.9499 70.4333 51.9499 70.3001L51.8834 69.9671Z" fill="#BA503A"/>
<path d="M55.5392 68.435L54.941 68.0353C54.826 67.9489 54.686 67.9021 54.5422 67.9021C54.3984 67.9021 54.2585 67.9489 54.1434 68.0353L51.8171 69.101C51.8171 69.101 51.8171 69.434 51.8171 69.5672L52.3489 69.9668C52.472 70.031 52.6088 70.0646 52.7477 70.0646C52.8865 70.0646 53.0233 70.031 53.1465 69.9668L55.4727 68.9012C55.4727 68.9012 55.4727 68.5682 55.4727 68.435H55.5392Z" fill="#BA503A"/>
<path d="M59.1938 66.7033L58.5956 66.3036C58.4724 66.2394 58.3356 66.2059 58.1968 66.2059C58.0579 66.2059 57.9211 66.2394 57.798 66.3036L55.4717 67.3693C55.4717 67.3693 55.4717 67.7023 55.4717 67.8355L55.9369 68.1685C56.0556 68.2459 56.1941 68.2871 56.3357 68.2871C56.4773 68.2871 56.6159 68.2459 56.7345 68.1685L59.0608 67.1029C59.0608 67.1029 59.0608 66.7699 59.0608 66.6367L59.1938 66.7033Z" fill="#BA503A"/>
<path d="M62.5841 64.9725V64.5729C62.3271 64.4757 62.0435 64.4757 61.7865 64.5729L59.4602 65.7051C59.4602 65.7051 59.4602 65.7051 59.4602 66.1714L60.0584 66.571C60.3142 66.6747 60.6002 66.6747 60.856 66.571L62.5841 65.4387C62.5841 65.4387 62.5841 65.4387 62.5841 64.9725Z" fill="#BA503A"/>
<path d="M66.4402 63.3065L65.842 62.9069C65.7189 62.8426 65.5821 62.8091 65.4432 62.8091C65.3044 62.8091 65.1676 62.8426 65.0444 62.9069L62.5852 63.9059V64.3721L63.1169 64.7717C63.2401 64.8359 63.3769 64.8695 63.5157 64.8695C63.6546 64.8695 63.7914 64.8359 63.9145 64.7717L66.2408 63.7061C66.2408 63.7061 66.2408 63.3731 66.2408 63.2399L66.4402 63.3065Z" fill="#BA503A"/>
<path d="M70.0949 61.5756L69.2308 61.1759C68.975 61.0723 68.689 61.0723 68.4332 61.1759L66.1069 62.3082C66.1069 62.3082 66.1069 62.3082 66.1069 62.7744L66.9045 63.3072C67.1615 63.4044 67.4451 63.4044 67.7021 63.3072L70.0284 62.175C70.0284 62.175 70.0284 62.175 70.0284 61.7088L70.0949 61.5756Z" fill="#BA503A"/>
<path d="M73.6851 59.9096L73.1534 59.51C73.0303 59.4458 72.8935 59.4123 72.7546 59.4123C72.6158 59.4123 72.479 59.4458 72.3558 59.51L70.0295 60.5757C70.0295 60.5757 70.0295 60.5757 70.0295 61.0419L70.6277 61.4415C70.7509 61.5057 70.8877 61.5393 71.0265 61.5393C71.1654 61.5393 71.3022 61.5057 71.4253 61.4415L73.7516 60.3759C73.7516 60.3759 73.7516 60.3759 73.7516 59.9096H73.6851Z" fill="#BA503A"/>
<path d="M77.3404 58.1788L76.8087 57.7792C76.6739 57.7142 76.5262 57.6805 76.3767 57.6805C76.2271 57.6805 76.0794 57.7142 75.9446 57.7792L73.6848 58.8448C73.6848 58.8448 73.6848 58.8448 73.6848 59.311L74.283 59.7106C74.4062 59.7749 74.543 59.8084 74.6818 59.8084C74.8206 59.8084 74.9574 59.7749 75.0806 59.7106L77.4069 58.5784C77.4069 58.5784 77.4069 58.5784 77.4069 58.1122L77.3404 58.1788Z" fill="#BA503A"/>
<path d="M80.9962 56.6472L80.3981 56.2476C80.283 56.1612 80.1431 56.1144 79.9993 56.1144C79.8554 56.1144 79.7155 56.1612 79.6005 56.2476L77.2742 57.3133C77.2742 57.3133 77.2742 57.3133 77.2742 57.7795L77.8059 58.1791C77.9291 58.2433 78.0659 58.2768 78.2047 58.2768C78.3435 58.2768 78.4803 58.2433 78.6035 58.1791L80.9298 57.1135C80.9298 57.1135 80.9298 57.1135 80.9298 56.6472H80.9962Z" fill="#BA503A"/>
<path d="M33.7389 78.6255L33.1407 78.2259C33.0176 78.1617 32.8808 78.1281 32.7419 78.1281C32.6031 78.1281 32.4663 78.1617 32.3431 78.2259L29.4851 79.5579C29.4851 79.5579 29.4851 79.891 29.4851 80.0242L30.0833 80.4238C30.2065 80.488 30.3433 80.5215 30.4821 80.5215C30.6209 80.5215 30.7577 80.488 30.8809 80.4238L33.7389 79.0917C33.7389 79.0917 33.7389 79.0917 33.7389 78.6255Z" fill="#BA503A"/>
<path d="M41.8471 82.6221L39.7202 81.0902C39.4632 80.9931 39.1796 80.9931 38.9226 81.0902L34.5359 83.2881C34.5359 83.2881 34.5359 83.2881 34.5359 83.7544L36.6628 85.2196C36.786 85.2838 36.9227 85.3174 37.0616 85.3174C37.2004 85.3174 37.3372 85.2838 37.4604 85.2196L41.8471 83.2215C41.8471 83.2215 41.8471 82.8885 41.8471 82.7553V82.6221Z" fill="#BA503A"/>
<path d="M46.9647 84.0874L44.8378 82.6221C44.7227 82.5356 44.5828 82.4889 44.439 82.4889C44.2952 82.4889 44.1552 82.5356 44.0402 82.6221L37.8589 85.486C37.8589 85.486 37.8589 85.486 37.8589 85.9522L39.9858 87.4175C40.1045 87.4949 40.243 87.5361 40.3846 87.5361C40.5262 87.5361 40.6647 87.4949 40.7834 87.4175L46.9647 84.5536C46.9647 84.5536 46.9647 84.5536 46.9647 84.0874Z" fill="#BA503A"/>
<path d="M50.2884 86.4182L48.228 84.9529C48.1048 84.8887 47.968 84.8552 47.8292 84.8552C47.6903 84.8552 47.5536 84.8887 47.4304 84.9529L41.1826 87.8168V88.283L43.2431 89.8149C43.523 89.9113 43.8271 89.9113 44.1071 89.8149L50.2884 86.8844C50.2884 86.8844 50.2884 86.8844 50.2884 86.4182Z" fill="#BA503A"/>
<path d="M87.5769 61.1762L85.5164 59.6443C85.2594 59.5472 84.9758 59.5472 84.7188 59.6443L80.2656 61.7756C80.2656 61.7756 80.2656 61.7756 80.2656 62.2419L82.3925 63.7071C82.5157 63.7713 82.6525 63.8049 82.7913 63.8049C82.9302 63.8049 83.067 63.7713 83.1901 63.7071L87.6433 61.6424C87.6433 61.6424 87.6433 61.6424 87.6433 61.1762H87.5769Z" fill="#BA503A"/>
<path d="M90.8978 63.307L89.1697 62.0416C89.0465 61.9774 88.9097 61.9438 88.7709 61.9438C88.6321 61.9438 88.4953 61.9774 88.3721 62.0416L82.0579 65.0387C82.0579 65.0387 82.0579 65.0387 82.0579 65.5049L84.1183 66.9702C84.2415 67.0344 84.3783 67.0679 84.5171 67.0679C84.6559 67.0679 84.7927 67.0344 84.9159 66.9702L91.2301 64.0397C91.2301 64.0397 91.2301 64.0397 91.2301 63.5735L90.8978 63.307Z" fill="#BA503A"/>
<path d="M92.295 68.8349L91.7633 68.4353C91.6401 68.3711 91.5033 68.3376 91.3645 68.3376C91.2257 68.3376 91.0889 68.3711 90.9657 68.4353L88.6394 69.501C88.6394 69.501 88.6394 69.834 88.6394 69.9672L89.2376 70.3668C89.3608 70.431 89.4975 70.4645 89.6364 70.4645C89.7752 70.4645 89.912 70.431 90.0352 70.3668L92.3615 69.3012V68.8349H92.295Z" fill="#BA503A"/>
<path d="M93.8233 69.9677L93.2916 69.5681C93.0346 69.471 92.751 69.471 92.494 69.5681L90.1677 70.6338C90.1677 70.6338 90.1677 70.9668 90.1677 71.1666L90.7659 71.5662C91.0217 71.6699 91.3077 71.6699 91.5635 71.5662L93.8898 70.4339C93.8898 70.4339 93.8898 70.4339 93.8898 69.9677H93.8233Z" fill="#BA503A"/>
<path d="M79.6667 68.7687L77.6063 67.3034C77.4831 67.2392 77.3464 67.2057 77.2075 67.2057C77.0687 67.2057 76.9319 67.2392 76.8087 67.3034L74.4824 68.4357C74.4824 68.4357 74.4824 68.7687 74.4824 68.9019L76.5429 69.9675C76.666 70.0318 76.8028 70.0653 76.9417 70.0653C77.0805 70.0653 77.2173 70.0318 77.3404 69.9675L79.6667 68.9019C79.6667 68.9019 79.6667 68.5689 79.6667 68.4357V68.7687Z" fill="#BA503A"/>
<path d="M83.3226 67.0371L81.1957 65.5718C81.0725 65.5076 80.9357 65.4741 80.7969 65.4741C80.658 65.4741 80.5212 65.5076 80.3981 65.5718L78.0718 66.6375V67.1037L80.1987 68.569C80.3218 68.6332 80.4586 68.6667 80.5975 68.6667C80.7363 68.6667 80.8731 68.6332 80.9963 68.569L83.2561 67.4367C83.2561 67.4367 83.2561 67.1037 83.2561 66.9705L83.3226 67.0371Z" fill="#BA503A"/>
<path d="M83.0569 71.0994L80.93 69.9671C80.8069 69.9029 80.6701 69.8694 80.5312 69.8694C80.3924 69.8694 80.2556 69.9029 80.1325 69.9671L77.8062 71.0328C77.8062 71.0328 77.8062 71.3658 77.8062 71.499L79.9331 72.9642C80.0562 73.0285 80.193 73.062 80.3318 73.062C80.4707 73.062 80.6075 73.0285 80.7306 72.9642L83.0569 71.832C83.0569 71.832 83.0569 71.499 83.0569 71.3658V71.0994Z" fill="#BA503A"/>
<path d="M86.645 69.4348L84.5846 67.9029C84.3276 67.8057 84.044 67.8057 83.787 67.9029L81.4607 69.0351C81.4607 69.0351 81.4607 69.0351 81.4607 69.5014L83.5876 70.9666C83.7108 71.0308 83.8476 71.0644 83.9864 71.0644C84.1252 71.0644 84.262 71.0308 84.3852 70.9666L86.645 69.9676C86.645 69.9676 86.645 69.6346 86.645 69.5014V69.4348Z" fill="#BA503A"/>
<path d="M90.3008 67.7023L88.1739 66.237C88.0508 66.1728 87.914 66.1393 87.7751 66.1393C87.6363 66.1393 87.4995 66.1728 87.3763 66.237L85.05 67.3027V67.7689L87.1769 69.2342C87.292 69.3207 87.4319 69.3674 87.5757 69.3674C87.7196 69.3674 87.8595 69.3207 87.9745 69.2342L90.3008 68.1685V67.7023Z" fill="#BA503A"/>
<path d="M94.2877 65.8373L92.1608 64.372C92.0376 64.3078 91.9008 64.2743 91.762 64.2743C91.6232 64.2743 91.4864 64.3078 91.3632 64.372L88.7046 65.5709C88.7046 65.5709 88.7046 65.9039 88.7046 66.0371L90.765 67.5689C91.022 67.6661 91.3056 67.6661 91.5626 67.5689L94.2212 66.3035C94.2212 66.3035 94.2212 66.3035 94.2212 65.8373H94.2877Z" fill="#BA503A"/>
<path d="M72.4219 72.165L70.295 70.6997C70.2384 70.6129 70.1624 70.5405 70.073 70.4883C69.9836 70.4362 69.8832 70.4056 69.78 70.3992C69.6767 70.3927 69.5733 70.4105 69.4781 70.4511C69.3829 70.4917 69.2985 70.554 69.2316 70.6331L66.9053 71.6988V72.165L69.2316 73.6303C69.3547 73.6945 69.4915 73.728 69.6304 73.728C69.7692 73.728 69.906 73.6945 70.0292 73.6303L72.3555 72.5646C72.3555 72.5646 72.3555 72.2316 72.3555 72.0984L72.4219 72.165Z" fill="#BA503A"/>
<path d="M75.8768 70.4339L73.7499 68.9687C73.6268 68.9044 73.49 68.8709 73.3511 68.8709C73.2123 68.8709 73.0755 68.9044 72.9523 68.9687L70.8254 69.9677C70.8254 69.9677 70.8254 70.3007 70.8254 70.4339L72.9523 71.9658C73.2094 72.0629 73.4929 72.0629 73.7499 71.9658L75.8768 70.9001C75.8768 70.9001 75.8768 70.9001 75.8768 70.4339Z" fill="#BA503A"/>
<path d="M75.8769 74.4967L73.8165 73.0314C73.6817 72.9664 73.5341 72.9327 73.3845 72.9327C73.2349 72.9327 73.0873 72.9664 72.9525 73.0314L70.6926 74.097C70.6926 74.097 70.6926 74.43 70.6926 74.5633L72.8195 76.0951C73.0753 76.1988 73.3613 76.1988 73.6171 76.0951L75.8769 74.9629C75.8769 74.9629 75.8769 74.9629 75.8769 74.4967Z" fill="#BA503A"/>
<path d="M79.4 72.8316L77.2731 71.2998C77.0173 71.1961 76.7313 71.1961 76.4755 71.2998L74.1492 72.432C74.1492 72.432 74.1492 72.432 74.1492 72.8982L76.2096 74.3635C76.3328 74.4277 76.4696 74.4612 76.6084 74.4612C76.7472 74.4612 76.884 74.4277 77.0072 74.3635L79.3335 73.2978C79.3335 73.2978 79.3335 72.9648 79.3335 72.8316H79.4Z" fill="#BA503A"/>
<path d="M65.1778 75.5623L63.0509 74.0971C62.9277 74.0329 62.7909 73.9993 62.6521 73.9993C62.5133 73.9993 62.3765 74.0329 62.2533 74.0971L59.927 75.1627C59.927 75.1627 59.927 75.4957 59.927 75.6289L62.0539 77.0942C62.1726 77.1716 62.3111 77.2128 62.4527 77.2128C62.5943 77.2128 62.7328 77.1716 62.8515 77.0942L65.1778 76.0285C65.1778 76.0285 65.1778 75.6955 65.1778 75.5623Z" fill="#BA503A"/>
<path d="M68.7659 73.8965L66.7054 72.3646C66.4254 72.2682 66.1214 72.2682 65.8414 72.3646L63.5815 73.4303C63.5815 73.4303 63.5815 73.7633 63.5815 73.8965L65.7084 75.4284C65.9642 75.5321 66.2502 75.5321 66.506 75.4284L68.8323 74.3627V73.8965H68.7659Z" fill="#BA503A"/>
<path d="M68.5008 77.893L66.3739 76.6275C66.2507 76.5633 66.1139 76.5298 65.9751 76.5298C65.8363 76.5298 65.6995 76.5633 65.5763 76.6275L63.25 77.6932C63.25 77.6932 63.25 78.0262 63.25 78.1594L65.3104 79.6913C65.5675 79.7884 65.851 79.7884 66.108 79.6913L68.4343 78.559C68.4343 78.559 68.4343 78.559 68.4343 78.0928L68.5008 77.893Z" fill="#BA503A"/>
<path d="M72.1561 76.2275L70.0292 74.7622C69.9105 74.6848 69.772 74.6436 69.6304 74.6436C69.4888 74.6436 69.3502 74.6848 69.2316 74.7622L66.9053 75.8278C66.9053 75.8278 66.9053 76.1609 66.9053 76.2941L69.0322 77.7593C69.1553 77.8235 69.2921 77.8571 69.431 77.8571C69.5698 77.8571 69.7066 77.8235 69.8298 77.7593L72.0896 76.6271C72.0896 76.6271 72.0896 76.6271 72.0896 76.1609L72.1561 76.2275Z" fill="#BA503A"/>
<path d="M57.8649 78.9591L55.9374 77.4939C55.8142 77.4296 55.6774 77.3961 55.5386 77.3961C55.3997 77.3961 55.2629 77.4296 55.1398 77.4939L52.8135 78.5595V79.0257L54.9404 80.491C55.0635 80.5552 55.2003 80.5887 55.3392 80.5887C55.478 80.5887 55.6148 80.5552 55.738 80.491L58.0643 79.3587C58.0643 79.3587 58.0643 79.0257 58.0643 78.8925L57.8649 78.9591Z" fill="#BA503A"/>
<path d="M61.5208 77.2937L59.3939 75.7618C59.1381 75.6582 58.8521 75.6582 58.5963 75.7618L56.27 76.6277C56.27 76.6277 56.27 76.6277 56.27 77.0939L58.3305 78.5592C58.4536 78.6234 58.5904 78.6569 58.7292 78.6569C58.8681 78.6569 59.0049 78.6234 59.128 78.5592L61.4543 77.4935C61.4543 77.4935 61.4543 77.1605 61.4543 77.0273L61.5208 77.2937Z" fill="#BA503A"/>
<path d="M61.1893 81.3559L59.1288 79.824C58.8718 79.7269 58.5883 79.7269 58.3312 79.824L55.9385 80.8897C55.9385 80.8897 55.9385 80.8897 55.9385 81.3559L58.0654 82.8212C58.1885 82.8854 58.3253 82.9189 58.4642 82.9189C58.603 82.9189 58.7398 82.8854 58.863 82.8212L61.1893 81.7555C61.1893 81.7555 61.1893 81.7555 61.1893 81.2893V81.3559Z" fill="#BA503A"/>
<path d="M64.8439 79.6245L62.5841 78.1593C62.4609 78.095 62.3241 78.0615 62.1853 78.0615C62.0465 78.0615 61.9097 78.095 61.7865 78.1593L59.4602 79.2249V79.6911L61.5871 81.1564C61.7103 81.2206 61.8471 81.2541 61.9859 81.2541C62.1247 81.2541 62.2615 81.2206 62.3847 81.1564L64.711 80.0908V79.6245H64.8439Z" fill="#BA503A"/>
<path d="M50.6226 82.3559L48.4957 80.8906C48.3726 80.8264 48.2358 80.7929 48.0969 80.7929C47.9581 80.7929 47.8213 80.8264 47.6981 80.8906L45.3718 81.9563C45.3718 81.9563 45.3718 82.2893 45.3718 82.4225L47.4987 83.9544C47.7558 84.0515 48.0393 84.0515 48.2963 83.9544L50.6226 82.8221C50.6226 82.8221 50.6226 82.8221 50.6226 82.3559Z" fill="#BA503A"/>
<path d="M54.2102 80.6909L52.1498 79.2257C52.0266 79.1615 51.8898 79.1279 51.751 79.1279C51.6121 79.1279 51.4753 79.1615 51.3522 79.2257L49.2917 80.2247C49.2917 80.2247 49.2917 80.5577 49.2917 80.6909L51.4187 82.1562C51.5418 82.2204 51.6786 82.2539 51.8174 82.2539C51.9563 82.2539 52.0931 82.2204 52.2162 82.1562L54.5425 81.0906C54.5425 81.0906 54.5425 81.0906 54.5425 80.6243L54.2102 80.6909Z" fill="#BA503A"/>
<path d="M53.9454 84.7527L51.8185 83.2875C51.5627 83.1838 51.2767 83.1838 51.0209 83.2875L48.6946 84.4197C48.6946 84.4197 48.6946 84.4197 48.6946 84.886L50.755 86.3512C50.8898 86.4162 51.0375 86.4499 51.187 86.4499C51.3366 86.4499 51.4843 86.4162 51.6191 86.3512L53.8789 85.2856C53.8789 85.2856 53.8789 85.2856 53.8789 84.8193L53.9454 84.7527Z" fill="#BA503A"/>
<path d="M57.5999 83.2878L55.473 81.8225C55.3498 81.7583 55.213 81.7248 55.0742 81.7248C54.9354 81.7248 54.7986 81.7583 54.6754 81.8225L52.3491 82.8882C52.3491 82.8882 52.3491 82.8882 52.3491 83.3544L54.476 84.8197C54.5947 84.897 54.7332 84.9382 54.8748 84.9382C55.0164 84.9382 55.1549 84.897 55.2736 84.8197L57.5334 83.2878C57.5334 83.2878 57.5334 83.2878 57.5334 82.8216L57.5999 83.2878Z" fill="#BA503A"/>
<path d="M86.5787 73.2974L84.4518 71.8321C84.3286 71.7679 84.1918 71.7344 84.053 71.7344C83.9141 71.7344 83.7773 71.7679 83.6542 71.8321L81.3279 72.8978C81.3279 72.8978 81.3279 73.2308 81.3279 73.364L83.3883 74.8959C83.6453 74.993 83.9289 74.993 84.1859 74.8959L86.5122 73.7636C86.5122 73.7636 86.5122 73.7636 86.5122 73.2974H86.5787Z" fill="#BA503A"/>
<path d="M90.2359 71.6319L88.109 69.9668C87.9903 69.8895 87.8518 69.8483 87.7102 69.8483C87.5686 69.8483 87.4301 69.8895 87.3114 69.9668L84.9851 71.0325C84.9851 71.0325 84.9851 71.3655 84.9851 71.4987L87.112 72.964C87.2352 73.0282 87.372 73.0617 87.5108 73.0617C87.6496 73.0617 87.7864 73.0282 87.9096 72.964L90.2359 71.8983C90.2359 71.8983 90.2359 71.5653 90.2359 71.4321V71.6319Z" fill="#BA503A"/>
<path d="M97.5451 68.1688L95.817 66.7035C95.6938 66.6393 95.557 66.6058 95.4182 66.6058C95.2794 66.6058 95.1426 66.6393 95.0194 66.7035L92.6931 67.7692C92.6931 67.7692 92.6931 68.1022 92.6931 68.2354L94.82 69.7006C94.9351 69.7871 95.075 69.8339 95.2188 69.8339C95.3626 69.8339 95.5026 69.7871 95.6176 69.7006L97.9439 68.635C97.9439 68.635 97.9439 68.302 97.9439 68.1688H97.5451Z" fill="#BA503A"/>
<path d="M66.7731 50.0531L34.3379 63.9732L30.8152 38.5308L30.2834 34.6678L62.7187 20.7478L63.2504 24.6108L66.7731 50.0531Z" stroke="#BA503A" stroke-width="0.25" stroke-miterlimit="10"/>
<path d="M63.2504 24.6108L30.8152 38.5308L30.2834 34.6678L62.7187 20.7478L63.2504 24.6108Z" fill="#BA503A"/>
<path d="M32.8072 39.8629L34.8676 38.7972L34.5353 37.1987L32.4749 38.2644L32.8072 39.8629Z" fill="#FC797E"/>
</g>
<defs>
<filter id="filter0_d_877:314" x="0" y="0.00427246" width="117.604" height="115.608" filterUnits="userSpaceOnUse" color-interpolation-filters="sRGB">
<feFlood flood-opacity="0" result="BackgroundImageFix"/>
<feColorMatrix in="SourceAlpha" type="matrix" values="0 0 0 0 0 0 0 0 0 0 0 0 0 0 0 0 0 0 127 0" result="hardAlpha"/>
<feOffset dx="-5" dy="1"/>
<feGaussianBlur stdDeviation="5.5"/>
<feComposite in2="hardAlpha" operator="out"/>
<feColorMatrix type="matrix" values="0 0 0 0 0 0 0 0 0 0 0 0 0 0 0 0 0 0 0.25 0"/>
<feBlend mode="normal" in2="BackgroundImageFix" result="effect1_dropShadow_877:314"/>
<feBlend mode="normal" in="SourceGraphic" in2="effect1_dropShadow_877:314" result="shape"/>
</filter>
</defs>
</svg>
