<svg width="101" height="110" viewBox="0 0 101 110" fill="none" xmlns="http://www.w3.org/2000/svg">
<g filter="url(#filter0_d_877:487)">
<path d="M11.6716 28.1294V104.249L55.3224 80.1236V4.4046L11.6716 28.1294Z" fill="#FFC2B6"/>
<path d="M97.3006 104.249V28.9314L55.321 4.4046V80.1236L97.3006 104.249Z" fill="#BA503A"/>
<path d="M100.042 102.645V27.6615L97.3013 28.9312V104.249L100.042 102.645Z" fill="#6D2F22"/>
<path d="M94.2927 95.7626V31.2711L57.5271 10.2863V75.1119L94.2927 95.7626Z" fill="#FFC2B6"/>
<path d="M100.041 27.6634L57.527 3.47076L55.321 4.40639L97.3006 28.9332L100.041 27.6634Z" fill="#FFC2B6"/>
<path d="M61.1367 21.3798L77.113 30.6024V32.1395L61.1367 22.9169V21.3798Z" fill="#BA503A"/>
<path d="M61.1367 25.9908L77.113 35.2134V36.7505L61.1367 27.5279V25.9908Z" fill="#BA503A"/>
<path d="M61.1367 30.5362L77.113 39.7588V41.2959L61.1367 32.0733V30.5362Z" fill="#BA503A"/>
<path d="M75.3748 48.9146L90.4152 57.6025V59.0728L75.3748 50.3849V48.9146Z" fill="#BA503A"/>
<path d="M74.9077 53.5255L90.884 62.7481V64.2852L74.9077 55.0626V53.5255Z" fill="#BA503A"/>
<path d="M74.9077 58.0696L90.884 67.2922V68.8293L74.9077 59.6067V58.0696Z" fill="#BA503A"/>
<path d="M61.1367 61.5449L77.113 70.7675V72.3046L61.1367 63.082V61.5449Z" fill="#BA503A"/>
<path d="M61.1367 66.156L77.113 75.3787V76.8489L61.1367 67.6931V66.156Z" fill="#BA503A"/>
<path d="M61.1367 70.7012L77.113 79.9238V81.461L61.1367 72.2383V70.7012Z" fill="#BA503A"/>
<path d="M89.814 95.0271V98.9033L93.1563 100.775V96.9652L89.814 95.0271Z" fill="#FFC2B6" stroke="#6D2F22" stroke-width="0.25"/>
<path d="M84.0659 91.5518V95.428L87.4082 97.3661V93.4899L84.0659 91.5518Z" fill="#FFC2B6" stroke="#6D2F22" stroke-width="0.25"/>
<path d="M55.3892 4.33822L53.317 3.40259L10.0005 27.6621L11.7385 28.063L55.3892 4.33822Z" fill="#FFC2B6"/>
<path d="M11.738 104.182L10 103.113V27.6615L11.738 28.0625V104.182Z" fill="#6D2F22"/>
</g>
<defs>
<filter id="filter0_d_877:487" x="0" y="0.402588" width="100.042" height="108.847" filterUnits="userSpaceOnUse" color-interpolation-filters="sRGB">
<feFlood flood-opacity="0" result="BackgroundImageFix"/>
<feColorMatrix in="SourceAlpha" type="matrix" values="0 0 0 0 0 0 0 0 0 0 0 0 0 0 0 0 0 0 127 0" result="hardAlpha"/>
<feOffset dx="-6" dy="1"/>
<feGaussianBlur stdDeviation="2"/>
<feComposite in2="hardAlpha" operator="out"/>
<feColorMatrix type="matrix" values="0 0 0 0 0 0 0 0 0 0 0 0 0 0 0 0 0 0 0.25 0"/>
<feBlend mode="normal" in2="BackgroundImageFix" result="effect1_dropShadow_877:487"/>
<feBlend mode="normal" in="SourceGraphic" in2="effect1_dropShadow_877:487" result="shape"/>
</filter>
</defs>
</svg>
