<svg width="100" height="100" viewBox="0 0 100 100" fill="none" xmlns="http://www.w3.org/2000/svg">
<path fill-rule="evenodd" clip-rule="evenodd" d="M87.0121 3.02735C88.6359 3.70733 89.7752 4.8792 90.4301 6.54297C90.5603 14.6159 90.5603 22.6889 90.4301 30.7617C89.7883 32.5105 88.584 33.65 86.8168 34.1797C79.8506 34.2447 72.8846 34.31 65.9183 34.375C62.5043 37.4158 59.0539 40.4107 55.5668 43.3594C54.3883 43.9262 53.542 43.6332 53.0277 42.4805C53.0277 40.7877 53.0277 39.0951 53.0277 37.4023C50.283 37.7719 48.2975 36.7301 47.0707 34.2773C46.785 28.0354 46.6873 21.7854 46.7777 15.5273C46.7777 14.4857 46.7777 13.444 46.7777 12.4023C46.726 10.2464 46.791 8.09799 46.973 5.95703C47.6105 4.57098 48.6521 3.62698 50.098 3.125C62.4025 3.02735 74.7072 2.99479 87.0121 3.02735Z" fill="#3D8244"/>
<path fill-rule="evenodd" clip-rule="evenodd" d="M87.0121 3.02747C89.3707 2.94202 91.7145 3.03967 94.0434 3.32043C95.8383 4.14254 96.7822 5.54229 96.8754 7.51965C97.0647 16.3801 96.9996 25.2343 96.6801 34.0821C95.6125 36.7818 93.6268 37.8884 90.7231 37.4025C88.5746 37.4025 86.4262 37.4025 84.2777 37.4025C78.2227 37.3698 72.168 37.4025 66.1137 37.5001C62.5981 40.4948 59.0824 43.4898 55.5668 46.4845C54.5277 47.0122 53.7139 46.7843 53.1254 45.8009C53.0279 44.696 52.9953 43.5892 53.0277 42.4806C53.542 43.6333 54.3883 43.9263 55.5668 43.3595C59.0539 40.4109 62.5043 37.4159 65.9184 34.3751C72.8846 34.3101 79.8506 34.2448 86.8168 34.1798C88.584 33.6501 89.7883 32.5107 90.4301 30.7618C90.5604 22.689 90.5604 14.616 90.4301 6.54309C89.7752 4.87932 88.6359 3.70745 87.0121 3.02747Z" fill="#3D8244"/>
<path opacity="0.999" fill-rule="evenodd" clip-rule="evenodd" d="M46.9722 5.95703C46.7901 8.09799 46.7251 10.2464 46.7769 12.4023C34.6022 12.3698 22.4276 12.4023 10.2534 12.5C9.97397 12.5909 9.7461 12.7536 9.56983 12.9883C9.24551 28.0766 9.18041 43.1807 9.37451 58.3008C9.53727 58.724 9.83024 59.017 10.2534 59.1797C12.01 59.2773 13.7678 59.3097 15.5269 59.2773C24.9019 59.2773 34.2769 59.2773 43.6519 59.2773C45.7353 59.2773 47.8185 59.2773 49.9019 59.2773C60.9698 59.3099 72.0374 59.2773 83.105 59.1797C83.4862 59.1082 83.8116 58.9455 84.0815 58.6914C83.6229 60.4849 82.5161 61.6894 80.7612 62.3047C56.2169 62.4349 31.6728 62.4349 7.12842 62.3047C5.06102 61.8976 3.69383 60.6931 3.02686 58.6914C2.9943 42.285 3.02686 25.8787 3.12451 9.47266C3.84807 7.38209 5.31291 6.24276 7.51905 6.05469C20.67 5.95703 33.821 5.92448 46.9722 5.95703Z" fill="#CEE4BD"/>
<path fill-rule="evenodd" clip-rule="evenodd" d="M64.9415 10.84C65.4922 10.7907 66.0129 10.8884 66.504 11.133C70.7682 13.8348 75.0327 16.5367 79.2969 19.2385C79.7401 20.0615 79.6424 20.8102 79.004 21.4846C75.1299 23.8445 71.2887 26.2533 67.4805 28.7111C66.8883 29.1422 66.2372 29.4352 65.5274 29.59C64.8235 29.5805 64.3352 29.2549 64.0625 28.6135C63.9323 23.0145 63.9323 17.4156 64.0625 11.8166C64.2627 11.3895 64.5557 11.064 64.9415 10.84Z" fill="#CEE4BD"/>
<path fill-rule="evenodd" clip-rule="evenodd" d="M46.777 12.4023C46.777 13.444 46.777 14.4857 46.777 15.5273C36.6856 15.4948 26.5946 15.5273 16.5035 15.625C16.2241 15.7159 15.9962 15.8786 15.82 16.1133C15.5283 28.9877 15.4307 41.8783 15.527 54.7852C15.527 56.2826 15.527 57.7799 15.527 59.2774C13.768 59.3098 12.0101 59.2774 10.2535 59.1797C9.83036 59.017 9.53739 58.724 9.37464 58.3008C9.18054 43.1807 9.24563 28.0766 9.56995 12.9883C9.74622 12.7536 9.97409 12.5909 10.2535 12.5C22.4278 12.4023 34.6024 12.3698 46.777 12.4023Z" fill="#4E9A5F"/>
<path fill-rule="evenodd" clip-rule="evenodd" d="M46.7771 15.5273C46.6866 21.7854 46.7843 28.0354 47.07 34.2773C48.2968 36.7301 50.2823 37.7719 53.0271 37.4023C53.0271 39.0951 53.0271 40.7877 53.0271 42.4805C52.9946 43.5891 53.0273 44.6959 53.1247 45.8008C53.7132 46.7842 54.5271 47.0121 55.5661 46.4844C59.0817 43.4897 62.5974 40.4947 66.113 37.5C72.1673 37.4023 78.222 37.3697 84.2771 37.4023C84.3384 44.5047 84.2733 51.601 84.0817 58.6914C83.8118 58.9455 83.4864 59.1082 83.1052 59.1797C72.0376 59.2774 60.97 59.31 49.9021 59.2774C50.8118 53.6404 48.7286 49.6365 43.6521 47.2656C42.1191 46.8441 40.5566 46.6815 38.9646 46.7774C38.9001 45.4039 38.9651 44.0367 39.1599 42.6758C41.4804 40.3666 42.4569 37.567 42.0896 34.2773C42.7907 34.2688 43.279 33.9432 43.5544 33.3008C43.6847 30.957 43.6847 28.6133 43.5544 26.2695C42.5816 22.1213 40.0099 19.6148 35.8396 18.75C34.0179 18.6524 32.1948 18.6198 30.3708 18.6523C25.739 19.4105 22.9069 22.0797 21.8747 26.6602C21.7444 28.8086 21.7444 30.957 21.8747 33.1055C22.0433 33.8902 22.5316 34.2809 23.3396 34.2773C23.071 37.6414 24.1126 40.5059 26.4646 42.8711C26.4646 44.108 26.4646 45.3451 26.4646 46.582C26.4646 46.6471 26.4646 46.7123 26.4646 46.7774C22.4864 46.4395 19.329 47.8717 16.9919 51.0742C16.2724 52.2479 15.7841 53.4848 15.5271 54.7852C15.4308 41.8783 15.5284 28.9877 15.82 16.1133C15.9963 15.8786 16.2242 15.7159 16.5036 15.625C26.5946 15.5273 36.6857 15.4948 46.7771 15.5273Z" fill="#4E9A5F"/>
<path fill-rule="evenodd" clip-rule="evenodd" d="M30.3711 18.6523C32.1951 18.6198 34.0182 18.6524 35.8398 18.75C40.0102 19.6148 42.5818 22.1213 43.5547 26.2695C43.685 28.6133 43.685 30.957 43.5547 33.3008C43.2793 33.9431 42.791 34.2687 42.0898 34.2773C41.2174 34.349 40.3711 34.2513 39.5508 33.9844C38.7949 33.2613 38.0787 32.5125 37.4023 31.7383C37.5047 29.4383 37.3418 27.1596 36.9141 24.9023C35.6404 21.8053 33.3943 19.8195 30.1758 18.9453C30.2844 18.8706 30.3494 18.7729 30.3711 18.6523Z" fill="#1F612D"/>
<path fill-rule="evenodd" clip-rule="evenodd" d="M30.3711 18.6523C30.3495 18.7729 30.2844 18.8706 30.1758 18.9453C33.3944 19.8195 35.6405 21.8053 36.9141 24.9023C37.3418 27.1596 37.5047 29.4383 37.4024 31.7383C37.2819 31.7166 37.1842 31.6516 37.1094 31.543C36.7086 31.8473 36.2854 32.1078 35.8399 32.3242C31.8612 34.1092 27.6946 34.7602 23.3399 34.2773C22.5319 34.2809 22.0436 33.8902 21.875 33.1055C21.7448 30.957 21.7448 28.8086 21.875 26.6602C22.9073 22.0797 25.7393 19.4105 30.3711 18.6523Z" fill="#1F612D"/>
<path fill-rule="evenodd" clip-rule="evenodd" d="M37.4023 31.7383C38.0787 32.5125 38.7949 33.2613 39.5508 33.9844C40.3711 34.2514 41.2174 34.349 42.0898 34.2773C42.4572 37.567 41.4807 40.3666 39.1602 42.6758C38.9654 44.0367 38.9004 45.4039 38.9648 46.7773C35.8533 48.4045 32.598 48.7625 29.1992 47.8516C28.2172 47.5578 27.3057 47.1348 26.4648 46.582C26.4648 45.3451 26.4648 44.108 26.4648 42.8711C27.3967 43.5717 28.4059 44.1576 29.4922 44.6289C32.5811 43.493 34.5992 41.3445 35.5469 38.1836C35.8068 36.2402 35.9045 34.2871 35.8398 32.3242C36.2853 32.1078 36.7086 31.8473 37.1094 31.543C37.1842 31.6516 37.2818 31.7166 37.4023 31.7383Z" fill="#CEE4BD"/>
<path fill-rule="evenodd" clip-rule="evenodd" d="M35.8401 32.3242C35.9048 34.2871 35.8071 36.2402 35.5471 38.1836C34.5995 41.3445 32.5813 43.493 29.4925 44.6289C28.4061 44.1576 27.397 43.5717 26.4651 42.8711C24.1132 40.5059 23.0716 37.6414 23.3401 34.2773C27.6948 34.7602 31.8614 34.1092 35.8401 32.3242Z" fill="#CEE4BD"/>
<path fill-rule="evenodd" clip-rule="evenodd" d="M84.2774 37.4023C86.4258 37.4023 88.5743 37.4023 90.7227 37.4023C90.7553 45.2803 90.7227 53.1578 90.6251 61.0352C90.437 63.2412 89.2977 64.7061 87.2071 65.4297C60.254 65.56 33.3008 65.56 6.34772 65.4297C4.97678 64.9705 3.96766 64.0916 3.32037 62.793C3.04998 61.4432 2.95233 60.076 3.0274 58.6914C3.69438 60.6932 5.06156 61.8977 7.12897 62.3047C31.6733 62.435 56.2174 62.435 80.7618 62.3047C82.5167 61.6895 83.6235 60.485 84.0821 58.6914C84.2737 51.601 84.3387 44.5047 84.2774 37.4023Z" fill="#CEE4BD"/>
<path fill-rule="evenodd" clip-rule="evenodd" d="M38.9648 46.7772C40.5568 46.6813 42.1193 46.844 43.6523 47.2654C48.7289 49.6363 50.8121 53.6402 49.9024 59.2772C47.819 59.2772 45.7357 59.2772 43.6523 59.2772C44.3318 55.0319 43.0949 51.4838 39.9414 48.6326C39.6332 48.419 39.3076 48.2561 38.9648 48.1443C38.9648 47.6887 38.9648 47.2328 38.9648 46.7772Z" fill="#3D8244"/>
<path fill-rule="evenodd" clip-rule="evenodd" d="M26.4648 46.7774C26.4201 50.0237 27.9826 52.0744 31.1523 52.9297C33.9178 53.3537 36.2289 52.5399 38.0859 50.4883C38.5457 49.7651 38.8387 48.9838 38.9648 48.1446C39.3076 48.2563 39.6332 48.4192 39.9414 48.6328C43.0949 51.484 44.3318 55.0321 43.6523 59.2774C34.2773 59.2774 24.9023 59.2774 15.5273 59.2774C15.5273 57.7799 15.5273 56.2826 15.5273 54.7852C15.7844 53.4848 16.2727 52.2479 16.9922 51.0743C19.3293 47.8717 22.4867 46.4395 26.4648 46.7774Z" fill="#1F612D"/>
<path fill-rule="evenodd" clip-rule="evenodd" d="M26.4648 46.582C27.3056 47.1348 28.2171 47.5578 29.1992 47.8516C32.598 48.7625 35.8533 48.4045 38.9648 46.7773C38.9648 47.233 38.9648 47.6889 38.9648 48.1445C38.8386 48.9838 38.5457 49.765 38.0859 50.4883C36.2289 52.5398 33.9177 53.3537 31.1523 52.9297C27.9826 52.0744 26.4201 50.0236 26.4648 46.7773C26.4648 46.7123 26.4648 46.6471 26.4648 46.582Z" fill="#CEE4BD"/>
<path opacity="0.999" fill-rule="evenodd" clip-rule="evenodd" d="M23.5352 82.7146C21.3867 82.7146 19.2383 82.7146 17.0898 82.7146C18.6624 80.0443 19.0855 77.1797 18.3594 74.1209C17.547 71.9748 16.1473 70.3472 14.1602 69.2381C19.0276 67.6838 22.5107 69.2463 24.6094 73.9256C25.4512 77.022 25.093 79.9517 23.5352 82.7146Z" fill="#CEE4BD"/>
<path fill-rule="evenodd" clip-rule="evenodd" d="M56.3477 82.7151C54.1992 82.7151 52.0508 82.7151 49.9023 82.7151C51.3787 80.3897 51.867 77.8506 51.3672 75.0979C50.8082 72.3608 49.2783 70.4076 46.7773 69.2385C51.7238 67.6264 55.2721 69.1889 57.4219 73.926C57.727 75.8672 57.792 77.8203 57.6172 79.7854C57.3625 80.8446 56.9395 81.8211 56.3477 82.7151Z" fill="#CEE4BD"/>
<path fill-rule="evenodd" clip-rule="evenodd" d="M89.1602 82.7151C87.0117 82.7151 84.8633 82.7151 82.7148 82.7151C84.1469 80.3104 84.6352 77.7063 84.1797 74.9026C83.5395 72.2781 82.0096 70.3903 79.5898 69.2385C84.5363 67.6264 88.0846 69.1889 90.2344 73.926C91.0762 77.0225 90.718 79.9522 89.1602 82.7151Z" fill="#CEE4BD"/>
<path opacity="0.991" fill-rule="evenodd" clip-rule="evenodd" d="M14.16 69.2383C16.1471 70.3475 17.5468 71.975 18.3592 74.1211C19.0854 77.1799 18.6622 80.0445 17.0897 82.7148C17.0246 82.7148 16.9595 82.7148 16.8944 82.7148C14.811 82.7148 12.7277 82.7148 10.6444 82.7148C10.0526 81.8209 9.62945 80.8443 9.37482 79.7852C9.20002 77.8201 9.26512 75.867 9.57014 73.9258C10.3554 71.6107 11.8854 70.0482 14.16 69.2383Z" fill="#CEE4BD"/>
<path opacity="0.992" fill-rule="evenodd" clip-rule="evenodd" d="M46.7773 69.2383C49.2783 70.4074 50.8082 72.3605 51.3672 75.0977C51.867 77.8504 51.3787 80.3895 49.9023 82.7148C49.707 82.7148 49.5117 82.7148 49.3164 82.7148C47.3633 82.7148 45.4101 82.7148 43.457 82.7148C41.7658 79.7408 41.4728 76.6158 42.5781 73.3398C43.4389 71.4049 44.8385 70.0377 46.7773 69.2383Z" fill="#CEE4BD"/>
<path opacity="0.992" fill-rule="evenodd" clip-rule="evenodd" d="M79.5898 69.2383C82.0095 70.39 83.5394 72.2779 84.1797 74.9023C84.6351 77.7061 84.1468 80.3102 82.7148 82.7148C82.5195 82.7148 82.3242 82.7148 82.1289 82.7148C80.1758 82.7148 78.2226 82.7148 76.2695 82.7148C75.6365 81.8385 75.2132 80.8619 75 79.7852C74.1377 76.1018 75.0166 72.9441 77.6367 70.3125C78.267 69.9 78.9179 69.542 79.5898 69.2383Z" fill="#CEE4BD"/>
<path opacity="0.996" fill-rule="evenodd" clip-rule="evenodd" d="M10.6441 82.7148C12.7275 82.7148 14.8108 82.7148 16.8941 82.7148C22.1164 83.9969 24.7531 87.3172 24.8043 92.6758C24.7135 92.9553 24.5506 93.183 24.316 93.3594C17.5618 93.6822 10.791 93.7473 4.00352 93.5547C3.57637 93.3545 3.25086 93.0615 3.02695 92.6758C2.98199 87.3818 5.52106 84.0615 10.6441 82.7148Z" fill="#1F612D"/>
<path fill-rule="evenodd" clip-rule="evenodd" d="M16.895 82.7148C16.9601 82.7148 17.0252 82.7148 17.0903 82.7148C19.2387 82.7148 21.3871 82.7148 23.5356 82.7148C28.9229 84.332 31.5272 87.9779 31.3481 93.6523C31.4077 94.6092 31.245 95.5207 30.8598 96.3867C30.7133 96.509 30.5504 96.6066 30.3715 96.6797C21.5174 96.81 12.6632 96.81 3.80902 96.6797C3.45095 96.582 3.22308 96.3541 3.12543 95.9961C3.02789 94.8912 2.99533 93.7844 3.02777 92.6758C3.25168 93.0615 3.57718 93.3545 4.00433 93.5547C10.7918 93.7473 17.5626 93.6822 24.3168 93.3594C24.5514 93.183 24.7143 92.9553 24.8051 92.6758C24.7539 87.3172 22.1172 83.9969 16.895 82.7148Z" fill="#3D8244"/>
<path opacity="0.995" fill-rule="evenodd" clip-rule="evenodd" d="M43.4573 82.7148C45.4104 82.7148 47.3635 82.7148 49.3167 82.7148C54.744 83.8131 57.5108 87.1334 57.6174 92.6758C57.5266 92.9553 57.3637 93.183 57.1292 93.3594C50.3702 93.6809 43.5993 93.7461 36.8167 93.5547C36.3085 93.3721 36.0155 93.0141 35.9378 92.4805C35.8403 93.3896 35.8077 94.301 35.8401 95.2148C34.8643 89.9682 36.6874 86.0293 41.3089 83.3984C42.0255 83.1486 42.7417 82.9207 43.4573 82.7148Z" fill="#1F612D"/>
<path fill-rule="evenodd" clip-rule="evenodd" d="M49.3168 82.7148C49.5121 82.7148 49.7074 82.7148 49.9028 82.7148C52.0512 82.7148 54.1996 82.7148 56.3481 82.7148C61.0758 83.9598 63.6473 87.0195 64.0629 91.8945C64.1932 93.0014 64.1932 94.108 64.0629 95.2148C64.0037 95.6813 63.8408 96.1045 63.5746 96.4844C54.6065 96.8078 45.6221 96.873 36.6215 96.6797C36.0315 96.3791 35.7711 95.8908 35.8402 95.2148C35.8078 94.301 35.8404 93.3897 35.9379 92.4805C36.0156 93.0141 36.3086 93.3721 36.8168 93.5547C43.5994 93.7461 50.3703 93.6809 57.1293 93.3594C57.3639 93.183 57.5268 92.9553 57.6176 92.6758C57.511 87.1334 54.7442 83.8131 49.3168 82.7148Z" fill="#3D8244"/>
<path opacity="0.997" fill-rule="evenodd" clip-rule="evenodd" d="M76.2695 82.7148C78.2227 82.7148 80.1758 82.7148 82.1289 82.7148C87.0709 83.6861 89.8703 86.6809 90.5273 91.6992C90.5434 92.3354 90.348 92.8889 89.9414 93.3594C83.1824 93.6809 76.4115 93.7461 69.6289 93.5547C68.9865 93.2793 68.6609 92.791 68.6523 92.0898C68.8861 87.1023 71.4252 83.9773 76.2695 82.7148Z" fill="#1F612D"/>
<path fill-rule="evenodd" clip-rule="evenodd" d="M82.1287 82.7148C82.3241 82.7148 82.5194 82.7148 82.7147 82.7148C84.8631 82.7148 87.0116 82.7148 89.16 82.7148C94.5473 84.332 97.1516 87.9779 96.9725 93.6523C97.0321 94.6092 96.8694 95.5207 96.4842 96.3867C96.3377 96.509 96.1748 96.6066 95.9959 96.6797C87.1418 96.81 78.2875 96.81 69.4334 96.6797C68.8703 96.3693 68.5774 95.8811 68.5545 95.2148C68.3949 94.1375 68.4274 93.0957 68.6522 92.0898C68.6608 92.791 68.9864 93.2793 69.6287 93.5547C76.4114 93.7461 83.1823 93.6809 89.9412 93.3594C90.3479 92.8889 90.5432 92.3354 90.5272 91.6992C89.8701 86.6809 87.0707 83.6861 82.1287 82.7148Z" fill="#3D8244"/>
</svg>
