<svg width="100" height="101" viewBox="0 0 100 101" fill="none" xmlns="http://www.w3.org/2000/svg">
<path opacity="0.999" fill-rule="evenodd" clip-rule="evenodd" d="M98.3403 22.2847C82.1944 22.2847 66.0487 22.2847 49.9028 22.2847C33.7569 22.2847 17.6112 22.2847 1.46532 22.2847C1.43279 19.6797 1.46534 17.0755 1.56298 14.4722C2.18147 12.0308 3.71141 10.5008 6.15282 9.88233C35.3194 9.75211 64.4862 9.75211 93.6528 9.88233C96.0942 10.5008 97.6241 12.0308 98.2427 14.4722C98.3403 17.0755 98.373 19.6797 98.3403 22.2847Z" fill="#3D8244"/>
<path opacity="0.98" fill-rule="evenodd" clip-rule="evenodd" d="M1.46484 22.2847C17.6107 22.2847 33.7564 22.2847 49.9023 22.2847C49.9023 23.8472 49.9023 25.4097 49.9023 26.9722C49.2012 26.9808 48.7129 27.3063 48.4375 27.9487C48.3398 37.5188 48.3072 47.0892 48.3398 56.6597C45.7357 56.6597 43.1314 56.6597 40.5273 56.6597C41.2707 49.745 38.2107 45.7735 31.3477 44.7456C31.5803 44.0837 31.8732 43.4327 32.2266 42.7925C32.4195 42.2214 32.5496 41.6354 32.6172 41.0347C32.7148 39.4735 32.7473 37.911 32.7148 36.3472C32.6305 31.7056 30.2867 29.1015 25.6836 28.5347C21.0812 29.1007 18.7376 31.7048 18.6523 36.3472C18.6198 37.911 18.6524 39.4735 18.75 41.0347C18.8175 41.6354 18.9477 42.2214 19.1406 42.7925C19.494 43.4327 19.7869 44.0837 20.0195 44.7456C13.1564 45.7735 10.0965 49.745 10.8398 56.6597C9.60115 56.6272 8.36418 56.6597 7.12891 56.7573C6.48648 57.0327 6.16096 57.521 6.15234 58.2222C4.58984 58.2222 3.02734 58.2222 1.46484 58.2222C1.46484 46.2431 1.46484 34.2638 1.46484 22.2847Z" fill="#CEE4BD"/>
<path fill-rule="evenodd" clip-rule="evenodd" d="M49.9023 22.2847C66.0482 22.2847 82.1939 22.2847 98.3398 22.2847C98.3398 34.2638 98.3398 46.2431 98.3398 58.2222C96.7773 58.2222 95.2148 58.2222 93.6523 58.2222C93.6437 57.521 93.3182 57.0327 92.6758 56.7573C91.4404 56.6597 90.2035 56.6272 88.9648 56.6597C89.7082 49.745 86.6482 45.7735 79.7852 44.7456C80.0178 44.0837 80.3107 43.4327 80.6641 42.7925C80.857 42.2214 80.9871 41.6354 81.0547 41.0347C81.1523 39.4735 81.1848 37.911 81.1523 36.3472C81.0436 31.6159 78.6348 29.0118 73.9258 28.5347C69.4273 29.1921 67.1486 31.7964 67.0898 36.3472C67.0574 37.911 67.0898 39.4735 67.1875 41.0347C67.2551 41.6354 67.3852 42.2214 67.5781 42.7925C67.9314 43.4327 68.2244 44.0837 68.457 44.7456C61.5939 45.7735 58.534 49.745 59.2773 56.6597C56.6732 56.6597 54.0689 56.6597 51.4648 56.6597C51.4975 47.0892 51.4648 37.5188 51.3672 27.9487C51.0918 27.3063 50.6035 26.9808 49.9023 26.9722C49.9023 25.4097 49.9023 23.8472 49.9023 22.2847Z" fill="#CEE4BD"/>
<path fill-rule="evenodd" clip-rule="evenodd" d="M49.9023 26.9722C50.6035 26.9808 51.0918 27.3063 51.3672 27.9487C51.4648 37.5188 51.4975 47.0892 51.4648 56.6597C54.0689 56.6597 56.6732 56.6597 59.2773 56.6597C69.1732 56.6597 79.0689 56.6597 88.9648 56.6597C90.2035 56.6272 91.4404 56.6597 92.6758 56.7573C93.3182 57.0327 93.6438 57.521 93.6523 58.2222C93.6438 58.9233 93.3182 59.4116 92.6758 59.687C78.9389 59.7847 65.202 59.8173 51.4648 59.7847C51.4975 69.3552 51.4648 78.9255 51.3672 88.4956C51.0918 89.138 50.6035 89.4636 49.9023 89.4722C49.2012 89.4636 48.7129 89.138 48.4375 88.4956C48.3398 78.9255 48.3072 69.3552 48.3398 59.7847C34.6027 59.8173 20.8658 59.7847 7.12891 59.687C6.48648 59.4116 6.16096 58.9233 6.15234 58.2222C6.16096 57.521 6.48648 57.0327 7.12891 56.7573C8.36418 56.6597 9.60115 56.6272 10.8398 56.6597C20.7357 56.6597 30.6314 56.6597 40.5273 56.6597C43.1314 56.6597 45.7357 56.6597 48.3398 56.6597C48.3072 47.0892 48.3398 37.5188 48.4375 27.9487C48.7129 27.3063 49.2012 26.9808 49.9023 26.9722Z" fill="#4E9A5F"/>
<path fill-rule="evenodd" clip-rule="evenodd" d="M7.71451 28.5347C10.1595 28.5356 11.1035 29.7075 10.5465 32.0503C9.17264 33.5958 7.80545 33.5958 6.44498 32.0503C5.82395 30.494 6.24713 29.3222 7.71451 28.5347Z" fill="#4E9A5F"/>
<path fill-rule="evenodd" clip-rule="evenodd" d="M32.7148 36.3472C30.3455 35.8118 27.9691 35.2911 25.5859 34.7847C23.2566 35.2614 20.9455 35.7821 18.6523 36.3472C18.7376 31.7048 21.0813 29.1007 25.6836 28.5347C30.2867 29.1015 32.6305 31.7056 32.7148 36.3472Z" fill="#3D8244"/>
<path fill-rule="evenodd" clip-rule="evenodd" d="M56.152 28.5347C58.597 28.5356 59.5409 29.7075 58.9841 32.0503C57.6102 33.5958 56.2431 33.5958 54.8825 32.0503C54.2614 30.494 54.6847 29.3222 56.152 28.5347Z" fill="#4E9A5F"/>
<path fill-rule="evenodd" clip-rule="evenodd" d="M81.1523 36.3472C78.783 35.8118 76.4066 35.2911 74.0234 34.7847C71.6941 35.2614 69.383 35.7821 67.0898 36.3472C67.1486 31.7964 69.4273 29.1921 73.9258 28.5347C78.6348 29.0118 81.0436 31.6159 81.1523 36.3472Z" fill="#3D8244"/>
<path fill-rule="evenodd" clip-rule="evenodd" d="M81.1528 36.3472C81.1852 37.911 81.1528 39.4735 81.0551 41.0347C80.9875 41.6354 80.8575 42.2214 80.6645 42.7925C80.3112 43.4327 80.0182 44.0837 79.7856 44.7456C79.1141 45.1868 78.4631 45.6751 77.8325 46.2104C76.9502 46.7095 76.0387 47.0675 75.0981 47.2847C74.3819 47.2847 73.6659 47.2847 72.9497 47.2847C72.0854 47.0272 71.2389 46.6692 70.4106 46.2104C69.7799 45.6751 69.1289 45.1868 68.4575 44.7456C68.2248 44.0837 67.9319 43.4327 67.5786 42.7925C67.3856 42.2214 67.2555 41.6354 67.1879 41.0347C67.0903 39.4735 67.0579 37.911 67.0903 36.3472C69.3834 35.7821 71.6946 35.2614 74.0239 34.7847C76.4071 35.2911 78.7834 35.8118 81.1528 36.3472Z" fill="#CEE4BD"/>
<path fill-rule="evenodd" clip-rule="evenodd" d="M32.7153 36.3472C32.7477 37.911 32.7153 39.4735 32.6176 41.0347C32.5501 41.6354 32.42 42.2214 32.227 42.7925C31.8737 43.4327 31.5807 44.0837 31.3481 44.7456C30.6766 45.1868 30.0256 45.6751 29.395 46.2104C28.6188 46.7186 27.7725 47.0116 26.8559 47.0893C26.0747 47.3497 25.2934 47.3497 24.5122 47.0893C23.5958 47.0065 22.7495 46.7136 21.9731 46.2104C21.3424 45.6751 20.6915 45.1868 20.02 44.7456C19.7874 44.0837 19.4944 43.4327 19.1411 42.7925C18.9482 42.2214 18.818 41.6354 18.7505 41.0347C18.6529 39.4735 18.6203 37.911 18.6528 36.3472C20.946 35.7821 23.2571 35.2614 25.5864 34.7847C27.9696 35.2911 30.346 35.8118 32.7153 36.3472Z" fill="#CEE4BD"/>
<path fill-rule="evenodd" clip-rule="evenodd" d="M20.0191 44.7456C20.6906 45.1868 21.3416 45.6751 21.9723 46.2104C22.7486 46.7136 23.5949 47.0065 24.5113 47.0894C24.1027 48.7964 24.0051 50.5542 24.2183 52.3628C24.6881 53.5272 25.5017 53.8202 26.6598 53.2417C26.9318 53.013 27.0947 52.72 27.148 52.3628C27.3613 50.5542 27.2637 48.7964 26.8551 47.0894C27.7717 47.0116 28.618 46.7187 29.3941 46.2104C30.0248 45.6751 30.6758 45.1868 31.3473 44.7456C38.2103 45.7735 41.2703 49.745 40.5269 56.6597C30.631 56.6597 20.7353 56.6597 10.8394 56.6597C10.0961 49.745 13.156 45.7735 20.0191 44.7456Z" fill="#3D8244"/>
<path fill-rule="evenodd" clip-rule="evenodd" d="M68.4566 44.7456C69.1281 45.1868 69.7791 45.6751 70.4097 46.2104C71.2381 46.6692 72.0846 47.0272 72.9488 47.2847C72.69 48.0552 72.5597 48.9015 72.5582 49.8237C72.5908 50.67 72.6232 51.5165 72.6558 52.3628C73.131 53.5245 73.9449 53.8175 75.0972 53.2417C75.3693 53.013 75.5322 52.72 75.5855 52.3628C75.6832 50.6714 75.7156 48.9786 75.6832 47.2847C75.4879 47.2847 75.2926 47.2847 75.0972 47.2847C76.0379 47.0675 76.9494 46.7095 77.8316 46.2104C78.4623 45.6751 79.1133 45.1868 79.7847 44.7456C86.6478 45.7735 89.7078 49.745 88.9644 56.6597C79.0685 56.6597 69.1728 56.6597 59.2769 56.6597C58.5336 49.745 61.5935 45.7735 68.4566 44.7456Z" fill="#4E9A5F"/>
<path fill-rule="evenodd" clip-rule="evenodd" d="M24.5121 47.0894C25.2933 47.3497 26.0746 47.3497 26.8558 47.0894C27.2644 48.7964 27.3621 50.5542 27.1488 52.3628C27.0955 52.72 26.9326 53.013 26.6605 53.2417C25.5025 53.8202 24.6888 53.5272 24.2191 52.3628C24.0058 50.5542 24.1035 48.7964 24.5121 47.0894Z" fill="#4E9A5F"/>
<path fill-rule="evenodd" clip-rule="evenodd" d="M72.9492 47.2847C73.6654 47.2847 74.3814 47.2847 75.0976 47.2847C75.293 47.2847 75.4883 47.2847 75.6836 47.2847C75.716 48.9786 75.6836 50.6714 75.5859 52.3628C75.5326 52.72 75.3697 53.013 75.0976 53.2417C73.9453 53.8175 73.1314 53.5245 72.6562 52.3628C72.6236 51.5165 72.5912 50.67 72.5586 49.8237C72.5602 48.9015 72.6904 48.0552 72.9492 47.2847Z" fill="#3D8244"/>
<path opacity="0.999" fill-rule="evenodd" clip-rule="evenodd" d="M1.46533 58.2222C3.02783 58.2222 4.59033 58.2222 6.15283 58.2222C6.16145 58.9233 6.48697 59.4116 7.12939 59.687C20.8663 59.7847 34.6032 59.8173 48.3403 59.7847C48.3077 69.3552 48.3403 78.9255 48.438 88.4956C48.7134 89.138 49.2017 89.4636 49.9028 89.4722C49.9028 91.0347 49.9028 92.5972 49.9028 94.1597C46.7778 94.1597 43.6528 94.1597 40.5278 94.1597C40.5603 92.1403 40.5278 90.1222 40.4302 88.105C39.8376 85.064 38.1124 82.9479 35.2544 81.7573C33.9075 81.3067 32.5403 80.9487 31.1528 80.6831C31.6765 79.8964 32.0995 79.0501 32.4224 78.144C32.6823 76.2007 32.78 74.2476 32.7153 72.2847C32.6065 67.5534 30.1978 64.9493 25.4888 64.4722C20.9903 65.1296 18.7117 67.7339 18.6528 72.2847C18.6042 74.0478 18.6693 75.8056 18.8481 77.5581C19.0803 78.6067 19.4709 79.5833 20.02 80.4878C18.1719 81.0497 16.349 81.7333 14.5513 82.5386C12.6366 83.9251 11.4321 85.7806 10.938 88.105C10.8404 90.1222 10.8078 92.1403 10.8403 94.1597C9.27648 94.1921 7.71398 94.1597 6.15283 94.062C3.71143 93.4435 2.18148 91.9136 1.56299 89.4722C1.46533 79.0558 1.43278 68.639 1.46533 58.2222Z" fill="#CEE4BD"/>
<path opacity="0.98" fill-rule="evenodd" clip-rule="evenodd" d="M93.6524 58.2222C95.2149 58.2222 96.7774 58.2222 98.3399 58.2222C98.3725 68.639 98.3399 79.0558 98.2422 89.4722C97.6236 91.9136 96.0938 93.4435 93.6524 94.062C92.0912 94.1597 90.5287 94.1921 88.9649 94.1597C88.9973 92.1403 88.9649 90.1222 88.8672 88.105C88.2746 85.064 86.5494 82.9479 83.6914 81.7573C82.4025 81.3384 81.1006 80.9804 79.7852 80.6831C80.0178 80.0212 80.3107 79.3702 80.6641 78.73C80.857 78.1589 80.9871 77.5729 81.0547 76.9722C81.1524 75.411 81.1848 73.8485 81.1524 72.2847C81.068 67.6431 78.7242 65.039 74.1211 64.4722C69.5188 65.0382 67.175 67.6423 67.0898 72.2847C67.0574 73.8485 67.0898 75.411 67.1875 76.9722C67.2551 77.5729 67.3852 78.1589 67.5781 78.73C67.9314 79.3702 68.2244 80.0212 68.457 80.6831C65.5881 80.9948 63.1467 82.1667 61.1328 84.1987C60.2311 85.3519 59.6451 86.654 59.375 88.105C59.2773 90.1222 59.2449 92.1403 59.2773 94.1597C56.1523 94.1597 53.0273 94.1597 49.9023 94.1597C49.9023 92.5972 49.9023 91.0347 49.9023 89.4722C50.6035 89.4636 51.0918 89.138 51.3672 88.4956C51.4648 78.9255 51.4975 69.3552 51.4648 59.7847C65.202 59.8173 78.9389 59.7847 92.6758 59.687C93.3182 59.4116 93.6438 58.9233 93.6524 58.2222Z" fill="#CEE4BD"/>
<path fill-rule="evenodd" clip-rule="evenodd" d="M7.71451 64.4722C10.1595 64.4731 11.1035 65.645 10.5465 67.9878C9.17264 69.5333 7.80545 69.5333 6.44498 67.9878C5.82395 66.4315 6.24713 65.2597 7.71451 64.4722Z" fill="#4E9A5F"/>
<path fill-rule="evenodd" clip-rule="evenodd" d="M32.7148 72.2847C30.3455 71.7493 27.9691 71.2286 25.5859 70.7222C23.2566 71.1989 20.9455 71.7196 18.6523 72.2847C18.7112 67.7339 20.9898 65.1296 25.4883 64.4722C30.1973 64.9493 32.6061 67.5534 32.7148 72.2847Z" fill="#3D8244"/>
<path fill-rule="evenodd" clip-rule="evenodd" d="M56.152 64.4722C58.597 64.4731 59.5409 65.645 58.9841 67.9878C57.6102 69.5333 56.2431 69.5333 54.8825 67.9878C54.2614 66.4315 54.6847 65.2597 56.152 64.4722Z" fill="#4E9A5F"/>
<path fill-rule="evenodd" clip-rule="evenodd" d="M81.1523 72.2847C78.783 71.7493 76.4066 71.2286 74.0234 70.7222C71.6941 71.1989 69.383 71.7196 67.0898 72.2847C67.175 67.6423 69.5188 65.0382 74.1211 64.4722C78.7242 65.039 81.068 67.6431 81.1523 72.2847Z" fill="#3D8244"/>
<path fill-rule="evenodd" clip-rule="evenodd" d="M32.7148 72.2847C32.7794 74.2476 32.6818 76.2007 32.4218 78.144C32.099 79.0501 31.6759 79.8964 31.1523 80.6831C29.9039 81.9903 28.4064 82.8368 26.6601 83.2222C25.9439 83.2222 25.2279 83.2222 24.5117 83.2222C22.7498 82.7636 21.2525 81.8521 20.0195 80.4878C19.4703 79.5833 19.0797 78.6067 18.8476 77.5581C18.6688 75.8056 18.6037 74.0478 18.6523 72.2847C20.9455 71.7196 23.2566 71.1989 25.5859 70.7222C27.9691 71.2286 30.3455 71.7493 32.7148 72.2847Z" fill="#CEE4BD"/>
<path fill-rule="evenodd" clip-rule="evenodd" d="M81.1528 72.2847C81.1852 73.8485 81.1528 75.411 81.0551 76.9722C80.9875 77.573 80.8575 78.1589 80.6645 78.73C80.3112 79.3702 80.0182 80.0212 79.7856 80.6831C79.0489 81.1897 78.3327 81.7431 77.6372 82.3433C76.9495 82.6702 76.2334 82.898 75.4887 83.0269C74.5711 83.2765 73.6596 83.2765 72.7543 83.0269C72.1397 82.9806 71.5538 82.8179 70.9965 82.5386C70.1157 81.9481 69.2692 81.3298 68.4575 80.6831C68.2248 80.0212 67.9319 79.3702 67.5786 78.73C67.3856 78.1589 67.2555 77.573 67.1879 76.9722C67.0903 75.411 67.0579 73.8485 67.0903 72.2847C69.3834 71.7196 71.6946 71.1989 74.0239 70.7222C76.4071 71.2286 78.7834 71.7493 81.1528 72.2847Z" fill="#CEE4BD"/>
<path fill-rule="evenodd" clip-rule="evenodd" d="M20.02 80.4878C21.253 81.8521 22.7503 82.7636 24.5122 83.2222C24.2532 84.0257 24.1229 84.9046 24.1216 85.8589C24.1542 86.7378 24.1866 87.6167 24.2192 88.4956C24.8018 89.4854 25.6155 89.7134 26.6606 89.1792C26.8952 89.0028 27.0581 88.7751 27.1489 88.4956C27.2466 86.739 27.279 84.9812 27.2466 83.2222C27.0512 83.2222 26.8559 83.2222 26.6606 83.2222C28.4069 82.8368 29.9044 81.9903 31.1528 80.6831C32.5403 80.9487 33.9075 81.3067 35.2544 81.7573C38.1124 82.9479 39.8376 85.064 40.4302 88.105C40.5278 90.1222 40.5602 92.1403 40.5278 94.1597C30.6319 94.1597 20.7362 94.1597 10.8403 94.1597C10.8078 92.1403 10.8404 90.1222 10.938 88.105C11.4321 85.7806 12.6365 83.9251 14.5512 82.5386C16.3489 81.7333 18.1719 81.0497 20.02 80.4878Z" fill="#4E9A5F"/>
<path fill-rule="evenodd" clip-rule="evenodd" d="M68.4575 80.6831C69.2692 81.3298 70.1157 81.9481 70.9965 82.5386C71.5538 82.8179 72.1397 82.9806 72.7543 83.0269C72.5323 84.7694 72.4997 86.5272 72.6567 88.3003C73.1319 89.462 73.9457 89.755 75.0981 89.1792C75.3702 88.9505 75.5331 88.6575 75.5864 88.3003C75.7434 86.5272 75.7108 84.7694 75.4887 83.0269C76.2334 82.8979 76.9495 82.6702 77.6372 82.3433C78.3327 81.7431 79.0489 81.1897 79.7856 80.6831C81.101 80.9804 82.403 81.3384 83.6918 81.7573C86.5499 82.9479 88.275 85.064 88.8676 88.105C88.9653 90.1222 88.9977 92.1403 88.9653 94.1597C79.0694 94.1597 69.1737 94.1597 59.2778 94.1597C59.2454 92.1403 59.2778 90.1222 59.3754 88.105C59.6456 86.654 60.2315 85.3519 61.1332 84.1987C63.1471 82.1667 65.5885 80.9948 68.4575 80.6831Z" fill="#3D8244"/>
<path fill-rule="evenodd" clip-rule="evenodd" d="M24.5117 83.2222C25.2279 83.2222 25.9439 83.2222 26.6602 83.2222C26.8555 83.2222 27.0508 83.2222 27.2461 83.2222C27.2785 84.9812 27.2461 86.739 27.1484 88.4956C27.0576 88.7751 26.8947 89.0028 26.6602 89.1792C25.615 89.7134 24.8014 89.4855 24.2187 88.4956C24.1861 87.6167 24.1537 86.7378 24.1211 85.8589C24.1225 84.9046 24.2527 84.0257 24.5117 83.2222Z" fill="#3D8244"/>
<path fill-rule="evenodd" clip-rule="evenodd" d="M72.7538 83.0269C73.6591 83.2765 74.5706 83.2765 75.4882 83.0269C75.7102 84.7694 75.7428 86.5272 75.5858 88.3003C75.5325 88.6575 75.3696 88.9505 75.0975 89.1792C73.9452 89.755 73.1313 89.462 72.6561 88.3003C72.4991 86.5272 72.5317 84.7694 72.7538 83.0269Z" fill="#3D8244"/>
</svg>
