<svg width="100" height="101" viewBox="0 0 100 101" fill="none" xmlns="http://www.w3.org/2000/svg">
<g clip-path="url(#clip0_2588_4777)">
<path fill-rule="evenodd" clip-rule="evenodd" d="M17.8711 0.409973C21.2564 0.409973 24.642 0.409973 28.0273 0.409973C27.9947 6.83683 28.0273 13.2633 28.125 19.6895C30.2863 17.5344 32.4348 15.3923 34.5703 13.263C36.7059 15.3923 38.8543 17.5344 41.0156 19.6895C41.1133 13.2633 41.1459 6.83683 41.1133 0.409973C57.7799 0.409973 74.4467 0.409973 91.1133 0.409973C91.1133 27.674 91.1133 54.938 91.1133 82.2021C66.6992 82.2021 42.2852 82.2021 17.8711 82.2021C17.8711 54.938 17.8711 27.674 17.8711 0.409973Z" fill="#9A8E4E"/>
<path fill-rule="evenodd" clip-rule="evenodd" d="M28.0279 0.409973C32.3898 0.409973 36.7519 0.409973 41.1138 0.409973C41.1464 6.83683 41.1138 13.2633 41.0161 19.6895C38.8548 17.5344 36.7064 15.3923 34.5708 13.263C32.4353 15.3923 30.2868 17.5344 28.1255 19.6895C28.0279 13.2633 27.9952 6.83683 28.0279 0.409973Z" fill="#9A8E4E"/>
<path opacity="0.999" fill-rule="evenodd" clip-rule="evenodd" d="M15.918 0.409973C16.569 0.409973 17.2201 0.409973 17.8711 0.409973C17.8711 27.674 17.8711 54.938 17.8711 82.2021C42.2852 82.2021 66.6992 82.2021 91.1133 82.2021C91.1133 83.8899 91.1133 85.5775 91.1133 87.2654C66.3086 87.2329 41.5039 87.2654 16.6992 87.3628C13.9591 88.5776 13.2104 90.5575 14.4531 93.3024C15.0412 94.0853 15.7899 94.637 16.6992 94.9577C41.5039 95.0551 66.3086 95.0876 91.1133 95.0551C91.1133 96.7429 91.1133 98.4306 91.1133 100.118C66.0483 100.118 40.983 100.118 15.918 100.118C11.7944 99.0246 9.41811 96.363 8.78907 92.134C8.65885 64.2209 8.65885 36.3075 8.78907 8.39444C9.42364 4.1603 11.7999 1.4988 15.918 0.409973Z" fill="#9A8E4E"/>
<path fill-rule="evenodd" clip-rule="evenodd" d="M32.9102 23.9739C45.6057 23.9413 58.301 23.9739 70.9961 24.0712C74.1752 24.7741 76.226 26.689 77.1485 29.8162C77.2788 37.4111 77.2788 45.0061 77.1485 52.6011C76.1629 55.8985 73.9819 57.8785 70.6055 58.5408C58.1055 58.6707 45.6055 58.6707 33.1055 58.5408C29.9668 57.7071 27.9811 55.7271 27.1485 52.6011C27.0182 45.0061 27.0182 37.4111 27.1485 29.8162C28.0631 26.8594 29.9838 24.9119 32.9102 23.9739Z" fill="#C1B262"/>
<path fill-rule="evenodd" clip-rule="evenodd" d="M33.4961 26.895C45.8661 26.8625 58.236 26.895 70.6055 26.9924C72.461 27.5441 73.6655 28.7451 74.2188 30.5951C74.3491 37.6059 74.3491 44.6166 74.2188 51.6274C73.8235 53.7746 72.554 55.1053 70.4102 55.6196C58.2358 55.7495 46.0612 55.7495 33.8868 55.6196C31.9206 55.1522 30.651 53.9515 30.0782 52.0169C29.9479 44.8762 29.9479 37.7358 30.0782 30.5951C30.65 28.8245 31.7895 27.5912 33.4961 26.895Z" fill="#F0ECC3"/>
<path fill-rule="evenodd" clip-rule="evenodd" d="M37.2061 35.8532C47.1022 35.8207 56.9979 35.8532 66.8936 35.9506C68.1957 36.8594 68.1957 37.7681 66.8936 38.677C57.0629 38.8069 47.2321 38.8069 37.4014 38.677C36.1719 37.8324 36.1069 36.891 37.2061 35.8532Z" fill="#9A8E4E"/>
<path fill-rule="evenodd" clip-rule="evenodd" d="M37.2061 43.8376C47.1672 43.8051 57.1281 43.8376 67.0889 43.935C68.2182 45.0521 68.0881 45.9607 66.6982 46.6614C56.9326 46.7913 47.167 46.7913 37.4014 46.6614C36.1719 45.8168 36.1069 44.8754 37.2061 43.8376Z" fill="#9A8E4E"/>
<path opacity="0.998" fill-rule="evenodd" clip-rule="evenodd" d="M91.1129 87.2654C91.1129 89.8619 91.1129 92.4586 91.1129 95.0551C66.3082 95.0876 41.5035 95.0551 16.6988 94.9577C15.7895 94.637 15.0408 94.0853 14.4528 93.3024C13.21 90.5575 13.9587 88.5775 16.6988 87.3627C41.5035 87.2654 66.3082 87.2329 91.1129 87.2654Z" fill="#F0ECC3"/>
</g>
<defs>
<clipPath id="clip0_2588_4777">
<rect width="100" height="99.7085" fill="white" transform="translate(0 0.507324)"/>
</clipPath>
</defs>
</svg>
