<svg width="89" height="130" viewBox="0 0 89 130" fill="none" xmlns="http://www.w3.org/2000/svg">
<g filter="url(#filter0_d_877:508)">
<path d="M12.194 89.1266L11.6582 45.9908L84.6662 3.25323V59.5952L12.194 89.1266Z" fill="#FDECC9"/>
<path d="M82.8572 3.98242V72.4688L12.6624 112.685L14.2029 115.87L82.8572 76.6496L85.9383 76.9151V4.31424L82.8572 3.98242Z" fill="#D1993F"/>
<path d="M68.7914 41.6766L69.3273 40.8803L65.7104 38.823C65.4317 38.6694 65.1049 38.6251 64.7948 38.6989C64.4847 38.7726 64.2139 38.959 64.0359 39.2212L54.0559 54.4846L43.674 45.592L44.1429 44.9284L40.526 42.8711C40.3953 42.7882 40.2489 42.7326 40.0958 42.7077C39.9427 42.6829 39.786 42.6893 39.6355 42.7266C39.4849 42.7638 39.3437 42.8312 39.2204 42.9246C39.0971 43.0179 38.9943 43.1352 38.9184 43.2693L12.6624 82.2906V110.229L16.2793 112.287L81.0487 73.1989V53.2901L68.7914 41.6766Z" fill="#27DEBF"/>
<path d="M68.7914 41.6766L69.3273 40.8803L65.7104 38.823C65.4317 38.6694 65.1049 38.6251 64.7948 38.6989C64.4847 38.7726 64.2139 38.959 64.0359 39.2212L54.0559 54.4846L43.674 45.592L44.1429 44.9284L40.526 42.8711C40.3953 42.7882 40.2489 42.7326 40.0958 42.7077C39.9427 42.6829 39.786 42.6893 39.6355 42.7266C39.4849 42.7638 39.3437 42.8312 39.2204 42.9246C39.0971 43.0179 38.9943 43.1352 38.9184 43.2693L12.6624 82.2906V110.229L16.2793 112.287L81.0487 73.1989V53.2901L68.7914 41.6766Z" fill="#D1993F"/>
<path d="M16.2798 112.287V84.3483L42.5359 45.327C42.649 45.1999 42.7882 45.0981 42.9441 45.0284C43.1 44.9587 43.2691 44.9226 43.4401 44.9226C43.6112 44.9226 43.7802 44.9587 43.9361 45.0284C44.092 45.0981 44.2312 45.1999 44.3443 45.327L57.7403 56.8078L67.7203 41.5444C67.8333 41.4058 67.9762 41.294 68.1384 41.2173C68.3007 41.1405 68.4782 41.1006 68.658 41.1006C68.8378 41.1006 69.0153 41.1405 69.1776 41.2173C69.3398 41.294 69.4827 41.4058 69.5957 41.5444L84.7332 55.9451V72.403C84.7319 72.7614 84.6391 73.1137 84.4634 73.427C84.2878 73.7403 84.0349 74.0044 83.7285 74.1948L16.2798 112.287Z" fill="#FCCF7E"/>
<path opacity="0.15" d="M57.6721 56.542L63.0305 61.1874L58.3419 55.4802L57.6721 56.542Z" fill="black"/>
<path d="M88.2827 2.85467C88.2417 2.57566 88.1433 2.30797 87.9935 2.06823C87.8437 1.8285 87.6458 1.62183 87.412 1.46105L85.6035 0.200159C85.3089 0.0682331 84.9892 0 84.6658 0C84.3424 0 84.0228 0.0682331 83.7281 0.200159L9.98332 42.606C9.7129 42.7749 9.48405 43.0016 9.31353 43.2696C9.25324 43.5987 9.25324 43.9359 9.31353 44.265V116.202C9.32894 116.532 9.42172 116.854 9.5845 117.142C9.74727 117.43 9.97556 117.676 10.2512 117.861L11.9257 118.79C12.2009 118.907 12.4971 118.967 12.7965 118.967C13.0958 118.967 13.3921 118.907 13.6672 118.79L34.9668 106.381L87.345 76.3846C87.6106 76.1892 87.8315 75.9404 87.9931 75.6545C88.1547 75.3685 88.2534 75.052 88.2827 74.7255V2.85467ZM85.9384 73.7301C85.923 74.0598 85.8302 74.3814 85.6675 74.6694C85.5047 74.9574 85.2764 75.2038 85.0007 75.3892L34.364 104.191L15.7436 115.207C15.2078 115.207 14.8059 115.207 14.8059 114.676V47.3177C14.7418 47.1026 14.7191 46.8775 14.7389 46.6541C14.9618 46.2273 15.3128 45.8795 15.7436 45.6586L85.3356 5.84099C85.8715 5.84099 86.2733 5.84099 86.2733 6.37189L85.9384 73.7301Z" fill="#FDECC9"/>
<path d="M13.5998 118.791C13.3247 118.908 13.0285 118.968 12.7291 118.968C12.4298 118.968 12.1335 118.908 11.8584 118.791L10.1839 117.862C9.87078 117.7 9.60298 117.463 9.40433 117.174C9.20567 116.885 9.08231 116.551 9.04522 116.203V44.2656C8.98493 43.9365 8.98493 43.5993 9.04522 43.2701L12.6621 45.3938L14.7385 46.6546C14.6561 46.9589 14.6561 47.2794 14.7385 47.5837V114.676C14.7385 115.274 15.1404 115.473 15.6762 115.207L13.5998 118.791Z" fill="#D1993F"/>
<path d="M88.284 2.85493C88.284 2.45675 87.8151 2.32402 87.4132 2.85493L13.6015 44.6635C13.3136 44.8399 13.0816 45.0928 12.9317 45.3935C12.7969 45.5716 12.7031 45.7767 12.6568 45.9945C12.6105 46.2123 12.6129 46.4375 12.6637 46.6543V118.26C12.6637 118.791 12.6637 119.056 13.4005 118.923L87.0783 76.783C87.3439 76.5877 87.5648 76.3389 87.7264 76.0529C87.888 75.767 87.9867 75.4504 88.016 75.124V2.85493H88.284ZM85.9397 73.7303C85.9242 74.0601 85.8315 74.3817 85.6687 74.6697C85.5059 74.9577 85.2776 75.2041 85.0019 75.3894L15.7448 115.207C15.209 115.207 14.8071 115.207 14.8071 114.676V47.318C14.743 47.1029 14.7203 46.8778 14.7401 46.6543C14.963 46.2275 15.314 45.8797 15.7448 45.6589L85.3368 5.84125C85.8727 5.84125 86.2746 5.84125 86.2746 6.37215L85.9397 73.7303Z" fill="#754F17"/>
<path d="M75.4234 24.2894L77.2318 21.2367L74.0838 19.4449C73.4874 19.2233 72.8411 19.168 72.2152 19.2851C71.5893 19.4021 71.0078 19.6869 70.5339 20.1085C69.0626 21.0611 67.8403 22.3456 66.9671 23.8568C66.0939 25.368 65.5946 27.0627 65.5104 28.802C65.4461 29.4082 65.542 30.0206 65.7886 30.579C66.0352 31.1374 66.424 31.6228 66.9169 31.9875L69.998 33.3811L71.7395 30.4611C73.5764 28.8262 74.8623 26.6718 75.4234 24.2894Z" fill="#D1993F"/>
<path opacity="0.15" d="M75.4234 24.2894L77.2318 21.2367L74.0838 19.4449C73.4874 19.2233 72.8411 19.168 72.2152 19.2851C71.5893 19.4021 71.0078 19.6869 70.5339 20.1085C69.0626 21.0611 67.8403 22.3456 66.9671 23.8568C66.0939 25.368 65.5946 27.0627 65.5104 28.802C65.4461 29.4082 65.542 30.0206 65.7886 30.579C66.0352 31.1374 66.424 31.6228 66.9169 31.9875L69.998 33.3811L71.7395 30.4611C73.5764 28.8262 74.8623 26.6718 75.4234 24.2894Z" fill="#D1993F"/>
<path d="M77.223 29.3771C79.202 25.9808 79.1962 22.3066 77.21 21.1704C75.2238 20.0342 72.0093 21.8664 70.0302 25.2626C68.0511 28.6589 68.0569 32.3332 70.0432 33.4694C72.0294 34.6055 75.2439 32.7734 77.223 29.3771Z" fill="#FCCF7E"/>
</g>
<defs>
<filter id="filter0_d_877:508" x="0" y="0" width="88.2839" height="129.968" filterUnits="userSpaceOnUse" color-interpolation-filters="sRGB">
<feFlood flood-opacity="0" result="BackgroundImageFix"/>
<feColorMatrix in="SourceAlpha" type="matrix" values="0 0 0 0 0 0 0 0 0 0 0 0 0 0 0 0 0 0 127 0" result="hardAlpha"/>
<feOffset dx="-5" dy="7"/>
<feGaussianBlur stdDeviation="2"/>
<feComposite in2="hardAlpha" operator="out"/>
<feColorMatrix type="matrix" values="0 0 0 0 0 0 0 0 0 0 0 0 0 0 0 0 0 0 0.25 0"/>
<feBlend mode="normal" in2="BackgroundImageFix" result="effect1_dropShadow_877:508"/>
<feBlend mode="normal" in="SourceGraphic" in2="effect1_dropShadow_877:508" result="shape"/>
</filter>
</defs>
</svg>
