<svg width="101" height="101" viewBox="0 0 101 101" fill="none" xmlns="http://www.w3.org/2000/svg">
<path d="M17.2402 74.5176L44.6779 96.6929L44.4262 97.0219V97.0211C43.459 98.3191 41.9695 99.0898 40.3821 99.1145C39.3976 99.1222 38.4394 98.7871 37.6632 98.1632L2.68998 69.9172C1.75948 69.1527 1.16239 68.0393 1.02902 66.8208C0.883678 65.4046 1.28825 63.9869 2.15355 62.8773L41.7413 10.7975C42.4883 9.82684 43.5274 9.13884 44.6953 8.8431L75.6064 1.45731C78.7949 0.834945 80.2551 0.627227 82.3191 2.28739V2.28817C82.5948 2.50901 82.848 2.75765 83.0743 3.03177L59.8483 8.35895C57.9147 8.79987 56.1924 9.9257 54.9816 11.5419L16.0478 62.7046C14.7068 64.4428 14.0804 66.6536 14.3037 68.8618C14.5262 71.0703 15.5803 73.101 17.2391 74.5179L17.2402 74.5176ZM84.7375 21.5897C83.9187 21.5959 83.2241 22.2097 83.0938 23.0429C82.9634 23.8761 83.4362 24.6846 84.2116 24.9548C84.987 25.2259 85.8388 24.8799 86.2262 24.1363C86.6142 23.3935 86.4247 22.4707 85.7782 21.9526C85.4785 21.7186 85.1136 21.5912 84.7375 21.5897H84.7375ZM100.999 44.4213C101.018 45.6491 100.627 46.846 99.8913 47.8111L60.9921 98.9579C60.159 100.057 58.943 100.777 57.602 100.965C57.4079 100.993 57.2109 101.004 57.0146 100.999C56.0249 101.007 55.0614 100.672 54.2793 100.047L46.7439 93.9765L19.3062 71.8012C18.3457 70.9441 17.7471 69.7349 17.6378 68.4298C17.5276 67.1256 17.9157 65.8284 18.7188 64.8137L57.62 13.6669C58.3534 12.6847 59.3993 11.999 60.5732 11.7295L84.4705 6.24634L91.1997 4.70662C94.3545 4.11821 95.8146 3.94524 97.8622 5.58843V5.5892C99.5283 7.25633 100.421 9.58049 100.312 11.972L100.999 44.4213ZM37.4299 71.0582L67.453 31.5704C68.0232 30.8206 67.895 29.7365 67.1676 29.1488C66.4401 28.5612 65.3883 28.6925 64.8181 29.443L34.795 68.9131C34.2204 69.6637 34.344 70.7517 35.0715 71.3439C35.7989 71.9362 36.8545 71.808 37.4292 71.0582H37.4299ZM75.374 37.9692C75.9442 37.2194 75.8161 36.1353 75.0886 35.5476C74.3611 34.96 73.3093 35.0913 72.7391 35.8418L42.716 75.3297C42.319 75.8494 42.2463 76.5582 42.5287 77.152C42.8119 77.7458 43.4 78.1203 44.0421 78.1142C44.5538 78.1157 45.037 77.8732 45.3509 77.457L75.374 37.9692ZM83.0261 41.9474C82.2919 41.3621 81.2386 41.4934 80.6602 42.2416L50.6371 81.7295C50.0707 82.48 50.1981 83.5618 50.9225 84.151C51.2222 84.385 51.5871 84.5124 51.9632 84.5139C52.4794 84.5162 52.9678 84.2738 53.2885 83.8568L83.3116 44.3848C83.8795 43.628 83.7521 42.5423 83.0261 41.9462V41.9474ZM87.8426 19.2363C86.7923 18.3862 85.4565 18.0016 84.1311 18.1669C82.805 18.3321 81.5973 19.0332 80.7732 20.1166C79.9491 21.2 79.576 22.5759 79.7371 23.9426C79.8974 25.3086 80.5784 26.5534 81.6295 27.4028C82.6806 28.2514 84.0156 28.6352 85.3416 28.4691C86.6677 28.3039 87.8746 27.6012 88.698 26.5179C89.5199 25.4345 89.8907 24.0592 89.7304 22.6948C89.57 21.3296 88.8913 20.0857 87.8424 19.2362L87.8426 19.2363Z" fill="#C1B262"/>
<path d="M60 8L83 3L81.5 2L80.5 1.5L79 1H77.5L48.5 8L45 9L43.5 9.5L42 10.5L2.5 62.5L1.5 64L1 65V66V67L1.5 68.5L2 69.5L2.5 70L38.5 99L39.5 99.5H41L43 99L43.5 98.5L44 97.5L44.5 96.5L17 74L15.5 72L15 71L14.5 69.5L14 67.5V66L14.5 65L16 63L54 13L56 10.5L57 9.5L58.5 8.5L60 8Z" fill="#9A8E4E" stroke="#9A8E4E"/>
<rect x="49" y="83.8071" width="54.0639" height="4" rx="2" transform="rotate(-52.9462 49 83.8071)" fill="#F0ECC3"/>
<rect x="41" y="77.147" width="54.0639" height="4" rx="2" transform="rotate(-52.9462 41 77.147)" fill="#F0ECC3"/>
<rect x="33" y="71.147" width="54.0639" height="4" rx="2" transform="rotate(-52.9462 33 71.147)" fill="#F0ECC3"/>
<rect x="79" y="18" width="11" height="11" rx="5.5" fill="#F0ECC3"/>
<rect x="82" y="21" width="5" height="5" rx="2.5" fill="#C1B262"/>
</svg>
