<svg width="65" height="112" viewBox="0 0 65 112" fill="none" xmlns="http://www.w3.org/2000/svg">
<path d="M0.530762 111.387C0.530762 111.387 0.530762 111.387 0.530762 110.988V37.9261C0.545986 37.6477 0.625813 37.3766 0.7639 37.1345C0.901987 36.8923 1.09453 36.6858 1.32623 36.5313L64.0354 0.398712C64.0354 0.398712 64.0354 0.398712 64.0354 0.797233V73.8594C64.0157 74.1461 63.9345 74.425 63.7972 74.6773C63.6599 74.9295 63.4698 75.149 63.2399 75.3207L0.795917 111.32L0.530762 111.387Z" fill="#FFC2B6"/>
<path d="M64.2338 0.531361V73.5936C64.2219 73.8381 64.1489 74.0757 64.0215 74.2846C63.8941 74.4935 63.7164 74.667 63.5046 74.7891L0.662887 111.055V37.9923C0.680422 37.7492 0.755762 37.5138 0.882614 37.3059C1.00947 37.0979 1.18415 36.9233 1.39206 36.7968L64.1675 0.597782L64.2338 0.531361ZM64.3001 0H63.9023L0.928042 36.5311C0.655203 36.7166 0.429268 36.9632 0.268173 37.2515C0.107078 37.5397 0.0152572 37.8616 0 38.1916L0 111.254C0 111.652 0 111.918 0.53031 111.918C0.59246 111.948 0.660388 111.963 0.729176 111.963C0.797964 111.963 0.865892 111.948 0.928042 111.918L63.9023 75.5197C64.1873 75.3472 64.4226 75.1034 64.5853 74.8124C64.748 74.5213 64.8324 74.1928 64.8304 73.8592V0.664202C64.8304 0.265681 64.8304 0 64.3001 0V0Z" fill="#27DEBF"/>
<path d="M64.2338 0.531361V73.5936C64.2219 73.8381 64.1489 74.0757 64.0215 74.2846C63.8941 74.4935 63.7164 74.667 63.5046 74.7891L0.662887 111.055V37.9923C0.680422 37.7492 0.755762 37.5138 0.882614 37.3059C1.00947 37.0979 1.18415 36.9233 1.39206 36.7968L64.1675 0.597782L64.2338 0.531361ZM64.3001 0H63.9023L0.928042 36.5311C0.655203 36.7166 0.429268 36.9632 0.268173 37.2515C0.107078 37.5397 0.0152572 37.8616 0 38.1916L0 111.254C0 111.652 0 111.918 0.53031 111.918C0.59246 111.948 0.660388 111.963 0.729176 111.963C0.797964 111.963 0.865892 111.948 0.928042 111.918L63.9023 75.5197C64.1873 75.3472 64.4226 75.1034 64.5853 74.8124C64.748 74.5213 64.8324 74.1928 64.8304 73.8592V0.664202C64.8304 0.265681 64.8304 0 64.3001 0V0Z" fill="#BA503A"/>
<path d="M6.69409 40.981L29.0334 28.0291V53.8666L6.69409 66.8185V40.981Z" fill="#FD896E"/>
<path opacity="0.8" d="M6.69409 40.981L29.0334 28.0291V53.8666L6.69409 66.8185V40.981Z" fill="#FD896E"/>
<path d="M25.7203 34.4716V42.2428L24.9911 42.6413V40.2502C24.9911 38.9882 23.9305 38.5233 22.6047 39.2539L13.258 44.7668C12.5979 45.1569 12.0382 45.6965 11.6238 46.3425C11.2094 46.9884 10.9518 47.7226 10.8716 48.4863V50.8774L10.2087 51.276V43.5712L25.7203 34.4716Z" fill="#BA503A"/>
<path d="M21.4115 54.2656C20.2183 54.9298 19.2903 54.2656 19.2903 52.738V40.251L16.4399 41.8451V54.3985C16.4271 55.1672 16.2345 55.9222 15.8776 56.6028C15.5207 57.2834 15.0095 57.8706 14.3849 58.3173L12.2637 59.7785V60.642L23.4665 54V53.1365L21.4115 54.2656Z" fill="#BA503A"/>
<path d="M33.5422 26.5674C33.5422 27.2316 34.2051 27.4309 34.9343 27.0324L56.677 14.6118C57.0694 14.397 57.4059 14.0927 57.6593 13.7234C57.9126 13.3542 58.0757 12.9304 58.1354 12.4864C58.1354 11.8221 57.4725 11.5565 56.677 12.0214L34.9343 24.6412C34.5778 24.8432 34.2689 25.1199 34.0287 25.4523C33.7884 25.7846 33.6225 26.165 33.5422 26.5674V26.5674Z" fill="#BA503A"/>
<path d="M33.5422 34.4722C33.5422 35.2028 34.2051 35.4021 34.9343 34.9372L56.677 22.3837C57.0694 22.1689 57.4059 21.8646 57.6593 21.4954C57.9126 21.1261 58.0757 20.7024 58.1354 20.2583C58.1354 19.5277 57.4725 19.3284 56.677 19.7934L34.9343 32.3468C34.5664 32.5834 34.2524 32.8949 34.0126 33.2611C33.7727 33.6273 33.6125 34.0399 33.5422 34.4722V34.4722Z" fill="#BA503A"/>
<path d="M33.5422 42.243C33.5422 42.9736 34.2051 43.1728 34.9343 42.7079L56.677 30.1545C57.0694 29.9397 57.4059 29.6353 57.6593 29.2661C57.9126 28.8969 58.0757 28.4731 58.1354 28.029C58.1354 27.2984 57.4725 27.0992 56.677 27.5641L34.9343 39.8518C34.527 40.1084 34.1877 40.4598 33.9453 40.8762C33.703 41.2925 33.5646 41.7615 33.5422 42.243V42.243Z" fill="#BA503A"/>
<path d="M33.5422 50.0137C33.5422 50.7443 34.2051 50.9436 34.9343 50.4787L56.677 37.9252C57.0694 37.7104 57.4059 37.4061 57.6593 37.0369C57.9126 36.6676 58.0757 36.2439 58.1354 35.7998C58.1354 35.0692 57.4725 34.8699 56.677 35.3349L34.9343 47.8883C34.5606 48.1182 34.2421 48.4279 34.0015 48.7953C33.7609 49.1627 33.6041 49.5787 33.5422 50.0137V50.0137Z" fill="#BA503A"/>
<path d="M6.62891 73.0624C6.62891 73.7266 7.29179 73.9259 8.08726 73.5274L56.6769 45.6973C57.0629 45.4746 57.3943 45.1681 57.6467 44.8003C57.899 44.4325 58.066 44.0128 58.1353 43.5719C58.1353 42.8412 57.4724 42.642 56.6769 43.1069L8.15355 71.2027C7.77698 71.379 7.44459 71.6375 7.18077 71.9593C6.91694 72.2811 6.72837 72.6581 6.62891 73.0624V73.0624Z" fill="#BA503A"/>
<path d="M6.62891 81.032C6.62891 81.7627 7.29179 81.9619 8.08726 81.497L56.6769 53.1356C57.0728 52.925 57.4121 52.6219 57.666 52.2519C57.9198 51.8818 58.0808 51.4558 58.1353 51.0101C58.1353 50.3459 57.4724 50.1467 56.6769 50.5452L8.15355 78.9066C7.75514 79.1218 7.41083 79.4249 7.14668 79.7932C6.88252 80.1614 6.70547 80.5851 6.62891 81.032Z" fill="#BA503A"/>
<path d="M6.62891 88.8031C6.62891 89.5338 7.29179 89.733 8.08726 89.2681L56.6769 61.1723C57.0693 60.9575 57.4058 60.6532 57.6592 60.284C57.9125 59.9147 58.0756 59.491 58.1353 59.0469C58.1353 58.3827 57.4724 58.117 56.6769 58.582L8.15355 86.6777C7.74873 86.8845 7.39913 87.1854 7.13392 87.5551C6.8687 87.9248 6.69555 88.3527 6.62891 88.8031V88.8031Z" fill="#BA503A"/>
</svg>
