<svg width="100" height="100" viewBox="0 0 100 100" fill="none" xmlns="http://www.w3.org/2000/svg">
<g clip-path="url(#clip0_2588_486)">
<path opacity="0.994" fill-rule="evenodd" clip-rule="evenodd" d="M49.9023 5.95703C49.9023 14.1602 49.9023 22.3633 49.9023 30.5664C49.9023 30.6314 49.9023 30.6967 49.9023 30.7617C49.128 31.4381 48.3792 32.1543 47.6562 32.9102C45.57 30.7914 43.4542 28.7082 41.3085 26.6602C39.8763 27.9623 38.5091 29.3295 37.207 30.7617C40.5572 34.2096 43.9425 37.6275 47.3632 41.0156C47.4935 41.1459 47.6236 41.1459 47.7538 41.0156C48.4445 40.2922 49.1605 39.6086 49.9023 38.9648C49.9023 45.0195 49.9023 51.0742 49.9023 57.1289C39.3447 56.8187 31.6298 52.001 26.7577 42.6758C22.3449 31.9318 23.9724 22.2314 31.6406 13.5742C36.7204 8.65723 42.8077 6.11816 49.9023 5.95703Z" fill="#4E9A5F"/>
<path fill-rule="evenodd" clip-rule="evenodd" d="M49.9023 5.95703C60.5828 6.52098 68.3627 11.534 73.2422 20.9961C77.1164 30.6633 75.9445 39.6477 69.7266 47.9492C64.5109 53.9908 57.9029 57.0508 49.9023 57.1289C49.9023 51.0742 49.9023 45.0195 49.9023 38.9648C54.1951 34.8023 58.427 30.5705 62.5977 26.2695C61.2955 24.8373 59.9283 23.4701 58.4961 22.168C55.6275 24.9717 52.7629 27.7711 49.9023 30.5664C49.9023 22.3633 49.9023 14.1602 49.9023 5.95703Z" fill="#3D8244"/>
<path fill-rule="evenodd" clip-rule="evenodd" d="M49.9023 38.9648C49.9023 36.2305 49.9023 33.4961 49.9023 30.7617C49.9023 30.6967 49.9023 30.6314 49.9023 30.5664C52.7629 27.7711 55.6275 24.9717 58.4961 22.168C59.9283 23.4701 61.2955 24.8373 62.5977 26.2695C58.427 30.5705 54.1951 34.8023 49.9023 38.9648Z" fill="#CEE4BD"/>
<path fill-rule="evenodd" clip-rule="evenodd" d="M49.9023 30.7617C49.9023 33.4961 49.9023 36.2305 49.9023 38.9648C49.1605 39.6086 48.4445 40.2922 47.7539 41.0156C47.6236 41.1459 47.4936 41.1459 47.3633 41.0156C43.9426 37.6275 40.5572 34.2096 37.207 30.7617C38.5092 29.3295 39.8764 27.9623 41.3086 26.6602C43.4543 28.7082 45.5701 30.7914 47.6562 32.9102C48.3793 32.1543 49.1281 31.4381 49.9023 30.7617Z" fill="#CEE4BD"/>
<path opacity="0.988" fill-rule="evenodd" clip-rule="evenodd" d="M-0.0976562 77.6367C-0.0976562 77.3763 -0.0976562 77.1158 -0.0976562 76.8554C0.416393 75.3792 0.937227 73.882 1.46484 72.3632C3.98789 71.8585 6.52695 71.4355 9.08203 71.0937C10.2463 68.8628 11.3856 66.6167 12.5 64.3554C14.4088 64.098 16.3293 64.098 18.2617 64.3554C19.3966 66.5925 20.5033 68.8386 21.582 71.0937C24.1242 71.4662 26.6633 71.8568 29.1992 72.2656C29.7693 73.9912 30.3553 75.7164 30.957 77.4414C29.1422 79.1585 27.3518 80.9164 25.5859 82.7148C25.7646 85.2384 26.1227 87.7449 26.6602 90.2343C25.368 91.6216 23.8707 92.7609 22.168 93.6523C19.8828 92.5585 17.6368 91.3867 15.4297 90.1367C13.2948 91.3507 11.1138 92.49 8.88672 93.5546C8.35703 93.6988 7.90131 93.5685 7.51953 93.164C6.30426 92.2648 5.13238 91.3208 4.00391 90.332C4.43859 87.9193 4.89432 85.5103 5.37109 83.1054C3.60918 81.2132 1.78626 79.3904 -0.0976562 77.6367Z" fill="#4E9A5F"/>
<path opacity="0.987" fill-rule="evenodd" clip-rule="evenodd" d="M49.9023 64.1602C49.8383 72.8982 49.9035 81.6221 50.0977 90.332C47.7611 91.4258 45.4174 92.5326 43.0664 93.6523C41.3996 92.7658 39.9023 91.659 38.5742 90.332C38.9785 87.873 39.4342 85.4316 39.9414 83.0078C38.0779 81.1117 36.1898 79.2563 34.2773 77.4414C34.8633 75.7486 35.4492 74.0561 36.0352 72.3633C38.6082 71.8797 41.1799 71.424 43.75 70.9961C44.9342 68.7582 46.0084 66.4797 46.9727 64.1602C47.9492 64.1602 48.9258 64.1602 49.9023 64.1602Z" fill="#4E9A5F"/>
<path opacity="0.984" fill-rule="evenodd" clip-rule="evenodd" d="M99.9023 76.8554C99.9023 77.1158 99.9023 77.3763 99.9023 77.6367C98.0184 79.3904 96.1955 81.2132 94.4336 83.1054C94.9104 85.5103 95.366 87.9193 95.8008 90.332C94.5121 91.4982 93.1449 92.5724 91.6992 93.5547C91.4389 93.6849 91.1783 93.6849 90.918 93.5547C88.7625 92.4769 86.6141 91.4027 84.4727 90.332C82.1641 91.3886 79.8854 92.4955 77.6367 93.6523C75.934 92.7609 74.4367 91.6216 73.1445 90.2343C73.682 87.7449 74.04 85.2384 74.2188 82.7148C72.4529 80.9164 70.6625 79.1586 68.8477 77.4414C69.4494 75.7164 70.0354 73.9912 70.6055 72.2656C73.1414 71.8568 75.6805 71.4662 78.2227 71.0937C79.3014 68.8386 80.4082 66.5925 81.543 64.3554C83.4754 64.098 85.3959 64.098 87.3047 64.3554C88.4191 66.6167 89.5584 68.8628 90.7227 71.0937C93.2795 71.4357 95.8186 71.8587 98.3398 72.3632C98.8674 73.882 99.3883 75.3793 99.9023 76.8554Z" fill="#4E9A5F"/>
<path fill-rule="evenodd" clip-rule="evenodd" d="M49.9027 64.1602C50.8879 64.0963 51.8644 64.1614 52.8324 64.3555C53.8611 66.6407 54.9678 68.8868 56.1527 71.0938C58.7096 71.4358 61.2486 71.8588 63.7699 72.3633C64.3558 74.0561 64.9418 75.7487 65.5277 77.4415C63.6152 79.2563 61.7271 81.1118 59.8637 83.0079C60.4797 85.5633 60.8703 88.135 61.0355 90.7227C59.6633 91.7985 58.231 92.7751 56.7387 93.6524C54.5264 92.5477 52.3127 91.4409 50.098 90.3321C49.9039 81.6221 49.8387 72.8983 49.9027 64.1602Z" fill="#4E9A5F"/>
</g>
<defs>
<clipPath id="clip0_2588_486">
<rect width="100" height="100" fill="white"/>
</clipPath>
</defs>
</svg>
