<svg width="100" height="100" viewBox="0 0 100 100" fill="none" xmlns="http://www.w3.org/2000/svg">
<g clip-path="url(#clip0_2588_332)">
<path opacity="0.999" fill-rule="evenodd" clip-rule="evenodd" d="M4.39453 -0.0974121C34.733 -0.0974121 65.0717 -0.0974121 95.4102 -0.0974121C97.6236 0.41353 99.1211 1.39284 99.9023 2.8405C99.9023 6.37452 99.9023 9.90853 99.9023 13.4425C66.5689 13.4425 33.2357 13.4425 -0.0976562 13.4425C-0.0976562 9.90853 -0.0976562 6.37452 -0.0976562 2.8405C0.683594 1.39284 2.181 0.41353 4.39453 -0.0974121Z" fill="#3D8244"/>
<path fill-rule="evenodd" clip-rule="evenodd" d="M34.4727 6.71631C36.7514 6.71631 39.0299 6.71631 41.3086 6.71631C41.3086 8.98749 41.3086 11.2587 41.3086 13.5298C41.3086 11.2587 41.3086 8.98749 41.3086 6.71631C39.0299 6.71631 36.7514 6.71631 34.4727 6.71631Z" fill="#3D8244"/>
<path opacity="0.999" fill-rule="evenodd" clip-rule="evenodd" d="M-0.0976562 13.4426C33.2357 13.4426 66.5689 13.4426 99.9023 13.4426C99.9023 38.2958 99.9023 63.1489 99.9023 88.0021C99.1211 90.2083 97.6236 91.7008 95.4102 92.4795C65.0717 92.4795 34.733 92.4795 4.39453 92.4795C2.181 91.7008 0.683594 90.2083 -0.0976562 88.0021C-0.0976562 63.1489 -0.0976562 38.2958 -0.0976562 13.4426Z" fill="#CEE4BD"/>
<path fill-rule="evenodd" clip-rule="evenodd" d="M6.73828 20.2561C35.5143 20.2561 64.2904 20.2561 93.0664 20.2561C93.0664 42.0594 93.0664 63.8627 93.0664 85.6659C64.2904 85.6659 35.5143 85.6659 6.73828 85.6659C6.73828 63.8627 6.73828 42.0594 6.73828 20.2561Z" fill="#4E9A5F"/>
<path fill-rule="evenodd" clip-rule="evenodd" d="M6.93359 20.4509C35.5795 20.4509 64.2252 20.4509 92.8711 20.4509C92.8711 42.1244 92.8711 63.798 92.8711 85.4714C64.2252 85.4714 35.5795 85.4714 6.93359 85.4714C6.93359 63.798 6.93359 42.1244 6.93359 20.4509Z" fill="#CEE4BD"/>
<path fill-rule="evenodd" clip-rule="evenodd" d="M85.6441 70.0922C86.5001 70.0626 87.1837 70.3871 87.6949 71.0655C87.8251 73.8558 87.8251 76.6462 87.6949 79.4365C87.4669 79.7933 87.174 80.0853 86.816 80.3125C84.0166 80.4423 81.2169 80.4423 78.4175 80.3125C77.1447 79.2659 77.1447 78.2276 78.4175 77.1977C80.4347 77.1004 82.4529 77.0681 84.4722 77.1004C84.4398 75.0877 84.4722 73.0761 84.5699 71.0655C84.9078 70.6953 85.2658 70.3708 85.6441 70.0922Z" fill="#3D8244"/>
<path fill-rule="evenodd" clip-rule="evenodd" d="M29.1992 50.041C35.6297 52.986 42.0097 56.0359 48.3398 59.1906C48.1134 61.1681 48.081 63.1798 48.2422 65.2254C48.7886 66.6306 49.7326 66.9551 51.0742 66.1988C51.3293 65.9239 51.4922 65.5994 51.5625 65.2254C51.7236 63.1798 51.6912 61.1681 51.4648 59.1906C57.7789 56.0443 64.1589 52.9944 70.6054 50.041C70.6705 55.0392 70.6054 60.0359 70.4101 65.0308C63.5972 68.4586 56.7613 71.8328 49.9023 75.1537C43.0433 71.8328 36.2074 68.4586 29.3945 65.0308C29.1992 60.0359 29.1342 55.0392 29.1992 50.041Z" fill="#1F612D"/>
<path fill-rule="evenodd" clip-rule="evenodd" d="M48.3398 59.1907C48.8576 59.3834 49.3783 59.5781 49.9023 59.7747C50.4264 59.5781 50.9471 59.3834 51.4648 59.1907C51.6912 61.1682 51.7236 63.1799 51.5625 65.2255C51.4922 65.5995 51.3293 65.924 51.0742 66.1989C49.7326 66.9552 48.7887 66.6307 48.2422 65.2255C48.081 63.1799 48.1135 61.1682 48.3398 59.1907Z" fill="#3D8244"/>
<path fill-rule="evenodd" clip-rule="evenodd" d="M75.4883 47.8995C75.4883 47.8347 75.4883 47.7697 75.4883 47.7048C76.2045 47.7048 76.9205 47.7048 77.6367 47.7048C77.7014 52.151 77.6361 56.5636 77.4414 60.9425C77.4414 56.5949 77.4414 52.2471 77.4414 47.8995C76.7904 47.8995 76.1393 47.8995 75.4883 47.8995Z" fill="#CEE4BD"/>
<path fill-rule="evenodd" clip-rule="evenodd" d="M74.707 44.0061C74.8811 44.1249 75.0764 44.1897 75.293 44.2008C67.4154 44.4603 59.5377 44.4603 51.6602 44.2008C59.3758 44.2654 67.058 44.2006 74.707 44.0061Z" fill="#3D8244"/>
<path fill-rule="evenodd" clip-rule="evenodd" d="M51.6602 44.2008C59.5377 44.4603 67.4155 44.4603 75.293 44.2008C76.8403 44.3569 78.4028 44.4542 79.9805 44.4928C80.3385 44.72 80.6315 45.012 80.8594 45.3688C80.9244 50.625 80.9897 55.8811 81.0547 61.1372C81.9178 62.5334 82.8291 63.8961 83.7891 65.2254C84.8172 67.3013 84.1987 68.3072 81.9336 68.2428C81.6541 68.1523 81.4264 67.9899 81.25 67.7561C80.6602 66.7074 79.9766 65.734 79.1993 64.836C78.3965 65.8822 77.6153 66.9529 76.8555 68.0481C74.8879 68.7398 74.009 68.0584 74.2188 66.004C75.3459 64.3388 76.4202 62.6516 77.4414 60.9426C77.6362 56.5636 77.7014 52.151 77.6368 47.7049C76.9205 47.7049 76.2045 47.7049 75.4883 47.7049C67.5123 47.6402 59.5698 47.7051 51.6602 47.8996C51.7319 48.7692 51.6342 49.6127 51.3672 50.4303C50.1438 51.5894 49.1022 51.4595 48.2422 50.0409C48.112 47.3804 48.112 44.72 48.2422 42.0594C49.3491 40.502 50.4557 40.502 51.5625 42.0594C51.66 42.7703 51.6924 43.484 51.6602 44.2008Z" fill="#CEE4BD"/>
<path fill-rule="evenodd" clip-rule="evenodd" d="M51.6602 47.8995C59.5697 47.7051 67.5123 47.6402 75.4883 47.7049C75.4883 47.7697 75.4883 47.8347 75.4883 47.8995C75.2717 47.9106 75.0764 47.9755 74.9023 48.0942C67.1883 47.8997 59.4408 47.8349 51.6602 47.8995Z" fill="#3D8244"/>
<path fill-rule="evenodd" clip-rule="evenodd" d="M74.707 44.0063C67.058 44.2007 59.3757 44.2656 51.6601 44.2009C51.6923 43.4841 51.6599 42.7705 51.5625 42.0595C50.4556 40.5022 49.349 40.5022 48.2421 42.0595C48.1119 44.7201 48.1119 47.3805 48.2421 50.0411C49.1021 51.4597 50.1437 51.5895 51.3671 50.4304C51.6341 49.6128 51.7318 48.7693 51.6601 47.8997C59.4408 47.8351 67.1882 47.8999 74.9023 48.0944C73.4709 48.7428 72.0386 49.3917 70.6054 50.0411C64.1589 52.9945 57.7789 56.0444 51.4648 59.1907C50.947 59.3834 50.4263 59.5781 49.9023 59.7747C49.3783 59.5781 48.8576 59.3834 48.3398 59.1907C42.0097 56.036 35.6296 52.9861 29.1992 50.0411C26.4457 48.8312 23.7113 47.5658 20.996 46.245C20.7357 46.1151 20.7357 45.9855 20.996 45.8556C30.655 41.399 40.2904 36.889 49.9023 32.3259C58.1763 36.2205 66.4445 40.114 74.707 44.0063Z" fill="#3D8244"/>
<path fill-rule="evenodd" clip-rule="evenodd" d="M12.9877 25.5124C15.7229 25.4799 18.4572 25.5124 21.1908 25.6098C22.6856 26.5407 22.7506 27.5791 21.3862 28.7245C19.369 28.8219 17.3507 28.8542 15.3315 28.8219C15.364 30.8346 15.3314 32.8461 15.2338 34.8567C14.3128 35.8096 13.3362 35.8745 12.3041 35.0514C11.9885 32.2096 11.9234 29.3543 12.1088 26.4858C12.3755 26.1233 12.6685 25.799 12.9877 25.5124Z" fill="#3D8244"/>
</g>
<defs>
<clipPath id="clip0_2588_332">
<rect width="100" height="99.6721" fill="white"/>
</clipPath>
</defs>
</svg>
