<svg width="102" height="102" viewBox="0 0 102 102" fill="none" xmlns="http://www.w3.org/2000/svg">
<path d="M2.65625 89.0061V94.3499V96.2104L2.7518 96.725L2.87919 97.4375L3.22953 98.3875L3.61171 99.0604L4.02575 99.6146L4.66272 100.208L5.71373 100.763L6.63735 101H43.8686L44.9833 100.644L46.0343 99.9313L46.5757 99.3375L47.1172 98.4271L47.4356 97.5958L47.6267 96.8437L47.6904 96.052V94.3499V68.8184H31.9571V78.5956L31.7979 79.5852L31.4157 80.456L30.938 81.0893L30.5239 81.406L29.887 81.6435L29.4411 81.7227L28.836 81.6435L28.2627 81.406L25.1733 78.5956L22.084 81.406L21.6381 81.6435L21.1285 81.7227L20.619 81.6435L19.9501 81.406L19.4724 81.0893L18.9947 80.456L18.6125 79.5852L18.4532 78.7539V77.6851V68.8184H2.65625V89.0061Z" fill="#1F612D" stroke="#1F612D"/>
<path d="M30.1091 53.2617H20.2041V78.7141L20.236 78.9912L20.3633 79.2683L20.5226 79.4662L20.7455 79.5454L21.0003 79.585L21.1914 79.5454L21.3507 79.4662L25.1088 75.9828L28.8351 79.4266L28.9944 79.5454L29.2173 79.6246H29.4721L29.6632 79.5454L29.8543 79.3475L30.0135 79.0704L30.1091 78.7537V53.2617Z" fill="#3D8244" stroke="#3D8244"/>
<path d="M18.5168 66.7203V53.2618L4.72631 53.2222L4.31227 53.3013L3.83454 53.4597L3.35681 53.6972L2.87908 54.0138L2.4332 54.4097L2.08286 54.8451L1.76437 55.3201L1.44588 55.9139L1.22294 56.468L1.09555 57.0222L1.03185 57.4576L1 58.091V62.2077L1.15924 63.1181L1.38219 63.8306L1.70067 64.5431L2.14656 65.1765L2.68799 65.7307L3.16572 66.1661L3.70715 66.4828L4.24858 66.6411L4.66261 66.7203H18.5168Z" fill="#4E9A5F" stroke="#4E9A5F"/>
<path d="M31.7976 53.2612V66.7197L45.5881 66.7593L46.0022 66.6801L46.4799 66.5218L46.9576 66.2843L47.4354 65.9676L47.8813 65.5718L48.2316 65.1363L48.5501 64.6613L48.8686 64.0676L49.0915 63.5134L49.2189 62.9592L49.2826 62.5238L49.3145 61.8905V57.7737L49.1552 56.8633L48.9323 56.1508L48.6138 55.4383L48.1679 54.805L47.6265 54.2508L47.1487 53.8154L46.6073 53.4987L46.0659 53.3404L45.6518 53.2612H31.7976Z" fill="#4E9A5F" stroke="#4E9A5F"/>
<path d="M28.498 36.7839V42.1278V43.9882L28.5936 44.5028L28.721 45.2153L29.0713 46.1653L29.4535 46.8382L29.8675 47.3924L30.5045 47.9862L31.5555 48.5403L32.4791 48.7779H69.7104L70.8251 48.4216L71.8761 47.7091L72.4175 47.1153L72.959 46.2049L73.2774 45.3736L73.4685 44.6215L73.5322 43.8299V42.1278V16.5962H57.7989V26.3734L57.6397 27.363L57.2575 28.2338L56.7798 28.8672L56.3657 29.1839L55.7288 29.4214L55.2829 29.5005L54.6777 29.4214L54.1045 29.1839L51.0151 26.3734L47.9258 29.1839L47.4799 29.4214L46.9703 29.5005L46.4608 29.4214L45.7919 29.1839L45.3142 28.8672L44.8365 28.2338L44.4543 27.363L44.295 26.5317V25.463V16.5962H28.498V36.7839Z" fill="#1F612D" stroke="#1F612D"/>
<path d="M55.9518 1.03955H46.0469V26.492L46.0787 26.769L46.2061 27.0461L46.3654 27.2441L46.5883 27.3232L46.8431 27.3628L47.0342 27.3232L47.1934 27.2441L50.9516 23.7607L54.6779 27.2045L54.8371 27.3232L55.0601 27.4024H55.3149L55.506 27.3232L55.6971 27.1253L55.8563 26.8482L55.9518 26.5315V1.03955Z" fill="#3D8244" stroke="#3D8244"/>
<path d="M44.3596 14.4981V1.03958L30.5691 1L30.155 1.07917L29.6773 1.2375L29.1996 1.47501L28.7219 1.79168L28.276 2.18752L27.9256 2.62294L27.6071 3.09794L27.2887 3.6917L27.0657 4.24587L26.9383 4.80005L26.8746 5.23547L26.8428 5.86881V9.98553L27.002 10.896L27.225 11.6085L27.5434 12.321L27.9893 12.9543L28.5308 13.5085L29.0085 13.9439L29.5499 14.2606L30.0913 14.4189L30.5054 14.4981H44.3596Z" fill="#4E9A5F" stroke="#4E9A5F"/>
<path d="M57.6404 1.03902V14.4975L71.4309 14.5371L71.845 14.4579L72.3227 14.2996L72.8004 14.0621L73.2781 13.7454L73.724 13.3496L74.0744 12.9142L74.3929 12.4392L74.7113 11.8454L74.9343 11.2912L75.0617 10.7371L75.1254 10.3016L75.1572 9.6683V5.55158L74.998 4.64115L74.775 3.92864L74.4566 3.21613L74.0107 2.58279L73.4692 2.02862L72.9915 1.5932L72.4501 1.27653L71.9087 1.11819L71.4946 1.03902L57.6404 1.03902Z" fill="#4E9A5F" stroke="#4E9A5F"/>
<path d="M54.3418 89.0061V94.3499V96.2104L54.4373 96.725L54.5647 97.4375L54.9151 98.3875L55.2973 99.0604L55.7113 99.6146L56.3483 100.208L57.3993 100.763L58.3229 101H95.5541L96.6688 100.644L97.7198 99.9313L98.2613 99.3375L98.8027 98.4271L99.1212 97.5958L99.3123 96.8437L99.376 96.052V94.3499V68.8184H83.6427V78.5956L83.4834 79.5852L83.1012 80.456L82.6235 81.0893L82.2095 81.406L81.5725 81.6435L81.1266 81.7227L80.5215 81.6435L79.9482 81.406L76.8589 78.5956L73.7696 81.406L73.3237 81.6435L72.8141 81.7227L72.3045 81.6435L71.6357 81.406L71.158 81.0893L70.6802 80.456L70.298 79.5852L70.1388 78.7539V77.6851V68.8184H54.3418V89.0061Z" fill="#1F612D" stroke="#1F612D"/>
<path d="M81.7946 53.2617H71.8896V78.7141L71.9215 78.9912L72.0489 79.2683L72.2081 79.4662L72.4311 79.5454L72.6859 79.585L72.877 79.5454L73.0362 79.4662L76.7944 75.9828L80.5207 79.4266L80.6799 79.5454L80.9029 79.6246H81.1576L81.3487 79.5454L81.5398 79.3475L81.6991 79.0704L81.7946 78.7537V53.2617Z" fill="#3D8244" stroke="#3D8244"/>
<path d="M70.2024 66.7203V53.2618L56.4119 53.2222L55.9978 53.3013L55.5201 53.4597L55.0424 53.6972L54.5646 54.0138L54.1187 54.4097L53.7684 54.8451L53.4499 55.3201L53.1314 55.9139L52.9085 56.468L52.7811 57.0222L52.7174 57.4576L52.6855 58.091V62.2077L52.8448 63.1181L53.0677 63.8306L53.3862 64.5431L53.8321 65.1765L54.3735 65.7307L54.8513 66.1661L55.3927 66.4828L55.9341 66.6411L56.3482 66.7203H70.2024Z" fill="#4E9A5F" stroke="#4E9A5F"/>
<path d="M83.4832 53.2612V66.7197L97.2737 66.7593L97.6877 66.6801L98.1655 66.5218L98.6432 66.2843L99.1209 65.9676L99.5668 65.5718L99.9171 65.1363L100.236 64.6613L100.554 64.0676L100.777 63.5134L100.904 62.9592L100.968 62.5238L101 61.8905V57.7737L100.841 56.8633L100.618 56.1508L100.299 55.4383L99.8534 54.805L99.312 54.2508L98.8343 53.8154L98.2929 53.4987L97.7514 53.3404L97.3374 53.2612H83.4832Z" fill="#4E9A5F" stroke="#4E9A5F"/>
</svg>
