<svg width="100" height="101" viewBox="0 0 100 101" fill="none" xmlns="http://www.w3.org/2000/svg">
<g clip-path="url(#clip0_2588_465)">
<path opacity="0.996" fill-rule="evenodd" clip-rule="evenodd" d="M12.4023 0.770996C19.043 0.770996 25.6836 0.770996 32.3242 0.770996C32.3242 4.74234 32.3242 8.71371 32.3242 12.6851C26.5887 13.3095 23.6914 16.4996 23.6328 22.2554C24.8422 24.6245 26.535 25.0151 28.7109 23.4272C29.1662 22.1179 29.6219 20.8159 30.0781 19.521C30.6834 18.8741 31.4322 18.5485 32.3242 18.5444C32.2602 20.7929 32.3252 23.0065 32.5195 25.1851C30.223 27.6622 29.2141 30.5919 29.4922 33.9741C29.9561 35.3286 30.9 36.0446 32.3242 36.1226C32.3242 38.0757 32.3242 40.0288 32.3242 41.9819C29.4977 42.6089 28.7488 44.2364 30.0781 46.8647C30.6834 47.5116 31.4322 47.8372 32.3242 47.8413C32.3242 51.7476 32.3242 55.6538 32.3242 59.5601C30.8254 59.5276 29.3279 59.5601 27.832 59.6577C24.0504 63.5044 20.2094 67.2806 16.3086 70.9858C14.3138 71.7605 12.849 71.2071 11.9141 69.3257C11.8814 66.0034 11.7838 62.6831 11.6211 59.3647C5.24615 57.6778 1.3399 53.6415 -0.0976562 47.2554C-0.0976562 35.9272 -0.0976562 24.5991 -0.0976562 13.271C1.52995 6.56527 5.69662 2.3986 12.4023 0.770996Z" fill="#4E9A5F"/>
<path fill-rule="evenodd" clip-rule="evenodd" d="M32.3242 0.770996C38.9648 0.770996 45.6055 0.770996 52.2461 0.770996C58.9643 2.3137 63.0332 6.48037 64.4531 13.271C64.5508 20.888 64.5834 28.5052 64.5508 36.1226C60.5705 36.0366 56.5992 36.1343 52.6367 36.4155C46.6797 37.9454 42.9361 41.689 41.4063 47.646C41.125 51.6085 41.0273 55.5798 41.1133 59.5601C38.1836 59.5601 35.2539 59.5601 32.3242 59.5601C32.3242 55.6538 32.3242 51.7476 32.3242 47.8413C34.6461 47.5647 35.59 46.2626 35.1563 43.9351C34.6633 42.6306 33.7193 41.9796 32.3242 41.9819C32.3242 40.0288 32.3242 38.0757 32.3242 36.1226C33.3277 36.1245 34.1416 35.7339 34.7656 34.9507C35.1367 33.8743 35.3971 32.7675 35.5469 31.6304C35.7537 31.0214 36.0141 30.4354 36.3281 29.8726C37.9893 28.4735 39.3564 26.846 40.4297 24.9897C42.15 19.2188 40.2295 15.2149 34.668 12.978C33.8934 12.8163 33.1121 12.7187 32.3242 12.6851C32.3242 8.71371 32.3242 4.74234 32.3242 0.770996Z" fill="#3D8244"/>
<path fill-rule="evenodd" clip-rule="evenodd" d="M32.3244 12.6851C33.1123 12.7187 33.8935 12.8163 34.6681 12.978C40.2296 15.2149 42.1502 19.2188 40.4298 24.9897C39.3566 26.846 37.9894 28.4735 36.3283 29.8726C36.0142 30.4355 35.7539 31.0214 35.547 31.6304C35.3972 32.7675 35.1369 33.8743 34.7658 34.9507C34.1418 35.7339 33.3279 36.1245 32.3244 36.1226C30.9002 36.0446 29.9562 35.3286 29.4923 33.9741C29.2142 30.5919 30.2232 27.6622 32.5197 25.1851C33.2939 24.5087 34.0427 23.7925 34.7658 23.0366C35.6962 20.6013 34.8826 19.1039 32.3244 18.5444C32.3244 16.5913 32.3244 14.6382 32.3244 12.6851Z" fill="#CEE4BD"/>
<path fill-rule="evenodd" clip-rule="evenodd" d="M32.3242 12.6851C32.3242 14.6382 32.3242 16.5913 32.3242 18.5444C31.4322 18.5485 30.6834 18.8741 30.0781 19.521C29.6219 20.8159 29.1662 22.1179 28.7109 23.4272C26.535 25.0151 24.8422 24.6245 23.6328 22.2554C23.6914 16.4996 26.5887 13.3095 32.3242 12.6851Z" fill="#CEE4BD"/>
<path fill-rule="evenodd" clip-rule="evenodd" d="M32.3246 18.5444C34.8828 19.1039 35.6965 20.6013 34.766 23.0366C34.043 23.7925 33.2941 24.5087 32.5199 25.1851C32.3256 23.0065 32.2606 20.7929 32.3246 18.5444Z" fill="#3D8244"/>
<path opacity="0.997" fill-rule="evenodd" clip-rule="evenodd" d="M64.5507 36.1226C66.5038 36.1226 68.4569 36.1226 70.4101 36.1226C70.4101 46.4091 70.4101 56.6954 70.4101 66.982C70.4101 67.047 70.4101 67.1122 70.4101 67.1773C69.4374 68.0845 68.4608 68.996 67.4804 69.9116C66.0774 68.5411 64.6452 67.2066 63.1835 65.9077C60.8073 64.98 59.3101 65.7613 58.6913 68.2515C58.7354 68.8398 58.8981 69.3931 59.1796 69.9116C61.5681 72.4308 64.0745 74.807 66.6991 77.0406C67.5268 77.2013 68.3081 77.071 69.0429 76.6499C69.4081 76.2515 69.7987 75.8935 70.2147 75.5757C70.345 81.37 70.4751 87.1642 70.6054 92.9585C68.0503 95.7093 65.381 98.3134 62.5976 100.771C61.9466 100.771 61.2954 100.771 60.6444 100.771C59.7974 100.347 59.1788 99.6958 58.789 98.8179C58.6913 95.4982 58.6587 92.1779 58.6913 88.857C51.1372 89.687 45.636 86.7574 42.1874 80.0679C41.7427 78.9288 41.4171 77.757 41.2108 76.5523C41.1132 70.8886 41.0806 65.2245 41.1132 59.5601C41.0272 55.5798 41.1249 51.6085 41.4061 47.646C42.936 41.689 46.6796 37.9454 52.6366 36.4155C56.5991 36.1343 60.5704 36.0366 64.5507 36.1226Z" fill="#4E9A5F"/>
<path fill-rule="evenodd" clip-rule="evenodd" d="M70.4102 36.1226C76.0746 36.09 81.7387 36.1226 87.4023 36.2202C94.193 37.6402 98.3596 41.7091 99.9023 48.4273C99.9023 57.8023 99.9023 67.1773 99.9023 76.5523C98.3596 83.2704 94.193 87.3394 87.4023 88.7593C83.1705 88.8244 78.9389 88.8896 74.707 88.9546C73.3656 90.3288 71.9984 91.6634 70.6055 92.9585C70.4752 87.1642 70.3451 81.3701 70.2148 75.5757C70.2148 75.4454 70.2799 75.3804 70.4102 75.3804C76.0674 69.8208 81.699 64.2218 87.3047 58.5835C88.4176 56.772 88.1246 55.2421 86.4258 53.9937C85.5143 53.6031 84.6029 53.6031 83.6914 53.9937C79.2305 58.2919 74.8035 62.6212 70.4102 66.982C70.4102 56.6954 70.4102 46.4091 70.4102 36.1226Z" fill="#3D8244"/>
<path fill-rule="evenodd" clip-rule="evenodd" d="M32.3243 41.9819C33.7194 41.9796 34.6633 42.6306 35.1563 43.9351C35.5901 46.2626 34.6461 47.5648 32.3243 47.8413C31.4323 47.8372 30.6834 47.5116 30.0782 46.8648C28.7489 44.2364 29.4977 42.6089 32.3243 41.9819Z" fill="#CEE4BD"/>
<path fill-rule="evenodd" clip-rule="evenodd" d="M70.4102 75.3804C70.4102 72.646 70.4102 69.9116 70.4102 67.1772C70.4102 67.1122 70.4102 67.047 70.4102 66.9819C74.8035 62.6212 79.2305 58.2919 83.6914 53.9937C84.6029 53.603 85.5143 53.603 86.4258 53.9937C88.1246 55.2421 88.4176 56.772 87.3047 58.5835C81.699 64.2218 76.0674 69.8208 70.4102 75.3804Z" fill="#CEE4BD"/>
<path fill-rule="evenodd" clip-rule="evenodd" d="M70.4102 67.1773C70.4102 69.9117 70.4102 72.646 70.4102 75.3804C70.2799 75.3804 70.2148 75.4455 70.2148 75.5757C69.7988 75.8935 69.4082 76.2515 69.043 76.65C68.3082 77.071 67.527 77.2013 66.6992 77.0406C64.0746 74.807 61.5682 72.4308 59.1797 69.9117C58.8982 69.3931 58.7355 68.8398 58.6914 68.2515C59.3102 65.7613 60.8074 64.98 63.1836 65.9078C64.6453 67.2066 66.0775 68.5412 67.4805 69.9117C68.4609 68.996 69.4375 68.0845 70.4102 67.1773Z" fill="#CEE4BD"/>
</g>
<defs>
<clipPath id="clip0_2588_465">
<rect width="100" height="100" fill="white" transform="translate(0 0.868652)"/>
</clipPath>
</defs>
</svg>
