<svg width="73" height="106" viewBox="0 0 73 106" fill="none" xmlns="http://www.w3.org/2000/svg">
<path d="M0 52.2125V104.638L52.5846 73.6773V25.933L13.49 49.0028L12.1148 45.0575L0 52.2125Z" fill="#6D63CE"/>
<path d="M0 104.638L2.68489 56.9601L55.2695 25.933L52.5846 73.6773L0 104.638Z" fill="#6D63CE"/>
<path d="M0 104.638L4.06008 57.7629L56.6447 26.7358L52.5846 73.6777L0 104.638Z" fill="#6D63CE"/>
<path d="M9.82275 52.7475V105.173L62.4074 74.1455V26.4681L23.3127 49.5378L21.9375 45.5925L9.82275 52.7475Z" fill="#BBB1EF"/>
<g opacity="0.1">
<path opacity="0.1" d="M9.82275 52.7475V105.173L62.4074 74.1455V26.4681L23.3127 49.5378L21.9375 45.5925L9.82275 52.7475Z" fill="#BBB1EF"/>
</g>
<path d="M36.2788 89.5924V52.8146L71.9028 31.8847L62.4074 74.1457L36.2788 89.5924Z" fill="#BBB1EF"/>
<path d="M25.6047 86.7167C25.4585 86.6064 25.3365 86.4661 25.2463 86.305C25.1561 86.1438 25.0997 85.9652 25.0808 85.7806V24.1945C25.0932 23.9913 25.1532 23.7942 25.2557 23.6196C25.3583 23.4451 25.5004 23.2982 25.6702 23.1915L63.5206 0.723587C63.6899 0.623815 63.8819 0.571289 64.0773 0.571289C64.2727 0.571289 64.4647 0.623815 64.6339 0.723587C64.7782 0.830714 64.8951 0.971673 64.9749 1.13459C65.0547 1.29751 65.0949 1.47762 65.0923 1.65975V63.3796C65.0926 63.5779 65.045 63.7732 64.9536 63.9482C64.8622 64.1232 64.7299 64.2724 64.5684 64.3826L26.6525 86.7167C26.3156 86.851 25.9416 86.851 25.6047 86.7167V86.7167Z" fill="#F1F0FF"/>
<path d="M26.1941 25.3311L41.5176 15.0333L40.4698 14.4315L25.6702 23.1913C25.5004 23.2981 25.3583 23.4449 25.2557 23.6195C25.1532 23.794 25.0932 23.9912 25.0808 24.1944V24.7293L26.1941 25.3311Z" fill="#BBB1EF"/>
<path d="M31.2361 27.4704L25.2769 23.9264C25.2205 24.1229 25.2205 24.3317 25.2769 24.5282V86.1143C25.2958 86.2989 25.3522 86.4775 25.4424 86.6387C25.5326 86.7998 25.6546 86.9401 25.8008 87.0505C26.1377 87.1847 26.5117 87.1847 26.8486 87.0505L31.4325 84.3088L31.2361 27.4704Z" fill="#24227A"/>
<path d="M26.6537 86.7167L64.5696 64.3825C64.7311 64.2724 64.8634 64.1231 64.9548 63.9482C65.0462 63.7732 65.0939 63.5778 65.0935 63.3795V1.79342C65.0935 1.79342 65.0935 1.25847 64.5696 1.79342L26.6537 23.7932C26.5116 23.9173 26.3972 24.071 26.3181 24.244C26.239 24.4171 26.1971 24.6053 26.1953 24.7963V86.3824C26.1904 86.4402 26.2004 86.4983 26.2243 86.551C26.2481 86.6037 26.285 86.6491 26.3312 86.6829C26.3775 86.7166 26.4315 86.7375 26.4881 86.7434C26.5446 86.7493 26.6017 86.7401 26.6537 86.7167Z" fill="#6D63CE"/>
<path d="M29.2721 38.9718L38.3746 33.6223C39.2913 33.288 39.2913 33.5555 39.2913 34.1573C39.2592 34.5268 39.1415 34.8832 38.9479 35.1971C38.7544 35.511 38.4905 35.7734 38.1781 35.9627L29.0757 41.3791C28.4863 41.3791 27.9624 41.3791 27.9624 40.7773C28.0306 40.394 28.1841 40.0318 28.4112 39.7187C28.6383 39.4057 28.9329 39.1501 29.2721 38.9718V38.9718Z" fill="#F1F0FF"/>
<path d="M28.6176 48.8023L29.7963 48.1336H30.2547V49.5378C30.2533 49.7008 30.2103 49.8605 30.1299 50.0012C30.0495 50.1419 29.9345 50.2588 29.7963 50.3403L28.6176 51.009H28.1592V49.6716C28.1487 49.4975 28.1861 49.3238 28.2671 49.1702C28.348 49.0166 28.4695 48.8892 28.6176 48.8023V48.8023Z" fill="#F1F0FF"/>
<path d="M31.8262 47.5321L38.8986 43.3193H39.488C39.4765 43.5139 39.4163 43.7022 39.3131 43.8661C39.2099 44.03 39.0672 44.1641 38.8986 44.2555L31.8262 48.4682C31.4988 48.4682 31.2368 48.4682 31.2368 48.4682C31.254 48.2753 31.3166 48.0894 31.4192 47.9264C31.5218 47.7634 31.6614 47.6281 31.8262 47.5321V47.5321Z" fill="#F1F0FF"/>
<path d="M28.6159 53.6166L29.7946 52.9479H30.253V54.3521C30.2408 54.5035 30.1926 54.6496 30.1128 54.7777C30.0329 54.9059 29.9237 55.0122 29.7946 55.0877L28.6159 55.8232H28.1575V54.2184C28.2267 53.964 28.3914 53.7477 28.6159 53.6166V53.6166Z" fill="#F1F0FF"/>
<path d="M31.8265 52.3463L38.8989 48.2004H39.4883C39.4711 48.3934 39.4086 48.5793 39.306 48.7423C39.2033 48.9052 39.0637 49.0405 38.8989 49.1366L31.8265 53.5499C31.4991 53.5499 31.2372 53.5499 31.2372 53.5499C31.2068 53.3122 31.2467 53.0706 31.3517 52.8562C31.4567 52.6417 31.6221 52.4642 31.8265 52.3463V52.3463Z" fill="#F1F0FF"/>
<path d="M28.6159 58.4981L29.7946 57.7626H30.253V59.1668C30.2362 59.326 30.1867 59.4797 30.1077 59.618C30.0287 59.7563 29.922 59.876 29.7946 59.9692L28.6159 60.9054H28.1575V59.2337C28.1697 59.0823 28.2178 58.9362 28.2977 58.8081C28.3776 58.6799 28.4868 58.5736 28.6159 58.4981Z" fill="#F1F0FF"/>
<path d="M31.8256 57.2274L38.898 53.0147H39.4874C39.5177 53.2525 39.4778 53.494 39.3728 53.7085C39.2678 53.9229 39.1025 54.1005 38.898 54.2183L31.8256 58.4311C31.4982 58.4311 31.2362 58.4311 31.2362 58.4311C31.1962 58.1925 31.2317 57.9471 31.3377 57.7306C31.4437 57.5142 31.6147 57.3379 31.8256 57.2274Z" fill="#F1F0FF"/>
<path d="M28.6159 63.3124L29.7946 62.6437H30.253V63.9811C30.2516 64.144 30.2085 64.3037 30.1281 64.4444C30.0478 64.5851 29.9328 64.702 29.7946 64.7835L28.6159 65.4522H28.1575V64.1148C28.1649 63.9532 28.2104 63.7958 28.2902 63.6561C28.37 63.5164 28.4818 63.3985 28.6159 63.3124V63.3124Z" fill="#F1F0FF"/>
<path d="M31.8265 62.0421L38.8989 57.8294C38.8989 57.8294 39.4883 57.8294 39.4883 58.1638C39.4711 58.3567 39.4086 58.5426 39.306 58.7056C39.2033 58.8685 39.0637 59.0038 38.8989 59.0999L31.8265 63.2458C31.4991 63.2458 31.2372 63.2458 31.2372 63.2458C31.2068 63.008 31.2467 62.7664 31.3517 62.552C31.4567 62.3375 31.6221 62.16 31.8265 62.0421V62.0421Z" fill="#F1F0FF"/>
<path d="M28.7468 73.4774L33.7892 70.4683H34.3131C34.3085 70.6564 34.2582 70.8404 34.1667 71.0038C34.0753 71.1672 33.9456 71.3049 33.7892 71.4044L28.7468 74.4135C28.7468 74.4135 28.1575 74.4135 28.1575 74.0792C28.2065 73.9409 28.2847 73.8153 28.3865 73.7113C28.4884 73.6073 28.6114 73.5274 28.7468 73.4774V73.4774Z" fill="#F1F0FF"/>
<path d="M28.7468 75.8842L38.897 69.866H39.4864C39.4692 70.0589 39.4067 70.2448 39.3041 70.4078C39.2014 70.5708 39.0618 70.706 38.897 70.8021L28.7468 76.8203H28.1575C28.1689 76.6258 28.2291 76.4375 28.3323 76.2735C28.4355 76.1096 28.5782 75.9755 28.7468 75.8842V75.8842Z" fill="#F0F0F0"/>
<path d="M28.7468 75.8844L35.8192 71.6716H36.4086C36.3914 71.8646 36.3289 72.0505 36.2262 72.2134C36.1236 72.3764 35.984 72.5117 35.8192 72.6078L28.7468 76.8205H28.1575C28.1689 76.626 28.2291 76.4377 28.3323 76.2738C28.4355 76.1098 28.5782 75.9757 28.7468 75.8844V75.8844Z" fill="#F1F0FF"/>
<path d="M28.7468 78.2916L33.7892 75.2825H34.3131C34.3147 75.472 34.2671 75.6585 34.1751 75.8229C34.083 75.9874 33.9499 76.124 33.7892 76.2187L28.7468 79.2278H28.1575C28.1689 79.0332 28.2291 78.845 28.3323 78.681C28.4355 78.5171 28.5782 78.383 28.7468 78.2916V78.2916Z" fill="#F1F0FF"/>
<path d="M28.7468 68.5949L33.7892 65.6527H34.3131C34.3085 65.8408 34.2582 66.0249 34.1667 66.1883C34.0753 66.3516 33.9456 66.4893 33.7892 66.5889L28.7468 69.5311H28.1575C28.1747 69.3381 28.2372 69.1523 28.3398 68.9893C28.4424 68.8263 28.5821 68.691 28.7468 68.5949V68.5949Z" fill="#F1F0FF"/>
<path d="M28.7468 71.003L38.897 65.0517H39.4864C39.4692 65.2447 39.4067 65.4305 39.3041 65.5935C39.2014 65.7565 39.0618 65.8918 38.897 65.9879L28.7468 71.9392H28.1575C28.1747 71.7462 28.2372 71.5603 28.3398 71.3974C28.4424 71.2344 28.5821 71.0991 28.7468 71.003V71.003Z" fill="#6D63CE"/>
<path d="M28.7468 71.002L32.3485 68.9291H32.8724C32.8678 69.1172 32.8175 69.3012 32.7261 69.4646C32.6346 69.628 32.5049 69.7657 32.3485 69.8652L28.7468 71.9382H28.1575C28.1747 71.7452 28.2372 71.5593 28.3398 71.3964C28.4424 71.2334 28.5821 71.0981 28.7468 71.002V71.002Z" fill="#F1F0FF"/>
<path d="M28.7468 80.9662L38.897 74.948H39.4864C39.475 75.1425 39.4148 75.3308 39.3116 75.4948C39.2084 75.6587 39.0656 75.7928 38.897 75.8842L28.7468 81.9023H28.1575C28.1747 81.7094 28.2372 81.5235 28.3398 81.3605C28.4424 81.1975 28.5821 81.0623 28.7468 80.9662V80.9662Z" fill="#F0F0F0"/>
<path d="M28.7468 80.9667L37.9148 75.5503H38.4386C38.4286 75.7372 38.376 75.9191 38.2851 76.0816C38.1942 76.2441 38.0674 76.3828 37.9148 76.4865L28.7468 81.9028H28.1575C28.1747 81.7099 28.2372 81.524 28.3398 81.361C28.4424 81.198 28.5821 81.0628 28.7468 80.9667V80.9667Z" fill="#F1F0FF"/>
<path d="M64.5679 1.45871L41.5171 14.8325V77.7559L64.5679 64.3822C64.7294 64.272 64.8617 64.1228 64.9531 63.9478C65.0445 63.7728 65.0921 63.5775 65.0918 63.3791V1.79305C65.0918 1.79305 64.8953 1.2581 64.5679 1.45871Z" fill="#F1F0FF"/>
<path d="M41.5166 17.4407V22.3222L39.4866 24.7294H41.5166V29.544L63.0613 16.8389V4.80255L41.5166 17.4407Z" fill="#BBB1EF"/>
<path d="M44.3332 17.6411L53.0427 12.4922C53.5011 12.4922 53.8285 12.4922 53.8285 12.9603C53.7852 13.1963 53.6926 13.4199 53.557 13.6161C53.4214 13.8123 53.246 13.9763 53.0427 14.097L44.3332 19.4465C43.9403 19.4465 43.5474 19.4465 43.5474 18.9785C43.5765 18.711 43.6618 18.453 43.7974 18.2222C43.933 17.9914 44.1158 17.7932 44.3332 17.6411V17.6411Z" fill="#6D63CE"/>
<path d="M43.876 21.5201L60.7711 11.5566C60.8131 11.7097 60.8131 11.8716 60.7711 12.0247L43.876 22.1219C43.8299 22.0286 43.8059 21.9255 43.8059 21.821C43.8059 21.7165 43.8299 21.6134 43.876 21.5201V21.5201Z" fill="#6D63CE"/>
<path d="M43.8753 23.3926L60.7705 13.4291C60.8124 13.5822 60.8124 13.7441 60.7705 13.8972L43.8753 23.9944C43.806 23.9101 43.7681 23.8035 43.7681 23.6935C43.7681 23.5834 43.806 23.4769 43.8753 23.3926Z" fill="#6D63CE"/>
<path d="M43.8747 25.1978L60.7699 15.2344C60.8118 15.3875 60.8118 15.5494 60.7699 15.7025L43.8747 25.7996C43.8155 25.7109 43.7839 25.606 43.7839 25.4987C43.7839 25.3914 43.8155 25.2865 43.8747 25.1978V25.1978Z" fill="#6D63CE"/>
<path d="M44.4645 30.2795L45.8396 29.5439H46.298V30.9482C46.336 31.1434 46.312 31.3459 46.2296 31.5263C46.1471 31.7067 46.0105 31.8555 45.8396 31.9512L44.6609 32.6868H44.268V31.0151C44.2361 30.753 44.3067 30.4887 44.4645 30.2795V30.2795Z" fill="#6D63CE"/>
<path d="M44.3334 34.5585L62.2108 23.9932H62.5382C62.533 24.095 62.4994 24.1931 62.4414 24.276C62.3834 24.359 62.3034 24.4232 62.2108 24.4613L44.3334 35.1603C44.2816 35.0688 44.2544 34.965 44.2544 34.8594C44.2544 34.7537 44.2816 34.65 44.3334 34.5585V34.5585Z" fill="#6D63CE"/>
<path d="M44.3334 36.3642L62.2108 25.799H62.5382C62.5289 25.8915 62.4927 25.9791 62.4344 26.0505C62.3761 26.122 62.2983 26.1741 62.2108 26.2002L44.3334 36.966C44.2816 36.8745 44.2544 36.7708 44.2544 36.6651C44.2544 36.5595 44.2816 36.4557 44.3334 36.3642V36.3642Z" fill="#6D63CE"/>
<path d="M44.3327 38.2364L62.2102 27.4705H62.5376C62.5206 27.5685 62.4824 27.6614 62.4257 27.7424C62.3691 27.8233 62.2954 27.8904 62.2102 27.9386L44.3327 38.8382C44.2909 38.8006 44.2574 38.7542 44.2345 38.7024C44.2116 38.6505 44.1997 38.5942 44.1997 38.5373C44.1997 38.4804 44.2116 38.4241 44.2345 38.3722C44.2574 38.3203 44.2909 38.274 44.3327 38.2364V38.2364Z" fill="#6D63CE"/>
<path d="M44.3324 40.0424L62.2099 29.4771H62.5373C62.5203 29.5751 62.482 29.668 62.4254 29.7489C62.3687 29.8299 62.2951 29.897 62.2099 29.9452L44.3324 40.8448C44.2646 40.8032 44.2085 40.7444 44.1695 40.6741C44.1306 40.6038 44.1101 40.5244 44.1101 40.4436C44.1101 40.3628 44.1306 40.2834 44.1695 40.2131C44.2085 40.1428 44.2646 40.084 44.3324 40.0424V40.0424Z" fill="#6D63CE"/>
<path d="M44.4635 43.5193L45.8387 42.8506H46.2971V44.2549C46.335 44.4501 46.3111 44.6526 46.2286 44.833C46.1462 45.0134 46.0096 45.1622 45.8387 45.2579L44.66 45.9935H44.2671V44.3218C44.2479 44.0398 44.3166 43.7589 44.4635 43.5193V43.5193Z" fill="#6D63CE"/>
<path d="M44.3334 47.8657L62.2108 37.3004H62.5382C62.533 37.4022 62.4994 37.5003 62.4414 37.5832C62.3834 37.6661 62.3034 37.7304 62.2108 37.7685L44.3334 48.4675C44.2816 48.376 44.2544 48.2722 44.2544 48.1666C44.2544 48.0609 44.2816 47.9572 44.3334 47.8657V47.8657Z" fill="#6D63CE"/>
<path d="M44.3334 49.6709L62.2108 39.1057H62.5382C62.533 39.2074 62.4994 39.3055 62.4414 39.3885C62.3834 39.4714 62.3034 39.5357 62.2108 39.5737L44.3334 50.2727C44.2816 50.1812 44.2544 50.0775 44.2544 49.9718C44.2544 49.8662 44.2816 49.7624 44.3334 49.6709V49.6709Z" fill="#6D63CE"/>
<path d="M44.3327 51.5435L62.2102 40.8445H62.5376C62.5206 40.9425 62.4824 41.0353 62.4257 41.1163C62.3691 41.1973 62.2954 41.2643 62.2102 41.3126L44.3327 52.1453C44.2909 52.1076 44.2574 52.0613 44.2345 52.0095C44.2116 51.9576 44.1997 51.9013 44.1997 51.8444C44.1997 51.7875 44.2116 51.7312 44.2345 51.6793C44.2574 51.6274 44.2909 51.5811 44.3327 51.5435Z" fill="#6D63CE"/>
<path d="M44.3342 53.3491L62.2116 42.7838H62.5391C62.522 42.8818 62.4838 42.9747 62.4272 43.0556C62.3705 43.1366 62.2969 43.2037 62.2116 43.2519L44.3342 54.2184C44.2491 54.1836 44.1761 54.1237 44.1247 54.0462C44.0734 53.9687 44.0459 53.8773 44.0459 53.7837C44.0459 53.6901 44.0734 53.5987 44.1247 53.5212C44.1761 53.4438 44.2491 53.3838 44.3342 53.3491V53.3491Z" fill="#6D63CE"/>
<path d="M46.1671 55.9578L47.3459 55.2891H47.8043V56.6933C47.792 56.8447 47.7439 56.9908 47.664 57.1189C47.5842 57.247 47.475 57.3534 47.3459 57.4289L46.1671 58.1644H45.7087V56.7602C45.7255 56.601 45.775 56.4472 45.854 56.309C45.933 56.1707 46.0397 56.051 46.1671 55.9578V55.9578Z" fill="#6D63CE"/>
<path d="M44.3341 60.9053L49.18 58.0299C49.2148 58.1028 49.2328 58.1829 49.2328 58.2639C49.2328 58.345 49.2148 58.4251 49.18 58.498L44.3341 61.3733C44.2939 61.3022 44.2727 61.2215 44.2727 61.1393C44.2727 61.0571 44.2939 60.9764 44.3341 60.9053V60.9053Z" fill="#6D63CE"/>
<path d="M52.7155 52.1455L53.8943 51.41H54.2872V52.8142C54.3621 53.062 54.3648 53.3266 54.295 53.5759C54.2253 53.8253 54.086 54.0485 53.8943 54.2185L52.7155 54.8871C52.7155 54.8871 52.3881 54.5528 52.3881 54.2185V52.8811C52.3854 52.7413 52.4135 52.6027 52.4701 52.4754C52.5268 52.3481 52.6106 52.2354 52.7155 52.1455V52.1455Z" fill="#6D63CE"/>
<path d="M50.8834 56.826L55.7293 54.2181C55.7803 54.3468 55.7803 54.4906 55.7293 54.6193L50.8834 57.4946C50.8259 57.393 50.7957 57.2777 50.7957 57.1603C50.7957 57.0429 50.8259 56.9276 50.8834 56.826Z" fill="#6D63CE"/>
<path d="M58.936 48.2668L60.3767 47.5312H60.8351V48.8686C60.8336 49.0315 60.7906 49.1913 60.7102 49.332C60.6298 49.4727 60.5149 49.5896 60.3767 49.671L58.936 50.6741H58.5431V49.3367C58.5029 49.1387 58.5184 48.9331 58.588 48.7437C58.6575 48.5543 58.7782 48.389 58.936 48.2668V48.2668Z" fill="#6D63CE"/>
<path d="M57.3651 53.0151L62.211 50.1398H62.5384C62.5264 50.2395 62.4902 50.3346 62.433 50.4163C62.3758 50.4981 62.2995 50.5639 62.211 50.6079L57.3651 53.4832C57.3303 53.4103 57.3123 53.3303 57.3123 53.2492C57.3123 53.1681 57.3303 53.088 57.3651 53.0151V53.0151Z" fill="#6D63CE"/>
<path d="M44.3333 61.9081L49.1792 59.0328C49.2211 59.1859 49.2211 59.3478 49.1792 59.5009L44.3333 62.3762C44.2853 62.308 44.2595 62.2261 44.2595 62.1422C44.2595 62.0582 44.2853 61.9763 44.3333 61.9081V61.9081Z" fill="#6D63CE"/>
<path d="M50.8809 58.0303L55.7268 55.155C55.7616 55.2279 55.7796 55.3079 55.7796 55.389C55.7796 55.4701 55.7616 55.5501 55.7268 55.623L50.8809 58.4984C50.8462 58.4255 50.8281 58.3455 50.8281 58.2644C50.8281 58.1833 50.8462 58.1032 50.8809 58.0303V58.0303Z" fill="#6D63CE"/>
<path d="M57.3643 54.2185L62.2102 51.3431H62.5376C62.5206 51.4411 62.4824 51.534 62.4257 51.615C62.3691 51.6959 62.2954 51.763 62.2102 51.8112L57.3643 54.6197C57.3336 54.4878 57.3336 54.3504 57.3643 54.2185V54.2185Z" fill="#6D63CE"/>
<path d="M44.3328 63.0455L49.1787 60.1702C49.2297 60.2988 49.2297 60.4427 49.1787 60.5714L44.3328 63.4467C44.2878 63.3169 44.2878 63.1753 44.3328 63.0455V63.0455Z" fill="#6D63CE"/>
<path d="M50.8809 59.2337L55.7268 56.3583C55.7687 56.5114 55.7687 56.6733 55.7268 56.8264L50.8809 59.7018C50.8462 59.6289 50.8281 59.5488 50.8281 59.4677C50.8281 59.3866 50.8462 59.3066 50.8809 59.2337V59.2337Z" fill="#6D63CE"/>
<path d="M57.3651 55.355L62.211 52.4796H62.5384C62.5331 52.5814 62.4995 52.6795 62.4415 52.7624C62.3835 52.8453 62.3035 52.9096 62.211 52.9477L57.3651 55.8231C57.3303 55.7501 57.3123 55.6701 57.3123 55.589C57.3123 55.5079 57.3303 55.4279 57.3651 55.355V55.355Z" fill="#6D63CE"/>
<path d="M46.1671 65.9209L47.3459 65.2522H47.8043V66.6564C47.7969 66.818 47.7513 66.9754 47.6715 67.1151C47.5917 67.2548 47.48 67.3728 47.3459 67.4589L46.1671 68.1276H45.7087V66.6564C45.721 66.5051 45.7691 66.359 45.849 66.2308C45.9288 66.1027 46.038 65.9963 46.1671 65.9209Z" fill="#6D63CE"/>
<path d="M44.3324 70.6011L49.1783 67.592C49.2202 67.7451 49.2202 67.907 49.1783 68.0601L44.3324 70.8686C44.3127 70.7806 44.3127 70.6892 44.3324 70.6011V70.6011Z" fill="#6D63CE"/>
<path d="M52.7168 62.0422L53.8955 61.3735H54.2884V62.7777C54.2787 62.922 54.2386 63.0624 54.1708 63.1894C54.103 63.3164 54.009 63.4268 53.8955 63.5133L52.7168 64.182C52.7168 64.182 52.3893 64.5163 52.3893 64.2488V62.8446C52.3815 62.6943 52.4068 62.5442 52.4635 62.4053C52.5202 62.2664 52.6067 62.1423 52.7168 62.0422V62.0422Z" fill="#6D63CE"/>
<path d="M50.8805 66.7892L55.7264 63.9139C55.7611 63.9868 55.7792 64.0668 55.7792 64.1479C55.7792 64.229 55.7611 64.309 55.7264 64.382L50.8805 67.5917C50.8247 67.5415 50.7801 67.4797 50.7495 67.4105C50.7189 67.3414 50.7031 67.2663 50.7031 67.1904C50.7031 67.1146 50.7189 67.0395 50.7495 66.9704C50.7801 66.9012 50.8247 66.8394 50.8805 66.7892V66.7892Z" fill="#6D63CE"/>
<path d="M58.9378 58.2304L60.1165 57.4948H60.5749V58.8991C60.5627 59.0504 60.5146 59.1965 60.4347 59.3246C60.3548 59.4528 60.2456 59.5592 60.1165 59.6346L58.9378 60.9051C58.9378 60.9051 58.9378 60.9051 58.9378 60.3702V58.9659C58.8466 58.7296 58.8466 58.4667 58.9378 58.2304V58.2304Z" fill="#6D63CE"/>
<path d="M57.364 62.9119L62.2099 60.0365H62.5373C62.5963 60.1096 62.6352 60.1974 62.6501 60.2909C62.665 60.3844 62.6552 60.4803 62.6219 60.5687C62.5886 60.6571 62.533 60.7349 62.4606 60.7941C62.3882 60.8533 62.3017 60.8919 62.2099 60.9058L57.364 63.7811C57.2625 63.66 57.2068 63.5059 57.2068 63.3465C57.2068 63.1871 57.2625 63.033 57.364 62.9119V62.9119Z" fill="#6D63CE"/>
<path d="M44.3341 71.8044L49.18 68.9291C49.2148 69.002 49.2328 69.082 49.2328 69.1631C49.2328 69.2442 49.2148 69.3242 49.18 69.3972L44.3341 72.2725C44.2939 72.2014 44.2727 72.1206 44.2727 72.0385C44.2727 71.9563 44.2939 71.8756 44.3341 71.8044V71.8044Z" fill="#6D63CE"/>
<path d="M50.8818 67.927L55.7277 65.1185C55.7696 65.2716 55.7696 65.4335 55.7277 65.5866L50.8818 68.3951C50.8265 68.2442 50.8265 68.078 50.8818 67.927V67.927Z" fill="#6D63CE"/>
<path d="M57.3651 64.1152L62.211 61.2399H62.5384C62.5331 61.3416 62.4995 61.4397 62.4415 61.5227C62.3835 61.6056 62.3035 61.6699 62.211 61.7079L57.3651 64.5833C57.3303 64.5104 57.3123 64.4303 57.3123 64.3493C57.3123 64.2682 57.3303 64.1881 57.3651 64.1152V64.1152Z" fill="#6D63CE"/>
<path d="M44.3341 73.0091L49.18 70.1337C49.2148 70.2066 49.2328 70.2867 49.2328 70.3678C49.2328 70.4489 49.2148 70.5289 49.18 70.6018L44.3341 73.4772C44.2939 73.406 44.2727 73.3253 44.2727 73.2431C44.2727 73.161 44.2939 73.0802 44.3341 73.0091V73.0091Z" fill="#6D63CE"/>
<path d="M50.8806 69.1299L55.7265 66.2546C55.7613 66.3275 55.7793 66.4075 55.7793 66.4886C55.7793 66.5697 55.7613 66.6497 55.7265 66.7227L50.8806 69.598C50.85 69.5239 50.8342 69.4444 50.8342 69.364C50.8342 69.2836 50.85 69.204 50.8806 69.1299V69.1299Z" fill="#6D63CE"/>
<path d="M57.3658 65.2512L62.2117 62.4427H62.5391C62.5221 62.5407 62.4838 62.6336 62.4272 62.7146C62.3705 62.7956 62.2969 62.8626 62.2117 62.9108L57.3658 65.7862C57.3107 65.6123 57.3107 65.4251 57.3658 65.2512V65.2512Z" fill="#6D63CE"/>
<path d="M33.3308 22.3228C36.1467 20.6511 38.4386 22.3228 38.4386 25.3319C38.304 27.1038 37.7736 28.8206 36.8881 30.3507C36.0027 31.8808 34.7858 33.1834 33.3308 34.1586C30.4495 35.8303 28.1575 34.1586 28.1575 31.1495C28.2897 29.3691 28.826 27.6447 29.7239 26.1126C30.6218 24.5806 31.8567 23.2831 33.3308 22.3228V22.3228Z" fill="#F1F0FF"/>
<path d="M30.2546 43.051L37.3925 38.9052H37.9164C37.9118 39.0933 37.8615 39.2773 37.77 39.4407C37.6786 39.6041 37.5489 39.7417 37.3925 39.8413L30.2546 43.9872H29.7307C29.7496 43.8025 29.806 43.624 29.8962 43.4628C29.9864 43.3016 30.1084 43.1614 30.2546 43.051V43.051Z" fill="#F1F0FF"/>
<path d="M9.82275 105.173L19.4491 62.7113L72.0337 31.6842L62.4074 74.1458L9.82275 105.173Z" fill="#F1F0FF"/>
</svg>
