<svg width="100" height="100" viewBox="0 0 100 100" fill="none" xmlns="http://www.w3.org/2000/svg">
<g clip-path="url(#clip0_2588_262)">
<path opacity="0.999" fill-rule="evenodd" clip-rule="evenodd" d="M10.8399 -0.0976562C29.1342 -0.0976562 47.4283 -0.0976562 65.7227 -0.0976562C65.7227 -0.0325522 65.7227 0.0325522 65.7227 0.0976562C65.4953 7.48654 65.4627 14.9084 65.625 22.3633C66.0155 25.2629 67.6106 27.1184 70.4102 27.9297C78.0922 28.0273 85.7745 28.06 93.4571 28.0273C93.5221 28.0273 93.5873 28.0273 93.6524 28.0273C93.685 50.4232 93.6524 72.8191 93.5547 95.2148C93.2829 96.3309 92.762 97.3074 91.9922 98.1445C91.0938 98.9504 90.0848 99.5363 88.9649 99.9023C62.9233 99.9023 36.8815 99.9023 10.8399 99.9023C9.13987 99.3432 7.80524 98.3016 6.83594 96.7773C6.60225 96.2717 6.40694 95.7508 6.25 95.2148C6.11979 65.0064 6.11979 34.7982 6.25 4.58984C6.52194 3.47389 7.04278 2.49732 7.81251 1.66016C8.71085 0.854256 9.71997 0.268318 10.8399 -0.0976562Z" fill="#CEE4BD"/>
<path fill-rule="evenodd" clip-rule="evenodd" d="M65.7225 0.0976562C69.2381 3.48307 72.6887 6.93359 76.074 10.4492C81.8684 16.3086 87.6625 22.168 93.4568 28.0273C85.7742 28.06 78.092 28.0273 70.41 27.9297C67.6104 27.1184 66.0152 25.2629 65.6248 22.3633C65.4625 14.9084 65.4951 7.48654 65.7225 0.0976562Z" fill="#4E9A5F"/>
<path fill-rule="evenodd" clip-rule="evenodd" d="M18.6523 15.5273C30.1107 15.5273 41.5689 15.5273 53.0273 15.5273C53.0273 17.6107 53.0273 19.6939 53.0273 21.7773C41.5689 21.7773 30.1107 21.7773 18.6523 21.7773C18.6523 19.6939 18.6523 17.6107 18.6523 15.5273Z" fill="#4E9A5F"/>
<path fill-rule="evenodd" clip-rule="evenodd" d="M18.6523 28.0273C30.1107 28.0273 41.5689 28.0273 53.0273 28.0273C53.0273 30.1107 53.0273 32.1939 53.0273 34.2773C41.5689 34.2773 30.1107 34.2773 18.6523 34.2773C18.6523 32.1939 18.6523 30.1107 18.6523 28.0273Z" fill="#4E9A5F"/>
<path fill-rule="evenodd" clip-rule="evenodd" d="M18.6523 40.5273C39.4857 40.5273 60.3189 40.5273 81.1523 40.5273C81.1523 42.6107 81.1523 44.6939 81.1523 46.7773C60.3189 46.7773 39.4857 46.7773 18.6523 46.7773C18.6523 44.6939 18.6523 42.6107 18.6523 40.5273Z" fill="#4E9A5F"/>
<path fill-rule="evenodd" clip-rule="evenodd" d="M18.6523 53.0273C39.4857 53.0273 60.3189 53.0273 81.1523 53.0273C81.1523 55.1107 81.1523 57.1939 81.1523 59.2773C60.3189 59.2773 39.4857 59.2773 18.6523 59.2773C18.6523 57.1939 18.6523 55.1107 18.6523 53.0273Z" fill="#4E9A5F"/>
<path fill-rule="evenodd" clip-rule="evenodd" d="M18.6523 65.5273C39.4857 65.5273 60.3189 65.5273 81.1523 65.5273C81.1523 67.6107 81.1523 69.6939 81.1523 71.7773C60.3189 71.7773 39.4857 71.7773 18.6523 71.7773C18.6523 69.6939 18.6523 67.6107 18.6523 65.5273Z" fill="#4E9A5F"/>
<path fill-rule="evenodd" clip-rule="evenodd" d="M18.6523 78.0273C39.4857 78.0273 60.3189 78.0273 81.1523 78.0273C81.1523 80.1107 81.1523 82.1939 81.1523 84.2773C60.3189 84.2773 39.4857 84.2773 18.6523 84.2773C18.6523 82.1939 18.6523 80.1107 18.6523 78.0273Z" fill="#4E9A5F"/>
</g>
<defs>
<clipPath id="clip0_2588_262">
<rect width="100" height="100" fill="white"/>
</clipPath>
</defs>
</svg>
