<svg width="100" height="101" viewBox="0 0 100 101" fill="none" xmlns="http://www.w3.org/2000/svg">
<g clip-path="url(#clip0_2588_4437)">
<path fill-rule="evenodd" clip-rule="evenodd" d="M13.9653 0.423584C16.6346 0.423584 19.3039 0.423584 21.9731 0.423584C21.9731 26.47 21.9731 52.5164 21.9731 78.5628C21.9731 79.5419 21.9731 80.5211 21.9731 81.5003C21.9081 81.5003 21.8429 81.5003 21.7778 81.5003C21.7778 80.5211 21.7778 79.5419 21.7778 78.5628C19.2379 78.53 16.6989 78.5628 14.1606 78.6607C11.5797 79.5 9.95207 81.2299 9.27783 83.8504C9.24528 57.804 9.27783 31.7576 9.37549 5.7112C9.90207 3.0623 11.432 1.29976 13.9653 0.423584Z" fill="#6D8C44"/>
<path fill-rule="evenodd" clip-rule="evenodd" d="M21.9727 0.423584C41.4389 0.423584 60.9049 0.423584 80.3711 0.423584C80.4037 25.6214 80.3711 50.8192 80.2734 76.0169C79.8363 77.3035 78.9574 78.1196 77.6367 78.4648C59.0822 78.5628 40.5275 78.5955 21.9727 78.5628C21.9727 52.5164 21.9727 26.47 21.9727 0.423584Z" fill="#88B367"/>
<path opacity="0.987" fill-rule="evenodd" clip-rule="evenodd" d="M80.3711 0.423584C81.0221 0.423584 81.6732 0.423584 82.3242 0.423584C83.5059 0.859226 84.2545 1.70786 84.5703 2.96947C84.668 6.23277 84.7006 9.49674 84.668 12.7613C84.4094 16.0714 84.4094 19.4007 84.668 22.7491C84.668 24.6422 84.668 26.5352 84.668 28.4283C84.4094 31.7768 84.4094 35.106 84.668 38.4161C84.668 51.8636 84.668 65.311 84.668 78.7586C83.9564 80.7501 82.5242 81.664 80.3711 81.5003C79.3945 81.5003 78.418 81.5003 77.4414 81.5003C58.9518 81.5003 40.4623 81.5003 21.9727 81.5003C21.9727 80.5211 21.9727 79.5419 21.9727 78.5628C40.5275 78.5955 59.0822 78.5628 77.6367 78.4648C78.9574 78.1196 79.8363 77.3035 80.2734 76.0169C80.3711 50.8192 80.4037 25.6214 80.3711 0.423584Z" fill="#6D8C44"/>
<path fill-rule="evenodd" clip-rule="evenodd" d="M35.0586 10.0196C47.1682 9.98692 59.2776 10.0196 71.3868 10.1175C72.1899 10.4658 72.8083 11.0207 73.2423 11.7821C73.3725 20.0073 73.3725 28.2325 73.2423 36.4576C73.0143 37.4695 72.396 38.0896 71.3868 38.3181C59.2124 38.4487 47.0377 38.4487 34.8633 38.3181C34.0495 38.0243 33.4961 37.4695 33.2032 36.6535C33.0729 28.2977 33.0729 19.942 33.2032 11.5863C33.6645 10.8529 34.2829 10.3307 35.0586 10.0196Z" fill="#DFEDD4"/>
<path opacity="0.993" fill-rule="evenodd" clip-rule="evenodd" d="M84.6686 12.7612C85.0592 12.7612 85.4498 12.7612 85.8404 12.7612C86.282 12.9746 86.6401 13.301 86.9147 13.7404C87.0449 16.2863 87.0449 18.8322 86.9147 21.3781C86.8613 21.7363 86.6985 22.03 86.4264 22.2594C86.0375 22.3326 85.7119 22.4957 85.4498 22.7489C85.1895 22.7489 84.9289 22.7489 84.6686 22.7489C84.41 19.4006 84.41 16.0713 84.6686 12.7612Z" fill="#88B367"/>
<path opacity="0.991" fill-rule="evenodd" clip-rule="evenodd" d="M85.8398 12.7612C87.0785 12.7287 88.3154 12.7613 89.5508 12.8591C89.8303 12.9502 90.058 13.1134 90.2344 13.3487C90.5492 16.0116 90.6143 18.688 90.4297 21.3781C90.3621 21.8379 90.1342 22.1969 89.7461 22.4552C88.3279 22.7192 86.8957 22.8171 85.4492 22.7489C85.7113 22.4957 86.0369 22.3326 86.4258 22.2593C86.6979 22.03 86.8607 21.7362 86.9141 21.3781C87.0443 18.8322 87.0443 16.2863 86.9141 13.7404C86.6395 13.301 86.2814 12.9746 85.8398 12.7612Z" fill="#88B367"/>
<path fill-rule="evenodd" clip-rule="evenodd" d="M43.8477 16.0905C44.8139 15.9196 45.6275 16.1807 46.2891 16.8738C48.092 21.5138 49.8172 26.1812 51.4648 30.8762C51.001 32.693 50.057 32.9867 48.6328 31.7575C48.3941 30.9526 48.1012 30.1692 47.7539 29.4074C45.6746 29.2118 43.5912 29.1466 41.5039 29.2116C41.324 30.0956 41.0311 30.9442 40.625 31.7575C39.3213 32.9186 38.3773 32.6573 37.793 30.9741C39.3982 26.5147 41.0584 22.0757 42.7734 17.6572C43.0221 17.0506 43.3803 16.5284 43.8477 16.0905Z" fill="#6D8C44"/>
<path fill-rule="evenodd" clip-rule="evenodd" d="M57.7139 16.0906C60.9697 16.058 64.225 16.0906 67.4795 16.1885C68.0393 16.4613 68.2996 16.9182 68.2608 17.5594C68.2526 17.9447 68.1549 18.3037 67.9678 18.6365C65.6182 22.1351 63.307 25.6602 61.0342 29.2117C63.1797 29.3746 65.3281 29.4726 67.4795 29.5055C68.4022 29.9823 68.6951 30.7332 68.3584 31.7576C68.1957 31.9207 68.0328 32.0841 67.8701 32.2472C64.4373 32.5682 60.9869 32.6334 57.5186 32.443C56.7647 31.944 56.4717 31.2586 56.6397 30.3867C59.1053 26.65 61.5467 22.8963 63.9639 19.1261C61.8805 19.0608 59.7973 18.9955 57.7139 18.9302C56.6856 17.9659 56.6856 17.0193 57.7139 16.0906Z" fill="#6D8C44"/>
<path fill-rule="evenodd" clip-rule="evenodd" d="M44.6289 21.3782C45.3646 22.8716 45.9506 24.4383 46.3867 26.0783C45.2076 26.1427 44.0357 26.0775 42.8711 25.8824C43.4969 24.3909 44.0828 22.8895 44.6289 21.3782Z" fill="#DFEDD4"/>
<path fill-rule="evenodd" clip-rule="evenodd" d="M52.0507 22.749C53.4195 22.7165 54.7867 22.749 56.1523 22.8469C56.8773 23.3479 57.105 24.0333 56.8359 24.9032C56.7382 25.2622 56.5103 25.4907 56.1523 25.5886C54.7851 25.7193 53.4179 25.7193 52.0507 25.5886C51.3257 25.0965 51.098 24.4111 51.3671 23.5324C51.6359 23.2964 51.8636 23.0353 52.0507 22.749Z" fill="#6D8C44"/>
<path opacity="0.993" fill-rule="evenodd" clip-rule="evenodd" d="M84.6686 28.4282C84.9941 28.4282 85.3195 28.4282 85.6451 28.4282C86.1856 28.6697 86.6088 29.0614 86.9147 29.6032C87.0449 32.2143 87.0449 34.8256 86.9147 37.4367C86.5768 37.8092 86.2188 38.1357 85.8404 38.4159C85.4498 38.4159 85.0592 38.4159 84.6686 38.4159C84.41 35.1059 84.41 31.7767 84.6686 28.4282Z" fill="#88B367"/>
<path opacity="0.953" fill-rule="evenodd" clip-rule="evenodd" d="M85.6445 28.4284C89.8652 27.536 91.4928 29.2006 90.5273 33.4223C90.4947 34.6952 90.4623 35.9682 90.4297 37.2411C90.2959 37.7419 90.0029 38.101 89.5508 38.3182C88.3154 38.4161 87.0785 38.4486 85.8398 38.4161C86.2182 38.1359 86.5762 37.8094 86.9141 37.4369C87.0443 34.8258 87.0443 32.2145 86.9141 29.6034C86.6082 29.0616 86.185 28.6699 85.6445 28.4284Z" fill="#88B367"/>
<path fill-rule="evenodd" clip-rule="evenodd" d="M34.4732 64.4625C46.9083 64.4298 59.3431 64.4625 71.7778 64.5604C72.8079 64.9628 73.3286 65.7137 73.3403 66.8125C73.3636 68.105 72.7777 68.9863 71.5825 69.4563C59.3429 69.5869 47.1034 69.5869 34.8638 69.4563C33.1132 68.6085 32.6249 67.2702 33.3989 65.4416C33.7368 65.0692 34.0948 64.7427 34.4732 64.4625Z" fill="#DFEDD4"/>
<path fill-rule="evenodd" clip-rule="evenodd" d="M21.7773 81.5004C19.3025 81.4677 16.8286 81.5004 14.3555 81.5983C11.6148 82.42 9.92209 84.2153 9.27734 86.9838C9.27734 85.9394 9.27734 84.8948 9.27734 83.8504C9.95158 81.2299 11.5792 79.5001 14.1602 78.6607C16.6984 78.5628 19.2374 78.5301 21.7773 78.5628C21.7773 79.542 21.7773 80.5212 21.7773 81.5004Z" fill="#6D8C44"/>
<path opacity="0.97" fill-rule="evenodd" clip-rule="evenodd" d="M84.6684 78.7585C84.76 83.2105 84.6623 87.6494 84.3754 92.0755C83.8596 92.985 83.1107 93.6052 82.1293 93.9359C80.6334 94.0339 79.136 94.0664 77.6371 94.0339C77.6047 92.9873 77.6373 91.9429 77.7348 90.9005C78.9338 90.613 79.7801 89.895 80.2738 88.7463C80.3715 86.3318 80.4041 83.9165 80.3715 81.5003C82.5246 81.664 83.9568 80.75 84.6684 78.7585Z" fill="#88B367"/>
<path opacity="0.999" fill-rule="evenodd" clip-rule="evenodd" d="M21.7768 81.5003C21.8419 81.5003 21.9071 81.5003 21.9722 81.5003C21.9722 84.6337 21.9722 87.7671 21.9722 90.9005C21.9722 91.9449 21.9722 92.9895 21.9722 94.0339C21.9071 94.0339 21.8419 94.0339 21.7768 94.0339C21.7768 92.9895 21.7768 91.9449 21.7768 90.9005C17.9357 90.9005 14.0946 90.9005 10.2534 90.9005C9.50411 89.7231 9.17861 88.4177 9.27685 86.9838C9.92159 84.2152 11.6143 82.42 14.355 81.5982C16.8281 81.5003 19.302 81.4676 21.7768 81.5003Z" fill="#6D8C44"/>
<path fill-rule="evenodd" clip-rule="evenodd" d="M21.9727 81.5002C40.4623 81.5002 58.9518 81.5002 77.4414 81.5002C77.4414 84.6336 77.4414 87.767 77.4414 90.9004C64.5508 90.9004 51.6602 90.9004 38.7695 90.9004C38.7695 89.5296 38.7695 88.1587 38.7695 86.7879C35.2879 86.5926 31.7723 86.5274 28.2227 86.592C28.2227 88.0281 28.2227 89.4644 28.2227 90.9004C26.1393 90.9004 24.0561 90.9004 21.9727 90.9004C21.9727 87.767 21.9727 84.6336 21.9727 81.5002Z" fill="#DFEDD4"/>
<path fill-rule="evenodd" clip-rule="evenodd" d="M77.4414 81.5002C78.418 81.5002 79.3945 81.5002 80.3711 81.5002C80.4037 83.9165 80.3711 86.3318 80.2734 88.7462C79.7797 89.895 78.9334 90.613 77.7344 90.9004C77.6369 91.9429 77.6043 92.9873 77.6367 94.0338C77.5717 94.0338 77.5064 94.0338 77.4414 94.0338C77.4414 92.9894 77.4414 91.9448 77.4414 90.9004C77.4414 87.767 77.4414 84.6336 77.4414 81.5002Z" fill="#88B367"/>
<path fill-rule="evenodd" clip-rule="evenodd" d="M38.77 86.7878C37.6632 86.7878 36.5565 86.7878 35.4497 86.7878C35.389 91.0399 35.454 95.2831 35.645 99.5173C34.9581 99.0749 34.2421 98.6832 33.4966 98.3422C32.1247 99.029 30.8228 99.8124 29.5903 100.692C29.1997 100.692 28.8091 100.692 28.4185 100.692C28.2276 98.4887 28.1624 96.2691 28.2231 94.0338C28.2231 92.9894 28.2231 91.9448 28.2231 90.9004C28.2231 89.4643 28.2231 88.0281 28.2231 86.592C31.7728 86.5274 35.2884 86.5926 38.77 86.7878Z" fill="#88B367"/>
<path opacity="0.994" fill-rule="evenodd" clip-rule="evenodd" d="M38.77 86.7878C38.77 88.1587 38.77 89.5296 38.77 90.9004C38.77 91.9448 38.77 92.9894 38.77 94.0338C38.8308 96.2691 38.7656 98.4887 38.5747 100.692C38.2491 100.692 37.9238 100.692 37.5982 100.692C37.0027 100.23 36.3517 99.8379 35.645 99.5173C35.454 95.2831 35.389 91.0399 35.4497 86.7878C36.5566 86.7878 37.6632 86.7878 38.77 86.7878Z" fill="#6D8C44"/>
<path opacity="0.968" fill-rule="evenodd" clip-rule="evenodd" d="M10.2539 90.9004C14.0951 90.9004 17.9362 90.9004 21.7773 90.9004C21.7773 91.9448 21.7773 92.9894 21.7773 94.0338C19.0314 94.1178 16.297 94.0199 13.5742 93.74C12.0594 93.2461 10.9526 92.2994 10.2539 90.9004Z" fill="#6D8C44"/>
<path opacity="0.978" fill-rule="evenodd" clip-rule="evenodd" d="M21.9727 90.9004C24.0561 90.9004 26.1393 90.9004 28.2227 90.9004C28.2227 91.9448 28.2227 92.9894 28.2227 94.0338C26.1393 94.0338 24.0561 94.0338 21.9727 94.0338C21.9727 92.9894 21.9727 91.9448 21.9727 90.9004Z" fill="#6D8C44"/>
<path opacity="0.978" fill-rule="evenodd" clip-rule="evenodd" d="M38.7695 90.9004C51.6602 90.9004 64.5508 90.9004 77.4414 90.9004C77.4414 91.9448 77.4414 92.9894 77.4414 94.0338C64.5508 94.0338 51.6602 94.0338 38.7695 94.0338C38.7695 92.9894 38.7695 91.9448 38.7695 90.9004Z" fill="#6D8C44"/>
</g>
<defs>
<clipPath id="clip0_2588_4437">
<rect width="100" height="100.269" fill="white" transform="translate(0 0.521484)"/>
</clipPath>
</defs>
</svg>
