<svg width="100" height="100" viewBox="0 0 100 100" fill="none" xmlns="http://www.w3.org/2000/svg">
<g clip-path="url(#clip0_2588_247)">
<path opacity="0.998" fill-rule="evenodd" clip-rule="evenodd" d="M89.1602 16.5039C92.0477 17.5026 93.6102 19.5209 93.8477 22.5586C91.8295 22.5586 89.8111 22.5586 87.793 22.5586C60.5143 22.5586 33.2357 22.5586 5.95703 22.5586C5.95703 24.5768 5.95703 26.5951 5.95703 28.6133C5.95703 32.6498 5.95703 36.6861 5.95703 40.7227C2.87217 40.9281 0.853934 42.4906 -0.0976562 45.4102C-0.0976562 33.2358 -0.0976562 21.0611 -0.0976562 8.88672C0.663793 6.59608 2.22629 5.13124 4.58984 4.49219C15.332 4.36198 26.0742 4.36198 36.8164 4.49219C37.6051 4.66784 38.3213 4.99336 38.9648 5.46876C42.6107 9.1146 46.2564 12.7604 49.9023 16.4063C62.9881 16.5039 76.074 16.5365 89.1602 16.5039Z" fill="#3D8244"/>
<path opacity="0.993" fill-rule="evenodd" clip-rule="evenodd" d="M89.1602 16.5039C91.2445 16.4714 93.3279 16.5039 95.4102 16.6015C97.6594 17.3211 99.1568 18.7859 99.9023 20.9961C99.9023 25.0976 99.9023 29.1992 99.9023 33.3008C98.9189 30.432 96.9008 28.8695 93.8477 28.6133C93.8477 28.5482 93.8477 28.483 93.8477 28.4179C93.8477 26.4648 93.8477 24.5117 93.8477 22.5586C93.6102 19.5208 92.0477 17.5026 89.1602 16.5039Z" fill="#3D8244"/>
<path fill-rule="evenodd" clip-rule="evenodd" d="M87.793 22.5586C87.793 24.5117 87.793 26.4648 87.793 28.418C89.8111 28.418 91.8295 28.418 93.8477 28.418C93.8477 28.483 93.8477 28.5482 93.8477 28.6133C83.5611 28.6133 73.2748 28.6133 62.9883 28.6133C43.9779 28.6133 24.9674 28.6133 5.95703 28.6133C5.95703 26.5951 5.95703 24.5768 5.95703 22.5586C33.2357 22.5586 60.5143 22.5586 87.793 22.5586Z" fill="#CEE4BD"/>
<path fill-rule="evenodd" clip-rule="evenodd" d="M87.793 22.5586C89.8111 22.5586 91.8295 22.5586 93.8477 22.5586C93.8477 24.5117 93.8477 26.4648 93.8477 28.418C91.8295 28.418 89.8111 28.418 87.793 28.418C87.793 26.4648 87.793 24.5117 87.793 22.5586Z" fill="#CEE4BD"/>
<path fill-rule="evenodd" clip-rule="evenodd" d="M5.95703 28.6133C24.9674 28.6133 43.9779 28.6133 62.9883 28.6133C62.1941 28.9783 61.4129 29.4016 60.6445 29.8828C57.0639 33.4635 53.483 37.0443 49.9023 40.625C35.2541 40.7227 20.6057 40.7553 5.95703 40.7227C5.95703 36.6861 5.95703 32.6498 5.95703 28.6133Z" fill="#CEE4BD"/>
<path opacity="0.999" fill-rule="evenodd" clip-rule="evenodd" d="M62.9883 28.6133C73.2748 28.6133 83.5611 28.6133 93.8477 28.6133C93.8803 49.3166 93.8477 70.0197 93.75 90.7227C92.9453 93.1227 91.3504 94.6852 88.9649 95.4102C60.8398 95.4428 32.7148 95.4102 4.58984 95.3125C2.22629 94.6734 0.663793 93.2086 -0.0976562 90.918C-0.0976562 75.7486 -0.0976562 60.5795 -0.0976562 45.4102C0.853934 42.4906 2.87217 40.9281 5.95703 40.7227C20.6057 40.7553 35.2541 40.7227 49.9023 40.625C53.483 37.0443 57.0639 33.4635 60.6445 29.8828C61.4129 29.4016 62.1941 28.9783 62.9883 28.6133Z" fill="#4E9A5F"/>
<path opacity="0.999" fill-rule="evenodd" clip-rule="evenodd" d="M93.8477 28.6133C96.9008 28.8695 98.9189 30.432 99.9023 33.3008C99.9023 52.5064 99.9023 71.7123 99.9023 90.918C99.2582 92.8979 97.9561 94.2977 95.9961 95.1172C93.6645 95.3936 91.3207 95.4912 88.9648 95.4102C91.3504 94.6852 92.9453 93.1227 93.75 90.7227C93.8477 70.0197 93.8803 49.3166 93.8477 28.6133Z" fill="#4E9A5F"/>
</g>
<defs>
<clipPath id="clip0_2588_247">
<rect width="100" height="100" fill="white"/>
</clipPath>
</defs>
</svg>
