<svg width="100" height="101" viewBox="0 0 100 101" fill="none" xmlns="http://www.w3.org/2000/svg">
<g clip-path="url(#clip0_2588_4794)">
<path opacity="0.996" fill-rule="evenodd" clip-rule="evenodd" d="M41.1133 0.771362C42.5455 0.771362 43.9779 0.771362 45.4102 0.771362C54.5203 1.12068 63.5697 2.19117 72.5586 3.98283C75.9563 4.76534 79.2113 5.93314 82.3242 7.48625C86.3311 10.2548 86.2008 12.8499 81.9336 15.2716C77.6777 17.1755 73.2506 18.5379 68.6523 19.3589C61.2408 20.5425 53.8189 21.3534 46.3867 21.7919C36.9885 21.6792 27.6785 20.7383 18.457 18.9697C14.7327 18.2299 11.152 17.0621 7.71484 15.4663C6.68447 14.9042 5.74045 14.2229 4.88281 13.4226C4.41172 12.7432 4.05365 12.0296 3.80859 11.2816C4.07887 9.80374 4.86012 8.66838 6.15234 7.87552C8.65912 6.39371 11.3284 5.29079 14.1602 4.56673C23.0451 2.40614 32.0295 1.14101 41.1133 0.771362Z" fill="#C1B262"/>
<path fill-rule="evenodd" clip-rule="evenodd" d="M45.4102 0.771362C49.8373 0.771362 54.2643 0.771362 58.6914 0.771362C67.7752 1.14101 76.7596 2.40614 85.6445 4.56673C89.1857 5.34204 92.3434 6.86667 95.1172 9.14064C95.6201 9.76857 95.9131 10.4822 95.9961 11.2816C95.8014 11.9558 95.5084 12.6046 95.1172 13.228C93.359 14.8997 91.3082 16.0999 88.9648 16.8287C87.6225 17.1991 86.3203 17.6208 85.0586 18.0938C72.3311 20.9112 59.4404 22.144 46.3867 21.7919C53.8189 21.3534 61.2408 20.5425 68.6523 19.3589C73.2506 18.5379 77.6777 17.1755 81.9336 15.2716C86.2008 12.8499 86.3311 10.2548 82.3242 7.48625C79.2113 5.93314 75.9562 4.76534 72.5586 3.98283C63.5697 2.19117 54.5203 1.12068 45.4102 0.771362Z" fill="#9A8E4E"/>
<path opacity="0.998" fill-rule="evenodd" clip-rule="evenodd" d="M3.80859 11.2816C4.05365 12.0296 4.41172 12.7432 4.88281 13.4226C5.74045 14.2229 6.68447 14.9042 7.71484 15.4663C11.152 17.0621 14.7327 18.2299 18.457 18.9697C27.6785 20.7383 36.9885 21.6792 46.3867 21.7919C59.4404 22.144 72.3311 20.9111 85.0586 18.0938C85.2859 24.8083 85.3186 31.5555 85.1563 38.3358C84.1443 40.0266 82.7445 41.2592 80.957 42.0338C72.3889 43.7215 63.7301 44.6622 54.9805 44.856C43.7797 45.1729 32.6469 44.4592 21.582 42.7151C18.1349 42.1158 14.7495 41.2724 11.4258 40.1848C9.0216 39.3605 6.84061 38.1602 4.88281 36.5841C4.42848 35.8996 4.07041 35.186 3.80859 34.4431C3.80859 26.7225 3.80859 19.0021 3.80859 11.2816Z" fill="#F0ECC3"/>
<path fill-rule="evenodd" clip-rule="evenodd" d="M76.6598 28.0202C80.4041 27.8493 82.1946 29.601 82.0309 33.2753C81.6287 34.9089 80.6197 35.9794 79.0035 36.4868C76.3652 36.9728 74.5748 35.9671 73.6324 33.4699C73.1949 30.8305 74.2041 29.014 76.6598 28.0202Z" fill="#9A8E4E"/>
<path fill-rule="evenodd" clip-rule="evenodd" d="M16.3096 30.3557C20.1398 30.9984 23.9808 31.6148 27.833 32.2047C34.934 33.0728 42.0629 33.4946 49.2197 33.4699C54.7271 33.3801 60.2285 33.2178 65.7236 32.9833C66.2834 33.2544 66.5437 33.7085 66.5049 34.3457C66.5437 34.983 66.2834 35.437 65.7236 35.7082C49.3928 37.2824 33.1818 36.5038 17.0908 33.3725C15.3569 32.7454 15.0965 31.74 16.3096 30.3557Z" fill="#C1B262"/>
<path fill-rule="evenodd" clip-rule="evenodd" d="M3.80859 34.4431C4.07041 35.186 4.42848 35.8996 4.88281 36.5841C6.84061 38.1602 9.0216 39.3606 11.4258 40.1848C14.7495 41.2724 18.1349 42.1158 21.582 42.7151C32.6469 44.4592 43.7797 45.1729 54.9805 44.8561C63.7301 44.6622 72.3889 43.7215 80.957 42.0339C85.4551 41.3194 89.6869 39.8596 93.6523 37.6546C94.0182 37.2246 94.4414 36.8679 94.9219 36.5841C95.2316 36.1617 95.4922 35.7075 95.7031 35.2217C96.2861 37.437 95.6676 39.2212 93.8476 40.5741C91.1555 42.1717 88.2908 43.3718 85.2539 44.1748C76.7275 46.2761 68.0685 47.4764 59.2773 47.7756C46.3707 48.4227 33.5451 47.709 20.8008 45.6346C16.4948 44.8673 12.3281 43.6345 8.30078 41.9365C6.25299 41.0951 4.75561 39.7002 3.80859 37.7519C3.80859 36.6489 3.80859 35.5461 3.80859 34.4431Z" fill="#9A8E4E"/>
<path opacity="0.998" fill-rule="evenodd" clip-rule="evenodd" d="M3.80859 37.7518C4.75561 39.7001 6.25299 41.0951 8.30078 41.9365C12.3281 43.6345 16.4948 44.8673 20.8008 45.6345C33.5451 47.7089 46.3707 48.4227 59.2773 47.7755C68.0686 47.4764 76.7275 46.276 85.2539 44.1748C85.2865 50.9874 85.2539 57.7996 85.1562 64.6114C84.751 65.4053 84.1977 66.0865 83.4961 66.655C82.6047 67.2604 81.6932 67.812 80.7617 68.3094C72.7107 69.9243 64.5727 70.8002 56.3477 70.937C44.4853 71.4526 32.7016 70.7389 20.9961 68.796C17.4738 68.1617 14.0233 67.2535 10.6445 66.0711C8.38887 65.2891 6.4032 64.0888 4.6875 62.4704C4.33576 61.8988 4.04279 61.3149 3.80859 60.7187C3.80859 53.0631 3.80859 45.4074 3.80859 37.7518Z" fill="#F0ECC3"/>
<path fill-rule="evenodd" clip-rule="evenodd" d="M95.9961 11.2816C96.0611 37.7196 95.9961 64.125 95.8008 90.4978C95.8332 89.5225 95.8006 88.5493 95.7031 87.5783C95.4922 88.0641 95.2316 88.5184 94.9219 88.9407C93.5471 90.1128 92.0172 91.0537 90.332 91.7629C87.3406 92.8974 84.2807 93.7733 81.1523 94.3905C82.8523 93.654 84.1869 92.4862 85.1562 90.8871C85.3186 84.042 85.2859 77.2298 85.0586 70.4504C87.2883 69.7416 89.5018 68.9305 91.6992 68.0175C92.6631 67.5103 93.5746 66.9264 94.4336 66.2658C95.7377 64.9333 96.1607 63.344 95.7031 61.4973C95.2978 62.2912 94.7445 62.9724 94.043 63.5409C91.5652 65.1218 88.8961 66.2896 86.0352 67.0443C84.2805 67.4977 82.5227 67.9194 80.7617 68.3095C81.6932 67.812 82.6047 67.2604 83.4961 66.6551C84.1977 66.0866 84.751 65.4053 85.1562 64.6114C85.2539 57.7996 85.2865 50.9874 85.2539 44.1748C88.2908 43.3718 91.1555 42.1716 93.8476 40.5741C95.6676 39.2212 96.2861 37.437 95.7031 35.2216C95.4922 35.7074 95.2316 36.1617 94.9219 36.5841C94.4414 36.8679 94.0182 37.2246 93.6523 37.6546C89.6869 39.8596 85.4551 41.3193 80.957 42.0338C82.7445 41.2592 84.1443 40.0266 85.1562 38.3358C85.3186 31.5555 85.2859 24.8083 85.0586 18.0938C86.3203 17.6208 87.6225 17.1991 88.9648 16.8287C91.3082 16.0999 93.359 14.8997 95.1172 13.228C95.5084 12.6046 95.8014 11.9558 95.9961 11.2816Z" fill="#C1B262"/>
<path fill-rule="evenodd" clip-rule="evenodd" d="M76.6603 53.9065C80.7928 53.7734 82.518 55.7198 81.8361 59.7456C80.7748 62.0423 78.9844 62.9181 76.465 62.3731C73.5328 60.8733 72.784 58.635 74.2189 55.6582C74.8633 54.8054 75.6771 54.2215 76.6603 53.9065Z" fill="#9A8E4E"/>
<path fill-rule="evenodd" clip-rule="evenodd" d="M16.3087 56.2421C25.2819 57.8519 34.3313 58.8576 43.4571 59.2589C50.8827 59.2675 58.3046 59.1376 65.7227 58.8696C66.3444 59.0678 66.6048 59.4895 66.504 60.1348C66.5925 60.8999 66.2669 61.3864 65.5274 61.5945C51.8206 62.7368 38.1487 62.4126 24.5118 60.6213C21.8163 60.2268 19.1471 59.7077 16.504 59.0643C15.2914 58.204 15.2263 57.2633 16.3087 56.2421Z" fill="#C1B262"/>
<path fill-rule="evenodd" clip-rule="evenodd" d="M3.80859 60.7188C4.04279 61.3149 4.33576 61.8988 4.6875 62.4705C6.4032 64.0888 8.38887 65.2892 10.6445 66.0712C14.0233 67.2536 17.4738 68.1618 20.9961 68.7961C32.7016 70.7389 44.4853 71.4526 56.3476 70.9371C64.5726 70.8002 72.7107 69.9244 80.7617 68.3095C82.5226 67.9194 84.2805 67.4977 86.0351 67.0444C88.8961 66.2896 91.5652 65.1218 94.043 63.5409C94.7445 62.9724 95.2978 62.2912 95.7031 61.4973C96.1607 63.344 95.7377 64.9334 94.4336 66.2658C93.5746 66.9264 92.6631 67.5103 91.6992 68.0175C89.5017 68.9306 87.2883 69.7416 85.0586 70.4505C73.3006 73.056 61.3865 74.2887 49.3164 74.1485C39.9365 74.2491 30.6268 73.5031 21.3867 71.9102C16.9544 71.128 12.6575 69.8954 8.49609 68.2122C7.10744 67.5043 5.83791 66.6284 4.6875 65.5846C4.38557 64.9828 4.0926 64.3989 3.80859 63.8329C3.80859 62.7949 3.80859 61.7567 3.80859 60.7188Z" fill="#9A8E4E"/>
<path opacity="0.998" fill-rule="evenodd" clip-rule="evenodd" d="M3.80859 63.8329C4.0926 64.3989 4.38557 64.9828 4.6875 65.5846C5.83791 66.6284 7.10744 67.5043 8.49609 68.2122C12.6575 69.8954 16.9544 71.128 21.3867 71.9102C30.6268 73.5031 39.9365 74.2491 49.3164 74.1485C61.3865 74.2886 73.3006 73.056 85.0586 70.4505C85.2859 77.2298 85.3186 84.042 85.1563 90.887C84.1869 92.4862 82.8523 93.654 81.1523 94.3905C68.64 96.7712 56.0098 97.7119 43.2617 97.2127C35.5857 96.9787 27.9686 96.2002 20.4102 94.8771C15.3552 94.1063 10.6026 92.4844 6.15234 90.0112C5.06238 89.2288 4.28113 88.2233 3.80859 86.9944C3.80859 79.2738 3.80859 71.5534 3.80859 63.8329Z" fill="#F0ECC3"/>
<path fill-rule="evenodd" clip-rule="evenodd" d="M76.6603 79.7929C80.7928 79.6598 82.518 81.6061 81.8361 85.6319C80.7748 87.9286 78.9844 88.8045 76.465 88.2595C73.5328 86.7596 72.784 84.5213 74.2189 81.5446C74.8633 80.6917 75.6771 80.1078 76.6603 79.7929Z" fill="#9A8E4E"/>
<path fill-rule="evenodd" clip-rule="evenodd" d="M16.3088 82.1285C20.3285 82.8068 24.365 83.4232 28.4181 83.9776C32.1218 84.3812 35.8328 84.7057 39.5509 84.9507C48.2787 85.0882 57.0027 85.0233 65.7228 84.7561C66.3445 84.9542 66.6049 85.376 66.5041 86.0212C66.5926 86.7863 66.267 87.2729 65.5275 87.481C51.4166 88.7107 37.3541 88.3214 23.34 86.3132C21.0435 85.9393 18.7648 85.4852 16.5041 84.9507C15.3201 84.0817 15.255 83.141 16.3088 82.1285Z" fill="#C1B262"/>
<path fill-rule="evenodd" clip-rule="evenodd" d="M3.80902 86.9944C4.28156 88.2233 5.06281 89.2288 6.15277 90.0112C10.603 92.4844 15.3556 94.1063 20.4106 94.8771C27.969 96.2002 35.5862 96.9787 43.2621 97.2127C56.0102 97.7119 68.6405 96.7713 81.1528 94.3905C84.2811 93.7733 87.341 92.8974 90.3325 91.7629C92.0176 91.0537 93.5475 90.1128 94.9223 88.9407C95.2321 88.5184 95.4926 88.0641 95.7035 87.5783C95.801 88.5493 95.8336 89.5225 95.8012 90.4978C95.7346 91.0848 95.5069 91.6037 95.1176 92.0549C93.4061 93.6378 91.4203 94.7406 89.1606 95.3637C86.6674 96.0813 84.1934 96.795 81.7387 97.5046C80.0364 97.9994 78.2785 98.3237 76.4653 98.4778C71.8188 99.0282 67.1963 99.5473 62.5981 100.035C61.2701 100.15 59.968 100.28 58.6918 100.424C53.809 100.424 48.9262 100.424 44.0434 100.424C34.8639 100.146 25.7493 99.0759 16.6996 97.2127C13.3021 96.4303 10.0469 95.2624 6.93402 93.7093C5.49974 92.93 4.49062 91.7945 3.90668 90.3032C3.80914 89.2021 3.77658 88.0991 3.80902 86.9944Z" fill="#9A8E4E"/>
<path opacity="0.265" fill-rule="evenodd" clip-rule="evenodd" d="M89.1602 95.3636C86.7945 96.3756 84.3207 97.0891 81.7383 97.5046C84.193 96.795 86.667 96.0813 89.1602 95.3636Z" fill="#C1B262"/>
<path opacity="0.217" fill-rule="evenodd" clip-rule="evenodd" d="M76.4648 98.4778C71.9078 99.3355 67.2855 99.8546 62.5977 100.035C67.1959 99.5473 71.8184 99.0282 76.4648 98.4778Z" fill="#C1B262"/>
</g>
<defs>
<clipPath id="clip0_2588_4794">
<rect width="100" height="99.6528" fill="white" transform="translate(0 0.868652)"/>
</clipPath>
</defs>
</svg>
