<svg width="100" height="101" viewBox="0 0 100 101" fill="none" xmlns="http://www.w3.org/2000/svg">
<g clip-path="url(#clip0_2588_503)">
<path fill-rule="evenodd" clip-rule="evenodd" d="M13.9644 -0.0979004C16.6336 -0.0979004 19.3029 -0.0979004 21.9722 -0.0979004C21.9722 25.9485 21.9722 51.9949 21.9722 78.0413C21.9722 79.0205 21.9722 79.9996 21.9722 80.9788C21.9071 80.9788 21.8419 80.9788 21.7769 80.9788C21.7769 79.9996 21.7769 79.0205 21.7769 78.0413C19.237 78.0086 16.6979 78.0413 14.1597 78.1392C11.5787 78.9785 9.9511 80.7084 9.27686 83.3289C9.2443 57.2825 9.27686 31.2361 9.37451 5.18971C9.9011 2.54081 11.4311 0.778273 13.9644 -0.0979004Z" fill="#3D8244"/>
<path fill-rule="evenodd" clip-rule="evenodd" d="M21.9727 -0.0979004C41.4389 -0.0979004 60.9049 -0.0979004 80.3711 -0.0979004C80.4037 25.0999 80.3711 50.2977 80.2734 75.4954C79.8363 76.782 78.9574 77.5981 77.6367 77.9434C59.0822 78.0413 40.5275 78.074 21.9727 78.0413C21.9727 51.9949 21.9727 25.9485 21.9727 -0.0979004Z" fill="#4E9A5F"/>
<path opacity="0.987" fill-rule="evenodd" clip-rule="evenodd" d="M80.3711 -0.0979004C81.0221 -0.0979004 81.6732 -0.0979004 82.3242 -0.0979004C83.5059 0.337742 84.2545 1.18637 84.5703 2.44799C84.668 5.71129 84.7006 8.97525 84.668 12.2399C84.4094 15.5499 84.4094 18.8792 84.668 22.2276C84.668 24.1207 84.668 26.0137 84.668 27.9069C84.4094 31.2553 84.4094 34.5845 84.668 37.8946C84.668 51.3422 84.668 64.7895 84.668 78.2371C83.9564 80.2286 82.5242 81.1425 80.3711 80.9788C79.3945 80.9788 78.418 80.9788 77.4414 80.9788C58.9518 80.9788 40.4623 80.9788 21.9727 80.9788C21.9727 79.9996 21.9727 79.0205 21.9727 78.0413C40.5275 78.074 59.0822 78.0413 77.6367 77.9434C78.9574 77.5981 79.8363 76.782 80.2734 75.4954C80.3711 50.2977 80.4037 25.0999 80.3711 -0.0979004Z" fill="#3D8244"/>
<path fill-rule="evenodd" clip-rule="evenodd" d="M35.0586 9.49808C47.1682 9.46544 59.2776 9.49808 71.3868 9.596C72.1899 9.94432 72.8083 10.4992 73.2423 11.2606C73.3725 19.4858 73.3725 27.711 73.2423 35.9362C73.0143 36.948 72.396 37.5681 71.3868 37.7966C59.2124 37.9272 47.0377 37.9272 34.8633 37.7966C34.0495 37.5029 33.4961 36.948 33.2032 36.132C33.0729 27.7762 33.0729 19.4205 33.2032 11.0648C33.6645 10.3314 34.2829 9.80919 35.0586 9.49808Z" fill="#CEE4BD"/>
<path opacity="0.993" fill-rule="evenodd" clip-rule="evenodd" d="M84.6676 12.2397C85.0582 12.2397 85.4488 12.2397 85.8395 12.2397C86.2811 12.4532 86.6391 12.7795 86.9137 13.2189C87.044 15.7648 87.044 18.3107 86.9137 20.8566C86.8604 21.2148 86.6975 21.5085 86.4254 21.7379C86.0365 21.8111 85.7109 21.9742 85.4488 22.2275C85.1885 22.2275 84.9279 22.2275 84.6676 22.2275C84.409 18.8791 84.409 15.5498 84.6676 12.2397Z" fill="#4E9A5F"/>
<path opacity="0.991" fill-rule="evenodd" clip-rule="evenodd" d="M85.8398 12.2397C87.0785 12.2072 88.3154 12.2398 89.5508 12.3376C89.8303 12.4287 90.058 12.592 90.2344 12.8272C90.5492 15.4901 90.6143 18.1665 90.4297 20.8566C90.3621 21.3164 90.1342 21.6754 89.7461 21.9337C88.3279 22.1977 86.8957 22.2956 85.4492 22.2274C85.7113 21.9742 86.0369 21.8111 86.4258 21.7378C86.6979 21.5085 86.8607 21.2148 86.9141 20.8566C87.0443 18.3107 87.0443 15.7648 86.9141 13.2189C86.6395 12.7795 86.2814 12.4531 85.8398 12.2397Z" fill="#4E9A5F"/>
<path fill-rule="evenodd" clip-rule="evenodd" d="M43.8477 15.569C44.8139 15.3981 45.6275 15.6593 46.2891 16.3523C48.092 20.9923 49.8172 25.6597 51.4648 30.3547C51.001 32.1715 50.057 32.4653 48.6328 31.236C48.3941 30.4311 48.1012 29.6477 47.7539 28.8859C45.6746 28.6903 43.5912 28.6251 41.5039 28.6901C41.324 29.5741 41.0311 30.4227 40.625 31.236C39.3213 32.3971 38.3773 32.1359 37.793 30.4526C39.3982 25.9932 41.0584 21.5542 42.7734 17.1357C43.0221 16.5291 43.3803 16.0069 43.8477 15.569Z" fill="#3D8244"/>
<path fill-rule="evenodd" clip-rule="evenodd" d="M57.7149 15.5691C60.9707 15.5365 64.226 15.5691 67.4805 15.667C68.0402 15.9398 68.3006 16.3968 68.2617 17.0379C68.2535 17.4232 68.1559 17.7822 67.9688 18.115C65.6192 21.6136 63.308 25.1387 61.0352 28.6902C63.1807 28.8532 65.3291 28.9511 67.4805 28.984C68.4031 29.4608 68.6961 30.2117 68.3594 31.2361C68.1967 31.3992 68.0338 31.5626 67.8711 31.7257C64.4383 32.0467 60.9879 32.1119 57.5195 31.9215C56.7656 31.4225 56.4727 30.7371 56.6406 29.8652C59.1063 26.1285 61.5477 22.3749 63.9649 18.6046C61.8815 18.5393 59.7983 18.474 57.7149 18.4088C56.6865 17.4444 56.6865 16.4978 57.7149 15.5691Z" fill="#3D8244"/>
<path fill-rule="evenodd" clip-rule="evenodd" d="M44.6289 20.8567C45.3646 22.3501 45.9506 23.9168 46.3867 25.5568C45.2076 25.6212 44.0357 25.556 42.8711 25.361C43.4969 23.8695 44.0828 22.368 44.6289 20.8567Z" fill="#CEE4BD"/>
<path fill-rule="evenodd" clip-rule="evenodd" d="M52.0507 22.2275C53.4195 22.195 54.7867 22.2275 56.1523 22.3254C56.8773 22.8264 57.105 23.5118 56.8359 24.3817C56.7382 24.7407 56.5103 24.9692 56.1523 25.0672C54.7851 25.1978 53.4179 25.1978 52.0507 25.0672C51.3257 24.575 51.098 23.8896 51.3671 23.0109C51.6359 22.7749 51.8636 22.5138 52.0507 22.2275Z" fill="#3D8244"/>
<path opacity="0.993" fill-rule="evenodd" clip-rule="evenodd" d="M84.6676 27.9067C84.9932 27.9067 85.3186 27.9067 85.6442 27.9067C86.1846 28.1482 86.6078 28.5399 86.9137 29.0818C87.044 31.6929 87.044 34.3042 86.9137 36.9153C86.5758 37.2877 86.2178 37.6142 85.8395 37.8945C85.4488 37.8945 85.0582 37.8945 84.6676 37.8945C84.409 34.5844 84.409 31.2552 84.6676 27.9067Z" fill="#4E9A5F"/>
<path opacity="0.953" fill-rule="evenodd" clip-rule="evenodd" d="M85.6445 27.9069C89.8652 27.0145 91.4928 28.6791 90.5273 32.9008C90.4947 34.1737 90.4623 35.4467 90.4297 36.7196C90.2959 37.2204 90.0029 37.5795 89.5508 37.7967C88.3154 37.8946 87.0785 37.9272 85.8398 37.8946C86.2182 37.6144 86.5762 37.2879 86.9141 36.9155C87.0443 34.3044 87.0443 31.6931 86.9141 29.082C86.6082 28.5401 86.185 28.1484 85.6445 27.9069Z" fill="#4E9A5F"/>
<path fill-rule="evenodd" clip-rule="evenodd" d="M34.4722 63.941C46.9073 63.9083 59.3421 63.941 71.7769 64.0389C72.8069 64.4413 73.3277 65.1922 73.3394 66.291C73.3626 67.5836 72.7767 68.4648 71.5816 68.9348C59.3419 69.0655 47.1025 69.0655 34.8628 68.9348C33.1122 68.087 32.6239 66.7487 33.398 64.9202C33.7358 64.5477 34.0939 64.2212 34.4722 63.941Z" fill="#CEE4BD"/>
<path fill-rule="evenodd" clip-rule="evenodd" d="M21.7773 80.9789C19.3025 80.9462 16.8286 80.9789 14.3555 81.0768C11.6148 81.8985 9.92209 83.6938 9.27734 86.4623C9.27734 85.4179 9.27734 84.3733 9.27734 83.3289C9.95158 80.7084 11.5792 78.9786 14.1602 78.1392C16.6984 78.0413 19.2374 78.0086 21.7773 78.0413C21.7773 79.0205 21.7773 79.9997 21.7773 80.9789Z" fill="#3D8244"/>
<path opacity="0.97" fill-rule="evenodd" clip-rule="evenodd" d="M84.6684 78.2371C84.76 82.689 84.6623 87.1279 84.3754 91.554C83.8596 92.4635 83.1107 93.0837 82.1293 93.4145C80.6334 93.5124 79.136 93.5449 77.6371 93.5124C77.6047 92.4658 77.6373 91.4214 77.7348 90.379C78.9338 90.0915 79.7801 89.3736 80.2738 88.2248C80.3715 85.8103 80.4041 83.395 80.3715 80.9788C82.5246 81.1425 83.9568 80.2285 84.6684 78.2371Z" fill="#4E9A5F"/>
<path opacity="0.999" fill-rule="evenodd" clip-rule="evenodd" d="M21.7778 80.9788C21.8429 80.9788 21.9081 80.9788 21.9731 80.9788C21.9731 84.1122 21.9731 87.2456 21.9731 90.379C21.9731 91.4234 21.9731 92.468 21.9731 93.5124C21.9081 93.5124 21.8429 93.5124 21.7778 93.5124C21.7778 92.468 21.7778 91.4234 21.7778 90.379C17.9367 90.379 14.0955 90.379 10.2544 90.379C9.50509 89.2016 9.17958 87.8962 9.27782 86.4623C9.92257 83.6937 11.6153 81.8985 14.3559 81.0767C16.8291 80.9788 19.303 80.9461 21.7778 80.9788Z" fill="#3D8244"/>
<path fill-rule="evenodd" clip-rule="evenodd" d="M21.9727 80.9788C40.4623 80.9788 58.9518 80.9788 77.4414 80.9788C77.4414 84.1122 77.4414 87.2456 77.4414 90.379C64.5508 90.379 51.6602 90.379 38.7695 90.379C38.7695 89.0081 38.7695 87.6372 38.7695 86.2664C35.2879 86.0711 31.7723 86.0059 28.2227 86.0705C28.2227 87.5066 28.2227 88.9429 28.2227 90.379C26.1393 90.379 24.0561 90.379 21.9727 90.379C21.9727 87.2456 21.9727 84.1122 21.9727 80.9788Z" fill="#CEE4BD"/>
<path fill-rule="evenodd" clip-rule="evenodd" d="M77.4414 80.9788C78.418 80.9788 79.3945 80.9788 80.3711 80.9788C80.4037 83.395 80.3711 85.8103 80.2734 88.2247C79.7797 89.3735 78.9334 90.0915 77.7344 90.379C77.6369 91.4214 77.6043 92.4658 77.6367 93.5124C77.5717 93.5124 77.5064 93.5124 77.4414 93.5124C77.4414 92.468 77.4414 91.4234 77.4414 90.379C77.4414 87.2456 77.4414 84.1122 77.4414 80.9788Z" fill="#4E9A5F"/>
<path fill-rule="evenodd" clip-rule="evenodd" d="M38.77 86.2663C37.6632 86.2663 36.5565 86.2663 35.4497 86.2663C35.389 90.5184 35.454 94.7616 35.645 98.9958C34.9581 98.5534 34.2421 98.1617 33.4966 97.8208C32.1247 98.5076 30.8228 99.2909 29.5903 100.171C29.1997 100.171 28.8091 100.171 28.4185 100.171C28.2276 97.9672 28.1624 95.7476 28.2231 93.5123C28.2231 92.4679 28.2231 91.4233 28.2231 90.3789C28.2231 88.9429 28.2231 87.5066 28.2231 86.0705C31.7728 86.0059 35.2884 86.0711 38.77 86.2663Z" fill="#4E9A5F"/>
<path opacity="0.994" fill-rule="evenodd" clip-rule="evenodd" d="M38.7691 86.2664C38.7691 87.6372 38.7691 89.0081 38.7691 90.3789C38.7691 91.4233 38.7691 92.4679 38.7691 93.5123C38.8298 95.7476 38.7646 97.9673 38.5738 100.171C38.2482 100.171 37.9228 100.171 37.5972 100.171C37.0017 99.7081 36.3507 99.3164 35.6441 98.9958C35.4531 94.7616 35.388 90.5184 35.4488 86.2664C36.5556 86.2664 37.6622 86.2664 38.7691 86.2664Z" fill="#3D8244"/>
<path opacity="0.968" fill-rule="evenodd" clip-rule="evenodd" d="M10.2539 90.3789C14.0951 90.3789 17.9362 90.3789 21.7773 90.3789C21.7773 91.4233 21.7773 92.4679 21.7773 93.5123C19.0314 93.5963 16.297 93.4984 13.5742 93.2185C12.0594 92.7246 10.9526 91.778 10.2539 90.3789Z" fill="#3D8244"/>
<path opacity="0.978" fill-rule="evenodd" clip-rule="evenodd" d="M21.9727 90.3789C24.0561 90.3789 26.1393 90.3789 28.2227 90.3789C28.2227 91.4233 28.2227 92.4679 28.2227 93.5123C26.1393 93.5123 24.0561 93.5123 21.9727 93.5123C21.9727 92.4679 21.9727 91.4233 21.9727 90.3789Z" fill="#3D8244"/>
<path opacity="0.978" fill-rule="evenodd" clip-rule="evenodd" d="M38.7695 90.3789C51.6602 90.3789 64.5508 90.3789 77.4414 90.3789C77.4414 91.4233 77.4414 92.4679 77.4414 93.5123C64.5508 93.5123 51.6602 93.5123 38.7695 93.5123C38.7695 92.4679 38.7695 91.4233 38.7695 90.3789Z" fill="#3D8244"/>
</g>
<defs>
<clipPath id="clip0_2588_503">
<rect width="100" height="100.269" fill="white"/>
</clipPath>
</defs>
</svg>
