<svg width="76" height="112" viewBox="0 0 76 112" fill="none" xmlns="http://www.w3.org/2000/svg">
<path d="M48.7906 68.7442L45.9047 70.392L58.052 77.3126L15.0331 101.699L2.88582 95.1084L0 96.4266L26.8449 111.586L29.7307 109.938L17.1807 102.886L60.401 78.4989L72.7496 85.6832L75.6354 84.0354L48.7906 68.7442ZM12.8184 102.952L1.27513 96.3607L2.88582 95.4379L14.362 102.029L12.8184 102.952ZM28.4556 110.004L26.8449 110.927L14.966 104.336L16.5096 103.413L28.4556 110.004ZM58.7232 77.0489L46.9785 70.392L48.5221 69.4692L60.0654 76.0603L58.7232 77.0489ZM60.8708 78.3012L62.4815 77.3785L74.3603 83.9695L72.7496 84.8923L60.8708 78.3012Z" fill="#D4FCDC"/>
<path d="M72.7494 85.2226L46.5757 70.3928V69.7337L72.7494 84.6294L73.4877 84.4976L72.7494 85.2226Z" fill="#98E5AA"/>
<path d="M72.7494 84.6285L46.5757 69.7327L48.7904 68.4804L75.0312 83.3103L74.1588 84.2989L72.7494 84.6285Z" fill="#D4FCDC"/>
<path d="M72.7485 85.2217L75.0304 83.9694V83.3103L72.7485 84.6285V85.2217Z" fill="#98E5AA"/>
<path d="M59.1262 47.4551V76.8512L60.2671 77.5103V48.1143L60.1329 47.2574L59.1262 47.4551Z" fill="#98E5AA"/>
<path d="M60.2666 48.1151V77.5112L62.4813 76.2589V46.8628H60.8706L60.2666 48.1151Z" fill="#2E6B38"/>
<path d="M59.1262 47.4556L61.3409 46.2033L62.4818 46.8624L60.2671 48.1147L59.1262 47.4556Z" fill="#C7AE87"/>
<path d="M26.8456 111.323L0.671875 96.4272V95.834L26.8456 110.664L27.5167 110.532L26.8456 111.323Z" fill="#98E5AA"/>
<path d="M26.8456 110.664L0.671875 95.8341L2.88658 94.5159L29.0603 109.412L28.255 110.334L26.8456 110.664Z" fill="#D4FCDC"/>
<path d="M26.8447 111.323L29.0594 110.005V109.412L26.8447 110.664V111.323Z" fill="#98E5AA"/>
<path d="M13.1538 73.4907V102.953L14.2947 103.546V74.1498L14.1605 73.2929L13.1538 73.4907Z" fill="#98E5AA"/>
<path d="M14.2942 74.1495V103.546L16.5089 102.293V72.8972H14.8982L14.2942 74.1495Z" fill="#2E6B38"/>
<path d="M13.1538 73.49L15.4356 72.2377L16.5094 72.8968L14.2947 74.1491L13.1538 73.49Z" fill="#C7AE87"/>
<path d="M9.79834 29.9896V74.611L11.9459 75.8633V31.176L11.8788 30.5828L9.79834 29.9896Z" fill="#98E5AA"/>
<path d="M11.9446 31.1752V75.8625L64.829 45.8733V1.18597L15.5686 27.4183L11.9446 31.1752Z" fill="#2E6B38"/>
<path d="M63.5551 44.951L13.1538 73.4902V72.6993L62.8839 44.5555L63.5551 44.951Z" fill="#D4FCDC"/>
<path d="M62.8845 44.5555V3.82283L63.5556 3.42737V44.951L62.8845 44.5555Z" fill="#98E5AA"/>
<path d="M62.8839 3.82327V44.5559L13.1538 72.6997V32.033L62.8839 3.82327Z" fill="#08300D"/>
<path d="M9.79834 29.9893L62.6827 0L64.8303 1.18639L11.9459 31.1756L9.79834 29.9893Z" fill="#D4FCDC"/>
<path d="M60.4001 17.2026C60.4379 16.9623 60.4379 16.7178 60.4001 16.4775C60.3474 16.8051 60.3474 17.1387 60.4001 17.4662C60.3699 17.707 60.3699 17.9504 60.4001 18.1912H59.9974L59.4605 18.5867V17.8617C59.3584 17.6446 59.2226 17.4445 59.0579 17.2685C59.0002 17.5956 59.0002 17.93 59.0579 18.2571C59.0246 18.5638 59.0246 18.8732 59.0579 19.1799V19.7731C59.0579 19.7731 59.0579 19.7731 59.0579 20.1685C59.127 20.4021 59.2676 20.6092 59.4605 20.7617C59.5182 20.4346 59.5182 20.1002 59.4605 19.7731V19.7731H59.9974C59.9717 19.8815 59.9717 19.9942 59.9974 20.1026C59.9318 20.34 59.9318 20.5903 59.9974 20.8276C60.0205 20.4765 60.0205 20.1242 59.9974 19.7731C59.9974 19.7731 59.9974 19.3117 59.9974 19.114L60.4001 17.7957C60.4001 17.7957 60.4001 17.4003 60.4001 17.2026Z" fill="#98E5AA"/>
<path d="M57.1792 17.2691C57.0163 17.5867 56.8816 17.9175 56.7765 18.2578V19.1806V19.7737V19.2465L56.3067 18.6533C56.3358 18.523 56.3358 18.3881 56.3067 18.2578C56.3067 18.2578 56.3067 18.6533 56.3067 18.7851C56.3067 18.9169 56.3067 18.7851 56.3067 18.7851C56.2785 19.0921 56.2785 19.4009 56.3067 19.7078C56.2383 19.9895 56.2383 20.283 56.3067 20.5647C56.2691 20.827 56.2691 21.0933 56.3067 21.3556C56.4872 21.0461 56.6228 20.7133 56.7094 20.3669C56.7094 20.3669 56.7094 19.9056 56.7094 19.7737V20.1692L57.3134 20.5647C57.2724 20.2953 57.205 20.0304 57.112 19.7737V18.851C57.1453 18.5663 57.1453 18.2788 57.112 17.9942C57.1892 17.7604 57.2121 17.5127 57.1792 17.2691V17.2691Z" fill="#98E5AA"/>
<path d="M17.2468 40.0074C17.2468 40.0074 17.2468 40.6665 17.2468 40.996C17.3297 41.2707 17.4422 41.5358 17.5824 41.787C17.6464 41.394 17.6464 40.9935 17.5824 40.6006C17.615 40.4041 17.615 40.2038 17.5824 40.0074V40.0074L18.5891 39.546C18.7774 39.4002 18.9367 39.2214 19.0589 39.0187C18.9904 38.9704 18.9082 38.9445 18.824 38.9445C18.7397 38.9445 18.6575 38.9704 18.5891 39.0187H18.1193C18.1193 39.0187 18.1193 38.6233 18.1193 38.4255C18.0364 38.1509 17.9239 37.8857 17.7837 37.6346C17.7197 38.0276 17.7197 38.428 17.7837 38.821C17.7505 39.1497 17.7505 39.4809 17.7837 39.8096L17.2468 40.0074Z" fill="#98E5AA"/>
<path d="M23.2885 35.7232H21.3423C20.8725 36.3823 20.4698 37.1073 20 37.8323C19.9686 37.7023 19.9686 37.5669 20 37.4368C20.0289 37.174 20.0289 36.9088 20 36.6459C19.9062 37.0137 19.9062 37.3986 20 37.7664C19.9627 38.0729 19.9627 38.3827 20 38.6891C19.9628 38.9736 19.9628 39.2615 20 39.546C19.9065 39.7789 19.9065 40.038 20 40.271C20.0305 39.9201 20.0305 39.5673 20 39.2164C20.031 38.9096 20.031 38.6005 20 38.2937V38.2937H20.1342V38.8869L20.5369 39.546L22.0805 38.6891L22.5503 37.7664L22.9529 36.9096L23.2885 35.7232ZM22.7516 37.4368L22.3489 38.096L21.1409 38.6891V38.1619V37.7005L22.0805 35.9868H22.6174H23.2885C23.3146 36.2278 23.3146 36.4708 23.2885 36.7118L22.7516 37.4368Z" fill="#98E5AA"/>
<path d="M18.3896 57.21H17.9198C17.9524 57.0136 17.9524 56.8133 17.9198 56.6168C17.9578 56.3324 17.9578 56.0444 17.9198 55.76C17.861 56.1533 17.861 56.553 17.9198 56.9464C17.8866 57.2751 17.8866 57.6063 17.9198 57.935V57.935C17.9198 58.2646 17.9198 58.5941 17.9198 58.8578C17.8706 59.1192 17.8706 59.3873 17.9198 59.6487C17.9436 59.2756 17.9436 58.9013 17.9198 58.5282V57.8691C18.1012 57.7982 18.2624 57.6851 18.3896 57.5396C18.5781 57.3684 18.7368 57.168 18.8594 56.9464L18.3896 57.21Z" fill="#98E5AA"/>
<path d="M23.087 53.9801V53.6505V54.046H21.1407L19.7985 56.1551C19.7709 56.0025 19.7709 55.8463 19.7985 55.6937C19.8363 55.4535 19.8363 55.209 19.7985 54.9687C19.7442 55.3182 19.7442 55.6738 19.7985 56.0233C19.7703 56.3302 19.7703 56.6391 19.7985 56.946C19.7613 57.2305 19.7613 57.5184 19.7985 57.8029C19.7202 58.0609 19.7202 58.3358 19.7985 58.5938C19.8216 58.2426 19.8216 57.8904 19.7985 57.5392C19.8317 57.2105 19.8317 56.8793 19.7985 56.5506L20.1341 57.2097L20.6038 57.8688L22.1474 57.0119L22.6172 56.1551L23.0199 55.2324C23.0076 54.8138 23.03 54.395 23.087 53.9801V53.9801ZM22.5501 55.6937L22.1474 56.3528L20.9394 57.0119V56.4847L20.1341 55.9574C20.4696 55.4301 20.7381 54.8369 21.0736 54.2437H21.4092H21.9461H22.6172V54.6392C22.655 54.8794 22.655 55.1239 22.6172 55.3642L22.5501 55.6937Z" fill="#98E5AA"/>
<path d="M38.5888 31.5048H39.8639H41.2062C40.911 31.3179 40.5959 31.1632 40.2666 31.0434L39.1257 30.582H37.8505H36.5083C36.8105 30.8654 37.1489 31.1091 37.515 31.307L38.5888 31.5048Z" fill="#98E5AA"/>
<path d="M30.0005 45.0829C30.0005 44.4238 30.0005 43.7647 30.0005 43.1715C30.0341 42.5788 30.0341 41.9846 30.0005 41.3919C30.1098 40.7819 30.177 40.1653 30.2018 39.5464C30.2341 39.0196 30.2341 38.4914 30.2018 37.9646C30.139 38.6002 30.139 39.2403 30.2018 39.876C30.1684 40.4687 30.1684 41.0628 30.2018 41.6556C30.2018 42.1828 30.2018 42.776 30.2018 43.3033C30.0937 43.8913 30.0265 44.4859 30.0005 45.0829V45.0829Z" fill="#98E5AA"/>
<path d="M40.2658 40.8644C39.8632 41.2599 39.5276 41.7213 39.1249 42.1827C38.7351 42.6193 38.3763 43.0817 38.0511 43.5668C37.699 44.0478 37.3849 44.5546 37.1116 45.0827L38.3196 43.9622C38.7223 43.5009 39.1249 43.1054 39.4605 42.644L40.2658 41.2599L41.2054 39.5462C40.8572 39.9605 40.543 40.4013 40.2658 40.8644V40.8644Z" fill="#98E5AA"/>
<path d="M57.3146 28.4735C57.3146 27.6826 57.3146 26.9576 57.3146 26.2325C57.3146 25.5075 57.3146 24.7825 57.3146 23.9916C57.3146 23.2007 57.3146 22.5416 57.3146 21.8165C57.3146 22.6075 57.3146 23.3984 57.3146 24.1893C57.3146 24.9802 57.3146 25.7053 57.3146 26.4303C57.3146 27.1553 57.3146 28.0121 57.3146 28.7371C57.3146 29.4622 57.3146 30.1213 57.3146 30.7804L55.0327 32.9554L53.2207 35.0645L51.4087 37.2396L49.798 39.2169H43.0868V34.01V31.1758V28.3417H40.2009H37.248L35.2346 31.044L32.6173 32.9554L30.6039 35.6577L28.5905 38.3601C29.3288 37.5032 29.9999 36.5805 30.671 35.7237L32.7515 32.9554C33.4226 32.0986 34.1608 31.2417 34.832 30.319L36.7111 27.8803H39.4627L42.2143 28.2758V30.9122V33.8122V38.5578H41.8787H42.617V39.5465L39.06 43.7647L35.5031 48.1148L32.2146 47.4557L28.7919 46.7966C28.7919 45.3466 28.7919 43.9625 28.7919 42.5124C28.7919 44.0284 28.7919 45.5443 28.7919 46.9943C28.0536 47.7853 27.3825 48.6421 26.6443 49.5648C25.9061 50.4876 24.8323 51.8717 24.1611 52.7285C25.1072 51.9016 26.0036 51.0213 26.8456 50.0921C27.5167 49.2353 28.1879 48.3125 28.7919 47.3898L32.1475 48.2466L35.5702 49.0376L39.3285 44.5557L43.0868 40.0737V39.5465H45.4357H47.6504H49.5967L51.4087 37.4373L53.6905 35.3941L55.3683 32.9554L57.1803 30.7804C57.3146 29.9235 57.3146 29.1985 57.3146 28.4735Z" fill="#98E5AA"/>
<path d="M24.3616 37.8327C25.076 37.8974 25.7948 37.8974 26.5092 37.8327C27.2011 37.899 27.8977 37.899 28.5896 37.8327C28.0071 37.8061 27.4235 37.8286 26.8447 37.8996C26.022 37.7867 25.1892 37.7642 24.3616 37.8327Z" fill="#98E5AA"/>
</svg>
