<svg width="100" height="100" viewBox="0 0 100 100" fill="none" xmlns="http://www.w3.org/2000/svg">
<path opacity="0.993" fill-rule="evenodd" clip-rule="evenodd" d="M65.1372 1.46484C50.8142 1.43229 36.4913 1.46484 22.1685 1.5625C17.3978 2.36887 14.5005 5.1358 13.4771 9.86328C13.3468 36.5561 13.3468 63.2486 13.4771 89.9414C14.5005 94.669 17.3978 97.4358 22.1685 98.2422C40.7882 98.3725 59.4081 98.3725 78.0278 98.2422C82.7986 97.4358 85.6957 94.669 86.7192 89.9414C86.8169 67.741 86.8495 45.5404 86.8169 23.3398C82.4862 23.4045 78.1894 23.3393 73.9263 23.1445C68.9716 22.2588 66.0743 19.3291 65.2349 14.3555C65.1372 10.1893 65.1046 6.02264 65.1372 1.85547C65.1372 1.72526 65.1372 1.59505 65.1372 1.46484Z" fill="#C2C1EF"/>
<path fill-rule="evenodd" clip-rule="evenodd" d="M65.1367 1.85547C65.1041 6.02264 65.1367 10.1893 65.2344 14.3555C66.0738 19.3291 68.9711 22.2588 73.9258 23.1445C78.093 23.1771 82.2596 23.1445 86.4258 23.0469C79.3553 15.9437 72.2588 8.87992 65.1367 1.85547Z" fill="#363F92"/>
<path fill-rule="evenodd" clip-rule="evenodd" d="M50.6833 9.86328C44.2376 9.83074 37.7923 9.86328 31.3473 9.96093C30.1673 10.515 29.8743 11.3939 30.4684 12.5977C30.6448 12.8323 30.8725 12.9951 31.152 13.0859C37.7276 13.2161 44.303 13.2161 50.8786 13.0859C51.7161 12.3494 51.8788 11.4705 51.3669 10.4492C51.1432 10.2273 50.9153 10.0319 50.6833 9.86328Z" fill="#4B7DBE"/>
<path fill-rule="evenodd" clip-rule="evenodd" d="M25.6833 9.86324C24.2495 9.83076 22.8173 9.8633 21.3864 9.9609C20.2936 10.4207 19.9356 11.2345 20.3122 12.4023C20.5493 12.7048 20.8423 12.9327 21.1911 13.0859C22.7536 13.2161 24.3161 13.2161 25.8786 13.0859C26.7161 12.3493 26.8788 11.4704 26.3669 10.4492C26.1432 10.2272 25.9153 10.0319 25.6833 9.86324Z" fill="#4B7DBE"/>
<path fill-rule="evenodd" clip-rule="evenodd" d="M50.6834 18.2617C40.8525 18.2292 31.0217 18.2617 21.1912 18.3594C20.1682 18.9988 19.9404 19.8777 20.5076 20.9961C20.7363 21.2682 21.0293 21.4311 21.3865 21.4844C31.1521 21.6147 40.9178 21.6147 50.6834 21.4844C51.5926 20.9186 51.8855 20.1049 51.5623 19.043C51.2894 18.7363 50.9965 18.4759 50.6834 18.2617Z" fill="#4B7DBE"/>
<path fill-rule="evenodd" clip-rule="evenodd" d="M20.02 40.3318C20.3085 40.7824 20.6991 41.1404 21.1919 41.406C21.9052 41.5035 22.6212 41.5359 23.3403 41.5037C41.1788 41.5037 59.0175 41.5037 76.8559 41.5037C77.6399 41.5361 78.4212 41.5035 79.1997 41.406C79.5712 41.0681 79.8967 40.7101 80.1762 40.3318C80.2089 37.6617 80.1762 34.9925 80.0786 32.324C79.6403 30.5183 78.5661 29.2488 76.8559 28.5154C68.0456 28.289 59.2239 28.1914 50.3911 28.2224C41.7647 28.255 33.1385 28.2875 24.5122 28.3201C22.1813 28.6976 20.7165 30.0322 20.1177 32.324C20.02 34.9925 19.9874 37.6617 20.02 40.3318Z" fill="#4B7DBE"/>
<path fill-rule="evenodd" clip-rule="evenodd" d="M23.5352 32.7149C23.5352 34.5377 23.5352 36.3608 23.5352 38.1836C41.2436 38.1836 58.9518 38.1836 76.6602 38.1836C76.6602 36.3608 76.6602 34.5377 76.6602 32.7149C76.5129 32.2088 76.1873 31.8508 75.6836 31.6407C58.6264 31.5104 41.5689 31.5104 24.5117 31.6407C24.008 31.8508 23.6824 32.2088 23.5352 32.7149Z" fill="#C2C1EF"/>
<path fill-rule="evenodd" clip-rule="evenodd" d="M76.6599 32.7148C76.6599 34.5377 76.6599 36.3607 76.6599 38.1836C58.9515 38.1836 41.2433 38.1836 23.5349 38.1836C23.5349 36.3607 23.5349 34.5377 23.5349 32.7148C23.3407 34.5676 23.2757 36.4555 23.3396 38.3789C41.178 38.3789 59.0167 38.3789 76.8552 38.3789C76.919 36.4555 76.854 34.5676 76.6599 32.7148Z" fill="#4B7DBE"/>
<path fill-rule="evenodd" clip-rule="evenodd" d="M80.1762 40.332C79.8967 40.7104 79.5712 41.0684 79.1997 41.4063C78.4212 41.5037 77.6399 41.5363 76.8559 41.5039C76.8559 41.5689 76.8559 41.6342 76.8559 41.6992C76.8559 43.9127 76.8559 46.1264 76.8559 48.3398C71.8093 48.4045 66.7964 48.3395 61.8169 48.1445C61.8169 45.9961 61.8169 43.8477 61.8169 41.6992C60.71 41.6992 59.6034 41.6992 58.4966 41.6992C58.4966 43.9127 58.4966 46.1264 58.4966 48.3398C52.8975 48.3398 47.2987 48.3398 41.6997 48.3398C41.6997 46.1264 41.6997 43.9127 41.6997 41.6992C40.5928 41.6992 39.4862 41.6992 38.3794 41.6992C38.3794 43.8477 38.3794 45.9961 38.3794 48.1445C33.3999 48.3395 28.387 48.4045 23.3403 48.3398C23.3403 46.1264 23.3403 43.9127 23.3403 41.6992C23.3403 41.6342 23.3403 41.5689 23.3403 41.5039C22.6212 41.5361 21.9052 41.5037 21.1919 41.4063C20.6991 41.1406 20.3085 40.7826 20.02 40.332C19.9874 52.6369 20.02 64.9416 20.1177 77.2461C20.5665 79.3879 21.836 80.7875 23.9262 81.4453C41.3741 81.5756 58.8221 81.5756 76.27 81.4453C78.3602 80.7875 79.6298 79.3879 80.0786 77.2461C80.1762 64.9416 80.2089 52.6369 80.1762 40.332Z" fill="#363F92"/>
<path fill-rule="evenodd" clip-rule="evenodd" d="M76.6602 41.6992C71.7123 41.6992 66.7643 41.6992 61.8164 41.6992C61.8164 43.8477 61.8164 45.9961 61.8164 48.1445C66.7643 48.1445 71.7123 48.1445 76.6602 48.1445C76.6602 45.9961 76.6602 43.8477 76.6602 41.6992Z" fill="#C2C1EF"/>
<path fill-rule="evenodd" clip-rule="evenodd" d="M38.3789 41.6992C33.4311 41.6992 28.483 41.6992 23.5352 41.6992C23.5352 43.8477 23.5352 45.9961 23.5352 48.1445C28.483 48.1445 33.4311 48.1445 38.3789 48.1445C38.3789 45.9961 38.3789 43.8477 38.3789 41.6992Z" fill="#C2C1EF"/>
<path fill-rule="evenodd" clip-rule="evenodd" d="M58.3008 41.6992C52.832 41.6992 47.3633 41.6992 41.8945 41.6992C41.8945 43.8477 41.8945 45.9961 41.8945 48.1445C47.3633 48.1445 52.832 48.1445 58.3008 48.1445C58.3008 45.9961 58.3008 43.8477 58.3008 41.6992Z" fill="#C2C1EF"/>
<path fill-rule="evenodd" clip-rule="evenodd" d="M61.8164 51.6602C61.8164 53.8086 61.8164 55.957 61.8164 58.1055C66.7643 58.1055 71.7123 58.1055 76.6602 58.1055C76.6602 55.957 76.6602 53.8086 76.6602 51.6602C71.7123 51.6602 66.7643 51.6602 61.8164 51.6602Z" fill="#C2C1EF"/>
<path fill-rule="evenodd" clip-rule="evenodd" d="M38.3789 51.6602C33.4311 51.6602 28.483 51.6602 23.5352 51.6602C23.5352 53.8086 23.5352 55.957 23.5352 58.1055C28.483 58.1055 33.4311 58.1055 38.3789 58.1055C38.3789 55.957 38.3789 53.8086 38.3789 51.6602Z" fill="#C2C1EF"/>
<path fill-rule="evenodd" clip-rule="evenodd" d="M58.3008 51.6602C52.832 51.6602 47.3633 51.6602 41.8945 51.6602C41.8945 53.8086 41.8945 55.957 41.8945 58.1055C47.3633 58.1055 52.832 58.1055 58.3008 58.1055C58.3008 55.957 58.3008 53.8086 58.3008 51.6602Z" fill="#C2C1EF"/>
<path fill-rule="evenodd" clip-rule="evenodd" d="M76.8555 61.6211C71.8424 61.6211 66.8295 61.6211 61.8164 61.6211C61.8164 63.8346 61.8164 66.0482 61.8164 68.2617C66.8295 68.2617 71.8424 68.2617 76.8555 68.2617C76.8555 66.0482 76.8555 63.8346 76.8555 61.6211Z" fill="#C2C1EF"/>
<path fill-rule="evenodd" clip-rule="evenodd" d="M38.3789 61.6211C33.3658 61.6211 28.3529 61.6211 23.3398 61.6211C23.3398 63.8346 23.3398 66.0482 23.3398 68.2617C28.3529 68.2617 33.3658 68.2617 38.3789 68.2617C38.3789 66.0482 38.3789 63.8346 38.3789 61.6211Z" fill="#C2C1EF"/>
<path fill-rule="evenodd" clip-rule="evenodd" d="M58.3008 61.6211C52.832 61.6211 47.3633 61.6211 41.8945 61.6211C41.8945 63.7695 41.8945 65.918 41.8945 68.0664C47.3633 68.0664 52.832 68.0664 58.3008 68.0664C58.3008 65.918 58.3008 63.7695 58.3008 61.6211Z" fill="#C2C1EF"/>
<path fill-rule="evenodd" clip-rule="evenodd" d="M76.855 71.582C71.842 71.582 66.8291 71.582 61.816 71.582C61.816 73.7955 61.816 76.0092 61.816 78.2227C66.4388 78.2553 71.0613 78.2227 75.6832 78.125C76.1714 77.8971 76.5294 77.5391 76.7574 77.0508C76.855 75.2291 76.8875 73.4061 76.855 71.582Z" fill="#C2C1EF"/>
<path fill-rule="evenodd" clip-rule="evenodd" d="M58.4961 71.582C52.8971 71.582 47.2982 71.582 41.6992 71.582C41.6992 73.7955 41.6992 76.0092 41.6992 78.2227C47.2982 78.2227 52.8971 78.2227 58.4961 78.2227C58.4961 76.0092 58.4961 73.7955 58.4961 71.582Z" fill="#C2C1EF"/>
<path fill-rule="evenodd" clip-rule="evenodd" d="M38.3789 71.582C33.3658 71.582 28.3529 71.582 23.3398 71.582C23.3074 73.341 23.3398 75.0988 23.4375 76.8555C23.5922 77.2631 23.8201 77.6213 24.1211 77.9297C28.8609 78.217 33.6135 78.3147 38.3789 78.2227C38.3789 76.0092 38.3789 73.7955 38.3789 71.582Z" fill="#C2C1EF"/>
<path fill-rule="evenodd" clip-rule="evenodd" d="M57.3245 88.1835C55.8907 88.1511 54.4585 88.1835 53.0276 88.2812C51.9349 88.741 51.5769 89.5548 51.9534 90.7226C52.1905 91.0251 52.4835 91.2529 52.8323 91.4062C54.3948 91.5365 55.9573 91.5365 57.5198 91.4062C58.8536 90.2349 58.7886 89.1607 57.3245 88.1835Z" fill="#4B7DBE"/>
<path fill-rule="evenodd" clip-rule="evenodd" d="M47.363 88.1835C45.9292 88.1511 44.497 88.1835 43.0661 88.2812C41.4145 89.1193 41.2843 90.1611 42.6755 91.4062C44.303 91.5365 45.9307 91.5365 47.5583 91.4062C48.3958 90.6697 48.5585 89.7908 48.0466 88.7695C47.7501 88.64 47.5221 88.4447 47.363 88.1835Z" fill="#4B7DBE"/>
<path fill-rule="evenodd" clip-rule="evenodd" d="M37.2067 88.1834C35.6276 88.105 34.0651 88.2027 32.5192 88.4763C31.4544 89.531 31.5194 90.5076 32.7145 91.406C34.277 91.5363 35.8395 91.5363 37.402 91.406C38.2944 90.9097 38.5874 90.1609 38.2809 89.1599C37.943 88.7884 37.585 88.4629 37.2067 88.1834Z" fill="#4B7DBE"/>
<path fill-rule="evenodd" clip-rule="evenodd" d="M27.2459 88.1835C25.6618 88.0985 24.0993 88.1961 22.5584 88.4764C21.7155 89.1376 21.5526 89.9514 22.0702 90.9178C22.2465 91.1524 22.4743 91.3153 22.7538 91.4061C24.4666 91.5897 26.1592 91.5247 27.8319 91.2108C28.759 89.968 28.5637 88.9588 27.2459 88.1835Z" fill="#4B7DBE"/>
</svg>
