<svg xmlns="http://www.w3.org/2000/svg" width="41" height="41" viewBox="0 0 41 41" fill="red">
<path d="M20.7335 0.0839844C9.74681 0.0839844 0.849976 9.23065 0.849976 20.5006C0.849976 31.7706 9.74681 40.9173 20.7335 40.9173C31.7401 40.9173 40.6569 31.7706 40.6569 20.5006C40.6569 9.23065 31.7401 0.0839844 20.7335 0.0839844ZM29.1726 32.7506L20.7534 27.5444L12.3343 32.7506L14.5634 22.9302L7.13946 16.3356L16.932 15.4781L20.7534 6.20898L24.5749 15.4577L34.3674 16.3152L26.9434 22.9098L29.1726 32.7506Z" fill="#F9C723"></path><path d="M20.7335 27.5444L12.3343 32.7506L14.5634 22.9302L7.13946 16.3356L16.932 15.4781L20.7534 6.20898L24.5749 15.4577L34.3674 16.3152L26.9434 22.9098L29.1726 32.7506Z" fill="#fff"></path>
</svg>