<svg width="92" height="116" viewBox="0 0 92 116" fill="none" xmlns="http://www.w3.org/2000/svg">
<g filter="url(#filter0_d_877:211)">
<path d="M79.188 96.4284L85.4199 92.7551V93.7569L79.188 97.3635V96.4284Z" fill="white"/>
<path d="M79.188 97.364L85.4199 93.7575V98.2323L79.188 101.839V97.364Z" fill="#A81D05"/>
<path d="M16.2799 17.6866L22.4462 14.0132L22.315 61.1655L16.1487 64.772L16.2799 17.6866Z" fill="#0F303F"/>
<path d="M16.1487 59.3621L22.315 55.6888V56.6906L16.1487 60.2971V59.3621Z" fill="#C12106"/>
<path d="M67.315 83.1378C67.4354 83.8667 67.7012 84.5628 68.0961 85.1831C68.491 85.8034 69.0065 86.3347 69.6109 86.7443L63.4446 90.3508C62.8395 89.9578 62.3223 89.4395 61.9268 88.8297C61.5312 88.2198 61.2661 87.5321 61.1487 86.8111L67.315 83.1378Z" fill="#A81D05"/>
<path d="M67.315 82.6045V83.1388L61.1487 86.8121C61.1487 86.8121 61.1487 86.4114 61.1487 86.2778L63.4446 84.942H63.8382L67.315 82.6045Z" fill="white"/>
<path d="M67.3164 81.8691V82.3367L61.8061 85.5425L61.0845 86.01C61.0845 86.01 61.0845 85.6761 61.0845 85.5425L67.3164 81.8691Z" fill="white"/>
<path d="M69.6127 86.7445C69.874 86.8907 70.1673 86.9673 70.4655 86.9673C70.7636 86.9673 71.0569 86.8907 71.3183 86.7445L64.7584 90.4178C64.5114 90.5713 64.2277 90.6524 63.9384 90.6524C63.6491 90.6524 63.3654 90.5713 63.1184 90.4178L69.6127 86.7445Z" fill="#A81D05"/>
<path d="M61.1495 85.809C61.1495 85.809 61.1495 85.809 61.1495 86.2765C61.1495 86.744 61.1495 86.6104 61.1495 86.8108L48.0297 78.863L16.1487 60.296V59.361L47.7017 77.8612L61.1495 85.809Z" fill="white"/>
<path d="M47.7021 77.8625L53.8684 74.256L67.3162 82.137L61.1499 85.8103L47.7021 77.8625Z" fill="#6BB579"/>
<path d="M61.8057 84.7409L67.972 81.0676C68.2289 80.9083 68.5239 80.8241 68.8247 80.8241C69.1256 80.8241 69.4206 80.9083 69.6775 81.0676L63.1176 84.6741C62.9062 84.5926 62.6806 84.5564 62.4548 84.5679C62.229 84.5794 62.008 84.6383 61.8057 84.7409Z" fill="white"/>
<path d="M65.4795 88.548L78.9273 96.4957V97.4976L65.4795 89.483C65.4795 89.483 65.4795 89.1491 65.4795 89.0155C65.4795 88.8819 65.4795 88.548 65.4795 88.548Z" fill="#6BB579"/>
<path d="M65.7415 88.481L71.9077 84.8744L85.4211 92.7554L79.1892 96.4287L65.7415 88.481Z" fill="white"/>
<path d="M79.3192 54.7527L85.5511 51.0793L85.4199 92.755L79.188 96.4283L79.3192 54.7527Z" fill="#A81D05"/>
<path d="M79.1892 96.4292L66.5942 89.0158L65.7415 89.4833L79.1892 97.3643L85.4211 93.7577L84.5683 93.2234L79.1892 96.4292Z" fill="#6BB579"/>
<path d="M65.4786 89.4826C65.4587 89.7005 65.389 89.9106 65.2751 90.0961C65.1612 90.2817 65.0062 90.4375 64.8226 90.5512L66.069 89.8165L65.4786 89.4826ZM66.9218 89.4826L71.0545 87.0114C71.3218 86.9419 71.5608 86.7882 71.7375 86.5724C71.9141 86.3566 72.0195 86.0895 72.0385 85.8092C72.0747 85.6556 72.0747 85.4954 72.0385 85.3417V84.8742C71.9181 84.1453 71.6522 83.4491 71.2573 82.8288C70.8625 82.2085 70.3469 81.6772 69.7425 81.2677L63.1826 84.8742C63.7917 85.2941 64.3096 85.8368 64.7046 86.4686C65.0995 87.1004 65.3629 87.808 65.4786 88.5476L66.9218 89.4826Z" fill="white"/>
<path d="M63.4446 84.8744H63.051L61.1487 86.0098C61.1487 86.0098 61.1487 86.0098 61.1487 86.4773C61.1487 86.9448 61.1487 86.8113 61.1487 87.0116C61.2661 87.7326 61.5312 88.4204 61.9268 89.0302C62.3223 89.6401 62.8395 90.1583 63.4446 90.5514C64.5598 91.2861 65.5438 90.5514 65.7406 89.6832C65.9374 88.8149 65.7406 89.3492 65.7406 89.2156C65.7406 89.0821 65.4782 88.5478 65.4782 88.5478C65.3945 87.829 65.1716 87.1343 64.8226 86.5038C64.4735 85.8733 64.0052 85.3195 63.4446 84.8744Z" fill="#6BB579"/>
<path d="M63.4459 84.8745H63.0523L61.1499 86.0099L48.4893 78.3961L47.7021 78.8636L61.1499 86.8113L63.8395 85.2084L63.4459 84.8745Z" fill="#6BB579"/>
<path d="M66.7922 81.8689L67.4482 81.4681L66.7922 81.8689Z" fill="#A81D05"/>
<path d="M63.4459 90.3516C64.561 91.0863 65.545 90.3516 65.7418 89.4834L79.1896 97.4311V101.906L47.7021 83.4057V78.9309L61.1499 86.8786C61.2759 87.5877 61.545 88.2625 61.9402 88.8603C62.3353 89.458 62.8481 89.9659 63.4459 90.3516Z" fill="#A8B58A"/>
<path d="M78.9924 98.2318L65.8726 90.6179L64.6262 91.3526C64.3792 91.506 64.0955 91.5872 63.8062 91.5872C63.5169 91.5872 63.2332 91.506 62.9862 91.3526C62.3811 90.9596 61.8639 90.4413 61.4684 89.8314C61.0728 89.2216 60.8077 88.5338 60.6903 87.8128L47.5705 79.8651L19.9534 62.567L16.1487 64.771L79.1891 101.905L85.421 98.2985L81.6163 96.0278L78.9924 98.2318ZM47.7017 77.8615L49.2761 76.9932L22.315 61.1645L20.7406 61.8324L47.7017 77.8615Z" fill="#D4FCDC"/>
<path d="M16.1487 60.2966L22.315 56.6901L53.868 75.1903L47.7017 78.8636L16.1487 60.2966Z" fill="#6BB579"/>
<path d="M16.1487 59.3621L22.315 55.6888L53.868 74.2558L47.7017 77.8623L16.1487 59.3621Z" fill="white"/>
<path d="M40.8145 65.039L46.9807 61.3657L53.9342 60.7646L47.7023 64.438L40.8145 65.039Z" fill="#C12106"/>
<path d="M47.7021 64.438L53.934 60.7646L53.8684 74.2558L47.7021 77.8623V64.438Z" fill="#EAF9B7"/>
<path d="M40.8801 46.4042L47.0463 42.7309L46.9807 61.3647L40.8145 65.038L40.8801 46.4042Z" fill="#C12106"/>
<path d="M40.8796 46.4042L47.0459 42.7309L53.9338 51.4801L47.7675 55.0866L40.8796 46.4042Z" fill="white"/>
<path d="M47.7021 64.4376L53.934 60.7642L60.8219 60.1631L54.6556 63.8365L47.7021 64.4376Z" fill="#A81D05"/>
<path d="M40.8801 46.4045L47.7679 55.0869L54.6558 63.8361L47.7023 64.4372L40.8145 65.0383L40.8801 46.4045Z" fill="#6BB579"/>
<path d="M47.7664 55.0871L53.9326 51.4806L60.8205 60.163L54.6542 63.8363L47.7664 55.0871Z" fill="white"/>
<path d="M16.2798 17.6866L22.4461 14.0132L53.9991 32.5803L47.8328 36.1868L16.2798 17.6866Z" fill="#C12106"/>
<path d="M47.8329 36.1857L47.7673 55.0867L40.8794 46.4043L40.8138 65.0381L47.7017 64.437V77.8613L16.1487 59.3611V60.2961L47.7017 78.8632V83.338L16.1487 64.7709L16.2799 17.6855L47.8329 36.1857Z" fill="#D4FCDC"/>
<path d="M47.832 36.1868L53.9982 32.5803L53.9326 51.4812L47.7664 55.0878L47.832 36.1868Z" fill="#EAF9B7"/>
<path d="M47.832 36.1859L79.3194 54.7529V96.4286L65.478 88.5476C65.354 87.8199 65.0866 87.1252 64.6921 86.5054C64.2975 85.8856 63.7839 85.3535 63.1821 84.9411C62.0669 84.2732 61.0829 84.9411 60.8861 85.8761L47.7664 77.9283V64.5708L54.6542 63.8361L47.7664 55.1537L47.832 36.1859Z" fill="#D4FCDC"/>
<path d="M47.8333 36.1868L53.9995 32.5803L85.5526 51.0805L79.3207 54.7538L47.8333 36.1868Z" fill="#A81D05"/>
<path d="M13.1318 12.0759L19.3637 8.4026L88.7017 49.1432L82.4698 52.8165L13.1318 12.0759Z" fill="#D4FCDC"/>
<path d="M13 12.0761L82.338 52.8167V107.449L13 66.7086V12.0761ZM79.1892 96.4292V54.7535L47.833 36.1865L16.2799 17.6863V64.7717L79.1892 101.906V96.496V96.4292Z" fill="#6BB579"/>
<path d="M82.4679 52.8169L88.6998 49.1436L88.503 103.843L82.3367 107.449L82.4679 52.8169Z" fill="#2E6B38"/>
</g>
<defs>
<filter id="filter0_d_877:211" x="0" y="0.402603" width="91.7017" height="115.047" filterUnits="userSpaceOnUse" color-interpolation-filters="sRGB">
<feFlood flood-opacity="0" result="BackgroundImageFix"/>
<feColorMatrix in="SourceAlpha" type="matrix" values="0 0 0 0 0 0 0 0 0 0 0 0 0 0 0 0 0 0 127 0" result="hardAlpha"/>
<feOffset dx="-5"/>
<feGaussianBlur stdDeviation="4"/>
<feComposite in2="hardAlpha" operator="out"/>
<feColorMatrix type="matrix" values="0 0 0 0 0 0 0 0 0 0 0 0 0 0 0 0 0 0 0.25 0"/>
<feBlend mode="normal" in2="BackgroundImageFix" result="effect1_dropShadow_877:211"/>
<feBlend mode="normal" in="SourceGraphic" in2="effect1_dropShadow_877:211" result="shape"/>
</filter>
</defs>
</svg>
