<svg width="100" height="100" viewBox="0 0 100 100" fill="none" xmlns="http://www.w3.org/2000/svg">
<g clip-path="url(#clip0_2588_4056)">
<path opacity="0.99" fill-rule="evenodd" clip-rule="evenodd" d="M26.4654 -0.097168C27.3116 -0.097168 28.1581 -0.097168 29.0044 -0.097168C30.315 0.46308 31.1939 1.43483 31.6411 2.81809C31.7388 5.66783 31.7714 8.51829 31.7388 11.3695C31.7712 12.9257 31.7388 14.4805 31.6411 16.0339C30.5751 18.9367 28.5894 19.8113 25.6841 18.6576C24.8113 18.0509 24.2579 17.2412 24.024 16.2283C23.9906 14.5743 23.8929 12.9547 23.731 11.3695C23.6984 8.64782 23.731 5.92692 23.8286 3.20679C24.0986 1.61153 24.9775 0.510212 26.4654 -0.097168Z" fill="#88B367"/>
<path opacity="0.993" fill-rule="evenodd" clip-rule="evenodd" d="M48.5356 -0.097168C49.4471 -0.097168 50.3584 -0.097168 51.27 -0.097168C52.5213 0.403891 53.3352 1.31086 53.7114 2.62374C53.809 5.53827 53.8416 8.45353 53.809 11.3695C53.8414 12.9904 53.809 14.61 53.7114 16.2283C52.8061 18.6068 51.0809 19.5462 48.5356 19.0463C47.5264 18.5605 46.7778 17.8155 46.2895 16.8113C46.0127 15.0132 45.9151 13.1992 45.9965 11.3695C45.9639 8.45353 45.9965 5.53827 46.0942 2.62374C46.4704 1.31086 47.2842 0.403891 48.5356 -0.097168Z" fill="#88B367"/>
<path opacity="0.993" fill-rule="evenodd" clip-rule="evenodd" d="M70.5473 -0.492615C71.4588 -0.492615 72.3702 -0.492615 73.2817 -0.492615C74.5331 0.00844381 75.3469 0.915413 75.7231 2.22829C75.8208 5.14283 75.8534 8.05808 75.8208 10.9741C75.8532 12.5949 75.8208 14.2145 75.7231 15.8328C74.8178 18.2113 73.0926 19.1508 70.5473 18.6509C69.5381 18.165 68.7895 17.42 68.3012 16.4159C68.0245 14.6177 67.9268 12.8038 68.0082 10.9741C67.9756 8.05808 68.0082 5.14283 68.1059 2.22829C68.4821 0.915413 69.2959 0.00844381 70.5473 -0.492615Z" fill="#88B367"/>
<path opacity="0.997" fill-rule="evenodd" clip-rule="evenodd" d="M23.7305 11.3695C23.8924 12.9547 23.99 14.5743 24.0234 16.2283C24.2574 17.2412 24.8107 18.0509 25.6836 18.6576C28.5889 19.8113 30.5746 18.9367 31.6406 16.0339C31.7383 14.4804 31.7707 12.9256 31.7383 11.3695C36.4908 11.3695 41.2436 11.3695 45.9961 11.3695C45.9147 13.1992 46.0123 15.0132 46.2891 16.8113C46.7774 17.8155 47.526 18.5605 48.5352 19.0463C51.0805 19.5462 52.8057 18.6068 53.711 16.2283C53.8086 14.61 53.841 12.9904 53.8086 11.3695C58.5611 11.3695 63.3139 11.3695 68.0664 11.3695C68.034 12.9256 68.0664 14.4804 68.1641 16.0339C68.3709 16.6399 68.6313 17.2229 68.9453 17.7831C69.1658 18.102 69.4588 18.2964 69.8242 18.3661C69.9127 18.5524 70.0428 18.7143 70.2149 18.852C72.8408 19.7639 74.6963 18.9541 75.7813 16.4226C75.8145 14.704 75.9121 13.0196 76.0742 11.3695C76.5299 11.3695 76.9858 11.3695 77.4414 11.3695C79.1565 11.7467 80.2957 12.7832 80.8594 14.4791C80.9897 41.8178 80.9897 69.1563 80.8594 96.495C80.3526 98.1349 79.2783 99.1066 77.6367 99.4102C56.3477 99.4102 35.0586 99.4102 13.7695 99.4102C12.373 98.8287 11.494 97.7921 11.1328 96.3006C11.0026 69.0268 11.0026 41.7529 11.1328 14.4791C11.4926 12.8254 12.5017 11.8212 14.1602 11.4667C17.3496 11.3695 20.5397 11.3371 23.7305 11.3695Z" fill="#DFEDD4"/>
<path fill-rule="evenodd" clip-rule="evenodd" d="M77.4414 11.3695C80.4475 11.2849 83.4424 11.3821 86.4258 11.661C87.6635 12.2122 88.4121 13.1516 88.6719 14.4791C88.8022 41.7529 88.8022 69.0268 88.6719 96.3006C88.3107 97.7921 87.4318 98.8287 86.0352 99.4102C83.2357 99.4102 80.4361 99.4102 77.6367 99.4102C79.2783 99.1066 80.3525 98.1349 80.8594 96.495C80.9896 69.1563 80.9896 41.8178 80.8594 14.4791C80.2957 12.7833 79.1564 11.7467 77.4414 11.3695Z" fill="#6D8C44"/>
<path fill-rule="evenodd" clip-rule="evenodd" d="M34.8635 28.6667C36.5881 28.4066 37.2717 29.1193 36.9143 30.8045C33.8543 34.4972 30.7945 38.1898 27.7346 41.8825C27.1068 42.823 26.2932 43.0498 25.2932 42.5627C24.0807 40.8305 22.9414 39.0491 21.8752 37.2181C21.8256 35.4571 22.6392 34.9065 24.3166 35.5661C25.0246 36.6185 25.7082 37.6874 26.3674 38.7729C29.1545 35.3622 31.9865 31.9934 34.8635 28.6667Z" fill="#88B367"/>
<path fill-rule="evenodd" clip-rule="evenodd" d="M41.8937 35.6633C53.222 35.6308 64.5501 35.6633 75.8781 35.7605C78.0089 36.7958 78.5622 38.383 77.5382 40.5221C76.9663 41.2763 76.2177 41.7622 75.2921 41.9797C64.2896 42.1093 53.2868 42.1093 42.2843 41.9797C39.8753 40.8771 39.257 39.1604 40.4288 36.8294C40.8417 36.32 41.33 35.9313 41.8937 35.6633Z" fill="#88B367"/>
<path fill-rule="evenodd" clip-rule="evenodd" d="M34.8635 48.4904C36.742 48.4459 37.3604 49.288 36.719 51.017C33.5008 54.9257 30.2129 58.7803 26.8557 62.5808C25.6956 62.8566 24.8817 62.4354 24.4143 61.3175C23.568 59.8924 22.7215 58.467 21.8752 57.0418C21.793 55.3817 22.5417 54.8311 24.1213 55.3899C24.9461 56.4051 25.6948 57.4741 26.3674 58.5966C29.2407 55.2526 32.0727 51.8838 34.8635 48.4904Z" fill="#88B367"/>
<path fill-rule="evenodd" clip-rule="evenodd" d="M41.8945 55.487C53.2229 55.4546 64.551 55.487 75.8789 55.5842C77.9488 56.6457 78.5023 58.2328 77.5391 60.3458C76.993 61.1496 76.2443 61.6355 75.293 61.8034C64.2904 61.933 53.2877 61.933 42.2852 61.8034C40.702 61.2643 39.8555 60.1629 39.7461 58.4995C39.9148 57.09 40.6311 56.0858 41.8945 55.487Z" fill="#88B367"/>
<path fill-rule="evenodd" clip-rule="evenodd" d="M35.0588 68.3141C36.8381 68.367 37.3915 69.2091 36.719 70.8407C33.5045 74.7524 30.2168 78.607 26.8557 82.4046C26.2436 82.5581 25.6577 82.4934 25.0979 82.2102C23.95 80.477 22.8758 78.6954 21.8752 76.8656C21.793 75.2054 22.5417 74.6548 24.1213 75.2136C24.8942 76.2656 25.6428 77.3345 26.3674 78.4204C29.2438 75.0095 32.1411 71.6407 35.0588 68.3141Z" fill="#88B367"/>
<path fill-rule="evenodd" clip-rule="evenodd" d="M42.0907 75.3108C53.2888 75.2783 64.4868 75.3108 75.6845 75.4079C78.1948 76.6374 78.6831 78.419 77.1493 80.7526C76.7097 81.1174 76.2214 81.4089 75.6845 81.6271C64.4866 81.7568 53.2886 81.7568 42.0907 81.6271C39.6505 80.3679 39.1622 78.5863 40.6259 76.2825C41.1101 75.93 41.5983 75.606 42.0907 75.3108Z" fill="#88B367"/>
</g>
<defs>
<clipPath id="clip0_2588_4056">
<rect width="100" height="99.5074" fill="white"/>
</clipPath>
</defs>
</svg>
