<svg width="100" height="100" viewBox="0 0 100 100" fill="none" xmlns="http://www.w3.org/2000/svg">
<g clip-path="url(#clip0_2761_3837)">
<path opacity="0.999" fill-rule="evenodd" clip-rule="evenodd" d="M23.3403 -0.0976562C38.4444 -0.0976562 53.5487 -0.0976562 68.6528 -0.0976562C68.6202 6.6084 68.6528 13.3141 68.7505 20.0195C69.7722 23.0943 71.8882 24.7219 75.0982 24.9023C81.2179 31.1523 87.4028 37.3373 93.6528 43.457C93.6855 60.7098 93.6528 77.9623 93.5552 95.2148C93.2833 96.3309 92.7624 97.3074 91.9927 98.1445C91.0943 98.9504 90.0853 99.5363 88.9653 99.9023C67.0903 99.9023 45.2153 99.9023 23.3403 99.9023C21.5007 99.268 20.1009 98.0961 19.1411 96.3867C19.0109 95.9961 18.8807 95.6055 18.7505 95.2148C18.6529 92.6115 18.6203 90.0072 18.6528 87.4023C38.705 87.435 58.7571 87.4023 78.8091 87.3047C79.7241 87.041 80.4077 86.4877 80.8599 85.6445C81.1275 84.4254 81.2251 83.1885 81.1528 81.9336C81.1855 70.9309 81.1528 59.9281 81.0552 48.9258C80.6146 47.899 79.8657 47.2154 78.8091 46.875C58.7571 46.7773 38.705 46.7447 18.6528 46.7773C18.6203 32.7146 18.6528 18.6522 18.7505 4.58984C19.0224 3.47389 19.5433 2.49732 20.313 1.66016C21.2114 0.854256 22.2204 0.268318 23.3403 -0.0976562Z" fill="#DFEDD4"/>
<path fill-rule="evenodd" clip-rule="evenodd" d="M68.6529 -0.0976562C68.7179 -0.0976562 68.7831 -0.0976562 68.8482 -0.0976562C77.0513 8.17057 85.2544 16.4388 93.4575 24.707C87.3712 24.902 81.2513 24.9672 75.0982 24.9023C71.8882 24.7219 69.7722 23.0943 68.7505 20.0195C68.6529 13.3141 68.6202 6.6084 68.6529 -0.0976562Z" fill="#88B367"/>
<path fill-rule="evenodd" clip-rule="evenodd" d="M93.457 24.707C93.652 30.9236 93.7172 37.1736 93.6524 43.457C87.4024 37.3373 81.2174 31.1523 75.0977 24.9023C81.2508 24.9672 87.3707 24.902 93.457 24.707Z" fill="#DFEDD4"/>
<path opacity="0.999" fill-rule="evenodd" clip-rule="evenodd" d="M18.6524 46.7774C38.7045 46.7448 58.7567 46.7774 78.8086 46.875C79.8653 47.2155 80.6141 47.8991 81.0547 48.9258C81.1524 59.9282 81.185 70.9309 81.1524 81.9336C80.7324 83.0368 79.9512 83.7854 78.8086 84.1797C58.7567 84.2774 38.7045 84.31 18.6524 84.2774C15.1361 84.31 11.6205 84.2774 8.10547 84.1797C7.22657 83.8217 6.60807 83.2032 6.25 82.3243C6.11979 71.1264 6.11979 59.9284 6.25 48.7305C6.60807 47.8516 7.22657 47.233 8.10547 46.875C11.6205 46.7774 15.1361 46.7448 18.6524 46.7774Z" fill="#6D8C44"/>
<path fill-rule="evenodd" clip-rule="evenodd" d="M43.2615 56.9336C50.068 57.1965 53.4209 60.7121 53.3201 67.4805C52.549 71.5068 50.1727 74.0133 46.1912 75C38.4367 75.5137 34.7584 71.9004 35.156 64.1602C36.3644 60.0535 39.0664 57.6447 43.2615 56.9336Z" fill="#DFEDD4"/>
<path fill-rule="evenodd" clip-rule="evenodd" d="M63.7703 57.1291C65.932 57.0348 67.9501 57.5231 69.8249 58.594C70.9085 59.1676 71.3968 60.0465 71.2898 61.2307C70.7845 62.1229 70.0357 62.4159 69.0437 62.1096C67.4751 60.5375 65.5872 60.0166 63.3796 60.5471C60.7533 61.4694 59.4513 63.3248 59.4734 66.1135C59.823 70.9141 62.362 72.7696 67.0906 71.6799C67.9224 71.3022 68.7037 70.8463 69.4343 70.3127C70.9326 70.0537 71.6162 70.6723 71.4851 72.1682C70.8468 73.4184 69.8376 74.2321 68.4578 74.6096C60.0906 76.1381 56.0867 72.6551 56.446 64.1604C57.4089 60.2346 59.8503 57.8909 63.7703 57.1291Z" fill="#DFEDD4"/>
<path fill-rule="evenodd" clip-rule="evenodd" d="M17.2852 57.7149C20.0854 57.6823 22.885 57.7149 25.6836 57.8125C30.5596 59.3772 32.6754 62.7301 32.0313 67.8711C31.2801 71.7473 28.9688 74.0586 25.0977 74.8047C22.4936 74.935 19.8893 74.935 17.2852 74.8047C16.9363 74.6514 16.6434 74.4236 16.4063 74.1211C16.276 68.9127 16.276 63.7045 16.4063 58.4961C16.6791 58.1895 16.972 57.9289 17.2852 57.7149Z" fill="#DFEDD4"/>
<path fill-rule="evenodd" clip-rule="evenodd" d="M42.8704 60.2538C46.4442 59.9059 48.8204 61.4034 49.9993 64.746C50.2971 70.0465 47.7907 72.4227 42.4798 71.8749C39.1376 70.5633 37.8028 68.1219 38.4759 64.5506C39.1456 62.2856 40.6104 60.8534 42.8704 60.2538Z" fill="#6D8C44"/>
<path fill-rule="evenodd" clip-rule="evenodd" d="M19.6289 60.6445C21.3879 60.6121 23.1457 60.6445 24.9023 60.7421C27.4721 61.5548 28.774 63.3126 28.8086 66.0156C28.9525 68.9218 27.6506 70.8099 24.9023 71.6796C23.1457 71.7773 21.3879 71.8097 19.6289 71.7773C19.6289 68.0663 19.6289 64.3554 19.6289 60.6445Z" fill="#6D8C44"/>
<path fill-rule="evenodd" clip-rule="evenodd" d="M81.1523 81.9336C81.2246 83.1885 81.127 84.4254 80.8594 85.6445C80.4072 86.4877 79.7236 87.041 78.8086 87.3047C58.7566 87.4023 38.7045 87.4349 18.6523 87.4023C18.6523 86.3607 18.6523 85.3189 18.6523 84.2773C38.7045 84.31 58.7566 84.2773 78.8086 84.1797C79.9512 83.7853 80.7324 83.0367 81.1523 81.9336Z" fill="#63744C"/>
</g>
<defs>
<clipPath id="clip0_2761_3837">
<rect width="100" height="100" fill="white"/>
</clipPath>
</defs>
</svg>
