<svg width="100" height="101" viewBox="0 0 100 101" fill="none" xmlns="http://www.w3.org/2000/svg">
<g clip-path="url(#clip0_2588_371)">
<path fill-rule="evenodd" clip-rule="evenodd" d="M46.5825 -0.0979004C48.0147 -0.0979004 49.4471 -0.0979004 50.8793 -0.0979004C50.1022 0.257659 49.5489 0.845422 49.2192 1.66539C49.1215 3.16602 49.0891 4.66809 49.1215 6.17157C47.7543 6.17157 46.3871 6.17157 45.02 6.17157C44.9875 4.60285 45.02 3.03548 45.1176 1.46947C45.4477 0.779651 45.936 0.257195 46.5825 -0.0979004Z" fill="#3D8244"/>
<path opacity="0.983" fill-rule="evenodd" clip-rule="evenodd" d="M50.8793 -0.0979004C51.6606 -0.0979004 52.4418 -0.0979004 53.2231 -0.0979004C53.8696 0.257195 54.3578 0.779651 54.6879 1.46947C54.7856 3.03548 54.818 4.60285 54.7856 6.17157C52.8975 6.17157 51.0096 6.17157 49.1215 6.17157C49.0891 4.66809 49.1215 3.16602 49.2192 1.66539C49.5489 0.845422 50.1022 0.257659 50.8793 -0.0979004Z" fill="#CEE4BD"/>
<path opacity="0.989" fill-rule="evenodd" clip-rule="evenodd" d="M45.0192 6.17142C46.3863 6.17142 47.7535 6.17142 49.1207 6.17142C51.0088 6.17142 52.8967 6.17142 54.7848 6.17142C58.301 6.13878 61.8166 6.17144 65.3317 6.26938C66.7463 6.95845 67.3322 8.10134 67.0895 9.698C66.8281 10.7703 66.1772 11.5213 65.1363 11.9511C54.9801 12.0817 44.8238 12.0817 34.6676 11.9511C33.6268 11.5213 32.9758 10.7703 32.7145 9.698C32.4717 8.10134 33.0576 6.95845 34.4723 6.26938C37.9873 6.17144 41.5029 6.13878 45.0192 6.17142Z" fill="#CEE4BD"/>
<path fill-rule="evenodd" clip-rule="evenodd" d="M32.7151 9.698C32.9764 10.7703 33.6274 11.5213 34.6682 11.9511C44.8245 12.0817 54.9807 12.0817 65.137 11.9511C66.1778 11.5213 66.8288 10.7703 67.0901 9.698C67.0901 10.1551 67.0901 10.6123 67.0901 11.0694C67.1495 12.2601 67.0518 13.4356 66.7971 14.596C66.1567 15.6616 65.2125 16.184 63.9651 16.1634C62.9235 16.1634 61.8817 16.1634 60.8401 16.1634C53.5485 16.1634 46.2567 16.1634 38.9651 16.1634C37.9235 16.1634 36.8817 16.1634 35.8401 16.1634C34.5926 16.184 33.6485 15.6616 33.008 14.596C32.7534 13.4356 32.6557 12.2601 32.7151 11.0694C32.7151 10.6123 32.7151 10.1551 32.7151 9.698Z" fill="#CEE4BD"/>
<path opacity="0.996" fill-rule="evenodd" clip-rule="evenodd" d="M22.168 11.0696C25.6836 11.0696 29.1992 11.0696 32.7148 11.0696C32.6555 12.2602 32.7531 13.4358 33.0078 14.5962C33.6482 15.6617 34.5924 16.1842 35.8398 16.1636C35.8398 17.9921 35.8398 19.8208 35.8398 21.6493C30.6963 21.6166 25.5529 21.6493 20.4102 21.7473C20.1822 21.9759 19.9545 22.2044 19.7266 22.433C19.5963 46.0088 19.5963 69.5847 19.7266 93.1605C19.8893 93.4544 20.1172 93.683 20.4102 93.8462C21.7758 93.9442 23.143 93.9767 24.5117 93.9442C42.8061 93.9769 61.1004 93.9442 79.3945 93.8462C79.6225 93.6176 79.8502 93.3891 80.0781 93.1605C80.2084 69.5847 80.2084 46.0088 80.0781 22.433C79.8205 22.0437 79.4625 21.8151 79.0039 21.7473C73.9912 21.6493 68.9783 21.6166 63.9649 21.6493C63.9649 19.8208 63.9649 17.9921 63.9649 16.1636C65.2123 16.1842 66.1565 15.6617 66.7969 14.5962C67.0516 13.4358 67.1492 12.2602 67.0899 11.0696C72.1033 11.037 77.1162 11.0696 82.1289 11.1676C84.335 11.6822 85.7998 13.021 86.5234 15.184C86.6537 42.1558 86.6537 69.1274 86.5234 96.0993C85.9344 98.2246 84.5998 99.5961 82.5195 100.214C62.142 100.214 41.7643 100.214 21.3867 100.214C19.3539 99.4474 18.0192 98.0107 17.3828 95.9034C17.2526 68.997 17.2526 42.0904 17.3828 15.184C18.2308 12.917 19.8258 11.5455 22.168 11.0696Z" fill="#3D8244"/>
<path fill-rule="evenodd" clip-rule="evenodd" d="M22.168 11.0696C19.8258 11.5455 18.2308 12.9169 17.3828 15.1839C17.2526 42.0903 17.2526 68.9969 17.3828 95.9034C18.0192 98.0107 19.3539 99.4474 21.3867 100.214C20.0195 100.214 18.6524 100.214 17.2852 100.214C15.205 99.5961 13.8703 98.2246 13.2813 96.0993C13.151 69.1274 13.151 42.1558 13.2813 15.1839C14.0049 13.021 15.4697 11.6822 17.6758 11.1675C19.1718 11.0696 20.6691 11.037 22.168 11.0696Z" fill="#3D8244"/>
<path fill-rule="evenodd" clip-rule="evenodd" d="M35.8403 16.1636C36.8819 16.1636 37.9237 16.1636 38.9653 16.1636C38.9653 17.9922 38.9653 19.8208 38.9653 21.6494C38.9041 23.0708 38.9692 24.4747 39.1606 25.8617C46.3221 25.9923 53.4834 25.9923 60.645 25.8617C60.8364 24.4747 60.9014 23.0708 60.8403 21.6494C60.8403 19.8208 60.8403 17.9922 60.8403 16.1636C61.8819 16.1636 62.9237 16.1636 63.9653 16.1636C63.9653 17.9922 63.9653 19.8208 63.9653 21.6494C63.9977 23.2181 63.9653 24.7855 63.8676 26.3515C63.5378 27.336 62.9192 28.0871 62.0122 28.6046C57.9526 28.8287 53.8836 28.9267 49.8051 28.8984C45.9965 28.8657 42.1879 28.8332 38.3793 28.8005C37.1748 28.3759 36.3612 27.5597 35.9379 26.3515C35.8403 24.8509 35.8079 23.3488 35.8403 21.8453C35.8403 21.78 35.8403 21.7146 35.8403 21.6494C35.8403 19.8208 35.8403 17.9922 35.8403 16.1636Z" fill="#4E9A5F"/>
<path fill-rule="evenodd" clip-rule="evenodd" d="M38.9648 16.1636C46.2564 16.1636 53.5482 16.1636 60.8398 16.1636C60.8398 17.9922 60.8398 19.8208 60.8398 21.6494C53.5482 21.6494 46.2564 21.6494 38.9648 21.6494C38.9648 19.8208 38.9648 17.9922 38.9648 16.1636Z" fill="#3D8244"/>
<path fill-rule="evenodd" clip-rule="evenodd" d="M35.8399 21.6492C35.8399 21.7145 35.8399 21.7799 35.8399 21.8452C32.0633 21.8124 28.2872 21.8452 24.5118 21.9431C24.2838 22.0411 24.1211 22.2043 24.0235 22.4329C23.8932 46.0741 23.8932 69.7151 24.0235 93.3563C24.2276 93.5274 24.3903 93.7233 24.5118 93.9441C23.143 93.9766 21.7758 93.9441 20.4102 93.8461C20.1172 93.6829 19.8893 93.4543 19.7266 93.1604C19.5963 69.5846 19.5963 46.0087 19.7266 22.4329C19.9545 22.2043 20.1823 21.9758 20.4102 21.7472C25.553 21.6492 30.6963 21.6165 35.8399 21.6492Z" fill="#CEE4BD"/>
<path fill-rule="evenodd" clip-rule="evenodd" d="M63.9649 21.6492C68.9784 21.6165 73.9912 21.6492 79.0039 21.7472C79.4625 21.815 79.8205 22.0436 80.0782 22.4329C80.2084 46.0087 80.2084 69.5846 80.0782 93.1604C79.8502 93.389 79.6225 93.6175 79.3946 93.8461C61.1004 93.9441 42.8061 93.9768 24.5118 93.9441C24.3903 93.7233 24.2276 93.5274 24.0235 93.3563C23.8932 69.7151 23.8932 46.0741 24.0235 22.4329C24.1211 22.2043 24.2838 22.0411 24.5118 21.9431C28.2872 21.8452 32.0633 21.8124 35.8399 21.8452C35.8075 23.3487 35.8399 24.8508 35.9375 26.3513C36.3608 27.5596 37.1745 28.3758 38.379 28.8004C42.1875 28.8331 45.9961 28.8656 49.8047 28.8983C53.8832 28.9265 57.9522 28.8286 62.0118 28.6044C62.9188 28.087 63.5373 27.3358 63.8672 26.3513C63.9649 24.7853 63.9973 23.218 63.9649 21.6492Z" fill="#CEE4BD"/>
<path fill-rule="evenodd" clip-rule="evenodd" d="M38.9646 21.6492C46.2562 21.6492 53.548 21.6492 60.8396 21.6492C60.9007 23.0706 60.8357 24.4746 60.6443 25.8615C53.4828 25.9922 46.3214 25.9922 39.1599 25.8615C38.9685 24.4746 38.9035 23.0706 38.9646 21.6492Z" fill="#CEE4BD"/>
<path fill-rule="evenodd" clip-rule="evenodd" d="M35.0586 46.1394C33.5682 44.5462 32.0383 42.9788 30.4688 41.4373C29.8813 40.5525 29.6535 39.5729 29.7852 38.4985C30.9461 39.4009 32.0528 40.3805 33.1055 41.4373C35.3545 39.2138 37.6332 37.026 39.9414 34.874C41.7242 34.6065 42.7659 35.3575 43.0664 37.1271C43.1065 37.6617 42.9438 38.1188 42.5782 38.4985C40.1682 41.1446 37.6616 43.6916 35.0586 46.1394Z" fill="#3D8244"/>
<path fill-rule="evenodd" clip-rule="evenodd" d="M29.7853 38.4984C29.6537 39.5728 29.8814 40.5524 30.4689 41.4372C32.0385 42.9787 33.5683 44.5461 35.0588 46.1393C34.2428 47.2063 33.2012 47.5002 31.9338 47.021C30.4144 45.4969 28.8844 43.9621 27.3439 42.4168C26.123 40.3095 26.6765 38.9381 29.0041 38.3025C29.2824 38.3266 29.5427 38.392 29.7853 38.4984Z" fill="#3D8244"/>
<path fill-rule="evenodd" clip-rule="evenodd" d="M49.3162 39.4781C56.9988 39.4454 64.681 39.4781 72.3631 39.5761C73.5576 40.0308 73.8506 40.8472 73.242 42.0251C72.9648 42.2131 72.6719 42.3763 72.3631 42.5149C64.7459 42.6455 57.1287 42.6455 49.5115 42.5149C48.0408 41.5774 47.9758 40.5651 49.3162 39.4781Z" fill="#3D8244"/>
<path fill-rule="evenodd" clip-rule="evenodd" d="M35.0582 63.9682C33.5132 62.3203 31.9183 60.6875 30.273 59.0702C29.8621 58.2038 29.6994 57.2896 29.7847 56.3273C30.955 57.2078 32.0293 58.1874 33.0074 59.2661C35.1802 57.2826 37.2962 55.2254 39.355 53.0946C41.3658 52.1775 42.6027 52.798 43.066 54.9558C43.063 55.3739 42.9654 55.7658 42.773 56.1314C40.2978 58.8427 37.7263 61.4551 35.0582 63.9682Z" fill="#3D8244"/>
<path fill-rule="evenodd" clip-rule="evenodd" d="M29.785 56.3272C29.6997 57.2896 29.8624 58.2037 30.2733 59.0701C31.9186 60.6874 33.5135 62.3202 35.0584 63.9681C33.9844 65.3116 32.7475 65.4748 31.3475 64.4579C30.0842 62.9944 28.7495 61.5904 27.3436 60.2456C26.168 58.3928 26.5913 57.0541 28.6131 56.2292C29.0126 56.1332 29.4032 56.166 29.785 56.3272Z" fill="#3D8244"/>
<path fill-rule="evenodd" clip-rule="evenodd" d="M49.3161 57.8946C57.1288 57.8619 64.9413 57.8946 72.7536 57.9926C73.7952 58.9069 73.7952 59.8211 72.7536 60.7354C64.9411 60.8661 57.1286 60.8661 49.3161 60.7354C48.0274 59.7811 48.0274 58.834 49.3161 57.8946Z" fill="#3D8244"/>
<path fill-rule="evenodd" clip-rule="evenodd" d="M35.0585 81.9928C33.5902 80.2244 31.9951 78.5264 30.2734 76.8989C29.8421 76.0399 29.6794 75.1256 29.7851 74.156C31.0162 75.0641 32.1228 76.1091 33.1054 77.2907C35.2191 75.0072 37.4326 72.8194 39.746 70.7273C41.5923 70.2164 42.699 70.9021 43.0664 72.7845C43.0562 73.4579 42.8283 74.0457 42.3828 74.5478C39.8966 77.009 37.4552 79.4905 35.0585 81.9928Z" fill="#3D8244"/>
<path fill-rule="evenodd" clip-rule="evenodd" d="M29.7852 74.1561C29.6795 75.1257 29.8422 76.0401 30.2735 76.899C31.9952 78.5265 33.5903 80.2246 35.0587 81.9929C34.2907 82.8987 33.3141 83.1926 32.129 82.8746C30.3385 81.3399 28.6784 79.6746 27.1485 77.8786C26.2001 75.3412 27.079 74.1004 29.7852 74.1561Z" fill="#3D8244"/>
<path fill-rule="evenodd" clip-rule="evenodd" d="M49.3167 76.3111C57.1293 76.2784 64.9418 76.3111 72.7542 76.4091C73.7958 77.3234 73.7958 78.2376 72.7542 79.1519C64.9417 79.2826 57.1292 79.2826 49.3167 79.1519C48.0247 78.1888 48.0247 77.2419 49.3167 76.3111Z" fill="#3D8244"/>
</g>
<defs>
<clipPath id="clip0_2588_371">
<rect width="100" height="100.312" fill="white"/>
</clipPath>
</defs>
</svg>
